%TF.GenerationSoftware,KiCad,Pcbnew,7.0.10*%
%TF.CreationDate,2024-03-16T17:25:35+01:00*%
%TF.ProjectId,chew_v1,63686577-5f76-4312-9e6b-696361645f70,rev?*%
%TF.SameCoordinates,Original*%
%TF.FileFunction,Drillmap*%
%TF.FilePolarity,Positive*%
%FSLAX45Y45*%
G04 Gerber Fmt 4.5, Leading zero omitted, Abs format (unit mm)*
G04 Created by KiCad (PCBNEW 7.0.10) date 2024-03-16 17:25:35*
%MOMM*%
%LPD*%
G01*
G04 APERTURE LIST*
%ADD10C,0.150000*%
%ADD11C,0.200000*%
%ADD12C,0.100000*%
%ADD13C,0.130000*%
%ADD14C,0.220000*%
G04 APERTURE END LIST*
D10*
X5126176Y-7630017D02*
G75*
G03*
X5313210Y-7226499I-83294J283712D01*
G01*
X5312275Y-7224654D02*
G75*
G03*
X5391575Y-6890467I-101551J200599D01*
G01*
X4364238Y-8036680D02*
G75*
G03*
X4689725Y-7928055I126015J164366D01*
G01*
X4689725Y-7928055D02*
G75*
G03*
X5126176Y-7630017I100551J321344D01*
G01*
X17263988Y-14090045D02*
G75*
G03*
X12656596Y-13530443I-4263988J-15859951D01*
G01*
X15504899Y-5923027D02*
G75*
G03*
X15397723Y-5726483I-154899J43027D01*
G01*
X15504899Y-5923027D02*
X15404419Y-6209034D01*
X16581185Y-6963555D02*
X16638827Y-7136482D01*
X15404423Y-6209036D02*
G75*
G03*
X15500000Y-6410000I152307J-50774D01*
G01*
X17692528Y-13880975D02*
G75*
G03*
X18424349Y-8016206I-5506868J3665205D01*
G01*
X11706613Y-13359052D02*
G75*
G03*
X6004060Y-13228168I-3057297J-8910715D01*
G01*
X17263988Y-14090045D02*
G75*
G03*
X17692528Y-13880974I46902J447595D01*
G01*
X16881840Y-7385994D02*
X18307144Y-7903273D01*
X15500000Y-6410000D02*
X16338113Y-6714021D01*
X4364238Y-8036680D02*
G75*
G03*
X5717199Y-13115305I16449204J1662587D01*
G01*
X5717199Y-13115305D02*
G75*
G03*
X6004060Y-13228167I222801J145305D01*
G01*
X11706613Y-13359052D02*
G75*
G03*
X12656596Y-13530443I1493387J5559062D01*
G01*
X15399377Y-5720824D02*
G75*
G03*
X5391575Y-6890467I-3623836J-12393055D01*
G01*
X16638826Y-7136482D02*
G75*
G03*
X16881840Y-7385994I379474J126493D01*
G01*
X16581186Y-6963555D02*
G75*
G03*
X16338113Y-6714021I-379476J-126495D01*
G01*
X18424349Y-8016206D02*
G75*
G03*
X18307144Y-7903273I-204349J-94794D01*
G01*
D11*
D12*
X16138102Y-10594155D02*
X16178102Y-10634155D01*
X16178102Y-10594155D02*
X16138102Y-10634155D01*
X16224975Y-10355473D02*
X16264975Y-10395473D01*
X16264975Y-10355473D02*
X16224975Y-10395473D01*
X16311848Y-10116791D02*
X16351848Y-10156791D01*
X16351848Y-10116791D02*
X16311848Y-10156791D01*
X16398721Y-9878109D02*
X16438721Y-9918109D01*
X16438721Y-9878109D02*
X16398721Y-9918109D01*
X16420009Y-10696761D02*
X16460009Y-10736761D01*
X16460009Y-10696761D02*
X16420009Y-10736761D01*
X16485594Y-9639427D02*
X16525594Y-9679427D01*
X16525594Y-9639427D02*
X16485594Y-9679427D01*
X16506882Y-10458079D02*
X16546882Y-10498079D01*
X16546882Y-10458079D02*
X16506882Y-10498079D01*
X16572467Y-9400745D02*
X16612467Y-9440745D01*
X16612467Y-9400745D02*
X16572467Y-9440745D01*
X16593756Y-10219397D02*
X16633756Y-10259397D01*
X16633756Y-10219397D02*
X16593756Y-10259397D01*
X16659340Y-9162063D02*
X16699340Y-9202063D01*
X16699340Y-9162063D02*
X16659340Y-9202063D01*
X16680629Y-9980715D02*
X16720629Y-10020715D01*
X16720629Y-9980715D02*
X16680629Y-10020715D01*
X16746213Y-8923381D02*
X16786213Y-8963381D01*
X16786213Y-8923381D02*
X16746213Y-8963381D01*
X16767502Y-9742033D02*
X16807502Y-9782033D01*
X16807502Y-9742033D02*
X16767502Y-9782033D01*
X16833087Y-8684699D02*
X16873087Y-8724699D01*
X16873087Y-8684699D02*
X16833087Y-8724699D01*
X16854375Y-9503351D02*
X16894375Y-9543351D01*
X16894375Y-9503351D02*
X16854375Y-9543351D01*
X16919960Y-8446018D02*
X16959960Y-8486018D01*
X16959960Y-8446018D02*
X16919960Y-8486018D01*
X16941248Y-9264669D02*
X16981248Y-9304669D01*
X16981248Y-9264669D02*
X16941248Y-9304669D01*
X17006833Y-8207336D02*
X17046833Y-8247336D01*
X17046833Y-8207336D02*
X17006833Y-8247336D01*
X17028121Y-9025987D02*
X17068121Y-9065987D01*
X17068121Y-9025987D02*
X17028121Y-9065987D01*
X17093706Y-7968654D02*
X17133706Y-8008654D01*
X17133706Y-7968654D02*
X17093706Y-8008654D01*
X17114994Y-8787306D02*
X17154994Y-8827306D01*
X17154994Y-8787306D02*
X17114994Y-8827306D01*
X17201867Y-8548624D02*
X17241867Y-8588624D01*
X17241867Y-8548624D02*
X17201867Y-8588624D01*
X17288741Y-8309942D02*
X17328741Y-8349942D01*
X17328741Y-8309942D02*
X17288741Y-8349942D01*
X17375614Y-8071260D02*
X17415614Y-8111260D01*
X17415614Y-8071260D02*
X17375614Y-8111260D01*
X5258443Y-9263491D02*
G75*
G03*
X5194943Y-9263491I-31750J0D01*
G01*
X5194943Y-9263491D02*
G75*
G03*
X5258443Y-9263491I31750J0D01*
G01*
X5249143Y-9224606D02*
X5187807Y-9241041D01*
X5187807Y-9241041D02*
G75*
G03*
X5204242Y-9302377I8218J-30668D01*
G01*
X5204242Y-9302377D02*
X5265578Y-9285942D01*
X5265578Y-9285942D02*
G75*
G03*
X5249143Y-9224606I-8218J30668D01*
G01*
X5698435Y-10905565D02*
G75*
G03*
X5634935Y-10905565I-31750J0D01*
G01*
X5634935Y-10905565D02*
G75*
G03*
X5698435Y-10905565I31750J0D01*
G01*
X5689136Y-10866680D02*
X5627799Y-10883115D01*
X5627799Y-10883115D02*
G75*
G03*
X5644234Y-10944451I8218J-30668D01*
G01*
X5644234Y-10944451D02*
X5705571Y-10928016D01*
X5705571Y-10928016D02*
G75*
G03*
X5689136Y-10866680I-8218J30668D01*
G01*
X5795758Y-9336926D02*
G75*
G03*
X5732258Y-9336926I-31750J0D01*
G01*
X5732258Y-9336926D02*
G75*
G03*
X5795758Y-9336926I31750J0D01*
G01*
X5786458Y-9298041D02*
X5725122Y-9314476D01*
X5725122Y-9314476D02*
G75*
G03*
X5741557Y-9375812I8218J-30668D01*
G01*
X5741557Y-9375812D02*
X5802893Y-9359377D01*
X5802893Y-9359377D02*
G75*
G03*
X5786458Y-9298041I-8218J30668D01*
G01*
X6138427Y-12547639D02*
G75*
G03*
X6074927Y-12547639I-31750J0D01*
G01*
X6074927Y-12547639D02*
G75*
G03*
X6138427Y-12547639I31750J0D01*
G01*
X6129128Y-12508753D02*
X6067792Y-12525188D01*
X6067792Y-12525188D02*
G75*
G03*
X6084227Y-12586525I8218J-30668D01*
G01*
X6084227Y-12586525D02*
X6145563Y-12570090D01*
X6145563Y-12570090D02*
G75*
G03*
X6129128Y-12508753I-8218J30668D01*
G01*
X6224369Y-9004672D02*
G75*
G03*
X6160869Y-9004672I-31750J0D01*
G01*
X6160869Y-9004672D02*
G75*
G03*
X6224369Y-9004672I31750J0D01*
G01*
X6215069Y-8965787D02*
X6153733Y-8982222D01*
X6153733Y-8982222D02*
G75*
G03*
X6170168Y-9043558I8218J-30668D01*
G01*
X6170168Y-9043558D02*
X6231504Y-9027123D01*
X6231504Y-9027123D02*
G75*
G03*
X6215069Y-8965787I-8218J30668D01*
G01*
X6235750Y-10979000D02*
G75*
G03*
X6172250Y-10979000I-31750J0D01*
G01*
X6172250Y-10979000D02*
G75*
G03*
X6235750Y-10979000I31750J0D01*
G01*
X6226451Y-10940114D02*
X6165114Y-10956549D01*
X6165114Y-10956549D02*
G75*
G03*
X6181549Y-11017886I8218J-30668D01*
G01*
X6181549Y-11017886D02*
X6242886Y-11001451D01*
X6242886Y-11001451D02*
G75*
G03*
X6226451Y-10940114I-8218J30668D01*
G01*
X6664361Y-10646746D02*
G75*
G03*
X6600861Y-10646746I-31750J0D01*
G01*
X6600861Y-10646746D02*
G75*
G03*
X6664361Y-10646746I31750J0D01*
G01*
X6655062Y-10607861D02*
X6593725Y-10624296D01*
X6593725Y-10624296D02*
G75*
G03*
X6610160Y-10685632I8218J-30668D01*
G01*
X6610160Y-10685632D02*
X6671497Y-10669197D01*
X6671497Y-10669197D02*
G75*
G03*
X6655062Y-10607861I-8218J30668D01*
G01*
X6675742Y-12621074D02*
G75*
G03*
X6612242Y-12621074I-31750J0D01*
G01*
X6612242Y-12621074D02*
G75*
G03*
X6675742Y-12621074I31750J0D01*
G01*
X6666443Y-12582188D02*
X6605107Y-12598623D01*
X6605107Y-12598623D02*
G75*
G03*
X6621542Y-12659959I8218J-30668D01*
G01*
X6621542Y-12659959D02*
X6682878Y-12643524D01*
X6682878Y-12643524D02*
G75*
G03*
X6666443Y-12582188I-8218J30668D01*
G01*
X7104353Y-12288820D02*
G75*
G03*
X7040853Y-12288820I-31750J0D01*
G01*
X7040853Y-12288820D02*
G75*
G03*
X7104353Y-12288820I31750J0D01*
G01*
X7095054Y-12249934D02*
X7033718Y-12266369D01*
X7033718Y-12266369D02*
G75*
G03*
X7050153Y-12327706I8218J-30668D01*
G01*
X7050153Y-12327706D02*
X7111489Y-12311271D01*
X7111489Y-12311271D02*
G75*
G03*
X7095054Y-12249934I-8218J30668D01*
G01*
X7220795Y-7528174D02*
G75*
G03*
X7157295Y-7528174I-31750J0D01*
G01*
X7157295Y-7528174D02*
G75*
G03*
X7220795Y-7528174I31750J0D01*
G01*
X7216068Y-7492315D02*
X7153185Y-7501152D01*
X7153186Y-7501152D02*
G75*
G03*
X7162023Y-7564034I4419J-31441D01*
G01*
X7162023Y-7564034D02*
X7224905Y-7555197D01*
X7224905Y-7555197D02*
G75*
G03*
X7216068Y-7492315I-4419J31441D01*
G01*
X7457390Y-9211630D02*
G75*
G03*
X7393890Y-9211630I-31750J0D01*
G01*
X7393890Y-9211630D02*
G75*
G03*
X7457390Y-9211630I31750J0D01*
G01*
X7452662Y-9175770D02*
X7389780Y-9184608D01*
X7389780Y-9184608D02*
G75*
G03*
X7398617Y-9247490I4419J-31441D01*
G01*
X7398617Y-9247490D02*
X7461499Y-9238653D01*
X7461499Y-9238653D02*
G75*
G03*
X7452662Y-9175771I-4419J31441D01*
G01*
X7693984Y-10895086D02*
G75*
G03*
X7630484Y-10895086I-31750J0D01*
G01*
X7630484Y-10895086D02*
G75*
G03*
X7693984Y-10895086I31750J0D01*
G01*
X7689256Y-10859226D02*
X7626374Y-10868064D01*
X7626374Y-10868064D02*
G75*
G03*
X7635212Y-10930946I4419J-31441D01*
G01*
X7635212Y-10930946D02*
X7698094Y-10922108D01*
X7698094Y-10922108D02*
G75*
G03*
X7689256Y-10859226I-4419J31441D01*
G01*
X7745156Y-7666544D02*
G75*
G03*
X7681656Y-7666544I-31750J0D01*
G01*
X7681656Y-7666544D02*
G75*
G03*
X7745156Y-7666544I31750J0D01*
G01*
X7740428Y-7630684D02*
X7677546Y-7639522D01*
X7677546Y-7639522D02*
G75*
G03*
X7686383Y-7702404I4419J-31441D01*
G01*
X7686383Y-7702404D02*
X7749265Y-7693567D01*
X7749265Y-7693567D02*
G75*
G03*
X7740428Y-7630685I-4419J31441D01*
G01*
X7981750Y-9350000D02*
G75*
G03*
X7918250Y-9350000I-31750J0D01*
G01*
X7918250Y-9350000D02*
G75*
G03*
X7981750Y-9350000I31750J0D01*
G01*
X7977022Y-9314140D02*
X7914140Y-9322978D01*
X7914140Y-9322978D02*
G75*
G03*
X7922978Y-9385860I4419J-31441D01*
G01*
X7922978Y-9385860D02*
X7985860Y-9377022D01*
X7985860Y-9377022D02*
G75*
G03*
X7977022Y-9314140I-4419J31441D01*
G01*
X8211063Y-7389001D02*
G75*
G03*
X8147563Y-7389001I-31750J0D01*
G01*
X8147563Y-7389001D02*
G75*
G03*
X8211063Y-7389001I31750J0D01*
G01*
X8206336Y-7353142D02*
X8143454Y-7361979D01*
X8143454Y-7361979D02*
G75*
G03*
X8152291Y-7424861I4419J-31441D01*
G01*
X8152291Y-7424861D02*
X8215173Y-7416024D01*
X8215173Y-7416024D02*
G75*
G03*
X8206336Y-7353142I-4419J31441D01*
G01*
X8218344Y-11033456D02*
G75*
G03*
X8154844Y-11033456I-31750J0D01*
G01*
X8154844Y-11033456D02*
G75*
G03*
X8218344Y-11033456I31750J0D01*
G01*
X8213617Y-10997596D02*
X8150734Y-11006433D01*
X8150735Y-11006433D02*
G75*
G03*
X8159572Y-11069315I4419J-31441D01*
G01*
X8159572Y-11069316D02*
X8222454Y-11060478D01*
X8222454Y-11060478D02*
G75*
G03*
X8213617Y-10997596I-4419J31441D01*
G01*
X8447658Y-9072457D02*
G75*
G03*
X8384158Y-9072457I-31750J0D01*
G01*
X8384158Y-9072457D02*
G75*
G03*
X8447658Y-9072457I31750J0D01*
G01*
X8442930Y-9036597D02*
X8380048Y-9045435D01*
X8380048Y-9045435D02*
G75*
G03*
X8388885Y-9108317I4419J-31441D01*
G01*
X8388885Y-9108317D02*
X8451768Y-9099479D01*
X8451767Y-9099479D02*
G75*
G03*
X8442930Y-9036597I-4419J31441D01*
G01*
X8684252Y-10755913D02*
G75*
G03*
X8620752Y-10755913I-31750J0D01*
G01*
X8620752Y-10755913D02*
G75*
G03*
X8684252Y-10755913I31750J0D01*
G01*
X8679524Y-10720053D02*
X8616642Y-10728891D01*
X8616642Y-10728891D02*
G75*
G03*
X8625480Y-10791773I4419J-31441D01*
G01*
X8625480Y-10791773D02*
X8688362Y-10782935D01*
X8688362Y-10782935D02*
G75*
G03*
X8679524Y-10720053I-4419J31441D01*
G01*
X9531750Y-6790000D02*
G75*
G03*
X9468250Y-6790000I-31750J0D01*
G01*
X9468250Y-6790000D02*
G75*
G03*
X9531750Y-6790000I31750J0D01*
G01*
X9531750Y-6758250D02*
X9468250Y-6758250D01*
X9468250Y-6758250D02*
G75*
G03*
X9468250Y-6821750I0J-31750D01*
G01*
X9468250Y-6821750D02*
X9531750Y-6821750D01*
X9531750Y-6821750D02*
G75*
G03*
X9531750Y-6758250I0J31750D01*
G01*
X9531750Y-8490000D02*
G75*
G03*
X9468250Y-8490000I-31750J0D01*
G01*
X9468250Y-8490000D02*
G75*
G03*
X9531750Y-8490000I31750J0D01*
G01*
X9531750Y-8458250D02*
X9468250Y-8458250D01*
X9468250Y-8458250D02*
G75*
G03*
X9468250Y-8521750I0J-31750D01*
G01*
X9468250Y-8521750D02*
X9531750Y-8521750D01*
X9531750Y-8521750D02*
G75*
G03*
X9531750Y-8458250I0J31750D01*
G01*
X9531750Y-10190000D02*
G75*
G03*
X9468250Y-10190000I-31750J0D01*
G01*
X9468250Y-10190000D02*
G75*
G03*
X9531750Y-10190000I31750J0D01*
G01*
X9531750Y-10158250D02*
X9468250Y-10158250D01*
X9468250Y-10158250D02*
G75*
G03*
X9468250Y-10221750I0J-31750D01*
G01*
X9468250Y-10221750D02*
X9531750Y-10221750D01*
X9531750Y-10221750D02*
G75*
G03*
X9531750Y-10158250I0J31750D01*
G01*
X10031750Y-7000000D02*
G75*
G03*
X9968250Y-7000000I-31750J0D01*
G01*
X9968250Y-7000000D02*
G75*
G03*
X10031750Y-7000000I31750J0D01*
G01*
X10031750Y-6968250D02*
X9968250Y-6968250D01*
X9968250Y-6968250D02*
G75*
G03*
X9968250Y-7031750I0J-31750D01*
G01*
X9968250Y-7031750D02*
X10031750Y-7031750D01*
X10031750Y-7031750D02*
G75*
G03*
X10031750Y-6968250I0J31750D01*
G01*
X10031750Y-8700000D02*
G75*
G03*
X9968250Y-8700000I-31750J0D01*
G01*
X9968250Y-8700000D02*
G75*
G03*
X10031750Y-8700000I31750J0D01*
G01*
X10031750Y-8668250D02*
X9968250Y-8668250D01*
X9968250Y-8668250D02*
G75*
G03*
X9968250Y-8731750I0J-31750D01*
G01*
X9968250Y-8731750D02*
X10031750Y-8731750D01*
X10031750Y-8731750D02*
G75*
G03*
X10031750Y-8668250I0J31750D01*
G01*
X10031750Y-10400000D02*
G75*
G03*
X9968250Y-10400000I-31750J0D01*
G01*
X9968250Y-10400000D02*
G75*
G03*
X10031750Y-10400000I31750J0D01*
G01*
X10031750Y-10368250D02*
X9968250Y-10368250D01*
X9968250Y-10368250D02*
G75*
G03*
X9968250Y-10431750I0J-31750D01*
G01*
X9968250Y-10431750D02*
X10031750Y-10431750D01*
X10031750Y-10431750D02*
G75*
G03*
X10031750Y-10368250I0J31750D01*
G01*
X10531750Y-6790000D02*
G75*
G03*
X10468250Y-6790000I-31750J0D01*
G01*
X10468250Y-6790000D02*
G75*
G03*
X10531750Y-6790000I31750J0D01*
G01*
X10531750Y-6758250D02*
X10468250Y-6758250D01*
X10468250Y-6758250D02*
G75*
G03*
X10468250Y-6821750I0J-31750D01*
G01*
X10468250Y-6821750D02*
X10531750Y-6821750D01*
X10531750Y-6821750D02*
G75*
G03*
X10531750Y-6758250I0J31750D01*
G01*
X10531750Y-8490000D02*
G75*
G03*
X10468250Y-8490000I-31750J0D01*
G01*
X10468250Y-8490000D02*
G75*
G03*
X10531750Y-8490000I31750J0D01*
G01*
X10531750Y-8458250D02*
X10468250Y-8458250D01*
X10468250Y-8458250D02*
G75*
G03*
X10468250Y-8521750I0J-31750D01*
G01*
X10468250Y-8521750D02*
X10531750Y-8521750D01*
X10531750Y-8521750D02*
G75*
G03*
X10531750Y-8458250I0J31750D01*
G01*
X10531750Y-10190000D02*
G75*
G03*
X10468250Y-10190000I-31750J0D01*
G01*
X10468250Y-10190000D02*
G75*
G03*
X10531750Y-10190000I31750J0D01*
G01*
X10531750Y-10158250D02*
X10468250Y-10158250D01*
X10468250Y-10158250D02*
G75*
G03*
X10468250Y-10221750I0J-31750D01*
G01*
X10468250Y-10221750D02*
X10531750Y-10221750D01*
X10531750Y-10221750D02*
G75*
G03*
X10531750Y-10158250I0J31750D01*
G01*
X11394149Y-10795334D02*
G75*
G03*
X11330649Y-10795334I-31750J0D01*
G01*
X11330649Y-10795334D02*
G75*
G03*
X11394149Y-10795334I31750J0D01*
G01*
X11395768Y-10765289D02*
X11332355Y-10761966D01*
X11332355Y-10761966D02*
G75*
G03*
X11329031Y-10825379I-1662J-31707D01*
G01*
X11329031Y-10825379D02*
X11392444Y-10828702D01*
X11392444Y-10828702D02*
G75*
G03*
X11395768Y-10765289I1662J31707D01*
G01*
X11483120Y-9097664D02*
G75*
G03*
X11419620Y-9097664I-31750J0D01*
G01*
X11419620Y-9097664D02*
G75*
G03*
X11483120Y-9097664I31750J0D01*
G01*
X11484739Y-9067619D02*
X11421326Y-9064296D01*
X11421326Y-9064296D02*
G75*
G03*
X11418002Y-9127709I-1662J-31707D01*
G01*
X11418002Y-9127709D02*
X11481415Y-9131032D01*
X11481415Y-9131032D02*
G75*
G03*
X11484739Y-9067619I1662J31707D01*
G01*
X11572092Y-7399994D02*
G75*
G03*
X11508592Y-7399994I-31750J0D01*
G01*
X11508592Y-7399994D02*
G75*
G03*
X11572092Y-7399994I31750J0D01*
G01*
X11573710Y-7369949D02*
X11510297Y-7366626D01*
X11510297Y-7366626D02*
G75*
G03*
X11506973Y-7430039I-1662J-31707D01*
G01*
X11506973Y-7430039D02*
X11570386Y-7433362D01*
X11570386Y-7433362D02*
G75*
G03*
X11573710Y-7369949I1662J31707D01*
G01*
X11882474Y-11031214D02*
G75*
G03*
X11818974Y-11031214I-31750J0D01*
G01*
X11818974Y-11031214D02*
G75*
G03*
X11882474Y-11031214I31750J0D01*
G01*
X11884092Y-11001170D02*
X11820679Y-10997846D01*
X11820679Y-10997846D02*
G75*
G03*
X11817355Y-11061259I-1662J-31707D01*
G01*
X11817355Y-11061259D02*
X11880768Y-11064583D01*
X11880768Y-11064583D02*
G75*
G03*
X11884092Y-11001170I1662J31707D01*
G01*
X11971445Y-9333544D02*
G75*
G03*
X11907945Y-9333544I-31750J0D01*
G01*
X11907945Y-9333544D02*
G75*
G03*
X11971445Y-9333544I31750J0D01*
G01*
X11973063Y-9303499D02*
X11909650Y-9300176D01*
X11909650Y-9300176D02*
G75*
G03*
X11906326Y-9363589I-1662J-31707D01*
G01*
X11906326Y-9363589D02*
X11969739Y-9366912D01*
X11969739Y-9366912D02*
G75*
G03*
X11973063Y-9303499I1662J31707D01*
G01*
X12060416Y-7635874D02*
G75*
G03*
X11996916Y-7635874I-31750J0D01*
G01*
X11996916Y-7635874D02*
G75*
G03*
X12060416Y-7635874I31750J0D01*
G01*
X12062034Y-7605829D02*
X11998621Y-7602506D01*
X11998621Y-7602506D02*
G75*
G03*
X11995298Y-7665919I-1662J-31707D01*
G01*
X11995298Y-7665919D02*
X12058711Y-7669242D01*
X12058711Y-7669242D02*
G75*
G03*
X12062034Y-7605829I1662J31707D01*
G01*
X12392779Y-10847670D02*
G75*
G03*
X12329279Y-10847670I-31750J0D01*
G01*
X12329279Y-10847670D02*
G75*
G03*
X12392779Y-10847670I31750J0D01*
G01*
X12394397Y-10817625D02*
X12330984Y-10814302D01*
X12330984Y-10814302D02*
G75*
G03*
X12327661Y-10877715I-1662J-31707D01*
G01*
X12327661Y-10877715D02*
X12391074Y-10881038D01*
X12391074Y-10881038D02*
G75*
G03*
X12394397Y-10817625I1662J31707D01*
G01*
X12481750Y-9150000D02*
G75*
G03*
X12418250Y-9150000I-31750J0D01*
G01*
X12418250Y-9150000D02*
G75*
G03*
X12481750Y-9150000I31750J0D01*
G01*
X12483368Y-9119955D02*
X12419955Y-9116632D01*
X12419955Y-9116632D02*
G75*
G03*
X12416632Y-9180045I-1662J-31707D01*
G01*
X12416632Y-9180045D02*
X12480045Y-9183368D01*
X12480045Y-9183368D02*
G75*
G03*
X12483368Y-9119955I1662J31707D01*
G01*
X12570721Y-7452330D02*
G75*
G03*
X12507221Y-7452330I-31750J0D01*
G01*
X12507221Y-7452330D02*
G75*
G03*
X12570721Y-7452330I31750J0D01*
G01*
X12572339Y-7422285D02*
X12508926Y-7418962D01*
X12508926Y-7418962D02*
G75*
G03*
X12505603Y-7482375I-1662J-31707D01*
G01*
X12505603Y-7482375D02*
X12569016Y-7485698D01*
X12569016Y-7485698D02*
G75*
G03*
X12572339Y-7422285I1662J31707D01*
G01*
X13259765Y-9660011D02*
G75*
G03*
X13196265Y-9660011I-31750J0D01*
G01*
X13196265Y-9660011D02*
G75*
G03*
X13259765Y-9660011I31750J0D01*
G01*
X13261384Y-9629966D02*
X13197971Y-9626642D01*
X13197971Y-9626642D02*
G75*
G03*
X13194647Y-9690055I-1662J-31707D01*
G01*
X13194647Y-9690055D02*
X13258060Y-9693379D01*
X13258060Y-9693379D02*
G75*
G03*
X13261384Y-9629966I1662J31707D01*
G01*
X13348736Y-7962340D02*
G75*
G03*
X13285236Y-7962340I-31750J0D01*
G01*
X13285236Y-7962340D02*
G75*
G03*
X13348736Y-7962340I31750J0D01*
G01*
X13350355Y-7932296D02*
X13286942Y-7928972D01*
X13286942Y-7928972D02*
G75*
G03*
X13283618Y-7992385I-1662J-31707D01*
G01*
X13283618Y-7992385D02*
X13347031Y-7995709D01*
X13347031Y-7995709D02*
G75*
G03*
X13350355Y-7932296I1662J31707D01*
G01*
X13724381Y-11951091D02*
G75*
G03*
X13660881Y-11951091I-31750J0D01*
G01*
X13660881Y-11951091D02*
G75*
G03*
X13724381Y-11951091I31750J0D01*
G01*
X13660881Y-11919341D02*
X13660881Y-11982841D01*
X13660881Y-11982841D02*
G75*
G03*
X13724381Y-11982841I31750J0D01*
G01*
X13724381Y-11982841D02*
X13724381Y-11919341D01*
X13724381Y-11919341D02*
G75*
G03*
X13660881Y-11919341I-31750J0D01*
G01*
X13724381Y-12951091D02*
G75*
G03*
X13660881Y-12951091I-31750J0D01*
G01*
X13660881Y-12951091D02*
G75*
G03*
X13724381Y-12951091I31750J0D01*
G01*
X13660881Y-12919341D02*
X13660881Y-12982841D01*
X13660881Y-12982841D02*
G75*
G03*
X13724381Y-12982841I31750J0D01*
G01*
X13724381Y-12982841D02*
X13724381Y-12919341D01*
X13724381Y-12919341D02*
G75*
G03*
X13660881Y-12919341I-31750J0D01*
G01*
X13748090Y-9895891D02*
G75*
G03*
X13684590Y-9895891I-31750J0D01*
G01*
X13684590Y-9895891D02*
G75*
G03*
X13748090Y-9895891I31750J0D01*
G01*
X13749708Y-9865846D02*
X13686295Y-9862523D01*
X13686295Y-9862523D02*
G75*
G03*
X13682971Y-9925936I-1662J-31707D01*
G01*
X13682971Y-9925936D02*
X13746384Y-9929259D01*
X13746384Y-9929259D02*
G75*
G03*
X13749708Y-9865846I1662J31707D01*
G01*
X13837061Y-8198221D02*
G75*
G03*
X13773561Y-8198221I-31750J0D01*
G01*
X13773561Y-8198221D02*
G75*
G03*
X13837061Y-8198221I31750J0D01*
G01*
X13838679Y-8168176D02*
X13775266Y-8164852D01*
X13775266Y-8164852D02*
G75*
G03*
X13771942Y-8228265I-1662J-31707D01*
G01*
X13771942Y-8228265D02*
X13835355Y-8231589D01*
X13835355Y-8231589D02*
G75*
G03*
X13838679Y-8168176I1662J31707D01*
G01*
X13934381Y-12451091D02*
G75*
G03*
X13870881Y-12451091I-31750J0D01*
G01*
X13870881Y-12451091D02*
G75*
G03*
X13934381Y-12451091I31750J0D01*
G01*
X13870881Y-12419341D02*
X13870881Y-12482841D01*
X13870881Y-12482841D02*
G75*
G03*
X13934381Y-12482841I31750J0D01*
G01*
X13934381Y-12482841D02*
X13934381Y-12419341D01*
X13934381Y-12419341D02*
G75*
G03*
X13870881Y-12419341I-31750J0D01*
G01*
X14258395Y-9712347D02*
G75*
G03*
X14194895Y-9712347I-31750J0D01*
G01*
X14194895Y-9712347D02*
G75*
G03*
X14258395Y-9712347I31750J0D01*
G01*
X14260013Y-9682302D02*
X14196600Y-9678978D01*
X14196600Y-9678978D02*
G75*
G03*
X14193277Y-9742391I-1662J-31707D01*
G01*
X14193277Y-9742391D02*
X14256690Y-9745715D01*
X14256690Y-9745715D02*
G75*
G03*
X14260013Y-9682302I1662J31707D01*
G01*
X14347366Y-8014676D02*
G75*
G03*
X14283866Y-8014676I-31750J0D01*
G01*
X14283866Y-8014676D02*
G75*
G03*
X14347366Y-8014676I31750J0D01*
G01*
X14348984Y-7984632D02*
X14285571Y-7981308D01*
X14285571Y-7981308D02*
G75*
G03*
X14282248Y-8044721I-1662J-31707D01*
G01*
X14282248Y-8044721D02*
X14345661Y-8048045D01*
X14345661Y-8048045D02*
G75*
G03*
X14348984Y-7984632I1662J31707D01*
G01*
X14630435Y-12288537D02*
G75*
G03*
X14566935Y-12288537I-31750J0D01*
G01*
X14566935Y-12288537D02*
G75*
G03*
X14630435Y-12288537I31750J0D01*
G01*
X14624439Y-12325318D02*
X14635466Y-12262782D01*
X14635466Y-12262782D02*
G75*
G03*
X14572931Y-12251756I-31268J5513D01*
G01*
X14572931Y-12251756D02*
X14561904Y-12314291D01*
X14561904Y-12314291D02*
G75*
G03*
X14624439Y-12325317I31268J-5513D01*
G01*
X14750421Y-12817407D02*
G75*
G03*
X14686921Y-12817407I-31750J0D01*
G01*
X14686921Y-12817407D02*
G75*
G03*
X14750421Y-12817407I31750J0D01*
G01*
X14744425Y-12854188D02*
X14755452Y-12791652D01*
X14755451Y-12791652D02*
G75*
G03*
X14692916Y-12780626I-31268J5513D01*
G01*
X14692916Y-12780626D02*
X14681890Y-12843161D01*
X14681890Y-12843161D02*
G75*
G03*
X14744425Y-12854187I31268J-5513D01*
G01*
X14924069Y-11832599D02*
G75*
G03*
X14860569Y-11832599I-31750J0D01*
G01*
X14860569Y-11832599D02*
G75*
G03*
X14924069Y-11832599I31750J0D01*
G01*
X14918073Y-11869380D02*
X14929100Y-11806844D01*
X14929100Y-11806844D02*
G75*
G03*
X14866564Y-11795818I-31268J5513D01*
G01*
X14866564Y-11795818D02*
X14855538Y-11858353D01*
X14855538Y-11858353D02*
G75*
G03*
X14918073Y-11869380I31268J-5513D01*
G01*
X17234559Y-13388094D02*
G75*
G03*
X17171059Y-13388094I-31750J0D01*
G01*
X17171059Y-13388094D02*
G75*
G03*
X17234559Y-13388094I31750J0D01*
G01*
X17187452Y-13345900D02*
X17160616Y-13403451D01*
X17160616Y-13403451D02*
G75*
G03*
X17218167Y-13430287I28775J-13418D01*
G01*
X17218167Y-13430287D02*
X17245003Y-13372736D01*
X17245003Y-13372736D02*
G75*
G03*
X17187452Y-13345900I-28775J13418D01*
G01*
X17636193Y-13023690D02*
G75*
G03*
X17572693Y-13023690I-31750J0D01*
G01*
X17572693Y-13023690D02*
G75*
G03*
X17636193Y-13023690I31750J0D01*
G01*
X17589086Y-12981496D02*
X17562250Y-13039047D01*
X17562250Y-13039047D02*
G75*
G03*
X17619800Y-13065883I28775J-13418D01*
G01*
X17619800Y-13065883D02*
X17646637Y-13008332D01*
X17646637Y-13008332D02*
G75*
G03*
X17589086Y-12981496I-28775J13418D01*
G01*
X17657178Y-12481786D02*
G75*
G03*
X17593678Y-12481786I-31750J0D01*
G01*
X17593678Y-12481786D02*
G75*
G03*
X17657178Y-12481786I31750J0D01*
G01*
X17610071Y-12439592D02*
X17583234Y-12497143D01*
X17583234Y-12497143D02*
G75*
G03*
X17640785Y-12523979I28775J-13418D01*
G01*
X17640785Y-12523979D02*
X17667621Y-12466429D01*
X17667621Y-12466429D02*
G75*
G03*
X17610071Y-12439592I-28775J13418D01*
G01*
X15584184Y-10364307D02*
X15584184Y-10445587D01*
X15543544Y-10404947D02*
X15624824Y-10404947D01*
X15671057Y-10125625D02*
X15671057Y-10206905D01*
X15630417Y-10166265D02*
X15711697Y-10166265D01*
X15757930Y-9886943D02*
X15757930Y-9968223D01*
X15717290Y-9927583D02*
X15798570Y-9927583D01*
X15844803Y-9648261D02*
X15844803Y-9729541D01*
X15804163Y-9688901D02*
X15885443Y-9688901D01*
X15931676Y-9409579D02*
X15931676Y-9490859D01*
X15891036Y-9450219D02*
X15972316Y-9450219D01*
X16018549Y-9170897D02*
X16018549Y-9252177D01*
X15977909Y-9211537D02*
X16059189Y-9211537D01*
X16105422Y-8932215D02*
X16105422Y-9013495D01*
X16064782Y-8972855D02*
X16146062Y-8972855D01*
X16192295Y-8693533D02*
X16192295Y-8774813D01*
X16151655Y-8734173D02*
X16232935Y-8734173D01*
X16279168Y-8454851D02*
X16279168Y-8536131D01*
X16238528Y-8495491D02*
X16319808Y-8495491D01*
X16366042Y-8216169D02*
X16366042Y-8297449D01*
X16325402Y-8256809D02*
X16406682Y-8256809D01*
X16452915Y-7977487D02*
X16452915Y-8058767D01*
X16412275Y-8018127D02*
X16493555Y-8018127D01*
X16539788Y-7738805D02*
X16539788Y-7820085D01*
X16499148Y-7779445D02*
X16580428Y-7779445D01*
X17014396Y-10884861D02*
X17014396Y-10966141D01*
X16973756Y-10925501D02*
X17055036Y-10925501D01*
X17101269Y-10646179D02*
X17101269Y-10727459D01*
X17060629Y-10686819D02*
X17141909Y-10686819D01*
X17188142Y-10407497D02*
X17188142Y-10488777D01*
X17147502Y-10448137D02*
X17228782Y-10448137D01*
X17275015Y-10168815D02*
X17275015Y-10250095D01*
X17234375Y-10209455D02*
X17315655Y-10209455D01*
X17361888Y-9930134D02*
X17361888Y-10011414D01*
X17321248Y-9970774D02*
X17402528Y-9970774D01*
X17448761Y-9691451D02*
X17448761Y-9772731D01*
X17408121Y-9732091D02*
X17489401Y-9732091D01*
X17535634Y-9452770D02*
X17535634Y-9534050D01*
X17494994Y-9493410D02*
X17576274Y-9493410D01*
X17622508Y-9214088D02*
X17622508Y-9295368D01*
X17581868Y-9254728D02*
X17663148Y-9254728D01*
X17709381Y-8975406D02*
X17709381Y-9056686D01*
X17668741Y-9016046D02*
X17750021Y-9016046D01*
X17796254Y-8736724D02*
X17796254Y-8818004D01*
X17755614Y-8777364D02*
X17836894Y-8777364D01*
X17883127Y-8498042D02*
X17883127Y-8579322D01*
X17842487Y-8538682D02*
X17923767Y-8538682D01*
X17970000Y-8259360D02*
X17970000Y-8340640D01*
X17929360Y-8300000D02*
X18010640Y-8300000D01*
X15323310Y-7755008D02*
X15323310Y-7691368D01*
X15259670Y-7691368D01*
X15259670Y-7755008D01*
X15323310Y-7755008D01*
X15256044Y-7689003D02*
X15242363Y-7726591D01*
X15242363Y-7726591D02*
G75*
G03*
X15326936Y-7757373I42286J-15391D01*
G01*
X15326936Y-7757373D02*
X15340616Y-7719785D01*
X15340616Y-7719785D02*
G75*
G03*
X15256044Y-7689003I-42286J15391D01*
G01*
X15357429Y-7652495D02*
X15357429Y-7588855D01*
X15293789Y-7588855D01*
X15293789Y-7652495D01*
X15357429Y-7652495D01*
X15361055Y-7654860D02*
X15374736Y-7617272D01*
X15374736Y-7617272D02*
G75*
G03*
X15290163Y-7586490I-42286J15391D01*
G01*
X15290163Y-7586490D02*
X15276482Y-7624078D01*
X15276482Y-7624078D02*
G75*
G03*
X15361055Y-7654860I42286J-15391D01*
G01*
X15494237Y-7276618D02*
X15494237Y-7212978D01*
X15430597Y-7212978D01*
X15430597Y-7276618D01*
X15494237Y-7276618D01*
X15497863Y-7278983D02*
X15511544Y-7241395D01*
X15511544Y-7241395D02*
G75*
G03*
X15426971Y-7210613I-42286J15391D01*
G01*
X15426971Y-7210613D02*
X15413290Y-7248201D01*
X15413290Y-7248201D02*
G75*
G03*
X15497863Y-7278983I42286J-15391D01*
G01*
X15596843Y-6994710D02*
X15596843Y-6931070D01*
X15533203Y-6931070D01*
X15533203Y-6994710D01*
X15596843Y-6994710D01*
X15600469Y-6997075D02*
X15614150Y-6959487D01*
X15614150Y-6959487D02*
G75*
G03*
X15529577Y-6928705I-42286J15391D01*
G01*
X15529577Y-6928705D02*
X15515896Y-6966293D01*
X15515896Y-6966293D02*
G75*
G03*
X15600469Y-6997075I42286J-15391D01*
G01*
X15752065Y-7913191D02*
X15752065Y-7849550D01*
X15688425Y-7849550D01*
X15688425Y-7913191D01*
X15752065Y-7913191D01*
X15755691Y-7915555D02*
X15769372Y-7877968D01*
X15769372Y-7877968D02*
G75*
G03*
X15684800Y-7847186I-42286J15391D01*
G01*
X15684800Y-7847186D02*
X15671119Y-7884773D01*
X15671119Y-7884774D02*
G75*
G03*
X15755691Y-7915555I42286J-15391D01*
G01*
X15793191Y-7808971D02*
X15793191Y-7745331D01*
X15729551Y-7745331D01*
X15729551Y-7808971D01*
X15793191Y-7808971D01*
X15725925Y-7742966D02*
X15712244Y-7780554D01*
X15712244Y-7780554D02*
G75*
G03*
X15796817Y-7811336I42286J-15391D01*
G01*
X15796817Y-7811336D02*
X15810497Y-7773748D01*
X15810497Y-7773748D02*
G75*
G03*
X15725925Y-7742966I-42286J15391D01*
G01*
X15929999Y-7433094D02*
X15929999Y-7369454D01*
X15866359Y-7369454D01*
X15866359Y-7433094D01*
X15929999Y-7433094D01*
X15862733Y-7367089D02*
X15849052Y-7404677D01*
X15849052Y-7404677D02*
G75*
G03*
X15933625Y-7435459I42286J-15391D01*
G01*
X15933625Y-7435459D02*
X15947305Y-7397871D01*
X15947305Y-7397871D02*
G75*
G03*
X15862733Y-7367089I-42286J15391D01*
G01*
X16032605Y-7151186D02*
X16032605Y-7087546D01*
X15968965Y-7087546D01*
X15968965Y-7151186D01*
X16032605Y-7151186D01*
X15965339Y-7085181D02*
X15951658Y-7122769D01*
X15951658Y-7122769D02*
G75*
G03*
X16036231Y-7153551I42286J-15391D01*
G01*
X16036231Y-7153551D02*
X16049911Y-7115963D01*
X16049911Y-7115963D02*
G75*
G03*
X15965339Y-7085181I-42286J15391D01*
G01*
D13*
X13250445Y-10797991D02*
X13315445Y-10732991D01*
X13250445Y-10667991D01*
X13185445Y-10732991D01*
X13250445Y-10797991D01*
X13899555Y-10832009D02*
X13964555Y-10767009D01*
X13899555Y-10702009D01*
X13834555Y-10767009D01*
X13899555Y-10832009D01*
D14*
X5922000Y-7252000D02*
X6142000Y-7472000D01*
X6142000Y-7252000D02*
X5922000Y-7472000D01*
X6142000Y-7362000D02*
G75*
G03*
X5922000Y-7362000I-110000J0D01*
G01*
X5922000Y-7362000D02*
G75*
G03*
X6142000Y-7362000I110000J0D01*
G01*
X7736000Y-11683000D02*
X7956000Y-11903000D01*
X7956000Y-11683000D02*
X7736000Y-11903000D01*
X7956000Y-11793000D02*
G75*
G03*
X7736000Y-11793000I-110000J0D01*
G01*
X7736000Y-11793000D02*
G75*
G03*
X7956000Y-11793000I110000J0D01*
G01*
X8936644Y-8846677D02*
X9156644Y-9066677D01*
X9156644Y-8846677D02*
X8936644Y-9066677D01*
X9156644Y-8956677D02*
G75*
G03*
X8936644Y-8956677I-110000J0D01*
G01*
X8936644Y-8956677D02*
G75*
G03*
X9156644Y-8956677I110000J0D01*
G01*
X10774000Y-10817000D02*
X10994000Y-11037000D01*
X10994000Y-10817000D02*
X10774000Y-11037000D01*
X10994000Y-10927000D02*
G75*
G03*
X10774000Y-10927000I-110000J0D01*
G01*
X10774000Y-10927000D02*
G75*
G03*
X10994000Y-10927000I110000J0D01*
G01*
X10906967Y-7009321D02*
X11126967Y-7229321D01*
X11126967Y-7009321D02*
X10906967Y-7229321D01*
X11126967Y-7119321D02*
G75*
G03*
X10906967Y-7119321I-110000J0D01*
G01*
X10906967Y-7119321D02*
G75*
G03*
X11126967Y-7119321I110000J0D01*
G01*
X12744323Y-8979644D02*
X12964323Y-9199644D01*
X12964323Y-8979644D02*
X12744323Y-9199644D01*
X12964323Y-9089644D02*
G75*
G03*
X12744323Y-9089644I-110000J0D01*
G01*
X12744323Y-9089644D02*
G75*
G03*
X12964323Y-9089644I110000J0D01*
G01*
X14540000Y-6160000D02*
X14760000Y-6380000D01*
X14760000Y-6160000D02*
X14540000Y-6380000D01*
X14760000Y-6270000D02*
G75*
G03*
X14540000Y-6270000I-110000J0D01*
G01*
X14540000Y-6270000D02*
G75*
G03*
X14760000Y-6270000I110000J0D01*
G01*
X16034000Y-12371000D02*
X16254000Y-12591000D01*
X16254000Y-12371000D02*
X16034000Y-12591000D01*
X16254000Y-12481000D02*
G75*
G03*
X16034000Y-12481000I-110000J0D01*
G01*
X16034000Y-12481000D02*
G75*
G03*
X16254000Y-12481000I110000J0D01*
G01*
X18172000Y-9369000D02*
X18392000Y-9589000D01*
X18392000Y-9369000D02*
X18172000Y-9589000D01*
X18392000Y-9479000D02*
G75*
G03*
X18172000Y-9479000I-110000J0D01*
G01*
X18172000Y-9479000D02*
G75*
G03*
X18392000Y-9479000I110000J0D01*
G01*
D11*
X4617515Y-14411480D02*
X4617515Y-14211480D01*
X4617515Y-14211480D02*
X4665134Y-14211480D01*
X4665134Y-14211480D02*
X4693705Y-14221004D01*
X4693705Y-14221004D02*
X4712753Y-14240051D01*
X4712753Y-14240051D02*
X4722277Y-14259099D01*
X4722277Y-14259099D02*
X4731800Y-14297194D01*
X4731800Y-14297194D02*
X4731800Y-14325765D01*
X4731800Y-14325765D02*
X4722277Y-14363861D01*
X4722277Y-14363861D02*
X4712753Y-14382908D01*
X4712753Y-14382908D02*
X4693705Y-14401956D01*
X4693705Y-14401956D02*
X4665134Y-14411480D01*
X4665134Y-14411480D02*
X4617515Y-14411480D01*
X4817515Y-14411480D02*
X4817515Y-14278146D01*
X4817515Y-14316242D02*
X4827039Y-14297194D01*
X4827039Y-14297194D02*
X4836562Y-14287670D01*
X4836562Y-14287670D02*
X4855610Y-14278146D01*
X4855610Y-14278146D02*
X4874658Y-14278146D01*
X4941324Y-14411480D02*
X4941324Y-14278146D01*
X4941324Y-14211480D02*
X4931800Y-14221004D01*
X4931800Y-14221004D02*
X4941324Y-14230527D01*
X4941324Y-14230527D02*
X4950848Y-14221004D01*
X4950848Y-14221004D02*
X4941324Y-14211480D01*
X4941324Y-14211480D02*
X4941324Y-14230527D01*
X5065134Y-14411480D02*
X5046086Y-14401956D01*
X5046086Y-14401956D02*
X5036562Y-14382908D01*
X5036562Y-14382908D02*
X5036562Y-14211480D01*
X5169896Y-14411480D02*
X5150848Y-14401956D01*
X5150848Y-14401956D02*
X5141324Y-14382908D01*
X5141324Y-14382908D02*
X5141324Y-14211480D01*
X5398467Y-14411480D02*
X5398467Y-14211480D01*
X5398467Y-14211480D02*
X5465134Y-14354337D01*
X5465134Y-14354337D02*
X5531800Y-14211480D01*
X5531800Y-14211480D02*
X5531800Y-14411480D01*
X5712753Y-14411480D02*
X5712753Y-14306718D01*
X5712753Y-14306718D02*
X5703229Y-14287670D01*
X5703229Y-14287670D02*
X5684181Y-14278146D01*
X5684181Y-14278146D02*
X5646086Y-14278146D01*
X5646086Y-14278146D02*
X5627038Y-14287670D01*
X5712753Y-14401956D02*
X5693705Y-14411480D01*
X5693705Y-14411480D02*
X5646086Y-14411480D01*
X5646086Y-14411480D02*
X5627038Y-14401956D01*
X5627038Y-14401956D02*
X5617515Y-14382908D01*
X5617515Y-14382908D02*
X5617515Y-14363861D01*
X5617515Y-14363861D02*
X5627038Y-14344813D01*
X5627038Y-14344813D02*
X5646086Y-14335289D01*
X5646086Y-14335289D02*
X5693705Y-14335289D01*
X5693705Y-14335289D02*
X5712753Y-14325765D01*
X5807991Y-14278146D02*
X5807991Y-14478146D01*
X5807991Y-14287670D02*
X5827038Y-14278146D01*
X5827038Y-14278146D02*
X5865134Y-14278146D01*
X5865134Y-14278146D02*
X5884181Y-14287670D01*
X5884181Y-14287670D02*
X5893705Y-14297194D01*
X5893705Y-14297194D02*
X5903229Y-14316242D01*
X5903229Y-14316242D02*
X5903229Y-14373384D01*
X5903229Y-14373384D02*
X5893705Y-14392432D01*
X5893705Y-14392432D02*
X5884181Y-14401956D01*
X5884181Y-14401956D02*
X5865134Y-14411480D01*
X5865134Y-14411480D02*
X5827038Y-14411480D01*
X5827038Y-14411480D02*
X5807991Y-14401956D01*
X5988943Y-14392432D02*
X5998467Y-14401956D01*
X5998467Y-14401956D02*
X5988943Y-14411480D01*
X5988943Y-14411480D02*
X5979419Y-14401956D01*
X5979419Y-14401956D02*
X5988943Y-14392432D01*
X5988943Y-14392432D02*
X5988943Y-14411480D01*
X5988943Y-14287670D02*
X5998467Y-14297194D01*
X5998467Y-14297194D02*
X5988943Y-14306718D01*
X5988943Y-14306718D02*
X5979419Y-14297194D01*
X5979419Y-14297194D02*
X5988943Y-14287670D01*
X5988943Y-14287670D02*
X5988943Y-14306718D01*
D12*
X4316738Y-14719996D02*
X4356738Y-14759996D01*
X4356738Y-14719996D02*
X4316738Y-14759996D01*
D11*
X4655610Y-14631480D02*
X4674658Y-14631480D01*
X4674658Y-14631480D02*
X4693705Y-14641004D01*
X4693705Y-14641004D02*
X4703229Y-14650527D01*
X4703229Y-14650527D02*
X4712753Y-14669575D01*
X4712753Y-14669575D02*
X4722277Y-14707670D01*
X4722277Y-14707670D02*
X4722277Y-14755289D01*
X4722277Y-14755289D02*
X4712753Y-14793384D01*
X4712753Y-14793384D02*
X4703229Y-14812432D01*
X4703229Y-14812432D02*
X4693705Y-14821956D01*
X4693705Y-14821956D02*
X4674658Y-14831480D01*
X4674658Y-14831480D02*
X4655610Y-14831480D01*
X4655610Y-14831480D02*
X4636562Y-14821956D01*
X4636562Y-14821956D02*
X4627039Y-14812432D01*
X4627039Y-14812432D02*
X4617515Y-14793384D01*
X4617515Y-14793384D02*
X4607991Y-14755289D01*
X4607991Y-14755289D02*
X4607991Y-14707670D01*
X4607991Y-14707670D02*
X4617515Y-14669575D01*
X4617515Y-14669575D02*
X4627039Y-14650527D01*
X4627039Y-14650527D02*
X4636562Y-14641004D01*
X4636562Y-14641004D02*
X4655610Y-14631480D01*
X4807991Y-14812432D02*
X4817515Y-14821956D01*
X4817515Y-14821956D02*
X4807991Y-14831480D01*
X4807991Y-14831480D02*
X4798467Y-14821956D01*
X4798467Y-14821956D02*
X4807991Y-14812432D01*
X4807991Y-14812432D02*
X4807991Y-14831480D01*
X4988943Y-14698146D02*
X4988943Y-14831480D01*
X4941324Y-14621956D02*
X4893705Y-14764813D01*
X4893705Y-14764813D02*
X5017515Y-14764813D01*
X5131800Y-14631480D02*
X5150848Y-14631480D01*
X5150848Y-14631480D02*
X5169896Y-14641004D01*
X5169896Y-14641004D02*
X5179420Y-14650527D01*
X5179420Y-14650527D02*
X5188943Y-14669575D01*
X5188943Y-14669575D02*
X5198467Y-14707670D01*
X5198467Y-14707670D02*
X5198467Y-14755289D01*
X5198467Y-14755289D02*
X5188943Y-14793384D01*
X5188943Y-14793384D02*
X5179420Y-14812432D01*
X5179420Y-14812432D02*
X5169896Y-14821956D01*
X5169896Y-14821956D02*
X5150848Y-14831480D01*
X5150848Y-14831480D02*
X5131800Y-14831480D01*
X5131800Y-14831480D02*
X5112753Y-14821956D01*
X5112753Y-14821956D02*
X5103229Y-14812432D01*
X5103229Y-14812432D02*
X5093705Y-14793384D01*
X5093705Y-14793384D02*
X5084181Y-14755289D01*
X5084181Y-14755289D02*
X5084181Y-14707670D01*
X5084181Y-14707670D02*
X5093705Y-14669575D01*
X5093705Y-14669575D02*
X5103229Y-14650527D01*
X5103229Y-14650527D02*
X5112753Y-14641004D01*
X5112753Y-14641004D02*
X5131800Y-14631480D01*
X5322277Y-14631480D02*
X5341324Y-14631480D01*
X5341324Y-14631480D02*
X5360372Y-14641004D01*
X5360372Y-14641004D02*
X5369896Y-14650527D01*
X5369896Y-14650527D02*
X5379420Y-14669575D01*
X5379420Y-14669575D02*
X5388943Y-14707670D01*
X5388943Y-14707670D02*
X5388943Y-14755289D01*
X5388943Y-14755289D02*
X5379420Y-14793384D01*
X5379420Y-14793384D02*
X5369896Y-14812432D01*
X5369896Y-14812432D02*
X5360372Y-14821956D01*
X5360372Y-14821956D02*
X5341324Y-14831480D01*
X5341324Y-14831480D02*
X5322277Y-14831480D01*
X5322277Y-14831480D02*
X5303229Y-14821956D01*
X5303229Y-14821956D02*
X5293705Y-14812432D01*
X5293705Y-14812432D02*
X5284181Y-14793384D01*
X5284181Y-14793384D02*
X5274658Y-14755289D01*
X5274658Y-14755289D02*
X5274658Y-14707670D01*
X5274658Y-14707670D02*
X5284181Y-14669575D01*
X5284181Y-14669575D02*
X5293705Y-14650527D01*
X5293705Y-14650527D02*
X5303229Y-14641004D01*
X5303229Y-14641004D02*
X5322277Y-14631480D01*
X5474658Y-14831480D02*
X5474658Y-14698146D01*
X5474658Y-14717194D02*
X5484181Y-14707670D01*
X5484181Y-14707670D02*
X5503229Y-14698146D01*
X5503229Y-14698146D02*
X5531801Y-14698146D01*
X5531801Y-14698146D02*
X5550848Y-14707670D01*
X5550848Y-14707670D02*
X5560372Y-14726718D01*
X5560372Y-14726718D02*
X5560372Y-14831480D01*
X5560372Y-14726718D02*
X5569896Y-14707670D01*
X5569896Y-14707670D02*
X5588943Y-14698146D01*
X5588943Y-14698146D02*
X5617515Y-14698146D01*
X5617515Y-14698146D02*
X5636562Y-14707670D01*
X5636562Y-14707670D02*
X5646086Y-14726718D01*
X5646086Y-14726718D02*
X5646086Y-14831480D01*
X5741324Y-14831480D02*
X5741324Y-14698146D01*
X5741324Y-14717194D02*
X5750848Y-14707670D01*
X5750848Y-14707670D02*
X5769896Y-14698146D01*
X5769896Y-14698146D02*
X5798467Y-14698146D01*
X5798467Y-14698146D02*
X5817515Y-14707670D01*
X5817515Y-14707670D02*
X5827039Y-14726718D01*
X5827039Y-14726718D02*
X5827039Y-14831480D01*
X5827039Y-14726718D02*
X5836562Y-14707670D01*
X5836562Y-14707670D02*
X5855610Y-14698146D01*
X5855610Y-14698146D02*
X5884181Y-14698146D01*
X5884181Y-14698146D02*
X5903229Y-14707670D01*
X5903229Y-14707670D02*
X5912753Y-14726718D01*
X5912753Y-14726718D02*
X5912753Y-14831480D01*
X6303229Y-14621956D02*
X6131801Y-14879099D01*
X6560372Y-14631480D02*
X6579420Y-14631480D01*
X6579420Y-14631480D02*
X6598467Y-14641004D01*
X6598467Y-14641004D02*
X6607991Y-14650527D01*
X6607991Y-14650527D02*
X6617515Y-14669575D01*
X6617515Y-14669575D02*
X6627039Y-14707670D01*
X6627039Y-14707670D02*
X6627039Y-14755289D01*
X6627039Y-14755289D02*
X6617515Y-14793384D01*
X6617515Y-14793384D02*
X6607991Y-14812432D01*
X6607991Y-14812432D02*
X6598467Y-14821956D01*
X6598467Y-14821956D02*
X6579420Y-14831480D01*
X6579420Y-14831480D02*
X6560372Y-14831480D01*
X6560372Y-14831480D02*
X6541324Y-14821956D01*
X6541324Y-14821956D02*
X6531801Y-14812432D01*
X6531801Y-14812432D02*
X6522277Y-14793384D01*
X6522277Y-14793384D02*
X6512753Y-14755289D01*
X6512753Y-14755289D02*
X6512753Y-14707670D01*
X6512753Y-14707670D02*
X6522277Y-14669575D01*
X6522277Y-14669575D02*
X6531801Y-14650527D01*
X6531801Y-14650527D02*
X6541324Y-14641004D01*
X6541324Y-14641004D02*
X6560372Y-14631480D01*
X6712753Y-14812432D02*
X6722277Y-14821956D01*
X6722277Y-14821956D02*
X6712753Y-14831480D01*
X6712753Y-14831480D02*
X6703229Y-14821956D01*
X6703229Y-14821956D02*
X6712753Y-14812432D01*
X6712753Y-14812432D02*
X6712753Y-14831480D01*
X6846086Y-14631480D02*
X6865134Y-14631480D01*
X6865134Y-14631480D02*
X6884182Y-14641004D01*
X6884182Y-14641004D02*
X6893705Y-14650527D01*
X6893705Y-14650527D02*
X6903229Y-14669575D01*
X6903229Y-14669575D02*
X6912753Y-14707670D01*
X6912753Y-14707670D02*
X6912753Y-14755289D01*
X6912753Y-14755289D02*
X6903229Y-14793384D01*
X6903229Y-14793384D02*
X6893705Y-14812432D01*
X6893705Y-14812432D02*
X6884182Y-14821956D01*
X6884182Y-14821956D02*
X6865134Y-14831480D01*
X6865134Y-14831480D02*
X6846086Y-14831480D01*
X6846086Y-14831480D02*
X6827039Y-14821956D01*
X6827039Y-14821956D02*
X6817515Y-14812432D01*
X6817515Y-14812432D02*
X6807991Y-14793384D01*
X6807991Y-14793384D02*
X6798467Y-14755289D01*
X6798467Y-14755289D02*
X6798467Y-14707670D01*
X6798467Y-14707670D02*
X6807991Y-14669575D01*
X6807991Y-14669575D02*
X6817515Y-14650527D01*
X6817515Y-14650527D02*
X6827039Y-14641004D01*
X6827039Y-14641004D02*
X6846086Y-14631480D01*
X7103229Y-14831480D02*
X6988943Y-14831480D01*
X7046086Y-14831480D02*
X7046086Y-14631480D01*
X7046086Y-14631480D02*
X7027039Y-14660051D01*
X7027039Y-14660051D02*
X7007991Y-14679099D01*
X7007991Y-14679099D02*
X6988943Y-14688623D01*
X7284182Y-14631480D02*
X7188943Y-14631480D01*
X7188943Y-14631480D02*
X7179420Y-14726718D01*
X7179420Y-14726718D02*
X7188943Y-14717194D01*
X7188943Y-14717194D02*
X7207991Y-14707670D01*
X7207991Y-14707670D02*
X7255610Y-14707670D01*
X7255610Y-14707670D02*
X7274658Y-14717194D01*
X7274658Y-14717194D02*
X7284182Y-14726718D01*
X7284182Y-14726718D02*
X7293705Y-14745765D01*
X7293705Y-14745765D02*
X7293705Y-14793384D01*
X7293705Y-14793384D02*
X7284182Y-14812432D01*
X7284182Y-14812432D02*
X7274658Y-14821956D01*
X7274658Y-14821956D02*
X7255610Y-14831480D01*
X7255610Y-14831480D02*
X7207991Y-14831480D01*
X7207991Y-14831480D02*
X7188943Y-14821956D01*
X7188943Y-14821956D02*
X7179420Y-14812432D01*
X7360372Y-14631480D02*
X7493705Y-14631480D01*
X7493705Y-14631480D02*
X7407991Y-14831480D01*
X7560372Y-14631480D02*
X7560372Y-14669575D01*
X7636563Y-14631480D02*
X7636563Y-14669575D01*
X7931801Y-14907670D02*
X7922277Y-14898146D01*
X7922277Y-14898146D02*
X7903229Y-14869575D01*
X7903229Y-14869575D02*
X7893705Y-14850527D01*
X7893705Y-14850527D02*
X7884182Y-14821956D01*
X7884182Y-14821956D02*
X7874658Y-14774337D01*
X7874658Y-14774337D02*
X7874658Y-14736242D01*
X7874658Y-14736242D02*
X7884182Y-14688623D01*
X7884182Y-14688623D02*
X7893705Y-14660051D01*
X7893705Y-14660051D02*
X7903229Y-14641004D01*
X7903229Y-14641004D02*
X7922277Y-14612432D01*
X7922277Y-14612432D02*
X7931801Y-14602908D01*
X7998467Y-14650527D02*
X8007991Y-14641004D01*
X8007991Y-14641004D02*
X8027039Y-14631480D01*
X8027039Y-14631480D02*
X8074658Y-14631480D01*
X8074658Y-14631480D02*
X8093705Y-14641004D01*
X8093705Y-14641004D02*
X8103229Y-14650527D01*
X8103229Y-14650527D02*
X8112753Y-14669575D01*
X8112753Y-14669575D02*
X8112753Y-14688623D01*
X8112753Y-14688623D02*
X8103229Y-14717194D01*
X8103229Y-14717194D02*
X7988944Y-14831480D01*
X7988944Y-14831480D02*
X8112753Y-14831480D01*
X8284182Y-14698146D02*
X8284182Y-14831480D01*
X8236563Y-14621956D02*
X8188944Y-14764813D01*
X8188944Y-14764813D02*
X8312753Y-14764813D01*
X8541325Y-14831480D02*
X8541325Y-14631480D01*
X8627039Y-14831480D02*
X8627039Y-14726718D01*
X8627039Y-14726718D02*
X8617515Y-14707670D01*
X8617515Y-14707670D02*
X8598468Y-14698146D01*
X8598468Y-14698146D02*
X8569896Y-14698146D01*
X8569896Y-14698146D02*
X8550848Y-14707670D01*
X8550848Y-14707670D02*
X8541325Y-14717194D01*
X8750848Y-14831480D02*
X8731801Y-14821956D01*
X8731801Y-14821956D02*
X8722277Y-14812432D01*
X8722277Y-14812432D02*
X8712753Y-14793384D01*
X8712753Y-14793384D02*
X8712753Y-14736242D01*
X8712753Y-14736242D02*
X8722277Y-14717194D01*
X8722277Y-14717194D02*
X8731801Y-14707670D01*
X8731801Y-14707670D02*
X8750848Y-14698146D01*
X8750848Y-14698146D02*
X8779420Y-14698146D01*
X8779420Y-14698146D02*
X8798468Y-14707670D01*
X8798468Y-14707670D02*
X8807991Y-14717194D01*
X8807991Y-14717194D02*
X8817515Y-14736242D01*
X8817515Y-14736242D02*
X8817515Y-14793384D01*
X8817515Y-14793384D02*
X8807991Y-14812432D01*
X8807991Y-14812432D02*
X8798468Y-14821956D01*
X8798468Y-14821956D02*
X8779420Y-14831480D01*
X8779420Y-14831480D02*
X8750848Y-14831480D01*
X8931801Y-14831480D02*
X8912753Y-14821956D01*
X8912753Y-14821956D02*
X8903229Y-14802908D01*
X8903229Y-14802908D02*
X8903229Y-14631480D01*
X9084182Y-14821956D02*
X9065134Y-14831480D01*
X9065134Y-14831480D02*
X9027039Y-14831480D01*
X9027039Y-14831480D02*
X9007991Y-14821956D01*
X9007991Y-14821956D02*
X8998468Y-14802908D01*
X8998468Y-14802908D02*
X8998468Y-14726718D01*
X8998468Y-14726718D02*
X9007991Y-14707670D01*
X9007991Y-14707670D02*
X9027039Y-14698146D01*
X9027039Y-14698146D02*
X9065134Y-14698146D01*
X9065134Y-14698146D02*
X9084182Y-14707670D01*
X9084182Y-14707670D02*
X9093706Y-14726718D01*
X9093706Y-14726718D02*
X9093706Y-14745765D01*
X9093706Y-14745765D02*
X8998468Y-14764813D01*
X9169896Y-14821956D02*
X9188944Y-14831480D01*
X9188944Y-14831480D02*
X9227039Y-14831480D01*
X9227039Y-14831480D02*
X9246087Y-14821956D01*
X9246087Y-14821956D02*
X9255610Y-14802908D01*
X9255610Y-14802908D02*
X9255610Y-14793384D01*
X9255610Y-14793384D02*
X9246087Y-14774337D01*
X9246087Y-14774337D02*
X9227039Y-14764813D01*
X9227039Y-14764813D02*
X9198468Y-14764813D01*
X9198468Y-14764813D02*
X9179420Y-14755289D01*
X9179420Y-14755289D02*
X9169896Y-14736242D01*
X9169896Y-14736242D02*
X9169896Y-14726718D01*
X9169896Y-14726718D02*
X9179420Y-14707670D01*
X9179420Y-14707670D02*
X9198468Y-14698146D01*
X9198468Y-14698146D02*
X9227039Y-14698146D01*
X9227039Y-14698146D02*
X9246087Y-14707670D01*
X9322277Y-14907670D02*
X9331801Y-14898146D01*
X9331801Y-14898146D02*
X9350849Y-14869575D01*
X9350849Y-14869575D02*
X9360372Y-14850527D01*
X9360372Y-14850527D02*
X9369896Y-14821956D01*
X9369896Y-14821956D02*
X9379420Y-14774337D01*
X9379420Y-14774337D02*
X9379420Y-14736242D01*
X9379420Y-14736242D02*
X9369896Y-14688623D01*
X9369896Y-14688623D02*
X9360372Y-14660051D01*
X9360372Y-14660051D02*
X9350849Y-14641004D01*
X9350849Y-14641004D02*
X9331801Y-14612432D01*
X9331801Y-14612432D02*
X9322277Y-14602908D01*
D12*
X4356738Y-15003996D02*
G75*
G03*
X4293238Y-15003996I-31750J0D01*
G01*
X4293238Y-15003996D02*
G75*
G03*
X4356738Y-15003996I31750J0D01*
G01*
D11*
X4655610Y-14895480D02*
X4674658Y-14895480D01*
X4674658Y-14895480D02*
X4693705Y-14905004D01*
X4693705Y-14905004D02*
X4703229Y-14914527D01*
X4703229Y-14914527D02*
X4712753Y-14933575D01*
X4712753Y-14933575D02*
X4722277Y-14971670D01*
X4722277Y-14971670D02*
X4722277Y-15019289D01*
X4722277Y-15019289D02*
X4712753Y-15057384D01*
X4712753Y-15057384D02*
X4703229Y-15076432D01*
X4703229Y-15076432D02*
X4693705Y-15085956D01*
X4693705Y-15085956D02*
X4674658Y-15095480D01*
X4674658Y-15095480D02*
X4655610Y-15095480D01*
X4655610Y-15095480D02*
X4636562Y-15085956D01*
X4636562Y-15085956D02*
X4627039Y-15076432D01*
X4627039Y-15076432D02*
X4617515Y-15057384D01*
X4617515Y-15057384D02*
X4607991Y-15019289D01*
X4607991Y-15019289D02*
X4607991Y-14971670D01*
X4607991Y-14971670D02*
X4617515Y-14933575D01*
X4617515Y-14933575D02*
X4627039Y-14914527D01*
X4627039Y-14914527D02*
X4636562Y-14905004D01*
X4636562Y-14905004D02*
X4655610Y-14895480D01*
X4807991Y-15076432D02*
X4817515Y-15085956D01*
X4817515Y-15085956D02*
X4807991Y-15095480D01*
X4807991Y-15095480D02*
X4798467Y-15085956D01*
X4798467Y-15085956D02*
X4807991Y-15076432D01*
X4807991Y-15076432D02*
X4807991Y-15095480D01*
X4988943Y-14895480D02*
X4950848Y-14895480D01*
X4950848Y-14895480D02*
X4931800Y-14905004D01*
X4931800Y-14905004D02*
X4922277Y-14914527D01*
X4922277Y-14914527D02*
X4903229Y-14943099D01*
X4903229Y-14943099D02*
X4893705Y-14981194D01*
X4893705Y-14981194D02*
X4893705Y-15057384D01*
X4893705Y-15057384D02*
X4903229Y-15076432D01*
X4903229Y-15076432D02*
X4912753Y-15085956D01*
X4912753Y-15085956D02*
X4931800Y-15095480D01*
X4931800Y-15095480D02*
X4969896Y-15095480D01*
X4969896Y-15095480D02*
X4988943Y-15085956D01*
X4988943Y-15085956D02*
X4998467Y-15076432D01*
X4998467Y-15076432D02*
X5007991Y-15057384D01*
X5007991Y-15057384D02*
X5007991Y-15009765D01*
X5007991Y-15009765D02*
X4998467Y-14990718D01*
X4998467Y-14990718D02*
X4988943Y-14981194D01*
X4988943Y-14981194D02*
X4969896Y-14971670D01*
X4969896Y-14971670D02*
X4931800Y-14971670D01*
X4931800Y-14971670D02*
X4912753Y-14981194D01*
X4912753Y-14981194D02*
X4903229Y-14990718D01*
X4903229Y-14990718D02*
X4893705Y-15009765D01*
X5074658Y-14895480D02*
X5198467Y-14895480D01*
X5198467Y-14895480D02*
X5131800Y-14971670D01*
X5131800Y-14971670D02*
X5160372Y-14971670D01*
X5160372Y-14971670D02*
X5179420Y-14981194D01*
X5179420Y-14981194D02*
X5188943Y-14990718D01*
X5188943Y-14990718D02*
X5198467Y-15009765D01*
X5198467Y-15009765D02*
X5198467Y-15057384D01*
X5198467Y-15057384D02*
X5188943Y-15076432D01*
X5188943Y-15076432D02*
X5179420Y-15085956D01*
X5179420Y-15085956D02*
X5160372Y-15095480D01*
X5160372Y-15095480D02*
X5103229Y-15095480D01*
X5103229Y-15095480D02*
X5084181Y-15085956D01*
X5084181Y-15085956D02*
X5074658Y-15076432D01*
X5379420Y-14895480D02*
X5284181Y-14895480D01*
X5284181Y-14895480D02*
X5274658Y-14990718D01*
X5274658Y-14990718D02*
X5284181Y-14981194D01*
X5284181Y-14981194D02*
X5303229Y-14971670D01*
X5303229Y-14971670D02*
X5350848Y-14971670D01*
X5350848Y-14971670D02*
X5369896Y-14981194D01*
X5369896Y-14981194D02*
X5379420Y-14990718D01*
X5379420Y-14990718D02*
X5388943Y-15009765D01*
X5388943Y-15009765D02*
X5388943Y-15057384D01*
X5388943Y-15057384D02*
X5379420Y-15076432D01*
X5379420Y-15076432D02*
X5369896Y-15085956D01*
X5369896Y-15085956D02*
X5350848Y-15095480D01*
X5350848Y-15095480D02*
X5303229Y-15095480D01*
X5303229Y-15095480D02*
X5284181Y-15085956D01*
X5284181Y-15085956D02*
X5274658Y-15076432D01*
X5474658Y-15095480D02*
X5474658Y-14962146D01*
X5474658Y-14981194D02*
X5484181Y-14971670D01*
X5484181Y-14971670D02*
X5503229Y-14962146D01*
X5503229Y-14962146D02*
X5531801Y-14962146D01*
X5531801Y-14962146D02*
X5550848Y-14971670D01*
X5550848Y-14971670D02*
X5560372Y-14990718D01*
X5560372Y-14990718D02*
X5560372Y-15095480D01*
X5560372Y-14990718D02*
X5569896Y-14971670D01*
X5569896Y-14971670D02*
X5588943Y-14962146D01*
X5588943Y-14962146D02*
X5617515Y-14962146D01*
X5617515Y-14962146D02*
X5636562Y-14971670D01*
X5636562Y-14971670D02*
X5646086Y-14990718D01*
X5646086Y-14990718D02*
X5646086Y-15095480D01*
X5741324Y-15095480D02*
X5741324Y-14962146D01*
X5741324Y-14981194D02*
X5750848Y-14971670D01*
X5750848Y-14971670D02*
X5769896Y-14962146D01*
X5769896Y-14962146D02*
X5798467Y-14962146D01*
X5798467Y-14962146D02*
X5817515Y-14971670D01*
X5817515Y-14971670D02*
X5827039Y-14990718D01*
X5827039Y-14990718D02*
X5827039Y-15095480D01*
X5827039Y-14990718D02*
X5836562Y-14971670D01*
X5836562Y-14971670D02*
X5855610Y-14962146D01*
X5855610Y-14962146D02*
X5884181Y-14962146D01*
X5884181Y-14962146D02*
X5903229Y-14971670D01*
X5903229Y-14971670D02*
X5912753Y-14990718D01*
X5912753Y-14990718D02*
X5912753Y-15095480D01*
X6303229Y-14885956D02*
X6131801Y-15143099D01*
X6560372Y-14895480D02*
X6579420Y-14895480D01*
X6579420Y-14895480D02*
X6598467Y-14905004D01*
X6598467Y-14905004D02*
X6607991Y-14914527D01*
X6607991Y-14914527D02*
X6617515Y-14933575D01*
X6617515Y-14933575D02*
X6627039Y-14971670D01*
X6627039Y-14971670D02*
X6627039Y-15019289D01*
X6627039Y-15019289D02*
X6617515Y-15057384D01*
X6617515Y-15057384D02*
X6607991Y-15076432D01*
X6607991Y-15076432D02*
X6598467Y-15085956D01*
X6598467Y-15085956D02*
X6579420Y-15095480D01*
X6579420Y-15095480D02*
X6560372Y-15095480D01*
X6560372Y-15095480D02*
X6541324Y-15085956D01*
X6541324Y-15085956D02*
X6531801Y-15076432D01*
X6531801Y-15076432D02*
X6522277Y-15057384D01*
X6522277Y-15057384D02*
X6512753Y-15019289D01*
X6512753Y-15019289D02*
X6512753Y-14971670D01*
X6512753Y-14971670D02*
X6522277Y-14933575D01*
X6522277Y-14933575D02*
X6531801Y-14914527D01*
X6531801Y-14914527D02*
X6541324Y-14905004D01*
X6541324Y-14905004D02*
X6560372Y-14895480D01*
X6712753Y-15076432D02*
X6722277Y-15085956D01*
X6722277Y-15085956D02*
X6712753Y-15095480D01*
X6712753Y-15095480D02*
X6703229Y-15085956D01*
X6703229Y-15085956D02*
X6712753Y-15076432D01*
X6712753Y-15076432D02*
X6712753Y-15095480D01*
X6846086Y-14895480D02*
X6865134Y-14895480D01*
X6865134Y-14895480D02*
X6884182Y-14905004D01*
X6884182Y-14905004D02*
X6893705Y-14914527D01*
X6893705Y-14914527D02*
X6903229Y-14933575D01*
X6903229Y-14933575D02*
X6912753Y-14971670D01*
X6912753Y-14971670D02*
X6912753Y-15019289D01*
X6912753Y-15019289D02*
X6903229Y-15057384D01*
X6903229Y-15057384D02*
X6893705Y-15076432D01*
X6893705Y-15076432D02*
X6884182Y-15085956D01*
X6884182Y-15085956D02*
X6865134Y-15095480D01*
X6865134Y-15095480D02*
X6846086Y-15095480D01*
X6846086Y-15095480D02*
X6827039Y-15085956D01*
X6827039Y-15085956D02*
X6817515Y-15076432D01*
X6817515Y-15076432D02*
X6807991Y-15057384D01*
X6807991Y-15057384D02*
X6798467Y-15019289D01*
X6798467Y-15019289D02*
X6798467Y-14971670D01*
X6798467Y-14971670D02*
X6807991Y-14933575D01*
X6807991Y-14933575D02*
X6817515Y-14914527D01*
X6817515Y-14914527D02*
X6827039Y-14905004D01*
X6827039Y-14905004D02*
X6846086Y-14895480D01*
X6988943Y-14914527D02*
X6998467Y-14905004D01*
X6998467Y-14905004D02*
X7017515Y-14895480D01*
X7017515Y-14895480D02*
X7065134Y-14895480D01*
X7065134Y-14895480D02*
X7084182Y-14905004D01*
X7084182Y-14905004D02*
X7093705Y-14914527D01*
X7093705Y-14914527D02*
X7103229Y-14933575D01*
X7103229Y-14933575D02*
X7103229Y-14952623D01*
X7103229Y-14952623D02*
X7093705Y-14981194D01*
X7093705Y-14981194D02*
X6979420Y-15095480D01*
X6979420Y-15095480D02*
X7103229Y-15095480D01*
X7284182Y-14895480D02*
X7188943Y-14895480D01*
X7188943Y-14895480D02*
X7179420Y-14990718D01*
X7179420Y-14990718D02*
X7188943Y-14981194D01*
X7188943Y-14981194D02*
X7207991Y-14971670D01*
X7207991Y-14971670D02*
X7255610Y-14971670D01*
X7255610Y-14971670D02*
X7274658Y-14981194D01*
X7274658Y-14981194D02*
X7284182Y-14990718D01*
X7284182Y-14990718D02*
X7293705Y-15009765D01*
X7293705Y-15009765D02*
X7293705Y-15057384D01*
X7293705Y-15057384D02*
X7284182Y-15076432D01*
X7284182Y-15076432D02*
X7274658Y-15085956D01*
X7274658Y-15085956D02*
X7255610Y-15095480D01*
X7255610Y-15095480D02*
X7207991Y-15095480D01*
X7207991Y-15095480D02*
X7188943Y-15085956D01*
X7188943Y-15085956D02*
X7179420Y-15076432D01*
X7417515Y-14895480D02*
X7436563Y-14895480D01*
X7436563Y-14895480D02*
X7455610Y-14905004D01*
X7455610Y-14905004D02*
X7465134Y-14914527D01*
X7465134Y-14914527D02*
X7474658Y-14933575D01*
X7474658Y-14933575D02*
X7484182Y-14971670D01*
X7484182Y-14971670D02*
X7484182Y-15019289D01*
X7484182Y-15019289D02*
X7474658Y-15057384D01*
X7474658Y-15057384D02*
X7465134Y-15076432D01*
X7465134Y-15076432D02*
X7455610Y-15085956D01*
X7455610Y-15085956D02*
X7436563Y-15095480D01*
X7436563Y-15095480D02*
X7417515Y-15095480D01*
X7417515Y-15095480D02*
X7398467Y-15085956D01*
X7398467Y-15085956D02*
X7388943Y-15076432D01*
X7388943Y-15076432D02*
X7379420Y-15057384D01*
X7379420Y-15057384D02*
X7369896Y-15019289D01*
X7369896Y-15019289D02*
X7369896Y-14971670D01*
X7369896Y-14971670D02*
X7379420Y-14933575D01*
X7379420Y-14933575D02*
X7388943Y-14914527D01*
X7388943Y-14914527D02*
X7398467Y-14905004D01*
X7398467Y-14905004D02*
X7417515Y-14895480D01*
X7560372Y-14895480D02*
X7560372Y-14933575D01*
X7636563Y-14895480D02*
X7636563Y-14933575D01*
X7931801Y-15171670D02*
X7922277Y-15162146D01*
X7922277Y-15162146D02*
X7903229Y-15133575D01*
X7903229Y-15133575D02*
X7893705Y-15114527D01*
X7893705Y-15114527D02*
X7884182Y-15085956D01*
X7884182Y-15085956D02*
X7874658Y-15038337D01*
X7874658Y-15038337D02*
X7874658Y-15000242D01*
X7874658Y-15000242D02*
X7884182Y-14952623D01*
X7884182Y-14952623D02*
X7893705Y-14924051D01*
X7893705Y-14924051D02*
X7903229Y-14905004D01*
X7903229Y-14905004D02*
X7922277Y-14876432D01*
X7922277Y-14876432D02*
X7931801Y-14866908D01*
X8046086Y-14895480D02*
X8065134Y-14895480D01*
X8065134Y-14895480D02*
X8084182Y-14905004D01*
X8084182Y-14905004D02*
X8093705Y-14914527D01*
X8093705Y-14914527D02*
X8103229Y-14933575D01*
X8103229Y-14933575D02*
X8112753Y-14971670D01*
X8112753Y-14971670D02*
X8112753Y-15019289D01*
X8112753Y-15019289D02*
X8103229Y-15057384D01*
X8103229Y-15057384D02*
X8093705Y-15076432D01*
X8093705Y-15076432D02*
X8084182Y-15085956D01*
X8084182Y-15085956D02*
X8065134Y-15095480D01*
X8065134Y-15095480D02*
X8046086Y-15095480D01*
X8046086Y-15095480D02*
X8027039Y-15085956D01*
X8027039Y-15085956D02*
X8017515Y-15076432D01*
X8017515Y-15076432D02*
X8007991Y-15057384D01*
X8007991Y-15057384D02*
X7998467Y-15019289D01*
X7998467Y-15019289D02*
X7998467Y-14971670D01*
X7998467Y-14971670D02*
X8007991Y-14933575D01*
X8007991Y-14933575D02*
X8017515Y-14914527D01*
X8017515Y-14914527D02*
X8027039Y-14905004D01*
X8027039Y-14905004D02*
X8046086Y-14895480D01*
X8350848Y-15095480D02*
X8350848Y-14895480D01*
X8436563Y-15095480D02*
X8436563Y-14990718D01*
X8436563Y-14990718D02*
X8427039Y-14971670D01*
X8427039Y-14971670D02*
X8407991Y-14962146D01*
X8407991Y-14962146D02*
X8379420Y-14962146D01*
X8379420Y-14962146D02*
X8360372Y-14971670D01*
X8360372Y-14971670D02*
X8350848Y-14981194D01*
X8560372Y-15095480D02*
X8541325Y-15085956D01*
X8541325Y-15085956D02*
X8531801Y-15076432D01*
X8531801Y-15076432D02*
X8522277Y-15057384D01*
X8522277Y-15057384D02*
X8522277Y-15000242D01*
X8522277Y-15000242D02*
X8531801Y-14981194D01*
X8531801Y-14981194D02*
X8541325Y-14971670D01*
X8541325Y-14971670D02*
X8560372Y-14962146D01*
X8560372Y-14962146D02*
X8588944Y-14962146D01*
X8588944Y-14962146D02*
X8607991Y-14971670D01*
X8607991Y-14971670D02*
X8617515Y-14981194D01*
X8617515Y-14981194D02*
X8627039Y-15000242D01*
X8627039Y-15000242D02*
X8627039Y-15057384D01*
X8627039Y-15057384D02*
X8617515Y-15076432D01*
X8617515Y-15076432D02*
X8607991Y-15085956D01*
X8607991Y-15085956D02*
X8588944Y-15095480D01*
X8588944Y-15095480D02*
X8560372Y-15095480D01*
X8741325Y-15095480D02*
X8722277Y-15085956D01*
X8722277Y-15085956D02*
X8712753Y-15066908D01*
X8712753Y-15066908D02*
X8712753Y-14895480D01*
X8893706Y-15085956D02*
X8874658Y-15095480D01*
X8874658Y-15095480D02*
X8836563Y-15095480D01*
X8836563Y-15095480D02*
X8817515Y-15085956D01*
X8817515Y-15085956D02*
X8807991Y-15066908D01*
X8807991Y-15066908D02*
X8807991Y-14990718D01*
X8807991Y-14990718D02*
X8817515Y-14971670D01*
X8817515Y-14971670D02*
X8836563Y-14962146D01*
X8836563Y-14962146D02*
X8874658Y-14962146D01*
X8874658Y-14962146D02*
X8893706Y-14971670D01*
X8893706Y-14971670D02*
X8903229Y-14990718D01*
X8903229Y-14990718D02*
X8903229Y-15009765D01*
X8903229Y-15009765D02*
X8807991Y-15028813D01*
X8979420Y-15085956D02*
X8998468Y-15095480D01*
X8998468Y-15095480D02*
X9036563Y-15095480D01*
X9036563Y-15095480D02*
X9055610Y-15085956D01*
X9055610Y-15085956D02*
X9065134Y-15066908D01*
X9065134Y-15066908D02*
X9065134Y-15057384D01*
X9065134Y-15057384D02*
X9055610Y-15038337D01*
X9055610Y-15038337D02*
X9036563Y-15028813D01*
X9036563Y-15028813D02*
X9007991Y-15028813D01*
X9007991Y-15028813D02*
X8988944Y-15019289D01*
X8988944Y-15019289D02*
X8979420Y-15000242D01*
X8979420Y-15000242D02*
X8979420Y-14990718D01*
X8979420Y-14990718D02*
X8988944Y-14971670D01*
X8988944Y-14971670D02*
X9007991Y-14962146D01*
X9007991Y-14962146D02*
X9036563Y-14962146D01*
X9036563Y-14962146D02*
X9055610Y-14971670D01*
X9303230Y-15019289D02*
X9455611Y-15019289D01*
X9379420Y-15095480D02*
X9379420Y-14943099D01*
X9798468Y-14895480D02*
X9703230Y-14895480D01*
X9703230Y-14895480D02*
X9693706Y-14990718D01*
X9693706Y-14990718D02*
X9703230Y-14981194D01*
X9703230Y-14981194D02*
X9722277Y-14971670D01*
X9722277Y-14971670D02*
X9769896Y-14971670D01*
X9769896Y-14971670D02*
X9788944Y-14981194D01*
X9788944Y-14981194D02*
X9798468Y-14990718D01*
X9798468Y-14990718D02*
X9807991Y-15009765D01*
X9807991Y-15009765D02*
X9807991Y-15057384D01*
X9807991Y-15057384D02*
X9798468Y-15076432D01*
X9798468Y-15076432D02*
X9788944Y-15085956D01*
X9788944Y-15085956D02*
X9769896Y-15095480D01*
X9769896Y-15095480D02*
X9722277Y-15095480D01*
X9722277Y-15095480D02*
X9703230Y-15085956D01*
X9703230Y-15085956D02*
X9693706Y-15076432D01*
X9998468Y-15095480D02*
X9884182Y-15095480D01*
X9941325Y-15095480D02*
X9941325Y-14895480D01*
X9941325Y-14895480D02*
X9922277Y-14924051D01*
X9922277Y-14924051D02*
X9903230Y-14943099D01*
X9903230Y-14943099D02*
X9884182Y-14952623D01*
X10227039Y-15085956D02*
X10246087Y-15095480D01*
X10246087Y-15095480D02*
X10284182Y-15095480D01*
X10284182Y-15095480D02*
X10303230Y-15085956D01*
X10303230Y-15085956D02*
X10312753Y-15066908D01*
X10312753Y-15066908D02*
X10312753Y-15057384D01*
X10312753Y-15057384D02*
X10303230Y-15038337D01*
X10303230Y-15038337D02*
X10284182Y-15028813D01*
X10284182Y-15028813D02*
X10255611Y-15028813D01*
X10255611Y-15028813D02*
X10236563Y-15019289D01*
X10236563Y-15019289D02*
X10227039Y-15000242D01*
X10227039Y-15000242D02*
X10227039Y-14990718D01*
X10227039Y-14990718D02*
X10236563Y-14971670D01*
X10236563Y-14971670D02*
X10255611Y-14962146D01*
X10255611Y-14962146D02*
X10284182Y-14962146D01*
X10284182Y-14962146D02*
X10303230Y-14971670D01*
X10427039Y-15095480D02*
X10407992Y-15085956D01*
X10407992Y-15085956D02*
X10398468Y-15066908D01*
X10398468Y-15066908D02*
X10398468Y-14895480D01*
X10531801Y-15095480D02*
X10512753Y-15085956D01*
X10512753Y-15085956D02*
X10503230Y-15076432D01*
X10503230Y-15076432D02*
X10493706Y-15057384D01*
X10493706Y-15057384D02*
X10493706Y-15000242D01*
X10493706Y-15000242D02*
X10503230Y-14981194D01*
X10503230Y-14981194D02*
X10512753Y-14971670D01*
X10512753Y-14971670D02*
X10531801Y-14962146D01*
X10531801Y-14962146D02*
X10560373Y-14962146D01*
X10560373Y-14962146D02*
X10579420Y-14971670D01*
X10579420Y-14971670D02*
X10588944Y-14981194D01*
X10588944Y-14981194D02*
X10598468Y-15000242D01*
X10598468Y-15000242D02*
X10598468Y-15057384D01*
X10598468Y-15057384D02*
X10588944Y-15076432D01*
X10588944Y-15076432D02*
X10579420Y-15085956D01*
X10579420Y-15085956D02*
X10560373Y-15095480D01*
X10560373Y-15095480D02*
X10531801Y-15095480D01*
X10655611Y-14962146D02*
X10731801Y-14962146D01*
X10684182Y-14895480D02*
X10684182Y-15066908D01*
X10684182Y-15066908D02*
X10693706Y-15085956D01*
X10693706Y-15085956D02*
X10712753Y-15095480D01*
X10712753Y-15095480D02*
X10731801Y-15095480D01*
X10788944Y-15085956D02*
X10807992Y-15095480D01*
X10807992Y-15095480D02*
X10846087Y-15095480D01*
X10846087Y-15095480D02*
X10865134Y-15085956D01*
X10865134Y-15085956D02*
X10874658Y-15066908D01*
X10874658Y-15066908D02*
X10874658Y-15057384D01*
X10874658Y-15057384D02*
X10865134Y-15038337D01*
X10865134Y-15038337D02*
X10846087Y-15028813D01*
X10846087Y-15028813D02*
X10817515Y-15028813D01*
X10817515Y-15028813D02*
X10798468Y-15019289D01*
X10798468Y-15019289D02*
X10788944Y-15000242D01*
X10788944Y-15000242D02*
X10788944Y-14990718D01*
X10788944Y-14990718D02*
X10798468Y-14971670D01*
X10798468Y-14971670D02*
X10817515Y-14962146D01*
X10817515Y-14962146D02*
X10846087Y-14962146D01*
X10846087Y-14962146D02*
X10865134Y-14971670D01*
X10941325Y-15171670D02*
X10950849Y-15162146D01*
X10950849Y-15162146D02*
X10969896Y-15133575D01*
X10969896Y-15133575D02*
X10979420Y-15114527D01*
X10979420Y-15114527D02*
X10988944Y-15085956D01*
X10988944Y-15085956D02*
X10998468Y-15038337D01*
X10998468Y-15038337D02*
X10998468Y-15000242D01*
X10998468Y-15000242D02*
X10988944Y-14952623D01*
X10988944Y-14952623D02*
X10979420Y-14924051D01*
X10979420Y-14924051D02*
X10969896Y-14905004D01*
X10969896Y-14905004D02*
X10950849Y-14876432D01*
X10950849Y-14876432D02*
X10941325Y-14866908D01*
D12*
X4316098Y-15227356D02*
X4316098Y-15308636D01*
X4275458Y-15267996D02*
X4356738Y-15267996D01*
D11*
X4655610Y-15159480D02*
X4674658Y-15159480D01*
X4674658Y-15159480D02*
X4693705Y-15169004D01*
X4693705Y-15169004D02*
X4703229Y-15178527D01*
X4703229Y-15178527D02*
X4712753Y-15197575D01*
X4712753Y-15197575D02*
X4722277Y-15235670D01*
X4722277Y-15235670D02*
X4722277Y-15283289D01*
X4722277Y-15283289D02*
X4712753Y-15321384D01*
X4712753Y-15321384D02*
X4703229Y-15340432D01*
X4703229Y-15340432D02*
X4693705Y-15349956D01*
X4693705Y-15349956D02*
X4674658Y-15359480D01*
X4674658Y-15359480D02*
X4655610Y-15359480D01*
X4655610Y-15359480D02*
X4636562Y-15349956D01*
X4636562Y-15349956D02*
X4627039Y-15340432D01*
X4627039Y-15340432D02*
X4617515Y-15321384D01*
X4617515Y-15321384D02*
X4607991Y-15283289D01*
X4607991Y-15283289D02*
X4607991Y-15235670D01*
X4607991Y-15235670D02*
X4617515Y-15197575D01*
X4617515Y-15197575D02*
X4627039Y-15178527D01*
X4627039Y-15178527D02*
X4636562Y-15169004D01*
X4636562Y-15169004D02*
X4655610Y-15159480D01*
X4807991Y-15340432D02*
X4817515Y-15349956D01*
X4817515Y-15349956D02*
X4807991Y-15359480D01*
X4807991Y-15359480D02*
X4798467Y-15349956D01*
X4798467Y-15349956D02*
X4807991Y-15340432D01*
X4807991Y-15340432D02*
X4807991Y-15359480D01*
X4931800Y-15245194D02*
X4912753Y-15235670D01*
X4912753Y-15235670D02*
X4903229Y-15226146D01*
X4903229Y-15226146D02*
X4893705Y-15207099D01*
X4893705Y-15207099D02*
X4893705Y-15197575D01*
X4893705Y-15197575D02*
X4903229Y-15178527D01*
X4903229Y-15178527D02*
X4912753Y-15169004D01*
X4912753Y-15169004D02*
X4931800Y-15159480D01*
X4931800Y-15159480D02*
X4969896Y-15159480D01*
X4969896Y-15159480D02*
X4988943Y-15169004D01*
X4988943Y-15169004D02*
X4998467Y-15178527D01*
X4998467Y-15178527D02*
X5007991Y-15197575D01*
X5007991Y-15197575D02*
X5007991Y-15207099D01*
X5007991Y-15207099D02*
X4998467Y-15226146D01*
X4998467Y-15226146D02*
X4988943Y-15235670D01*
X4988943Y-15235670D02*
X4969896Y-15245194D01*
X4969896Y-15245194D02*
X4931800Y-15245194D01*
X4931800Y-15245194D02*
X4912753Y-15254718D01*
X4912753Y-15254718D02*
X4903229Y-15264242D01*
X4903229Y-15264242D02*
X4893705Y-15283289D01*
X4893705Y-15283289D02*
X4893705Y-15321384D01*
X4893705Y-15321384D02*
X4903229Y-15340432D01*
X4903229Y-15340432D02*
X4912753Y-15349956D01*
X4912753Y-15349956D02*
X4931800Y-15359480D01*
X4931800Y-15359480D02*
X4969896Y-15359480D01*
X4969896Y-15359480D02*
X4988943Y-15349956D01*
X4988943Y-15349956D02*
X4998467Y-15340432D01*
X4998467Y-15340432D02*
X5007991Y-15321384D01*
X5007991Y-15321384D02*
X5007991Y-15283289D01*
X5007991Y-15283289D02*
X4998467Y-15264242D01*
X4998467Y-15264242D02*
X4988943Y-15254718D01*
X4988943Y-15254718D02*
X4969896Y-15245194D01*
X5198467Y-15359480D02*
X5084181Y-15359480D01*
X5141324Y-15359480D02*
X5141324Y-15159480D01*
X5141324Y-15159480D02*
X5122277Y-15188051D01*
X5122277Y-15188051D02*
X5103229Y-15207099D01*
X5103229Y-15207099D02*
X5084181Y-15216623D01*
X5265134Y-15159480D02*
X5388943Y-15159480D01*
X5388943Y-15159480D02*
X5322277Y-15235670D01*
X5322277Y-15235670D02*
X5350848Y-15235670D01*
X5350848Y-15235670D02*
X5369896Y-15245194D01*
X5369896Y-15245194D02*
X5379420Y-15254718D01*
X5379420Y-15254718D02*
X5388943Y-15273765D01*
X5388943Y-15273765D02*
X5388943Y-15321384D01*
X5388943Y-15321384D02*
X5379420Y-15340432D01*
X5379420Y-15340432D02*
X5369896Y-15349956D01*
X5369896Y-15349956D02*
X5350848Y-15359480D01*
X5350848Y-15359480D02*
X5293705Y-15359480D01*
X5293705Y-15359480D02*
X5274658Y-15349956D01*
X5274658Y-15349956D02*
X5265134Y-15340432D01*
X5474658Y-15359480D02*
X5474658Y-15226146D01*
X5474658Y-15245194D02*
X5484181Y-15235670D01*
X5484181Y-15235670D02*
X5503229Y-15226146D01*
X5503229Y-15226146D02*
X5531801Y-15226146D01*
X5531801Y-15226146D02*
X5550848Y-15235670D01*
X5550848Y-15235670D02*
X5560372Y-15254718D01*
X5560372Y-15254718D02*
X5560372Y-15359480D01*
X5560372Y-15254718D02*
X5569896Y-15235670D01*
X5569896Y-15235670D02*
X5588943Y-15226146D01*
X5588943Y-15226146D02*
X5617515Y-15226146D01*
X5617515Y-15226146D02*
X5636562Y-15235670D01*
X5636562Y-15235670D02*
X5646086Y-15254718D01*
X5646086Y-15254718D02*
X5646086Y-15359480D01*
X5741324Y-15359480D02*
X5741324Y-15226146D01*
X5741324Y-15245194D02*
X5750848Y-15235670D01*
X5750848Y-15235670D02*
X5769896Y-15226146D01*
X5769896Y-15226146D02*
X5798467Y-15226146D01*
X5798467Y-15226146D02*
X5817515Y-15235670D01*
X5817515Y-15235670D02*
X5827039Y-15254718D01*
X5827039Y-15254718D02*
X5827039Y-15359480D01*
X5827039Y-15254718D02*
X5836562Y-15235670D01*
X5836562Y-15235670D02*
X5855610Y-15226146D01*
X5855610Y-15226146D02*
X5884181Y-15226146D01*
X5884181Y-15226146D02*
X5903229Y-15235670D01*
X5903229Y-15235670D02*
X5912753Y-15254718D01*
X5912753Y-15254718D02*
X5912753Y-15359480D01*
X6303229Y-15149956D02*
X6131801Y-15407099D01*
X6560372Y-15159480D02*
X6579420Y-15159480D01*
X6579420Y-15159480D02*
X6598467Y-15169004D01*
X6598467Y-15169004D02*
X6607991Y-15178527D01*
X6607991Y-15178527D02*
X6617515Y-15197575D01*
X6617515Y-15197575D02*
X6627039Y-15235670D01*
X6627039Y-15235670D02*
X6627039Y-15283289D01*
X6627039Y-15283289D02*
X6617515Y-15321384D01*
X6617515Y-15321384D02*
X6607991Y-15340432D01*
X6607991Y-15340432D02*
X6598467Y-15349956D01*
X6598467Y-15349956D02*
X6579420Y-15359480D01*
X6579420Y-15359480D02*
X6560372Y-15359480D01*
X6560372Y-15359480D02*
X6541324Y-15349956D01*
X6541324Y-15349956D02*
X6531801Y-15340432D01*
X6531801Y-15340432D02*
X6522277Y-15321384D01*
X6522277Y-15321384D02*
X6512753Y-15283289D01*
X6512753Y-15283289D02*
X6512753Y-15235670D01*
X6512753Y-15235670D02*
X6522277Y-15197575D01*
X6522277Y-15197575D02*
X6531801Y-15178527D01*
X6531801Y-15178527D02*
X6541324Y-15169004D01*
X6541324Y-15169004D02*
X6560372Y-15159480D01*
X6712753Y-15340432D02*
X6722277Y-15349956D01*
X6722277Y-15349956D02*
X6712753Y-15359480D01*
X6712753Y-15359480D02*
X6703229Y-15349956D01*
X6703229Y-15349956D02*
X6712753Y-15340432D01*
X6712753Y-15340432D02*
X6712753Y-15359480D01*
X6846086Y-15159480D02*
X6865134Y-15159480D01*
X6865134Y-15159480D02*
X6884182Y-15169004D01*
X6884182Y-15169004D02*
X6893705Y-15178527D01*
X6893705Y-15178527D02*
X6903229Y-15197575D01*
X6903229Y-15197575D02*
X6912753Y-15235670D01*
X6912753Y-15235670D02*
X6912753Y-15283289D01*
X6912753Y-15283289D02*
X6903229Y-15321384D01*
X6903229Y-15321384D02*
X6893705Y-15340432D01*
X6893705Y-15340432D02*
X6884182Y-15349956D01*
X6884182Y-15349956D02*
X6865134Y-15359480D01*
X6865134Y-15359480D02*
X6846086Y-15359480D01*
X6846086Y-15359480D02*
X6827039Y-15349956D01*
X6827039Y-15349956D02*
X6817515Y-15340432D01*
X6817515Y-15340432D02*
X6807991Y-15321384D01*
X6807991Y-15321384D02*
X6798467Y-15283289D01*
X6798467Y-15283289D02*
X6798467Y-15235670D01*
X6798467Y-15235670D02*
X6807991Y-15197575D01*
X6807991Y-15197575D02*
X6817515Y-15178527D01*
X6817515Y-15178527D02*
X6827039Y-15169004D01*
X6827039Y-15169004D02*
X6846086Y-15159480D01*
X6979420Y-15159480D02*
X7103229Y-15159480D01*
X7103229Y-15159480D02*
X7036562Y-15235670D01*
X7036562Y-15235670D02*
X7065134Y-15235670D01*
X7065134Y-15235670D02*
X7084182Y-15245194D01*
X7084182Y-15245194D02*
X7093705Y-15254718D01*
X7093705Y-15254718D02*
X7103229Y-15273765D01*
X7103229Y-15273765D02*
X7103229Y-15321384D01*
X7103229Y-15321384D02*
X7093705Y-15340432D01*
X7093705Y-15340432D02*
X7084182Y-15349956D01*
X7084182Y-15349956D02*
X7065134Y-15359480D01*
X7065134Y-15359480D02*
X7007991Y-15359480D01*
X7007991Y-15359480D02*
X6988943Y-15349956D01*
X6988943Y-15349956D02*
X6979420Y-15340432D01*
X7179420Y-15178527D02*
X7188943Y-15169004D01*
X7188943Y-15169004D02*
X7207991Y-15159480D01*
X7207991Y-15159480D02*
X7255610Y-15159480D01*
X7255610Y-15159480D02*
X7274658Y-15169004D01*
X7274658Y-15169004D02*
X7284182Y-15178527D01*
X7284182Y-15178527D02*
X7293705Y-15197575D01*
X7293705Y-15197575D02*
X7293705Y-15216623D01*
X7293705Y-15216623D02*
X7284182Y-15245194D01*
X7284182Y-15245194D02*
X7169896Y-15359480D01*
X7169896Y-15359480D02*
X7293705Y-15359480D01*
X7417515Y-15159480D02*
X7436563Y-15159480D01*
X7436563Y-15159480D02*
X7455610Y-15169004D01*
X7455610Y-15169004D02*
X7465134Y-15178527D01*
X7465134Y-15178527D02*
X7474658Y-15197575D01*
X7474658Y-15197575D02*
X7484182Y-15235670D01*
X7484182Y-15235670D02*
X7484182Y-15283289D01*
X7484182Y-15283289D02*
X7474658Y-15321384D01*
X7474658Y-15321384D02*
X7465134Y-15340432D01*
X7465134Y-15340432D02*
X7455610Y-15349956D01*
X7455610Y-15349956D02*
X7436563Y-15359480D01*
X7436563Y-15359480D02*
X7417515Y-15359480D01*
X7417515Y-15359480D02*
X7398467Y-15349956D01*
X7398467Y-15349956D02*
X7388943Y-15340432D01*
X7388943Y-15340432D02*
X7379420Y-15321384D01*
X7379420Y-15321384D02*
X7369896Y-15283289D01*
X7369896Y-15283289D02*
X7369896Y-15235670D01*
X7369896Y-15235670D02*
X7379420Y-15197575D01*
X7379420Y-15197575D02*
X7388943Y-15178527D01*
X7388943Y-15178527D02*
X7398467Y-15169004D01*
X7398467Y-15169004D02*
X7417515Y-15159480D01*
X7560372Y-15159480D02*
X7560372Y-15197575D01*
X7636563Y-15159480D02*
X7636563Y-15197575D01*
X7931801Y-15435670D02*
X7922277Y-15426146D01*
X7922277Y-15426146D02*
X7903229Y-15397575D01*
X7903229Y-15397575D02*
X7893705Y-15378527D01*
X7893705Y-15378527D02*
X7884182Y-15349956D01*
X7884182Y-15349956D02*
X7874658Y-15302337D01*
X7874658Y-15302337D02*
X7874658Y-15264242D01*
X7874658Y-15264242D02*
X7884182Y-15216623D01*
X7884182Y-15216623D02*
X7893705Y-15188051D01*
X7893705Y-15188051D02*
X7903229Y-15169004D01*
X7903229Y-15169004D02*
X7922277Y-15140432D01*
X7922277Y-15140432D02*
X7931801Y-15130908D01*
X7998467Y-15178527D02*
X8007991Y-15169004D01*
X8007991Y-15169004D02*
X8027039Y-15159480D01*
X8027039Y-15159480D02*
X8074658Y-15159480D01*
X8074658Y-15159480D02*
X8093705Y-15169004D01*
X8093705Y-15169004D02*
X8103229Y-15178527D01*
X8103229Y-15178527D02*
X8112753Y-15197575D01*
X8112753Y-15197575D02*
X8112753Y-15216623D01*
X8112753Y-15216623D02*
X8103229Y-15245194D01*
X8103229Y-15245194D02*
X7988944Y-15359480D01*
X7988944Y-15359480D02*
X8112753Y-15359480D01*
X8284182Y-15226146D02*
X8284182Y-15359480D01*
X8236563Y-15149956D02*
X8188944Y-15292813D01*
X8188944Y-15292813D02*
X8312753Y-15292813D01*
X8541325Y-15359480D02*
X8541325Y-15159480D01*
X8627039Y-15359480D02*
X8627039Y-15254718D01*
X8627039Y-15254718D02*
X8617515Y-15235670D01*
X8617515Y-15235670D02*
X8598468Y-15226146D01*
X8598468Y-15226146D02*
X8569896Y-15226146D01*
X8569896Y-15226146D02*
X8550848Y-15235670D01*
X8550848Y-15235670D02*
X8541325Y-15245194D01*
X8750848Y-15359480D02*
X8731801Y-15349956D01*
X8731801Y-15349956D02*
X8722277Y-15340432D01*
X8722277Y-15340432D02*
X8712753Y-15321384D01*
X8712753Y-15321384D02*
X8712753Y-15264242D01*
X8712753Y-15264242D02*
X8722277Y-15245194D01*
X8722277Y-15245194D02*
X8731801Y-15235670D01*
X8731801Y-15235670D02*
X8750848Y-15226146D01*
X8750848Y-15226146D02*
X8779420Y-15226146D01*
X8779420Y-15226146D02*
X8798468Y-15235670D01*
X8798468Y-15235670D02*
X8807991Y-15245194D01*
X8807991Y-15245194D02*
X8817515Y-15264242D01*
X8817515Y-15264242D02*
X8817515Y-15321384D01*
X8817515Y-15321384D02*
X8807991Y-15340432D01*
X8807991Y-15340432D02*
X8798468Y-15349956D01*
X8798468Y-15349956D02*
X8779420Y-15359480D01*
X8779420Y-15359480D02*
X8750848Y-15359480D01*
X8931801Y-15359480D02*
X8912753Y-15349956D01*
X8912753Y-15349956D02*
X8903229Y-15330908D01*
X8903229Y-15330908D02*
X8903229Y-15159480D01*
X9084182Y-15349956D02*
X9065134Y-15359480D01*
X9065134Y-15359480D02*
X9027039Y-15359480D01*
X9027039Y-15359480D02*
X9007991Y-15349956D01*
X9007991Y-15349956D02*
X8998468Y-15330908D01*
X8998468Y-15330908D02*
X8998468Y-15254718D01*
X8998468Y-15254718D02*
X9007991Y-15235670D01*
X9007991Y-15235670D02*
X9027039Y-15226146D01*
X9027039Y-15226146D02*
X9065134Y-15226146D01*
X9065134Y-15226146D02*
X9084182Y-15235670D01*
X9084182Y-15235670D02*
X9093706Y-15254718D01*
X9093706Y-15254718D02*
X9093706Y-15273765D01*
X9093706Y-15273765D02*
X8998468Y-15292813D01*
X9169896Y-15349956D02*
X9188944Y-15359480D01*
X9188944Y-15359480D02*
X9227039Y-15359480D01*
X9227039Y-15359480D02*
X9246087Y-15349956D01*
X9246087Y-15349956D02*
X9255610Y-15330908D01*
X9255610Y-15330908D02*
X9255610Y-15321384D01*
X9255610Y-15321384D02*
X9246087Y-15302337D01*
X9246087Y-15302337D02*
X9227039Y-15292813D01*
X9227039Y-15292813D02*
X9198468Y-15292813D01*
X9198468Y-15292813D02*
X9179420Y-15283289D01*
X9179420Y-15283289D02*
X9169896Y-15264242D01*
X9169896Y-15264242D02*
X9169896Y-15254718D01*
X9169896Y-15254718D02*
X9179420Y-15235670D01*
X9179420Y-15235670D02*
X9198468Y-15226146D01*
X9198468Y-15226146D02*
X9227039Y-15226146D01*
X9227039Y-15226146D02*
X9246087Y-15235670D01*
X9322277Y-15435670D02*
X9331801Y-15426146D01*
X9331801Y-15426146D02*
X9350849Y-15397575D01*
X9350849Y-15397575D02*
X9360372Y-15378527D01*
X9360372Y-15378527D02*
X9369896Y-15349956D01*
X9369896Y-15349956D02*
X9379420Y-15302337D01*
X9379420Y-15302337D02*
X9379420Y-15264242D01*
X9379420Y-15264242D02*
X9369896Y-15216623D01*
X9369896Y-15216623D02*
X9360372Y-15188051D01*
X9360372Y-15188051D02*
X9350849Y-15169004D01*
X9350849Y-15169004D02*
X9331801Y-15140432D01*
X9331801Y-15140432D02*
X9322277Y-15130908D01*
D12*
X4343558Y-15563816D02*
X4343558Y-15500176D01*
X4279918Y-15500176D01*
X4279918Y-15563816D01*
X4343558Y-15563816D01*
D11*
X4655610Y-15423480D02*
X4674658Y-15423480D01*
X4674658Y-15423480D02*
X4693705Y-15433004D01*
X4693705Y-15433004D02*
X4703229Y-15442527D01*
X4703229Y-15442527D02*
X4712753Y-15461575D01*
X4712753Y-15461575D02*
X4722277Y-15499670D01*
X4722277Y-15499670D02*
X4722277Y-15547289D01*
X4722277Y-15547289D02*
X4712753Y-15585384D01*
X4712753Y-15585384D02*
X4703229Y-15604432D01*
X4703229Y-15604432D02*
X4693705Y-15613956D01*
X4693705Y-15613956D02*
X4674658Y-15623480D01*
X4674658Y-15623480D02*
X4655610Y-15623480D01*
X4655610Y-15623480D02*
X4636562Y-15613956D01*
X4636562Y-15613956D02*
X4627039Y-15604432D01*
X4627039Y-15604432D02*
X4617515Y-15585384D01*
X4617515Y-15585384D02*
X4607991Y-15547289D01*
X4607991Y-15547289D02*
X4607991Y-15499670D01*
X4607991Y-15499670D02*
X4617515Y-15461575D01*
X4617515Y-15461575D02*
X4627039Y-15442527D01*
X4627039Y-15442527D02*
X4636562Y-15433004D01*
X4636562Y-15433004D02*
X4655610Y-15423480D01*
X4807991Y-15604432D02*
X4817515Y-15613956D01*
X4817515Y-15613956D02*
X4807991Y-15623480D01*
X4807991Y-15623480D02*
X4798467Y-15613956D01*
X4798467Y-15613956D02*
X4807991Y-15604432D01*
X4807991Y-15604432D02*
X4807991Y-15623480D01*
X4912753Y-15623480D02*
X4950848Y-15623480D01*
X4950848Y-15623480D02*
X4969896Y-15613956D01*
X4969896Y-15613956D02*
X4979420Y-15604432D01*
X4979420Y-15604432D02*
X4998467Y-15575861D01*
X4998467Y-15575861D02*
X5007991Y-15537765D01*
X5007991Y-15537765D02*
X5007991Y-15461575D01*
X5007991Y-15461575D02*
X4998467Y-15442527D01*
X4998467Y-15442527D02*
X4988943Y-15433004D01*
X4988943Y-15433004D02*
X4969896Y-15423480D01*
X4969896Y-15423480D02*
X4931800Y-15423480D01*
X4931800Y-15423480D02*
X4912753Y-15433004D01*
X4912753Y-15433004D02*
X4903229Y-15442527D01*
X4903229Y-15442527D02*
X4893705Y-15461575D01*
X4893705Y-15461575D02*
X4893705Y-15509194D01*
X4893705Y-15509194D02*
X4903229Y-15528242D01*
X4903229Y-15528242D02*
X4912753Y-15537765D01*
X4912753Y-15537765D02*
X4931800Y-15547289D01*
X4931800Y-15547289D02*
X4969896Y-15547289D01*
X4969896Y-15547289D02*
X4988943Y-15537765D01*
X4988943Y-15537765D02*
X4998467Y-15528242D01*
X4998467Y-15528242D02*
X5007991Y-15509194D01*
X5131800Y-15423480D02*
X5150848Y-15423480D01*
X5150848Y-15423480D02*
X5169896Y-15433004D01*
X5169896Y-15433004D02*
X5179420Y-15442527D01*
X5179420Y-15442527D02*
X5188943Y-15461575D01*
X5188943Y-15461575D02*
X5198467Y-15499670D01*
X5198467Y-15499670D02*
X5198467Y-15547289D01*
X5198467Y-15547289D02*
X5188943Y-15585384D01*
X5188943Y-15585384D02*
X5179420Y-15604432D01*
X5179420Y-15604432D02*
X5169896Y-15613956D01*
X5169896Y-15613956D02*
X5150848Y-15623480D01*
X5150848Y-15623480D02*
X5131800Y-15623480D01*
X5131800Y-15623480D02*
X5112753Y-15613956D01*
X5112753Y-15613956D02*
X5103229Y-15604432D01*
X5103229Y-15604432D02*
X5093705Y-15585384D01*
X5093705Y-15585384D02*
X5084181Y-15547289D01*
X5084181Y-15547289D02*
X5084181Y-15499670D01*
X5084181Y-15499670D02*
X5093705Y-15461575D01*
X5093705Y-15461575D02*
X5103229Y-15442527D01*
X5103229Y-15442527D02*
X5112753Y-15433004D01*
X5112753Y-15433004D02*
X5131800Y-15423480D01*
X5322277Y-15423480D02*
X5341324Y-15423480D01*
X5341324Y-15423480D02*
X5360372Y-15433004D01*
X5360372Y-15433004D02*
X5369896Y-15442527D01*
X5369896Y-15442527D02*
X5379420Y-15461575D01*
X5379420Y-15461575D02*
X5388943Y-15499670D01*
X5388943Y-15499670D02*
X5388943Y-15547289D01*
X5388943Y-15547289D02*
X5379420Y-15585384D01*
X5379420Y-15585384D02*
X5369896Y-15604432D01*
X5369896Y-15604432D02*
X5360372Y-15613956D01*
X5360372Y-15613956D02*
X5341324Y-15623480D01*
X5341324Y-15623480D02*
X5322277Y-15623480D01*
X5322277Y-15623480D02*
X5303229Y-15613956D01*
X5303229Y-15613956D02*
X5293705Y-15604432D01*
X5293705Y-15604432D02*
X5284181Y-15585384D01*
X5284181Y-15585384D02*
X5274658Y-15547289D01*
X5274658Y-15547289D02*
X5274658Y-15499670D01*
X5274658Y-15499670D02*
X5284181Y-15461575D01*
X5284181Y-15461575D02*
X5293705Y-15442527D01*
X5293705Y-15442527D02*
X5303229Y-15433004D01*
X5303229Y-15433004D02*
X5322277Y-15423480D01*
X5474658Y-15623480D02*
X5474658Y-15490146D01*
X5474658Y-15509194D02*
X5484181Y-15499670D01*
X5484181Y-15499670D02*
X5503229Y-15490146D01*
X5503229Y-15490146D02*
X5531801Y-15490146D01*
X5531801Y-15490146D02*
X5550848Y-15499670D01*
X5550848Y-15499670D02*
X5560372Y-15518718D01*
X5560372Y-15518718D02*
X5560372Y-15623480D01*
X5560372Y-15518718D02*
X5569896Y-15499670D01*
X5569896Y-15499670D02*
X5588943Y-15490146D01*
X5588943Y-15490146D02*
X5617515Y-15490146D01*
X5617515Y-15490146D02*
X5636562Y-15499670D01*
X5636562Y-15499670D02*
X5646086Y-15518718D01*
X5646086Y-15518718D02*
X5646086Y-15623480D01*
X5741324Y-15623480D02*
X5741324Y-15490146D01*
X5741324Y-15509194D02*
X5750848Y-15499670D01*
X5750848Y-15499670D02*
X5769896Y-15490146D01*
X5769896Y-15490146D02*
X5798467Y-15490146D01*
X5798467Y-15490146D02*
X5817515Y-15499670D01*
X5817515Y-15499670D02*
X5827039Y-15518718D01*
X5827039Y-15518718D02*
X5827039Y-15623480D01*
X5827039Y-15518718D02*
X5836562Y-15499670D01*
X5836562Y-15499670D02*
X5855610Y-15490146D01*
X5855610Y-15490146D02*
X5884181Y-15490146D01*
X5884181Y-15490146D02*
X5903229Y-15499670D01*
X5903229Y-15499670D02*
X5912753Y-15518718D01*
X5912753Y-15518718D02*
X5912753Y-15623480D01*
X6303229Y-15413956D02*
X6131801Y-15671099D01*
X6560372Y-15423480D02*
X6579420Y-15423480D01*
X6579420Y-15423480D02*
X6598467Y-15433004D01*
X6598467Y-15433004D02*
X6607991Y-15442527D01*
X6607991Y-15442527D02*
X6617515Y-15461575D01*
X6617515Y-15461575D02*
X6627039Y-15499670D01*
X6627039Y-15499670D02*
X6627039Y-15547289D01*
X6627039Y-15547289D02*
X6617515Y-15585384D01*
X6617515Y-15585384D02*
X6607991Y-15604432D01*
X6607991Y-15604432D02*
X6598467Y-15613956D01*
X6598467Y-15613956D02*
X6579420Y-15623480D01*
X6579420Y-15623480D02*
X6560372Y-15623480D01*
X6560372Y-15623480D02*
X6541324Y-15613956D01*
X6541324Y-15613956D02*
X6531801Y-15604432D01*
X6531801Y-15604432D02*
X6522277Y-15585384D01*
X6522277Y-15585384D02*
X6512753Y-15547289D01*
X6512753Y-15547289D02*
X6512753Y-15499670D01*
X6512753Y-15499670D02*
X6522277Y-15461575D01*
X6522277Y-15461575D02*
X6531801Y-15442527D01*
X6531801Y-15442527D02*
X6541324Y-15433004D01*
X6541324Y-15433004D02*
X6560372Y-15423480D01*
X6712753Y-15604432D02*
X6722277Y-15613956D01*
X6722277Y-15613956D02*
X6712753Y-15623480D01*
X6712753Y-15623480D02*
X6703229Y-15613956D01*
X6703229Y-15613956D02*
X6712753Y-15604432D01*
X6712753Y-15604432D02*
X6712753Y-15623480D01*
X6846086Y-15423480D02*
X6865134Y-15423480D01*
X6865134Y-15423480D02*
X6884182Y-15433004D01*
X6884182Y-15433004D02*
X6893705Y-15442527D01*
X6893705Y-15442527D02*
X6903229Y-15461575D01*
X6903229Y-15461575D02*
X6912753Y-15499670D01*
X6912753Y-15499670D02*
X6912753Y-15547289D01*
X6912753Y-15547289D02*
X6903229Y-15585384D01*
X6903229Y-15585384D02*
X6893705Y-15604432D01*
X6893705Y-15604432D02*
X6884182Y-15613956D01*
X6884182Y-15613956D02*
X6865134Y-15623480D01*
X6865134Y-15623480D02*
X6846086Y-15623480D01*
X6846086Y-15623480D02*
X6827039Y-15613956D01*
X6827039Y-15613956D02*
X6817515Y-15604432D01*
X6817515Y-15604432D02*
X6807991Y-15585384D01*
X6807991Y-15585384D02*
X6798467Y-15547289D01*
X6798467Y-15547289D02*
X6798467Y-15499670D01*
X6798467Y-15499670D02*
X6807991Y-15461575D01*
X6807991Y-15461575D02*
X6817515Y-15442527D01*
X6817515Y-15442527D02*
X6827039Y-15433004D01*
X6827039Y-15433004D02*
X6846086Y-15423480D01*
X6979420Y-15423480D02*
X7103229Y-15423480D01*
X7103229Y-15423480D02*
X7036562Y-15499670D01*
X7036562Y-15499670D02*
X7065134Y-15499670D01*
X7065134Y-15499670D02*
X7084182Y-15509194D01*
X7084182Y-15509194D02*
X7093705Y-15518718D01*
X7093705Y-15518718D02*
X7103229Y-15537765D01*
X7103229Y-15537765D02*
X7103229Y-15585384D01*
X7103229Y-15585384D02*
X7093705Y-15604432D01*
X7093705Y-15604432D02*
X7084182Y-15613956D01*
X7084182Y-15613956D02*
X7065134Y-15623480D01*
X7065134Y-15623480D02*
X7007991Y-15623480D01*
X7007991Y-15623480D02*
X6988943Y-15613956D01*
X6988943Y-15613956D02*
X6979420Y-15604432D01*
X7284182Y-15423480D02*
X7188943Y-15423480D01*
X7188943Y-15423480D02*
X7179420Y-15518718D01*
X7179420Y-15518718D02*
X7188943Y-15509194D01*
X7188943Y-15509194D02*
X7207991Y-15499670D01*
X7207991Y-15499670D02*
X7255610Y-15499670D01*
X7255610Y-15499670D02*
X7274658Y-15509194D01*
X7274658Y-15509194D02*
X7284182Y-15518718D01*
X7284182Y-15518718D02*
X7293705Y-15537765D01*
X7293705Y-15537765D02*
X7293705Y-15585384D01*
X7293705Y-15585384D02*
X7284182Y-15604432D01*
X7284182Y-15604432D02*
X7274658Y-15613956D01*
X7274658Y-15613956D02*
X7255610Y-15623480D01*
X7255610Y-15623480D02*
X7207991Y-15623480D01*
X7207991Y-15623480D02*
X7188943Y-15613956D01*
X7188943Y-15613956D02*
X7179420Y-15604432D01*
X7465134Y-15490146D02*
X7465134Y-15623480D01*
X7417515Y-15413956D02*
X7369896Y-15556813D01*
X7369896Y-15556813D02*
X7493705Y-15556813D01*
X7560372Y-15423480D02*
X7560372Y-15461575D01*
X7636563Y-15423480D02*
X7636563Y-15461575D01*
X7931801Y-15699670D02*
X7922277Y-15690146D01*
X7922277Y-15690146D02*
X7903229Y-15661575D01*
X7903229Y-15661575D02*
X7893705Y-15642527D01*
X7893705Y-15642527D02*
X7884182Y-15613956D01*
X7884182Y-15613956D02*
X7874658Y-15566337D01*
X7874658Y-15566337D02*
X7874658Y-15528242D01*
X7874658Y-15528242D02*
X7884182Y-15480623D01*
X7884182Y-15480623D02*
X7893705Y-15452051D01*
X7893705Y-15452051D02*
X7903229Y-15433004D01*
X7903229Y-15433004D02*
X7922277Y-15404432D01*
X7922277Y-15404432D02*
X7931801Y-15394908D01*
X8046086Y-15423480D02*
X8065134Y-15423480D01*
X8065134Y-15423480D02*
X8084182Y-15433004D01*
X8084182Y-15433004D02*
X8093705Y-15442527D01*
X8093705Y-15442527D02*
X8103229Y-15461575D01*
X8103229Y-15461575D02*
X8112753Y-15499670D01*
X8112753Y-15499670D02*
X8112753Y-15547289D01*
X8112753Y-15547289D02*
X8103229Y-15585384D01*
X8103229Y-15585384D02*
X8093705Y-15604432D01*
X8093705Y-15604432D02*
X8084182Y-15613956D01*
X8084182Y-15613956D02*
X8065134Y-15623480D01*
X8065134Y-15623480D02*
X8046086Y-15623480D01*
X8046086Y-15623480D02*
X8027039Y-15613956D01*
X8027039Y-15613956D02*
X8017515Y-15604432D01*
X8017515Y-15604432D02*
X8007991Y-15585384D01*
X8007991Y-15585384D02*
X7998467Y-15547289D01*
X7998467Y-15547289D02*
X7998467Y-15499670D01*
X7998467Y-15499670D02*
X8007991Y-15461575D01*
X8007991Y-15461575D02*
X8017515Y-15442527D01*
X8017515Y-15442527D02*
X8027039Y-15433004D01*
X8027039Y-15433004D02*
X8046086Y-15423480D01*
X8350848Y-15623480D02*
X8350848Y-15423480D01*
X8436563Y-15623480D02*
X8436563Y-15518718D01*
X8436563Y-15518718D02*
X8427039Y-15499670D01*
X8427039Y-15499670D02*
X8407991Y-15490146D01*
X8407991Y-15490146D02*
X8379420Y-15490146D01*
X8379420Y-15490146D02*
X8360372Y-15499670D01*
X8360372Y-15499670D02*
X8350848Y-15509194D01*
X8560372Y-15623480D02*
X8541325Y-15613956D01*
X8541325Y-15613956D02*
X8531801Y-15604432D01*
X8531801Y-15604432D02*
X8522277Y-15585384D01*
X8522277Y-15585384D02*
X8522277Y-15528242D01*
X8522277Y-15528242D02*
X8531801Y-15509194D01*
X8531801Y-15509194D02*
X8541325Y-15499670D01*
X8541325Y-15499670D02*
X8560372Y-15490146D01*
X8560372Y-15490146D02*
X8588944Y-15490146D01*
X8588944Y-15490146D02*
X8607991Y-15499670D01*
X8607991Y-15499670D02*
X8617515Y-15509194D01*
X8617515Y-15509194D02*
X8627039Y-15528242D01*
X8627039Y-15528242D02*
X8627039Y-15585384D01*
X8627039Y-15585384D02*
X8617515Y-15604432D01*
X8617515Y-15604432D02*
X8607991Y-15613956D01*
X8607991Y-15613956D02*
X8588944Y-15623480D01*
X8588944Y-15623480D02*
X8560372Y-15623480D01*
X8741325Y-15623480D02*
X8722277Y-15613956D01*
X8722277Y-15613956D02*
X8712753Y-15594908D01*
X8712753Y-15594908D02*
X8712753Y-15423480D01*
X8893706Y-15613956D02*
X8874658Y-15623480D01*
X8874658Y-15623480D02*
X8836563Y-15623480D01*
X8836563Y-15623480D02*
X8817515Y-15613956D01*
X8817515Y-15613956D02*
X8807991Y-15594908D01*
X8807991Y-15594908D02*
X8807991Y-15518718D01*
X8807991Y-15518718D02*
X8817515Y-15499670D01*
X8817515Y-15499670D02*
X8836563Y-15490146D01*
X8836563Y-15490146D02*
X8874658Y-15490146D01*
X8874658Y-15490146D02*
X8893706Y-15499670D01*
X8893706Y-15499670D02*
X8903229Y-15518718D01*
X8903229Y-15518718D02*
X8903229Y-15537765D01*
X8903229Y-15537765D02*
X8807991Y-15556813D01*
X8979420Y-15613956D02*
X8998468Y-15623480D01*
X8998468Y-15623480D02*
X9036563Y-15623480D01*
X9036563Y-15623480D02*
X9055610Y-15613956D01*
X9055610Y-15613956D02*
X9065134Y-15594908D01*
X9065134Y-15594908D02*
X9065134Y-15585384D01*
X9065134Y-15585384D02*
X9055610Y-15566337D01*
X9055610Y-15566337D02*
X9036563Y-15556813D01*
X9036563Y-15556813D02*
X9007991Y-15556813D01*
X9007991Y-15556813D02*
X8988944Y-15547289D01*
X8988944Y-15547289D02*
X8979420Y-15528242D01*
X8979420Y-15528242D02*
X8979420Y-15518718D01*
X8979420Y-15518718D02*
X8988944Y-15499670D01*
X8988944Y-15499670D02*
X9007991Y-15490146D01*
X9007991Y-15490146D02*
X9036563Y-15490146D01*
X9036563Y-15490146D02*
X9055610Y-15499670D01*
X9303230Y-15547289D02*
X9455611Y-15547289D01*
X9379420Y-15623480D02*
X9379420Y-15471099D01*
X9731801Y-15509194D02*
X9712753Y-15499670D01*
X9712753Y-15499670D02*
X9703230Y-15490146D01*
X9703230Y-15490146D02*
X9693706Y-15471099D01*
X9693706Y-15471099D02*
X9693706Y-15461575D01*
X9693706Y-15461575D02*
X9703230Y-15442527D01*
X9703230Y-15442527D02*
X9712753Y-15433004D01*
X9712753Y-15433004D02*
X9731801Y-15423480D01*
X9731801Y-15423480D02*
X9769896Y-15423480D01*
X9769896Y-15423480D02*
X9788944Y-15433004D01*
X9788944Y-15433004D02*
X9798468Y-15442527D01*
X9798468Y-15442527D02*
X9807991Y-15461575D01*
X9807991Y-15461575D02*
X9807991Y-15471099D01*
X9807991Y-15471099D02*
X9798468Y-15490146D01*
X9798468Y-15490146D02*
X9788944Y-15499670D01*
X9788944Y-15499670D02*
X9769896Y-15509194D01*
X9769896Y-15509194D02*
X9731801Y-15509194D01*
X9731801Y-15509194D02*
X9712753Y-15518718D01*
X9712753Y-15518718D02*
X9703230Y-15528242D01*
X9703230Y-15528242D02*
X9693706Y-15547289D01*
X9693706Y-15547289D02*
X9693706Y-15585384D01*
X9693706Y-15585384D02*
X9703230Y-15604432D01*
X9703230Y-15604432D02*
X9712753Y-15613956D01*
X9712753Y-15613956D02*
X9731801Y-15623480D01*
X9731801Y-15623480D02*
X9769896Y-15623480D01*
X9769896Y-15623480D02*
X9788944Y-15613956D01*
X9788944Y-15613956D02*
X9798468Y-15604432D01*
X9798468Y-15604432D02*
X9807991Y-15585384D01*
X9807991Y-15585384D02*
X9807991Y-15547289D01*
X9807991Y-15547289D02*
X9798468Y-15528242D01*
X9798468Y-15528242D02*
X9788944Y-15518718D01*
X9788944Y-15518718D02*
X9769896Y-15509194D01*
X10036563Y-15613956D02*
X10055611Y-15623480D01*
X10055611Y-15623480D02*
X10093706Y-15623480D01*
X10093706Y-15623480D02*
X10112753Y-15613956D01*
X10112753Y-15613956D02*
X10122277Y-15594908D01*
X10122277Y-15594908D02*
X10122277Y-15585384D01*
X10122277Y-15585384D02*
X10112753Y-15566337D01*
X10112753Y-15566337D02*
X10093706Y-15556813D01*
X10093706Y-15556813D02*
X10065134Y-15556813D01*
X10065134Y-15556813D02*
X10046087Y-15547289D01*
X10046087Y-15547289D02*
X10036563Y-15528242D01*
X10036563Y-15528242D02*
X10036563Y-15518718D01*
X10036563Y-15518718D02*
X10046087Y-15499670D01*
X10046087Y-15499670D02*
X10065134Y-15490146D01*
X10065134Y-15490146D02*
X10093706Y-15490146D01*
X10093706Y-15490146D02*
X10112753Y-15499670D01*
X10236563Y-15623480D02*
X10217515Y-15613956D01*
X10217515Y-15613956D02*
X10207992Y-15594908D01*
X10207992Y-15594908D02*
X10207992Y-15423480D01*
X10341325Y-15623480D02*
X10322277Y-15613956D01*
X10322277Y-15613956D02*
X10312753Y-15604432D01*
X10312753Y-15604432D02*
X10303230Y-15585384D01*
X10303230Y-15585384D02*
X10303230Y-15528242D01*
X10303230Y-15528242D02*
X10312753Y-15509194D01*
X10312753Y-15509194D02*
X10322277Y-15499670D01*
X10322277Y-15499670D02*
X10341325Y-15490146D01*
X10341325Y-15490146D02*
X10369896Y-15490146D01*
X10369896Y-15490146D02*
X10388944Y-15499670D01*
X10388944Y-15499670D02*
X10398468Y-15509194D01*
X10398468Y-15509194D02*
X10407992Y-15528242D01*
X10407992Y-15528242D02*
X10407992Y-15585384D01*
X10407992Y-15585384D02*
X10398468Y-15604432D01*
X10398468Y-15604432D02*
X10388944Y-15613956D01*
X10388944Y-15613956D02*
X10369896Y-15623480D01*
X10369896Y-15623480D02*
X10341325Y-15623480D01*
X10465134Y-15490146D02*
X10541325Y-15490146D01*
X10493706Y-15423480D02*
X10493706Y-15594908D01*
X10493706Y-15594908D02*
X10503230Y-15613956D01*
X10503230Y-15613956D02*
X10522277Y-15623480D01*
X10522277Y-15623480D02*
X10541325Y-15623480D01*
X10598468Y-15613956D02*
X10617515Y-15623480D01*
X10617515Y-15623480D02*
X10655611Y-15623480D01*
X10655611Y-15623480D02*
X10674658Y-15613956D01*
X10674658Y-15613956D02*
X10684182Y-15594908D01*
X10684182Y-15594908D02*
X10684182Y-15585384D01*
X10684182Y-15585384D02*
X10674658Y-15566337D01*
X10674658Y-15566337D02*
X10655611Y-15556813D01*
X10655611Y-15556813D02*
X10627039Y-15556813D01*
X10627039Y-15556813D02*
X10607992Y-15547289D01*
X10607992Y-15547289D02*
X10598468Y-15528242D01*
X10598468Y-15528242D02*
X10598468Y-15518718D01*
X10598468Y-15518718D02*
X10607992Y-15499670D01*
X10607992Y-15499670D02*
X10627039Y-15490146D01*
X10627039Y-15490146D02*
X10655611Y-15490146D01*
X10655611Y-15490146D02*
X10674658Y-15499670D01*
X10750849Y-15699670D02*
X10760373Y-15690146D01*
X10760373Y-15690146D02*
X10779420Y-15661575D01*
X10779420Y-15661575D02*
X10788944Y-15642527D01*
X10788944Y-15642527D02*
X10798468Y-15613956D01*
X10798468Y-15613956D02*
X10807992Y-15566337D01*
X10807992Y-15566337D02*
X10807992Y-15528242D01*
X10807992Y-15528242D02*
X10798468Y-15480623D01*
X10798468Y-15480623D02*
X10788944Y-15452051D01*
X10788944Y-15452051D02*
X10779420Y-15433004D01*
X10779420Y-15433004D02*
X10760373Y-15404432D01*
X10760373Y-15404432D02*
X10750849Y-15394908D01*
D13*
X4291738Y-15860996D02*
X4356738Y-15795996D01*
X4291738Y-15730996D01*
X4226738Y-15795996D01*
X4291738Y-15860996D01*
D11*
X4722277Y-15887480D02*
X4607991Y-15887480D01*
X4665134Y-15887480D02*
X4665134Y-15687480D01*
X4665134Y-15687480D02*
X4646086Y-15716051D01*
X4646086Y-15716051D02*
X4627039Y-15735099D01*
X4627039Y-15735099D02*
X4607991Y-15744623D01*
X4807991Y-15868432D02*
X4817515Y-15877956D01*
X4817515Y-15877956D02*
X4807991Y-15887480D01*
X4807991Y-15887480D02*
X4798467Y-15877956D01*
X4798467Y-15877956D02*
X4807991Y-15868432D01*
X4807991Y-15868432D02*
X4807991Y-15887480D01*
X4884181Y-15687480D02*
X5007991Y-15687480D01*
X5007991Y-15687480D02*
X4941324Y-15763670D01*
X4941324Y-15763670D02*
X4969896Y-15763670D01*
X4969896Y-15763670D02*
X4988943Y-15773194D01*
X4988943Y-15773194D02*
X4998467Y-15782718D01*
X4998467Y-15782718D02*
X5007991Y-15801765D01*
X5007991Y-15801765D02*
X5007991Y-15849384D01*
X5007991Y-15849384D02*
X4998467Y-15868432D01*
X4998467Y-15868432D02*
X4988943Y-15877956D01*
X4988943Y-15877956D02*
X4969896Y-15887480D01*
X4969896Y-15887480D02*
X4912753Y-15887480D01*
X4912753Y-15887480D02*
X4893705Y-15877956D01*
X4893705Y-15877956D02*
X4884181Y-15868432D01*
X5131800Y-15687480D02*
X5150848Y-15687480D01*
X5150848Y-15687480D02*
X5169896Y-15697004D01*
X5169896Y-15697004D02*
X5179420Y-15706527D01*
X5179420Y-15706527D02*
X5188943Y-15725575D01*
X5188943Y-15725575D02*
X5198467Y-15763670D01*
X5198467Y-15763670D02*
X5198467Y-15811289D01*
X5198467Y-15811289D02*
X5188943Y-15849384D01*
X5188943Y-15849384D02*
X5179420Y-15868432D01*
X5179420Y-15868432D02*
X5169896Y-15877956D01*
X5169896Y-15877956D02*
X5150848Y-15887480D01*
X5150848Y-15887480D02*
X5131800Y-15887480D01*
X5131800Y-15887480D02*
X5112753Y-15877956D01*
X5112753Y-15877956D02*
X5103229Y-15868432D01*
X5103229Y-15868432D02*
X5093705Y-15849384D01*
X5093705Y-15849384D02*
X5084181Y-15811289D01*
X5084181Y-15811289D02*
X5084181Y-15763670D01*
X5084181Y-15763670D02*
X5093705Y-15725575D01*
X5093705Y-15725575D02*
X5103229Y-15706527D01*
X5103229Y-15706527D02*
X5112753Y-15697004D01*
X5112753Y-15697004D02*
X5131800Y-15687480D01*
X5322277Y-15687480D02*
X5341324Y-15687480D01*
X5341324Y-15687480D02*
X5360372Y-15697004D01*
X5360372Y-15697004D02*
X5369896Y-15706527D01*
X5369896Y-15706527D02*
X5379420Y-15725575D01*
X5379420Y-15725575D02*
X5388943Y-15763670D01*
X5388943Y-15763670D02*
X5388943Y-15811289D01*
X5388943Y-15811289D02*
X5379420Y-15849384D01*
X5379420Y-15849384D02*
X5369896Y-15868432D01*
X5369896Y-15868432D02*
X5360372Y-15877956D01*
X5360372Y-15877956D02*
X5341324Y-15887480D01*
X5341324Y-15887480D02*
X5322277Y-15887480D01*
X5322277Y-15887480D02*
X5303229Y-15877956D01*
X5303229Y-15877956D02*
X5293705Y-15868432D01*
X5293705Y-15868432D02*
X5284181Y-15849384D01*
X5284181Y-15849384D02*
X5274658Y-15811289D01*
X5274658Y-15811289D02*
X5274658Y-15763670D01*
X5274658Y-15763670D02*
X5284181Y-15725575D01*
X5284181Y-15725575D02*
X5293705Y-15706527D01*
X5293705Y-15706527D02*
X5303229Y-15697004D01*
X5303229Y-15697004D02*
X5322277Y-15687480D01*
X5474658Y-15887480D02*
X5474658Y-15754146D01*
X5474658Y-15773194D02*
X5484181Y-15763670D01*
X5484181Y-15763670D02*
X5503229Y-15754146D01*
X5503229Y-15754146D02*
X5531801Y-15754146D01*
X5531801Y-15754146D02*
X5550848Y-15763670D01*
X5550848Y-15763670D02*
X5560372Y-15782718D01*
X5560372Y-15782718D02*
X5560372Y-15887480D01*
X5560372Y-15782718D02*
X5569896Y-15763670D01*
X5569896Y-15763670D02*
X5588943Y-15754146D01*
X5588943Y-15754146D02*
X5617515Y-15754146D01*
X5617515Y-15754146D02*
X5636562Y-15763670D01*
X5636562Y-15763670D02*
X5646086Y-15782718D01*
X5646086Y-15782718D02*
X5646086Y-15887480D01*
X5741324Y-15887480D02*
X5741324Y-15754146D01*
X5741324Y-15773194D02*
X5750848Y-15763670D01*
X5750848Y-15763670D02*
X5769896Y-15754146D01*
X5769896Y-15754146D02*
X5798467Y-15754146D01*
X5798467Y-15754146D02*
X5817515Y-15763670D01*
X5817515Y-15763670D02*
X5827039Y-15782718D01*
X5827039Y-15782718D02*
X5827039Y-15887480D01*
X5827039Y-15782718D02*
X5836562Y-15763670D01*
X5836562Y-15763670D02*
X5855610Y-15754146D01*
X5855610Y-15754146D02*
X5884181Y-15754146D01*
X5884181Y-15754146D02*
X5903229Y-15763670D01*
X5903229Y-15763670D02*
X5912753Y-15782718D01*
X5912753Y-15782718D02*
X5912753Y-15887480D01*
X6303229Y-15677956D02*
X6131801Y-15935099D01*
X6560372Y-15687480D02*
X6579420Y-15687480D01*
X6579420Y-15687480D02*
X6598467Y-15697004D01*
X6598467Y-15697004D02*
X6607991Y-15706527D01*
X6607991Y-15706527D02*
X6617515Y-15725575D01*
X6617515Y-15725575D02*
X6627039Y-15763670D01*
X6627039Y-15763670D02*
X6627039Y-15811289D01*
X6627039Y-15811289D02*
X6617515Y-15849384D01*
X6617515Y-15849384D02*
X6607991Y-15868432D01*
X6607991Y-15868432D02*
X6598467Y-15877956D01*
X6598467Y-15877956D02*
X6579420Y-15887480D01*
X6579420Y-15887480D02*
X6560372Y-15887480D01*
X6560372Y-15887480D02*
X6541324Y-15877956D01*
X6541324Y-15877956D02*
X6531801Y-15868432D01*
X6531801Y-15868432D02*
X6522277Y-15849384D01*
X6522277Y-15849384D02*
X6512753Y-15811289D01*
X6512753Y-15811289D02*
X6512753Y-15763670D01*
X6512753Y-15763670D02*
X6522277Y-15725575D01*
X6522277Y-15725575D02*
X6531801Y-15706527D01*
X6531801Y-15706527D02*
X6541324Y-15697004D01*
X6541324Y-15697004D02*
X6560372Y-15687480D01*
X6712753Y-15868432D02*
X6722277Y-15877956D01*
X6722277Y-15877956D02*
X6712753Y-15887480D01*
X6712753Y-15887480D02*
X6703229Y-15877956D01*
X6703229Y-15877956D02*
X6712753Y-15868432D01*
X6712753Y-15868432D02*
X6712753Y-15887480D01*
X6846086Y-15687480D02*
X6865134Y-15687480D01*
X6865134Y-15687480D02*
X6884182Y-15697004D01*
X6884182Y-15697004D02*
X6893705Y-15706527D01*
X6893705Y-15706527D02*
X6903229Y-15725575D01*
X6903229Y-15725575D02*
X6912753Y-15763670D01*
X6912753Y-15763670D02*
X6912753Y-15811289D01*
X6912753Y-15811289D02*
X6903229Y-15849384D01*
X6903229Y-15849384D02*
X6893705Y-15868432D01*
X6893705Y-15868432D02*
X6884182Y-15877956D01*
X6884182Y-15877956D02*
X6865134Y-15887480D01*
X6865134Y-15887480D02*
X6846086Y-15887480D01*
X6846086Y-15887480D02*
X6827039Y-15877956D01*
X6827039Y-15877956D02*
X6817515Y-15868432D01*
X6817515Y-15868432D02*
X6807991Y-15849384D01*
X6807991Y-15849384D02*
X6798467Y-15811289D01*
X6798467Y-15811289D02*
X6798467Y-15763670D01*
X6798467Y-15763670D02*
X6807991Y-15725575D01*
X6807991Y-15725575D02*
X6817515Y-15706527D01*
X6817515Y-15706527D02*
X6827039Y-15697004D01*
X6827039Y-15697004D02*
X6846086Y-15687480D01*
X7093705Y-15687480D02*
X6998467Y-15687480D01*
X6998467Y-15687480D02*
X6988943Y-15782718D01*
X6988943Y-15782718D02*
X6998467Y-15773194D01*
X6998467Y-15773194D02*
X7017515Y-15763670D01*
X7017515Y-15763670D02*
X7065134Y-15763670D01*
X7065134Y-15763670D02*
X7084182Y-15773194D01*
X7084182Y-15773194D02*
X7093705Y-15782718D01*
X7093705Y-15782718D02*
X7103229Y-15801765D01*
X7103229Y-15801765D02*
X7103229Y-15849384D01*
X7103229Y-15849384D02*
X7093705Y-15868432D01*
X7093705Y-15868432D02*
X7084182Y-15877956D01*
X7084182Y-15877956D02*
X7065134Y-15887480D01*
X7065134Y-15887480D02*
X7017515Y-15887480D01*
X7017515Y-15887480D02*
X6998467Y-15877956D01*
X6998467Y-15877956D02*
X6988943Y-15868432D01*
X7293705Y-15887480D02*
X7179420Y-15887480D01*
X7236562Y-15887480D02*
X7236562Y-15687480D01*
X7236562Y-15687480D02*
X7217515Y-15716051D01*
X7217515Y-15716051D02*
X7198467Y-15735099D01*
X7198467Y-15735099D02*
X7179420Y-15744623D01*
X7369896Y-15706527D02*
X7379420Y-15697004D01*
X7379420Y-15697004D02*
X7398467Y-15687480D01*
X7398467Y-15687480D02*
X7446086Y-15687480D01*
X7446086Y-15687480D02*
X7465134Y-15697004D01*
X7465134Y-15697004D02*
X7474658Y-15706527D01*
X7474658Y-15706527D02*
X7484182Y-15725575D01*
X7484182Y-15725575D02*
X7484182Y-15744623D01*
X7484182Y-15744623D02*
X7474658Y-15773194D01*
X7474658Y-15773194D02*
X7360372Y-15887480D01*
X7360372Y-15887480D02*
X7484182Y-15887480D01*
X7560372Y-15687480D02*
X7560372Y-15725575D01*
X7636563Y-15687480D02*
X7636563Y-15725575D01*
X7931801Y-15963670D02*
X7922277Y-15954146D01*
X7922277Y-15954146D02*
X7903229Y-15925575D01*
X7903229Y-15925575D02*
X7893705Y-15906527D01*
X7893705Y-15906527D02*
X7884182Y-15877956D01*
X7884182Y-15877956D02*
X7874658Y-15830337D01*
X7874658Y-15830337D02*
X7874658Y-15792242D01*
X7874658Y-15792242D02*
X7884182Y-15744623D01*
X7884182Y-15744623D02*
X7893705Y-15716051D01*
X7893705Y-15716051D02*
X7903229Y-15697004D01*
X7903229Y-15697004D02*
X7922277Y-15668432D01*
X7922277Y-15668432D02*
X7931801Y-15658908D01*
X7998467Y-15706527D02*
X8007991Y-15697004D01*
X8007991Y-15697004D02*
X8027039Y-15687480D01*
X8027039Y-15687480D02*
X8074658Y-15687480D01*
X8074658Y-15687480D02*
X8093705Y-15697004D01*
X8093705Y-15697004D02*
X8103229Y-15706527D01*
X8103229Y-15706527D02*
X8112753Y-15725575D01*
X8112753Y-15725575D02*
X8112753Y-15744623D01*
X8112753Y-15744623D02*
X8103229Y-15773194D01*
X8103229Y-15773194D02*
X7988944Y-15887480D01*
X7988944Y-15887480D02*
X8112753Y-15887480D01*
X8350848Y-15887480D02*
X8350848Y-15687480D01*
X8436563Y-15887480D02*
X8436563Y-15782718D01*
X8436563Y-15782718D02*
X8427039Y-15763670D01*
X8427039Y-15763670D02*
X8407991Y-15754146D01*
X8407991Y-15754146D02*
X8379420Y-15754146D01*
X8379420Y-15754146D02*
X8360372Y-15763670D01*
X8360372Y-15763670D02*
X8350848Y-15773194D01*
X8560372Y-15887480D02*
X8541325Y-15877956D01*
X8541325Y-15877956D02*
X8531801Y-15868432D01*
X8531801Y-15868432D02*
X8522277Y-15849384D01*
X8522277Y-15849384D02*
X8522277Y-15792242D01*
X8522277Y-15792242D02*
X8531801Y-15773194D01*
X8531801Y-15773194D02*
X8541325Y-15763670D01*
X8541325Y-15763670D02*
X8560372Y-15754146D01*
X8560372Y-15754146D02*
X8588944Y-15754146D01*
X8588944Y-15754146D02*
X8607991Y-15763670D01*
X8607991Y-15763670D02*
X8617515Y-15773194D01*
X8617515Y-15773194D02*
X8627039Y-15792242D01*
X8627039Y-15792242D02*
X8627039Y-15849384D01*
X8627039Y-15849384D02*
X8617515Y-15868432D01*
X8617515Y-15868432D02*
X8607991Y-15877956D01*
X8607991Y-15877956D02*
X8588944Y-15887480D01*
X8588944Y-15887480D02*
X8560372Y-15887480D01*
X8741325Y-15887480D02*
X8722277Y-15877956D01*
X8722277Y-15877956D02*
X8712753Y-15858908D01*
X8712753Y-15858908D02*
X8712753Y-15687480D01*
X8893706Y-15877956D02*
X8874658Y-15887480D01*
X8874658Y-15887480D02*
X8836563Y-15887480D01*
X8836563Y-15887480D02*
X8817515Y-15877956D01*
X8817515Y-15877956D02*
X8807991Y-15858908D01*
X8807991Y-15858908D02*
X8807991Y-15782718D01*
X8807991Y-15782718D02*
X8817515Y-15763670D01*
X8817515Y-15763670D02*
X8836563Y-15754146D01*
X8836563Y-15754146D02*
X8874658Y-15754146D01*
X8874658Y-15754146D02*
X8893706Y-15763670D01*
X8893706Y-15763670D02*
X8903229Y-15782718D01*
X8903229Y-15782718D02*
X8903229Y-15801765D01*
X8903229Y-15801765D02*
X8807991Y-15820813D01*
X8979420Y-15877956D02*
X8998468Y-15887480D01*
X8998468Y-15887480D02*
X9036563Y-15887480D01*
X9036563Y-15887480D02*
X9055610Y-15877956D01*
X9055610Y-15877956D02*
X9065134Y-15858908D01*
X9065134Y-15858908D02*
X9065134Y-15849384D01*
X9065134Y-15849384D02*
X9055610Y-15830337D01*
X9055610Y-15830337D02*
X9036563Y-15820813D01*
X9036563Y-15820813D02*
X9007991Y-15820813D01*
X9007991Y-15820813D02*
X8988944Y-15811289D01*
X8988944Y-15811289D02*
X8979420Y-15792242D01*
X8979420Y-15792242D02*
X8979420Y-15782718D01*
X8979420Y-15782718D02*
X8988944Y-15763670D01*
X8988944Y-15763670D02*
X9007991Y-15754146D01*
X9007991Y-15754146D02*
X9036563Y-15754146D01*
X9036563Y-15754146D02*
X9055610Y-15763670D01*
X9131801Y-15963670D02*
X9141325Y-15954146D01*
X9141325Y-15954146D02*
X9160372Y-15925575D01*
X9160372Y-15925575D02*
X9169896Y-15906527D01*
X9169896Y-15906527D02*
X9179420Y-15877956D01*
X9179420Y-15877956D02*
X9188944Y-15830337D01*
X9188944Y-15830337D02*
X9188944Y-15792242D01*
X9188944Y-15792242D02*
X9179420Y-15744623D01*
X9179420Y-15744623D02*
X9169896Y-15716051D01*
X9169896Y-15716051D02*
X9160372Y-15697004D01*
X9160372Y-15697004D02*
X9141325Y-15668432D01*
X9141325Y-15668432D02*
X9131801Y-15658908D01*
X4156738Y-15959996D02*
X4356738Y-16159996D01*
X4356738Y-15959996D02*
X4156738Y-16159996D01*
X4356738Y-16059996D02*
G75*
G03*
X4156738Y-16059996I-100000J0D01*
G01*
X4156738Y-16059996D02*
G75*
G03*
X4356738Y-16059996I100000J0D01*
G01*
X4607991Y-15970527D02*
X4617515Y-15961004D01*
X4617515Y-15961004D02*
X4636562Y-15951480D01*
X4636562Y-15951480D02*
X4684181Y-15951480D01*
X4684181Y-15951480D02*
X4703229Y-15961004D01*
X4703229Y-15961004D02*
X4712753Y-15970527D01*
X4712753Y-15970527D02*
X4722277Y-15989575D01*
X4722277Y-15989575D02*
X4722277Y-16008623D01*
X4722277Y-16008623D02*
X4712753Y-16037194D01*
X4712753Y-16037194D02*
X4598467Y-16151480D01*
X4598467Y-16151480D02*
X4722277Y-16151480D01*
X4807991Y-16132432D02*
X4817515Y-16141956D01*
X4817515Y-16141956D02*
X4807991Y-16151480D01*
X4807991Y-16151480D02*
X4798467Y-16141956D01*
X4798467Y-16141956D02*
X4807991Y-16132432D01*
X4807991Y-16132432D02*
X4807991Y-16151480D01*
X4893705Y-15970527D02*
X4903229Y-15961004D01*
X4903229Y-15961004D02*
X4922277Y-15951480D01*
X4922277Y-15951480D02*
X4969896Y-15951480D01*
X4969896Y-15951480D02*
X4988943Y-15961004D01*
X4988943Y-15961004D02*
X4998467Y-15970527D01*
X4998467Y-15970527D02*
X5007991Y-15989575D01*
X5007991Y-15989575D02*
X5007991Y-16008623D01*
X5007991Y-16008623D02*
X4998467Y-16037194D01*
X4998467Y-16037194D02*
X4884181Y-16151480D01*
X4884181Y-16151480D02*
X5007991Y-16151480D01*
X5131800Y-15951480D02*
X5150848Y-15951480D01*
X5150848Y-15951480D02*
X5169896Y-15961004D01*
X5169896Y-15961004D02*
X5179420Y-15970527D01*
X5179420Y-15970527D02*
X5188943Y-15989575D01*
X5188943Y-15989575D02*
X5198467Y-16027670D01*
X5198467Y-16027670D02*
X5198467Y-16075289D01*
X5198467Y-16075289D02*
X5188943Y-16113384D01*
X5188943Y-16113384D02*
X5179420Y-16132432D01*
X5179420Y-16132432D02*
X5169896Y-16141956D01*
X5169896Y-16141956D02*
X5150848Y-16151480D01*
X5150848Y-16151480D02*
X5131800Y-16151480D01*
X5131800Y-16151480D02*
X5112753Y-16141956D01*
X5112753Y-16141956D02*
X5103229Y-16132432D01*
X5103229Y-16132432D02*
X5093705Y-16113384D01*
X5093705Y-16113384D02*
X5084181Y-16075289D01*
X5084181Y-16075289D02*
X5084181Y-16027670D01*
X5084181Y-16027670D02*
X5093705Y-15989575D01*
X5093705Y-15989575D02*
X5103229Y-15970527D01*
X5103229Y-15970527D02*
X5112753Y-15961004D01*
X5112753Y-15961004D02*
X5131800Y-15951480D01*
X5322277Y-15951480D02*
X5341324Y-15951480D01*
X5341324Y-15951480D02*
X5360372Y-15961004D01*
X5360372Y-15961004D02*
X5369896Y-15970527D01*
X5369896Y-15970527D02*
X5379420Y-15989575D01*
X5379420Y-15989575D02*
X5388943Y-16027670D01*
X5388943Y-16027670D02*
X5388943Y-16075289D01*
X5388943Y-16075289D02*
X5379420Y-16113384D01*
X5379420Y-16113384D02*
X5369896Y-16132432D01*
X5369896Y-16132432D02*
X5360372Y-16141956D01*
X5360372Y-16141956D02*
X5341324Y-16151480D01*
X5341324Y-16151480D02*
X5322277Y-16151480D01*
X5322277Y-16151480D02*
X5303229Y-16141956D01*
X5303229Y-16141956D02*
X5293705Y-16132432D01*
X5293705Y-16132432D02*
X5284181Y-16113384D01*
X5284181Y-16113384D02*
X5274658Y-16075289D01*
X5274658Y-16075289D02*
X5274658Y-16027670D01*
X5274658Y-16027670D02*
X5284181Y-15989575D01*
X5284181Y-15989575D02*
X5293705Y-15970527D01*
X5293705Y-15970527D02*
X5303229Y-15961004D01*
X5303229Y-15961004D02*
X5322277Y-15951480D01*
X5474658Y-16151480D02*
X5474658Y-16018146D01*
X5474658Y-16037194D02*
X5484181Y-16027670D01*
X5484181Y-16027670D02*
X5503229Y-16018146D01*
X5503229Y-16018146D02*
X5531801Y-16018146D01*
X5531801Y-16018146D02*
X5550848Y-16027670D01*
X5550848Y-16027670D02*
X5560372Y-16046718D01*
X5560372Y-16046718D02*
X5560372Y-16151480D01*
X5560372Y-16046718D02*
X5569896Y-16027670D01*
X5569896Y-16027670D02*
X5588943Y-16018146D01*
X5588943Y-16018146D02*
X5617515Y-16018146D01*
X5617515Y-16018146D02*
X5636562Y-16027670D01*
X5636562Y-16027670D02*
X5646086Y-16046718D01*
X5646086Y-16046718D02*
X5646086Y-16151480D01*
X5741324Y-16151480D02*
X5741324Y-16018146D01*
X5741324Y-16037194D02*
X5750848Y-16027670D01*
X5750848Y-16027670D02*
X5769896Y-16018146D01*
X5769896Y-16018146D02*
X5798467Y-16018146D01*
X5798467Y-16018146D02*
X5817515Y-16027670D01*
X5817515Y-16027670D02*
X5827039Y-16046718D01*
X5827039Y-16046718D02*
X5827039Y-16151480D01*
X5827039Y-16046718D02*
X5836562Y-16027670D01*
X5836562Y-16027670D02*
X5855610Y-16018146D01*
X5855610Y-16018146D02*
X5884181Y-16018146D01*
X5884181Y-16018146D02*
X5903229Y-16027670D01*
X5903229Y-16027670D02*
X5912753Y-16046718D01*
X5912753Y-16046718D02*
X5912753Y-16151480D01*
X6303229Y-15941956D02*
X6131801Y-16199099D01*
X6560372Y-15951480D02*
X6579420Y-15951480D01*
X6579420Y-15951480D02*
X6598467Y-15961004D01*
X6598467Y-15961004D02*
X6607991Y-15970527D01*
X6607991Y-15970527D02*
X6617515Y-15989575D01*
X6617515Y-15989575D02*
X6627039Y-16027670D01*
X6627039Y-16027670D02*
X6627039Y-16075289D01*
X6627039Y-16075289D02*
X6617515Y-16113384D01*
X6617515Y-16113384D02*
X6607991Y-16132432D01*
X6607991Y-16132432D02*
X6598467Y-16141956D01*
X6598467Y-16141956D02*
X6579420Y-16151480D01*
X6579420Y-16151480D02*
X6560372Y-16151480D01*
X6560372Y-16151480D02*
X6541324Y-16141956D01*
X6541324Y-16141956D02*
X6531801Y-16132432D01*
X6531801Y-16132432D02*
X6522277Y-16113384D01*
X6522277Y-16113384D02*
X6512753Y-16075289D01*
X6512753Y-16075289D02*
X6512753Y-16027670D01*
X6512753Y-16027670D02*
X6522277Y-15989575D01*
X6522277Y-15989575D02*
X6531801Y-15970527D01*
X6531801Y-15970527D02*
X6541324Y-15961004D01*
X6541324Y-15961004D02*
X6560372Y-15951480D01*
X6712753Y-16132432D02*
X6722277Y-16141956D01*
X6722277Y-16141956D02*
X6712753Y-16151480D01*
X6712753Y-16151480D02*
X6703229Y-16141956D01*
X6703229Y-16141956D02*
X6712753Y-16132432D01*
X6712753Y-16132432D02*
X6712753Y-16151480D01*
X6846086Y-15951480D02*
X6865134Y-15951480D01*
X6865134Y-15951480D02*
X6884182Y-15961004D01*
X6884182Y-15961004D02*
X6893705Y-15970527D01*
X6893705Y-15970527D02*
X6903229Y-15989575D01*
X6903229Y-15989575D02*
X6912753Y-16027670D01*
X6912753Y-16027670D02*
X6912753Y-16075289D01*
X6912753Y-16075289D02*
X6903229Y-16113384D01*
X6903229Y-16113384D02*
X6893705Y-16132432D01*
X6893705Y-16132432D02*
X6884182Y-16141956D01*
X6884182Y-16141956D02*
X6865134Y-16151480D01*
X6865134Y-16151480D02*
X6846086Y-16151480D01*
X6846086Y-16151480D02*
X6827039Y-16141956D01*
X6827039Y-16141956D02*
X6817515Y-16132432D01*
X6817515Y-16132432D02*
X6807991Y-16113384D01*
X6807991Y-16113384D02*
X6798467Y-16075289D01*
X6798467Y-16075289D02*
X6798467Y-16027670D01*
X6798467Y-16027670D02*
X6807991Y-15989575D01*
X6807991Y-15989575D02*
X6817515Y-15970527D01*
X6817515Y-15970527D02*
X6827039Y-15961004D01*
X6827039Y-15961004D02*
X6846086Y-15951480D01*
X7027039Y-16037194D02*
X7007991Y-16027670D01*
X7007991Y-16027670D02*
X6998467Y-16018146D01*
X6998467Y-16018146D02*
X6988943Y-15999099D01*
X6988943Y-15999099D02*
X6988943Y-15989575D01*
X6988943Y-15989575D02*
X6998467Y-15970527D01*
X6998467Y-15970527D02*
X7007991Y-15961004D01*
X7007991Y-15961004D02*
X7027039Y-15951480D01*
X7027039Y-15951480D02*
X7065134Y-15951480D01*
X7065134Y-15951480D02*
X7084182Y-15961004D01*
X7084182Y-15961004D02*
X7093705Y-15970527D01*
X7093705Y-15970527D02*
X7103229Y-15989575D01*
X7103229Y-15989575D02*
X7103229Y-15999099D01*
X7103229Y-15999099D02*
X7093705Y-16018146D01*
X7093705Y-16018146D02*
X7084182Y-16027670D01*
X7084182Y-16027670D02*
X7065134Y-16037194D01*
X7065134Y-16037194D02*
X7027039Y-16037194D01*
X7027039Y-16037194D02*
X7007991Y-16046718D01*
X7007991Y-16046718D02*
X6998467Y-16056242D01*
X6998467Y-16056242D02*
X6988943Y-16075289D01*
X6988943Y-16075289D02*
X6988943Y-16113384D01*
X6988943Y-16113384D02*
X6998467Y-16132432D01*
X6998467Y-16132432D02*
X7007991Y-16141956D01*
X7007991Y-16141956D02*
X7027039Y-16151480D01*
X7027039Y-16151480D02*
X7065134Y-16151480D01*
X7065134Y-16151480D02*
X7084182Y-16141956D01*
X7084182Y-16141956D02*
X7093705Y-16132432D01*
X7093705Y-16132432D02*
X7103229Y-16113384D01*
X7103229Y-16113384D02*
X7103229Y-16075289D01*
X7103229Y-16075289D02*
X7093705Y-16056242D01*
X7093705Y-16056242D02*
X7084182Y-16046718D01*
X7084182Y-16046718D02*
X7065134Y-16037194D01*
X7274658Y-15951480D02*
X7236562Y-15951480D01*
X7236562Y-15951480D02*
X7217515Y-15961004D01*
X7217515Y-15961004D02*
X7207991Y-15970527D01*
X7207991Y-15970527D02*
X7188943Y-15999099D01*
X7188943Y-15999099D02*
X7179420Y-16037194D01*
X7179420Y-16037194D02*
X7179420Y-16113384D01*
X7179420Y-16113384D02*
X7188943Y-16132432D01*
X7188943Y-16132432D02*
X7198467Y-16141956D01*
X7198467Y-16141956D02*
X7217515Y-16151480D01*
X7217515Y-16151480D02*
X7255610Y-16151480D01*
X7255610Y-16151480D02*
X7274658Y-16141956D01*
X7274658Y-16141956D02*
X7284182Y-16132432D01*
X7284182Y-16132432D02*
X7293705Y-16113384D01*
X7293705Y-16113384D02*
X7293705Y-16065765D01*
X7293705Y-16065765D02*
X7284182Y-16046718D01*
X7284182Y-16046718D02*
X7274658Y-16037194D01*
X7274658Y-16037194D02*
X7255610Y-16027670D01*
X7255610Y-16027670D02*
X7217515Y-16027670D01*
X7217515Y-16027670D02*
X7198467Y-16037194D01*
X7198467Y-16037194D02*
X7188943Y-16046718D01*
X7188943Y-16046718D02*
X7179420Y-16065765D01*
X7465134Y-15951480D02*
X7427039Y-15951480D01*
X7427039Y-15951480D02*
X7407991Y-15961004D01*
X7407991Y-15961004D02*
X7398467Y-15970527D01*
X7398467Y-15970527D02*
X7379420Y-15999099D01*
X7379420Y-15999099D02*
X7369896Y-16037194D01*
X7369896Y-16037194D02*
X7369896Y-16113384D01*
X7369896Y-16113384D02*
X7379420Y-16132432D01*
X7379420Y-16132432D02*
X7388943Y-16141956D01*
X7388943Y-16141956D02*
X7407991Y-16151480D01*
X7407991Y-16151480D02*
X7446086Y-16151480D01*
X7446086Y-16151480D02*
X7465134Y-16141956D01*
X7465134Y-16141956D02*
X7474658Y-16132432D01*
X7474658Y-16132432D02*
X7484182Y-16113384D01*
X7484182Y-16113384D02*
X7484182Y-16065765D01*
X7484182Y-16065765D02*
X7474658Y-16046718D01*
X7474658Y-16046718D02*
X7465134Y-16037194D01*
X7465134Y-16037194D02*
X7446086Y-16027670D01*
X7446086Y-16027670D02*
X7407991Y-16027670D01*
X7407991Y-16027670D02*
X7388943Y-16037194D01*
X7388943Y-16037194D02*
X7379420Y-16046718D01*
X7379420Y-16046718D02*
X7369896Y-16065765D01*
X7560372Y-15951480D02*
X7560372Y-15989575D01*
X7636563Y-15951480D02*
X7636563Y-15989575D01*
X7931801Y-16227670D02*
X7922277Y-16218146D01*
X7922277Y-16218146D02*
X7903229Y-16189575D01*
X7903229Y-16189575D02*
X7893705Y-16170527D01*
X7893705Y-16170527D02*
X7884182Y-16141956D01*
X7884182Y-16141956D02*
X7874658Y-16094337D01*
X7874658Y-16094337D02*
X7874658Y-16056242D01*
X7874658Y-16056242D02*
X7884182Y-16008623D01*
X7884182Y-16008623D02*
X7893705Y-15980051D01*
X7893705Y-15980051D02*
X7903229Y-15961004D01*
X7903229Y-15961004D02*
X7922277Y-15932432D01*
X7922277Y-15932432D02*
X7931801Y-15922908D01*
X8017515Y-16151480D02*
X8055610Y-16151480D01*
X8055610Y-16151480D02*
X8074658Y-16141956D01*
X8074658Y-16141956D02*
X8084182Y-16132432D01*
X8084182Y-16132432D02*
X8103229Y-16103861D01*
X8103229Y-16103861D02*
X8112753Y-16065765D01*
X8112753Y-16065765D02*
X8112753Y-15989575D01*
X8112753Y-15989575D02*
X8103229Y-15970527D01*
X8103229Y-15970527D02*
X8093705Y-15961004D01*
X8093705Y-15961004D02*
X8074658Y-15951480D01*
X8074658Y-15951480D02*
X8036563Y-15951480D01*
X8036563Y-15951480D02*
X8017515Y-15961004D01*
X8017515Y-15961004D02*
X8007991Y-15970527D01*
X8007991Y-15970527D02*
X7998467Y-15989575D01*
X7998467Y-15989575D02*
X7998467Y-16037194D01*
X7998467Y-16037194D02*
X8007991Y-16056242D01*
X8007991Y-16056242D02*
X8017515Y-16065765D01*
X8017515Y-16065765D02*
X8036563Y-16075289D01*
X8036563Y-16075289D02*
X8074658Y-16075289D01*
X8074658Y-16075289D02*
X8093705Y-16065765D01*
X8093705Y-16065765D02*
X8103229Y-16056242D01*
X8103229Y-16056242D02*
X8112753Y-16037194D01*
X8350848Y-16151480D02*
X8350848Y-15951480D01*
X8436563Y-16151480D02*
X8436563Y-16046718D01*
X8436563Y-16046718D02*
X8427039Y-16027670D01*
X8427039Y-16027670D02*
X8407991Y-16018146D01*
X8407991Y-16018146D02*
X8379420Y-16018146D01*
X8379420Y-16018146D02*
X8360372Y-16027670D01*
X8360372Y-16027670D02*
X8350848Y-16037194D01*
X8560372Y-16151480D02*
X8541325Y-16141956D01*
X8541325Y-16141956D02*
X8531801Y-16132432D01*
X8531801Y-16132432D02*
X8522277Y-16113384D01*
X8522277Y-16113384D02*
X8522277Y-16056242D01*
X8522277Y-16056242D02*
X8531801Y-16037194D01*
X8531801Y-16037194D02*
X8541325Y-16027670D01*
X8541325Y-16027670D02*
X8560372Y-16018146D01*
X8560372Y-16018146D02*
X8588944Y-16018146D01*
X8588944Y-16018146D02*
X8607991Y-16027670D01*
X8607991Y-16027670D02*
X8617515Y-16037194D01*
X8617515Y-16037194D02*
X8627039Y-16056242D01*
X8627039Y-16056242D02*
X8627039Y-16113384D01*
X8627039Y-16113384D02*
X8617515Y-16132432D01*
X8617515Y-16132432D02*
X8607991Y-16141956D01*
X8607991Y-16141956D02*
X8588944Y-16151480D01*
X8588944Y-16151480D02*
X8560372Y-16151480D01*
X8741325Y-16151480D02*
X8722277Y-16141956D01*
X8722277Y-16141956D02*
X8712753Y-16122908D01*
X8712753Y-16122908D02*
X8712753Y-15951480D01*
X8893706Y-16141956D02*
X8874658Y-16151480D01*
X8874658Y-16151480D02*
X8836563Y-16151480D01*
X8836563Y-16151480D02*
X8817515Y-16141956D01*
X8817515Y-16141956D02*
X8807991Y-16122908D01*
X8807991Y-16122908D02*
X8807991Y-16046718D01*
X8807991Y-16046718D02*
X8817515Y-16027670D01*
X8817515Y-16027670D02*
X8836563Y-16018146D01*
X8836563Y-16018146D02*
X8874658Y-16018146D01*
X8874658Y-16018146D02*
X8893706Y-16027670D01*
X8893706Y-16027670D02*
X8903229Y-16046718D01*
X8903229Y-16046718D02*
X8903229Y-16065765D01*
X8903229Y-16065765D02*
X8807991Y-16084813D01*
X8979420Y-16141956D02*
X8998468Y-16151480D01*
X8998468Y-16151480D02*
X9036563Y-16151480D01*
X9036563Y-16151480D02*
X9055610Y-16141956D01*
X9055610Y-16141956D02*
X9065134Y-16122908D01*
X9065134Y-16122908D02*
X9065134Y-16113384D01*
X9065134Y-16113384D02*
X9055610Y-16094337D01*
X9055610Y-16094337D02*
X9036563Y-16084813D01*
X9036563Y-16084813D02*
X9007991Y-16084813D01*
X9007991Y-16084813D02*
X8988944Y-16075289D01*
X8988944Y-16075289D02*
X8979420Y-16056242D01*
X8979420Y-16056242D02*
X8979420Y-16046718D01*
X8979420Y-16046718D02*
X8988944Y-16027670D01*
X8988944Y-16027670D02*
X9007991Y-16018146D01*
X9007991Y-16018146D02*
X9036563Y-16018146D01*
X9036563Y-16018146D02*
X9055610Y-16027670D01*
X9131801Y-16227670D02*
X9141325Y-16218146D01*
X9141325Y-16218146D02*
X9160372Y-16189575D01*
X9160372Y-16189575D02*
X9169896Y-16170527D01*
X9169896Y-16170527D02*
X9179420Y-16141956D01*
X9179420Y-16141956D02*
X9188944Y-16094337D01*
X9188944Y-16094337D02*
X9188944Y-16056242D01*
X9188944Y-16056242D02*
X9179420Y-16008623D01*
X9179420Y-16008623D02*
X9169896Y-15980051D01*
X9169896Y-15980051D02*
X9160372Y-15961004D01*
X9160372Y-15961004D02*
X9141325Y-15932432D01*
X9141325Y-15932432D02*
X9131801Y-15922908D01*
M02*
