M48
; DRILL file {KiCad 7.0.10} date lun. 18 mars 2024 13:53:39
; FORMAT={-:-/ absolute / inch / decimal}
; #@! TF.CreationDate,2024-03-18T13:53:39+01:00
; #@! TF.GenerationSoftware,Kicad,Pcbnew,7.0.10
; #@! TF.FileFunction,Plated,1,2,PTH
FMAT,2
INCH
; #@! TA.AperFunction,Plated,PTH,ComponentDrill
T1C0.0157
; #@! TA.AperFunction,Plated,PTH,ComponentDrill
T2C0.0250
; #@! TA.AperFunction,Plated,PTH,ComponentDrill
T3C0.0320
; #@! TA.AperFunction,Plated,PTH,ComponentDrill
T4C0.0354
; #@! TA.AperFunction,Plated,PTH,ComponentDrill
T5C0.0512
; #@! TA.AperFunction,Plated,PTH,ComponentDrill
T6C0.0866
%
G90
G05
T1
X6.3615Y-4.1788
X6.3957Y-4.0848
X6.4299Y-3.9909
X6.4641Y-3.8969
X6.4724Y-4.2192
X6.4983Y-3.8029
X6.5066Y-4.1252
X6.5325Y-3.709
X6.5408Y-4.0313
X6.5667Y-3.615
X6.5751Y-3.9373
X6.6009Y-3.521
X6.6093Y-3.8433
X6.6351Y-3.427
X6.6435Y-3.7494
X6.6693Y-3.3331
X6.6777Y-3.6554
X6.7035Y-3.2391
X6.7119Y-3.5614
X6.7377Y-3.1451
X6.7461Y-3.4674
X6.7803Y-3.3735
X6.8145Y-3.2795
X6.8487Y-3.1855
T3
X6.1355Y-4.0964
X6.1697Y-4.0025
X6.2039Y-3.9085
X6.2381Y-3.8145
X6.2723Y-3.7206
X6.3065Y-3.6266
X6.3407Y-3.5326
X6.3749Y-3.4387
X6.4091Y-3.3447
X6.4433Y-3.2507
X6.4775Y-3.1567
X6.5117Y-3.0628
X6.6986Y-4.3014
X6.7328Y-4.2074
X6.767Y-4.1134
X6.8012Y-4.0195
X6.8354Y-3.9255
X6.8696Y-3.8315
X6.9038Y-3.7376
X6.938Y-3.6436
X6.9722Y-3.5496
X7.0064Y-3.4557
X7.0406Y-3.3617
X7.0748Y-3.2677
T5
X5.2167Y-4.2256
X5.4723Y-4.239
T6
X2.3748Y-2.8984
X3.089Y-4.6429
X3.5617Y-3.5263
X4.285Y-4.302
X4.3374Y-2.8029
X5.0608Y-3.5786
X5.7677Y-2.4685
X6.3559Y-4.9138
X7.1976Y-3.7319
T2
G00X2.0698Y-3.6438
M15
G01X2.0457Y-3.6503
M16
G05
G00X2.2431Y-4.2903
M15
G01X2.2189Y-4.2968
M16
G05
G00X2.2814Y-3.6727
M15
G01X2.2572Y-3.6792
M16
G05
G00X2.4163Y-4.9368
M15
G01X2.3921Y-4.9433
M16
G05
G00X2.4501Y-3.5419
M15
G01X2.426Y-3.5484
M16
G05
G00X2.4546Y-4.3192
M15
G01X2.4304Y-4.3257
M16
G05
G00X2.6233Y-4.1884
M15
G01X2.5992Y-4.1949
M16
G05
G00X2.6278Y-4.9657
M15
G01X2.6037Y-4.9722
M16
G05
G00X2.7966Y-4.8349
M15
G01X2.7724Y-4.8414
M16
G05
G00X2.8427Y-2.9621
M15
G01X2.818Y-2.9656
M16
G05
G00X2.9359Y-3.6249
M15
G01X2.9111Y-3.6284
M16
G05
G00X3.029Y-4.2877
M15
G01X3.0042Y-4.2911
M16
G05
G00X3.0492Y-3.0166
M15
G01X3.0244Y-3.0201
M16
G05
G00X3.1423Y-3.6794
M15
G01X3.1175Y-3.6828
M16
G05
G00X3.2326Y-2.9073
M15
G01X3.2078Y-2.9108
M16
G05
G00X3.2354Y-4.3421
M15
G01X3.2107Y-4.3456
M16
G05
G00X3.3257Y-3.5701
M15
G01X3.301Y-3.5736
M16
G05
G00X3.4189Y-4.2329
M15
G01X3.3941Y-4.2364
M16
G05
G00X3.7527Y-2.6732
M15
G01X3.7277Y-2.6732
M16
G05
G00X3.7527Y-3.3425
M15
G01X3.7277Y-3.3425
M16
G05
G00X3.7527Y-4.0118
M15
G01X3.7277Y-4.0118
M16
G05
G00X3.9495Y-2.7559
M15
G01X3.9245Y-2.7559
M16
G05
G00X3.9495Y-3.4252
M15
G01X3.9245Y-3.4252
M16
G05
G00X3.9495Y-4.0945
M15
G01X3.9245Y-4.0945
M16
G05
G00X4.1464Y-2.6732
M15
G01X4.1214Y-2.6732
M16
G05
G00X4.1464Y-3.3425
M15
G01X4.1214Y-3.3425
M16
G05
G00X4.1464Y-4.0118
M15
G01X4.1214Y-4.0118
M16
G05
G00X4.4859Y-4.2508
M15
G01X4.4609Y-4.2495
M16
G05
G00X4.5209Y-3.5824
M15
G01X4.4959Y-3.5811
M16
G05
G00X4.5559Y-2.914
M15
G01X4.531Y-2.9127
M16
G05
G00X4.6781Y-4.3437
M15
G01X4.6532Y-4.3423
M16
G05
G00X4.7132Y-3.6753
M15
G01X4.6882Y-3.674
M16
G05
G00X4.7482Y-3.0069
M15
G01X4.7232Y-3.0056
M16
G05
G00X4.879Y-4.2714
M15
G01X4.8541Y-4.2701
M16
G05
G00X4.9141Y-3.603
M15
G01X4.8891Y-3.6017
M16
G05
G00X4.9491Y-2.9346
M15
G01X4.9241Y-2.9333
M16
G05
G00X5.2204Y-3.8038
M15
G01X5.1954Y-3.8025
M16
G05
G00X5.2554Y-3.1354
M15
G01X5.2304Y-3.1341
M16
G05
G00X5.3908Y-4.6927
M15
G01X5.3908Y-4.7177
M16
G05
G00X5.3908Y-5.0864
M15
G01X5.3908Y-5.1114
M16
G05
G00X5.4126Y-3.8967
M15
G01X5.3877Y-3.8954
M16
G05
G00X5.4476Y-3.2283
M15
G01X5.4227Y-3.227
M16
G05
G00X5.4735Y-4.8895
M15
G01X5.4735Y-4.9145
M16
G05
G00X5.6135Y-3.8244
M15
G01X5.5886Y-3.8231
M16
G05
G00X5.6486Y-3.156
M15
G01X5.6236Y-3.1547
M16
G05
G00X5.7453Y-4.8503
M15
G01X5.7497Y-4.8257
M16
G05
G00X5.7926Y-5.0585
M15
G01X5.7969Y-5.0339
M16
G05
G00X5.8609Y-4.6708
M15
G01X5.8653Y-4.6462
M16
G05
G00X6.778Y-5.2596
M15
G01X6.7675Y-5.2822
M16
G05
G00X6.9362Y-5.1161
M15
G01X6.9256Y-5.1388
M16
G05
G00X6.9444Y-4.9028
M15
G01X6.9339Y-4.9254
M16
G05
T4
G00X6.023Y-3.0332
M15
G01X6.0176Y-3.048
M16
G05
G00X6.031Y-3.0077
M15
G01X6.0364Y-2.9929
M16
G05
G00X6.0849Y-2.8597
M15
G01X6.0903Y-2.8449
M16
G05
G00X6.1253Y-2.7487
M15
G01X6.1307Y-2.7339
M16
G05
G00X6.1864Y-3.1103
M15
G01X6.1918Y-3.0955
M16
G05
G00X6.208Y-3.0545
M15
G01X6.2026Y-3.0693
M16
G05
G00X6.2618Y-2.9065
M15
G01X6.2564Y-2.9213
M16
G05
G00X6.3022Y-2.7955
M15
G01X6.2968Y-2.8103
M16
G05
M30
