%TF.GenerationSoftware,KiCad,Pcbnew,7.0.10*%
%TF.CreationDate,2024-03-18T13:53:59+01:00*%
%TF.ProjectId,chew_v1,63686577-5f76-4312-9e6b-696361645f70,rev?*%
%TF.SameCoordinates,Original*%
%TF.FileFunction,Profile,NP*%
%FSLAX46Y46*%
G04 Gerber Fmt 4.6, Leading zero omitted, Abs format (unit mm)*
G04 Created by KiCad (PCBNEW 7.0.10) date 2024-03-18 13:53:59*
%MOMM*%
%LPD*%
G01*
G04 APERTURE LIST*
%TA.AperFunction,Profile*%
%ADD10C,0.150000*%
%TD*%
G04 APERTURE END LIST*
D10*
X155048988Y-59230274D02*
G75*
G03*
X153977226Y-57264827I-1548988J430274D01*
G01*
X53122752Y-72246539D02*
G75*
G03*
X53915745Y-68904673I-1015512J2005989D01*
G01*
X155048988Y-59230274D02*
X154044187Y-62090343D01*
X165811850Y-69635551D02*
X166388274Y-71364822D01*
X154044234Y-62090359D02*
G75*
G03*
X155000000Y-64099999I1523066J-507741D01*
G01*
X46897247Y-79280544D02*
G75*
G03*
X51261762Y-76300172I1005513J3213434D01*
G01*
X176925280Y-138809746D02*
G75*
G03*
X184243488Y-80162059I-55068680J36652046D01*
G01*
X117066135Y-133590525D02*
G75*
G03*
X60040598Y-132281676I-30572975J-89107145D01*
G01*
X172639879Y-140900454D02*
G75*
G03*
X176925279Y-138809745I469021J4475954D01*
G01*
X168818396Y-73859942D02*
X183071438Y-79032734D01*
X155000000Y-64100000D02*
X163381129Y-67140213D01*
X43642380Y-80366799D02*
G75*
G03*
X57171987Y-131153053I164492030J16625869D01*
G01*
X172639880Y-140900447D02*
G75*
G03*
X126565959Y-135304430I-42639880J-158599553D01*
G01*
X57171987Y-131153052D02*
G75*
G03*
X60040598Y-132281673I2228013J1453052D01*
G01*
X117066135Y-133590525D02*
G75*
G03*
X126565959Y-135304430I14933865J55590625D01*
G01*
X153993773Y-57208242D02*
G75*
G03*
X53915746Y-68904673I-36238363J-123930548D01*
G01*
X43642379Y-80366799D02*
G75*
G03*
X46897245Y-79280552I1260151J1643659D01*
G01*
X51261762Y-76300167D02*
G75*
G03*
X53132094Y-72264995I-832942J2837117D01*
G01*
X166388264Y-71364825D02*
G75*
G03*
X168818396Y-73859942I3794736J1264925D01*
G01*
X165811862Y-69635547D02*
G75*
G03*
X163381129Y-67140214I-3794762J-1264953D01*
G01*
X184243488Y-80162059D02*
G75*
G03*
X183071438Y-79032734I-2043488J-947941D01*
G01*
M02*
