%TF.GenerationSoftware,KiCad,Pcbnew,8.0.1*%
%TF.CreationDate,2024-03-28T19:23:51+01:00*%
%TF.ProjectId,chew_v1,63686577-5f76-4312-9e6b-696361645f70,rev?*%
%TF.SameCoordinates,Original*%
%TF.FileFunction,Legend,Top*%
%TF.FilePolarity,Positive*%
%FSLAX46Y46*%
G04 Gerber Fmt 4.6, Leading zero omitted, Abs format (unit mm)*
G04 Created by KiCad (PCBNEW 8.0.1) date 2024-03-28 19:23:51*
%MOMM*%
%LPD*%
G01*
G04 APERTURE LIST*
%ADD10C,0.010000*%
%ADD11C,0.120000*%
%ADD12C,0.050000*%
%ADD13C,0.150000*%
%ADD14C,0.160000*%
%ADD15C,0.100000*%
%ADD16C,0.000000*%
G04 APERTURE END LIST*
D10*
X156533732Y-73907338D02*
X156445216Y-73868295D01*
X155440405Y-74561701D02*
X155448586Y-74613966D01*
X156218687Y-74911025D02*
X156259361Y-74892432D01*
D11*
X157207225Y-72900000D02*
X156457225Y-72600000D01*
X157100000Y-72200000D01*
X157207225Y-72900000D01*
G36*
X157207225Y-72900000D02*
G01*
X156457225Y-72600000D01*
X157100000Y-72200000D01*
X157207225Y-72900000D01*
G37*
D10*
X155992477Y-73652362D02*
X156071030Y-73695130D01*
X156039971Y-74584589D02*
X156060656Y-74565299D01*
D12*
X67883341Y-120621063D02*
G75*
G02*
X68030904Y-120604298I85759J-97037D01*
G01*
D10*
X155992477Y-73652362D02*
X156071030Y-73695130D01*
X156248827Y-73761377D01*
X156151089Y-73940900D01*
X156131460Y-73973876D01*
X156078456Y-74055609D01*
X156057420Y-74084893D01*
X156036385Y-74114177D01*
X156015000Y-74153454D01*
X155993724Y-74186267D01*
X155974093Y-74219241D01*
X155946807Y-74269363D01*
X155930963Y-74301094D01*
X155917409Y-74333870D01*
X155896693Y-74389469D01*
X155885303Y-74429097D01*
X155881020Y-74450006D01*
X155873215Y-74488710D01*
X155871120Y-74548673D01*
X155880068Y-74579004D01*
X155899358Y-74599689D01*
X155928989Y-74610732D01*
X155968967Y-74612128D01*
X156009290Y-74603529D01*
X156039971Y-74584589D01*
X156060656Y-74565299D01*
X156092384Y-74516377D01*
X156113767Y-74477099D01*
X156135499Y-74427828D01*
X156167924Y-74358917D01*
X156242766Y-74221444D01*
X156285184Y-74152884D01*
X156316912Y-74103961D01*
X156445216Y-73868295D01*
X156533732Y-73907338D01*
X156681928Y-73966615D01*
X156741362Y-73988199D01*
X156780821Y-74000088D01*
X156682089Y-74228526D01*
X156573797Y-74472974D01*
X156466446Y-74669037D01*
X156390976Y-74775760D01*
X156360256Y-74814354D01*
X156325882Y-74849737D01*
X156259361Y-74892432D01*
X156218687Y-74911025D01*
X156168020Y-74929267D01*
X156117240Y-74942574D01*
X156056708Y-74951643D01*
X155995523Y-74953262D01*
X155907130Y-74950175D01*
X155859213Y-74939474D01*
X155807890Y-74926699D01*
X155660074Y-74861499D01*
X155611154Y-74829772D01*
X155572223Y-74798394D01*
X155485421Y-74705309D01*
X155466478Y-74674631D01*
X155448586Y-74613966D01*
X155440405Y-74561701D01*
X155441731Y-74523672D01*
X155449076Y-74484840D01*
X155453819Y-74464059D01*
X155465209Y-74424432D01*
X155476252Y-74394800D01*
X155487641Y-74355173D01*
X155509723Y-74295909D01*
X155533158Y-74237252D01*
X155550242Y-74202774D01*
X155702875Y-73922421D01*
X155830130Y-73716736D01*
X155904275Y-73599253D01*
X155992477Y-73652362D01*
G36*
X155992477Y-73652362D02*
G01*
X156071030Y-73695130D01*
X156248827Y-73761377D01*
X156151089Y-73940900D01*
X156131460Y-73973876D01*
X156078456Y-74055609D01*
X156057420Y-74084893D01*
X156036385Y-74114177D01*
X156015000Y-74153454D01*
X155993724Y-74186267D01*
X155974093Y-74219241D01*
X155946807Y-74269363D01*
X155930963Y-74301094D01*
X155917409Y-74333870D01*
X155896693Y-74389469D01*
X155885303Y-74429097D01*
X155881020Y-74450006D01*
X155873215Y-74488710D01*
X155871120Y-74548673D01*
X155880068Y-74579004D01*
X155899358Y-74599689D01*
X155928989Y-74610732D01*
X155968967Y-74612128D01*
X156009290Y-74603529D01*
X156039971Y-74584589D01*
X156060656Y-74565299D01*
X156092384Y-74516377D01*
X156113767Y-74477099D01*
X156135499Y-74427828D01*
X156167924Y-74358917D01*
X156242766Y-74221444D01*
X156285184Y-74152884D01*
X156316912Y-74103961D01*
X156445216Y-73868295D01*
X156533732Y-73907338D01*
X156681928Y-73966615D01*
X156741362Y-73988199D01*
X156780821Y-74000088D01*
X156682089Y-74228526D01*
X156573797Y-74472974D01*
X156466446Y-74669037D01*
X156390976Y-74775760D01*
X156360256Y-74814354D01*
X156325882Y-74849737D01*
X156259361Y-74892432D01*
X156218687Y-74911025D01*
X156168020Y-74929267D01*
X156117240Y-74942574D01*
X156056708Y-74951643D01*
X155995523Y-74953262D01*
X155907130Y-74950175D01*
X155859213Y-74939474D01*
X155807890Y-74926699D01*
X155660074Y-74861499D01*
X155611154Y-74829772D01*
X155572223Y-74798394D01*
X155485421Y-74705309D01*
X155466478Y-74674631D01*
X155448586Y-74613966D01*
X155440405Y-74561701D01*
X155441731Y-74523672D01*
X155449076Y-74484840D01*
X155453819Y-74464059D01*
X155465209Y-74424432D01*
X155476252Y-74394800D01*
X155487641Y-74355173D01*
X155509723Y-74295909D01*
X155533158Y-74237252D01*
X155550242Y-74202774D01*
X155702875Y-73922421D01*
X155830130Y-73716736D01*
X155904275Y-73599253D01*
X155992477Y-73652362D01*
G37*
X155448586Y-74613966D02*
X155457532Y-74644299D01*
X156327604Y-74084322D02*
X156445216Y-73868295D01*
X156117240Y-74942573D02*
G75*
G02*
X155995523Y-74953264I-104440J490873D01*
G01*
X156683594Y-74225082D02*
X156780821Y-74000088D01*
X156482151Y-74642213D02*
X156564241Y-74491429D01*
X155953394Y-74951791D02*
G75*
G02*
X155769055Y-74909582I17506J500091D01*
G01*
D12*
X67110000Y-122960000D02*
G75*
G02*
X67202403Y-123076256I-36800J-124100D01*
G01*
D10*
X155685548Y-73954249D02*
G75*
G02*
X155699483Y-73930261I435152J-236751D01*
G01*
X155457532Y-74644299D02*
X155466478Y-74674631D01*
D12*
X66037797Y-123474152D02*
G75*
G02*
X66108629Y-123604691I-57797J-115848D01*
G01*
D10*
X155904275Y-73599253D02*
X155992477Y-73652362D01*
D12*
X67730000Y-121810000D02*
G75*
G02*
X67876054Y-121837074I53700J-117800D01*
G01*
D10*
X155685548Y-73954249D02*
X155550242Y-74202774D01*
X156167924Y-74358917D02*
X156232076Y-74241083D01*
D11*
X157400000Y-70950000D02*
G75*
G02*
X156400000Y-70950000I-500000J0D01*
G01*
X156400000Y-70950000D02*
G75*
G02*
X157400000Y-70950000I500000J0D01*
G01*
D10*
X156763241Y-73995035D02*
G75*
G02*
X156719822Y-73980367I139059J483235D01*
G01*
D11*
X158650000Y-71400000D02*
G75*
G02*
X157650000Y-71400000I-500000J0D01*
G01*
X157650000Y-71400000D02*
G75*
G02*
X158650000Y-71400000I500000J0D01*
G01*
D10*
X156092384Y-74516377D02*
X156060656Y-74565299D01*
X155466478Y-74674631D02*
X155485421Y-74705309D01*
X155440405Y-74561701D02*
G75*
G02*
X155469504Y-74410239I499295J-17399D01*
G01*
X156117240Y-74942574D02*
X156168020Y-74929267D01*
X156113767Y-74477099D02*
X156092384Y-74516377D01*
D12*
X64860000Y-124000000D02*
G75*
G02*
X64941885Y-124123867I-47500J-120400D01*
G01*
D10*
X155704704Y-74881183D02*
G75*
G02*
X155540829Y-74764689I201796J457383D01*
G01*
D12*
X64083745Y-128022425D02*
G75*
G02*
X64199997Y-127929954I124155J-36775D01*
G01*
D10*
X155902940Y-74372701D02*
X155917409Y-74333870D01*
X156390975Y-74775760D02*
G75*
G02*
X156325883Y-74849738I-405375J291060D01*
G01*
D12*
X63452148Y-125831339D02*
G75*
G02*
X63594536Y-125873562I41052J-122761D01*
G01*
D10*
X156151089Y-73940900D02*
X156248827Y-73761377D01*
X155871120Y-74548673D02*
X155871780Y-74529823D01*
X155485421Y-74705309D02*
X155540810Y-74764707D01*
X155993724Y-74186267D02*
X156131460Y-73973876D01*
X156071030Y-73695130D02*
X156159930Y-73728254D01*
X155871120Y-74548673D02*
X155880068Y-74579004D01*
X155968967Y-74612128D02*
X156009290Y-74603529D01*
X155974093Y-74219241D02*
G75*
G02*
X155993725Y-74186267I438707J-238859D01*
G01*
D12*
X67683058Y-119554189D02*
G75*
G02*
X67827482Y-119519556I96942J-85811D01*
G01*
D10*
X155880068Y-74579004D02*
X155899358Y-74599689D01*
X155917409Y-74333870D02*
G75*
G02*
X155946803Y-74269361I468291J-174430D01*
G01*
X156151089Y-73940900D02*
G75*
G02*
X156131460Y-73973876I-436189J237300D01*
G01*
X156719821Y-73980369D02*
X156553969Y-73915740D01*
D12*
X67353107Y-118311914D02*
G75*
G02*
X67500003Y-118289994I89093J-93886D01*
G01*
D10*
X156390976Y-74775760D02*
X156449105Y-74694836D01*
X155704704Y-74881184D02*
X155769061Y-74909568D01*
X155904275Y-73599253D02*
X155699482Y-73930260D01*
X155946807Y-74269363D02*
X155974093Y-74219241D01*
X156168020Y-74929267D02*
X156218687Y-74911025D01*
D12*
X67420000Y-117300000D02*
G75*
G02*
X67559959Y-117349636I32500J-130500D01*
G01*
D10*
X156582577Y-74454137D02*
G75*
G02*
X156564244Y-74491431I-457877J201937D01*
G01*
X156482150Y-74642213D02*
G75*
G02*
X156449106Y-74694837I-438750J238813D01*
G01*
D12*
X67930000Y-116480001D02*
G75*
G02*
X68059279Y-116553152I9400J-134199D01*
G01*
X63976385Y-124814631D02*
G75*
G02*
X64095813Y-124902984I-3385J-129469D01*
G01*
X63443107Y-126871914D02*
G75*
G02*
X63590003Y-126849994I89093J-93886D01*
G01*
D10*
X155928989Y-74610732D02*
X155968967Y-74612128D01*
D11*
X158220711Y-71400000D02*
G75*
G02*
X158079289Y-71400000I-70711J0D01*
G01*
X158079289Y-71400000D02*
G75*
G02*
X158220711Y-71400000I70711J0D01*
G01*
D10*
X155871781Y-74529823D02*
G75*
G02*
X155902929Y-74372697I498019J-17077D01*
G01*
X156683594Y-74225082D02*
G75*
G02*
X156682089Y-74228526I-601994J260982D01*
G01*
X156582578Y-74454137D02*
X156682089Y-74228526D01*
X155518778Y-74272936D02*
X155469497Y-74410236D01*
X156159930Y-73728254D02*
X156248827Y-73761377D01*
D11*
X156970711Y-70950000D02*
G75*
G02*
X156829289Y-70950000I-70711J0D01*
G01*
X156829289Y-70950000D02*
G75*
G02*
X156970711Y-70950000I70711J0D01*
G01*
D10*
X155899358Y-74599689D02*
X155928989Y-74610732D01*
X156009290Y-74603529D02*
X156039971Y-74584589D01*
X156167924Y-74358917D02*
X156135499Y-74427828D01*
X156232076Y-74241083D02*
X156327604Y-74084322D01*
X155953394Y-74951791D02*
X155995523Y-74953262D01*
X156780821Y-74000088D02*
X156763241Y-73995035D01*
X156135499Y-74427828D02*
X156113767Y-74477099D01*
X155518778Y-74272936D02*
G75*
G02*
X155550236Y-74202771I471522J-169264D01*
G01*
X156553969Y-73915740D02*
G75*
G02*
X156533733Y-73907335I183231J469740D01*
G01*
X156259361Y-74892432D02*
X156325882Y-74849737D01*
D13*
X57042865Y-81916659D02*
X56947264Y-82001434D01*
X56947264Y-82001434D02*
X56726481Y-82060593D01*
X56726481Y-82060593D02*
X56601299Y-82034976D01*
X56601299Y-82034976D02*
X56531314Y-81994570D01*
X56531314Y-81994570D02*
X56446539Y-81898968D01*
X56446539Y-81898968D02*
X56357801Y-81567794D01*
X56357801Y-81567794D02*
X56383417Y-81442612D01*
X56383417Y-81442612D02*
X56423823Y-81372627D01*
X56423823Y-81372627D02*
X56519425Y-81287852D01*
X56519425Y-81287852D02*
X56740208Y-81228693D01*
X56740208Y-81228693D02*
X56865390Y-81254310D01*
X57554417Y-81838748D02*
X57243834Y-80679637D01*
X58051178Y-81705641D02*
X57888492Y-81098487D01*
X57888492Y-81098487D02*
X57803717Y-81002886D01*
X57803717Y-81002886D02*
X57678536Y-80977269D01*
X57678536Y-80977269D02*
X57512949Y-81021638D01*
X57512949Y-81021638D02*
X57417347Y-81106413D01*
X57417347Y-81106413D02*
X57376941Y-81176399D01*
X59029912Y-81384231D02*
X58934310Y-81469006D01*
X58934310Y-81469006D02*
X58713527Y-81528165D01*
X58713527Y-81528165D02*
X58588346Y-81502549D01*
X58588346Y-81502549D02*
X58503571Y-81406947D01*
X58503571Y-81406947D02*
X58385254Y-80965381D01*
X58385254Y-80965381D02*
X58410870Y-80840199D01*
X58410870Y-80840199D02*
X58506472Y-80755424D01*
X58506472Y-80755424D02*
X58727255Y-80696266D01*
X58727255Y-80696266D02*
X58852436Y-80721882D01*
X58852436Y-80721882D02*
X58937211Y-80817484D01*
X58937211Y-80817484D02*
X58966791Y-80927875D01*
X58966791Y-80927875D02*
X58444412Y-81186164D01*
X59279212Y-80548369D02*
X59707051Y-81261951D01*
X59707051Y-81261951D02*
X59779937Y-80650835D01*
X59779937Y-80650835D02*
X60148617Y-81143634D01*
X60148617Y-81143634D02*
X60162344Y-80311735D01*
X57047043Y-83146561D02*
X57530078Y-83845354D01*
X57530078Y-83845354D02*
X57599001Y-82998665D01*
X58157823Y-82434818D02*
X58268214Y-82405239D01*
X58268214Y-82405239D02*
X58393396Y-82430855D01*
X58393396Y-82430855D02*
X58463381Y-82471262D01*
X58463381Y-82471262D02*
X58548156Y-82566863D01*
X58548156Y-82566863D02*
X58662511Y-82772857D01*
X58662511Y-82772857D02*
X58736459Y-83048836D01*
X58736459Y-83048836D02*
X58740422Y-83284408D01*
X58740422Y-83284408D02*
X58714805Y-83409589D01*
X58714805Y-83409589D02*
X58674399Y-83479575D01*
X58674399Y-83479575D02*
X58578797Y-83564350D01*
X58578797Y-83564350D02*
X58468406Y-83593929D01*
X58468406Y-83593929D02*
X58343225Y-83568313D01*
X58343225Y-83568313D02*
X58273239Y-83527907D01*
X58273239Y-83527907D02*
X58188464Y-83432305D01*
X58188464Y-83432305D02*
X58074110Y-83226312D01*
X58074110Y-83226312D02*
X58000161Y-82950333D01*
X58000161Y-82950333D02*
X57996198Y-82714760D01*
X57996198Y-82714760D02*
X58021815Y-82589579D01*
X58021815Y-82589579D02*
X58062221Y-82519593D01*
X58062221Y-82519593D02*
X58157823Y-82434818D01*
X59321958Y-83246903D02*
X59391944Y-83287309D01*
X59391944Y-83287309D02*
X59351538Y-83357295D01*
X59351538Y-83357295D02*
X59281552Y-83316889D01*
X59281552Y-83316889D02*
X59321958Y-83246903D01*
X59321958Y-83246903D02*
X59351538Y-83357295D01*
X60510649Y-83046712D02*
X59848300Y-83224188D01*
X60179475Y-83135450D02*
X59868892Y-81976339D01*
X59868892Y-81976339D02*
X59802869Y-82171505D01*
X59802869Y-82171505D02*
X59722057Y-82311476D01*
X59722057Y-82311476D02*
X59626455Y-82396251D01*
D14*
X158580764Y-122094089D02*
X158645296Y-121974913D01*
X158645296Y-121974913D02*
X158682506Y-121763883D01*
X158682506Y-121763883D02*
X158655184Y-121672028D01*
X158655184Y-121672028D02*
X158620420Y-121622380D01*
X158620420Y-121622380D02*
X158543450Y-121565290D01*
X158543450Y-121565290D02*
X158459038Y-121550406D01*
X158459038Y-121550406D02*
X158367184Y-121577728D01*
X158367184Y-121577728D02*
X158317536Y-121612492D01*
X158317536Y-121612492D02*
X158260446Y-121689462D01*
X158260446Y-121689462D02*
X158188471Y-121850844D01*
X158188471Y-121850844D02*
X158131381Y-121927814D01*
X158131381Y-121927814D02*
X158081733Y-121962578D01*
X158081733Y-121962578D02*
X157989879Y-121989900D01*
X157989879Y-121989900D02*
X157905467Y-121975016D01*
X157905467Y-121975016D02*
X157828497Y-121917926D01*
X157828497Y-121917926D02*
X157793733Y-121868278D01*
X157793733Y-121868278D02*
X157766411Y-121776423D01*
X157766411Y-121776423D02*
X157803621Y-121565393D01*
X157803621Y-121565393D02*
X157868154Y-121446217D01*
X157878042Y-121143333D02*
X158801579Y-121088586D01*
X158801579Y-121088586D02*
X158198257Y-120808131D01*
X158198257Y-120808131D02*
X158861116Y-120750937D01*
X158861116Y-120750937D02*
X158011999Y-120383624D01*
X159039725Y-119737993D02*
X158950421Y-120244465D01*
X158995073Y-119991229D02*
X158108746Y-119834946D01*
X158108746Y-119834946D02*
X158220480Y-119941684D01*
X158220480Y-119941684D02*
X158290008Y-120040980D01*
X158290008Y-120040980D02*
X158317330Y-120132834D01*
X158287356Y-118822000D02*
X158257587Y-118990824D01*
X158257587Y-118990824D02*
X158284909Y-119082679D01*
X158284909Y-119082679D02*
X158319673Y-119132327D01*
X158319673Y-119132327D02*
X158431407Y-119239065D01*
X158431407Y-119239065D02*
X158592789Y-119311039D01*
X158592789Y-119311039D02*
X158930438Y-119370576D01*
X158930438Y-119370576D02*
X159022292Y-119343254D01*
X159022292Y-119343254D02*
X159071940Y-119308490D01*
X159071940Y-119308490D02*
X159129030Y-119231520D01*
X159129030Y-119231520D02*
X159158798Y-119062696D01*
X159158798Y-119062696D02*
X159131476Y-118970842D01*
X159131476Y-118970842D02*
X159096712Y-118921193D01*
X159096712Y-118921193D02*
X159019742Y-118864103D01*
X159019742Y-118864103D02*
X158808712Y-118826893D01*
X158808712Y-118826893D02*
X158716858Y-118854215D01*
X158716858Y-118854215D02*
X158667210Y-118888979D01*
X158667210Y-118888979D02*
X158610120Y-118965949D01*
X158610120Y-118965949D02*
X158580352Y-119134773D01*
X158580352Y-119134773D02*
X158607673Y-119226627D01*
X158607673Y-119226627D02*
X158642437Y-119276275D01*
X158642437Y-119276275D02*
X158719407Y-119333366D01*
D13*
X166977846Y-86322530D02*
X166937179Y-86267188D01*
X166937179Y-86267188D02*
X166856633Y-86237872D01*
X166856633Y-86237872D02*
X166763059Y-86244354D01*
X166763059Y-86244354D02*
X166683304Y-86296405D01*
X166683304Y-86296405D02*
X166630397Y-86358229D01*
X166630397Y-86358229D02*
X166551431Y-86491648D01*
X166551431Y-86491648D02*
X166512343Y-86599041D01*
X166512343Y-86599041D02*
X166487074Y-86752005D01*
X166487074Y-86752005D02*
X166487864Y-86833372D01*
X166487864Y-86833372D02*
X166515502Y-86924512D01*
X166515502Y-86924512D02*
X166583017Y-86989626D01*
X166583017Y-86989626D02*
X166636714Y-87009170D01*
X166636714Y-87009170D02*
X166730288Y-87002688D01*
X166730288Y-87002688D02*
X166770166Y-86976662D01*
X166770166Y-86976662D02*
X166861372Y-86726078D01*
X166861372Y-86726078D02*
X166753978Y-86686990D01*
X166985743Y-87136206D02*
X167259359Y-86384452D01*
X167259359Y-86384452D02*
X167307923Y-87253470D01*
X167307923Y-87253470D02*
X167581539Y-86501716D01*
X167576406Y-87351190D02*
X167850022Y-86599436D01*
X167850022Y-86599436D02*
X167984264Y-86648296D01*
X167984264Y-86648296D02*
X168051780Y-86713410D01*
X168051780Y-86713410D02*
X168079418Y-86804549D01*
X168079418Y-86804549D02*
X168080208Y-86885917D01*
X168080208Y-86885917D02*
X168054939Y-87038880D01*
X168054939Y-87038880D02*
X168015851Y-87146274D01*
X168015851Y-87146274D02*
X167936885Y-87279693D01*
X167936885Y-87279693D02*
X167883978Y-87341516D01*
X167883978Y-87341516D02*
X167804222Y-87393568D01*
X167804222Y-87393568D02*
X167710648Y-87400050D01*
X167710648Y-87400050D02*
X167576406Y-87351190D01*
X167072409Y-102136678D02*
X167121237Y-102113909D01*
X167121237Y-102113909D02*
X167205862Y-102104170D01*
X167205862Y-102104170D02*
X167384851Y-102169317D01*
X167384851Y-102169317D02*
X167443417Y-102231173D01*
X167443417Y-102231173D02*
X167466185Y-102280000D01*
X167466185Y-102280000D02*
X167475925Y-102364625D01*
X167475925Y-102364625D02*
X167449866Y-102436221D01*
X167449866Y-102436221D02*
X167374980Y-102530585D01*
X167374980Y-102530585D02*
X166789054Y-102803807D01*
X166789054Y-102803807D02*
X167254426Y-102973188D01*
X167993414Y-102390816D02*
X168065009Y-102416874D01*
X168065009Y-102416874D02*
X168123576Y-102478731D01*
X168123576Y-102478731D02*
X168146344Y-102527558D01*
X168146344Y-102527558D02*
X168156083Y-102612183D01*
X168156083Y-102612183D02*
X168139764Y-102768403D01*
X168139764Y-102768403D02*
X168074617Y-102947393D01*
X168074617Y-102947393D02*
X167986702Y-103077554D01*
X167986702Y-103077554D02*
X167924845Y-103136121D01*
X167924845Y-103136121D02*
X167876018Y-103158889D01*
X167876018Y-103158889D02*
X167791393Y-103168628D01*
X167791393Y-103168628D02*
X167719798Y-103142570D01*
X167719798Y-103142570D02*
X167661231Y-103080713D01*
X167661231Y-103080713D02*
X167638463Y-103031886D01*
X167638463Y-103031886D02*
X167628724Y-102947261D01*
X167628724Y-102947261D02*
X167645043Y-102791041D01*
X167645043Y-102791041D02*
X167710190Y-102612051D01*
X167710190Y-102612051D02*
X167798105Y-102481890D01*
X167798105Y-102481890D02*
X167859962Y-102423323D01*
X167859962Y-102423323D02*
X167908789Y-102400555D01*
X167908789Y-102400555D02*
X167993414Y-102390816D01*
X165243437Y-91059932D02*
X165708809Y-91229314D01*
X165708809Y-91229314D02*
X165353989Y-91424491D01*
X165353989Y-91424491D02*
X165461383Y-91463579D01*
X165461383Y-91463579D02*
X165519949Y-91525435D01*
X165519949Y-91525435D02*
X165542717Y-91574263D01*
X165542717Y-91574263D02*
X165552457Y-91658887D01*
X165552457Y-91658887D02*
X165487310Y-91837877D01*
X165487310Y-91837877D02*
X165425453Y-91896443D01*
X165425453Y-91896443D02*
X165376626Y-91919211D01*
X165376626Y-91919211D02*
X165292001Y-91928950D01*
X165292001Y-91928950D02*
X165077214Y-91850774D01*
X165077214Y-91850774D02*
X165018648Y-91788918D01*
X165018648Y-91788918D02*
X164995880Y-91740091D01*
X166122933Y-88754918D02*
X166171760Y-88732150D01*
X166171760Y-88732150D02*
X166256385Y-88722411D01*
X166256385Y-88722411D02*
X166435374Y-88787557D01*
X166435374Y-88787557D02*
X166493941Y-88849414D01*
X166493941Y-88849414D02*
X166516709Y-88898241D01*
X166516709Y-88898241D02*
X166526448Y-88982866D01*
X166526448Y-88982866D02*
X166500390Y-89054462D01*
X166500390Y-89054462D02*
X166425504Y-89148826D01*
X166425504Y-89148826D02*
X165839578Y-89422047D01*
X165839578Y-89422047D02*
X166304949Y-89591429D01*
X173990542Y-82990040D02*
X173949875Y-82934698D01*
X173949875Y-82934698D02*
X173869329Y-82905382D01*
X173869329Y-82905382D02*
X173775755Y-82911864D01*
X173775755Y-82911864D02*
X173696000Y-82963915D01*
X173696000Y-82963915D02*
X173643093Y-83025739D01*
X173643093Y-83025739D02*
X173564127Y-83159158D01*
X173564127Y-83159158D02*
X173525039Y-83266551D01*
X173525039Y-83266551D02*
X173499770Y-83419515D01*
X173499770Y-83419515D02*
X173500560Y-83500882D01*
X173500560Y-83500882D02*
X173528198Y-83592022D01*
X173528198Y-83592022D02*
X173595713Y-83657136D01*
X173595713Y-83657136D02*
X173649410Y-83676680D01*
X173649410Y-83676680D02*
X173742984Y-83670198D01*
X173742984Y-83670198D02*
X173782862Y-83644172D01*
X173782862Y-83644172D02*
X173874068Y-83393588D01*
X173874068Y-83393588D02*
X173766674Y-83354500D01*
X173998439Y-83803716D02*
X174272055Y-83051962D01*
X174272055Y-83051962D02*
X174320619Y-83920980D01*
X174320619Y-83920980D02*
X174594235Y-83169226D01*
X174589102Y-84018700D02*
X174862718Y-83266946D01*
X174862718Y-83266946D02*
X174996960Y-83315806D01*
X174996960Y-83315806D02*
X175064476Y-83380920D01*
X175064476Y-83380920D02*
X175092114Y-83472059D01*
X175092114Y-83472059D02*
X175092904Y-83553427D01*
X175092904Y-83553427D02*
X175067635Y-83706390D01*
X175067635Y-83706390D02*
X175028547Y-83813784D01*
X175028547Y-83813784D02*
X174949581Y-83947203D01*
X174949581Y-83947203D02*
X174896674Y-84009026D01*
X174896674Y-84009026D02*
X174816918Y-84061078D01*
X174816918Y-84061078D02*
X174723344Y-84067560D01*
X174723344Y-84067560D02*
X174589102Y-84018700D01*
X160962532Y-103378536D02*
X160903966Y-103316680D01*
X160903966Y-103316680D02*
X160881197Y-103267853D01*
X160881197Y-103267853D02*
X160871458Y-103183228D01*
X160871458Y-103183228D02*
X160884487Y-103147430D01*
X160884487Y-103147430D02*
X160946344Y-103088864D01*
X160946344Y-103088864D02*
X160995171Y-103066095D01*
X160995171Y-103066095D02*
X161079796Y-103056356D01*
X161079796Y-103056356D02*
X161222987Y-103108473D01*
X161222987Y-103108473D02*
X161281554Y-103170330D01*
X161281554Y-103170330D02*
X161304322Y-103219157D01*
X161304322Y-103219157D02*
X161314061Y-103303782D01*
X161314061Y-103303782D02*
X161301032Y-103339580D01*
X161301032Y-103339580D02*
X161239175Y-103398146D01*
X161239175Y-103398146D02*
X161190348Y-103420915D01*
X161190348Y-103420915D02*
X161105723Y-103430654D01*
X161105723Y-103430654D02*
X160962532Y-103378536D01*
X160962532Y-103378536D02*
X160877907Y-103388275D01*
X160877907Y-103388275D02*
X160829080Y-103411044D01*
X160829080Y-103411044D02*
X160767223Y-103469610D01*
X160767223Y-103469610D02*
X160715106Y-103612802D01*
X160715106Y-103612802D02*
X160724845Y-103697426D01*
X160724845Y-103697426D02*
X160747614Y-103746254D01*
X160747614Y-103746254D02*
X160806180Y-103808110D01*
X160806180Y-103808110D02*
X160949371Y-103860227D01*
X160949371Y-103860227D02*
X161033996Y-103850488D01*
X161033996Y-103850488D02*
X161082823Y-103827720D01*
X161082823Y-103827720D02*
X161144680Y-103769154D01*
X161144680Y-103769154D02*
X161196797Y-103625962D01*
X161196797Y-103625962D02*
X161187058Y-103541337D01*
X161187058Y-103541337D02*
X161164290Y-103492510D01*
X161164290Y-103492510D02*
X161105723Y-103430654D01*
X164678303Y-93837840D02*
X164495892Y-94339009D01*
X164603548Y-93486311D02*
X164229119Y-93958131D01*
X164229119Y-93958131D02*
X164694491Y-94127512D01*
X170546308Y-92592220D02*
X170595136Y-92569451D01*
X170595136Y-92569451D02*
X170679761Y-92559712D01*
X170679761Y-92559712D02*
X170858750Y-92624859D01*
X170858750Y-92624859D02*
X170917316Y-92686715D01*
X170917316Y-92686715D02*
X170940084Y-92735542D01*
X170940084Y-92735542D02*
X170949824Y-92820167D01*
X170949824Y-92820167D02*
X170923765Y-92891763D01*
X170923765Y-92891763D02*
X170848879Y-92986127D01*
X170848879Y-92986127D02*
X170262953Y-93259349D01*
X170262953Y-93259349D02*
X170728325Y-93428730D01*
X171314251Y-93155509D02*
X171255685Y-93093652D01*
X171255685Y-93093652D02*
X171232916Y-93044825D01*
X171232916Y-93044825D02*
X171223177Y-92960200D01*
X171223177Y-92960200D02*
X171236206Y-92924402D01*
X171236206Y-92924402D02*
X171298063Y-92865836D01*
X171298063Y-92865836D02*
X171346890Y-92843067D01*
X171346890Y-92843067D02*
X171431515Y-92833328D01*
X171431515Y-92833328D02*
X171574706Y-92885446D01*
X171574706Y-92885446D02*
X171633272Y-92947302D01*
X171633272Y-92947302D02*
X171656041Y-92996129D01*
X171656041Y-92996129D02*
X171665780Y-93080754D01*
X171665780Y-93080754D02*
X171652751Y-93116552D01*
X171652751Y-93116552D02*
X171590894Y-93175118D01*
X171590894Y-93175118D02*
X171542067Y-93197887D01*
X171542067Y-93197887D02*
X171457442Y-93207626D01*
X171457442Y-93207626D02*
X171314251Y-93155509D01*
X171314251Y-93155509D02*
X171229626Y-93165248D01*
X171229626Y-93165248D02*
X171180799Y-93188016D01*
X171180799Y-93188016D02*
X171118942Y-93246583D01*
X171118942Y-93246583D02*
X171066825Y-93389774D01*
X171066825Y-93389774D02*
X171076564Y-93474399D01*
X171076564Y-93474399D02*
X171099332Y-93523226D01*
X171099332Y-93523226D02*
X171157899Y-93585082D01*
X171157899Y-93585082D02*
X171301090Y-93637200D01*
X171301090Y-93637200D02*
X171385715Y-93627461D01*
X171385715Y-93627461D02*
X171434542Y-93604692D01*
X171434542Y-93604692D02*
X171496399Y-93546126D01*
X171496399Y-93546126D02*
X171548516Y-93402935D01*
X171548516Y-93402935D02*
X171538777Y-93318310D01*
X171538777Y-93318310D02*
X171516008Y-93269482D01*
X171516008Y-93269482D02*
X171457442Y-93207626D01*
X174638959Y-81333836D02*
X174581314Y-80907453D01*
X174316779Y-81216572D02*
X174590395Y-80464817D01*
X174590395Y-80464817D02*
X174805182Y-80542993D01*
X174805182Y-80542993D02*
X174845849Y-80598335D01*
X174845849Y-80598335D02*
X174859668Y-80643905D01*
X174859668Y-80643905D02*
X174860458Y-80725273D01*
X174860458Y-80725273D02*
X174821370Y-80832666D01*
X174821370Y-80832666D02*
X174768463Y-80894490D01*
X174768463Y-80894490D02*
X174728585Y-80920516D01*
X174728585Y-80920516D02*
X174661859Y-80936769D01*
X174661859Y-80936769D02*
X174447072Y-80858593D01*
X174931922Y-81197225D02*
X175200406Y-81294945D01*
X174800049Y-81392468D02*
X175261604Y-80709118D01*
X175261604Y-80709118D02*
X175175926Y-81529276D01*
X175583784Y-80826382D02*
X175444410Y-81626996D01*
X175444410Y-81626996D02*
X175747244Y-81129117D01*
X175747244Y-81129117D02*
X175659197Y-81705172D01*
X175659197Y-81705172D02*
X176067055Y-81002278D01*
X167846577Y-83935711D02*
X167805910Y-83880369D01*
X167805910Y-83880369D02*
X167725364Y-83851053D01*
X167725364Y-83851053D02*
X167631790Y-83857535D01*
X167631790Y-83857535D02*
X167552035Y-83909586D01*
X167552035Y-83909586D02*
X167499128Y-83971410D01*
X167499128Y-83971410D02*
X167420162Y-84104829D01*
X167420162Y-84104829D02*
X167381074Y-84212222D01*
X167381074Y-84212222D02*
X167355805Y-84365186D01*
X167355805Y-84365186D02*
X167356595Y-84446553D01*
X167356595Y-84446553D02*
X167384233Y-84537693D01*
X167384233Y-84537693D02*
X167451748Y-84602807D01*
X167451748Y-84602807D02*
X167505445Y-84622351D01*
X167505445Y-84622351D02*
X167599019Y-84615869D01*
X167599019Y-84615869D02*
X167638897Y-84589843D01*
X167638897Y-84589843D02*
X167730103Y-84339259D01*
X167730103Y-84339259D02*
X167622709Y-84300171D01*
X167854474Y-84749387D02*
X168128090Y-83997633D01*
X168128090Y-83997633D02*
X168176654Y-84866651D01*
X168176654Y-84866651D02*
X168450270Y-84114897D01*
X168445137Y-84964371D02*
X168718753Y-84212617D01*
X168718753Y-84212617D02*
X168852995Y-84261477D01*
X168852995Y-84261477D02*
X168920511Y-84326591D01*
X168920511Y-84326591D02*
X168948149Y-84417730D01*
X168948149Y-84417730D02*
X168948939Y-84499098D01*
X168948939Y-84499098D02*
X168923670Y-84652061D01*
X168923670Y-84652061D02*
X168884582Y-84759455D01*
X168884582Y-84759455D02*
X168805616Y-84892874D01*
X168805616Y-84892874D02*
X168752709Y-84954697D01*
X168752709Y-84954697D02*
X168672953Y-85006749D01*
X168672953Y-85006749D02*
X168579379Y-85013231D01*
X168579379Y-85013231D02*
X168445137Y-84964371D01*
X165334947Y-106910315D02*
X165383775Y-106887546D01*
X165383775Y-106887546D02*
X165468400Y-106877807D01*
X165468400Y-106877807D02*
X165647389Y-106942954D01*
X165647389Y-106942954D02*
X165705955Y-107004810D01*
X165705955Y-107004810D02*
X165728723Y-107053637D01*
X165728723Y-107053637D02*
X165738463Y-107138262D01*
X165738463Y-107138262D02*
X165712404Y-107209858D01*
X165712404Y-107209858D02*
X165637518Y-107304222D01*
X165637518Y-107304222D02*
X165051592Y-107577444D01*
X165051592Y-107577444D02*
X165516964Y-107746825D01*
X166232920Y-108007412D02*
X165803346Y-107851060D01*
X166018133Y-107929236D02*
X166291749Y-107177482D01*
X166291749Y-107177482D02*
X166181066Y-107258817D01*
X166181066Y-107258817D02*
X166083412Y-107304354D01*
X166083412Y-107304354D02*
X165998787Y-107314093D01*
X171943926Y-87610615D02*
X171858249Y-88430774D01*
X171858249Y-88430774D02*
X172319803Y-87747423D01*
X172582365Y-88613250D02*
X172542487Y-88639276D01*
X172542487Y-88639276D02*
X172448913Y-88645758D01*
X172448913Y-88645758D02*
X172395216Y-88626214D01*
X172395216Y-88626214D02*
X172327700Y-88561100D01*
X172327700Y-88561100D02*
X172300062Y-88469960D01*
X172300062Y-88469960D02*
X172299273Y-88388593D01*
X172299273Y-88388593D02*
X172324542Y-88235629D01*
X172324542Y-88235629D02*
X172363630Y-88128236D01*
X172363630Y-88128236D02*
X172442595Y-87994817D01*
X172442595Y-87994817D02*
X172495502Y-87932993D01*
X172495502Y-87932993D02*
X172575258Y-87880941D01*
X172575258Y-87880941D02*
X172668832Y-87874460D01*
X172668832Y-87874460D02*
X172722529Y-87894004D01*
X172722529Y-87894004D02*
X172790045Y-87959117D01*
X172790045Y-87959117D02*
X172803864Y-88004687D01*
X173146180Y-88818462D02*
X173106303Y-88844488D01*
X173106303Y-88844488D02*
X173012728Y-88850970D01*
X173012728Y-88850970D02*
X172959032Y-88831426D01*
X172959032Y-88831426D02*
X172891516Y-88766312D01*
X172891516Y-88766312D02*
X172863878Y-88675172D01*
X172863878Y-88675172D02*
X172863088Y-88593805D01*
X172863088Y-88593805D02*
X172888357Y-88440841D01*
X172888357Y-88440841D02*
X172927445Y-88333448D01*
X172927445Y-88333448D02*
X173006411Y-88200029D01*
X173006411Y-88200029D02*
X173059318Y-88138205D01*
X173059318Y-88138205D02*
X173139073Y-88086153D01*
X173139073Y-88086153D02*
X173232648Y-88079672D01*
X173232648Y-88079672D02*
X173286344Y-88099216D01*
X173286344Y-88099216D02*
X173353860Y-88164330D01*
X173353860Y-88164330D02*
X173367679Y-88209899D01*
X171416065Y-90202582D02*
X171464893Y-90179813D01*
X171464893Y-90179813D02*
X171549518Y-90170074D01*
X171549518Y-90170074D02*
X171728507Y-90235221D01*
X171728507Y-90235221D02*
X171787073Y-90297077D01*
X171787073Y-90297077D02*
X171809841Y-90345904D01*
X171809841Y-90345904D02*
X171819581Y-90430529D01*
X171819581Y-90430529D02*
X171793522Y-90502125D01*
X171793522Y-90502125D02*
X171718636Y-90596489D01*
X171718636Y-90596489D02*
X171132710Y-90869711D01*
X171132710Y-90869711D02*
X171598082Y-91039092D01*
X171956060Y-91169386D02*
X172099251Y-91221503D01*
X172099251Y-91221503D02*
X172183876Y-91211764D01*
X172183876Y-91211764D02*
X172232703Y-91188995D01*
X172232703Y-91188995D02*
X172343387Y-91107661D01*
X172343387Y-91107661D02*
X172431302Y-90977499D01*
X172431302Y-90977499D02*
X172535537Y-90691116D01*
X172535537Y-90691116D02*
X172525798Y-90606491D01*
X172525798Y-90606491D02*
X172503029Y-90557664D01*
X172503029Y-90557664D02*
X172444463Y-90495808D01*
X172444463Y-90495808D02*
X172301272Y-90443690D01*
X172301272Y-90443690D02*
X172216647Y-90453429D01*
X172216647Y-90453429D02*
X172167820Y-90476198D01*
X172167820Y-90476198D02*
X172105963Y-90534764D01*
X172105963Y-90534764D02*
X172040817Y-90713753D01*
X172040817Y-90713753D02*
X172050556Y-90798378D01*
X172050556Y-90798378D02*
X172073324Y-90847205D01*
X172073324Y-90847205D02*
X172131890Y-90909062D01*
X172131890Y-90909062D02*
X172275082Y-90961179D01*
X172275082Y-90961179D02*
X172359707Y-90951440D01*
X172359707Y-90951440D02*
X172408534Y-90928672D01*
X172408534Y-90928672D02*
X172470390Y-90870105D01*
X161769538Y-100604390D02*
X162270707Y-100786801D01*
X162270707Y-100786801D02*
X161674911Y-101421291D01*
X166203678Y-104523497D02*
X166252506Y-104500728D01*
X166252506Y-104500728D02*
X166337131Y-104490989D01*
X166337131Y-104490989D02*
X166516120Y-104556136D01*
X166516120Y-104556136D02*
X166574686Y-104617992D01*
X166574686Y-104617992D02*
X166597454Y-104666819D01*
X166597454Y-104666819D02*
X166607194Y-104751444D01*
X166607194Y-104751444D02*
X166581135Y-104823040D01*
X166581135Y-104823040D02*
X166506249Y-104917404D01*
X166506249Y-104917404D02*
X165920323Y-105190626D01*
X165920323Y-105190626D02*
X166385695Y-105360007D01*
X166909896Y-104699459D02*
X167375267Y-104868840D01*
X167375267Y-104868840D02*
X167020448Y-105064017D01*
X167020448Y-105064017D02*
X167127841Y-105103105D01*
X167127841Y-105103105D02*
X167186408Y-105164962D01*
X167186408Y-105164962D02*
X167209176Y-105213789D01*
X167209176Y-105213789D02*
X167218915Y-105298414D01*
X167218915Y-105298414D02*
X167153769Y-105477403D01*
X167153769Y-105477403D02*
X167091912Y-105535969D01*
X167091912Y-105535969D02*
X167043085Y-105558738D01*
X167043085Y-105558738D02*
X166958460Y-105568477D01*
X166958460Y-105568477D02*
X166743673Y-105490301D01*
X166743673Y-105490301D02*
X166685107Y-105428444D01*
X166685107Y-105428444D02*
X166662338Y-105379617D01*
X159865853Y-106168870D02*
X160009045Y-106220988D01*
X160009045Y-106220988D02*
X160093670Y-106211249D01*
X160093670Y-106211249D02*
X160142497Y-106188480D01*
X160142497Y-106188480D02*
X160253180Y-106107145D01*
X160253180Y-106107145D02*
X160341096Y-105976983D01*
X160341096Y-105976983D02*
X160445330Y-105690601D01*
X160445330Y-105690601D02*
X160435591Y-105605976D01*
X160435591Y-105605976D02*
X160412823Y-105557149D01*
X160412823Y-105557149D02*
X160354256Y-105495292D01*
X160354256Y-105495292D02*
X160211065Y-105443175D01*
X160211065Y-105443175D02*
X160126440Y-105452914D01*
X160126440Y-105452914D02*
X160077613Y-105475683D01*
X160077613Y-105475683D02*
X160015756Y-105534249D01*
X160015756Y-105534249D02*
X159950610Y-105713238D01*
X159950610Y-105713238D02*
X159960349Y-105797863D01*
X159960349Y-105797863D02*
X159983117Y-105846690D01*
X159983117Y-105846690D02*
X160041684Y-105908547D01*
X160041684Y-105908547D02*
X160184875Y-105960664D01*
X160184875Y-105960664D02*
X160269500Y-105950925D01*
X160269500Y-105950925D02*
X160318327Y-105928156D01*
X160318327Y-105928156D02*
X160380184Y-105869590D01*
X163032045Y-98360894D02*
X162888854Y-98308777D01*
X162888854Y-98308777D02*
X162804229Y-98318516D01*
X162804229Y-98318516D02*
X162755402Y-98341284D01*
X162755402Y-98341284D02*
X162644718Y-98422619D01*
X162644718Y-98422619D02*
X162556803Y-98552781D01*
X162556803Y-98552781D02*
X162452568Y-98839164D01*
X162452568Y-98839164D02*
X162462307Y-98923788D01*
X162462307Y-98923788D02*
X162485076Y-98972616D01*
X162485076Y-98972616D02*
X162543642Y-99034472D01*
X162543642Y-99034472D02*
X162686833Y-99086589D01*
X162686833Y-99086589D02*
X162771458Y-99076850D01*
X162771458Y-99076850D02*
X162820285Y-99054082D01*
X162820285Y-99054082D02*
X162882142Y-98995516D01*
X162882142Y-98995516D02*
X162947289Y-98816526D01*
X162947289Y-98816526D02*
X162937549Y-98731902D01*
X162937549Y-98731902D02*
X162914781Y-98683074D01*
X162914781Y-98683074D02*
X162856215Y-98621218D01*
X162856215Y-98621218D02*
X162713023Y-98569101D01*
X162713023Y-98569101D02*
X162628398Y-98578840D01*
X162628398Y-98578840D02*
X162579571Y-98601608D01*
X162579571Y-98601608D02*
X162517715Y-98660174D01*
X167941140Y-99749859D02*
X167989968Y-99727090D01*
X167989968Y-99727090D02*
X168074593Y-99717351D01*
X168074593Y-99717351D02*
X168253582Y-99782498D01*
X168253582Y-99782498D02*
X168312148Y-99844354D01*
X168312148Y-99844354D02*
X168334916Y-99893181D01*
X168334916Y-99893181D02*
X168344656Y-99977806D01*
X168344656Y-99977806D02*
X168318597Y-100049402D01*
X168318597Y-100049402D02*
X168243711Y-100143766D01*
X168243711Y-100143766D02*
X167657785Y-100416988D01*
X167657785Y-100416988D02*
X168123157Y-100586369D01*
X168657097Y-100010446D02*
X168705924Y-99987677D01*
X168705924Y-99987677D02*
X168790549Y-99977938D01*
X168790549Y-99977938D02*
X168969538Y-100043085D01*
X168969538Y-100043085D02*
X169028104Y-100104941D01*
X169028104Y-100104941D02*
X169050873Y-100153768D01*
X169050873Y-100153768D02*
X169060612Y-100238393D01*
X169060612Y-100238393D02*
X169034553Y-100309989D01*
X169034553Y-100309989D02*
X168959668Y-100404353D01*
X168959668Y-100404353D02*
X168373742Y-100677575D01*
X168373742Y-100677575D02*
X168839113Y-100846956D01*
X168809871Y-97363039D02*
X168858699Y-97340270D01*
X168858699Y-97340270D02*
X168943324Y-97330531D01*
X168943324Y-97330531D02*
X169122313Y-97395678D01*
X169122313Y-97395678D02*
X169180879Y-97457534D01*
X169180879Y-97457534D02*
X169203647Y-97506361D01*
X169203647Y-97506361D02*
X169213387Y-97590986D01*
X169213387Y-97590986D02*
X169187328Y-97662582D01*
X169187328Y-97662582D02*
X169112442Y-97756946D01*
X169112442Y-97756946D02*
X168526516Y-98030168D01*
X168526516Y-98030168D02*
X168991888Y-98199549D01*
X169909865Y-97682323D02*
X169766673Y-97630206D01*
X169766673Y-97630206D02*
X169682049Y-97639945D01*
X169682049Y-97639945D02*
X169633221Y-97662714D01*
X169633221Y-97662714D02*
X169522538Y-97744048D01*
X169522538Y-97744048D02*
X169434623Y-97874210D01*
X169434623Y-97874210D02*
X169330388Y-98160593D01*
X169330388Y-98160593D02*
X169340127Y-98245218D01*
X169340127Y-98245218D02*
X169362895Y-98294045D01*
X169362895Y-98294045D02*
X169421462Y-98355901D01*
X169421462Y-98355901D02*
X169564653Y-98408019D01*
X169564653Y-98408019D02*
X169649278Y-98398280D01*
X169649278Y-98398280D02*
X169698105Y-98375511D01*
X169698105Y-98375511D02*
X169759962Y-98316945D01*
X169759962Y-98316945D02*
X169825108Y-98137956D01*
X169825108Y-98137956D02*
X169815369Y-98053331D01*
X169815369Y-98053331D02*
X169792601Y-98004504D01*
X169792601Y-98004504D02*
X169734034Y-97942647D01*
X169734034Y-97942647D02*
X169590843Y-97890530D01*
X169590843Y-97890530D02*
X169506218Y-97900269D01*
X169506218Y-97900269D02*
X169457391Y-97923037D01*
X169457391Y-97923037D02*
X169395535Y-97981604D01*
X169802906Y-79201192D02*
X169874502Y-79227251D01*
X169874502Y-79227251D02*
X169933068Y-79289108D01*
X169933068Y-79289108D02*
X169955836Y-79337935D01*
X169955836Y-79337935D02*
X169965575Y-79422560D01*
X169965575Y-79422560D02*
X169949256Y-79578780D01*
X169949256Y-79578780D02*
X169884109Y-79757769D01*
X169884109Y-79757769D02*
X169796194Y-79887931D01*
X169796194Y-79887931D02*
X169734338Y-79946498D01*
X169734338Y-79946498D02*
X169685510Y-79969266D01*
X169685510Y-79969266D02*
X169600885Y-79979005D01*
X169600885Y-79979005D02*
X169529290Y-79952946D01*
X169529290Y-79952946D02*
X169470723Y-79891090D01*
X169470723Y-79891090D02*
X169447955Y-79842263D01*
X169447955Y-79842263D02*
X169438216Y-79757638D01*
X169438216Y-79757638D02*
X169454535Y-79601417D01*
X169454535Y-79601417D02*
X169519682Y-79422428D01*
X169519682Y-79422428D02*
X169607597Y-79292266D01*
X169607597Y-79292266D02*
X169669454Y-79233700D01*
X169669454Y-79233700D02*
X169718281Y-79210931D01*
X169718281Y-79210931D02*
X169802906Y-79201192D01*
X163936574Y-95987103D02*
X163578596Y-95856810D01*
X163578596Y-95856810D02*
X163412504Y-96201759D01*
X163412504Y-96201759D02*
X163461332Y-96178990D01*
X163461332Y-96178990D02*
X163545957Y-96169251D01*
X163545957Y-96169251D02*
X163724946Y-96234398D01*
X163724946Y-96234398D02*
X163783512Y-96296254D01*
X163783512Y-96296254D02*
X163806280Y-96345082D01*
X163806280Y-96345082D02*
X163816020Y-96429706D01*
X163816020Y-96429706D02*
X163750873Y-96608696D01*
X163750873Y-96608696D02*
X163689016Y-96667262D01*
X163689016Y-96667262D02*
X163640189Y-96690030D01*
X163640189Y-96690030D02*
X163555564Y-96699769D01*
X163555564Y-96699769D02*
X163376575Y-96634623D01*
X163376575Y-96634623D02*
X163318009Y-96572766D01*
X163318009Y-96572766D02*
X163295240Y-96523939D01*
X168911142Y-82430972D02*
X168481569Y-82274620D01*
X168696356Y-82352796D02*
X168969972Y-81601042D01*
X168969972Y-81601042D02*
X168859288Y-81682376D01*
X168859288Y-81682376D02*
X168761634Y-81727913D01*
X168761634Y-81727913D02*
X168677009Y-81737653D01*
X169678602Y-94976220D02*
X169727430Y-94953451D01*
X169727430Y-94953451D02*
X169812055Y-94943712D01*
X169812055Y-94943712D02*
X169991044Y-95008859D01*
X169991044Y-95008859D02*
X170049610Y-95070715D01*
X170049610Y-95070715D02*
X170072378Y-95119542D01*
X170072378Y-95119542D02*
X170082118Y-95204167D01*
X170082118Y-95204167D02*
X170056059Y-95275763D01*
X170056059Y-95275763D02*
X169981173Y-95370127D01*
X169981173Y-95370127D02*
X169395247Y-95643349D01*
X169395247Y-95643349D02*
X169860619Y-95812730D01*
X170384820Y-95152182D02*
X170885989Y-95334592D01*
X170885989Y-95334592D02*
X170290193Y-95969082D01*
X172982041Y-86136789D02*
X172924396Y-85710406D01*
X172659860Y-86019524D02*
X172933477Y-85267770D01*
X172933477Y-85267770D02*
X173148263Y-85345946D01*
X173148263Y-85345946D02*
X173188931Y-85401288D01*
X173188931Y-85401288D02*
X173202750Y-85446858D01*
X173202750Y-85446858D02*
X173203540Y-85528226D01*
X173203540Y-85528226D02*
X173164452Y-85635619D01*
X173164452Y-85635619D02*
X173111545Y-85697443D01*
X173111545Y-85697443D02*
X173071667Y-85723469D01*
X173071667Y-85723469D02*
X173004941Y-85739722D01*
X173004941Y-85739722D02*
X172790154Y-85661546D01*
X173209857Y-86179167D02*
X173277373Y-86244281D01*
X173277373Y-86244281D02*
X173411615Y-86293141D01*
X173411615Y-86293141D02*
X173478341Y-86276887D01*
X173478341Y-86276887D02*
X173518218Y-86250861D01*
X173518218Y-86250861D02*
X173571125Y-86189037D01*
X173571125Y-86189037D02*
X173597184Y-86117442D01*
X173597184Y-86117442D02*
X173596394Y-86036074D01*
X173596394Y-86036074D02*
X173582575Y-85990504D01*
X173582575Y-85990504D02*
X173541908Y-85935162D01*
X173541908Y-85935162D02*
X173447544Y-85860277D01*
X173447544Y-85860277D02*
X173406876Y-85804935D01*
X173406876Y-85804935D02*
X173393057Y-85759365D01*
X173393057Y-85759365D02*
X173392268Y-85677997D01*
X173392268Y-85677997D02*
X173418326Y-85606402D01*
X173418326Y-85606402D02*
X173471233Y-85544578D01*
X173471233Y-85544578D02*
X173511111Y-85518552D01*
X173511111Y-85518552D02*
X173577837Y-85502298D01*
X173577837Y-85502298D02*
X173712079Y-85551158D01*
X173712079Y-85551158D02*
X173779595Y-85616272D01*
X173953715Y-85639107D02*
X174275895Y-85756371D01*
X173841189Y-86449493D02*
X174114805Y-85697739D01*
D15*
X134860668Y-107818788D02*
X134680880Y-107427890D01*
X134518281Y-107800844D02*
X134560149Y-107001940D01*
X134560149Y-107001940D02*
X134788408Y-107013903D01*
X134788408Y-107013903D02*
X134843478Y-107054936D01*
X134843478Y-107054936D02*
X134870017Y-107094475D01*
X134870017Y-107094475D02*
X134894562Y-107172056D01*
X134894562Y-107172056D02*
X134888580Y-107286185D01*
X134888580Y-107286185D02*
X134856061Y-107360776D01*
X134856061Y-107360776D02*
X134825535Y-107397324D01*
X134825535Y-107397324D02*
X134766476Y-107432376D01*
X134766476Y-107432376D02*
X134538218Y-107420414D01*
X135139390Y-107413772D02*
X135339116Y-107424239D01*
X135402781Y-107847199D02*
X135117458Y-107832245D01*
X135117458Y-107832245D02*
X135159327Y-107033342D01*
X135159327Y-107033342D02*
X135444650Y-107048295D01*
X135633033Y-107821118D02*
X135716636Y-107863647D01*
X135716636Y-107863647D02*
X135859297Y-107871124D01*
X135859297Y-107871124D02*
X135918356Y-107836071D01*
X135918356Y-107836071D02*
X135948882Y-107799523D01*
X135948882Y-107799523D02*
X135981401Y-107724933D01*
X135981401Y-107724933D02*
X135985389Y-107648847D01*
X135985389Y-107648847D02*
X135960844Y-107571265D01*
X135960844Y-107571265D02*
X135934306Y-107531727D01*
X135934306Y-107531727D02*
X135879235Y-107490693D01*
X135879235Y-107490693D02*
X135767099Y-107446669D01*
X135767099Y-107446669D02*
X135712029Y-107405635D01*
X135712029Y-107405635D02*
X135685490Y-107366097D01*
X135685490Y-107366097D02*
X135660945Y-107288516D01*
X135660945Y-107288516D02*
X135664933Y-107212430D01*
X135664933Y-107212430D02*
X135697453Y-107137839D01*
X135697453Y-107137839D02*
X135727979Y-107101291D01*
X135727979Y-107101291D02*
X135787037Y-107066239D01*
X135787037Y-107066239D02*
X135929698Y-107073715D01*
X135929698Y-107073715D02*
X136013301Y-107116244D01*
X136252149Y-107472089D02*
X136451874Y-107482557D01*
X136515540Y-107905516D02*
X136230217Y-107890563D01*
X136230217Y-107890563D02*
X136272086Y-107091659D01*
X136272086Y-107091659D02*
X136557409Y-107106612D01*
X136728602Y-107115584D02*
X137070990Y-107133528D01*
X136857927Y-107923460D02*
X136899796Y-107124556D01*
D14*
X57201757Y-116744374D02*
X57337039Y-116752494D01*
X57337039Y-116752494D02*
X57544023Y-116697033D01*
X57544023Y-116697033D02*
X57615725Y-116633452D01*
X57615725Y-116633452D02*
X57646029Y-116580963D01*
X57646029Y-116580963D02*
X57665242Y-116487077D01*
X57665242Y-116487077D02*
X57643057Y-116404283D01*
X57643057Y-116404283D02*
X57579476Y-116332582D01*
X57579476Y-116332582D02*
X57526987Y-116302277D01*
X57526987Y-116302277D02*
X57433101Y-116283065D01*
X57433101Y-116283065D02*
X57256421Y-116286037D01*
X57256421Y-116286037D02*
X57162536Y-116266825D01*
X57162536Y-116266825D02*
X57110046Y-116236520D01*
X57110046Y-116236520D02*
X57046465Y-116164819D01*
X57046465Y-116164819D02*
X57024281Y-116082025D01*
X57024281Y-116082025D02*
X57043493Y-115988139D01*
X57043493Y-115988139D02*
X57073798Y-115935650D01*
X57073798Y-115935650D02*
X57145499Y-115872069D01*
X57145499Y-115872069D02*
X57352483Y-115816608D01*
X57352483Y-115816608D02*
X57487766Y-115824728D01*
X57766451Y-115705685D02*
X58206373Y-116519557D01*
X58206373Y-116519557D02*
X58205576Y-115854236D01*
X58205576Y-115854236D02*
X58537547Y-116430819D01*
X58537547Y-116430819D02*
X58511594Y-115506025D01*
X59531071Y-116164605D02*
X59034309Y-116297712D01*
X59282690Y-116231159D02*
X59049752Y-115361826D01*
X59049752Y-115361826D02*
X59000236Y-115508201D01*
X59000236Y-115508201D02*
X58939626Y-115613179D01*
X58939626Y-115613179D02*
X58867925Y-115676760D01*
X60120922Y-115385389D02*
X60276213Y-115964945D01*
X59825200Y-115109676D02*
X59784600Y-115786090D01*
X59784600Y-115786090D02*
X60322758Y-115641891D01*
X52801833Y-100323635D02*
X52937115Y-100331755D01*
X52937115Y-100331755D02*
X53144099Y-100276294D01*
X53144099Y-100276294D02*
X53215801Y-100212713D01*
X53215801Y-100212713D02*
X53246105Y-100160224D01*
X53246105Y-100160224D02*
X53265318Y-100066338D01*
X53265318Y-100066338D02*
X53243133Y-99983544D01*
X53243133Y-99983544D02*
X53179552Y-99911843D01*
X53179552Y-99911843D02*
X53127063Y-99881538D01*
X53127063Y-99881538D02*
X53033177Y-99862326D01*
X53033177Y-99862326D02*
X52856497Y-99865298D01*
X52856497Y-99865298D02*
X52762612Y-99846086D01*
X52762612Y-99846086D02*
X52710122Y-99815781D01*
X52710122Y-99815781D02*
X52646541Y-99744080D01*
X52646541Y-99744080D02*
X52624357Y-99661286D01*
X52624357Y-99661286D02*
X52643569Y-99567400D01*
X52643569Y-99567400D02*
X52673874Y-99514911D01*
X52673874Y-99514911D02*
X52745575Y-99451330D01*
X52745575Y-99451330D02*
X52952559Y-99395869D01*
X52952559Y-99395869D02*
X53087842Y-99403989D01*
X53366527Y-99284946D02*
X53806449Y-100098818D01*
X53806449Y-100098818D02*
X53805652Y-99433497D01*
X53805652Y-99433497D02*
X54137623Y-100010080D01*
X54137623Y-100010080D02*
X54111670Y-99085286D01*
X55131147Y-99743866D02*
X54634385Y-99876973D01*
X54882766Y-99810420D02*
X54649828Y-98941087D01*
X54649828Y-98941087D02*
X54600312Y-99087462D01*
X54600312Y-99087462D02*
X54539702Y-99192440D01*
X54539702Y-99192440D02*
X54468001Y-99256021D01*
X55436368Y-98730334D02*
X55519162Y-98708149D01*
X55519162Y-98708149D02*
X55613048Y-98727362D01*
X55613048Y-98727362D02*
X55665537Y-98757666D01*
X55665537Y-98757666D02*
X55729118Y-98829368D01*
X55729118Y-98829368D02*
X55814884Y-98983863D01*
X55814884Y-98983863D02*
X55870345Y-99190847D01*
X55870345Y-99190847D02*
X55873317Y-99367526D01*
X55873317Y-99367526D02*
X55854105Y-99461412D01*
X55854105Y-99461412D02*
X55823800Y-99513901D01*
X55823800Y-99513901D02*
X55752099Y-99577483D01*
X55752099Y-99577483D02*
X55669305Y-99599667D01*
X55669305Y-99599667D02*
X55575419Y-99580455D01*
X55575419Y-99580455D02*
X55522930Y-99550150D01*
X55522930Y-99550150D02*
X55459349Y-99478449D01*
X55459349Y-99478449D02*
X55373583Y-99323954D01*
X55373583Y-99323954D02*
X55318122Y-99116970D01*
X55318122Y-99116970D02*
X55315150Y-98940290D01*
X55315150Y-98940290D02*
X55334362Y-98846404D01*
X55334362Y-98846404D02*
X55364667Y-98793915D01*
X55364667Y-98793915D02*
X55436368Y-98730334D01*
X48401909Y-83902896D02*
X48537191Y-83911016D01*
X48537191Y-83911016D02*
X48744175Y-83855555D01*
X48744175Y-83855555D02*
X48815877Y-83791974D01*
X48815877Y-83791974D02*
X48846181Y-83739485D01*
X48846181Y-83739485D02*
X48865394Y-83645599D01*
X48865394Y-83645599D02*
X48843209Y-83562805D01*
X48843209Y-83562805D02*
X48779628Y-83491104D01*
X48779628Y-83491104D02*
X48727139Y-83460799D01*
X48727139Y-83460799D02*
X48633253Y-83441587D01*
X48633253Y-83441587D02*
X48456573Y-83444559D01*
X48456573Y-83444559D02*
X48362688Y-83425347D01*
X48362688Y-83425347D02*
X48310198Y-83395042D01*
X48310198Y-83395042D02*
X48246617Y-83323341D01*
X48246617Y-83323341D02*
X48224433Y-83240547D01*
X48224433Y-83240547D02*
X48243645Y-83146661D01*
X48243645Y-83146661D02*
X48273950Y-83094172D01*
X48273950Y-83094172D02*
X48345651Y-83030591D01*
X48345651Y-83030591D02*
X48552635Y-82975130D01*
X48552635Y-82975130D02*
X48687918Y-82983250D01*
X48966603Y-82864207D02*
X49406525Y-83678079D01*
X49406525Y-83678079D02*
X49405728Y-83012758D01*
X49405728Y-83012758D02*
X49737699Y-83589341D01*
X49737699Y-83589341D02*
X49711746Y-82664547D01*
X50456889Y-82464886D02*
X50042920Y-82575809D01*
X50042920Y-82575809D02*
X50112446Y-83000869D01*
X50112446Y-83000869D02*
X50142751Y-82948380D01*
X50142751Y-82948380D02*
X50214452Y-82884799D01*
X50214452Y-82884799D02*
X50421436Y-82829338D01*
X50421436Y-82829338D02*
X50515322Y-82848550D01*
X50515322Y-82848550D02*
X50567811Y-82878855D01*
X50567811Y-82878855D02*
X50631392Y-82950556D01*
X50631392Y-82950556D02*
X50686854Y-83157540D01*
X50686854Y-83157540D02*
X50667641Y-83251426D01*
X50667641Y-83251426D02*
X50637337Y-83303915D01*
X50637337Y-83303915D02*
X50565635Y-83367496D01*
X50565635Y-83367496D02*
X50358651Y-83422958D01*
X50358651Y-83422958D02*
X50264765Y-83403745D01*
X50264765Y-83403745D02*
X50212276Y-83373441D01*
X69118410Y-66143789D02*
X69251694Y-66168335D01*
X69251694Y-66168335D02*
X69463895Y-66138512D01*
X69463895Y-66138512D02*
X69542810Y-66084143D01*
X69542810Y-66084143D02*
X69579286Y-66035738D01*
X69579286Y-66035738D02*
X69609797Y-65944894D01*
X69609797Y-65944894D02*
X69597867Y-65860014D01*
X69597867Y-65860014D02*
X69543498Y-65781098D01*
X69543498Y-65781098D02*
X69495094Y-65744622D01*
X69495094Y-65744622D02*
X69404249Y-65714112D01*
X69404249Y-65714112D02*
X69228524Y-65695530D01*
X69228524Y-65695530D02*
X69137680Y-65665019D01*
X69137680Y-65665019D02*
X69089275Y-65628543D01*
X69089275Y-65628543D02*
X69034906Y-65549628D01*
X69034906Y-65549628D02*
X69022977Y-65464748D01*
X69022977Y-65464748D02*
X69053488Y-65373903D01*
X69053488Y-65373903D02*
X69089963Y-65325498D01*
X69089963Y-65325498D02*
X69168879Y-65271129D01*
X69168879Y-65271129D02*
X69381079Y-65241306D01*
X69381079Y-65241306D02*
X69514364Y-65265853D01*
X69805480Y-65181661D02*
X70142936Y-66043079D01*
X70142936Y-66043079D02*
X70223228Y-65382620D01*
X70223228Y-65382620D02*
X70482456Y-65995363D01*
X70482456Y-65995363D02*
X70569401Y-65074299D01*
X71332633Y-65269982D02*
X71416137Y-65864142D01*
X71072716Y-64960284D02*
X70949985Y-65626708D01*
X70949985Y-65626708D02*
X71501705Y-65549168D01*
X71484353Y-82978346D02*
X71617637Y-83002892D01*
X71617637Y-83002892D02*
X71829838Y-82973069D01*
X71829838Y-82973069D02*
X71908753Y-82918700D01*
X71908753Y-82918700D02*
X71945229Y-82870295D01*
X71945229Y-82870295D02*
X71975740Y-82779451D01*
X71975740Y-82779451D02*
X71963810Y-82694571D01*
X71963810Y-82694571D02*
X71909441Y-82615655D01*
X71909441Y-82615655D02*
X71861037Y-82579179D01*
X71861037Y-82579179D02*
X71770192Y-82548669D01*
X71770192Y-82548669D02*
X71594467Y-82530087D01*
X71594467Y-82530087D02*
X71503623Y-82499576D01*
X71503623Y-82499576D02*
X71455218Y-82463100D01*
X71455218Y-82463100D02*
X71400849Y-82384185D01*
X71400849Y-82384185D02*
X71388920Y-82299305D01*
X71388920Y-82299305D02*
X71419431Y-82208460D01*
X71419431Y-82208460D02*
X71455906Y-82160055D01*
X71455906Y-82160055D02*
X71534822Y-82105686D01*
X71534822Y-82105686D02*
X71747022Y-82075863D01*
X71747022Y-82075863D02*
X71880307Y-82100410D01*
X72171423Y-82016218D02*
X72508879Y-82877636D01*
X72508879Y-82877636D02*
X72589171Y-82217177D01*
X72589171Y-82217177D02*
X72848399Y-82829920D01*
X72848399Y-82829920D02*
X72935344Y-81908856D01*
X73442560Y-82746416D02*
X73612320Y-82722558D01*
X73612320Y-82722558D02*
X73691235Y-82668188D01*
X73691235Y-82668188D02*
X73727711Y-82619784D01*
X73727711Y-82619784D02*
X73794697Y-82480534D01*
X73794697Y-82480534D02*
X73813279Y-82304810D01*
X73813279Y-82304810D02*
X73765563Y-81965289D01*
X73765563Y-81965289D02*
X73711193Y-81886374D01*
X73711193Y-81886374D02*
X73662789Y-81849898D01*
X73662789Y-81849898D02*
X73571944Y-81819387D01*
X73571944Y-81819387D02*
X73402184Y-81843245D01*
X73402184Y-81843245D02*
X73323268Y-81897615D01*
X73323268Y-81897615D02*
X73286793Y-81946019D01*
X73286793Y-81946019D02*
X73256282Y-82036864D01*
X73256282Y-82036864D02*
X73286105Y-82249064D01*
X73286105Y-82249064D02*
X73340474Y-82327980D01*
X73340474Y-82327980D02*
X73388879Y-82364455D01*
X73388879Y-82364455D02*
X73479723Y-82394966D01*
X73479723Y-82394966D02*
X73649483Y-82371108D01*
X73649483Y-82371108D02*
X73728399Y-82316739D01*
X73728399Y-82316739D02*
X73764875Y-82268334D01*
X73764875Y-82268334D02*
X73795385Y-82177490D01*
X73850296Y-99812903D02*
X73983580Y-99837449D01*
X73983580Y-99837449D02*
X74195781Y-99807626D01*
X74195781Y-99807626D02*
X74274696Y-99753257D01*
X74274696Y-99753257D02*
X74311172Y-99704852D01*
X74311172Y-99704852D02*
X74341683Y-99614008D01*
X74341683Y-99614008D02*
X74329753Y-99529128D01*
X74329753Y-99529128D02*
X74275384Y-99450212D01*
X74275384Y-99450212D02*
X74226980Y-99413736D01*
X74226980Y-99413736D02*
X74136135Y-99383226D01*
X74136135Y-99383226D02*
X73960410Y-99364644D01*
X73960410Y-99364644D02*
X73869566Y-99334133D01*
X73869566Y-99334133D02*
X73821161Y-99297657D01*
X73821161Y-99297657D02*
X73766792Y-99218742D01*
X73766792Y-99218742D02*
X73754863Y-99133862D01*
X73754863Y-99133862D02*
X73785374Y-99043017D01*
X73785374Y-99043017D02*
X73821849Y-98994612D01*
X73821849Y-98994612D02*
X73900765Y-98940243D01*
X73900765Y-98940243D02*
X74112965Y-98910420D01*
X74112965Y-98910420D02*
X74246250Y-98934967D01*
X74537366Y-98850775D02*
X74874822Y-99712193D01*
X74874822Y-99712193D02*
X74955114Y-99051734D01*
X74955114Y-99051734D02*
X75214342Y-99664477D01*
X75214342Y-99664477D02*
X75301287Y-98743413D01*
X76232903Y-99521327D02*
X75723622Y-99592902D01*
X75978263Y-99557115D02*
X75853007Y-98665873D01*
X75853007Y-98665873D02*
X75786021Y-98805123D01*
X75786021Y-98805123D02*
X75713070Y-98901932D01*
X75713070Y-98901932D02*
X75634154Y-98956301D01*
X76404728Y-98588334D02*
X76956449Y-98510795D01*
X76956449Y-98510795D02*
X76707085Y-98892067D01*
X76707085Y-98892067D02*
X76834405Y-98874173D01*
X76834405Y-98874173D02*
X76925250Y-98904684D01*
X76925250Y-98904684D02*
X76973654Y-98941160D01*
X76973654Y-98941160D02*
X77028023Y-99020075D01*
X77028023Y-99020075D02*
X77057846Y-99232276D01*
X77057846Y-99232276D02*
X77027335Y-99323120D01*
X77027335Y-99323120D02*
X76990860Y-99371525D01*
X76990860Y-99371525D02*
X76911944Y-99425894D01*
X76911944Y-99425894D02*
X76657304Y-99461682D01*
X76657304Y-99461682D02*
X76566459Y-99431171D01*
X76566459Y-99431171D02*
X76518055Y-99394695D01*
X93526691Y-92465180D02*
X93655263Y-92508037D01*
X93655263Y-92508037D02*
X93869548Y-92508037D01*
X93869548Y-92508037D02*
X93955263Y-92465180D01*
X93955263Y-92465180D02*
X93998120Y-92422322D01*
X93998120Y-92422322D02*
X94040977Y-92336608D01*
X94040977Y-92336608D02*
X94040977Y-92250894D01*
X94040977Y-92250894D02*
X93998120Y-92165180D01*
X93998120Y-92165180D02*
X93955263Y-92122322D01*
X93955263Y-92122322D02*
X93869548Y-92079465D01*
X93869548Y-92079465D02*
X93698120Y-92036608D01*
X93698120Y-92036608D02*
X93612405Y-91993751D01*
X93612405Y-91993751D02*
X93569548Y-91950894D01*
X93569548Y-91950894D02*
X93526691Y-91865180D01*
X93526691Y-91865180D02*
X93526691Y-91779465D01*
X93526691Y-91779465D02*
X93569548Y-91693751D01*
X93569548Y-91693751D02*
X93612405Y-91650894D01*
X93612405Y-91650894D02*
X93698120Y-91608037D01*
X93698120Y-91608037D02*
X93912405Y-91608037D01*
X93912405Y-91608037D02*
X94040977Y-91650894D01*
X94340977Y-91608037D02*
X94555263Y-92508037D01*
X94555263Y-92508037D02*
X94726691Y-91865180D01*
X94726691Y-91865180D02*
X94898120Y-92508037D01*
X94898120Y-92508037D02*
X95112406Y-91608037D01*
X95926691Y-92508037D02*
X95412405Y-92508037D01*
X95669548Y-92508037D02*
X95669548Y-91608037D01*
X95669548Y-91608037D02*
X95583834Y-91736608D01*
X95583834Y-91736608D02*
X95498119Y-91822322D01*
X95498119Y-91822322D02*
X95412405Y-91865180D01*
X96269548Y-91693751D02*
X96312405Y-91650894D01*
X96312405Y-91650894D02*
X96398120Y-91608037D01*
X96398120Y-91608037D02*
X96612405Y-91608037D01*
X96612405Y-91608037D02*
X96698120Y-91650894D01*
X96698120Y-91650894D02*
X96740977Y-91693751D01*
X96740977Y-91693751D02*
X96783834Y-91779465D01*
X96783834Y-91779465D02*
X96783834Y-91865180D01*
X96783834Y-91865180D02*
X96740977Y-91993751D01*
X96740977Y-91993751D02*
X96226691Y-92508037D01*
X96226691Y-92508037D02*
X96783834Y-92508037D01*
X93526691Y-75465180D02*
X93655263Y-75508037D01*
X93655263Y-75508037D02*
X93869548Y-75508037D01*
X93869548Y-75508037D02*
X93955263Y-75465180D01*
X93955263Y-75465180D02*
X93998120Y-75422322D01*
X93998120Y-75422322D02*
X94040977Y-75336608D01*
X94040977Y-75336608D02*
X94040977Y-75250894D01*
X94040977Y-75250894D02*
X93998120Y-75165180D01*
X93998120Y-75165180D02*
X93955263Y-75122322D01*
X93955263Y-75122322D02*
X93869548Y-75079465D01*
X93869548Y-75079465D02*
X93698120Y-75036608D01*
X93698120Y-75036608D02*
X93612405Y-74993751D01*
X93612405Y-74993751D02*
X93569548Y-74950894D01*
X93569548Y-74950894D02*
X93526691Y-74865180D01*
X93526691Y-74865180D02*
X93526691Y-74779465D01*
X93526691Y-74779465D02*
X93569548Y-74693751D01*
X93569548Y-74693751D02*
X93612405Y-74650894D01*
X93612405Y-74650894D02*
X93698120Y-74608037D01*
X93698120Y-74608037D02*
X93912405Y-74608037D01*
X93912405Y-74608037D02*
X94040977Y-74650894D01*
X94340977Y-74608037D02*
X94555263Y-75508037D01*
X94555263Y-75508037D02*
X94726691Y-74865180D01*
X94726691Y-74865180D02*
X94898120Y-75508037D01*
X94898120Y-75508037D02*
X95112406Y-74608037D01*
X95583834Y-74993751D02*
X95498119Y-74950894D01*
X95498119Y-74950894D02*
X95455262Y-74908037D01*
X95455262Y-74908037D02*
X95412405Y-74822322D01*
X95412405Y-74822322D02*
X95412405Y-74779465D01*
X95412405Y-74779465D02*
X95455262Y-74693751D01*
X95455262Y-74693751D02*
X95498119Y-74650894D01*
X95498119Y-74650894D02*
X95583834Y-74608037D01*
X95583834Y-74608037D02*
X95755262Y-74608037D01*
X95755262Y-74608037D02*
X95840977Y-74650894D01*
X95840977Y-74650894D02*
X95883834Y-74693751D01*
X95883834Y-74693751D02*
X95926691Y-74779465D01*
X95926691Y-74779465D02*
X95926691Y-74822322D01*
X95926691Y-74822322D02*
X95883834Y-74908037D01*
X95883834Y-74908037D02*
X95840977Y-74950894D01*
X95840977Y-74950894D02*
X95755262Y-74993751D01*
X95755262Y-74993751D02*
X95583834Y-74993751D01*
X95583834Y-74993751D02*
X95498119Y-75036608D01*
X95498119Y-75036608D02*
X95455262Y-75079465D01*
X95455262Y-75079465D02*
X95412405Y-75165180D01*
X95412405Y-75165180D02*
X95412405Y-75336608D01*
X95412405Y-75336608D02*
X95455262Y-75422322D01*
X95455262Y-75422322D02*
X95498119Y-75465180D01*
X95498119Y-75465180D02*
X95583834Y-75508037D01*
X95583834Y-75508037D02*
X95755262Y-75508037D01*
X95755262Y-75508037D02*
X95840977Y-75465180D01*
X95840977Y-75465180D02*
X95883834Y-75422322D01*
X95883834Y-75422322D02*
X95926691Y-75336608D01*
X95926691Y-75336608D02*
X95926691Y-75165180D01*
X95926691Y-75165180D02*
X95883834Y-75079465D01*
X95883834Y-75079465D02*
X95840977Y-75036608D01*
X95840977Y-75036608D02*
X95755262Y-74993751D01*
X93526691Y-58465180D02*
X93655263Y-58508037D01*
X93655263Y-58508037D02*
X93869548Y-58508037D01*
X93869548Y-58508037D02*
X93955263Y-58465180D01*
X93955263Y-58465180D02*
X93998120Y-58422322D01*
X93998120Y-58422322D02*
X94040977Y-58336608D01*
X94040977Y-58336608D02*
X94040977Y-58250894D01*
X94040977Y-58250894D02*
X93998120Y-58165180D01*
X93998120Y-58165180D02*
X93955263Y-58122322D01*
X93955263Y-58122322D02*
X93869548Y-58079465D01*
X93869548Y-58079465D02*
X93698120Y-58036608D01*
X93698120Y-58036608D02*
X93612405Y-57993751D01*
X93612405Y-57993751D02*
X93569548Y-57950894D01*
X93569548Y-57950894D02*
X93526691Y-57865180D01*
X93526691Y-57865180D02*
X93526691Y-57779465D01*
X93526691Y-57779465D02*
X93569548Y-57693751D01*
X93569548Y-57693751D02*
X93612405Y-57650894D01*
X93612405Y-57650894D02*
X93698120Y-57608037D01*
X93698120Y-57608037D02*
X93912405Y-57608037D01*
X93912405Y-57608037D02*
X94040977Y-57650894D01*
X94340977Y-57608037D02*
X94555263Y-58508037D01*
X94555263Y-58508037D02*
X94726691Y-57865180D01*
X94726691Y-57865180D02*
X94898120Y-58508037D01*
X94898120Y-58508037D02*
X95112406Y-57608037D01*
X95369548Y-57608037D02*
X95926691Y-57608037D01*
X95926691Y-57608037D02*
X95626691Y-57950894D01*
X95626691Y-57950894D02*
X95755262Y-57950894D01*
X95755262Y-57950894D02*
X95840977Y-57993751D01*
X95840977Y-57993751D02*
X95883834Y-58036608D01*
X95883834Y-58036608D02*
X95926691Y-58122322D01*
X95926691Y-58122322D02*
X95926691Y-58336608D01*
X95926691Y-58336608D02*
X95883834Y-58422322D01*
X95883834Y-58422322D02*
X95840977Y-58465180D01*
X95840977Y-58465180D02*
X95755262Y-58508037D01*
X95755262Y-58508037D02*
X95498119Y-58508037D01*
X95498119Y-58508037D02*
X95412405Y-58465180D01*
X95412405Y-58465180D02*
X95369548Y-58422322D01*
X113485418Y-81426512D02*
X113611571Y-81476039D01*
X113611571Y-81476039D02*
X113825563Y-81487254D01*
X113825563Y-81487254D02*
X113913402Y-81448942D01*
X113913402Y-81448942D02*
X113958444Y-81408386D01*
X113958444Y-81408386D02*
X114005728Y-81325032D01*
X114005728Y-81325032D02*
X114010214Y-81239435D01*
X114010214Y-81239435D02*
X113971902Y-81151596D01*
X113971902Y-81151596D02*
X113931346Y-81106554D01*
X113931346Y-81106554D02*
X113847992Y-81059270D01*
X113847992Y-81059270D02*
X113679042Y-81007500D01*
X113679042Y-81007500D02*
X113595688Y-80960215D01*
X113595688Y-80960215D02*
X113555132Y-80915174D01*
X113555132Y-80915174D02*
X113516820Y-80827334D01*
X113516820Y-80827334D02*
X113521306Y-80741737D01*
X113521306Y-80741737D02*
X113568590Y-80658383D01*
X113568590Y-80658383D02*
X113613632Y-80617828D01*
X113613632Y-80617828D02*
X113701471Y-80579516D01*
X113701471Y-80579516D02*
X113915463Y-80590730D01*
X113915463Y-80590730D02*
X114041616Y-80640258D01*
X114343448Y-80613160D02*
X114510337Y-81523142D01*
X114510337Y-81523142D02*
X114715175Y-80890137D01*
X114715175Y-80890137D02*
X114852725Y-81541085D01*
X114852725Y-81541085D02*
X115113819Y-80653534D01*
X115370609Y-80666991D02*
X115969787Y-80698393D01*
X115969787Y-80698393D02*
X115537499Y-81576973D01*
X114369980Y-64548079D02*
X114496133Y-64597606D01*
X114496133Y-64597606D02*
X114710125Y-64608821D01*
X114710125Y-64608821D02*
X114797964Y-64570509D01*
X114797964Y-64570509D02*
X114843006Y-64529953D01*
X114843006Y-64529953D02*
X114890290Y-64446599D01*
X114890290Y-64446599D02*
X114894776Y-64361002D01*
X114894776Y-64361002D02*
X114856464Y-64273163D01*
X114856464Y-64273163D02*
X114815908Y-64228121D01*
X114815908Y-64228121D02*
X114732554Y-64180837D01*
X114732554Y-64180837D02*
X114563604Y-64129067D01*
X114563604Y-64129067D02*
X114480250Y-64081782D01*
X114480250Y-64081782D02*
X114439694Y-64036741D01*
X114439694Y-64036741D02*
X114401382Y-63948901D01*
X114401382Y-63948901D02*
X114405868Y-63863304D01*
X114405868Y-63863304D02*
X114453152Y-63779950D01*
X114453152Y-63779950D02*
X114498194Y-63739395D01*
X114498194Y-63739395D02*
X114586033Y-63701083D01*
X114586033Y-63701083D02*
X114800025Y-63712297D01*
X114800025Y-63712297D02*
X114926178Y-63761825D01*
X115228010Y-63734727D02*
X115394899Y-64644709D01*
X115394899Y-64644709D02*
X115599737Y-64011704D01*
X115599737Y-64011704D02*
X115737287Y-64662652D01*
X115737287Y-64662652D02*
X115998381Y-63775101D01*
X116293483Y-63876398D02*
X116338525Y-63835843D01*
X116338525Y-63835843D02*
X116426365Y-63797530D01*
X116426365Y-63797530D02*
X116640357Y-63808745D01*
X116640357Y-63808745D02*
X116723711Y-63856029D01*
X116723711Y-63856029D02*
X116764266Y-63901071D01*
X116764266Y-63901071D02*
X116802578Y-63988911D01*
X116802578Y-63988911D02*
X116798093Y-64074507D01*
X116798093Y-64074507D02*
X116748565Y-64200660D01*
X116748565Y-64200660D02*
X116208069Y-64687325D01*
X116208069Y-64687325D02*
X116764448Y-64716484D01*
X132136428Y-70171545D02*
X132262581Y-70221072D01*
X132262581Y-70221072D02*
X132476573Y-70232287D01*
X132476573Y-70232287D02*
X132564412Y-70193975D01*
X132564412Y-70193975D02*
X132609454Y-70153419D01*
X132609454Y-70153419D02*
X132656738Y-70070065D01*
X132656738Y-70070065D02*
X132661224Y-69984468D01*
X132661224Y-69984468D02*
X132622912Y-69896629D01*
X132622912Y-69896629D02*
X132582356Y-69851587D01*
X132582356Y-69851587D02*
X132499002Y-69804303D01*
X132499002Y-69804303D02*
X132330052Y-69752533D01*
X132330052Y-69752533D02*
X132246698Y-69705248D01*
X132246698Y-69705248D02*
X132206142Y-69660207D01*
X132206142Y-69660207D02*
X132167830Y-69572367D01*
X132167830Y-69572367D02*
X132172316Y-69486770D01*
X132172316Y-69486770D02*
X132219600Y-69403416D01*
X132219600Y-69403416D02*
X132264642Y-69362861D01*
X132264642Y-69362861D02*
X132352481Y-69324549D01*
X132352481Y-69324549D02*
X132566473Y-69335763D01*
X132566473Y-69335763D02*
X132692626Y-69385291D01*
X132994458Y-69358193D02*
X133161347Y-70268175D01*
X133161347Y-70268175D02*
X133366185Y-69635170D01*
X133366185Y-69635170D02*
X133503735Y-70286118D01*
X133503735Y-70286118D02*
X133764829Y-69398567D01*
X134530896Y-70339950D02*
X134017315Y-70313034D01*
X134274106Y-70326492D02*
X134321208Y-69427725D01*
X134321208Y-69427725D02*
X134228882Y-69551634D01*
X134228882Y-69551634D02*
X134138799Y-69632745D01*
X134138799Y-69632745D02*
X134050960Y-69671058D01*
X131249334Y-87098315D02*
X131375487Y-87147842D01*
X131375487Y-87147842D02*
X131589479Y-87159057D01*
X131589479Y-87159057D02*
X131677318Y-87120745D01*
X131677318Y-87120745D02*
X131722360Y-87080189D01*
X131722360Y-87080189D02*
X131769644Y-86996835D01*
X131769644Y-86996835D02*
X131774130Y-86911238D01*
X131774130Y-86911238D02*
X131735818Y-86823399D01*
X131735818Y-86823399D02*
X131695262Y-86778357D01*
X131695262Y-86778357D02*
X131611908Y-86731073D01*
X131611908Y-86731073D02*
X131442958Y-86679303D01*
X131442958Y-86679303D02*
X131359604Y-86632018D01*
X131359604Y-86632018D02*
X131319048Y-86586977D01*
X131319048Y-86586977D02*
X131280736Y-86499137D01*
X131280736Y-86499137D02*
X131285222Y-86413540D01*
X131285222Y-86413540D02*
X131332506Y-86330186D01*
X131332506Y-86330186D02*
X131377548Y-86289631D01*
X131377548Y-86289631D02*
X131465387Y-86251319D01*
X131465387Y-86251319D02*
X131679379Y-86262533D01*
X131679379Y-86262533D02*
X131805532Y-86312061D01*
X132107364Y-86284963D02*
X132274253Y-87194945D01*
X132274253Y-87194945D02*
X132479091Y-86561940D01*
X132479091Y-86561940D02*
X132616641Y-87212888D01*
X132616641Y-87212888D02*
X132877735Y-86325337D01*
X133605308Y-86363467D02*
X133434114Y-86354495D01*
X133434114Y-86354495D02*
X133346274Y-86392808D01*
X133346274Y-86392808D02*
X133301233Y-86433363D01*
X133301233Y-86433363D02*
X133208907Y-86557272D01*
X133208907Y-86557272D02*
X133157137Y-86726223D01*
X133157137Y-86726223D02*
X133139193Y-87068610D01*
X133139193Y-87068610D02*
X133177505Y-87156450D01*
X133177505Y-87156450D02*
X133218061Y-87201491D01*
X133218061Y-87201491D02*
X133301415Y-87248776D01*
X133301415Y-87248776D02*
X133472608Y-87257748D01*
X133472608Y-87257748D02*
X133560448Y-87219435D01*
X133560448Y-87219435D02*
X133605489Y-87178880D01*
X133605489Y-87178880D02*
X133652774Y-87095526D01*
X133652774Y-87095526D02*
X133663989Y-86881534D01*
X133663989Y-86881534D02*
X133625676Y-86793694D01*
X133625676Y-86793694D02*
X133585121Y-86748653D01*
X133585121Y-86748653D02*
X133501767Y-86701368D01*
X133501767Y-86701368D02*
X133330573Y-86692396D01*
X133330573Y-86692396D02*
X133242734Y-86730709D01*
X133242734Y-86730709D02*
X133197692Y-86771264D01*
X133197692Y-86771264D02*
X133150408Y-86854618D01*
X127491490Y-130984216D02*
X127534347Y-130855645D01*
X127534347Y-130855645D02*
X127534347Y-130641359D01*
X127534347Y-130641359D02*
X127491490Y-130555645D01*
X127491490Y-130555645D02*
X127448632Y-130512787D01*
X127448632Y-130512787D02*
X127362918Y-130469930D01*
X127362918Y-130469930D02*
X127277204Y-130469930D01*
X127277204Y-130469930D02*
X127191490Y-130512787D01*
X127191490Y-130512787D02*
X127148632Y-130555645D01*
X127148632Y-130555645D02*
X127105775Y-130641359D01*
X127105775Y-130641359D02*
X127062918Y-130812787D01*
X127062918Y-130812787D02*
X127020061Y-130898502D01*
X127020061Y-130898502D02*
X126977204Y-130941359D01*
X126977204Y-130941359D02*
X126891490Y-130984216D01*
X126891490Y-130984216D02*
X126805775Y-130984216D01*
X126805775Y-130984216D02*
X126720061Y-130941359D01*
X126720061Y-130941359D02*
X126677204Y-130898502D01*
X126677204Y-130898502D02*
X126634347Y-130812787D01*
X126634347Y-130812787D02*
X126634347Y-130598502D01*
X126634347Y-130598502D02*
X126677204Y-130469930D01*
X126634347Y-130169930D02*
X127534347Y-129955644D01*
X127534347Y-129955644D02*
X126891490Y-129784216D01*
X126891490Y-129784216D02*
X127534347Y-129612787D01*
X127534347Y-129612787D02*
X126634347Y-129398502D01*
X127534347Y-128584216D02*
X127534347Y-129098502D01*
X127534347Y-128841359D02*
X126634347Y-128841359D01*
X126634347Y-128841359D02*
X126762918Y-128927073D01*
X126762918Y-128927073D02*
X126848632Y-129012788D01*
X126848632Y-129012788D02*
X126891490Y-129098502D01*
X126634347Y-128284216D02*
X126634347Y-127684216D01*
X126634347Y-127684216D02*
X127534347Y-128069930D01*
X162854596Y-131228880D02*
X162947774Y-131130466D01*
X162947774Y-131130466D02*
X163038335Y-130936258D01*
X163038335Y-130936258D02*
X163035718Y-130840462D01*
X163035718Y-130840462D02*
X163014988Y-130783508D01*
X163014988Y-130783508D02*
X162955417Y-130708442D01*
X162955417Y-130708442D02*
X162877734Y-130672217D01*
X162877734Y-130672217D02*
X162781938Y-130674835D01*
X162781938Y-130674835D02*
X162724984Y-130695564D01*
X162724984Y-130695564D02*
X162649918Y-130755136D01*
X162649918Y-130755136D02*
X162538627Y-130892390D01*
X162538627Y-130892390D02*
X162463561Y-130951962D01*
X162463561Y-130951962D02*
X162406607Y-130972691D01*
X162406607Y-130972691D02*
X162310811Y-130975309D01*
X162310811Y-130975309D02*
X162233128Y-130939084D01*
X162233128Y-130939084D02*
X162173556Y-130864018D01*
X162173556Y-130864018D02*
X162152827Y-130807064D01*
X162152827Y-130807064D02*
X162150209Y-130711268D01*
X162150209Y-130711268D02*
X162240771Y-130517059D01*
X162240771Y-130517059D02*
X162333949Y-130418646D01*
X162421893Y-130128642D02*
X163328131Y-130314789D01*
X163328131Y-130314789D02*
X162817953Y-129887739D01*
X162817953Y-129887739D02*
X163473028Y-130004055D01*
X163473028Y-130004055D02*
X162747913Y-129429490D01*
X163907721Y-129071853D02*
X163690375Y-129537954D01*
X163799048Y-129304904D02*
X162983371Y-128924547D01*
X162983371Y-128924547D02*
X163063672Y-129056568D01*
X163063672Y-129056568D02*
X163105131Y-129170476D01*
X163105131Y-129170476D02*
X163107748Y-129266271D01*
X163436176Y-127953503D02*
X163255054Y-128341921D01*
X163255054Y-128341921D02*
X163625360Y-128561885D01*
X163625360Y-128561885D02*
X163604630Y-128504931D01*
X163604630Y-128504931D02*
X163602013Y-128409135D01*
X163602013Y-128409135D02*
X163692574Y-128214926D01*
X163692574Y-128214926D02*
X163767640Y-128155355D01*
X163767640Y-128155355D02*
X163824594Y-128134625D01*
X163824594Y-128134625D02*
X163920390Y-128132008D01*
X163920390Y-128132008D02*
X164114599Y-128222569D01*
X164114599Y-128222569D02*
X164174170Y-128297635D01*
X164174170Y-128297635D02*
X164194899Y-128354589D01*
X164194899Y-128354589D02*
X164197517Y-128450385D01*
X164197517Y-128450385D02*
X164106956Y-128644594D01*
X164106956Y-128644594D02*
X164031890Y-128704165D01*
X164031890Y-128704165D02*
X163974936Y-128724895D01*
X112635973Y-98453794D02*
X112762125Y-98503322D01*
X112762125Y-98503322D02*
X112976117Y-98514537D01*
X112976117Y-98514537D02*
X113063957Y-98476224D01*
X113063957Y-98476224D02*
X113108998Y-98435669D01*
X113108998Y-98435669D02*
X113156283Y-98352315D01*
X113156283Y-98352315D02*
X113160769Y-98266718D01*
X113160769Y-98266718D02*
X113122456Y-98178878D01*
X113122456Y-98178878D02*
X113081901Y-98133837D01*
X113081901Y-98133837D02*
X112998547Y-98086553D01*
X112998547Y-98086553D02*
X112829596Y-98034782D01*
X112829596Y-98034782D02*
X112746243Y-97987498D01*
X112746243Y-97987498D02*
X112705687Y-97942456D01*
X112705687Y-97942456D02*
X112667375Y-97854617D01*
X112667375Y-97854617D02*
X112671861Y-97769020D01*
X112671861Y-97769020D02*
X112719145Y-97685666D01*
X112719145Y-97685666D02*
X112764186Y-97645111D01*
X112764186Y-97645111D02*
X112852026Y-97606798D01*
X112852026Y-97606798D02*
X113066018Y-97618013D01*
X113066018Y-97618013D02*
X113192170Y-97667540D01*
X113494002Y-97640443D02*
X113660892Y-98550424D01*
X113660892Y-98550424D02*
X113865730Y-97917420D01*
X113865730Y-97917420D02*
X114003279Y-98568368D01*
X114003279Y-98568368D02*
X114264374Y-97680816D01*
X115030441Y-98622199D02*
X114516860Y-98595283D01*
X114773650Y-98608741D02*
X114820753Y-97709975D01*
X114820753Y-97709975D02*
X114728427Y-97833884D01*
X114728427Y-97833884D02*
X114638344Y-97914995D01*
X114638344Y-97914995D02*
X114550504Y-97953307D01*
X115886409Y-98667059D02*
X115372828Y-98640143D01*
X115629619Y-98653601D02*
X115676721Y-97754834D01*
X115676721Y-97754834D02*
X115584395Y-97878743D01*
X115584395Y-97878743D02*
X115494312Y-97959854D01*
X115494312Y-97959854D02*
X115406473Y-97998167D01*
D11*
%TO.C,SW16*%
X159586344Y-118175336D02*
X159261359Y-118118031D01*
X146414542Y-115852792D02*
X146739528Y-115910097D01*
X159854313Y-118527215D02*
X159797008Y-118852201D01*
X146062663Y-116120761D02*
X146005359Y-116445746D01*
X157531770Y-131699018D02*
X157589075Y-131374033D01*
X143740119Y-129292565D02*
X143797424Y-128967579D01*
X157179891Y-131966987D02*
X156854905Y-131909682D01*
X144008088Y-129644444D02*
X144333073Y-129701749D01*
X159591267Y-118176204D02*
G75*
G02*
X159854313Y-118527215I-43979J-307026D01*
G01*
X146063530Y-116115838D02*
G75*
G02*
X146414542Y-115852792I307028J-43981D01*
G01*
X157530903Y-131703941D02*
G75*
G02*
X157179891Y-131966989I-307029J43981D01*
G01*
X144003165Y-129643577D02*
G75*
G02*
X143740117Y-129292565I43981J307029D01*
G01*
D13*
%TO.C,U1*%
X165491561Y-73761263D02*
X165149540Y-74700956D01*
X165491561Y-73761263D02*
X166431253Y-74103283D01*
X154546916Y-103831427D02*
X154187795Y-104818104D01*
X154187795Y-104818104D02*
X155127486Y-105160124D01*
X171322836Y-72797558D02*
X170878210Y-74019159D01*
X170878210Y-74019159D02*
X177925904Y-76584310D01*
X174257130Y-74238016D02*
X175196823Y-74580036D01*
X174346781Y-74430273D02*
X175004566Y-74669687D01*
X174389447Y-74605429D02*
X174859293Y-74776439D01*
X174432113Y-74780585D02*
X174714021Y-74883191D01*
X174504663Y-75019826D02*
X174257130Y-74238016D01*
X175196823Y-74580036D02*
X174504663Y-75019826D01*
X178370531Y-75362709D02*
X171322836Y-72797558D01*
X177925904Y-76584310D02*
X178370531Y-75362709D01*
X182218089Y-79849222D02*
X181325381Y-79524303D01*
X182218089Y-79849222D02*
X181876069Y-80788914D01*
X171256344Y-109966370D02*
X170914323Y-110906063D01*
X170914323Y-110906063D02*
X169965234Y-110560622D01*
D15*
%TO.C,RSW2*%
X132987643Y-105753035D02*
X132974559Y-106002693D01*
X132987643Y-105753035D02*
X133936341Y-105802754D01*
X132820168Y-108948650D02*
X132833252Y-108698992D01*
X132820168Y-108948650D02*
X133768866Y-108998369D01*
X138679832Y-106051350D02*
X137731134Y-106001631D01*
X138679832Y-106051350D02*
X138666748Y-106301008D01*
X138512357Y-109246965D02*
X137563659Y-109197246D01*
X138512357Y-109246965D02*
X138525441Y-108997307D01*
D16*
%TO.C,G\u002A\u002A\u002A*%
G36*
X63648083Y-67350769D02*
G01*
X63681197Y-67354443D01*
X63758548Y-67366059D01*
X63821123Y-67383855D01*
X63879224Y-67412530D01*
X63943168Y-67456779D01*
X63993336Y-67496598D01*
X64076732Y-67571355D01*
X64138806Y-67645119D01*
X64187539Y-67729200D01*
X64229786Y-67831807D01*
X64271249Y-67935631D01*
X64323073Y-68049331D01*
X64380711Y-68164111D01*
X64439616Y-68271171D01*
X64495241Y-68361719D01*
X64526943Y-68406832D01*
X64579033Y-68470355D01*
X64641305Y-68538347D01*
X64707910Y-68605243D01*
X64772997Y-68665465D01*
X64830716Y-68713442D01*
X64875220Y-68743604D01*
X64885682Y-68748570D01*
X64949390Y-68759796D01*
X65002022Y-68740706D01*
X65040352Y-68692756D01*
X65047789Y-68675170D01*
X65058268Y-68639531D01*
X65059587Y-68605925D01*
X65050555Y-68564009D01*
X65029980Y-68503438D01*
X65027069Y-68495486D01*
X64965857Y-68364243D01*
X64875521Y-68223410D01*
X64797938Y-68123041D01*
X64763533Y-68074619D01*
X64726000Y-68011848D01*
X64701155Y-67963966D01*
X64675795Y-67907290D01*
X64664170Y-67867877D01*
X64664097Y-67834395D01*
X64670603Y-67805278D01*
X64696513Y-67752930D01*
X64736364Y-67730079D01*
X64788823Y-67737321D01*
X64805336Y-67744698D01*
X64837947Y-67767687D01*
X64866609Y-67805127D01*
X64897468Y-67865222D01*
X64900220Y-67871264D01*
X64929028Y-67926709D01*
X64967759Y-67985094D01*
X65020964Y-68052586D01*
X65093196Y-68135361D01*
X65102808Y-68146007D01*
X65187300Y-68243715D01*
X65249439Y-68328334D01*
X65292248Y-68407455D01*
X65318757Y-68488655D01*
X65331989Y-68579526D01*
X65334966Y-68687648D01*
X65334271Y-68726288D01*
X65334389Y-68781014D01*
X65339534Y-68810912D01*
X65351548Y-68823731D01*
X65357907Y-68825656D01*
X65382115Y-68821236D01*
X65401416Y-68794592D01*
X65417088Y-68742511D01*
X65430413Y-68661774D01*
X65433710Y-68635188D01*
X65439577Y-68509628D01*
X65423332Y-68401045D01*
X65382679Y-68300361D01*
X65326994Y-68213916D01*
X65289752Y-68159809D01*
X65257581Y-68102688D01*
X65226160Y-68033771D01*
X65191166Y-67944275D01*
X65181666Y-67918506D01*
X65153866Y-67841158D01*
X65130147Y-67772646D01*
X65112901Y-67720062D01*
X65104519Y-67690493D01*
X65104301Y-67689332D01*
X65091884Y-67595518D01*
X65092465Y-67527355D01*
X65107826Y-67479744D01*
X65139746Y-67447588D01*
X65190003Y-67425786D01*
X65197006Y-67423722D01*
X65265938Y-67404089D01*
X65284085Y-67467149D01*
X65319802Y-67589861D01*
X65349216Y-67686432D01*
X65374513Y-67762326D01*
X65397885Y-67823019D01*
X65421520Y-67873972D01*
X65447607Y-67920660D01*
X65478334Y-67968549D01*
X65494022Y-67991601D01*
X65536871Y-68055127D01*
X65565411Y-68102995D01*
X65584434Y-68146123D01*
X65598731Y-68195439D01*
X65613096Y-68261860D01*
X65613513Y-68263914D01*
X65625946Y-68332280D01*
X65634230Y-68392193D01*
X65637061Y-68433602D01*
X65636561Y-68441606D01*
X65640254Y-68500896D01*
X65665976Y-68547985D01*
X65695536Y-68568669D01*
X65747806Y-68575808D01*
X65788902Y-68553391D01*
X65811357Y-68511839D01*
X65825016Y-68479669D01*
X65852139Y-68426666D01*
X65888976Y-68359828D01*
X65931768Y-68286161D01*
X65937820Y-68276036D01*
X65997902Y-68180198D01*
X66048837Y-68109217D01*
X66094574Y-68057944D01*
X66125869Y-68030824D01*
X66168829Y-67998675D01*
X66195363Y-67983691D01*
X66215027Y-67983117D01*
X66237368Y-67994204D01*
X66242425Y-67997234D01*
X66277387Y-68027690D01*
X66296119Y-68057272D01*
X66298976Y-68103602D01*
X66283896Y-68169907D01*
X66252923Y-68250235D01*
X66208102Y-68338633D01*
X66187476Y-68373735D01*
X66146491Y-68444619D01*
X66100945Y-68529206D01*
X66059527Y-68611270D01*
X66052707Y-68625520D01*
X65993071Y-68758816D01*
X65950951Y-68871603D01*
X65924822Y-68969997D01*
X65913163Y-69060120D01*
X65914454Y-69148086D01*
X65916805Y-69172082D01*
X65920648Y-69258697D01*
X65909409Y-69317396D01*
X65883216Y-69347574D01*
X65879759Y-69349008D01*
X65851767Y-69351063D01*
X65800343Y-69347963D01*
X65734250Y-69340390D01*
X65696481Y-69334826D01*
X65528447Y-69310344D01*
X65367555Y-69291108D01*
X65218387Y-69277434D01*
X65085521Y-69269637D01*
X64973537Y-69268035D01*
X64887014Y-69272943D01*
X64859127Y-69277067D01*
X64813795Y-69285772D01*
X64761770Y-69295921D01*
X64761510Y-69295972D01*
X64722936Y-69303356D01*
X64660979Y-69314987D01*
X64584448Y-69329217D01*
X64508744Y-69343194D01*
X64419489Y-69360329D01*
X64329876Y-69378759D01*
X64251575Y-69396021D01*
X64205193Y-69407263D01*
X64097525Y-69435305D01*
X64089159Y-69375569D01*
X64080257Y-69336896D01*
X64062254Y-69276089D01*
X64037791Y-69201573D01*
X64010256Y-69123803D01*
X63979056Y-69040688D01*
X63954223Y-68980939D01*
X63931636Y-68936916D01*
X63907173Y-68900975D01*
X63876712Y-68865481D01*
X63863011Y-68850839D01*
X63786921Y-68770196D01*
X63730642Y-68709399D01*
X63691189Y-68664817D01*
X63665575Y-68632810D01*
X63650814Y-68609743D01*
X63643919Y-68591976D01*
X63642282Y-68581989D01*
X63652994Y-68547815D01*
X63686441Y-68524706D01*
X63733709Y-68515389D01*
X63785883Y-68522594D01*
X63807530Y-68531412D01*
X63852876Y-68559712D01*
X63902180Y-68598373D01*
X63946268Y-68639279D01*
X63975957Y-68674309D01*
X63982089Y-68685761D01*
X64002412Y-68710221D01*
X64015767Y-68718468D01*
X64041205Y-68735408D01*
X64081170Y-68767365D01*
X64120321Y-68801455D01*
X64182723Y-68848355D01*
X64232975Y-68865042D01*
X64271379Y-68851570D01*
X64287503Y-68831431D01*
X64293969Y-68792567D01*
X64284108Y-68733582D01*
X64260829Y-68660835D01*
X64227046Y-68580690D01*
X64185664Y-68499506D01*
X64139592Y-68423647D01*
X64091741Y-68359473D01*
X64053912Y-68320632D01*
X64013042Y-68293667D01*
X63952484Y-68263385D01*
X63883989Y-68235545D01*
X63870332Y-68230762D01*
X63792872Y-68203659D01*
X63739968Y-68182344D01*
X63704866Y-68163062D01*
X63680815Y-68142062D01*
X63661060Y-68115584D01*
X63659870Y-68113748D01*
X63643673Y-68067126D01*
X63650435Y-68034209D01*
X63666245Y-68008423D01*
X63692073Y-67994825D01*
X63735127Y-67991741D01*
X63802612Y-67997487D01*
X63806291Y-67997921D01*
X63872139Y-68000659D01*
X63914890Y-67988145D01*
X63941659Y-67957718D01*
X63947470Y-67945110D01*
X63954377Y-67917409D01*
X63950262Y-67885578D01*
X63933072Y-67840064D01*
X63917549Y-67806269D01*
X63886814Y-67747441D01*
X63857110Y-67708805D01*
X63819155Y-67679485D01*
X63799292Y-67667766D01*
X63711697Y-67618216D01*
X63648279Y-67581011D01*
X63604528Y-67552722D01*
X63575941Y-67529920D01*
X63558006Y-67509183D01*
X63546219Y-67487081D01*
X63539747Y-67470438D01*
X63528249Y-67411550D01*
X63536295Y-67375028D01*
X63548097Y-67357616D01*
X63565495Y-67348503D01*
X63596239Y-67346588D01*
X63648083Y-67350769D01*
G37*
D15*
%TO.C,J2*%
X155715836Y-67343516D02*
X156074958Y-66356839D01*
X151936514Y-77727119D02*
X152295635Y-76740442D01*
X157061635Y-66715960D02*
X156074958Y-66356839D01*
X152923191Y-78086240D02*
X151936514Y-77727119D01*
X161807082Y-68443161D02*
X160820405Y-68084040D01*
X161447961Y-69429839D02*
X161807082Y-68443161D01*
X157668639Y-79813442D02*
X156681962Y-79454321D01*
X157668639Y-79813442D02*
X158027760Y-78826765D01*
D11*
%TO.C,SW14*%
X56423793Y-115875957D02*
X56509202Y-116194710D01*
X59885498Y-128795213D02*
X59800089Y-128476458D01*
X56629456Y-115484384D02*
X56948209Y-115398975D01*
X60277070Y-129000875D02*
X60595825Y-128915466D01*
X69548712Y-112022678D02*
X69229959Y-112108087D01*
X73196328Y-125539170D02*
X72877575Y-125624579D01*
X69940285Y-112228341D02*
X70025694Y-112547094D01*
X73401991Y-125147597D02*
X73316582Y-124828844D01*
X56422499Y-115871128D02*
G75*
G02*
X56629456Y-115484384I296847J89896D01*
G01*
X60272242Y-129002169D02*
G75*
G02*
X59885498Y-128795213I-89895J296848D01*
G01*
X69553541Y-112021385D02*
G75*
G02*
X69940286Y-112228341I89895J-296849D01*
G01*
X73403284Y-125152426D02*
G75*
G02*
X73196328Y-125539171I-296849J-89895D01*
G01*
%TO.C,SW10*%
X52023869Y-99455218D02*
X52109278Y-99773971D01*
X55485574Y-112374474D02*
X55400165Y-112055719D01*
X52229532Y-99063645D02*
X52548285Y-98978236D01*
X55877146Y-112580136D02*
X56195901Y-112494727D01*
X65148788Y-95601939D02*
X64830035Y-95687348D01*
X68796404Y-109118431D02*
X68477651Y-109203840D01*
X65540361Y-95807602D02*
X65625770Y-96126355D01*
X69002067Y-108726858D02*
X68916658Y-108408105D01*
X52022575Y-99450389D02*
G75*
G02*
X52229532Y-99063645I296847J89896D01*
G01*
X55872318Y-112581430D02*
G75*
G02*
X55485574Y-112374474I-89895J296848D01*
G01*
X65153617Y-95600646D02*
G75*
G02*
X65540362Y-95807602I89895J-296849D01*
G01*
X69003360Y-108731687D02*
G75*
G02*
X68796404Y-109118432I-296849J-89895D01*
G01*
%TO.C,SW5*%
X47623945Y-83034479D02*
X47709354Y-83353232D01*
X51085650Y-95953735D02*
X51000241Y-95634980D01*
X47829608Y-82642906D02*
X48148361Y-82557497D01*
X51477222Y-96159397D02*
X51795977Y-96073988D01*
X60748864Y-79181200D02*
X60430111Y-79266609D01*
X64396480Y-92697692D02*
X64077727Y-92783101D01*
X61140437Y-79386863D02*
X61225846Y-79705616D01*
X64602143Y-92306119D02*
X64516734Y-91987366D01*
X47622651Y-83029650D02*
G75*
G02*
X47829608Y-82642906I296847J89896D01*
G01*
X51472394Y-96160691D02*
G75*
G02*
X51085650Y-95953735I-89895J296848D01*
G01*
X60753693Y-79179907D02*
G75*
G02*
X61140438Y-79386863I89895J-296849D01*
G01*
X64603436Y-92310948D02*
G75*
G02*
X64396480Y-92697693I-296849J-89895D01*
G01*
%TO.C,SW4*%
X68452078Y-65187033D02*
X68498004Y-65513822D01*
X70313518Y-78431868D02*
X70267592Y-78105080D01*
X68703928Y-64823444D02*
X69030716Y-64777518D01*
X70677108Y-78683718D02*
X71003896Y-78637792D01*
X81948764Y-62962003D02*
X81621975Y-63007929D01*
X83921944Y-76822278D02*
X83595156Y-76868204D01*
X82312353Y-63213853D02*
X82358279Y-63540641D01*
X84173794Y-76458689D02*
X84127868Y-76131900D01*
X68451382Y-65182084D02*
G75*
G02*
X68703928Y-64823445I305589J53049D01*
G01*
X70672158Y-78684415D02*
G75*
G02*
X70313518Y-78431868I-53048J305591D01*
G01*
X81953713Y-62961307D02*
G75*
G02*
X82312354Y-63213853I53048J-305593D01*
G01*
X84174490Y-76463638D02*
G75*
G02*
X83921944Y-76822279I-305593J-53048D01*
G01*
%TO.C,SW9*%
X70818021Y-82021590D02*
X70863947Y-82348379D01*
X72679461Y-95266425D02*
X72633535Y-94939637D01*
X71069871Y-81658001D02*
X71396659Y-81612075D01*
X73043051Y-95518275D02*
X73369839Y-95472349D01*
X84314707Y-79796560D02*
X83987918Y-79842486D01*
X86287887Y-93656835D02*
X85961099Y-93702761D01*
X84678296Y-80048410D02*
X84724222Y-80375198D01*
X86539737Y-93293246D02*
X86493811Y-92966457D01*
X70817325Y-82016641D02*
G75*
G02*
X71069871Y-81658002I305589J53049D01*
G01*
X73038101Y-95518972D02*
G75*
G02*
X72679461Y-95266425I-53048J305591D01*
G01*
X84319656Y-79795864D02*
G75*
G02*
X84678297Y-80048410I53048J-305593D01*
G01*
X86540433Y-93298195D02*
G75*
G02*
X86287887Y-93656836I-305593J-53048D01*
G01*
%TO.C,SW13*%
X73183964Y-98856147D02*
X73229890Y-99182936D01*
X75045404Y-112100982D02*
X74999478Y-111774194D01*
X73435814Y-98492558D02*
X73762602Y-98446632D01*
X75408994Y-112352832D02*
X75735782Y-112306906D01*
X86680650Y-96631117D02*
X86353861Y-96677043D01*
X88653830Y-110491392D02*
X88327042Y-110537318D01*
X87044239Y-96882967D02*
X87090165Y-97209755D01*
X88905680Y-110127803D02*
X88859754Y-109801014D01*
X73183268Y-98851198D02*
G75*
G02*
X73435814Y-98492559I305589J53049D01*
G01*
X75404044Y-112353529D02*
G75*
G02*
X75045404Y-112100982I-53048J305591D01*
G01*
X86685599Y-96630421D02*
G75*
G02*
X87044240Y-96882967I53048J-305593D01*
G01*
X88906376Y-110132752D02*
G75*
G02*
X88653830Y-110491393I-305593J-53048D01*
G01*
%TO.C,SW12*%
X92999999Y-91425001D02*
X92999998Y-91755000D01*
X92999999Y-104799999D02*
X93000000Y-104470000D01*
X93300000Y-91100000D02*
X93629999Y-91100001D01*
X93325000Y-105100000D02*
X93654999Y-105100001D01*
X106674999Y-91099999D02*
X106345000Y-91099998D01*
X106700000Y-105100000D02*
X106370001Y-105099999D01*
X107000000Y-91400000D02*
X106999999Y-91729999D01*
X107000001Y-104774999D02*
X107000002Y-104445000D01*
X92999998Y-91420002D02*
G75*
G02*
X93300000Y-91100000I309999J10003D01*
G01*
X93320001Y-105100001D02*
G75*
G02*
X92999999Y-104799999I-10002J310000D01*
G01*
X106679998Y-91099998D02*
G75*
G02*
X107000002Y-91400000I10002J-310002D01*
G01*
X107000002Y-104779998D02*
G75*
G02*
X106700000Y-105100002I-310002J-10002D01*
G01*
%TO.C,SW8*%
X92999999Y-74425001D02*
X92999998Y-74755000D01*
X92999999Y-87799999D02*
X93000000Y-87470000D01*
X93300000Y-74100000D02*
X93629999Y-74100001D01*
X93325000Y-88100000D02*
X93654999Y-88100001D01*
X106674999Y-74099999D02*
X106345000Y-74099998D01*
X106700000Y-88100000D02*
X106370001Y-88099999D01*
X107000000Y-74400000D02*
X106999999Y-74729999D01*
X107000001Y-87774999D02*
X107000002Y-87445000D01*
X92999998Y-74420002D02*
G75*
G02*
X93300000Y-74100000I309999J10003D01*
G01*
X93320001Y-88100001D02*
G75*
G02*
X92999999Y-87799999I-10002J310000D01*
G01*
X106679998Y-74099998D02*
G75*
G02*
X107000002Y-74400000I10002J-310002D01*
G01*
X107000002Y-87779998D02*
G75*
G02*
X106700000Y-88100002I-310002J-10002D01*
G01*
%TO.C,SW3*%
X92999999Y-57425001D02*
X92999998Y-57755000D01*
X92999999Y-70799999D02*
X93000000Y-70470000D01*
X93300000Y-57100000D02*
X93629999Y-57100001D01*
X93325000Y-71100000D02*
X93654999Y-71100001D01*
X106674999Y-57099999D02*
X106345000Y-57099998D01*
X106700000Y-71100000D02*
X106370001Y-71099999D01*
X107000000Y-57400000D02*
X106999999Y-57729999D01*
X107000001Y-70774999D02*
X107000002Y-70445000D01*
X92999998Y-57420002D02*
G75*
G02*
X93300000Y-57100000I309999J10003D01*
G01*
X93320001Y-71100001D02*
G75*
G02*
X92999999Y-70799999I-10002J310000D01*
G01*
X106679998Y-57099998D02*
G75*
G02*
X107000002Y-57400000I10002J-310002D01*
G01*
X107000002Y-70779998D02*
G75*
G02*
X106700000Y-71100002I-310002J-10002D01*
G01*
%TO.C,SW7*%
X113064664Y-80411325D02*
X113047392Y-80740872D01*
X112364670Y-93767993D02*
X112381942Y-93438446D01*
X113381263Y-80102470D02*
X113710810Y-80119742D01*
X112673525Y-94084592D02*
X113003072Y-94101864D01*
X126737932Y-80802463D02*
X126408385Y-80785191D01*
X126030195Y-94784586D02*
X125700648Y-94767314D01*
X127046787Y-81119062D02*
X127029515Y-81448609D01*
X126346794Y-94475731D02*
X126364066Y-94146184D01*
X113064925Y-80406333D02*
G75*
G02*
X113381263Y-80102471I310097J-6235D01*
G01*
X112668533Y-94084331D02*
G75*
G02*
X112364671Y-93767993I6236J310098D01*
G01*
X126742924Y-80802724D02*
G75*
G02*
X127046788Y-81119062I-6236J-310100D01*
G01*
X126346533Y-94480723D02*
G75*
G02*
X126030195Y-94784587I-310100J6236D01*
G01*
%TO.C,SW2*%
X113954376Y-63434623D02*
X113937104Y-63764170D01*
X113254382Y-76791291D02*
X113271654Y-76461744D01*
X114270975Y-63125768D02*
X114600522Y-63143040D01*
X113563237Y-77107890D02*
X113892784Y-77125162D01*
X127627644Y-63825761D02*
X127298097Y-63808489D01*
X126919907Y-77807884D02*
X126590360Y-77790612D01*
X127936499Y-64142360D02*
X127919227Y-64471907D01*
X127236506Y-77499029D02*
X127253778Y-77169482D01*
X113954637Y-63429631D02*
G75*
G02*
X114270975Y-63125769I310097J-6235D01*
G01*
X113558245Y-77107629D02*
G75*
G02*
X113254383Y-76791291I6236J310098D01*
G01*
X127632636Y-63826022D02*
G75*
G02*
X127936500Y-64142360I-6236J-310100D01*
G01*
X127236245Y-77504021D02*
G75*
G02*
X126919907Y-77807885I-310100J6236D01*
G01*
%TO.C,SW1*%
X131720824Y-69058089D02*
X131703552Y-69387636D01*
X131020830Y-82414757D02*
X131038102Y-82085210D01*
X132037423Y-68749234D02*
X132366970Y-68766506D01*
X131329685Y-82731356D02*
X131659232Y-82748628D01*
X145394092Y-69449227D02*
X145064545Y-69431955D01*
X144686355Y-83431350D02*
X144356808Y-83414078D01*
X145702947Y-69765826D02*
X145685675Y-70095373D01*
X145002954Y-83122495D02*
X145020226Y-82792948D01*
X131721085Y-69053097D02*
G75*
G02*
X132037423Y-68749235I310097J-6235D01*
G01*
X131324693Y-82731095D02*
G75*
G02*
X131020831Y-82414757I6236J310098D01*
G01*
X145399084Y-69449488D02*
G75*
G02*
X145702948Y-69765826I-6236J-310100D01*
G01*
X145002693Y-83127487D02*
G75*
G02*
X144686355Y-83431351I-310100J6236D01*
G01*
%TO.C,SW6*%
X130831113Y-86034791D02*
X130813841Y-86364338D01*
X130131119Y-99391459D02*
X130148391Y-99061912D01*
X131147712Y-85725936D02*
X131477259Y-85743208D01*
X130439974Y-99708058D02*
X130769521Y-99725330D01*
X144504381Y-86425929D02*
X144174834Y-86408657D01*
X143796644Y-100408052D02*
X143467097Y-100390780D01*
X144813236Y-86742528D02*
X144795964Y-87072075D01*
X144113243Y-100099197D02*
X144130515Y-99769650D01*
X130831374Y-86029799D02*
G75*
G02*
X131147712Y-85725937I310097J-6235D01*
G01*
X130434982Y-99707797D02*
G75*
G02*
X130131120Y-99391459I6236J310098D01*
G01*
X144509373Y-86426190D02*
G75*
G02*
X144813237Y-86742528I-6236J-310100D01*
G01*
X144112982Y-100104189D02*
G75*
G02*
X143796644Y-100408053I-310100J6236D01*
G01*
%TO.C,SW17*%
X126451311Y-131510909D02*
X126781310Y-131510910D01*
X139826309Y-131510909D02*
X139496310Y-131510908D01*
X126126310Y-131210908D02*
X126126311Y-130880909D01*
X140126310Y-131185908D02*
X140126311Y-130855909D01*
X126126309Y-117835909D02*
X126126308Y-118165908D01*
X140126310Y-117810908D02*
X140126309Y-118140907D01*
X126426310Y-117510908D02*
X126756309Y-117510909D01*
X139801309Y-117510907D02*
X139471310Y-117510906D01*
X126446312Y-131510910D02*
G75*
G02*
X126126310Y-131210908I-10003J309999D01*
G01*
X140126311Y-131190907D02*
G75*
G02*
X139826309Y-131510909I-310000J-10002D01*
G01*
X126126308Y-117830910D02*
G75*
G02*
X126426310Y-117510906I310002J10002D01*
G01*
X139806308Y-117510906D02*
G75*
G02*
X140126312Y-117810908I10002J-310002D01*
G01*
%TO.C,SW15*%
X161689284Y-131266627D02*
X161988364Y-131406091D01*
X173811149Y-136919145D02*
X173512069Y-136779681D01*
X161521519Y-130857382D02*
X161660984Y-130558302D01*
X174220394Y-136751380D02*
X174359858Y-136452300D01*
X167174037Y-118735516D02*
X167034573Y-119034596D01*
X179872913Y-124629514D02*
X179733448Y-124928594D01*
X167583282Y-118567751D02*
X167882362Y-118707216D01*
X179705148Y-124220269D02*
X179406068Y-124080805D01*
X161684753Y-131264514D02*
G75*
G02*
X161521520Y-130857382I121946J285181D01*
G01*
X174218282Y-136755911D02*
G75*
G02*
X173811148Y-136919146I-285183J121945D01*
G01*
X167176149Y-118730985D02*
G75*
G02*
X167583282Y-118567750I285184J-121948D01*
G01*
X179709679Y-124222381D02*
G75*
G02*
X179872914Y-124629514I-121948J-285184D01*
G01*
%TO.C,SW11*%
X112174953Y-97388027D02*
X112157681Y-97717574D01*
X111474959Y-110744695D02*
X111492231Y-110415148D01*
X112491552Y-97079172D02*
X112821099Y-97096444D01*
X111783814Y-111061294D02*
X112113361Y-111078566D01*
X125848221Y-97779165D02*
X125518674Y-97761893D01*
X125140484Y-111761288D02*
X124810937Y-111744016D01*
X126157076Y-98095764D02*
X126139804Y-98425311D01*
X125457083Y-111452433D02*
X125474355Y-111122886D01*
X112175214Y-97383035D02*
G75*
G02*
X112491552Y-97079173I310097J-6235D01*
G01*
X111778822Y-111061033D02*
G75*
G02*
X111474960Y-110744695I6236J310098D01*
G01*
X125853213Y-97779426D02*
G75*
G02*
X126157077Y-98095764I-6236J-310100D01*
G01*
X125456822Y-111457425D02*
G75*
G02*
X125140484Y-111761289I-310100J6236D01*
G01*
D16*
%TO.C,G\u002A\u002A\u002A*%
G36*
X139379691Y-56380983D02*
G01*
X139421525Y-56413484D01*
X139430098Y-56420602D01*
X139511816Y-56506371D01*
X139584511Y-56619799D01*
X139648183Y-56760882D01*
X139702829Y-56929617D01*
X139748450Y-57126004D01*
X139785043Y-57350038D01*
X139787822Y-57371003D01*
X139797733Y-57448639D01*
X139803989Y-57503985D01*
X139806906Y-57543573D01*
X139806803Y-57573937D01*
X139803994Y-57601607D01*
X139800160Y-57625350D01*
X139789131Y-57688831D01*
X139834036Y-57648739D01*
X139865114Y-57624176D01*
X139888195Y-57611516D01*
X139892375Y-57611018D01*
X139910913Y-57604865D01*
X139945105Y-57586497D01*
X139977605Y-57566296D01*
X140034852Y-57532576D01*
X140099785Y-57499720D01*
X140130606Y-57486178D01*
X140179188Y-57465086D01*
X140243489Y-57435351D01*
X140313395Y-57401709D01*
X140353010Y-57382029D01*
X140488799Y-57313909D01*
X140602983Y-57257492D01*
X140699764Y-57211060D01*
X140783352Y-57172892D01*
X140857950Y-57141267D01*
X140927764Y-57114466D01*
X140997003Y-57090770D01*
X141069870Y-57068458D01*
X141150572Y-57045809D01*
X141221666Y-57026803D01*
X141278622Y-57012781D01*
X141313662Y-57007805D01*
X141332630Y-57012205D01*
X141341371Y-57026309D01*
X141343103Y-57033640D01*
X141333536Y-57054292D01*
X141301034Y-57087563D01*
X141247896Y-57131588D01*
X141176417Y-57184497D01*
X141088897Y-57244425D01*
X141062332Y-57261880D01*
X141006089Y-57303807D01*
X140935113Y-57365265D01*
X140852844Y-57443068D01*
X140762724Y-57534029D01*
X140721270Y-57577615D01*
X140674962Y-57626517D01*
X140634092Y-57668553D01*
X140591823Y-57710524D01*
X140541318Y-57759228D01*
X140481890Y-57815650D01*
X140439071Y-57857382D01*
X140405431Y-57892508D01*
X140385926Y-57915744D01*
X140383046Y-57921075D01*
X140371555Y-57938887D01*
X140345553Y-57966992D01*
X140332064Y-57979825D01*
X140300713Y-58013630D01*
X140265742Y-58059013D01*
X140231604Y-58109075D01*
X140202753Y-58156919D01*
X140183639Y-58195647D01*
X140178545Y-58217652D01*
X140191654Y-58216778D01*
X140226233Y-58202444D01*
X140278898Y-58176321D01*
X140346267Y-58140073D01*
X140415222Y-58101013D01*
X140496793Y-58055283D01*
X140577056Y-58012850D01*
X140649806Y-57976811D01*
X140708833Y-57950265D01*
X140741984Y-57937949D01*
X140806685Y-57915836D01*
X140879342Y-57887198D01*
X140932334Y-57863731D01*
X141001818Y-57833106D01*
X141068295Y-57809883D01*
X141138089Y-57792853D01*
X141217520Y-57780802D01*
X141312910Y-57772522D01*
X141430581Y-57766801D01*
X141440292Y-57766449D01*
X141506953Y-57762617D01*
X141568179Y-57756552D01*
X141614203Y-57749315D01*
X141626702Y-57746165D01*
X141699329Y-57714330D01*
X141768893Y-57668127D01*
X141823114Y-57615868D01*
X141827455Y-57610317D01*
X141856141Y-57575721D01*
X141881758Y-57550166D01*
X141886095Y-57546798D01*
X141907797Y-57527124D01*
X141939522Y-57493466D01*
X141963022Y-57466496D01*
X141996629Y-57428311D01*
X142025700Y-57398177D01*
X142038942Y-57386503D01*
X142058845Y-57366031D01*
X142063187Y-57356545D01*
X142074998Y-57350331D01*
X142099306Y-57359714D01*
X142127654Y-57380116D01*
X142148725Y-57402863D01*
X142159692Y-57423246D01*
X142161777Y-57448239D01*
X142154650Y-57486267D01*
X142143907Y-57525484D01*
X142123207Y-57583946D01*
X142094878Y-57638477D01*
X142056717Y-57690741D01*
X142006529Y-57742396D01*
X141942113Y-57795108D01*
X141861273Y-57850536D01*
X141761808Y-57910345D01*
X141641521Y-57976194D01*
X141498213Y-58049748D01*
X141360585Y-58117654D01*
X141271241Y-58161348D01*
X141203557Y-58195276D01*
X141152969Y-58222273D01*
X141114911Y-58245174D01*
X141084819Y-58266815D01*
X141058129Y-58290031D01*
X141030275Y-58317658D01*
X141017780Y-58330584D01*
X140969015Y-58378741D01*
X140916724Y-58426482D01*
X140876550Y-58460005D01*
X140843703Y-58488442D01*
X140796454Y-58533298D01*
X140739983Y-58589469D01*
X140679468Y-58651851D01*
X140647663Y-58685541D01*
X140575801Y-58762410D01*
X140520758Y-58820571D01*
X140479364Y-58862450D01*
X140448447Y-58890477D01*
X140424835Y-58907082D01*
X140405357Y-58914692D01*
X140386839Y-58915736D01*
X140366110Y-58912642D01*
X140354085Y-58910333D01*
X140321985Y-58901498D01*
X140289805Y-58885247D01*
X140251882Y-58857730D01*
X140202554Y-58815090D01*
X140169511Y-58784727D01*
X140068346Y-58699098D01*
X139948688Y-58611711D01*
X139816833Y-58526185D01*
X139679078Y-58446141D01*
X139541720Y-58375199D01*
X139411055Y-58316976D01*
X139293380Y-58275096D01*
X139272847Y-58269240D01*
X139161986Y-58239046D01*
X139076553Y-58215090D01*
X139013937Y-58195834D01*
X138971530Y-58179744D01*
X138946720Y-58165283D01*
X138936900Y-58150914D01*
X138939458Y-58135101D01*
X138951784Y-58116308D01*
X138971269Y-58092999D01*
X138971999Y-58092141D01*
X138998737Y-58056184D01*
X139016645Y-58017866D01*
X139029978Y-57966588D01*
X139036477Y-57931504D01*
X139045090Y-57802014D01*
X139026062Y-57672450D01*
X138979037Y-57541511D01*
X138903658Y-57407898D01*
X138884976Y-57380493D01*
X138849131Y-57327873D01*
X138828450Y-57292130D01*
X138820429Y-57267025D01*
X138822572Y-57246313D01*
X138826823Y-57235314D01*
X138849446Y-57194659D01*
X138875544Y-57176167D01*
X138913221Y-57176768D01*
X138952906Y-57187565D01*
X139002186Y-57206338D01*
X139045098Y-57227719D01*
X139058665Y-57236580D01*
X139102517Y-57281359D01*
X139147083Y-57347205D01*
X139187701Y-57426591D01*
X139208729Y-57478954D01*
X139231581Y-57533912D01*
X139252773Y-57564616D01*
X139272229Y-57575090D01*
X139296336Y-57572726D01*
X139317838Y-57554169D01*
X139337724Y-57516928D01*
X139356978Y-57458513D01*
X139376589Y-57376433D01*
X139397542Y-57268199D01*
X139400602Y-57251023D01*
X139416571Y-57157101D01*
X139427077Y-57084427D01*
X139432698Y-57025791D01*
X139434020Y-56973980D01*
X139431626Y-56921783D01*
X139429376Y-56894996D01*
X139417996Y-56813017D01*
X139399008Y-56719611D01*
X139374858Y-56624172D01*
X139347990Y-56536097D01*
X139320851Y-56464782D01*
X139313088Y-56448195D01*
X139298320Y-56412732D01*
X139299421Y-56391429D01*
X139310208Y-56378929D01*
X139330475Y-56365945D01*
X139351489Y-56365883D01*
X139379691Y-56380983D01*
G37*
G36*
X116516869Y-126352530D02*
G01*
X116532831Y-126369985D01*
X116561385Y-126404015D01*
X116501840Y-126496462D01*
X116468584Y-126547087D01*
X116434862Y-126596774D01*
X116407107Y-126636076D01*
X116403208Y-126641363D01*
X116380013Y-126673465D01*
X116347311Y-126719990D01*
X116309790Y-126774222D01*
X116278684Y-126819779D01*
X116238532Y-126876718D01*
X116196611Y-126932416D01*
X116158539Y-126979595D01*
X116135382Y-127005529D01*
X116067873Y-127077470D01*
X116004124Y-127149506D01*
X115946678Y-127218413D01*
X115898081Y-127280966D01*
X115860875Y-127333941D01*
X115837604Y-127374115D01*
X115831346Y-127390914D01*
X115835874Y-127419638D01*
X115857000Y-127442407D01*
X115886105Y-127453877D01*
X115914567Y-127448708D01*
X115919228Y-127445373D01*
X115937683Y-127436960D01*
X115973603Y-127425237D01*
X116019559Y-127412239D01*
X116068119Y-127399999D01*
X116111854Y-127390553D01*
X116131571Y-127387227D01*
X116260559Y-127372065D01*
X116392534Y-127362007D01*
X116522425Y-127357095D01*
X116645159Y-127357372D01*
X116755663Y-127362878D01*
X116848869Y-127373657D01*
X116887263Y-127381005D01*
X116997630Y-127412740D01*
X117097100Y-127454621D01*
X117171815Y-127498909D01*
X117234663Y-127547969D01*
X117273579Y-127588503D01*
X117288698Y-127620302D01*
X117280154Y-127643157D01*
X117248085Y-127656860D01*
X117192622Y-127661201D01*
X117113902Y-127655973D01*
X117073569Y-127650821D01*
X116944593Y-127634809D01*
X116825745Y-127625635D01*
X116705768Y-127622765D01*
X116573408Y-127625668D01*
X116556930Y-127626345D01*
X116409045Y-127639209D01*
X116278995Y-127665129D01*
X116162018Y-127705435D01*
X116053349Y-127761455D01*
X116038036Y-127770937D01*
X115998440Y-127793915D01*
X115961437Y-127812112D01*
X115949147Y-127816942D01*
X115918446Y-127831624D01*
X115900304Y-127846201D01*
X115897874Y-127856271D01*
X115914596Y-127859809D01*
X115949472Y-127857914D01*
X115982672Y-127858267D01*
X116035406Y-127862883D01*
X116102225Y-127871107D01*
X116177679Y-127882279D01*
X116243817Y-127893474D01*
X116324529Y-127907737D01*
X116403183Y-127921251D01*
X116473699Y-127932996D01*
X116529995Y-127941957D01*
X116560125Y-127946360D01*
X116620509Y-127956195D01*
X116685308Y-127969347D01*
X116723537Y-127978579D01*
X116778325Y-127996604D01*
X116847634Y-128024436D01*
X116924192Y-128058714D01*
X117000725Y-128096077D01*
X117069958Y-128133165D01*
X117110701Y-128157490D01*
X117147165Y-128179670D01*
X117176197Y-128195557D01*
X117188065Y-128200606D01*
X117205194Y-128210071D01*
X117235301Y-128231303D01*
X117271755Y-128259616D01*
X117308227Y-128290117D01*
X117328517Y-128310816D01*
X117336858Y-128327127D01*
X117337543Y-128343803D01*
X117328559Y-128369106D01*
X117317199Y-128378838D01*
X117299070Y-128377077D01*
X117262134Y-128367901D01*
X117211462Y-128352742D01*
X117152125Y-128333028D01*
X117140991Y-128329134D01*
X117013018Y-128286532D01*
X116899091Y-128254582D01*
X116791076Y-128231420D01*
X116680843Y-128215185D01*
X116613300Y-128208262D01*
X116476660Y-128202590D01*
X116344000Y-128209395D01*
X116222917Y-128228106D01*
X116169598Y-128241598D01*
X116120312Y-128257758D01*
X116058314Y-128280473D01*
X115992160Y-128306365D01*
X115930406Y-128332053D01*
X115881608Y-128354159D01*
X115870425Y-128359769D01*
X115831364Y-128367251D01*
X115798926Y-128356693D01*
X115767153Y-128333792D01*
X115748795Y-128301758D01*
X115741991Y-128255324D01*
X115743893Y-128200747D01*
X115745899Y-128158379D01*
X115743900Y-128118495D01*
X115736779Y-128075277D01*
X115723421Y-128022903D01*
X115702713Y-127955552D01*
X115688770Y-127912984D01*
X115620238Y-127724739D01*
X115547609Y-127561181D01*
X115470635Y-127421824D01*
X115389076Y-127306185D01*
X115369885Y-127283174D01*
X115330381Y-127236862D01*
X115304859Y-127204676D01*
X115290498Y-127181612D01*
X115284472Y-127162665D01*
X115283962Y-127142832D01*
X115284779Y-127132289D01*
X115288979Y-127085033D01*
X115363360Y-127070282D01*
X115472997Y-127047679D01*
X115565481Y-127026828D01*
X115638912Y-127008220D01*
X115691391Y-126992343D01*
X115721021Y-126979686D01*
X115724339Y-126977336D01*
X115748164Y-126962696D01*
X115786983Y-126944050D01*
X115825748Y-126928053D01*
X115858051Y-126914609D01*
X115888741Y-126898682D01*
X115922093Y-126877339D01*
X115962383Y-126847643D01*
X116013886Y-126806662D01*
X116070615Y-126759981D01*
X116134034Y-126706118D01*
X116200672Y-126647345D01*
X116267376Y-126586663D01*
X116330997Y-126527080D01*
X116388382Y-126471596D01*
X116436380Y-126423217D01*
X116471842Y-126384946D01*
X116491614Y-126359786D01*
X116493069Y-126357261D01*
X116503168Y-126345960D01*
X116516869Y-126352530D01*
G37*
G36*
X118936036Y-54833404D02*
G01*
X118945934Y-54867339D01*
X118947996Y-54895232D01*
X118942293Y-54950826D01*
X118928091Y-55010881D01*
X118908212Y-55091064D01*
X118892636Y-55240639D01*
X118899897Y-55396330D01*
X118929216Y-55547980D01*
X118979816Y-55685433D01*
X119036171Y-55790193D01*
X119107793Y-55889102D01*
X119186816Y-55962025D01*
X119276569Y-56012635D01*
X119326699Y-56031629D01*
X119392854Y-56051540D01*
X119446032Y-56062083D01*
X119501377Y-56075159D01*
X119570127Y-56118797D01*
X119581241Y-56129340D01*
X119613928Y-56173671D01*
X119618929Y-56217521D01*
X119595613Y-56265720D01*
X119543346Y-56323096D01*
X119483815Y-56380008D01*
X119401935Y-56460434D01*
X119335973Y-56529003D01*
X119280460Y-56591721D01*
X119229934Y-56654593D01*
X119178929Y-56723627D01*
X119172417Y-56732677D01*
X119128963Y-56791171D01*
X119087964Y-56843587D01*
X119057525Y-56879517D01*
X119046224Y-56892277D01*
X119007456Y-56941242D01*
X118970913Y-56993374D01*
X118954026Y-57019215D01*
X118913477Y-57080037D01*
X118873618Y-57138589D01*
X118853471Y-57170364D01*
X118823116Y-57228547D01*
X118804640Y-57277782D01*
X118798592Y-57302104D01*
X118784377Y-57359402D01*
X118766404Y-57431950D01*
X118747156Y-57509728D01*
X118740662Y-57535848D01*
X118722866Y-57603585D01*
X118708180Y-57648022D01*
X118693381Y-57675760D01*
X118675244Y-57693406D01*
X118650544Y-57707560D01*
X118606434Y-57722296D01*
X118554889Y-57716840D01*
X118527739Y-57706621D01*
X118452567Y-57686812D01*
X118361151Y-57670146D01*
X118264610Y-57658153D01*
X118174058Y-57652364D01*
X118100617Y-57654308D01*
X117979797Y-57673627D01*
X117823499Y-57719877D01*
X117685212Y-57786299D01*
X117643791Y-57810051D01*
X117573933Y-57846970D01*
X117512392Y-57876248D01*
X117457353Y-57895469D01*
X117419978Y-57894425D01*
X117401459Y-57869416D01*
X117398433Y-57818745D01*
X117398554Y-57816710D01*
X117403523Y-57787575D01*
X117417921Y-57761110D01*
X117447316Y-57729857D01*
X117497278Y-57686358D01*
X117541024Y-57650796D01*
X117616304Y-57593397D01*
X117695967Y-57536281D01*
X117774010Y-57483465D01*
X117844435Y-57438967D01*
X117901239Y-57406805D01*
X117938423Y-57390995D01*
X117965715Y-57383221D01*
X117977820Y-57373017D01*
X117968239Y-57356510D01*
X117939925Y-57337584D01*
X117897603Y-57323251D01*
X117855319Y-57308540D01*
X117825059Y-57287719D01*
X117809831Y-57274833D01*
X117774723Y-57263182D01*
X117773523Y-57263168D01*
X117738186Y-57254998D01*
X117695440Y-57236295D01*
X117669022Y-57222541D01*
X117616279Y-57196110D01*
X117549076Y-57163084D01*
X117475746Y-57127589D01*
X117425067Y-57102573D01*
X117339207Y-57055058D01*
X117268622Y-57006821D01*
X117202553Y-56950905D01*
X117196324Y-56945170D01*
X117141666Y-56895051D01*
X117072216Y-56831607D01*
X116996246Y-56762381D01*
X116922023Y-56694919D01*
X116864546Y-56642599D01*
X116749331Y-56536353D01*
X116654996Y-56446898D01*
X116578659Y-56371227D01*
X116517436Y-56306335D01*
X116468444Y-56249220D01*
X116428801Y-56196875D01*
X116395622Y-56146297D01*
X116363019Y-56089280D01*
X116335519Y-56026616D01*
X116328026Y-55980919D01*
X116333930Y-55948609D01*
X116366060Y-55902039D01*
X116427102Y-55869265D01*
X116428536Y-55868770D01*
X116445448Y-55864609D01*
X116461999Y-55867174D01*
X116482685Y-55879945D01*
X116512003Y-55906402D01*
X116554449Y-55950024D01*
X116614521Y-56014291D01*
X116635028Y-56036046D01*
X116710098Y-56111570D01*
X116791107Y-56187891D01*
X116872381Y-56260081D01*
X116948252Y-56323207D01*
X117013049Y-56372341D01*
X117061101Y-56402551D01*
X117083386Y-56416984D01*
X117126460Y-56449084D01*
X117182027Y-56492968D01*
X117243510Y-56543548D01*
X117318183Y-56603011D01*
X117415012Y-56670446D01*
X117499651Y-56717930D01*
X117572082Y-56751826D01*
X117660106Y-56792251D01*
X117726540Y-56821437D01*
X117776059Y-56841333D01*
X117813337Y-56853886D01*
X117843047Y-56861042D01*
X117845613Y-56861551D01*
X117888744Y-56874220D01*
X117948245Y-56896274D01*
X118012046Y-56923269D01*
X118127889Y-56975616D01*
X118065166Y-56868014D01*
X118031740Y-56811203D01*
X117934413Y-56653301D01*
X117842933Y-56518300D01*
X117752704Y-56400466D01*
X117659133Y-56294070D01*
X117557624Y-56193379D01*
X117443581Y-56092661D01*
X117423785Y-56075943D01*
X117358260Y-56019429D01*
X117312016Y-55976510D01*
X117279947Y-55941786D01*
X117256947Y-55909864D01*
X117237907Y-55875345D01*
X117220003Y-55837880D01*
X117211289Y-55807408D01*
X117218928Y-55786104D01*
X117243464Y-55762906D01*
X117244823Y-55761775D01*
X117284428Y-55734722D01*
X117319262Y-55719661D01*
X117349730Y-55720408D01*
X117408895Y-55743450D01*
X117484128Y-55791463D01*
X117574021Y-55863215D01*
X117677170Y-55957471D01*
X117792168Y-56072999D01*
X117917612Y-56208563D01*
X118052095Y-56362931D01*
X118052783Y-56363743D01*
X118157851Y-56485182D01*
X118251543Y-56588559D01*
X118332221Y-56672241D01*
X118398242Y-56734593D01*
X118447965Y-56773981D01*
X118479752Y-56788773D01*
X118480396Y-56787231D01*
X118470412Y-56767379D01*
X118446183Y-56729386D01*
X118411475Y-56679287D01*
X118403147Y-56667503D01*
X118348127Y-56583639D01*
X118293479Y-56491181D01*
X118242162Y-56396106D01*
X118197132Y-56304389D01*
X118161346Y-56222007D01*
X118137762Y-56154935D01*
X118129337Y-56109148D01*
X118129073Y-56102521D01*
X118113344Y-56047795D01*
X118075163Y-55976459D01*
X118017103Y-55892001D01*
X117941742Y-55797904D01*
X117851651Y-55697655D01*
X117749407Y-55594740D01*
X117682505Y-55530434D01*
X117604766Y-55454595D01*
X117547498Y-55395924D01*
X117508773Y-55351253D01*
X117486664Y-55317410D01*
X117479242Y-55291221D01*
X117484581Y-55269517D01*
X117500753Y-55249125D01*
X117525830Y-55226873D01*
X117527318Y-55225633D01*
X117576010Y-55198156D01*
X117632769Y-55195891D01*
X117632888Y-55195908D01*
X117696969Y-55213459D01*
X117774255Y-55248494D01*
X117854516Y-55295675D01*
X117927523Y-55349667D01*
X117971860Y-55386285D01*
X118030453Y-55433617D01*
X118089382Y-55480381D01*
X118135466Y-55519865D01*
X118202479Y-55583035D01*
X118282665Y-55662740D01*
X118371828Y-55754583D01*
X118465768Y-55854171D01*
X118560286Y-55957109D01*
X118651186Y-56059000D01*
X118734266Y-56155451D01*
X118866892Y-56312790D01*
X118833760Y-56212405D01*
X118829218Y-56199142D01*
X118803010Y-56131136D01*
X118769229Y-56052178D01*
X118734012Y-55976769D01*
X118726944Y-55962255D01*
X118691036Y-55879198D01*
X118670612Y-55808467D01*
X118662051Y-55738051D01*
X118659911Y-55692305D01*
X118658201Y-55611032D01*
X118661185Y-55547666D01*
X118669596Y-55492162D01*
X118684167Y-55434477D01*
X118692174Y-55402993D01*
X118706501Y-55327061D01*
X118714929Y-55254721D01*
X118719231Y-55208281D01*
X118737975Y-55103589D01*
X118766962Y-55007918D01*
X118803714Y-54927197D01*
X118845757Y-54867351D01*
X118890610Y-54834309D01*
X118920752Y-54824892D01*
X118936036Y-54833404D01*
G37*
G36*
X69924730Y-114908193D02*
G01*
X69946433Y-114914797D01*
X69968841Y-114923938D01*
X69987689Y-114933993D01*
X69994072Y-114938544D01*
X70009523Y-114953877D01*
X70017011Y-114969174D01*
X70018475Y-114977854D01*
X70020073Y-114991386D01*
X70022527Y-115008755D01*
X70022969Y-115011630D01*
X70022999Y-115035284D01*
X70015732Y-115061739D01*
X70000707Y-115092074D01*
X69977462Y-115127366D01*
X69967956Y-115140221D01*
X69941156Y-115174495D01*
X69918411Y-115200441D01*
X69898192Y-115219097D01*
X69878972Y-115231497D01*
X69859220Y-115238677D01*
X69837411Y-115241674D01*
X69818133Y-115241779D01*
X69783324Y-115236563D01*
X69755864Y-115223365D01*
X69735620Y-115202054D01*
X69722459Y-115172497D01*
X69716753Y-115140896D01*
X69716464Y-115114992D01*
X69721331Y-115090983D01*
X69732255Y-115067108D01*
X69750140Y-115041612D01*
X69775889Y-115012735D01*
X69789857Y-114998590D01*
X69806446Y-114981771D01*
X69820680Y-114966627D01*
X69830251Y-114955639D01*
X69832173Y-114953088D01*
X69843381Y-114941225D01*
X69860182Y-114928384D01*
X69879079Y-114916744D01*
X69896583Y-114908488D01*
X69908000Y-114905752D01*
X69924730Y-114908193D01*
G37*
G36*
X180896327Y-114184206D02*
G01*
X180915257Y-114201197D01*
X180924717Y-114214126D01*
X180931362Y-114230930D01*
X180936188Y-114255699D01*
X180940190Y-114292528D01*
X180941628Y-114309612D01*
X180944444Y-114352867D01*
X180944502Y-114381780D01*
X180941633Y-114399458D01*
X180936305Y-114408432D01*
X180926275Y-114425982D01*
X180925056Y-114435612D01*
X180919651Y-114449009D01*
X180904396Y-114470052D01*
X180882442Y-114494463D01*
X180879534Y-114497389D01*
X180855268Y-114521700D01*
X180835022Y-114542277D01*
X180822880Y-114554964D01*
X180822346Y-114555553D01*
X180811283Y-114565769D01*
X180807570Y-114567638D01*
X180800959Y-114561022D01*
X180787770Y-114543441D01*
X180771857Y-114520192D01*
X180734154Y-114453480D01*
X180712690Y-114392315D01*
X180707473Y-114336978D01*
X180718507Y-114287752D01*
X180745800Y-114244922D01*
X180765596Y-114225951D01*
X180807627Y-114194516D01*
X180841964Y-114177323D01*
X180870798Y-114174007D01*
X180896327Y-114184206D01*
G37*
G36*
X180701402Y-111310957D02*
G01*
X180718909Y-111323161D01*
X180742603Y-111345625D01*
X180744076Y-111347095D01*
X180793360Y-111394473D01*
X180836055Y-111430722D01*
X180876225Y-111458769D01*
X180917941Y-111481541D01*
X180951828Y-111496565D01*
X180986796Y-111510374D01*
X181016348Y-111520987D01*
X181036224Y-111526927D01*
X181041399Y-111527672D01*
X181054250Y-111530532D01*
X181079178Y-111538904D01*
X181112056Y-111551337D01*
X181134595Y-111560438D01*
X181173862Y-111575516D01*
X181211352Y-111587919D01*
X181241347Y-111595837D01*
X181251847Y-111597558D01*
X181292838Y-111610139D01*
X181318644Y-111627868D01*
X181339279Y-111649056D01*
X181349094Y-111670700D01*
X181352209Y-111693942D01*
X181348819Y-111735009D01*
X181338924Y-111756827D01*
X181327887Y-111777919D01*
X181323933Y-111795315D01*
X181319077Y-111810456D01*
X181305585Y-111831741D01*
X181297153Y-111842209D01*
X181269332Y-111874213D01*
X181173844Y-111880459D01*
X181125721Y-111882859D01*
X181088487Y-111882418D01*
X181055543Y-111878616D01*
X181020295Y-111870932D01*
X181006267Y-111867250D01*
X180932862Y-111845560D01*
X180859873Y-111820600D01*
X180794019Y-111794752D01*
X180764219Y-111781466D01*
X180737741Y-111766653D01*
X180703576Y-111744217D01*
X180665099Y-111716758D01*
X180625683Y-111686884D01*
X180588703Y-111657198D01*
X180557534Y-111630304D01*
X180535548Y-111608806D01*
X180527802Y-111598995D01*
X180507075Y-111550225D01*
X180500759Y-111499086D01*
X180507494Y-111448512D01*
X180525918Y-111401437D01*
X180554668Y-111360797D01*
X180592384Y-111329525D01*
X180637703Y-111310556D01*
X180663529Y-111306547D01*
X180684727Y-111306318D01*
X180701402Y-111310957D01*
G37*
G36*
X182665275Y-110388596D02*
G01*
X182685065Y-110395636D01*
X182712709Y-110410505D01*
X182717048Y-110412994D01*
X182744125Y-110428121D01*
X182764989Y-110438944D01*
X182775185Y-110443154D01*
X182775235Y-110443156D01*
X182785077Y-110446982D01*
X182806739Y-110457257D01*
X182836461Y-110472161D01*
X182854376Y-110481411D01*
X182891879Y-110500515D01*
X182939241Y-110523994D01*
X182990309Y-110548828D01*
X183037482Y-110571313D01*
X183079853Y-110591502D01*
X183118263Y-110610253D01*
X183148952Y-110625700D01*
X183168154Y-110635972D01*
X183170287Y-110637242D01*
X183181747Y-110643223D01*
X183194619Y-110646282D01*
X183212615Y-110646343D01*
X183239449Y-110643334D01*
X183278834Y-110637179D01*
X183293100Y-110634801D01*
X183348123Y-110626570D01*
X183391505Y-110622663D01*
X183428614Y-110622732D01*
X183450455Y-110624576D01*
X183528265Y-110640031D01*
X183596234Y-110667050D01*
X183653024Y-110704486D01*
X183697304Y-110751189D01*
X183727736Y-110806011D01*
X183742987Y-110867800D01*
X183743853Y-110877196D01*
X183744801Y-110914243D01*
X183740111Y-110944315D01*
X183727777Y-110972227D01*
X183705786Y-111002792D01*
X183678331Y-111034094D01*
X183640555Y-111073739D01*
X183608576Y-111102628D01*
X183577583Y-111124096D01*
X183542763Y-111141476D01*
X183499499Y-111158037D01*
X183440501Y-111174316D01*
X183371239Y-111186326D01*
X183297714Y-111193569D01*
X183225925Y-111195547D01*
X183161873Y-111191761D01*
X183137470Y-111188100D01*
X183076851Y-111170370D01*
X183027983Y-111142978D01*
X182992073Y-111107405D01*
X182970329Y-111065133D01*
X182963961Y-111017642D01*
X182969323Y-110981995D01*
X182975841Y-110940827D01*
X182970755Y-110906010D01*
X182952686Y-110875437D01*
X182920258Y-110846999D01*
X182872093Y-110818590D01*
X182857916Y-110811482D01*
X182827271Y-110795175D01*
X182790494Y-110773738D01*
X182758483Y-110753693D01*
X182726089Y-110733602D01*
X182684471Y-110709323D01*
X182640152Y-110684611D01*
X182615702Y-110671518D01*
X182564357Y-110644205D01*
X182523696Y-110621495D01*
X182488600Y-110600165D01*
X182453944Y-110576993D01*
X182414608Y-110548755D01*
X182380979Y-110523826D01*
X182345290Y-110496512D01*
X182322544Y-110477196D01*
X182310994Y-110464106D01*
X182308898Y-110455468D01*
X182310706Y-110452417D01*
X182325600Y-110444360D01*
X182354109Y-110435336D01*
X182392302Y-110426199D01*
X182436250Y-110417800D01*
X182482022Y-110410989D01*
X182520209Y-110407024D01*
X182559201Y-110403022D01*
X182597684Y-110397533D01*
X182624099Y-110392444D01*
X182647049Y-110387995D01*
X182665275Y-110388596D01*
G37*
G36*
X179129868Y-112509161D02*
G01*
X179131292Y-112509513D01*
X179170640Y-112527710D01*
X179199905Y-112557464D01*
X179217828Y-112595060D01*
X179223150Y-112636782D01*
X179214612Y-112678918D01*
X179198625Y-112708184D01*
X179191000Y-112717726D01*
X179181762Y-112726530D01*
X179169109Y-112735412D01*
X179151241Y-112745189D01*
X179126352Y-112756675D01*
X179092642Y-112770685D01*
X179048310Y-112788036D01*
X178991552Y-112809544D01*
X178920567Y-112836022D01*
X178896006Y-112845139D01*
X178858244Y-112860726D01*
X178813214Y-112881639D01*
X178768793Y-112904159D01*
X178754790Y-112911765D01*
X178712897Y-112934971D01*
X178668437Y-112959505D01*
X178629065Y-112981147D01*
X178617950Y-112987230D01*
X178585921Y-113004967D01*
X178557363Y-113021188D01*
X178538046Y-113032610D01*
X178536973Y-113033282D01*
X178519868Y-113041914D01*
X178488921Y-113055397D01*
X178446894Y-113072630D01*
X178396550Y-113092513D01*
X178340652Y-113113945D01*
X178281960Y-113135824D01*
X178253249Y-113146293D01*
X178218543Y-113159654D01*
X178175626Y-113177324D01*
X178132241Y-113196089D01*
X178120077Y-113201549D01*
X178076419Y-113220895D01*
X178029298Y-113241052D01*
X177987338Y-113258348D01*
X177978502Y-113261858D01*
X177947103Y-113274800D01*
X177904533Y-113293189D01*
X177855561Y-113314923D01*
X177804958Y-113337899D01*
X177785524Y-113346877D01*
X177739755Y-113367877D01*
X177697746Y-113386676D01*
X177662925Y-113401774D01*
X177638719Y-113411674D01*
X177631107Y-113414381D01*
X177602647Y-113427944D01*
X177565797Y-113452847D01*
X177523142Y-113486621D01*
X177477267Y-113526793D01*
X177430752Y-113570895D01*
X177386183Y-113616454D01*
X177346143Y-113661002D01*
X177313216Y-113702066D01*
X177289983Y-113737177D01*
X177286303Y-113744110D01*
X177263039Y-113779738D01*
X177237566Y-113798898D01*
X177210820Y-113801202D01*
X177184144Y-113786618D01*
X177168576Y-113763540D01*
X177163359Y-113741657D01*
X177165384Y-113717461D01*
X177172805Y-113682066D01*
X177184162Y-113640524D01*
X177197994Y-113597886D01*
X177212842Y-113559205D01*
X177221621Y-113540016D01*
X177238736Y-113505752D01*
X177217625Y-113513375D01*
X177197074Y-113519962D01*
X177167581Y-113528479D01*
X177148768Y-113533578D01*
X177097816Y-113549019D01*
X177053056Y-113566414D01*
X177019058Y-113583880D01*
X177008292Y-113591420D01*
X176980323Y-113605014D01*
X176951029Y-113605267D01*
X176925170Y-113593887D01*
X176907504Y-113572586D01*
X176902611Y-113553463D01*
X176906574Y-113532149D01*
X176922151Y-113508976D01*
X176950522Y-113482879D01*
X176992873Y-113452794D01*
X177050382Y-113417658D01*
X177058938Y-113412718D01*
X177096632Y-113390724D01*
X177127751Y-113371890D01*
X177149633Y-113357880D01*
X177159614Y-113350362D01*
X177159888Y-113349619D01*
X177149700Y-113347547D01*
X177123887Y-113344445D01*
X177084418Y-113340502D01*
X177033264Y-113335906D01*
X176972394Y-113330850D01*
X176931852Y-113327659D01*
X176893514Y-113319410D01*
X176867646Y-113302937D01*
X176855619Y-113280435D01*
X176858805Y-113254101D01*
X176872523Y-113232551D01*
X176880469Y-113224456D01*
X176889947Y-113218766D01*
X176904142Y-113214940D01*
X176926238Y-113212436D01*
X176959417Y-113210714D01*
X177006863Y-113209229D01*
X177010131Y-113209139D01*
X177060107Y-113208588D01*
X177109072Y-113209495D01*
X177151623Y-113211673D01*
X177182353Y-113214933D01*
X177183972Y-113215204D01*
X177207113Y-113218569D01*
X177229810Y-113219897D01*
X177255833Y-113218943D01*
X177288958Y-113215460D01*
X177332957Y-113209205D01*
X177373192Y-113202893D01*
X177435756Y-113192561D01*
X177484686Y-113183440D01*
X177523830Y-113174413D01*
X177557039Y-113164357D01*
X177588160Y-113152155D01*
X177621046Y-113136687D01*
X177647643Y-113123073D01*
X177689932Y-113102125D01*
X177738746Y-113079597D01*
X177784086Y-113060090D01*
X177787477Y-113058712D01*
X177824859Y-113043463D01*
X177872343Y-113023887D01*
X177923787Y-113002527D01*
X177972213Y-112982275D01*
X178022760Y-112961276D01*
X178076575Y-112939305D01*
X178127039Y-112919047D01*
X178165655Y-112903902D01*
X178203851Y-112889048D01*
X178238549Y-112875277D01*
X178264612Y-112864638D01*
X178273165Y-112860973D01*
X178296184Y-112851126D01*
X178327051Y-112838421D01*
X178346199Y-112830733D01*
X178370994Y-112819536D01*
X178406836Y-112801588D01*
X178449555Y-112779057D01*
X178494977Y-112754112D01*
X178511432Y-112744819D01*
X178552498Y-112721616D01*
X178588095Y-112701835D01*
X178615448Y-112686991D01*
X178631780Y-112678601D01*
X178635035Y-112677290D01*
X178645407Y-112672734D01*
X178664537Y-112661806D01*
X178672201Y-112657074D01*
X178693663Y-112645835D01*
X178726786Y-112631120D01*
X178766511Y-112615092D01*
X178796545Y-112603888D01*
X178843340Y-112586813D01*
X178892585Y-112568419D01*
X178936813Y-112551512D01*
X178956499Y-112543783D01*
X179014734Y-112522427D01*
X179061052Y-112509928D01*
X179098435Y-112505701D01*
X179129868Y-112509161D01*
G37*
G36*
X182972728Y-111173384D02*
G01*
X183000951Y-111182242D01*
X183022574Y-111198022D01*
X183041198Y-111222056D01*
X183047460Y-111232299D01*
X183059053Y-111253581D01*
X183062099Y-111268351D01*
X183057214Y-111285170D01*
X183052095Y-111296789D01*
X183043907Y-111313196D01*
X183034122Y-111328065D01*
X183021300Y-111342129D01*
X183004006Y-111356119D01*
X182980802Y-111370765D01*
X182950250Y-111386800D01*
X182910915Y-111404957D01*
X182861358Y-111425966D01*
X182800142Y-111450559D01*
X182725831Y-111479469D01*
X182636987Y-111513425D01*
X182596091Y-111528951D01*
X182549089Y-111547355D01*
X182506549Y-111565086D01*
X182471860Y-111580654D01*
X182448406Y-111592565D01*
X182441293Y-111597202D01*
X182421251Y-111612041D01*
X182393788Y-111630309D01*
X182377987Y-111640118D01*
X182351235Y-111658910D01*
X182318876Y-111685494D01*
X182287211Y-111714644D01*
X182282301Y-111719528D01*
X182254939Y-111746455D01*
X182229728Y-111770119D01*
X182211090Y-111786399D01*
X182207598Y-111789114D01*
X182191547Y-111802505D01*
X182167598Y-111824335D01*
X182140237Y-111850480D01*
X182132830Y-111857762D01*
X182105311Y-111884404D01*
X182079996Y-111907892D01*
X182061374Y-111924087D01*
X182058079Y-111926670D01*
X182036532Y-111945410D01*
X182008260Y-111973647D01*
X181976132Y-112008093D01*
X181943014Y-112045457D01*
X181911776Y-112082452D01*
X181885285Y-112115789D01*
X181866409Y-112142179D01*
X181859346Y-112154569D01*
X181850573Y-112174954D01*
X181843679Y-112193557D01*
X181837603Y-112214372D01*
X181831286Y-112241394D01*
X181823667Y-112278617D01*
X181816041Y-112317817D01*
X181808722Y-112354915D01*
X181802198Y-112386434D01*
X181797464Y-112407622D01*
X181796132Y-112412689D01*
X181799775Y-112427474D01*
X181815655Y-112451684D01*
X181837689Y-112478039D01*
X181864178Y-112508088D01*
X181889792Y-112538057D01*
X181909058Y-112561542D01*
X181909313Y-112561866D01*
X181921978Y-112576267D01*
X181936471Y-112588194D01*
X181954813Y-112598134D01*
X181979026Y-112606570D01*
X182011132Y-112613987D01*
X182053149Y-112620873D01*
X182107098Y-112627710D01*
X182175002Y-112634986D01*
X182240675Y-112641444D01*
X182371774Y-112656565D01*
X182500991Y-112676893D01*
X182635747Y-112703653D01*
X182687889Y-112715290D01*
X182744334Y-112728215D01*
X182799193Y-112740770D01*
X182848467Y-112752040D01*
X182888162Y-112761113D01*
X182912506Y-112766668D01*
X182989945Y-112783659D01*
X183058345Y-112797357D01*
X183116007Y-112807481D01*
X183161235Y-112813754D01*
X183192330Y-112815895D01*
X183204847Y-112814768D01*
X183225339Y-112809127D01*
X183256366Y-112800453D01*
X183291498Y-112790545D01*
X183294283Y-112789756D01*
X183338552Y-112779779D01*
X183394471Y-112771107D01*
X183456056Y-112764631D01*
X183470247Y-112763557D01*
X183516856Y-112760512D01*
X183549762Y-112759268D01*
X183572843Y-112760156D01*
X183589972Y-112763509D01*
X183605026Y-112769660D01*
X183617004Y-112776149D01*
X183641416Y-112791403D01*
X183660410Y-112805654D01*
X183664800Y-112809860D01*
X183676881Y-112835244D01*
X183674325Y-112863694D01*
X183663259Y-112882664D01*
X183654303Y-112890966D01*
X183642027Y-112896940D01*
X183622974Y-112901346D01*
X183593691Y-112904946D01*
X183550721Y-112908502D01*
X183543540Y-112909030D01*
X183488134Y-112914110D01*
X183448903Y-112920175D01*
X183424397Y-112927476D01*
X183419048Y-112930359D01*
X183405082Y-112940396D01*
X183405455Y-112945414D01*
X183415909Y-112948700D01*
X183431260Y-112953257D01*
X183459145Y-112962139D01*
X183495396Y-112973999D01*
X183530101Y-112985559D01*
X183569187Y-112998340D01*
X183602537Y-113008600D01*
X183626380Y-113015220D01*
X183636592Y-113017144D01*
X183653546Y-113023201D01*
X183672489Y-113039513D01*
X183688014Y-113060325D01*
X183694670Y-113078988D01*
X183688847Y-113105650D01*
X183671129Y-113128033D01*
X183646749Y-113139969D01*
X183642438Y-113140509D01*
X183625451Y-113138503D01*
X183596356Y-113131919D01*
X183559736Y-113121883D01*
X183532244Y-113113459D01*
X183491319Y-113101560D01*
X183448236Y-113091023D01*
X183406673Y-113082505D01*
X183370306Y-113076671D01*
X183342813Y-113074180D01*
X183327874Y-113075690D01*
X183326706Y-113076542D01*
X183327379Y-113087190D01*
X183334620Y-113107761D01*
X183345984Y-113133016D01*
X183359031Y-113157714D01*
X183371317Y-113176614D01*
X183375637Y-113181539D01*
X183391334Y-113192312D01*
X183418696Y-113207036D01*
X183452963Y-113223236D01*
X183469898Y-113230572D01*
X183504063Y-113245992D01*
X183531855Y-113260534D01*
X183549282Y-113272011D01*
X183552928Y-113276053D01*
X183559256Y-113307240D01*
X183550431Y-113334846D01*
X183528931Y-113354728D01*
X183501174Y-113362571D01*
X183468261Y-113358703D01*
X183425988Y-113344679D01*
X183377726Y-113322548D01*
X183326844Y-113294364D01*
X183276713Y-113262177D01*
X183230704Y-113228037D01*
X183192187Y-113193998D01*
X183164534Y-113162110D01*
X183159738Y-113154757D01*
X183133002Y-113120207D01*
X183098663Y-113089538D01*
X183062361Y-113067225D01*
X183039041Y-113059023D01*
X183019795Y-113054955D01*
X182987020Y-113048049D01*
X182944447Y-113039089D01*
X182895810Y-113028862D01*
X182864635Y-113022310D01*
X182813134Y-113011396D01*
X182764474Y-113000911D01*
X182722689Y-112991740D01*
X182691818Y-112984762D01*
X182680582Y-112982087D01*
X182603597Y-112963255D01*
X182540191Y-112948425D01*
X182486939Y-112936922D01*
X182440412Y-112928069D01*
X182397185Y-112921192D01*
X182353830Y-112915613D01*
X182330395Y-112913033D01*
X182248232Y-112904270D01*
X182160590Y-112894704D01*
X182078139Y-112885505D01*
X182066245Y-112884157D01*
X182022161Y-112877734D01*
X181970843Y-112868161D01*
X181921974Y-112857279D01*
X181912600Y-112854915D01*
X181858131Y-112842487D01*
X181815630Y-112837146D01*
X181780970Y-112838766D01*
X181750024Y-112847217D01*
X181744034Y-112849667D01*
X181724980Y-112861461D01*
X181716511Y-112879450D01*
X181714664Y-112893715D01*
X181711276Y-112919797D01*
X181705087Y-112954664D01*
X181698783Y-112984669D01*
X181683691Y-113057971D01*
X181673832Y-113124960D01*
X181668369Y-113193263D01*
X181666469Y-113270507D01*
X181666441Y-113280293D01*
X181666299Y-113338246D01*
X181666008Y-113403277D01*
X181665616Y-113466485D01*
X181665269Y-113508632D01*
X181665072Y-113555466D01*
X181665202Y-113614244D01*
X181665625Y-113679269D01*
X181666308Y-113744849D01*
X181666905Y-113787008D01*
X181667682Y-113867168D01*
X181667538Y-113948190D01*
X181666548Y-114026962D01*
X181664785Y-114100370D01*
X181662323Y-114165301D01*
X181659237Y-114218642D01*
X181655827Y-114255459D01*
X181651741Y-114290108D01*
X181647133Y-114331413D01*
X181644213Y-114358837D01*
X181632582Y-114455891D01*
X181616764Y-114564249D01*
X181608762Y-114613571D01*
X181603276Y-114649348D01*
X181599447Y-114680086D01*
X181597932Y-114700310D01*
X181597993Y-114703086D01*
X181597082Y-114721159D01*
X181593444Y-114749412D01*
X181589478Y-114772846D01*
X181584082Y-114806575D01*
X181578406Y-114849899D01*
X181573474Y-114894824D01*
X181572392Y-114906303D01*
X181558904Y-115044818D01*
X181544704Y-115169413D01*
X181529900Y-115279414D01*
X181514594Y-115374146D01*
X181498890Y-115452937D01*
X181482892Y-115515112D01*
X181474512Y-115540599D01*
X181465316Y-115568468D01*
X181460223Y-115589152D01*
X181460200Y-115597700D01*
X181470592Y-115600078D01*
X181494445Y-115602949D01*
X181527602Y-115605858D01*
X181547868Y-115607283D01*
X181591121Y-115611986D01*
X181646136Y-115620877D01*
X181707795Y-115633028D01*
X181770979Y-115647512D01*
X181774608Y-115648410D01*
X181848162Y-115666665D01*
X181907310Y-115681245D01*
X181954754Y-115692770D01*
X181993194Y-115701861D01*
X182025334Y-115709145D01*
X182053873Y-115715241D01*
X182081512Y-115720774D01*
X182110955Y-115726364D01*
X182120562Y-115728151D01*
X182190729Y-115742322D01*
X182270663Y-115760394D01*
X182353395Y-115780684D01*
X182431959Y-115801513D01*
X182471273Y-115812709D01*
X182515923Y-115825651D01*
X182546344Y-115833867D01*
X182565166Y-115837828D01*
X182575018Y-115838003D01*
X182578527Y-115834860D01*
X182578706Y-115831891D01*
X182581468Y-115819719D01*
X182589443Y-115795492D01*
X182601180Y-115763481D01*
X182607541Y-115747067D01*
X182626978Y-115703279D01*
X182650469Y-115662365D01*
X182681472Y-115618738D01*
X182706154Y-115587664D01*
X182739844Y-115548533D01*
X182770882Y-115516356D01*
X182796389Y-115493994D01*
X182807973Y-115486411D01*
X182832633Y-115473816D01*
X182865837Y-115456893D01*
X182900407Y-115439301D01*
X182900470Y-115439268D01*
X182965291Y-115411771D01*
X183024075Y-115397706D01*
X183075583Y-115396864D01*
X183118578Y-115409039D01*
X183151821Y-115434022D01*
X183174075Y-115471605D01*
X183178598Y-115485973D01*
X183183758Y-115520041D01*
X183179275Y-115551444D01*
X183163730Y-115583299D01*
X183135706Y-115618716D01*
X183102862Y-115652175D01*
X183065267Y-115689983D01*
X183025175Y-115733189D01*
X182984329Y-115779598D01*
X182944477Y-115827018D01*
X182907364Y-115873256D01*
X182874736Y-115916120D01*
X182848338Y-115953416D01*
X182829917Y-115982952D01*
X182821217Y-116002535D01*
X182820781Y-116006483D01*
X182815659Y-116018281D01*
X182801110Y-116039719D01*
X182779581Y-116067393D01*
X182761595Y-116088739D01*
X182719536Y-116132322D01*
X182681376Y-116159898D01*
X182644331Y-116171786D01*
X182605620Y-116168304D01*
X182562461Y-116149769D01*
X182512988Y-116117177D01*
X182492288Y-116102427D01*
X182473200Y-116090550D01*
X182452707Y-116080428D01*
X182427795Y-116070945D01*
X182395447Y-116060985D01*
X182352647Y-116049431D01*
X182296382Y-116035165D01*
X182281549Y-116031465D01*
X182228099Y-116018360D01*
X182179993Y-116006959D01*
X182140033Y-115997892D01*
X182111021Y-115991794D01*
X182095757Y-115989294D01*
X182094623Y-115989280D01*
X182080674Y-115987685D01*
X182050953Y-115981853D01*
X182005232Y-115971730D01*
X181943278Y-115957262D01*
X181864861Y-115938397D01*
X181769750Y-115915079D01*
X181712699Y-115900950D01*
X181641900Y-115884907D01*
X181572693Y-115872053D01*
X181511075Y-115863436D01*
X181484461Y-115861008D01*
X181442768Y-115857557D01*
X181405128Y-115853398D01*
X181376632Y-115849146D01*
X181365276Y-115846579D01*
X181348797Y-115843391D01*
X181332200Y-115846107D01*
X181310108Y-115856255D01*
X181289193Y-115868186D01*
X181258242Y-115887961D01*
X181229710Y-115908703D01*
X181213760Y-115922260D01*
X181195582Y-115938022D01*
X181181834Y-115946761D01*
X181179672Y-115947334D01*
X181168457Y-115952684D01*
X181148204Y-115965970D01*
X181127462Y-115981180D01*
X181093746Y-116005281D01*
X181056015Y-116029785D01*
X181037310Y-116040914D01*
X181009933Y-116057058D01*
X180973326Y-116079501D01*
X180932990Y-116104839D01*
X180905956Y-116122169D01*
X180818064Y-116174072D01*
X180730861Y-116214563D01*
X180640555Y-116246140D01*
X180598717Y-116259928D01*
X180552359Y-116276789D01*
X180519825Y-116289673D01*
X180487060Y-116301693D01*
X180442941Y-116315597D01*
X180393371Y-116329621D01*
X180346626Y-116341442D01*
X180278547Y-116357986D01*
X180220431Y-116373106D01*
X180173830Y-116386341D01*
X180140301Y-116397232D01*
X180121392Y-116405322D01*
X180117691Y-116409097D01*
X180125082Y-116416929D01*
X180143916Y-116432202D01*
X180170939Y-116452593D01*
X180202901Y-116475781D01*
X180236552Y-116499445D01*
X180268641Y-116521263D01*
X180295917Y-116538914D01*
X180315071Y-116550047D01*
X180355661Y-116570918D01*
X180402333Y-116595336D01*
X180451252Y-116621249D01*
X180498583Y-116646608D01*
X180540494Y-116669363D01*
X180573151Y-116687464D01*
X180588024Y-116696013D01*
X180616742Y-116712722D01*
X180653359Y-116733616D01*
X180690316Y-116754382D01*
X180692993Y-116755872D01*
X180726270Y-116774679D01*
X180756512Y-116792311D01*
X180778018Y-116805437D01*
X180780565Y-116807092D01*
X180824665Y-116835440D01*
X180864846Y-116859718D01*
X180898349Y-116878380D01*
X180922417Y-116889876D01*
X180933351Y-116892861D01*
X180949990Y-116884262D01*
X180971923Y-116861943D01*
X180997307Y-116828318D01*
X181024303Y-116785796D01*
X181048190Y-116742428D01*
X181068907Y-116703601D01*
X181090211Y-116665986D01*
X181108682Y-116635539D01*
X181115178Y-116625737D01*
X181134260Y-116596921D01*
X181151695Y-116568412D01*
X181157467Y-116558123D01*
X181190303Y-116514678D01*
X181236542Y-116482357D01*
X181296468Y-116460969D01*
X181305925Y-116458845D01*
X181360136Y-116450831D01*
X181402600Y-116452875D01*
X181436412Y-116465502D01*
X181460789Y-116485078D01*
X181483402Y-116517441D01*
X181494965Y-116557335D01*
X181495410Y-116606061D01*
X181484666Y-116664921D01*
X181462666Y-116735219D01*
X181444910Y-116781277D01*
X181417860Y-116840191D01*
X181384201Y-116901629D01*
X181345778Y-116963170D01*
X181304436Y-117022399D01*
X181262021Y-117076896D01*
X181220377Y-117124244D01*
X181181349Y-117162027D01*
X181146783Y-117187824D01*
X181127674Y-117196989D01*
X181095088Y-117207947D01*
X181062269Y-117218954D01*
X181059059Y-117220028D01*
X181017964Y-117230504D01*
X180983553Y-117230685D01*
X180955290Y-117223391D01*
X180934023Y-117214003D01*
X180920840Y-117204835D01*
X180920411Y-117204288D01*
X180909798Y-117195289D01*
X180888716Y-117180960D01*
X180865900Y-117166905D01*
X180837381Y-117149924D01*
X180799688Y-117127282D01*
X180758701Y-117102516D01*
X180734787Y-117087997D01*
X180691754Y-117062141D01*
X180640373Y-117031798D01*
X180583363Y-116998526D01*
X180523445Y-116963878D01*
X180463339Y-116929410D01*
X180405765Y-116896677D01*
X180353441Y-116867236D01*
X180309087Y-116842642D01*
X180275424Y-116824448D01*
X180260511Y-116816766D01*
X180202247Y-116785186D01*
X180139019Y-116746198D01*
X180073921Y-116702129D01*
X180010050Y-116655307D01*
X179950498Y-116608061D01*
X179898362Y-116562717D01*
X179856737Y-116521607D01*
X179836389Y-116497745D01*
X179793747Y-116438701D01*
X179763826Y-116387725D01*
X179745820Y-116341564D01*
X179738923Y-116296968D01*
X179742327Y-116250683D01*
X179755228Y-116199457D01*
X179759349Y-116186939D01*
X179778897Y-116127916D01*
X179792692Y-116081223D01*
X179801463Y-116042786D01*
X179805937Y-116008531D01*
X179806839Y-115974381D01*
X179804898Y-115936260D01*
X179804646Y-115932973D01*
X179800942Y-115893106D01*
X179796058Y-115864753D01*
X179788180Y-115841802D01*
X179775495Y-115818140D01*
X179766097Y-115803054D01*
X179747560Y-115771498D01*
X179737967Y-115747014D01*
X179735056Y-115723049D01*
X179735196Y-115713585D01*
X179744766Y-115667107D01*
X179768227Y-115630014D01*
X179803485Y-115604241D01*
X179848444Y-115591719D01*
X179868220Y-115590847D01*
X179904009Y-115595010D01*
X179934110Y-115607864D01*
X179962191Y-115631882D01*
X179991918Y-115669538D01*
X179998075Y-115678469D01*
X180025391Y-115724828D01*
X180042950Y-115771621D01*
X180049374Y-115797905D01*
X180057094Y-115845280D01*
X180062289Y-115900274D01*
X180064863Y-115957949D01*
X180064715Y-116013365D01*
X180061747Y-116061582D01*
X180055860Y-116097664D01*
X180055403Y-116099368D01*
X180049194Y-116124496D01*
X180046402Y-116141506D01*
X180046814Y-116145568D01*
X180056121Y-116144837D01*
X180080778Y-116139623D01*
X180121122Y-116129843D01*
X180177495Y-116115410D01*
X180250241Y-116096241D01*
X180310668Y-116080072D01*
X180380188Y-116060017D01*
X180453261Y-116036531D01*
X180526680Y-116010845D01*
X180597236Y-115984189D01*
X180661724Y-115957797D01*
X180716937Y-115932901D01*
X180759666Y-115910731D01*
X180773313Y-115902401D01*
X180849830Y-115851860D01*
X180912971Y-115808994D01*
X180964541Y-115772495D01*
X181006340Y-115741054D01*
X181040174Y-115713363D01*
X181065833Y-115690056D01*
X181093781Y-115664543D01*
X181119276Y-115643663D01*
X181138158Y-115630737D01*
X181142808Y-115628578D01*
X181159986Y-115614802D01*
X181178488Y-115585760D01*
X181197501Y-115543697D01*
X181216207Y-115490852D01*
X181233792Y-115429471D01*
X181249440Y-115361797D01*
X181259554Y-115307422D01*
X181271104Y-115237897D01*
X181280098Y-115183154D01*
X181286912Y-115140582D01*
X181291922Y-115107570D01*
X181295503Y-115081508D01*
X181298035Y-115059783D01*
X181299891Y-115039785D01*
X181301450Y-115018903D01*
X181301723Y-115014916D01*
X181307113Y-114947220D01*
X181314484Y-114870707D01*
X181323065Y-114792536D01*
X181332085Y-114719860D01*
X181338199Y-114676409D01*
X181357141Y-114547129D01*
X181372716Y-114433754D01*
X181385083Y-114334902D01*
X181394400Y-114249195D01*
X181400827Y-114175255D01*
X181404522Y-114111701D01*
X181405051Y-114096837D01*
X181406722Y-114048151D01*
X181408767Y-113997514D01*
X181410863Y-113952600D01*
X181411925Y-113933032D01*
X181413324Y-113887543D01*
X181412985Y-113837082D01*
X181411430Y-113800451D01*
X181410246Y-113773317D01*
X181409279Y-113732403D01*
X181408524Y-113680307D01*
X181407980Y-113619631D01*
X181407643Y-113552972D01*
X181407511Y-113482930D01*
X181407581Y-113412106D01*
X181407850Y-113343097D01*
X181408315Y-113278502D01*
X181408972Y-113220922D01*
X181409820Y-113172956D01*
X181410854Y-113137203D01*
X181412075Y-113116261D01*
X181412189Y-113115222D01*
X181421083Y-113051402D01*
X181434248Y-112972802D01*
X181451308Y-112881652D01*
X181455527Y-112860224D01*
X181465271Y-112808845D01*
X181474694Y-112755101D01*
X181482633Y-112705852D01*
X181487385Y-112672336D01*
X181493742Y-112627004D01*
X181502080Y-112574094D01*
X181510851Y-112523308D01*
X181513057Y-112511403D01*
X181521230Y-112466837D01*
X181529149Y-112421465D01*
X181535496Y-112382915D01*
X181537199Y-112371792D01*
X181542650Y-112338893D01*
X181548405Y-112310151D01*
X181552114Y-112295601D01*
X181556901Y-112277713D01*
X181564103Y-112247593D01*
X181572536Y-112210275D01*
X181577242Y-112188640D01*
X181603780Y-112096911D01*
X181641729Y-112013034D01*
X181674487Y-111960815D01*
X181693612Y-111937060D01*
X181723659Y-111903287D01*
X181762626Y-111861489D01*
X181808518Y-111813656D01*
X181859336Y-111761783D01*
X181913083Y-111707861D01*
X181967761Y-111653883D01*
X182021369Y-111601841D01*
X182071913Y-111553727D01*
X182117394Y-111511535D01*
X182155812Y-111477256D01*
X182178681Y-111458026D01*
X182211146Y-111435378D01*
X182255947Y-111409020D01*
X182308800Y-111381135D01*
X182365415Y-111353898D01*
X182421502Y-111329492D01*
X182463000Y-111313509D01*
X182488860Y-111304125D01*
X182513450Y-111294783D01*
X182539652Y-111284270D01*
X182570352Y-111271377D01*
X182608434Y-111254892D01*
X182656784Y-111233602D01*
X182718284Y-111206296D01*
X182719371Y-111205812D01*
X182752685Y-111191667D01*
X182780230Y-111182384D01*
X182808039Y-111176674D01*
X182842149Y-111173251D01*
X182882096Y-111171110D01*
X182934309Y-111170117D01*
X182972728Y-111173384D01*
G37*
G36*
X69555363Y-114511577D02*
G01*
X69570249Y-114519592D01*
X69588385Y-114533221D01*
X69606315Y-114549475D01*
X69620587Y-114565370D01*
X69625029Y-114571830D01*
X69634304Y-114591522D01*
X69636108Y-114608459D01*
X69634515Y-114617116D01*
X69631389Y-114630378D01*
X69627754Y-114647538D01*
X69627186Y-114650392D01*
X69619125Y-114672630D01*
X69603247Y-114695004D01*
X69578753Y-114718370D01*
X69544839Y-114743583D01*
X69531510Y-114752411D01*
X69494604Y-114775452D01*
X69464357Y-114792055D01*
X69438976Y-114802670D01*
X69416674Y-114807749D01*
X69395658Y-114807740D01*
X69374139Y-114803098D01*
X69355988Y-114796603D01*
X69325062Y-114779796D01*
X69303772Y-114758002D01*
X69292037Y-114731052D01*
X69289779Y-114698777D01*
X69295226Y-114667130D01*
X69303814Y-114642689D01*
X69316599Y-114621792D01*
X69335030Y-114603094D01*
X69360557Y-114585252D01*
X69394629Y-114566923D01*
X69412593Y-114558409D01*
X69433934Y-114548278D01*
X69452489Y-114538915D01*
X69465240Y-114531864D01*
X69467919Y-114530124D01*
X69482509Y-114522810D01*
X69502688Y-114516489D01*
X69524427Y-114512015D01*
X69543699Y-114510243D01*
X69555363Y-114511577D01*
G37*
G36*
X101691655Y-119171098D02*
G01*
X101739965Y-119180955D01*
X101739996Y-119180961D01*
X101803456Y-119194955D01*
X101851092Y-119207495D01*
X101890054Y-119221074D01*
X101927492Y-119238183D01*
X101970557Y-119261314D01*
X102010438Y-119285306D01*
X102080607Y-119337319D01*
X102137727Y-119393240D01*
X102180090Y-119450525D01*
X102205988Y-119506635D01*
X102213714Y-119559026D01*
X102201560Y-119605156D01*
X102199637Y-119608602D01*
X102179900Y-119635174D01*
X102160285Y-119650312D01*
X102153954Y-119652319D01*
X102109809Y-119652948D01*
X102058295Y-119634721D01*
X102002501Y-119599113D01*
X101945512Y-119547603D01*
X101939875Y-119541809D01*
X101881543Y-119491288D01*
X101813289Y-119449603D01*
X101728420Y-119412592D01*
X101629296Y-119375127D01*
X101613882Y-119321058D01*
X101604430Y-119276650D01*
X101605997Y-119228972D01*
X101623720Y-119185708D01*
X101632019Y-119173778D01*
X101642812Y-119167300D01*
X101660980Y-119166476D01*
X101691655Y-119171098D01*
G37*
G36*
X104713609Y-120494992D02*
G01*
X104778374Y-120500497D01*
X104853126Y-120511083D01*
X104903740Y-120520184D01*
X104953150Y-120533342D01*
X104985884Y-120549637D01*
X105005726Y-120571123D01*
X105016454Y-120599855D01*
X105020433Y-120622190D01*
X105017927Y-120648465D01*
X105002566Y-120677520D01*
X104987503Y-120696957D01*
X104960316Y-120713926D01*
X104924017Y-120715733D01*
X104873530Y-120703398D01*
X104823923Y-120691182D01*
X104750348Y-120682878D01*
X104661245Y-120682109D01*
X104554435Y-120688870D01*
X104427739Y-120703163D01*
X104399276Y-120708366D01*
X104340549Y-120728640D01*
X104292268Y-120758240D01*
X104260805Y-120793709D01*
X104258664Y-120796812D01*
X104237858Y-120813678D01*
X104207283Y-120828810D01*
X104183155Y-120840479D01*
X104144365Y-120864768D01*
X104106099Y-120893591D01*
X104070324Y-120920281D01*
X104034873Y-120935936D01*
X104006336Y-120932723D01*
X103981602Y-120911082D01*
X103972320Y-120893803D01*
X103969849Y-120853971D01*
X103985486Y-120806202D01*
X104017906Y-120752960D01*
X104065780Y-120696709D01*
X104127780Y-120639911D01*
X104140340Y-120629755D01*
X104192953Y-120591173D01*
X104244447Y-120561657D01*
X104299707Y-120539552D01*
X104363616Y-120523200D01*
X104441056Y-120510945D01*
X104536914Y-120501130D01*
X104575895Y-120498021D01*
X104649295Y-120494266D01*
X104713609Y-120494992D01*
G37*
G36*
X108004861Y-119349625D02*
G01*
X108134940Y-119357670D01*
X108279215Y-119373257D01*
X108447044Y-119394808D01*
X108483368Y-119440539D01*
X108495522Y-119456939D01*
X108511803Y-119484100D01*
X108517028Y-119501377D01*
X108516915Y-119507518D01*
X108525843Y-119518509D01*
X108532028Y-119525683D01*
X108532686Y-119546829D01*
X108532086Y-119549954D01*
X108528905Y-119558224D01*
X108521386Y-119563930D01*
X108506372Y-119567269D01*
X108480710Y-119568439D01*
X108441243Y-119567637D01*
X108384814Y-119565062D01*
X108308268Y-119560913D01*
X108216097Y-119556695D01*
X108079950Y-119554704D01*
X107963032Y-119559052D01*
X107863316Y-119569843D01*
X107778774Y-119587173D01*
X107773310Y-119588585D01*
X107719693Y-119599816D01*
X107656832Y-119609668D01*
X107597213Y-119616148D01*
X107594212Y-119616381D01*
X107548481Y-119620728D01*
X107503025Y-119626904D01*
X107455058Y-119635633D01*
X107401789Y-119647641D01*
X107340432Y-119663652D01*
X107268197Y-119684392D01*
X107182297Y-119710583D01*
X107079943Y-119742953D01*
X106958347Y-119782226D01*
X106924769Y-119789393D01*
X106881622Y-119784339D01*
X106850413Y-119761960D01*
X106832840Y-119724755D01*
X106830602Y-119675226D01*
X106845395Y-119615873D01*
X106858735Y-119591576D01*
X106898032Y-119552773D01*
X106956365Y-119517144D01*
X107031078Y-119485924D01*
X107119518Y-119460353D01*
X107219031Y-119441669D01*
X107268374Y-119433485D01*
X107332620Y-119420702D01*
X107390826Y-119407166D01*
X107414856Y-119401611D01*
X107473783Y-119390820D01*
X107540363Y-119381313D01*
X107604284Y-119374662D01*
X107638026Y-119371881D01*
X107702122Y-119366159D01*
X107762071Y-119360315D01*
X107808320Y-119355261D01*
X107891676Y-119349225D01*
X108004861Y-119349625D01*
G37*
G36*
X104435174Y-120046584D02*
G01*
X104492836Y-120054788D01*
X104559001Y-120066990D01*
X104627493Y-120081870D01*
X104692138Y-120098107D01*
X104746761Y-120114383D01*
X104785186Y-120129381D01*
X104802061Y-120138304D01*
X104850326Y-120174332D01*
X104877530Y-120214780D01*
X104882922Y-120258039D01*
X104865754Y-120302498D01*
X104855943Y-120315349D01*
X104824401Y-120335298D01*
X104782503Y-120336225D01*
X104728395Y-120318348D01*
X104698988Y-120306803D01*
X104628679Y-120286661D01*
X104547368Y-120270392D01*
X104463108Y-120259201D01*
X104383954Y-120254294D01*
X104317958Y-120256878D01*
X104308545Y-120257984D01*
X104273205Y-120262061D01*
X104225495Y-120267511D01*
X104172996Y-120273465D01*
X104108191Y-120282399D01*
X104020366Y-120300297D01*
X103946416Y-120322662D01*
X103891021Y-120348255D01*
X103878280Y-120355596D01*
X103840321Y-120375769D01*
X103799944Y-120395586D01*
X103794810Y-120398102D01*
X103761370Y-120417121D01*
X103715707Y-120445835D01*
X103663167Y-120480804D01*
X103609091Y-120518582D01*
X103601786Y-120523807D01*
X103542097Y-120565099D01*
X103496955Y-120592585D01*
X103463273Y-120607223D01*
X103437969Y-120609975D01*
X103417960Y-120601801D01*
X103400161Y-120583663D01*
X103390834Y-120564696D01*
X103389648Y-120524548D01*
X103404917Y-120476667D01*
X103435664Y-120425411D01*
X103441020Y-120418763D01*
X103471392Y-120388537D01*
X103515380Y-120351149D01*
X103567943Y-120310287D01*
X103624041Y-120269640D01*
X103678632Y-120232893D01*
X103726675Y-120203736D01*
X103763130Y-120185854D01*
X103789135Y-120175501D01*
X103830806Y-120158141D01*
X103875051Y-120139114D01*
X103891397Y-120132686D01*
X103939568Y-120117434D01*
X104001294Y-120100993D01*
X104070588Y-120084658D01*
X104141464Y-120069724D01*
X104207936Y-120057490D01*
X104264017Y-120049250D01*
X104303721Y-120046301D01*
X104343040Y-120045696D01*
X104385101Y-120043915D01*
X104392190Y-120043694D01*
X104435174Y-120046584D01*
G37*
G36*
X107779744Y-119852898D02*
G01*
X107823507Y-119857158D01*
X107878191Y-119864365D01*
X107946786Y-119874914D01*
X108032275Y-119889200D01*
X108137647Y-119907615D01*
X108142982Y-119908561D01*
X108242868Y-119926444D01*
X108323355Y-119941356D01*
X108387878Y-119954094D01*
X108439876Y-119965458D01*
X108482784Y-119976248D01*
X108520037Y-119987264D01*
X108555073Y-119999304D01*
X108591327Y-120013170D01*
X108620667Y-120025265D01*
X108687013Y-120057334D01*
X108735195Y-120088385D01*
X108763637Y-120117280D01*
X108770766Y-120142879D01*
X108768537Y-120151757D01*
X108758417Y-120176430D01*
X108744760Y-120201289D01*
X108731806Y-120219127D01*
X108723791Y-120222740D01*
X108712807Y-120220906D01*
X108690024Y-120227497D01*
X108668316Y-120233162D01*
X108641407Y-120230241D01*
X108602093Y-120217356D01*
X108527728Y-120191123D01*
X108408462Y-120155109D01*
X108285289Y-120124242D01*
X108164383Y-120099870D01*
X108051922Y-120083340D01*
X107954081Y-120076000D01*
X107919267Y-120075253D01*
X107849505Y-120074817D01*
X107791752Y-120075942D01*
X107749767Y-120078518D01*
X107727305Y-120082441D01*
X107719125Y-120084800D01*
X107694547Y-120088099D01*
X107608539Y-120094323D01*
X107470099Y-120115912D01*
X107348832Y-120150833D01*
X107245909Y-120198796D01*
X107205441Y-120220504D01*
X107159936Y-120241426D01*
X107123627Y-120254571D01*
X107107857Y-120258300D01*
X107049920Y-120262863D01*
X106997264Y-120253913D01*
X106954193Y-120233297D01*
X106925013Y-120202866D01*
X106914027Y-120164471D01*
X106914785Y-120143383D01*
X106925086Y-120104115D01*
X106950373Y-120070944D01*
X106994437Y-120037901D01*
X107007347Y-120030230D01*
X107043240Y-120011652D01*
X107087008Y-119991272D01*
X107132897Y-119971515D01*
X107175153Y-119954811D01*
X107208021Y-119943589D01*
X107225746Y-119940277D01*
X107225846Y-119940291D01*
X107240201Y-119937872D01*
X107270416Y-119930634D01*
X107310094Y-119920107D01*
X107310902Y-119919884D01*
X107387040Y-119901217D01*
X107473529Y-119883670D01*
X107562198Y-119868630D01*
X107644872Y-119857488D01*
X107713380Y-119851630D01*
X107743915Y-119851192D01*
X107779744Y-119852898D01*
G37*
G36*
X94512907Y-123294905D02*
G01*
X94555821Y-123300326D01*
X94613059Y-123309424D01*
X94688910Y-123322539D01*
X94751374Y-123333956D01*
X94811000Y-123345758D01*
X94858995Y-123356236D01*
X94891569Y-123364560D01*
X94904934Y-123369898D01*
X94905950Y-123375883D01*
X94905297Y-123402036D01*
X94901916Y-123444623D01*
X94896168Y-123499441D01*
X94888414Y-123562288D01*
X94880652Y-123624155D01*
X94874077Y-123688928D01*
X94871417Y-123739430D01*
X94872453Y-123780567D01*
X94876962Y-123817247D01*
X94877757Y-123822024D01*
X94885522Y-123882675D01*
X94892553Y-123963061D01*
X94898643Y-124059932D01*
X94903584Y-124170034D01*
X94907168Y-124290117D01*
X94908706Y-124329507D01*
X94914130Y-124404739D01*
X94922115Y-124479745D01*
X94931549Y-124542983D01*
X94944546Y-124613605D01*
X94959860Y-124694996D01*
X94972423Y-124758826D01*
X94982914Y-124808262D01*
X94992017Y-124846465D01*
X95000409Y-124876600D01*
X95008775Y-124901830D01*
X95010168Y-124905699D01*
X95024686Y-124945954D01*
X95043052Y-124996802D01*
X95061638Y-125048196D01*
X95073689Y-125079824D01*
X95097811Y-125137477D01*
X95129866Y-125208825D01*
X95170644Y-125295571D01*
X95220935Y-125399418D01*
X95281529Y-125522068D01*
X95302724Y-125563311D01*
X95369301Y-125679867D01*
X95442190Y-125791236D01*
X95515769Y-125888618D01*
X95533484Y-125910557D01*
X95560301Y-125945771D01*
X95578370Y-125972256D01*
X95584499Y-125985510D01*
X95584021Y-125987095D01*
X95574857Y-126004901D01*
X95556756Y-126035403D01*
X95532996Y-126073028D01*
X95516912Y-126096674D01*
X95482941Y-126138188D01*
X95441545Y-126176642D01*
X95385982Y-126218720D01*
X95329664Y-126257389D01*
X95278486Y-126288122D01*
X95233126Y-126308800D01*
X95187406Y-126322189D01*
X95135149Y-126331057D01*
X95104054Y-126333475D01*
X95038531Y-126332044D01*
X94968095Y-126323829D01*
X94924586Y-126314859D01*
X94815720Y-126277215D01*
X94712618Y-126220356D01*
X94620911Y-126147147D01*
X94588210Y-126113753D01*
X94550732Y-126067254D01*
X94517556Y-126013864D01*
X94485508Y-125948308D01*
X94451415Y-125865306D01*
X94445886Y-125850878D01*
X94428578Y-125801498D01*
X94419397Y-125763381D01*
X94416913Y-125728594D01*
X94419695Y-125689198D01*
X94420380Y-125683240D01*
X94428651Y-125636019D01*
X94443347Y-125597913D01*
X94469241Y-125556086D01*
X94489107Y-125528987D01*
X94536100Y-125474049D01*
X94586922Y-125424347D01*
X94636304Y-125384802D01*
X94678972Y-125360335D01*
X94704633Y-125347815D01*
X94744611Y-125313477D01*
X94763831Y-125269481D01*
X94764229Y-125266110D01*
X94757319Y-125236142D01*
X94737336Y-125203391D01*
X94710399Y-125175957D01*
X94682622Y-125161938D01*
X94638681Y-125162711D01*
X94581383Y-125181536D01*
X94518879Y-125217594D01*
X94453932Y-125268956D01*
X94389308Y-125333689D01*
X94327768Y-125409864D01*
X94253530Y-125511968D01*
X94168134Y-125492812D01*
X94087849Y-125470277D01*
X93966020Y-125418965D01*
X93852716Y-125350669D01*
X93754140Y-125268748D01*
X93740087Y-125254074D01*
X93690577Y-125189469D01*
X93642818Y-125108332D01*
X93599632Y-125015876D01*
X93563848Y-124917321D01*
X93534552Y-124823381D01*
X93563903Y-124656927D01*
X93593253Y-124490472D01*
X93658026Y-124401282D01*
X93671394Y-124383203D01*
X93704214Y-124341186D01*
X93734027Y-124305957D01*
X93755695Y-124283700D01*
X93757671Y-124281994D01*
X93786177Y-124257171D01*
X93809683Y-124236399D01*
X93819411Y-124228643D01*
X93830613Y-124225674D01*
X93846304Y-124230896D01*
X93871336Y-124246065D01*
X93910553Y-124272936D01*
X93931383Y-124287227D01*
X94047920Y-124359605D01*
X94153799Y-124411754D01*
X94248776Y-124443550D01*
X94277412Y-124450327D01*
X94311933Y-124457017D01*
X94334569Y-124457393D01*
X94352044Y-124451152D01*
X94371081Y-124437986D01*
X94374477Y-124435327D01*
X94404274Y-124398804D01*
X94411920Y-124356864D01*
X94396835Y-124312339D01*
X94383598Y-124294811D01*
X94361609Y-124277510D01*
X94327198Y-124259639D01*
X94275401Y-124238167D01*
X94214998Y-124211709D01*
X94137828Y-124170661D01*
X94064965Y-124124579D01*
X94002429Y-124077337D01*
X93956239Y-124032805D01*
X93927354Y-123991003D01*
X93906609Y-123928281D01*
X93904391Y-123903905D01*
X93906088Y-123844415D01*
X93914505Y-123775658D01*
X93928204Y-123705738D01*
X93945750Y-123642764D01*
X93965705Y-123594840D01*
X93974028Y-123580443D01*
X94031897Y-123505221D01*
X94108264Y-123437146D01*
X94199387Y-123378692D01*
X94301521Y-123332333D01*
X94410925Y-123300544D01*
X94427204Y-123297311D01*
X94452888Y-123293737D01*
X94480026Y-123292822D01*
X94512907Y-123294905D01*
G37*
G36*
X104803597Y-125067045D02*
G01*
X104834276Y-125100431D01*
X104854974Y-125154232D01*
X104860016Y-125178784D01*
X104865081Y-125216984D01*
X104865081Y-125243275D01*
X104863647Y-125258000D01*
X104868918Y-125309418D01*
X104886596Y-125372867D01*
X104915197Y-125443729D01*
X104953237Y-125517390D01*
X104966432Y-125540546D01*
X105002621Y-125605522D01*
X105039384Y-125673199D01*
X105070505Y-125732191D01*
X105117536Y-125819386D01*
X105160721Y-125889784D01*
X105201997Y-125945497D01*
X105244139Y-125990263D01*
X105289922Y-126027824D01*
X105342292Y-126072161D01*
X105373020Y-126114328D01*
X105381926Y-126155000D01*
X105369596Y-126195406D01*
X105354835Y-126216491D01*
X105325222Y-126236284D01*
X105287295Y-126237623D01*
X105239217Y-126220403D01*
X105179148Y-126184518D01*
X105093555Y-126119447D01*
X104996880Y-126029649D01*
X104910473Y-125931606D01*
X104899717Y-125918131D01*
X104871938Y-125884905D01*
X104850398Y-125861389D01*
X104839056Y-125851991D01*
X104834716Y-125849094D01*
X104832127Y-125832627D01*
X104829785Y-125825121D01*
X104816271Y-125800701D01*
X104793041Y-125763777D01*
X104762673Y-125718032D01*
X104727742Y-125667154D01*
X104690825Y-125614824D01*
X104654500Y-125564728D01*
X104621340Y-125520550D01*
X104593925Y-125485974D01*
X104574829Y-125464685D01*
X104570126Y-125460010D01*
X104546237Y-125433293D01*
X104521194Y-125401984D01*
X104494580Y-125374196D01*
X104471483Y-125364470D01*
X104455692Y-125373689D01*
X104450339Y-125401858D01*
X104450712Y-125417869D01*
X104451566Y-125456541D01*
X104452482Y-125499751D01*
X104454369Y-125558947D01*
X104458548Y-125636356D01*
X104464275Y-125710960D01*
X104471080Y-125777634D01*
X104478495Y-125831252D01*
X104486050Y-125866685D01*
X104491661Y-125885267D01*
X104505782Y-125932422D01*
X104519653Y-125979138D01*
X104525652Y-125997104D01*
X104541638Y-126037145D01*
X104562213Y-126083144D01*
X104584676Y-126129600D01*
X104606324Y-126171015D01*
X104624457Y-126201889D01*
X104636372Y-126216723D01*
X104637915Y-126217906D01*
X104643052Y-126233643D01*
X104643701Y-126237252D01*
X104653663Y-126257434D01*
X104673146Y-126289395D01*
X104699138Y-126328067D01*
X104717882Y-126355644D01*
X104749780Y-126410054D01*
X104766121Y-126453685D01*
X104767956Y-126490112D01*
X104756335Y-126522915D01*
X104755061Y-126525159D01*
X104740427Y-126546691D01*
X104730266Y-126554781D01*
X104728010Y-126554068D01*
X104708569Y-126544368D01*
X104675782Y-126525890D01*
X104634635Y-126501647D01*
X104590116Y-126474652D01*
X104547210Y-126447919D01*
X104510905Y-126424461D01*
X104486187Y-126407291D01*
X104478607Y-126401292D01*
X104443213Y-126367876D01*
X104413837Y-126332846D01*
X104397260Y-126306799D01*
X104372278Y-126263025D01*
X104343783Y-126209841D01*
X104314258Y-126152207D01*
X104286182Y-126095085D01*
X104262038Y-126043433D01*
X104244308Y-126002210D01*
X104235473Y-125976376D01*
X104230269Y-125955650D01*
X104219152Y-125915712D01*
X104204335Y-125864905D01*
X104187586Y-125809395D01*
X104173630Y-125762882D01*
X104158225Y-125709014D01*
X104146243Y-125664272D01*
X104139494Y-125635202D01*
X104133382Y-125601709D01*
X104124973Y-125554946D01*
X104116184Y-125505554D01*
X104116045Y-125504773D01*
X104103100Y-125451753D01*
X104087352Y-125421842D01*
X104068900Y-125415018D01*
X104047842Y-125431256D01*
X104024279Y-125470533D01*
X103998309Y-125532827D01*
X103995172Y-125541555D01*
X103965806Y-125650223D01*
X103947444Y-125776748D01*
X103940489Y-125918444D01*
X103940449Y-125923404D01*
X103939068Y-126003747D01*
X103935948Y-126065293D01*
X103930373Y-126112308D01*
X103921628Y-126149060D01*
X103908998Y-126179812D01*
X103891765Y-126208832D01*
X103886624Y-126216244D01*
X103851642Y-126257501D01*
X103810189Y-126295168D01*
X103767416Y-126325507D01*
X103728469Y-126344776D01*
X103698497Y-126349237D01*
X103675498Y-126342558D01*
X103662115Y-126333038D01*
X103663795Y-126324353D01*
X103676232Y-126301185D01*
X103697114Y-126271149D01*
X103699565Y-126267934D01*
X103713177Y-126249286D01*
X103723588Y-126231629D01*
X103731875Y-126210949D01*
X103739122Y-126183236D01*
X103746410Y-126144479D01*
X103754822Y-126090664D01*
X103765438Y-126017780D01*
X103778117Y-125920850D01*
X103785042Y-125842242D01*
X103786068Y-125777648D01*
X103781052Y-125722766D01*
X103769850Y-125673287D01*
X103752318Y-125624906D01*
X103740720Y-125592401D01*
X103726952Y-125545691D01*
X103714659Y-125496613D01*
X103714512Y-125495959D01*
X103701648Y-125450330D01*
X103686038Y-125410617D01*
X103671026Y-125385349D01*
X103668764Y-125382785D01*
X103655562Y-125365397D01*
X103654881Y-125359113D01*
X103657865Y-125356345D01*
X103652533Y-125341279D01*
X103652432Y-125341102D01*
X103643993Y-125315905D01*
X103639105Y-125282688D01*
X103636031Y-125248692D01*
X103631971Y-125221912D01*
X103630961Y-125214548D01*
X103635711Y-125206661D01*
X103653323Y-125205833D01*
X103688732Y-125211129D01*
X103689205Y-125211211D01*
X103725326Y-125215723D01*
X103777684Y-125220074D01*
X103839336Y-125223774D01*
X103903336Y-125226329D01*
X103907056Y-125226438D01*
X103969374Y-125228305D01*
X104027395Y-125230146D01*
X104074782Y-125231753D01*
X104105200Y-125232920D01*
X104129979Y-125232813D01*
X104177249Y-125229452D01*
X104225277Y-125223214D01*
X104258046Y-125218287D01*
X104300945Y-125213249D01*
X104331876Y-125211260D01*
X104346760Y-125209828D01*
X104386672Y-125201119D01*
X104438753Y-125186247D01*
X104497220Y-125167231D01*
X104556285Y-125146089D01*
X104610165Y-125124839D01*
X104653073Y-125105498D01*
X104679225Y-125090087D01*
X104720215Y-125064402D01*
X104764915Y-125054793D01*
X104803597Y-125067045D01*
G37*
G36*
X102933485Y-120939918D02*
G01*
X102954305Y-120957124D01*
X102977057Y-120981886D01*
X102993264Y-121005892D01*
X102996107Y-121010907D01*
X103018404Y-121037032D01*
X103054268Y-121069876D01*
X103098458Y-121105392D01*
X103145734Y-121139534D01*
X103190851Y-121168258D01*
X103228572Y-121187517D01*
X103235130Y-121190107D01*
X103282810Y-121203782D01*
X103323993Y-121207239D01*
X103353800Y-121200601D01*
X103367353Y-121183991D01*
X103373214Y-121173542D01*
X103394632Y-121152173D01*
X103425391Y-121127801D01*
X103458888Y-121105142D01*
X103488515Y-121088914D01*
X103507663Y-121083833D01*
X103523195Y-121083206D01*
X103549340Y-121072571D01*
X103566670Y-121065149D01*
X103599098Y-121070883D01*
X103621619Y-121080344D01*
X103647872Y-121089217D01*
X103658688Y-121093466D01*
X103674272Y-121107311D01*
X103674548Y-121107856D01*
X103688350Y-121123775D01*
X103711830Y-121143525D01*
X103726434Y-121157341D01*
X103753093Y-121188224D01*
X103785210Y-121229449D01*
X103818684Y-121275937D01*
X103845786Y-121314371D01*
X103875482Y-121354678D01*
X103899168Y-121384852D01*
X103913341Y-121400286D01*
X103914384Y-121401074D01*
X103944341Y-121411704D01*
X103993301Y-121415177D01*
X104000411Y-121415090D01*
X104020914Y-121414771D01*
X104036876Y-121416468D01*
X104050479Y-121422849D01*
X104063904Y-121436582D01*
X104079334Y-121460336D01*
X104098950Y-121496780D01*
X104124935Y-121548583D01*
X104159470Y-121618414D01*
X104186913Y-121671604D01*
X104225995Y-121742698D01*
X104266076Y-121811507D01*
X104301783Y-121868588D01*
X104328156Y-121909471D01*
X104352074Y-121948612D01*
X104367956Y-121977085D01*
X104373275Y-121990579D01*
X104373200Y-121991591D01*
X104379590Y-122008812D01*
X104395316Y-122033400D01*
X104397142Y-122035889D01*
X104412084Y-122061019D01*
X104416942Y-122078573D01*
X104418472Y-122087661D01*
X104429011Y-122113125D01*
X104446525Y-122145750D01*
X104457844Y-122167066D01*
X104470899Y-122200468D01*
X104474194Y-122223778D01*
X104473668Y-122238465D01*
X104480007Y-122249554D01*
X104487271Y-122260662D01*
X104490833Y-122285546D01*
X104495045Y-122313480D01*
X104506264Y-122340686D01*
X104514472Y-122355133D01*
X104518906Y-122372974D01*
X104518882Y-122373115D01*
X104521526Y-122396495D01*
X104531951Y-122429892D01*
X104546390Y-122463185D01*
X104561073Y-122486255D01*
X104570636Y-122500326D01*
X104575499Y-122521920D01*
X104575944Y-122530823D01*
X104588569Y-122548493D01*
X104597247Y-122559204D01*
X104600190Y-122583279D01*
X104601036Y-122595849D01*
X104612577Y-122626315D01*
X104633769Y-122661354D01*
X104645963Y-122679866D01*
X104662967Y-122714788D01*
X104667202Y-122740254D01*
X104668570Y-122758872D01*
X104683417Y-122782555D01*
X104695059Y-122796718D01*
X104700310Y-122821003D01*
X104701400Y-122832718D01*
X104712629Y-122861323D01*
X104732298Y-122894287D01*
X104743947Y-122912441D01*
X104764746Y-122953090D01*
X104776833Y-122988412D01*
X104777729Y-122992699D01*
X104786792Y-123026551D01*
X104796417Y-123051049D01*
X104803965Y-123069695D01*
X104811066Y-123100977D01*
X104812296Y-123108912D01*
X104825661Y-123155417D01*
X104848347Y-123208431D01*
X104876257Y-123258080D01*
X104891703Y-123291828D01*
X104894864Y-123328722D01*
X104893663Y-123354000D01*
X104899270Y-123371035D01*
X104903847Y-123378003D01*
X104914029Y-123403288D01*
X104924480Y-123438321D01*
X104928717Y-123453699D01*
X104944887Y-123503338D01*
X104962360Y-123547852D01*
X104965954Y-123556177D01*
X104981791Y-123596339D01*
X105000344Y-123647189D01*
X105018309Y-123699756D01*
X105025705Y-123721721D01*
X105040760Y-123763140D01*
X105053142Y-123792965D01*
X105060719Y-123805865D01*
X105064093Y-123815279D01*
X105058806Y-123836735D01*
X105054500Y-123855471D01*
X105065680Y-123887274D01*
X105078147Y-123908585D01*
X105095231Y-123945343D01*
X105112518Y-123988280D01*
X105127457Y-124030583D01*
X105137499Y-124065445D01*
X105140095Y-124086054D01*
X105139745Y-124094752D01*
X105147166Y-124113083D01*
X105151967Y-124121096D01*
X105153601Y-124143710D01*
X105154588Y-124156794D01*
X105169111Y-124175312D01*
X105173291Y-124178416D01*
X105186069Y-124202556D01*
X105193548Y-124242561D01*
X105195404Y-124260513D01*
X105200636Y-124297297D01*
X105206075Y-124322005D01*
X105208139Y-124337234D01*
X105194808Y-124367364D01*
X105183070Y-124385450D01*
X105176547Y-124405604D01*
X105176451Y-124407186D01*
X105167261Y-124426220D01*
X105147587Y-124449672D01*
X105147194Y-124450061D01*
X105124899Y-124480559D01*
X105112109Y-124513285D01*
X105102479Y-124540756D01*
X105085732Y-124562185D01*
X105073865Y-124572977D01*
X105062595Y-124592705D01*
X105061341Y-124596374D01*
X105046798Y-124615561D01*
X105022137Y-124637553D01*
X104983360Y-124666908D01*
X104919768Y-124714588D01*
X104871012Y-124750282D01*
X104834769Y-124775586D01*
X104808716Y-124792094D01*
X104790527Y-124801398D01*
X104777879Y-124805093D01*
X104771197Y-124806618D01*
X104742713Y-124816995D01*
X104702681Y-124834531D01*
X104657546Y-124856473D01*
X104612770Y-124877453D01*
X104522002Y-124912678D01*
X104415011Y-124946870D01*
X104296206Y-124978538D01*
X104293871Y-124979098D01*
X104218526Y-124991864D01*
X104128655Y-124998757D01*
X104032166Y-124999157D01*
X104024298Y-124998912D01*
X103966159Y-124997184D01*
X103899711Y-124995312D01*
X103837833Y-124993659D01*
X103786583Y-124990725D01*
X103718832Y-124984279D01*
X103645589Y-124975347D01*
X103575769Y-124964909D01*
X103539175Y-124958590D01*
X103465090Y-124943544D01*
X103406050Y-124926955D01*
X103356251Y-124906630D01*
X103309888Y-124880373D01*
X103261160Y-124845991D01*
X103240023Y-124830710D01*
X103211920Y-124812646D01*
X103194696Y-124804508D01*
X103189195Y-124801978D01*
X103174837Y-124780647D01*
X103161927Y-124741117D01*
X103151270Y-124687126D01*
X103143673Y-124622405D01*
X103139942Y-124550694D01*
X103138661Y-124509087D01*
X103135719Y-124453913D01*
X103131878Y-124408013D01*
X103127639Y-124378405D01*
X103126324Y-124371842D01*
X103121126Y-124335144D01*
X103116247Y-124286191D01*
X103112596Y-124233713D01*
X103111639Y-124216151D01*
X103108877Y-124169302D01*
X103106390Y-124132105D01*
X103104622Y-124111377D01*
X103104417Y-124109188D01*
X103110864Y-124094487D01*
X103135497Y-124089400D01*
X103169579Y-124087616D01*
X103228859Y-124083335D01*
X103299487Y-124077368D01*
X103374834Y-124070312D01*
X103448267Y-124062767D01*
X103513155Y-124055330D01*
X103560705Y-124048993D01*
X103602475Y-124041030D01*
X103634460Y-124030220D01*
X103663996Y-124013964D01*
X103698419Y-123989661D01*
X103714256Y-123977414D01*
X103760634Y-123933776D01*
X103788813Y-123892988D01*
X103797076Y-123875861D01*
X103810376Y-123857134D01*
X103828352Y-123852245D01*
X103860099Y-123856547D01*
X103876667Y-123859062D01*
X103954768Y-123863514D01*
X104047365Y-123859599D01*
X104149017Y-123848208D01*
X104254276Y-123830231D01*
X104357700Y-123806562D01*
X104453843Y-123778090D01*
X104537260Y-123745706D01*
X104562170Y-123733980D01*
X104633928Y-123694830D01*
X104695996Y-123652991D01*
X104744141Y-123611538D01*
X104774138Y-123573544D01*
X104788508Y-123539125D01*
X104793003Y-123490471D01*
X104779995Y-123447927D01*
X104752933Y-123414139D01*
X104715271Y-123391752D01*
X104670460Y-123383415D01*
X104621954Y-123391775D01*
X104573201Y-123419477D01*
X104546046Y-123439750D01*
X104472933Y-123482658D01*
X104383829Y-123520260D01*
X104275116Y-123554189D01*
X104246030Y-123561669D01*
X104172905Y-123577218D01*
X104097944Y-123589287D01*
X104026026Y-123597398D01*
X103962031Y-123601072D01*
X103910839Y-123599831D01*
X103877328Y-123593196D01*
X103860332Y-123581817D01*
X103842245Y-123550329D01*
X103836274Y-123507465D01*
X103842165Y-123458386D01*
X103859670Y-123408252D01*
X103888538Y-123362221D01*
X103903941Y-123341181D01*
X103931091Y-123296399D01*
X103953480Y-123250858D01*
X103980962Y-123185421D01*
X104058247Y-123190314D01*
X104067966Y-123190857D01*
X104132140Y-123190366D01*
X104199216Y-123181992D01*
X104275090Y-123164723D01*
X104365663Y-123137546D01*
X104393562Y-123128090D01*
X104443233Y-123107643D01*
X104480523Y-123085116D01*
X104512791Y-123056452D01*
X104532910Y-123034770D01*
X104570778Y-122983152D01*
X104589345Y-122935274D01*
X104590274Y-122887513D01*
X104589229Y-122881438D01*
X104570035Y-122834191D01*
X104536601Y-122800777D01*
X104493832Y-122782417D01*
X104446636Y-122780331D01*
X104399921Y-122795740D01*
X104358592Y-122829866D01*
X104338729Y-122848108D01*
X104292356Y-122875526D01*
X104233056Y-122899298D01*
X104167181Y-122917044D01*
X104101077Y-122926384D01*
X104011898Y-122932428D01*
X103989773Y-122850611D01*
X103967094Y-122787530D01*
X103915300Y-122701075D01*
X103841722Y-122622107D01*
X103800797Y-122585695D01*
X103867699Y-122589013D01*
X103941696Y-122589164D01*
X104043872Y-122579240D01*
X104136940Y-122558926D01*
X104198261Y-122539450D01*
X104262693Y-122516488D01*
X104320754Y-122493399D01*
X104367085Y-122472320D01*
X104396326Y-122455391D01*
X104403533Y-122449673D01*
X104437108Y-122408922D01*
X104451995Y-122362823D01*
X104449254Y-122316261D01*
X104429944Y-122274124D01*
X104395127Y-122241299D01*
X104345861Y-122222672D01*
X104327696Y-122220715D01*
X104295509Y-122223473D01*
X104254927Y-122234802D01*
X104199957Y-122256077D01*
X104146868Y-122277835D01*
X104093958Y-122297876D01*
X104050729Y-122311128D01*
X104010735Y-122319166D01*
X103967531Y-122323569D01*
X103914673Y-122325916D01*
X103894473Y-122326613D01*
X103847841Y-122328804D01*
X103811419Y-122331319D01*
X103791754Y-122333743D01*
X103784886Y-122333431D01*
X103775190Y-122322261D01*
X103766152Y-122294834D01*
X103756338Y-122247677D01*
X103755252Y-122241885D01*
X103744512Y-122193558D01*
X103732441Y-122151036D01*
X103721447Y-122122942D01*
X103705960Y-122098793D01*
X103657032Y-122050110D01*
X103591554Y-122009896D01*
X103513669Y-121979933D01*
X103427523Y-121962001D01*
X103337259Y-121957880D01*
X103293908Y-121960531D01*
X103198827Y-121973015D01*
X103107729Y-121993401D01*
X103026990Y-122020093D01*
X102962982Y-122051500D01*
X102943942Y-122062344D01*
X102922721Y-122070942D01*
X102915501Y-122068364D01*
X102915063Y-122060031D01*
X102910166Y-122031907D01*
X102901131Y-121990374D01*
X102889115Y-121941009D01*
X102883029Y-121916644D01*
X102869206Y-121857772D01*
X102857341Y-121802719D01*
X102849487Y-121760828D01*
X102844992Y-121734925D01*
X102834994Y-121685287D01*
X102825121Y-121644085D01*
X102808221Y-121577941D01*
X102779307Y-121426594D01*
X102763819Y-121271015D01*
X102760805Y-121103186D01*
X102761359Y-121071241D01*
X102762229Y-121027455D01*
X102762985Y-120996502D01*
X102763510Y-120983621D01*
X102771645Y-120980014D01*
X102794294Y-120976860D01*
X102814589Y-120972620D01*
X102826249Y-120963456D01*
X102832689Y-120957498D01*
X102853160Y-120956591D01*
X102872818Y-120956212D01*
X102902087Y-120945903D01*
X102918568Y-120937465D01*
X102933485Y-120939918D01*
G37*
D15*
%TO.C,REF\u002A\u002A*%
X108639491Y-79194684D02*
G75*
G02*
X111110657Y-79277894I865341J-11037021D01*
G01*
X110370177Y-101268580D02*
G75*
G02*
X107899011Y-101185370I-865342J11036975D01*
G01*
D16*
%TO.C,G\u002A\u002A\u002A*%
G36*
X71013665Y-113437496D02*
G01*
X71033384Y-113450351D01*
X71040058Y-113457570D01*
X71051018Y-113472797D01*
X71054310Y-113486094D01*
X71052004Y-113502188D01*
X71044633Y-113521627D01*
X71032231Y-113542989D01*
X71025981Y-113551382D01*
X70977854Y-113617742D01*
X70941914Y-113684530D01*
X70917847Y-113752357D01*
X70913808Y-113768833D01*
X70909041Y-113788899D01*
X70904522Y-113806136D01*
X70903817Y-113808570D01*
X70902126Y-113819040D01*
X70908210Y-113821076D01*
X70914190Y-113820042D01*
X70927303Y-113818008D01*
X70948701Y-113815417D01*
X70974208Y-113812764D01*
X70979519Y-113812262D01*
X71023413Y-113806795D01*
X71057907Y-113799035D01*
X71086015Y-113788144D01*
X71104952Y-113777260D01*
X71124645Y-113765419D01*
X71144116Y-113755443D01*
X71147926Y-113753788D01*
X71167439Y-113743597D01*
X71184357Y-113731879D01*
X71220497Y-113703442D01*
X71250287Y-113682894D01*
X71273021Y-113670672D01*
X71287846Y-113667208D01*
X71306462Y-113674505D01*
X71322289Y-113690548D01*
X71332584Y-113711581D01*
X71334860Y-113731619D01*
X71332723Y-113744130D01*
X71327414Y-113754849D01*
X71316821Y-113766472D01*
X71298841Y-113781698D01*
X71290692Y-113788158D01*
X71255103Y-113813750D01*
X71212716Y-113840527D01*
X71167865Y-113865995D01*
X71124886Y-113887657D01*
X71096458Y-113899919D01*
X71068561Y-113908380D01*
X71035116Y-113915067D01*
X71007898Y-113918254D01*
X70957493Y-113923255D01*
X70916841Y-113930904D01*
X70883329Y-113941984D01*
X70854344Y-113957281D01*
X70837115Y-113969529D01*
X70792183Y-113999951D01*
X70740806Y-114027120D01*
X70689067Y-114047826D01*
X70663145Y-114057592D01*
X70631569Y-114071375D01*
X70596973Y-114087815D01*
X70561994Y-114105556D01*
X70529267Y-114123237D01*
X70501429Y-114139503D01*
X70481115Y-114152992D01*
X70474410Y-114158450D01*
X70455618Y-114175987D01*
X70442611Y-114188518D01*
X70431955Y-114199479D01*
X70420212Y-114212307D01*
X70417207Y-114215649D01*
X70399572Y-114233789D01*
X70379713Y-114251933D01*
X70360184Y-114268017D01*
X70343537Y-114279972D01*
X70334572Y-114278944D01*
X70332432Y-114281350D01*
X70322244Y-114269152D01*
X70310395Y-114265509D01*
X70296440Y-114248303D01*
X70280545Y-114233845D01*
X70280239Y-114233625D01*
X70279158Y-114223905D01*
X70264963Y-114209918D01*
X70274983Y-114199228D01*
X70275196Y-114199079D01*
X70283433Y-114192036D01*
X70298525Y-114177886D01*
X70318582Y-114158450D01*
X70341706Y-114135549D01*
X70350795Y-114126424D01*
X70380127Y-114097601D01*
X70404385Y-114075821D01*
X70426673Y-114058667D01*
X70450095Y-114043724D01*
X70474037Y-114030525D01*
X70513078Y-114010061D01*
X70543712Y-113994247D01*
X70568556Y-113981826D01*
X70590219Y-113971540D01*
X70611315Y-113962131D01*
X70634459Y-113952340D01*
X70648386Y-113946591D01*
X70682673Y-113931784D01*
X70708119Y-113918517D01*
X70727810Y-113904572D01*
X70744829Y-113887730D01*
X70762261Y-113865770D01*
X70764008Y-113863395D01*
X70780470Y-113836963D01*
X70792763Y-113806916D01*
X70800318Y-113780056D01*
X70818814Y-113712355D01*
X70839265Y-113653735D01*
X70863320Y-113600776D01*
X70892630Y-113550058D01*
X70928843Y-113498164D01*
X70948758Y-113472342D01*
X70971714Y-113448433D01*
X70993229Y-113436837D01*
X71013665Y-113437496D01*
G37*
%TD*%
M02*
