%TF.GenerationSoftware,KiCad,Pcbnew,8.0.1*%
%TF.CreationDate,2024-03-28T19:23:52+01:00*%
%TF.ProjectId,chew_v1,63686577-5f76-4312-9e6b-696361645f70,rev?*%
%TF.SameCoordinates,Original*%
%TF.FileFunction,Profile,NP*%
%FSLAX46Y46*%
G04 Gerber Fmt 4.6, Leading zero omitted, Abs format (unit mm)*
G04 Created by KiCad (PCBNEW 8.0.1) date 2024-03-28 19:23:52*
%MOMM*%
%LPD*%
G01*
G04 APERTURE LIST*
%TA.AperFunction,Profile*%
%ADD10C,0.150000*%
%TD*%
G04 APERTURE END LIST*
D10*
X153977226Y-57264827D02*
G75*
G02*
X155048988Y-59230274I-477226J-1535173D01*
G01*
X53915745Y-68904673D02*
G75*
G02*
X53122752Y-72246539I-1808505J-1335877D01*
G01*
X155048988Y-59230274D02*
X154044187Y-62090343D01*
X165811850Y-69635551D02*
X166388274Y-71364822D01*
X155000000Y-64099999D02*
G75*
G02*
X154044234Y-62090359I567300J1501899D01*
G01*
X51261762Y-76300172D02*
G75*
G02*
X46897247Y-79280544I-3359002J233062D01*
G01*
X184243488Y-80162059D02*
G75*
G02*
X176925280Y-138809746I-62386888J-21995641D01*
G01*
X60040598Y-132281676D02*
G75*
G02*
X117066135Y-133590525I26452562J-90415994D01*
G01*
X176925279Y-138809745D02*
G75*
G02*
X172639879Y-140900454I-3816379J2385245D01*
G01*
X168818396Y-73859942D02*
X183071438Y-79032734D01*
X155000000Y-64100000D02*
X163381129Y-67140213D01*
X57171987Y-131153053D02*
G75*
G02*
X43642380Y-80366799I150962423J67412123D01*
G01*
X126565959Y-135304430D02*
G75*
G02*
X172639880Y-140900447I3434041J-164195570D01*
G01*
X60040598Y-132281673D02*
G75*
G02*
X57171987Y-131153052I-640598J2581673D01*
G01*
X126565959Y-135304430D02*
G75*
G02*
X117066135Y-133590525I5434041J57304530D01*
G01*
X53915746Y-68904673D02*
G75*
G02*
X153993773Y-57208242I63839664J-112234117D01*
G01*
X46897245Y-79280552D02*
G75*
G02*
X43642379Y-80366799I-1994715J557412D01*
G01*
X53132094Y-72264995D02*
G75*
G02*
X51261762Y-76300167I-2703274J-1198055D01*
G01*
X168818396Y-73859942D02*
G75*
G02*
X166388264Y-71364825I1364604J3760042D01*
G01*
X163381129Y-67140214D02*
G75*
G02*
X165811862Y-69635547I-1364029J-3760286D01*
G01*
X183071438Y-79032734D02*
G75*
G02*
X184243488Y-80162059I-871438J-2077266D01*
G01*
M02*
