%TF.GenerationSoftware,KiCad,Pcbnew,7.0.10*%
%TF.CreationDate,2024-03-05T23:28:46+01:00*%
%TF.ProjectId,routes,726f7574-6573-42e6-9b69-6361645f7063,rev?*%
%TF.SameCoordinates,Original*%
%TF.FileFunction,Soldermask,Top*%
%TF.FilePolarity,Negative*%
%FSLAX46Y46*%
G04 Gerber Fmt 4.6, Leading zero omitted, Abs format (unit mm)*
G04 Created by KiCad (PCBNEW 7.0.10) date 2024-03-05 23:28:46*
%MOMM*%
%LPD*%
G01*
G04 APERTURE LIST*
G04 Aperture macros list*
%AMHorizOval*
0 Thick line with rounded ends*
0 $1 width*
0 $2 $3 position (X,Y) of the first rounded end (center of the circle)*
0 $4 $5 position (X,Y) of the second rounded end (center of the circle)*
0 Add line between two ends*
20,1,$1,$2,$3,$4,$5,0*
0 Add two circle primitives to create the rounded ends*
1,1,$1,$2,$3*
1,1,$1,$4,$5*%
G04 Aperture macros list end*
%ADD10C,4.400000*%
%ADD11HorizOval,1.200000X0.422862X-0.153909X-0.422862X0.153909X0*%
%ADD12C,0.800000*%
%ADD13HorizOval,1.600000X0.068404X0.187939X-0.068404X-0.187939X0*%
%ADD14HorizOval,1.600000X-0.068404X-0.187939X0.068404X0.187939X0*%
%ADD15C,1.701800*%
%ADD16C,3.429000*%
%ADD17HorizOval,1.200000X-0.445621X-0.062628X0.445621X0.062628X0*%
%ADD18O,2.100000X1.200000*%
%ADD19HorizOval,1.200000X-0.449383X0.023551X0.449383X-0.023551X0*%
%ADD20HorizOval,1.200000X-0.078142X-0.443163X0.078142X0.443163X0*%
%ADD21HorizOval,1.200000X-0.434667X-0.116469X0.434667X0.116469X0*%
%ADD22C,2.000000*%
%ADD23HorizOval,1.200000X0.190178X0.407839X-0.190178X-0.407839X0*%
%ADD24O,1.200000X2.100000*%
G04 APERTURE END LIST*
%TO.C,G\u002A\u002A\u002A*%
G36*
X122007414Y-54595745D02*
G01*
X122140297Y-54601257D01*
X122259973Y-54607375D01*
X122695113Y-54630180D01*
X122871984Y-54729097D01*
X123048697Y-54853512D01*
X123187168Y-55010415D01*
X123294295Y-55207731D01*
X123299498Y-55220114D01*
X123362969Y-55373217D01*
X123267887Y-57288103D01*
X123248904Y-57667411D01*
X123232083Y-57996149D01*
X123217165Y-58278086D01*
X123203889Y-58516985D01*
X123191994Y-58716617D01*
X123181222Y-58880745D01*
X123171310Y-59013136D01*
X123162000Y-59117558D01*
X123153030Y-59197777D01*
X123144140Y-59257559D01*
X123135069Y-59300672D01*
X123126936Y-59327262D01*
X123070443Y-59439559D01*
X122985092Y-59563228D01*
X122886416Y-59678219D01*
X122789954Y-59764480D01*
X122785947Y-59767342D01*
X122631284Y-59855904D01*
X122458635Y-59912727D01*
X122256555Y-59940735D01*
X122091589Y-59944764D01*
X121927758Y-59938352D01*
X121927394Y-59938338D01*
X121768280Y-59924036D01*
X121636223Y-59903970D01*
X121611042Y-59898542D01*
X121401902Y-59822796D01*
X121217409Y-59702249D01*
X121064704Y-59543589D01*
X120950925Y-59353510D01*
X120908010Y-59239595D01*
X120900479Y-59210505D01*
X120894530Y-59174889D01*
X120894215Y-59171472D01*
X121012568Y-59171472D01*
X121088896Y-59325249D01*
X121188898Y-59477563D01*
X121321951Y-59609402D01*
X121472758Y-59706847D01*
X121538630Y-59734491D01*
X121638145Y-59758512D01*
X121775794Y-59777700D01*
X121935467Y-59791250D01*
X122101061Y-59798361D01*
X122256467Y-59798230D01*
X122385579Y-59790056D01*
X122448746Y-59779823D01*
X122561641Y-59738289D01*
X122682109Y-59661766D01*
X122752731Y-59605129D01*
X122835814Y-59530904D01*
X122901200Y-59460208D01*
X122951489Y-59384944D01*
X122989276Y-59297022D01*
X123017158Y-59188346D01*
X123037735Y-59050826D01*
X123053602Y-58876368D01*
X123067357Y-58656879D01*
X123069474Y-58618172D01*
X123099219Y-58067564D01*
X122986127Y-57941962D01*
X122790071Y-57761718D01*
X122570984Y-57628322D01*
X122334056Y-57543692D01*
X122084478Y-57509743D01*
X121853903Y-57524016D01*
X121620838Y-57581247D01*
X121410068Y-57680212D01*
X121405582Y-57683463D01*
X121212812Y-57823174D01*
X121058931Y-57954086D01*
X121035750Y-58562779D01*
X121012568Y-59171472D01*
X120894215Y-59171472D01*
X120890275Y-59128779D01*
X120887833Y-59068203D01*
X120887316Y-58989193D01*
X120888842Y-58887777D01*
X120892524Y-58759988D01*
X120898478Y-58601855D01*
X120906819Y-58409407D01*
X120917662Y-58178674D01*
X120931124Y-57905687D01*
X120947317Y-57586476D01*
X120966358Y-57217072D01*
X120967109Y-57202586D01*
X120977585Y-57000785D01*
X121121138Y-57000785D01*
X121128820Y-57123060D01*
X121147740Y-57216895D01*
X121179822Y-57290849D01*
X121226990Y-57353478D01*
X121291167Y-57413341D01*
X121309817Y-57428654D01*
X121414506Y-57513186D01*
X121587010Y-57451497D01*
X121687079Y-57420594D01*
X121787432Y-57402205D01*
X121906607Y-57393981D01*
X122045694Y-57393331D01*
X122243098Y-57404453D01*
X122415127Y-57436297D01*
X122584549Y-57494619D01*
X122745112Y-57570126D01*
X122791508Y-57566703D01*
X122860114Y-57530819D01*
X122938548Y-57471988D01*
X123014428Y-57399720D01*
X123075373Y-57323528D01*
X123084049Y-57309718D01*
X123105739Y-57267893D01*
X123122421Y-57218799D01*
X123135451Y-57153227D01*
X123146186Y-57061969D01*
X123155979Y-56935814D01*
X123166187Y-56765555D01*
X123167428Y-56743101D01*
X123193279Y-56272799D01*
X123119484Y-56152513D01*
X122987520Y-55979410D01*
X122818987Y-55835207D01*
X122677399Y-55748565D01*
X122597994Y-55707477D01*
X122530828Y-55679696D01*
X122460720Y-55661785D01*
X122372493Y-55650309D01*
X122250965Y-55641832D01*
X122191692Y-55638619D01*
X122050582Y-55632449D01*
X121948750Y-55632311D01*
X121871268Y-55639708D01*
X121803216Y-55656143D01*
X121729667Y-55683120D01*
X121723003Y-55685818D01*
X121532012Y-55787590D01*
X121353230Y-55928037D01*
X121239829Y-56048959D01*
X121157256Y-56150838D01*
X121131794Y-56636682D01*
X121122771Y-56841512D01*
X121121138Y-57000785D01*
X120977585Y-57000785D01*
X120986221Y-56834434D01*
X121002879Y-56516562D01*
X121017401Y-56244929D01*
X121030108Y-56015495D01*
X121041321Y-55824222D01*
X121051360Y-55667069D01*
X121060544Y-55539996D01*
X121069195Y-55438964D01*
X121077633Y-55359932D01*
X121086179Y-55298863D01*
X121095152Y-55251715D01*
X121104874Y-55214448D01*
X121115663Y-55183023D01*
X121127842Y-55153401D01*
X121130020Y-55148377D01*
X121228593Y-54982568D01*
X121367760Y-54832628D01*
X121533799Y-54711592D01*
X121649837Y-54654513D01*
X121717653Y-54628375D01*
X121776156Y-54610291D01*
X121836507Y-54599399D01*
X121909872Y-54594839D01*
X122007414Y-54595745D01*
G37*
G36*
X121731120Y-54222748D02*
G01*
X121939557Y-54230017D01*
X122094884Y-54236296D01*
X122330217Y-54246537D01*
X122518369Y-54256236D01*
X122666536Y-54266040D01*
X122781913Y-54276597D01*
X122871696Y-54288554D01*
X122943081Y-54302559D01*
X122997868Y-54317550D01*
X123213383Y-54407847D01*
X123389822Y-54532401D01*
X123527898Y-54692508D01*
X123628329Y-54889461D01*
X123691832Y-55124554D01*
X123719123Y-55399084D01*
X123717016Y-55616437D01*
X123708958Y-55786216D01*
X123977209Y-55800275D01*
X124126188Y-55811538D01*
X124222881Y-55827126D01*
X124269247Y-55847366D01*
X124271238Y-55849724D01*
X124294113Y-55900434D01*
X124322677Y-55991729D01*
X124353779Y-56110530D01*
X124384266Y-56243759D01*
X124410986Y-56378334D01*
X124430787Y-56501175D01*
X124433753Y-56524098D01*
X124450162Y-56623421D01*
X124470641Y-56698926D01*
X124491150Y-56736055D01*
X124492822Y-56737001D01*
X124528377Y-56742307D01*
X124610789Y-56749338D01*
X124732571Y-56757624D01*
X124886233Y-56766690D01*
X125064287Y-56776064D01*
X125255102Y-56785089D01*
X125982485Y-56817645D01*
X126010587Y-56675632D01*
X126036222Y-56572503D01*
X126068755Y-56474934D01*
X126083462Y-56440490D01*
X126128236Y-56347361D01*
X126570257Y-56378013D01*
X127012280Y-56408667D01*
X127091313Y-56589818D01*
X127189323Y-56856222D01*
X127272055Y-57169056D01*
X127338187Y-57522181D01*
X127386390Y-57909456D01*
X127393926Y-57992369D01*
X127402448Y-58144601D01*
X127406302Y-58335701D01*
X127405858Y-58553041D01*
X127401490Y-58783989D01*
X127393570Y-59015914D01*
X127382469Y-59236189D01*
X127368559Y-59432180D01*
X127352212Y-59591259D01*
X127345420Y-59639524D01*
X127253955Y-60116366D01*
X127134575Y-60556479D01*
X126988371Y-60957076D01*
X126816434Y-61315374D01*
X126619857Y-61628587D01*
X126510394Y-61770155D01*
X126344253Y-61969871D01*
X126267125Y-61965982D01*
X122919711Y-61797206D01*
X122487612Y-61775348D01*
X122067215Y-61753945D01*
X121662091Y-61733184D01*
X121275811Y-61713254D01*
X120911944Y-61694344D01*
X120574060Y-61676643D01*
X120265731Y-61660339D01*
X119990526Y-61645622D01*
X119752015Y-61632679D01*
X119553770Y-61621701D01*
X119399360Y-61612874D01*
X119292355Y-61606389D01*
X119238274Y-61602603D01*
X118864968Y-61546297D01*
X118518022Y-61444627D01*
X118200013Y-61299674D01*
X117913526Y-61113516D01*
X117661135Y-60888230D01*
X117445425Y-60625897D01*
X117268975Y-60328595D01*
X117134364Y-59998401D01*
X117098479Y-59878621D01*
X117070283Y-59782431D01*
X117048833Y-59736212D01*
X117214664Y-59736212D01*
X117235768Y-59847500D01*
X117277258Y-59985057D01*
X117406049Y-60293289D01*
X117579412Y-60573137D01*
X117793617Y-60821227D01*
X118044939Y-61034188D01*
X118329652Y-61208646D01*
X118644029Y-61341233D01*
X118838443Y-61397608D01*
X118875634Y-61405757D01*
X118921214Y-61413728D01*
X118978007Y-61421700D01*
X119048844Y-61429852D01*
X119136550Y-61438364D01*
X119243954Y-61447417D01*
X119373881Y-61457188D01*
X119529162Y-61467858D01*
X119712621Y-61479609D01*
X119927087Y-61492617D01*
X120175389Y-61507064D01*
X120460351Y-61523130D01*
X120784802Y-61540994D01*
X121151570Y-61560834D01*
X121563482Y-61582833D01*
X122023366Y-61607169D01*
X122534049Y-61634022D01*
X122667572Y-61641023D01*
X126274250Y-61830041D01*
X126358384Y-61732330D01*
X126425370Y-61652665D01*
X126488998Y-61574114D01*
X126503754Y-61555240D01*
X126564991Y-61475863D01*
X126492614Y-61472960D01*
X126439275Y-61461316D01*
X126423511Y-61421936D01*
X126423796Y-61402163D01*
X126438972Y-61349979D01*
X126487515Y-61330773D01*
X126500378Y-61329682D01*
X126555891Y-61335980D01*
X126577110Y-61373133D01*
X126579004Y-61388267D01*
X126585966Y-61417677D01*
X126602410Y-61409679D01*
X126634042Y-61359400D01*
X126652884Y-61325138D01*
X126697003Y-61223317D01*
X126709686Y-61143922D01*
X126708293Y-61133176D01*
X126709864Y-61078932D01*
X126749998Y-61053304D01*
X126752111Y-61052740D01*
X126783665Y-61032633D01*
X126817941Y-60983766D01*
X126859084Y-60898637D01*
X126911236Y-60769737D01*
X126917848Y-60752497D01*
X127056667Y-60327268D01*
X127163205Y-59866688D01*
X127236038Y-59380193D01*
X127273742Y-58877223D01*
X127275424Y-58383175D01*
X127253366Y-58010625D01*
X127212404Y-57644925D01*
X127154422Y-57296712D01*
X127081304Y-56976626D01*
X126994935Y-56695306D01*
X126960076Y-56603365D01*
X126929262Y-56526861D01*
X126568271Y-56507942D01*
X126207279Y-56489024D01*
X126173660Y-56589383D01*
X126141983Y-56696184D01*
X126135995Y-56763078D01*
X126158684Y-56799582D01*
X126213038Y-56815211D01*
X126245357Y-56817805D01*
X126315901Y-56819192D01*
X126345931Y-56806595D01*
X126349180Y-56769877D01*
X126345707Y-56743742D01*
X126349838Y-56673551D01*
X126378923Y-56630440D01*
X126423051Y-56626355D01*
X126436819Y-56633878D01*
X126457692Y-56657768D01*
X126476793Y-56703095D01*
X126495590Y-56776588D01*
X126515553Y-56884976D01*
X126538149Y-57034986D01*
X126560747Y-57201969D01*
X126612054Y-57750386D01*
X126621568Y-58301540D01*
X126588844Y-58862772D01*
X126513438Y-59441429D01*
X126412785Y-59953834D01*
X126394906Y-60044854D01*
X126386997Y-60079474D01*
X126320925Y-60338962D01*
X126251320Y-60552527D01*
X126174177Y-60728639D01*
X126163366Y-60746575D01*
X126085493Y-60875764D01*
X125981262Y-61002366D01*
X125923570Y-61059224D01*
X125744740Y-61188845D01*
X125537000Y-61277112D01*
X125449280Y-61294436D01*
X125308822Y-61322175D01*
X125142395Y-61322182D01*
X125068679Y-61322186D01*
X124873181Y-61288397D01*
X124615801Y-61202199D01*
X124508088Y-61142690D01*
X124402736Y-61084486D01*
X124369459Y-61055058D01*
X124658950Y-61055058D01*
X124682089Y-61080487D01*
X124746134Y-61109131D01*
X124837974Y-61137824D01*
X124944503Y-61163400D01*
X125052611Y-61182692D01*
X125149189Y-61192536D01*
X125218568Y-61190212D01*
X125253543Y-61181458D01*
X125281106Y-61162435D01*
X125285929Y-61155119D01*
X125456125Y-61155119D01*
X125456509Y-61156504D01*
X125490042Y-61156713D01*
X125554394Y-61130991D01*
X125637163Y-61086423D01*
X125725947Y-61030094D01*
X125808344Y-60969093D01*
X125852853Y-60930050D01*
X125925133Y-60850835D01*
X125993865Y-60759113D01*
X126052110Y-60666570D01*
X126092931Y-60584891D01*
X126109386Y-60525760D01*
X126104688Y-60505980D01*
X126070102Y-60494878D01*
X125995768Y-60485909D01*
X125896326Y-60480700D01*
X125873132Y-60480228D01*
X125660731Y-60477127D01*
X125553937Y-60811613D01*
X125533349Y-60877615D01*
X125514683Y-60937458D01*
X125483409Y-61043338D01*
X125462947Y-61119231D01*
X125456125Y-61155119D01*
X125285929Y-61155119D01*
X125306471Y-61123958D01*
X125334846Y-61056840D01*
X125371448Y-60951895D01*
X125396145Y-60877247D01*
X125448686Y-60719224D01*
X125483480Y-60606122D01*
X125496660Y-60530273D01*
X125484361Y-60484010D01*
X125442718Y-60459664D01*
X125367864Y-60449569D01*
X125255935Y-60446057D01*
X125177817Y-60444172D01*
X124848876Y-60434579D01*
X124755067Y-60729217D01*
X124717366Y-60849640D01*
X124686468Y-60952137D01*
X124665843Y-61024948D01*
X124658950Y-61055058D01*
X124369459Y-61055058D01*
X124233940Y-60935216D01*
X124109371Y-60754350D01*
X124098222Y-60724877D01*
X124028986Y-60541849D01*
X124019214Y-60500273D01*
X124011642Y-60459506D01*
X124146524Y-60459506D01*
X124166403Y-60531124D01*
X124200736Y-60618469D01*
X124239621Y-60693404D01*
X124295937Y-60777179D01*
X124360706Y-60859375D01*
X124424952Y-60929571D01*
X124479700Y-60977351D01*
X124515970Y-60992295D01*
X124520791Y-60989962D01*
X124538462Y-60956799D01*
X124566018Y-60886115D01*
X124599100Y-60791495D01*
X124633349Y-60686527D01*
X124664402Y-60584798D01*
X124687903Y-60499893D01*
X124699490Y-60445402D01*
X124699338Y-60433551D01*
X124669388Y-60423346D01*
X124597239Y-60412737D01*
X124495049Y-60403246D01*
X124418763Y-60398422D01*
X124285195Y-60392748D01*
X124199547Y-60396750D01*
X124155448Y-60416860D01*
X124146524Y-60459506D01*
X124011642Y-60459506D01*
X124004972Y-60423593D01*
X123997228Y-60348046D01*
X123996692Y-60264866D01*
X123998034Y-60246775D01*
X124123278Y-60246775D01*
X124436496Y-60263190D01*
X124572829Y-60269434D01*
X124664397Y-60270618D01*
X124720667Y-60265867D01*
X124742408Y-60257612D01*
X124899779Y-60257612D01*
X124910145Y-60272507D01*
X124943720Y-60283103D01*
X125008797Y-60291158D01*
X125113673Y-60298431D01*
X125223979Y-60304461D01*
X125562457Y-60322199D01*
X125568785Y-60295666D01*
X125705704Y-60295666D01*
X125722350Y-60314245D01*
X125778576Y-60328083D01*
X125880395Y-60338355D01*
X125943894Y-60342190D01*
X126183900Y-60354768D01*
X126246305Y-60092524D01*
X126294808Y-59878403D01*
X126338216Y-59666981D01*
X126374235Y-59470752D01*
X126400569Y-59302214D01*
X126414802Y-59175461D01*
X126425411Y-59033048D01*
X126180992Y-59020239D01*
X126073275Y-59016074D01*
X125989615Y-59015653D01*
X125942168Y-59018901D01*
X125935822Y-59021781D01*
X125929596Y-59075534D01*
X125915281Y-59171246D01*
X125894871Y-59297425D01*
X125870358Y-59442583D01*
X125843737Y-59595228D01*
X125817001Y-59743872D01*
X125792143Y-59877024D01*
X125771156Y-59983196D01*
X125760370Y-60033018D01*
X125736102Y-60140914D01*
X125717239Y-60230219D01*
X125706811Y-60286380D01*
X125705704Y-60295666D01*
X125568785Y-60295666D01*
X125620349Y-60079446D01*
X125648028Y-59953795D01*
X125678990Y-59797822D01*
X125710701Y-59626038D01*
X125740632Y-59452960D01*
X125766253Y-59293101D01*
X125785031Y-59160975D01*
X125793139Y-59088417D01*
X125800786Y-59000313D01*
X125465325Y-58982732D01*
X125129863Y-58965151D01*
X125098949Y-59215428D01*
X125083196Y-59327143D01*
X125060665Y-59466209D01*
X125033539Y-59621177D01*
X125004001Y-59780599D01*
X124974231Y-59933024D01*
X124946413Y-60067001D01*
X124922729Y-60171083D01*
X124905359Y-60233818D01*
X124904327Y-60236657D01*
X124899779Y-60257612D01*
X124742408Y-60257612D01*
X124751102Y-60254311D01*
X124765167Y-60235075D01*
X124766002Y-60232803D01*
X124790983Y-60145985D01*
X124821129Y-60018231D01*
X124854010Y-59862456D01*
X124887198Y-59691583D01*
X124918267Y-59518529D01*
X124944791Y-59356215D01*
X124964340Y-59217560D01*
X124973720Y-59127170D01*
X124986058Y-58957615D01*
X124666955Y-58940921D01*
X124356555Y-58924683D01*
X124347852Y-58924228D01*
X124254796Y-59470773D01*
X124225187Y-59644756D01*
X124197483Y-59807715D01*
X124173436Y-59949318D01*
X124154802Y-60059232D01*
X124143335Y-60127126D01*
X124142509Y-60132046D01*
X124123278Y-60246775D01*
X123998034Y-60246775D01*
X124004076Y-60165290D01*
X124020089Y-60040553D01*
X124045441Y-59881891D01*
X124080844Y-59680538D01*
X124089572Y-59632285D01*
X124165847Y-59172726D01*
X124206632Y-58872066D01*
X125951779Y-58872066D01*
X126209920Y-58885594D01*
X126468061Y-58899123D01*
X126479382Y-58348264D01*
X126482321Y-58172324D01*
X126483823Y-58007539D01*
X126483889Y-57864433D01*
X126482518Y-57753532D01*
X126479712Y-57685361D01*
X126479331Y-57681073D01*
X126467958Y-57564740D01*
X126454395Y-57564029D01*
X126210631Y-57551254D01*
X126091304Y-57545853D01*
X126016963Y-57545735D01*
X125978349Y-57552248D01*
X125966201Y-57566739D01*
X125969751Y-57586286D01*
X125973759Y-57626627D01*
X125975910Y-57712881D01*
X125976216Y-57836602D01*
X125974683Y-57989347D01*
X125971324Y-58162669D01*
X125968989Y-58253434D01*
X125951779Y-58872066D01*
X124206632Y-58872066D01*
X124217922Y-58788837D01*
X124363675Y-58788837D01*
X124696109Y-58806259D01*
X125028544Y-58823681D01*
X125041989Y-58232085D01*
X125045379Y-58053487D01*
X125047240Y-57889296D01*
X125047566Y-57748712D01*
X125046354Y-57640943D01*
X125043600Y-57575191D01*
X125042304Y-57563998D01*
X125030401Y-57494666D01*
X125164016Y-57494666D01*
X125175096Y-57625468D01*
X125178029Y-57693771D01*
X125179546Y-57805380D01*
X125179641Y-57949227D01*
X125178308Y-58114249D01*
X125175541Y-58289376D01*
X125175459Y-58293544D01*
X125164741Y-58830819D01*
X125486322Y-58847672D01*
X125807903Y-58864525D01*
X125830929Y-58368744D01*
X125838007Y-58196508D01*
X125843158Y-58030618D01*
X125846109Y-57883765D01*
X125846589Y-57768643D01*
X125845075Y-57709105D01*
X125836195Y-57545247D01*
X125823273Y-57544274D01*
X125500105Y-57519956D01*
X125164016Y-57494666D01*
X125030401Y-57494666D01*
X125029172Y-57487506D01*
X124865958Y-57483604D01*
X124758236Y-57481030D01*
X124487298Y-57474554D01*
X124454011Y-57908525D01*
X124440221Y-58078443D01*
X124424999Y-58249754D01*
X124409899Y-58405962D01*
X124396471Y-58530572D01*
X124392198Y-58565666D01*
X124363675Y-58788837D01*
X124217922Y-58788837D01*
X124227470Y-58718450D01*
X124274225Y-58275156D01*
X124305900Y-57848544D01*
X124322283Y-57444316D01*
X124323157Y-57068170D01*
X124314152Y-56860515D01*
X124462219Y-56860515D01*
X124472886Y-56987420D01*
X124478417Y-57092548D01*
X124478924Y-57196331D01*
X124478059Y-57219165D01*
X124472564Y-57324005D01*
X124744140Y-57338238D01*
X124873221Y-57345021D01*
X124956671Y-57343130D01*
X125002868Y-57323521D01*
X125020198Y-57277153D01*
X125017040Y-57194982D01*
X125001775Y-57067967D01*
X125000954Y-57061182D01*
X124980661Y-56892958D01*
X125114340Y-56892958D01*
X125127283Y-56981571D01*
X125136750Y-57062072D01*
X125146020Y-57165308D01*
X125149604Y-57215081D01*
X125158982Y-57359979D01*
X125495034Y-57377590D01*
X125831086Y-57395202D01*
X125819668Y-57278867D01*
X125808967Y-57172661D01*
X125797772Y-57065475D01*
X125796431Y-57052983D01*
X125788744Y-56981728D01*
X125927010Y-56981728D01*
X125927843Y-57052958D01*
X125933600Y-57150396D01*
X125935635Y-57175547D01*
X125953703Y-57388012D01*
X126207552Y-57409189D01*
X126461400Y-57430364D01*
X126447867Y-57326471D01*
X126434828Y-57232391D01*
X126418730Y-57123857D01*
X126413812Y-57092147D01*
X126393290Y-56961718D01*
X126169228Y-56949976D01*
X126064431Y-56945973D01*
X125982178Y-56945621D01*
X125936168Y-56948884D01*
X125931366Y-56950658D01*
X125927010Y-56981728D01*
X125788744Y-56981728D01*
X125784613Y-56943436D01*
X125449476Y-56918196D01*
X125114340Y-56892958D01*
X124980661Y-56892958D01*
X124980021Y-56887652D01*
X124721120Y-56874084D01*
X124462219Y-56860515D01*
X124314152Y-56860515D01*
X124308311Y-56725808D01*
X124277530Y-56422930D01*
X124230602Y-56165236D01*
X124220949Y-56126121D01*
X124193547Y-56039335D01*
X124164159Y-55975811D01*
X124144401Y-55953071D01*
X124100963Y-55946334D01*
X124019797Y-55943434D01*
X123917465Y-55944902D01*
X123904258Y-55945409D01*
X123700176Y-55953795D01*
X123607905Y-57696304D01*
X123587731Y-58072461D01*
X123569674Y-58398090D01*
X123553460Y-58677002D01*
X123538813Y-58913006D01*
X123525458Y-59109911D01*
X123513121Y-59271527D01*
X123501526Y-59401664D01*
X123490400Y-59504132D01*
X123479467Y-59582740D01*
X123468452Y-59641299D01*
X123467224Y-59646683D01*
X123444961Y-59754599D01*
X123430600Y-59848821D01*
X123426811Y-59911265D01*
X123427338Y-59916914D01*
X123431539Y-59957479D01*
X123423767Y-59946532D01*
X123415481Y-59925201D01*
X123399007Y-59890188D01*
X123385844Y-59902783D01*
X123374390Y-59936195D01*
X123367474Y-59996088D01*
X123378572Y-60028907D01*
X123400680Y-60073530D01*
X123401553Y-60085044D01*
X123390116Y-60091911D01*
X123379140Y-60077135D01*
X123350708Y-60057404D01*
X123319969Y-60081807D01*
X123292701Y-60140690D01*
X123274680Y-60224400D01*
X123271695Y-60256668D01*
X123263237Y-60329025D01*
X123250608Y-60369480D01*
X123242816Y-60372744D01*
X123234028Y-60339124D01*
X123241278Y-60307189D01*
X123252092Y-60262924D01*
X123238689Y-60260900D01*
X123207164Y-60298194D01*
X123184240Y-60334523D01*
X123157028Y-60397385D01*
X123153457Y-60443390D01*
X123154669Y-60446109D01*
X123156422Y-60463716D01*
X123137148Y-60453541D01*
X123112979Y-60446200D01*
X123116859Y-60474115D01*
X123116735Y-60505977D01*
X123097553Y-60503750D01*
X123061334Y-60513165D01*
X123032069Y-60549361D01*
X122974100Y-60631093D01*
X122884338Y-60725578D01*
X122778332Y-60818800D01*
X122671633Y-60896738D01*
X122604416Y-60934902D01*
X122503673Y-60974291D01*
X122387364Y-61002416D01*
X122248486Y-61019706D01*
X122080034Y-61026593D01*
X121875003Y-61023503D01*
X121626390Y-61010867D01*
X121502103Y-61002445D01*
X121417867Y-60996183D01*
X121309935Y-60988158D01*
X121162925Y-60975614D01*
X121051931Y-60963389D01*
X120967813Y-60950060D01*
X120901431Y-60934201D01*
X120843644Y-60914389D01*
X120790517Y-60891585D01*
X120593926Y-60775144D01*
X120423150Y-60621107D01*
X120286535Y-60439344D01*
X120192432Y-60239722D01*
X120168288Y-60155913D01*
X120153841Y-60087575D01*
X120147522Y-60028059D01*
X120148889Y-59997584D01*
X120305315Y-59997584D01*
X120311081Y-60123681D01*
X120338817Y-60233964D01*
X120389298Y-60340070D01*
X120404074Y-60364891D01*
X120511138Y-60503123D01*
X120649873Y-60630423D01*
X120802385Y-60732200D01*
X120918079Y-60784041D01*
X120984373Y-60799556D01*
X121088472Y-60813446D01*
X121234397Y-60826054D01*
X121426172Y-60837715D01*
X121667816Y-60848771D01*
X121701325Y-60850112D01*
X121908770Y-60858142D01*
X122069762Y-60863575D01*
X122192195Y-60866046D01*
X122283958Y-60865189D01*
X122352944Y-60860639D01*
X122407045Y-60852031D01*
X122454152Y-60838998D01*
X122502157Y-60821175D01*
X122525028Y-60811953D01*
X122621296Y-60765874D01*
X122701640Y-60707753D01*
X122783809Y-60623491D01*
X122827358Y-60571761D01*
X123033941Y-60279884D01*
X123194764Y-59967241D01*
X123306623Y-59640891D01*
X123353239Y-59413697D01*
X123362321Y-59334890D01*
X123373315Y-59209482D01*
X123385934Y-59042949D01*
X123399891Y-58840769D01*
X123414897Y-58608419D01*
X123430663Y-58351374D01*
X123446904Y-58075112D01*
X123463330Y-57785110D01*
X123479654Y-57486843D01*
X123495589Y-57185789D01*
X123510845Y-56887424D01*
X123525136Y-56597225D01*
X123538174Y-56320670D01*
X123549671Y-56063234D01*
X123559338Y-55830393D01*
X123566888Y-55627627D01*
X123572035Y-55460410D01*
X123574489Y-55334218D01*
X123573963Y-55254531D01*
X123572780Y-55236222D01*
X123532070Y-55017722D01*
X123460287Y-54838433D01*
X123354347Y-54690933D01*
X123339946Y-54675788D01*
X123248019Y-54592790D01*
X123145660Y-54524599D01*
X123026515Y-54469623D01*
X122884228Y-54426277D01*
X122712441Y-54392969D01*
X122504800Y-54368114D01*
X122254948Y-54350122D01*
X121990467Y-54338544D01*
X121806733Y-54332396D01*
X121668129Y-54328878D01*
X121565424Y-54328709D01*
X121489389Y-54332609D01*
X121430800Y-54341298D01*
X121380426Y-54355494D01*
X121329039Y-54375916D01*
X121290097Y-54393153D01*
X121213370Y-54430842D01*
X121146330Y-54473590D01*
X121085347Y-54527027D01*
X121026793Y-54596788D01*
X120967041Y-54688501D01*
X120902459Y-54807800D01*
X120829422Y-54960317D01*
X120744299Y-55151684D01*
X120643463Y-55387533D01*
X120632094Y-55414446D01*
X120545221Y-55620841D01*
X120477612Y-55783611D01*
X120427135Y-55909133D01*
X120391653Y-56003786D01*
X120369035Y-56073946D01*
X120357146Y-56125992D01*
X120353852Y-56166301D01*
X120357020Y-56201251D01*
X120361397Y-56223502D01*
X120378358Y-56300762D01*
X120402603Y-56411501D01*
X120429829Y-56536058D01*
X120439778Y-56581628D01*
X120494574Y-56898555D01*
X120530778Y-57255861D01*
X120548058Y-57642693D01*
X120546078Y-58048194D01*
X120524502Y-58461510D01*
X120504669Y-58683321D01*
X120484783Y-58873151D01*
X120467822Y-59023300D01*
X120451572Y-59148234D01*
X120433821Y-59262422D01*
X120412356Y-59380326D01*
X120384964Y-59516415D01*
X120356596Y-59651412D01*
X120320745Y-59844039D01*
X120305315Y-59997584D01*
X120148889Y-59997584D01*
X120150411Y-59963668D01*
X120163594Y-59880705D01*
X120188155Y-59765471D01*
X120205031Y-59691516D01*
X120261628Y-59433741D01*
X120305802Y-59201609D01*
X120339808Y-58978523D01*
X120365903Y-58747882D01*
X120386346Y-58493090D01*
X120400482Y-58254348D01*
X120413979Y-57896572D01*
X120413826Y-57576935D01*
X120399153Y-57280711D01*
X120369090Y-56993171D01*
X120322768Y-56699590D01*
X120302336Y-56591571D01*
X120275375Y-56457131D01*
X120251446Y-56343015D01*
X120232733Y-56259259D01*
X120221419Y-56215901D01*
X120219805Y-56212282D01*
X120186872Y-56203861D01*
X120109659Y-56195344D01*
X119998277Y-56187121D01*
X119862833Y-56179578D01*
X119713436Y-56173101D01*
X119560192Y-56168080D01*
X119413213Y-56164899D01*
X119282607Y-56163950D01*
X119178482Y-56165616D01*
X119113844Y-56169907D01*
X118765352Y-56237799D01*
X118447257Y-56349958D01*
X118160938Y-56505425D01*
X117907775Y-56703243D01*
X117689148Y-56942449D01*
X117506433Y-57222088D01*
X117453900Y-57323807D01*
X117375394Y-57494638D01*
X117325232Y-57627999D01*
X117301481Y-57731610D01*
X117302211Y-57813187D01*
X117318262Y-57865894D01*
X117361655Y-57988986D01*
X117400080Y-58148340D01*
X117430182Y-58325853D01*
X117448607Y-58503423D01*
X117452465Y-58590087D01*
X117431962Y-58905426D01*
X117359001Y-59221204D01*
X117288907Y-59412038D01*
X117240862Y-59536780D01*
X117216238Y-59638738D01*
X117214664Y-59736212D01*
X117048833Y-59736212D01*
X117042013Y-59721516D01*
X117038316Y-59717739D01*
X116999916Y-59678510D01*
X116930244Y-59636047D01*
X116888902Y-59613904D01*
X116818524Y-59574971D01*
X116765755Y-59538340D01*
X116721544Y-59493404D01*
X116676843Y-59429552D01*
X116622600Y-59336177D01*
X116570119Y-59240219D01*
X116555229Y-59227371D01*
X116714117Y-59227371D01*
X116717335Y-59239018D01*
X116765258Y-59328296D01*
X116843264Y-59417804D01*
X116932470Y-59488224D01*
X116986441Y-59514266D01*
X117048240Y-59528391D01*
X117085525Y-59510578D01*
X117115405Y-59465413D01*
X117143148Y-59403183D01*
X117138471Y-59354588D01*
X117126128Y-59329167D01*
X117108716Y-59284374D01*
X117125729Y-59251579D01*
X117166980Y-59221574D01*
X117217370Y-59172926D01*
X117243036Y-59117736D01*
X117240936Y-59071524D01*
X117208029Y-59049812D01*
X117206441Y-59049768D01*
X117200684Y-59049614D01*
X117159325Y-59031530D01*
X117147356Y-58990298D01*
X117156802Y-58971502D01*
X117196927Y-58971502D01*
X117209793Y-58985793D01*
X117224084Y-58972926D01*
X117211217Y-58958636D01*
X117196927Y-58971502D01*
X117156802Y-58971502D01*
X117167517Y-58950181D01*
X117188185Y-58938830D01*
X117234329Y-58940906D01*
X117246918Y-58958688D01*
X117261071Y-58979985D01*
X117282177Y-58958627D01*
X117299621Y-58905749D01*
X117311716Y-58812886D01*
X117318050Y-58694217D01*
X117318208Y-58563925D01*
X117311777Y-58436188D01*
X117300310Y-58336964D01*
X117276002Y-58211110D01*
X117243873Y-58077757D01*
X117221927Y-58001485D01*
X117192973Y-57915152D01*
X117169670Y-57870152D01*
X117141936Y-57855758D01*
X117099692Y-57861240D01*
X117091848Y-57863029D01*
X116954166Y-57921471D01*
X116840202Y-58028264D01*
X116805988Y-58076723D01*
X116768969Y-58137836D01*
X116754127Y-58183491D01*
X116759456Y-58235925D01*
X116782948Y-58317376D01*
X116783961Y-58320658D01*
X116810024Y-58458889D01*
X116816894Y-58625669D01*
X116805653Y-58799164D01*
X116777377Y-58957543D01*
X116748052Y-59047661D01*
X116714368Y-59150950D01*
X116714117Y-59227371D01*
X116555229Y-59227371D01*
X116554552Y-59226787D01*
X116552523Y-59225927D01*
X116518911Y-59211694D01*
X116458771Y-59193987D01*
X116369704Y-59172715D01*
X116247285Y-59146923D01*
X116087085Y-59115660D01*
X115884677Y-59077974D01*
X115635635Y-59032912D01*
X115466050Y-59002660D01*
X115228627Y-58960308D01*
X115006302Y-58920338D01*
X114805152Y-58883865D01*
X114631255Y-58852006D01*
X114490684Y-58825875D01*
X114389521Y-58806588D01*
X114333841Y-58795260D01*
X114326486Y-58793460D01*
X114279404Y-58793257D01*
X114222538Y-58823471D01*
X114144414Y-58890051D01*
X114024172Y-58975431D01*
X114003913Y-58989816D01*
X113854184Y-59038531D01*
X113787504Y-59037345D01*
X113701925Y-59035823D01*
X113553835Y-58981325D01*
X113474068Y-58927116D01*
X113371286Y-58812717D01*
X113311115Y-58677714D01*
X113292404Y-58532880D01*
X113295785Y-58510352D01*
X113421037Y-58510352D01*
X113424199Y-58579180D01*
X113451304Y-58664293D01*
X113493798Y-58749269D01*
X113545582Y-58818433D01*
X113564958Y-58835779D01*
X113672696Y-58888772D01*
X113794224Y-58909131D01*
X113906310Y-58893592D01*
X113924619Y-58886313D01*
X113982504Y-58851574D01*
X114001628Y-58806365D01*
X114000793Y-58777822D01*
X114020912Y-58777822D01*
X114033779Y-58792113D01*
X114048069Y-58779245D01*
X114035203Y-58764955D01*
X114020912Y-58777822D01*
X114000793Y-58777822D01*
X114000411Y-58764749D01*
X114001070Y-58705618D01*
X114023607Y-58684758D01*
X114043157Y-58684093D01*
X114076316Y-58690334D01*
X114057883Y-58707694D01*
X114051627Y-58711352D01*
X114029862Y-58732021D01*
X114041497Y-58737636D01*
X114102702Y-58718817D01*
X114144054Y-58661582D01*
X114164249Y-58578643D01*
X114163705Y-58555614D01*
X114310097Y-58555614D01*
X114313183Y-58656979D01*
X114488620Y-58686983D01*
X114556713Y-58698919D01*
X114670755Y-58719248D01*
X114823185Y-58746609D01*
X115006443Y-58779639D01*
X115212971Y-58816976D01*
X115435207Y-58857258D01*
X115618097Y-58890485D01*
X115838757Y-58930167D01*
X116042226Y-58965898D01*
X116222385Y-58996672D01*
X116373112Y-59021480D01*
X116488286Y-59039310D01*
X116561787Y-59049155D01*
X116587372Y-59050266D01*
X116604300Y-59018475D01*
X116630396Y-58952834D01*
X116645888Y-58909025D01*
X116674696Y-58775500D01*
X116684535Y-58617466D01*
X116674978Y-58461545D01*
X116654735Y-58361720D01*
X116630797Y-58299937D01*
X116598101Y-58278003D01*
X116550644Y-58280315D01*
X116506666Y-58284716D01*
X116414961Y-58292348D01*
X116282059Y-58302720D01*
X116114495Y-58315342D01*
X115918801Y-58329722D01*
X115701511Y-58345367D01*
X115469158Y-58361787D01*
X115453822Y-58362860D01*
X115221407Y-58379258D01*
X115004224Y-58394859D01*
X114808698Y-58409181D01*
X114641255Y-58421742D01*
X114508316Y-58432060D01*
X114416310Y-58439651D01*
X114371659Y-58444033D01*
X114370400Y-58444219D01*
X114328288Y-58458885D01*
X114311487Y-58496004D01*
X114310097Y-58555614D01*
X114163705Y-58555614D01*
X114161984Y-58482714D01*
X114135952Y-58386506D01*
X114085974Y-58304026D01*
X113976483Y-58212539D01*
X113854224Y-58167785D01*
X113729632Y-58167732D01*
X113613140Y-58210343D01*
X113515184Y-58293588D01*
X113446197Y-58415429D01*
X113441284Y-58429687D01*
X113421037Y-58510352D01*
X113295785Y-58510352D01*
X113313999Y-58388987D01*
X113374746Y-58256807D01*
X113473494Y-58147114D01*
X113563671Y-58089931D01*
X113720422Y-58040894D01*
X113877569Y-58040716D01*
X114024525Y-58087066D01*
X114150700Y-58177610D01*
X114195651Y-58229181D01*
X114261838Y-58316763D01*
X115429187Y-58233534D01*
X116596537Y-58150304D01*
X116643274Y-58071057D01*
X116710864Y-57980547D01*
X116801825Y-57890027D01*
X116901605Y-57811305D01*
X116995655Y-57756189D01*
X117054552Y-57737324D01*
X117110584Y-57725690D01*
X117146917Y-57700464D01*
X117175910Y-57648046D01*
X117203518Y-57573376D01*
X117346450Y-57233634D01*
X117525223Y-56934647D01*
X117739440Y-56676770D01*
X117988704Y-56460360D01*
X118272618Y-56285773D01*
X118590785Y-56153363D01*
X118873612Y-56077216D01*
X118969134Y-56059386D01*
X119067041Y-56046937D01*
X119177996Y-56039371D01*
X119312668Y-56036189D01*
X119481721Y-56036892D01*
X119664683Y-56040270D01*
X120221689Y-56052787D01*
X120488783Y-55413212D01*
X120581909Y-55190851D01*
X120657671Y-55012409D01*
X120719401Y-54871503D01*
X120770431Y-54761757D01*
X120814095Y-54676786D01*
X120853725Y-54610215D01*
X120892655Y-54555661D01*
X120934216Y-54506744D01*
X120981741Y-54457085D01*
X120995390Y-54443361D01*
X121063850Y-54376048D01*
X121124652Y-54322796D01*
X121184982Y-54282251D01*
X121252028Y-54253057D01*
X121332978Y-54233865D01*
X121435019Y-54223318D01*
X121565337Y-54220064D01*
X121731120Y-54222748D01*
G37*
%TD*%
D10*
%TO.C,*%
X151400000Y-95700000D03*
%TD*%
D11*
%TO.C,U1*%
X179700000Y-83000000D03*
X178831269Y-85386820D03*
X177962538Y-87773638D03*
X177093807Y-90160458D03*
X176225076Y-92547277D03*
X175356344Y-94934096D03*
X174487614Y-97320914D03*
X173618882Y-99707735D03*
X172750151Y-102094554D03*
X171881420Y-104481373D03*
X171012689Y-106868192D03*
X170143957Y-109255013D03*
X155841836Y-104049465D03*
X156710568Y-101662646D03*
X157579298Y-99275826D03*
X158448029Y-96889007D03*
X159316760Y-94502188D03*
X160185492Y-92115369D03*
X161054223Y-89728549D03*
X161922954Y-87341730D03*
X162791685Y-84954911D03*
X163660416Y-82568092D03*
X164529147Y-80181272D03*
X165397879Y-77794453D03*
%TD*%
D12*
%TO.C,J2*%
X158393788Y-68903508D03*
X155999647Y-75481357D03*
D13*
X154624171Y-72447981D03*
D14*
X158981788Y-74012741D03*
D13*
X155650231Y-69628903D03*
D14*
X160007849Y-71193663D03*
X152914899Y-77231880D03*
D13*
X157202454Y-78813706D03*
X153256090Y-76206752D03*
D14*
X157613708Y-77771511D03*
%TD*%
D15*
%TO.C,SW13*%
X75598349Y-105257427D03*
D16*
X81044822Y-104491975D03*
X81044822Y-104491975D03*
D15*
X86491296Y-103726523D03*
D17*
X81865943Y-110334557D03*
X76622339Y-108950859D03*
X86525020Y-107559128D03*
%TD*%
D15*
%TO.C,SW12*%
X94500001Y-98100000D03*
D16*
X100000000Y-98100000D03*
X100000000Y-98100000D03*
D15*
X105500000Y-98100000D03*
D18*
X100000000Y-104000000D03*
X95000000Y-101900000D03*
X105000000Y-101900000D03*
%TD*%
D15*
%TO.C,SW6*%
X131979717Y-92779146D03*
D16*
X137472178Y-93066994D03*
X137472178Y-93066994D03*
D15*
X142964640Y-93354842D03*
D19*
X137163396Y-98958908D03*
X132280154Y-96600106D03*
X142266449Y-97123466D03*
%TD*%
D15*
%TO.C,SW16*%
X150842151Y-129326332D03*
D16*
X151797216Y-123909890D03*
X151797216Y-123909890D03*
D15*
X152752281Y-118493447D03*
D20*
X157607582Y-124934414D03*
X154671245Y-129493792D03*
X156407726Y-119645714D03*
%TD*%
D15*
%TO.C,SW4*%
X70866463Y-71588313D03*
D16*
X76312936Y-70822861D03*
X76312936Y-70822861D03*
D15*
X81759410Y-70057409D03*
D17*
X77134057Y-76665443D03*
X71890453Y-75281745D03*
X81793134Y-73890014D03*
%TD*%
D15*
%TO.C,SW14*%
X59600301Y-121935281D03*
D16*
X64912892Y-120511777D03*
X64912892Y-120511777D03*
D15*
X70225484Y-119088272D03*
D21*
X66439924Y-126210739D03*
X61066775Y-125476390D03*
X70726034Y-122888200D03*
%TD*%
D10*
%TO.C,*%
X58700000Y-73800000D03*
%TD*%
D15*
%TO.C,SW9*%
X73232406Y-88422870D03*
D16*
X78678879Y-87657418D03*
X78678879Y-87657418D03*
D15*
X84125353Y-86891966D03*
D17*
X79500000Y-93500000D03*
X74256396Y-92116302D03*
X84159077Y-90724571D03*
%TD*%
D15*
%TO.C,SW2*%
X115102980Y-70178978D03*
D16*
X120595441Y-70466826D03*
X120595441Y-70466826D03*
D15*
X126087903Y-70754674D03*
D19*
X120286659Y-76358740D03*
X115403417Y-73999938D03*
X125389712Y-74523298D03*
%TD*%
D10*
%TO.C,*%
X146500000Y-62700000D03*
%TD*%
%TO.C,*%
X178800000Y-115000000D03*
%TD*%
D22*
%TO.C,RSW2*%
X138995546Y-107670092D03*
X132504454Y-107329908D03*
%TD*%
D15*
%TO.C,SW15*%
X173021616Y-122758756D03*
D16*
X170697216Y-127743448D03*
X170697216Y-127743448D03*
D15*
X168372816Y-132728141D03*
D23*
X165350000Y-125250000D03*
X169366338Y-121605960D03*
X165140155Y-130669038D03*
%TD*%
D15*
%TO.C,SW5*%
X50800453Y-89093803D03*
D16*
X56113044Y-87670299D03*
X56113044Y-87670299D03*
D15*
X61425636Y-86246794D03*
D21*
X57640076Y-93369261D03*
X52266927Y-92634912D03*
X61926186Y-90046722D03*
%TD*%
D10*
%TO.C,*%
X78600000Y-118100000D03*
%TD*%
D15*
%TO.C,SW7*%
X114213268Y-87155680D03*
D16*
X119705729Y-87443528D03*
X119705729Y-87443528D03*
D15*
X125198191Y-87731376D03*
D19*
X119396947Y-93335442D03*
X114513705Y-90976640D03*
X124500000Y-91500000D03*
%TD*%
D15*
%TO.C,SW8*%
X94500001Y-81100000D03*
D16*
X100000000Y-81100000D03*
X100000000Y-81100000D03*
D15*
X105500000Y-81100000D03*
D18*
X100000000Y-87000000D03*
X95000000Y-84900000D03*
X105000000Y-84900000D03*
%TD*%
D15*
%TO.C,SW1*%
X132869428Y-75802444D03*
D16*
X138361889Y-76090292D03*
X138361889Y-76090292D03*
D15*
X143854351Y-76378140D03*
D19*
X138053107Y-81982206D03*
X133169865Y-79623404D03*
X143156160Y-80146764D03*
%TD*%
D15*
%TO.C,SW3*%
X94500001Y-64100000D03*
D16*
X100000000Y-64100000D03*
X100000000Y-64100000D03*
D15*
X105500000Y-64100000D03*
D18*
X100000000Y-70000000D03*
X95000000Y-67900000D03*
X105000000Y-67900000D03*
%TD*%
D15*
%TO.C,SW10*%
X55200377Y-105514542D03*
D16*
X60512968Y-104091038D03*
X60512968Y-104091038D03*
D15*
X65825560Y-102667533D03*
D21*
X62040000Y-109790000D03*
X56666851Y-109055651D03*
X66326110Y-106467461D03*
%TD*%
D15*
%TO.C,SW17*%
X133126310Y-130010907D03*
D16*
X133126310Y-124510908D03*
X133126310Y-124510908D03*
D15*
X133126310Y-119010908D03*
D24*
X139026310Y-124510908D03*
X136926310Y-129510908D03*
X136926310Y-119510908D03*
%TD*%
D15*
%TO.C,SW11*%
X113323557Y-104132382D03*
D16*
X118816018Y-104420230D03*
X118816018Y-104420230D03*
D15*
X124308480Y-104708078D03*
D19*
X118507236Y-110312144D03*
X113623994Y-107953342D03*
X123610289Y-108476702D03*
%TD*%
M02*
