%TF.GenerationSoftware,KiCad,Pcbnew,7.0.10*%
%TF.CreationDate,2024-03-06T23:25:22+01:00*%
%TF.ProjectId,routes,726f7574-6573-42e6-9b69-6361645f7063,rev?*%
%TF.SameCoordinates,Original*%
%TF.FileFunction,Legend,Bot*%
%TF.FilePolarity,Positive*%
%FSLAX46Y46*%
G04 Gerber Fmt 4.6, Leading zero omitted, Abs format (unit mm)*
G04 Created by KiCad (PCBNEW 7.0.10) date 2024-03-06 23:25:22*
%MOMM*%
%LPD*%
G01*
G04 APERTURE LIST*
%ADD10C,0.160000*%
%ADD11C,0.125000*%
%ADD12C,0.300000*%
%ADD13C,0.100000*%
%ADD14C,0.120000*%
%ADD15C,0.150000*%
G04 APERTURE END LIST*
D10*
X106473308Y-92465180D02*
X106344737Y-92508037D01*
X106344737Y-92508037D02*
X106130451Y-92508037D01*
X106130451Y-92508037D02*
X106044737Y-92465180D01*
X106044737Y-92465180D02*
X106001879Y-92422322D01*
X106001879Y-92422322D02*
X105959022Y-92336608D01*
X105959022Y-92336608D02*
X105959022Y-92250894D01*
X105959022Y-92250894D02*
X106001879Y-92165180D01*
X106001879Y-92165180D02*
X106044737Y-92122322D01*
X106044737Y-92122322D02*
X106130451Y-92079465D01*
X106130451Y-92079465D02*
X106301879Y-92036608D01*
X106301879Y-92036608D02*
X106387594Y-91993751D01*
X106387594Y-91993751D02*
X106430451Y-91950894D01*
X106430451Y-91950894D02*
X106473308Y-91865180D01*
X106473308Y-91865180D02*
X106473308Y-91779465D01*
X106473308Y-91779465D02*
X106430451Y-91693751D01*
X106430451Y-91693751D02*
X106387594Y-91650894D01*
X106387594Y-91650894D02*
X106301879Y-91608037D01*
X106301879Y-91608037D02*
X106087594Y-91608037D01*
X106087594Y-91608037D02*
X105959022Y-91650894D01*
X105659022Y-91608037D02*
X105444736Y-92508037D01*
X105444736Y-92508037D02*
X105273308Y-91865180D01*
X105273308Y-91865180D02*
X105101879Y-92508037D01*
X105101879Y-92508037D02*
X104887594Y-91608037D01*
X104073308Y-92508037D02*
X104587594Y-92508037D01*
X104330451Y-92508037D02*
X104330451Y-91608037D01*
X104330451Y-91608037D02*
X104416165Y-91736608D01*
X104416165Y-91736608D02*
X104501880Y-91822322D01*
X104501880Y-91822322D02*
X104587594Y-91865180D01*
X103730451Y-91693751D02*
X103687594Y-91650894D01*
X103687594Y-91650894D02*
X103601880Y-91608037D01*
X103601880Y-91608037D02*
X103387594Y-91608037D01*
X103387594Y-91608037D02*
X103301880Y-91650894D01*
X103301880Y-91650894D02*
X103259022Y-91693751D01*
X103259022Y-91693751D02*
X103216165Y-91779465D01*
X103216165Y-91779465D02*
X103216165Y-91865180D01*
X103216165Y-91865180D02*
X103259022Y-91993751D01*
X103259022Y-91993751D02*
X103773308Y-92508037D01*
X103773308Y-92508037D02*
X103216165Y-92508037D01*
D11*
X168354289Y-108941767D02*
X168274953Y-108950898D01*
X168274953Y-108950898D02*
X168163085Y-108910181D01*
X168163085Y-108910181D02*
X168130552Y-108860334D01*
X168130552Y-108860334D02*
X168120394Y-108818630D01*
X168120394Y-108818630D02*
X168122450Y-108743366D01*
X168122450Y-108743366D02*
X168146880Y-108676245D01*
X168146880Y-108676245D02*
X168193684Y-108617267D01*
X168193684Y-108617267D02*
X168228272Y-108591850D01*
X168228272Y-108591850D02*
X168285235Y-108574576D01*
X168285235Y-108574576D02*
X168386944Y-108573589D01*
X168386944Y-108573589D02*
X168443907Y-108556315D01*
X168443907Y-108556315D02*
X168478495Y-108530898D01*
X168478495Y-108530898D02*
X168525299Y-108471921D01*
X168525299Y-108471921D02*
X168549729Y-108404800D01*
X168549729Y-108404800D02*
X168551785Y-108329536D01*
X168551785Y-108329536D02*
X168541627Y-108287832D01*
X168541627Y-108287832D02*
X168509094Y-108237985D01*
X168509094Y-108237985D02*
X168397226Y-108197268D01*
X168397226Y-108197268D02*
X168317890Y-108206399D01*
X168173490Y-108115835D02*
X167805107Y-108779888D01*
X167805107Y-108779888D02*
X167898838Y-108243908D01*
X167898838Y-108243908D02*
X167626118Y-108714741D01*
X167626118Y-108714741D02*
X167770765Y-107969255D01*
X167089150Y-108519301D02*
X167357634Y-108617021D01*
X167223392Y-108568161D02*
X167479907Y-107863391D01*
X167479907Y-107863391D02*
X167488009Y-107980359D01*
X167488009Y-107980359D02*
X167508327Y-108063767D01*
X167508327Y-108063767D02*
X167540859Y-108113614D01*
X166857435Y-107902875D02*
X166686425Y-108372721D01*
X167067024Y-107675108D02*
X166995667Y-108219231D01*
X166995667Y-108219231D02*
X166704809Y-108113368D01*
D12*
G36*
X167140686Y-94501059D02*
G01*
X167033090Y-94796677D01*
X166979129Y-94847767D01*
X166905309Y-94856263D01*
X166837616Y-94831625D01*
X166786526Y-94777664D01*
X166778030Y-94703844D01*
X166875959Y-94434788D01*
X166898908Y-94413059D01*
X167140686Y-94501059D01*
G37*
G36*
X168404728Y-92184028D02*
G01*
X168413224Y-92257848D01*
X168339725Y-92459784D01*
X168285765Y-92510874D01*
X168211945Y-92519370D01*
X168148670Y-92496340D01*
X168364485Y-92141525D01*
X168404728Y-92184028D01*
G37*
G36*
X169605738Y-88481110D02*
G01*
X169674467Y-88553700D01*
X169696585Y-88601130D01*
X169708014Y-88700441D01*
X169634516Y-88902376D01*
X169611567Y-88924105D01*
X168980344Y-88694358D01*
X168976731Y-88662963D01*
X169050230Y-88461028D01*
X169122821Y-88392297D01*
X169170249Y-88370180D01*
X169269560Y-88358751D01*
X169605738Y-88481110D01*
G37*
G36*
X170895556Y-88403274D02*
G01*
X167763628Y-97008173D01*
X165199609Y-96074946D01*
X165207131Y-96054280D01*
X165988645Y-96054280D01*
X166021459Y-96124651D01*
X166085063Y-96169187D01*
X167494602Y-96682217D01*
X167571952Y-96688984D01*
X167642323Y-96656170D01*
X167686859Y-96592566D01*
X167931159Y-95921357D01*
X167937926Y-95844007D01*
X167905112Y-95773635D01*
X167841508Y-95729100D01*
X167764158Y-95722332D01*
X167693787Y-95755147D01*
X167649251Y-95818751D01*
X167456254Y-96349005D01*
X167066953Y-96207312D01*
X167186660Y-95878420D01*
X167193427Y-95801070D01*
X167160613Y-95730698D01*
X167097009Y-95686163D01*
X167019659Y-95679395D01*
X166949288Y-95712210D01*
X166904752Y-95775814D01*
X166785045Y-96104706D01*
X166187669Y-95887279D01*
X166110319Y-95880512D01*
X166039948Y-95913326D01*
X165995412Y-95976930D01*
X165988645Y-96054280D01*
X165207131Y-96054280D01*
X165698969Y-94702965D01*
X166475950Y-94702965D01*
X166494211Y-94861636D01*
X166497582Y-94870167D01*
X166497332Y-94879338D01*
X166511678Y-94905832D01*
X166522750Y-94933847D01*
X166529934Y-94939548D01*
X166534303Y-94947616D01*
X166644115Y-95063597D01*
X166673489Y-95081644D01*
X166701735Y-95101422D01*
X166835977Y-95150282D01*
X166870327Y-95153287D01*
X166904430Y-95158344D01*
X167063101Y-95140083D01*
X167071631Y-95136711D01*
X167080803Y-95136962D01*
X167107296Y-95122616D01*
X167135312Y-95111544D01*
X167141014Y-95104358D01*
X167149082Y-95099990D01*
X167265062Y-94990178D01*
X167283105Y-94960808D01*
X167302887Y-94932558D01*
X167412926Y-94630228D01*
X167435875Y-94608499D01*
X167449728Y-94613542D01*
X167500817Y-94667501D01*
X167509313Y-94741323D01*
X167435815Y-94943257D01*
X167345547Y-95028724D01*
X167304902Y-95094881D01*
X167302782Y-95172498D01*
X167339754Y-95240777D01*
X167405911Y-95281422D01*
X167483528Y-95283542D01*
X167551807Y-95246570D01*
X167667787Y-95136758D01*
X167685830Y-95107388D01*
X167705612Y-95079138D01*
X167803332Y-94810655D01*
X167806336Y-94776307D01*
X167811394Y-94742203D01*
X167793134Y-94583531D01*
X167789762Y-94574999D01*
X167790013Y-94565828D01*
X167775668Y-94539337D01*
X167764596Y-94511320D01*
X167757408Y-94505616D01*
X167753041Y-94497550D01*
X167643229Y-94381569D01*
X167613844Y-94363515D01*
X167585609Y-94343745D01*
X166847279Y-94075015D01*
X166769929Y-94068248D01*
X166699558Y-94101062D01*
X166655022Y-94164666D01*
X166648709Y-94236815D01*
X166643986Y-94241288D01*
X166625932Y-94270672D01*
X166606162Y-94298908D01*
X166484012Y-94634512D01*
X166481006Y-94668862D01*
X166475950Y-94702965D01*
X165698969Y-94702965D01*
X166187569Y-93360547D01*
X166964550Y-93360547D01*
X166982811Y-93519218D01*
X166991686Y-93541676D01*
X166995881Y-93565462D01*
X167038572Y-93657012D01*
X167054095Y-93675512D01*
X167065595Y-93696750D01*
X167175407Y-93812730D01*
X167204776Y-93830773D01*
X167233027Y-93850555D01*
X167635752Y-93997135D01*
X167670102Y-94000140D01*
X167704205Y-94005197D01*
X167862876Y-93986936D01*
X167885334Y-93978060D01*
X167909120Y-93973866D01*
X168000670Y-93931175D01*
X168019170Y-93915651D01*
X168040408Y-93904152D01*
X168156388Y-93794340D01*
X168174431Y-93764970D01*
X168194213Y-93736720D01*
X168291933Y-93468237D01*
X168294938Y-93433886D01*
X168299995Y-93399784D01*
X168281734Y-93241112D01*
X168253195Y-93168902D01*
X168192374Y-93120635D01*
X168115568Y-93109246D01*
X168043358Y-93137785D01*
X167995091Y-93198606D01*
X167983702Y-93275412D01*
X167997914Y-93398904D01*
X167924416Y-93600839D01*
X167851823Y-93669570D01*
X167804394Y-93691687D01*
X167705084Y-93703116D01*
X167368907Y-93580757D01*
X167300176Y-93508165D01*
X167278059Y-93460736D01*
X167266630Y-93361426D01*
X167340129Y-93159490D01*
X167430396Y-93074025D01*
X167471042Y-93007868D01*
X167473163Y-92930251D01*
X167436191Y-92861973D01*
X167370034Y-92821327D01*
X167292417Y-92819206D01*
X167224138Y-92856178D01*
X167108157Y-92965989D01*
X167090110Y-92995363D01*
X167070332Y-93023610D01*
X166972612Y-93292094D01*
X166969606Y-93326444D01*
X166964550Y-93360547D01*
X166187569Y-93360547D01*
X166602879Y-92219492D01*
X167379860Y-92219492D01*
X167398121Y-92378163D01*
X167401492Y-92386693D01*
X167401242Y-92395865D01*
X167415587Y-92422358D01*
X167426660Y-92450374D01*
X167433845Y-92456076D01*
X167438214Y-92464144D01*
X167548026Y-92580124D01*
X167577395Y-92598167D01*
X167605646Y-92617949D01*
X168142613Y-92813389D01*
X168176963Y-92816394D01*
X168211066Y-92821451D01*
X168369737Y-92803190D01*
X168378267Y-92799818D01*
X168387439Y-92800069D01*
X168413932Y-92785723D01*
X168441948Y-92774651D01*
X168447650Y-92767465D01*
X168455718Y-92763097D01*
X168571698Y-92653285D01*
X168589741Y-92623915D01*
X168609523Y-92595665D01*
X168707243Y-92327181D01*
X168710248Y-92292831D01*
X168715305Y-92258728D01*
X168697044Y-92100057D01*
X168693672Y-92091526D01*
X168693923Y-92082355D01*
X168679576Y-92055861D01*
X168668505Y-92027847D01*
X168661319Y-92022144D01*
X168656951Y-92014077D01*
X168547139Y-91898096D01*
X168517754Y-91880042D01*
X168489519Y-91860272D01*
X168355277Y-91811412D01*
X168330894Y-91809278D01*
X168307403Y-91802405D01*
X168292848Y-91805950D01*
X168277927Y-91804645D01*
X168255743Y-91814989D01*
X168231963Y-91820782D01*
X168221132Y-91831128D01*
X168207556Y-91837459D01*
X168193517Y-91857508D01*
X168175818Y-91874416D01*
X167861180Y-92391702D01*
X167741526Y-92348151D01*
X167690436Y-92294191D01*
X167681940Y-92220371D01*
X167755439Y-92018435D01*
X167845706Y-91932970D01*
X167886352Y-91866813D01*
X167888473Y-91789196D01*
X167851501Y-91720918D01*
X167785344Y-91680272D01*
X167707727Y-91678151D01*
X167639448Y-91715123D01*
X167523467Y-91824934D01*
X167505420Y-91854308D01*
X167485642Y-91882555D01*
X167387922Y-92151039D01*
X167384916Y-92185389D01*
X167379860Y-92219492D01*
X166602879Y-92219492D01*
X167457929Y-89870261D01*
X168234910Y-89870261D01*
X168253171Y-90028932D01*
X168256542Y-90037462D01*
X168256292Y-90046634D01*
X168270637Y-90073127D01*
X168281710Y-90101143D01*
X168288895Y-90106845D01*
X168293264Y-90114913D01*
X168403076Y-90230893D01*
X168432445Y-90248936D01*
X168460696Y-90268718D01*
X169199026Y-90537448D01*
X169276376Y-90544215D01*
X169346747Y-90511401D01*
X169391283Y-90447797D01*
X169398050Y-90370447D01*
X169365235Y-90300076D01*
X169301632Y-90255540D01*
X168596576Y-89998920D01*
X168545486Y-89944960D01*
X168536990Y-89871140D01*
X168586059Y-89736325D01*
X168658649Y-89667595D01*
X168671829Y-89661449D01*
X169418896Y-89933360D01*
X169496246Y-89940127D01*
X169566618Y-89907313D01*
X169611153Y-89843709D01*
X169617921Y-89766359D01*
X169585106Y-89695988D01*
X169521502Y-89651452D01*
X168581809Y-89309431D01*
X168504459Y-89302664D01*
X168434088Y-89335478D01*
X168389552Y-89399082D01*
X168382785Y-89476432D01*
X168395472Y-89503640D01*
X168354086Y-89542825D01*
X168336034Y-89572206D01*
X168316262Y-89600445D01*
X168242972Y-89801808D01*
X168239966Y-89836158D01*
X168234910Y-89870261D01*
X167457929Y-89870261D01*
X167907814Y-88634213D01*
X168157239Y-88634213D01*
X168190053Y-88704584D01*
X168253657Y-88749120D01*
X169663196Y-89262150D01*
X169740546Y-89268917D01*
X169810917Y-89236103D01*
X169855453Y-89172499D01*
X169861765Y-89100349D01*
X169866488Y-89095878D01*
X169884535Y-89066503D01*
X169904313Y-89038258D01*
X170002033Y-88769774D01*
X170005038Y-88735424D01*
X170010095Y-88701321D01*
X169991834Y-88542649D01*
X169982957Y-88520190D01*
X169978764Y-88496406D01*
X169936073Y-88404855D01*
X169920550Y-88386355D01*
X169909051Y-88365119D01*
X169799240Y-88249138D01*
X169769865Y-88231091D01*
X169741619Y-88211313D01*
X169338893Y-88064733D01*
X169304542Y-88061727D01*
X169270440Y-88056671D01*
X169111768Y-88074932D01*
X169089309Y-88083808D01*
X169065525Y-88088002D01*
X168973974Y-88130693D01*
X168955473Y-88146216D01*
X168934237Y-88157716D01*
X168818257Y-88267528D01*
X168800208Y-88296906D01*
X168780433Y-88325148D01*
X168685155Y-88586919D01*
X168356263Y-88467212D01*
X168278913Y-88460445D01*
X168208542Y-88493259D01*
X168164006Y-88556863D01*
X168157239Y-88634213D01*
X167907814Y-88634213D01*
X168331536Y-87470047D01*
X170895556Y-88403274D01*
G37*
D11*
X165701064Y-85650384D02*
X165287933Y-86298150D01*
X165287933Y-86298150D02*
X165387833Y-85536377D01*
X164730649Y-86019302D02*
X164740808Y-86061006D01*
X164740808Y-86061006D02*
X164795714Y-86118996D01*
X164795714Y-86118996D02*
X164840461Y-86135283D01*
X164840461Y-86135283D02*
X164919797Y-86126153D01*
X164919797Y-86126153D02*
X164988974Y-86075318D01*
X164988974Y-86075318D02*
X165035778Y-86016341D01*
X165035778Y-86016341D02*
X165107012Y-85890242D01*
X165107012Y-85890242D02*
X165143657Y-85789561D01*
X165143657Y-85789561D02*
X165170143Y-85647176D01*
X165170143Y-85647176D02*
X165172199Y-85571912D01*
X165172199Y-85571912D02*
X165151882Y-85488504D01*
X165151882Y-85488504D02*
X165096976Y-85430514D01*
X165096976Y-85430514D02*
X165052229Y-85414227D01*
X165052229Y-85414227D02*
X164972893Y-85423357D01*
X164972893Y-85423357D02*
X164938304Y-85448774D01*
X164260803Y-85848292D02*
X164270962Y-85889996D01*
X164270962Y-85889996D02*
X164325867Y-85947986D01*
X164325867Y-85947986D02*
X164370615Y-85964273D01*
X164370615Y-85964273D02*
X164449951Y-85955143D01*
X164449951Y-85955143D02*
X164519128Y-85904308D01*
X164519128Y-85904308D02*
X164565932Y-85845331D01*
X164565932Y-85845331D02*
X164637165Y-85719232D01*
X164637165Y-85719232D02*
X164673810Y-85618551D01*
X164673810Y-85618551D02*
X164700297Y-85476166D01*
X164700297Y-85476166D02*
X164702353Y-85400902D01*
X164702353Y-85400902D02*
X164682036Y-85317494D01*
X164682036Y-85317494D02*
X164627130Y-85259504D01*
X164627130Y-85259504D02*
X164582383Y-85243217D01*
X164582383Y-85243217D02*
X164503047Y-85252347D01*
X164503047Y-85252347D02*
X164468458Y-85277764D01*
X161126244Y-98271111D02*
X161046908Y-98280242D01*
X161046908Y-98280242D02*
X160935040Y-98239525D01*
X160935040Y-98239525D02*
X160902508Y-98189678D01*
X160902508Y-98189678D02*
X160892349Y-98147974D01*
X160892349Y-98147974D02*
X160894405Y-98072710D01*
X160894405Y-98072710D02*
X160918835Y-98005589D01*
X160918835Y-98005589D02*
X160965639Y-97946611D01*
X160965639Y-97946611D02*
X161000228Y-97921194D01*
X161000228Y-97921194D02*
X161057190Y-97903920D01*
X161057190Y-97903920D02*
X161158899Y-97902933D01*
X161158899Y-97902933D02*
X161215862Y-97885660D01*
X161215862Y-97885660D02*
X161250450Y-97860242D01*
X161250450Y-97860242D02*
X161297254Y-97801265D01*
X161297254Y-97801265D02*
X161321684Y-97734144D01*
X161321684Y-97734144D02*
X161323740Y-97658880D01*
X161323740Y-97658880D02*
X161313582Y-97617176D01*
X161313582Y-97617176D02*
X161281050Y-97567329D01*
X161281050Y-97567329D02*
X161169181Y-97526612D01*
X161169181Y-97526612D02*
X161089845Y-97535743D01*
X160945445Y-97445179D02*
X160577062Y-98109232D01*
X160577062Y-98109232D02*
X160670793Y-97573252D01*
X160670793Y-97573252D02*
X160398073Y-98044085D01*
X160398073Y-98044085D02*
X160542720Y-97298599D01*
X160139994Y-97152019D02*
X160363731Y-97233452D01*
X160363731Y-97233452D02*
X160263954Y-97577200D01*
X160263954Y-97577200D02*
X160253796Y-97535496D01*
X160253796Y-97535496D02*
X160221263Y-97485649D01*
X160221263Y-97485649D02*
X160109395Y-97444932D01*
X160109395Y-97444932D02*
X160052433Y-97462206D01*
X160052433Y-97462206D02*
X160017844Y-97487623D01*
X160017844Y-97487623D02*
X159971041Y-97546601D01*
X159971041Y-97546601D02*
X159909966Y-97714403D01*
X159909966Y-97714403D02*
X159907909Y-97789667D01*
X159907909Y-97789667D02*
X159918068Y-97831371D01*
X159918068Y-97831371D02*
X159950600Y-97881218D01*
X159950600Y-97881218D02*
X160062468Y-97921935D01*
X160062468Y-97921935D02*
X160119430Y-97904661D01*
X160119430Y-97904661D02*
X160154019Y-97879244D01*
X167241027Y-80810942D02*
X167297990Y-80793668D01*
X167297990Y-80793668D02*
X167365111Y-80818098D01*
X167365111Y-80818098D02*
X167420016Y-80876089D01*
X167420016Y-80876089D02*
X167440334Y-80959496D01*
X167440334Y-80959496D02*
X167438277Y-81034760D01*
X167438277Y-81034760D02*
X167411791Y-81177146D01*
X167411791Y-81177146D02*
X167375146Y-81277827D01*
X167375146Y-81277827D02*
X167303912Y-81403925D01*
X167303912Y-81403925D02*
X167257109Y-81462903D01*
X167257109Y-81462903D02*
X167187931Y-81513737D01*
X167187931Y-81513737D02*
X167108595Y-81522868D01*
X167108595Y-81522868D02*
X167063848Y-81506581D01*
X167063848Y-81506581D02*
X167008942Y-81448591D01*
X167008942Y-81448591D02*
X166998784Y-81406887D01*
X166998784Y-81406887D02*
X167084289Y-81171964D01*
X167084289Y-81171964D02*
X167173783Y-81204537D01*
X166772991Y-81400718D02*
X167029506Y-80695948D01*
X167029506Y-80695948D02*
X166504507Y-81302998D01*
X166504507Y-81302998D02*
X166761022Y-80598228D01*
X166280771Y-81221564D02*
X166537286Y-80516795D01*
X166537286Y-80516795D02*
X166425417Y-80476078D01*
X166425417Y-80476078D02*
X166346082Y-80485208D01*
X166346082Y-80485208D02*
X166276904Y-80536043D01*
X166276904Y-80536043D02*
X166230101Y-80595020D01*
X166230101Y-80595020D02*
X166158867Y-80721119D01*
X166158867Y-80721119D02*
X166122222Y-80821800D01*
X166122222Y-80821800D02*
X166095736Y-80964185D01*
X166095736Y-80964185D02*
X166093679Y-81039449D01*
X166093679Y-81039449D02*
X166113996Y-81122857D01*
X166113996Y-81122857D02*
X166168902Y-81180847D01*
X166168902Y-81180847D02*
X166280771Y-81221564D01*
X167938622Y-79047468D02*
X168217387Y-78768867D01*
X168207105Y-79145188D02*
X168463620Y-78440419D01*
X168463620Y-78440419D02*
X168284631Y-78375272D01*
X168284631Y-78375272D02*
X168227669Y-78392546D01*
X168227669Y-78392546D02*
X168193080Y-78417963D01*
X168193080Y-78417963D02*
X168146277Y-78476940D01*
X168146277Y-78476940D02*
X168109632Y-78577622D01*
X168109632Y-78577622D02*
X168107575Y-78652886D01*
X168107575Y-78652886D02*
X168117734Y-78694590D01*
X168117734Y-78694590D02*
X168150266Y-78744437D01*
X168150266Y-78744437D02*
X168329255Y-78809584D01*
X167832923Y-78780959D02*
X167609186Y-78699525D01*
X167804380Y-78998608D02*
X167904279Y-78236835D01*
X167904279Y-78236835D02*
X167491149Y-78884601D01*
X167635796Y-78139115D02*
X167267413Y-78803168D01*
X167267413Y-78803168D02*
X167361144Y-78267188D01*
X167361144Y-78267188D02*
X167088424Y-78738021D01*
X167088424Y-78738021D02*
X167233071Y-77992535D01*
X169237530Y-106602796D02*
X169158194Y-106611927D01*
X169158194Y-106611927D02*
X169046326Y-106571210D01*
X169046326Y-106571210D02*
X169013793Y-106521363D01*
X169013793Y-106521363D02*
X169003635Y-106479659D01*
X169003635Y-106479659D02*
X169005691Y-106404395D01*
X169005691Y-106404395D02*
X169030121Y-106337274D01*
X169030121Y-106337274D02*
X169076925Y-106278296D01*
X169076925Y-106278296D02*
X169111513Y-106252879D01*
X169111513Y-106252879D02*
X169168476Y-106235605D01*
X169168476Y-106235605D02*
X169270185Y-106234618D01*
X169270185Y-106234618D02*
X169327148Y-106217344D01*
X169327148Y-106217344D02*
X169361736Y-106191927D01*
X169361736Y-106191927D02*
X169408540Y-106132950D01*
X169408540Y-106132950D02*
X169432970Y-106065829D01*
X169432970Y-106065829D02*
X169435026Y-105990565D01*
X169435026Y-105990565D02*
X169424868Y-105948861D01*
X169424868Y-105948861D02*
X169392335Y-105899014D01*
X169392335Y-105899014D02*
X169280467Y-105858297D01*
X169280467Y-105858297D02*
X169201131Y-105867428D01*
X169056731Y-105776864D02*
X168688348Y-106440917D01*
X168688348Y-106440917D02*
X168782079Y-105904937D01*
X168782079Y-105904937D02*
X168509359Y-106375770D01*
X168509359Y-106375770D02*
X168654006Y-105630284D01*
X167972391Y-106180330D02*
X168240875Y-106278050D01*
X168106633Y-106229190D02*
X168363148Y-105524420D01*
X168363148Y-105524420D02*
X168371250Y-105641388D01*
X168371250Y-105641388D02*
X168391568Y-105724796D01*
X168391568Y-105724796D02*
X168424100Y-105774643D01*
X168072291Y-105418557D02*
X167781434Y-105312694D01*
X167781434Y-105312694D02*
X167840330Y-105638181D01*
X167840330Y-105638181D02*
X167773209Y-105613751D01*
X167773209Y-105613751D02*
X167716246Y-105631024D01*
X167716246Y-105631024D02*
X167681658Y-105656442D01*
X167681658Y-105656442D02*
X167634854Y-105715419D01*
X167634854Y-105715419D02*
X167573779Y-105883221D01*
X167573779Y-105883221D02*
X167571723Y-105958486D01*
X167571723Y-105958486D02*
X167581881Y-106000189D01*
X167581881Y-106000189D02*
X167614414Y-106050036D01*
X167614414Y-106050036D02*
X167748655Y-106098897D01*
X167748655Y-106098897D02*
X167805618Y-106081623D01*
X167805618Y-106081623D02*
X167840206Y-106056206D01*
X175262609Y-89125941D02*
X175319572Y-89108667D01*
X175319572Y-89108667D02*
X175386692Y-89133097D01*
X175386692Y-89133097D02*
X175441598Y-89191087D01*
X175441598Y-89191087D02*
X175461916Y-89274495D01*
X175461916Y-89274495D02*
X175459859Y-89349759D01*
X175459859Y-89349759D02*
X175433373Y-89492144D01*
X175433373Y-89492144D02*
X175396728Y-89592826D01*
X175396728Y-89592826D02*
X175325494Y-89718924D01*
X175325494Y-89718924D02*
X175278691Y-89777902D01*
X175278691Y-89777902D02*
X175209513Y-89828736D01*
X175209513Y-89828736D02*
X175130177Y-89837866D01*
X175130177Y-89837866D02*
X175085430Y-89821580D01*
X175085430Y-89821580D02*
X175030524Y-89763589D01*
X175030524Y-89763589D02*
X175020366Y-89721885D01*
X175020366Y-89721885D02*
X175105871Y-89486962D01*
X175105871Y-89486962D02*
X175195365Y-89519535D01*
X174794573Y-89715716D02*
X175051088Y-89010947D01*
X175051088Y-89010947D02*
X174526089Y-89617996D01*
X174526089Y-89617996D02*
X174782604Y-88913227D01*
X174302352Y-89536563D02*
X174558868Y-88831793D01*
X174558868Y-88831793D02*
X174446999Y-88791076D01*
X174446999Y-88791076D02*
X174367663Y-88800207D01*
X174367663Y-88800207D02*
X174298486Y-88851041D01*
X174298486Y-88851041D02*
X174251683Y-88910019D01*
X174251683Y-88910019D02*
X174180449Y-89036117D01*
X174180449Y-89036117D02*
X174143804Y-89136798D01*
X174143804Y-89136798D02*
X174117317Y-89279184D01*
X174117317Y-89279184D02*
X174115261Y-89354448D01*
X174115261Y-89354448D02*
X174135578Y-89437855D01*
X174135578Y-89437855D02*
X174190484Y-89495846D01*
X174190484Y-89495846D02*
X174302352Y-89536563D01*
X172699654Y-97002973D02*
X172620318Y-97012104D01*
X172620318Y-97012104D02*
X172508450Y-96971387D01*
X172508450Y-96971387D02*
X172475917Y-96921540D01*
X172475917Y-96921540D02*
X172465759Y-96879836D01*
X172465759Y-96879836D02*
X172467815Y-96804572D01*
X172467815Y-96804572D02*
X172492245Y-96737451D01*
X172492245Y-96737451D02*
X172539049Y-96678473D01*
X172539049Y-96678473D02*
X172573637Y-96653056D01*
X172573637Y-96653056D02*
X172630600Y-96635782D01*
X172630600Y-96635782D02*
X172732309Y-96634795D01*
X172732309Y-96634795D02*
X172789272Y-96617521D01*
X172789272Y-96617521D02*
X172823860Y-96592104D01*
X172823860Y-96592104D02*
X172870664Y-96533127D01*
X172870664Y-96533127D02*
X172895094Y-96466006D01*
X172895094Y-96466006D02*
X172897150Y-96390742D01*
X172897150Y-96390742D02*
X172886992Y-96349038D01*
X172886992Y-96349038D02*
X172854459Y-96299191D01*
X172854459Y-96299191D02*
X172742591Y-96258474D01*
X172742591Y-96258474D02*
X172663255Y-96267605D01*
X172518855Y-96177041D02*
X172150472Y-96841094D01*
X172150472Y-96841094D02*
X172244203Y-96305114D01*
X172244203Y-96305114D02*
X171971483Y-96775947D01*
X171971483Y-96775947D02*
X172116130Y-96030461D01*
X171658252Y-96661940D02*
X171568757Y-96629367D01*
X171568757Y-96629367D02*
X171536225Y-96579520D01*
X171536225Y-96579520D02*
X171526066Y-96537816D01*
X171526066Y-96537816D02*
X171517964Y-96420848D01*
X171517964Y-96420848D02*
X171544450Y-96278463D01*
X171544450Y-96278463D02*
X171642170Y-96009979D01*
X171642170Y-96009979D02*
X171688974Y-95951001D01*
X171688974Y-95951001D02*
X171723563Y-95925584D01*
X171723563Y-95925584D02*
X171780525Y-95908311D01*
X171780525Y-95908311D02*
X171870019Y-95940884D01*
X171870019Y-95940884D02*
X171902552Y-95990731D01*
X171902552Y-95990731D02*
X171912710Y-96032435D01*
X171912710Y-96032435D02*
X171910654Y-96107699D01*
X171910654Y-96107699D02*
X171849579Y-96275501D01*
X171849579Y-96275501D02*
X171802775Y-96334479D01*
X171802775Y-96334479D02*
X171768187Y-96359896D01*
X171768187Y-96359896D02*
X171711224Y-96377170D01*
X171711224Y-96377170D02*
X171621730Y-96344596D01*
X171621730Y-96344596D02*
X171589198Y-96294749D01*
X171589198Y-96294749D02*
X171579039Y-96253046D01*
X171579039Y-96253046D02*
X171581095Y-96177781D01*
X177074921Y-85069740D02*
X176995585Y-85078871D01*
X176995585Y-85078871D02*
X176883717Y-85038154D01*
X176883717Y-85038154D02*
X176851184Y-84988307D01*
X176851184Y-84988307D02*
X176841026Y-84946603D01*
X176841026Y-84946603D02*
X176843082Y-84871339D01*
X176843082Y-84871339D02*
X176867512Y-84804218D01*
X176867512Y-84804218D02*
X176914316Y-84745240D01*
X176914316Y-84745240D02*
X176948904Y-84719823D01*
X176948904Y-84719823D02*
X177005867Y-84702549D01*
X177005867Y-84702549D02*
X177107576Y-84701562D01*
X177107576Y-84701562D02*
X177164539Y-84684288D01*
X177164539Y-84684288D02*
X177199127Y-84658871D01*
X177199127Y-84658871D02*
X177245931Y-84599894D01*
X177245931Y-84599894D02*
X177270361Y-84532773D01*
X177270361Y-84532773D02*
X177272417Y-84457509D01*
X177272417Y-84457509D02*
X177262259Y-84415805D01*
X177262259Y-84415805D02*
X177229726Y-84365958D01*
X177229726Y-84365958D02*
X177117858Y-84325241D01*
X177117858Y-84325241D02*
X177038522Y-84334372D01*
X176894122Y-84243808D02*
X176525739Y-84907861D01*
X176525739Y-84907861D02*
X176619470Y-84371881D01*
X176619470Y-84371881D02*
X176346750Y-84842714D01*
X176346750Y-84842714D02*
X176491397Y-84097228D01*
X175809782Y-84647274D02*
X176078266Y-84744994D01*
X175944024Y-84696134D02*
X176200539Y-83991364D01*
X176200539Y-83991364D02*
X176208641Y-84108332D01*
X176208641Y-84108332D02*
X176228959Y-84191740D01*
X176228959Y-84191740D02*
X176261491Y-84241587D01*
X175641199Y-83787781D02*
X175864935Y-83869214D01*
X175864935Y-83869214D02*
X175765159Y-84212962D01*
X175765159Y-84212962D02*
X175755000Y-84171258D01*
X175755000Y-84171258D02*
X175722468Y-84121411D01*
X175722468Y-84121411D02*
X175610600Y-84080695D01*
X175610600Y-84080695D02*
X175553637Y-84097968D01*
X175553637Y-84097968D02*
X175519049Y-84123386D01*
X175519049Y-84123386D02*
X175472245Y-84182363D01*
X175472245Y-84182363D02*
X175411170Y-84350165D01*
X175411170Y-84350165D02*
X175409114Y-84425430D01*
X175409114Y-84425430D02*
X175419272Y-84467133D01*
X175419272Y-84467133D02*
X175451805Y-84516980D01*
X175451805Y-84516980D02*
X175563673Y-84557697D01*
X175563673Y-84557697D02*
X175620635Y-84540423D01*
X175620635Y-84540423D02*
X175655224Y-84515006D01*
X170097710Y-104239469D02*
X170018374Y-104248600D01*
X170018374Y-104248600D02*
X169906506Y-104207883D01*
X169906506Y-104207883D02*
X169873973Y-104158036D01*
X169873973Y-104158036D02*
X169863815Y-104116332D01*
X169863815Y-104116332D02*
X169865871Y-104041068D01*
X169865871Y-104041068D02*
X169890301Y-103973947D01*
X169890301Y-103973947D02*
X169937105Y-103914969D01*
X169937105Y-103914969D02*
X169971693Y-103889552D01*
X169971693Y-103889552D02*
X170028656Y-103872278D01*
X170028656Y-103872278D02*
X170130365Y-103871291D01*
X170130365Y-103871291D02*
X170187328Y-103854017D01*
X170187328Y-103854017D02*
X170221916Y-103828600D01*
X170221916Y-103828600D02*
X170268720Y-103769623D01*
X170268720Y-103769623D02*
X170293150Y-103702502D01*
X170293150Y-103702502D02*
X170295206Y-103627238D01*
X170295206Y-103627238D02*
X170285048Y-103585534D01*
X170285048Y-103585534D02*
X170252515Y-103535687D01*
X170252515Y-103535687D02*
X170140647Y-103494970D01*
X170140647Y-103494970D02*
X170061311Y-103504101D01*
X169916911Y-103413537D02*
X169548528Y-104077590D01*
X169548528Y-104077590D02*
X169642259Y-103541610D01*
X169642259Y-103541610D02*
X169369539Y-104012443D01*
X169369539Y-104012443D02*
X169514186Y-103266957D01*
X168832571Y-103817003D02*
X169101055Y-103914723D01*
X168966813Y-103865863D02*
X169223328Y-103161093D01*
X169223328Y-103161093D02*
X169231430Y-103278061D01*
X169231430Y-103278061D02*
X169251748Y-103361469D01*
X169251748Y-103361469D02*
X169284280Y-103411316D01*
X168885668Y-103114208D02*
X168875509Y-103072504D01*
X168875509Y-103072504D02*
X168842977Y-103022657D01*
X168842977Y-103022657D02*
X168731109Y-102981940D01*
X168731109Y-102981940D02*
X168674146Y-102999214D01*
X168674146Y-102999214D02*
X168639558Y-103024631D01*
X168639558Y-103024631D02*
X168592754Y-103083608D01*
X168592754Y-103083608D02*
X168568324Y-103150729D01*
X168568324Y-103150729D02*
X168554053Y-103259554D01*
X168554053Y-103259554D02*
X168675956Y-103760000D01*
X168675956Y-103760000D02*
X168385099Y-103654136D01*
X161984715Y-95912483D02*
X161905379Y-95921614D01*
X161905379Y-95921614D02*
X161793511Y-95880897D01*
X161793511Y-95880897D02*
X161760979Y-95831050D01*
X161760979Y-95831050D02*
X161750820Y-95789346D01*
X161750820Y-95789346D02*
X161752876Y-95714082D01*
X161752876Y-95714082D02*
X161777306Y-95646961D01*
X161777306Y-95646961D02*
X161824110Y-95587983D01*
X161824110Y-95587983D02*
X161858699Y-95562566D01*
X161858699Y-95562566D02*
X161915661Y-95545292D01*
X161915661Y-95545292D02*
X162017370Y-95544305D01*
X162017370Y-95544305D02*
X162074333Y-95527032D01*
X162074333Y-95527032D02*
X162108921Y-95501614D01*
X162108921Y-95501614D02*
X162155725Y-95442637D01*
X162155725Y-95442637D02*
X162180155Y-95375516D01*
X162180155Y-95375516D02*
X162182211Y-95300252D01*
X162182211Y-95300252D02*
X162172053Y-95258548D01*
X162172053Y-95258548D02*
X162139521Y-95208701D01*
X162139521Y-95208701D02*
X162027652Y-95167984D01*
X162027652Y-95167984D02*
X161948316Y-95177115D01*
X161803916Y-95086551D02*
X161435533Y-95750604D01*
X161435533Y-95750604D02*
X161529264Y-95214624D01*
X161529264Y-95214624D02*
X161256544Y-95685457D01*
X161256544Y-95685457D02*
X161401191Y-94939971D01*
X160935334Y-95036457D02*
X160764324Y-95506304D01*
X161144922Y-94808690D02*
X161073565Y-95352814D01*
X161073565Y-95352814D02*
X160782708Y-95246950D01*
X174440537Y-92219937D02*
X174361201Y-92229068D01*
X174361201Y-92229068D02*
X174249333Y-92188351D01*
X174249333Y-92188351D02*
X174216800Y-92138504D01*
X174216800Y-92138504D02*
X174206642Y-92096800D01*
X174206642Y-92096800D02*
X174208698Y-92021536D01*
X174208698Y-92021536D02*
X174233128Y-91954415D01*
X174233128Y-91954415D02*
X174279932Y-91895437D01*
X174279932Y-91895437D02*
X174314520Y-91870020D01*
X174314520Y-91870020D02*
X174371483Y-91852746D01*
X174371483Y-91852746D02*
X174473192Y-91851759D01*
X174473192Y-91851759D02*
X174530155Y-91834485D01*
X174530155Y-91834485D02*
X174564743Y-91809068D01*
X174564743Y-91809068D02*
X174611547Y-91750091D01*
X174611547Y-91750091D02*
X174635977Y-91682970D01*
X174635977Y-91682970D02*
X174638033Y-91607706D01*
X174638033Y-91607706D02*
X174627875Y-91566002D01*
X174627875Y-91566002D02*
X174595342Y-91516155D01*
X174595342Y-91516155D02*
X174483474Y-91475438D01*
X174483474Y-91475438D02*
X174404138Y-91484569D01*
X174259738Y-91394005D02*
X173891355Y-92058058D01*
X173891355Y-92058058D02*
X173985086Y-91522078D01*
X173985086Y-91522078D02*
X173712366Y-91992911D01*
X173712366Y-91992911D02*
X173857013Y-91247425D01*
X173175398Y-91797471D02*
X173443882Y-91895191D01*
X173309640Y-91846331D02*
X173566155Y-91141561D01*
X173566155Y-91141561D02*
X173574257Y-91258529D01*
X173574257Y-91258529D02*
X173594575Y-91341937D01*
X173594575Y-91341937D02*
X173627107Y-91391784D01*
X173029188Y-90946121D02*
X173118683Y-90978695D01*
X173118683Y-90978695D02*
X173151215Y-91028542D01*
X173151215Y-91028542D02*
X173161374Y-91070246D01*
X173161374Y-91070246D02*
X173169476Y-91187214D01*
X173169476Y-91187214D02*
X173142990Y-91329599D01*
X173142990Y-91329599D02*
X173045270Y-91598082D01*
X173045270Y-91598082D02*
X172998466Y-91657060D01*
X172998466Y-91657060D02*
X172963877Y-91682477D01*
X172963877Y-91682477D02*
X172906915Y-91699751D01*
X172906915Y-91699751D02*
X172817421Y-91667177D01*
X172817421Y-91667177D02*
X172784888Y-91617330D01*
X172784888Y-91617330D02*
X172774730Y-91575627D01*
X172774730Y-91575627D02*
X172776786Y-91500362D01*
X172776786Y-91500362D02*
X172837861Y-91332560D01*
X172837861Y-91332560D02*
X172884665Y-91273583D01*
X172884665Y-91273583D02*
X172919253Y-91248165D01*
X172919253Y-91248165D02*
X172976216Y-91230892D01*
X172976216Y-91230892D02*
X173065710Y-91263465D01*
X173065710Y-91263465D02*
X173098242Y-91313312D01*
X173098242Y-91313312D02*
X173108401Y-91355016D01*
X173108401Y-91355016D02*
X173106345Y-91430280D01*
X166809464Y-84085079D02*
X167088230Y-83806478D01*
X167077948Y-84182799D02*
X167334463Y-83478029D01*
X167334463Y-83478029D02*
X167155474Y-83412883D01*
X167155474Y-83412883D02*
X167098512Y-83430156D01*
X167098512Y-83430156D02*
X167063923Y-83455573D01*
X167063923Y-83455573D02*
X167017119Y-83514551D01*
X167017119Y-83514551D02*
X166980474Y-83615232D01*
X166980474Y-83615232D02*
X166978418Y-83690497D01*
X166978418Y-83690497D02*
X166988576Y-83732200D01*
X166988576Y-83732200D02*
X167021109Y-83782047D01*
X167021109Y-83782047D02*
X167200098Y-83847194D01*
X166742466Y-83642624D02*
X166585851Y-83585620D01*
X166384365Y-83930355D02*
X166608101Y-84011789D01*
X166608101Y-84011789D02*
X166864617Y-83307019D01*
X166864617Y-83307019D02*
X166640880Y-83225586D01*
X166217591Y-83831648D02*
X166138255Y-83840779D01*
X166138255Y-83840779D02*
X166026387Y-83800062D01*
X166026387Y-83800062D02*
X165993855Y-83750215D01*
X165993855Y-83750215D02*
X165983696Y-83708511D01*
X165983696Y-83708511D02*
X165985752Y-83633247D01*
X165985752Y-83633247D02*
X166010182Y-83566126D01*
X166010182Y-83566126D02*
X166056986Y-83507148D01*
X166056986Y-83507148D02*
X166091575Y-83481731D01*
X166091575Y-83481731D02*
X166148537Y-83464457D01*
X166148537Y-83464457D02*
X166250247Y-83463470D01*
X166250247Y-83463470D02*
X166307209Y-83446196D01*
X166307209Y-83446196D02*
X166341797Y-83420779D01*
X166341797Y-83420779D02*
X166388601Y-83361802D01*
X166388601Y-83361802D02*
X166413031Y-83294681D01*
X166413031Y-83294681D02*
X166415087Y-83219417D01*
X166415087Y-83219417D02*
X166404929Y-83177713D01*
X166404929Y-83177713D02*
X166372397Y-83127866D01*
X166372397Y-83127866D02*
X166260528Y-83087149D01*
X166260528Y-83087149D02*
X166181192Y-83096279D01*
X165869895Y-83325034D02*
X165713280Y-83268030D01*
X165511794Y-83612765D02*
X165735530Y-83694199D01*
X165735530Y-83694199D02*
X165992045Y-82989429D01*
X165992045Y-82989429D02*
X165768309Y-82907996D01*
X165634067Y-82859136D02*
X165365583Y-82761416D01*
X165243310Y-83515045D02*
X165499825Y-82810276D01*
X163760629Y-91120914D02*
X163681293Y-91130045D01*
X163681293Y-91130045D02*
X163569425Y-91089328D01*
X163569425Y-91089328D02*
X163536893Y-91039481D01*
X163536893Y-91039481D02*
X163526734Y-90997777D01*
X163526734Y-90997777D02*
X163528790Y-90922513D01*
X163528790Y-90922513D02*
X163553220Y-90855392D01*
X163553220Y-90855392D02*
X163600024Y-90796414D01*
X163600024Y-90796414D02*
X163634613Y-90770997D01*
X163634613Y-90770997D02*
X163691575Y-90753723D01*
X163691575Y-90753723D02*
X163793284Y-90752736D01*
X163793284Y-90752736D02*
X163850247Y-90735463D01*
X163850247Y-90735463D02*
X163884835Y-90710045D01*
X163884835Y-90710045D02*
X163931639Y-90651068D01*
X163931639Y-90651068D02*
X163956069Y-90583947D01*
X163956069Y-90583947D02*
X163958125Y-90508683D01*
X163958125Y-90508683D02*
X163947967Y-90466979D01*
X163947967Y-90466979D02*
X163915435Y-90417132D01*
X163915435Y-90417132D02*
X163803566Y-90376415D01*
X163803566Y-90376415D02*
X163724230Y-90385546D01*
X163579830Y-90294982D02*
X163211447Y-90959035D01*
X163211447Y-90959035D02*
X163305178Y-90423055D01*
X163305178Y-90423055D02*
X163032458Y-90893888D01*
X163032458Y-90893888D02*
X163177105Y-90148402D01*
X162996059Y-90158519D02*
X162985901Y-90116816D01*
X162985901Y-90116816D02*
X162953368Y-90066968D01*
X162953368Y-90066968D02*
X162841500Y-90026252D01*
X162841500Y-90026252D02*
X162784538Y-90043525D01*
X162784538Y-90043525D02*
X162749949Y-90068943D01*
X162749949Y-90068943D02*
X162703146Y-90127920D01*
X162703146Y-90127920D02*
X162678716Y-90195041D01*
X162678716Y-90195041D02*
X162664444Y-90303866D01*
X162664444Y-90303866D02*
X162786348Y-90804311D01*
X162786348Y-90804311D02*
X162495491Y-90698448D01*
X176180052Y-86693000D02*
X176237015Y-86675726D01*
X176237015Y-86675726D02*
X176304135Y-86700156D01*
X176304135Y-86700156D02*
X176359041Y-86758146D01*
X176359041Y-86758146D02*
X176379359Y-86841554D01*
X176379359Y-86841554D02*
X176377302Y-86916818D01*
X176377302Y-86916818D02*
X176350816Y-87059203D01*
X176350816Y-87059203D02*
X176314171Y-87159885D01*
X176314171Y-87159885D02*
X176242937Y-87285983D01*
X176242937Y-87285983D02*
X176196134Y-87344961D01*
X176196134Y-87344961D02*
X176126956Y-87395795D01*
X176126956Y-87395795D02*
X176047620Y-87404925D01*
X176047620Y-87404925D02*
X176002873Y-87388639D01*
X176002873Y-87388639D02*
X175947967Y-87330648D01*
X175947967Y-87330648D02*
X175937809Y-87288944D01*
X175937809Y-87288944D02*
X176023314Y-87054021D01*
X176023314Y-87054021D02*
X176112808Y-87086594D01*
X175712016Y-87282775D02*
X175968531Y-86578006D01*
X175968531Y-86578006D02*
X175443532Y-87185055D01*
X175443532Y-87185055D02*
X175700047Y-86480286D01*
X175219795Y-87103622D02*
X175476311Y-86398852D01*
X175476311Y-86398852D02*
X175364442Y-86358135D01*
X175364442Y-86358135D02*
X175285106Y-86367266D01*
X175285106Y-86367266D02*
X175215929Y-86418100D01*
X175215929Y-86418100D02*
X175169126Y-86477078D01*
X175169126Y-86477078D02*
X175097892Y-86603176D01*
X175097892Y-86603176D02*
X175061247Y-86703857D01*
X175061247Y-86703857D02*
X175034760Y-86846243D01*
X175034760Y-86846243D02*
X175032704Y-86921507D01*
X175032704Y-86921507D02*
X175053021Y-87004914D01*
X175053021Y-87004914D02*
X175107927Y-87062905D01*
X175107927Y-87062905D02*
X175219795Y-87103622D01*
X177964174Y-82626539D02*
X177884838Y-82635670D01*
X177884838Y-82635670D02*
X177772970Y-82594953D01*
X177772970Y-82594953D02*
X177740437Y-82545106D01*
X177740437Y-82545106D02*
X177730279Y-82503402D01*
X177730279Y-82503402D02*
X177732335Y-82428138D01*
X177732335Y-82428138D02*
X177756765Y-82361017D01*
X177756765Y-82361017D02*
X177803569Y-82302039D01*
X177803569Y-82302039D02*
X177838157Y-82276622D01*
X177838157Y-82276622D02*
X177895120Y-82259348D01*
X177895120Y-82259348D02*
X177996829Y-82258361D01*
X177996829Y-82258361D02*
X178053792Y-82241087D01*
X178053792Y-82241087D02*
X178088380Y-82215670D01*
X178088380Y-82215670D02*
X178135184Y-82156693D01*
X178135184Y-82156693D02*
X178159614Y-82089572D01*
X178159614Y-82089572D02*
X178161670Y-82014308D01*
X178161670Y-82014308D02*
X178151512Y-81972604D01*
X178151512Y-81972604D02*
X178118979Y-81922757D01*
X178118979Y-81922757D02*
X178007111Y-81882040D01*
X178007111Y-81882040D02*
X177927775Y-81891171D01*
X177783375Y-81800607D02*
X177414992Y-82464660D01*
X177414992Y-82464660D02*
X177508723Y-81928680D01*
X177508723Y-81928680D02*
X177236003Y-82399513D01*
X177236003Y-82399513D02*
X177380650Y-81654027D01*
X176699035Y-82204073D02*
X176967519Y-82301793D01*
X176833277Y-82252933D02*
X177089792Y-81548163D01*
X177089792Y-81548163D02*
X177097894Y-81665131D01*
X177097894Y-81665131D02*
X177118212Y-81748539D01*
X177118212Y-81748539D02*
X177150744Y-81798386D01*
X176577132Y-81703627D02*
X176634094Y-81686354D01*
X176634094Y-81686354D02*
X176668683Y-81660937D01*
X176668683Y-81660937D02*
X176715487Y-81601959D01*
X176715487Y-81601959D02*
X176727702Y-81568399D01*
X176727702Y-81568399D02*
X176729758Y-81493134D01*
X176729758Y-81493134D02*
X176719600Y-81451431D01*
X176719600Y-81451431D02*
X176687067Y-81401583D01*
X176687067Y-81401583D02*
X176597573Y-81369010D01*
X176597573Y-81369010D02*
X176540610Y-81386284D01*
X176540610Y-81386284D02*
X176506022Y-81411701D01*
X176506022Y-81411701D02*
X176459218Y-81470678D01*
X176459218Y-81470678D02*
X176447003Y-81504239D01*
X176447003Y-81504239D02*
X176444947Y-81579503D01*
X176444947Y-81579503D02*
X176455105Y-81621207D01*
X176455105Y-81621207D02*
X176487638Y-81671054D01*
X176487638Y-81671054D02*
X176577132Y-81703627D01*
X176577132Y-81703627D02*
X176609664Y-81753475D01*
X176609664Y-81753475D02*
X176619823Y-81795178D01*
X176619823Y-81795178D02*
X176617767Y-81870443D01*
X176617767Y-81870443D02*
X176568907Y-82004684D01*
X176568907Y-82004684D02*
X176522103Y-82063662D01*
X176522103Y-82063662D02*
X176487514Y-82089079D01*
X176487514Y-82089079D02*
X176430552Y-82106353D01*
X176430552Y-82106353D02*
X176341058Y-82073779D01*
X176341058Y-82073779D02*
X176308525Y-82023932D01*
X176308525Y-82023932D02*
X176298367Y-81982229D01*
X176298367Y-81982229D02*
X176300423Y-81906964D01*
X176300423Y-81906964D02*
X176349283Y-81772723D01*
X176349283Y-81772723D02*
X176396087Y-81713745D01*
X176396087Y-81713745D02*
X176430675Y-81688328D01*
X176430675Y-81688328D02*
X176487638Y-81671054D01*
X175460261Y-82057247D02*
X175494850Y-82031829D01*
X175494850Y-82031829D02*
X175576242Y-81947435D01*
X175576242Y-81947435D02*
X175623046Y-81888457D01*
X175623046Y-81888457D02*
X175682064Y-81795919D01*
X175682064Y-81795919D02*
X175765513Y-81636260D01*
X175765513Y-81636260D02*
X175814373Y-81502019D01*
X175814373Y-81502019D02*
X175853074Y-81326073D01*
X175853074Y-81326073D02*
X175867346Y-81217248D01*
X175867346Y-81217248D02*
X175869402Y-81141984D01*
X175869402Y-81141984D02*
X175861300Y-81025016D01*
X175861300Y-81025016D02*
X175851141Y-80983312D01*
X175550003Y-81253770D02*
X175330132Y-81857858D01*
X175330132Y-81857858D02*
X175328076Y-81933122D01*
X175328076Y-81933122D02*
X175360608Y-81982970D01*
X175360608Y-81982970D02*
X175382982Y-81991113D01*
X175635508Y-81018847D02*
X175645666Y-81060551D01*
X175645666Y-81060551D02*
X175611078Y-81085968D01*
X175611078Y-81085968D02*
X175600919Y-81044264D01*
X175600919Y-81044264D02*
X175635508Y-81018847D01*
X175635508Y-81018847D02*
X175611078Y-81085968D01*
X174953894Y-81568893D02*
X175088259Y-81199728D01*
X175088259Y-81199728D02*
X175135062Y-81140751D01*
X175135062Y-81140751D02*
X175192025Y-81123477D01*
X175192025Y-81123477D02*
X175281519Y-81156050D01*
X175281519Y-81156050D02*
X175314051Y-81205897D01*
X174966109Y-81535333D02*
X174998641Y-81585180D01*
X174998641Y-81585180D02*
X175110509Y-81625896D01*
X175110509Y-81625896D02*
X175167471Y-81608623D01*
X175167471Y-81608623D02*
X175214275Y-81549645D01*
X175214275Y-81549645D02*
X175238705Y-81482524D01*
X175238705Y-81482524D02*
X175240761Y-81407260D01*
X175240761Y-81407260D02*
X175208229Y-81357413D01*
X175208229Y-81357413D02*
X175096361Y-81316696D01*
X175096361Y-81316696D02*
X175063829Y-81266849D01*
X174541010Y-81380609D02*
X174573542Y-81430456D01*
X174573542Y-81430456D02*
X174663036Y-81463030D01*
X174663036Y-81463030D02*
X174719999Y-81445756D01*
X174719999Y-81445756D02*
X174754587Y-81420339D01*
X174754587Y-81420339D02*
X174801391Y-81361361D01*
X174801391Y-81361361D02*
X174874681Y-81159999D01*
X174874681Y-81159999D02*
X174876737Y-81084734D01*
X174876737Y-81084734D02*
X174866579Y-81043031D01*
X174866579Y-81043031D02*
X174834046Y-80993183D01*
X174834046Y-80993183D02*
X174744552Y-80960610D01*
X174744552Y-80960610D02*
X174687590Y-80977884D01*
X174327432Y-81340880D02*
X174583947Y-80636110D01*
X174380405Y-81056110D02*
X174148443Y-81275733D01*
X174319453Y-80805887D02*
X174400722Y-81139517D01*
X173894108Y-81487213D02*
X173883949Y-81445510D01*
X173883949Y-81445510D02*
X173875847Y-81328542D01*
X173875847Y-81328542D02*
X173877903Y-81253277D01*
X173877903Y-81253277D02*
X173892175Y-81144453D01*
X173892175Y-81144453D02*
X173930876Y-80968507D01*
X173930876Y-80968507D02*
X173979736Y-80834265D01*
X173979736Y-80834265D02*
X174063185Y-80674606D01*
X174063185Y-80674606D02*
X174122203Y-80582068D01*
X174122203Y-80582068D02*
X174169007Y-80523091D01*
X174169007Y-80523091D02*
X174250399Y-80438696D01*
X174250399Y-80438696D02*
X174284988Y-80413279D01*
X160329286Y-100636166D02*
X160249950Y-100645297D01*
X160249950Y-100645297D02*
X160138082Y-100604580D01*
X160138082Y-100604580D02*
X160105550Y-100554733D01*
X160105550Y-100554733D02*
X160095391Y-100513029D01*
X160095391Y-100513029D02*
X160097447Y-100437765D01*
X160097447Y-100437765D02*
X160121877Y-100370644D01*
X160121877Y-100370644D02*
X160168681Y-100311666D01*
X160168681Y-100311666D02*
X160203270Y-100286249D01*
X160203270Y-100286249D02*
X160260232Y-100268975D01*
X160260232Y-100268975D02*
X160361941Y-100267988D01*
X160361941Y-100267988D02*
X160418904Y-100250715D01*
X160418904Y-100250715D02*
X160453492Y-100225297D01*
X160453492Y-100225297D02*
X160500296Y-100166320D01*
X160500296Y-100166320D02*
X160524726Y-100099199D01*
X160524726Y-100099199D02*
X160526782Y-100023935D01*
X160526782Y-100023935D02*
X160516624Y-99982231D01*
X160516624Y-99982231D02*
X160484092Y-99932384D01*
X160484092Y-99932384D02*
X160372223Y-99891667D01*
X160372223Y-99891667D02*
X160292887Y-99900798D01*
X160148487Y-99810234D02*
X159780104Y-100474287D01*
X159780104Y-100474287D02*
X159873835Y-99938307D01*
X159873835Y-99938307D02*
X159601115Y-100409140D01*
X159601115Y-100409140D02*
X159745762Y-99663654D01*
X159365410Y-99525217D02*
X159454904Y-99557790D01*
X159454904Y-99557790D02*
X159487437Y-99607638D01*
X159487437Y-99607638D02*
X159497595Y-99649341D01*
X159497595Y-99649341D02*
X159505698Y-99766309D01*
X159505698Y-99766309D02*
X159479211Y-99908694D01*
X159479211Y-99908694D02*
X159381491Y-100177178D01*
X159381491Y-100177178D02*
X159334687Y-100236156D01*
X159334687Y-100236156D02*
X159300099Y-100261573D01*
X159300099Y-100261573D02*
X159243137Y-100278847D01*
X159243137Y-100278847D02*
X159153642Y-100246273D01*
X159153642Y-100246273D02*
X159121110Y-100196426D01*
X159121110Y-100196426D02*
X159110951Y-100154722D01*
X159110951Y-100154722D02*
X159113008Y-100079458D01*
X159113008Y-100079458D02*
X159174083Y-99911656D01*
X159174083Y-99911656D02*
X159220886Y-99852678D01*
X159220886Y-99852678D02*
X159255475Y-99827261D01*
X159255475Y-99827261D02*
X159312437Y-99809987D01*
X159312437Y-99809987D02*
X159401932Y-99842561D01*
X159401932Y-99842561D02*
X159434464Y-99892408D01*
X159434464Y-99892408D02*
X159444623Y-99934112D01*
X159444623Y-99934112D02*
X159442566Y-100009376D01*
X173558125Y-94644344D02*
X173478789Y-94653475D01*
X173478789Y-94653475D02*
X173366921Y-94612758D01*
X173366921Y-94612758D02*
X173334388Y-94562911D01*
X173334388Y-94562911D02*
X173324230Y-94521207D01*
X173324230Y-94521207D02*
X173326286Y-94445943D01*
X173326286Y-94445943D02*
X173350716Y-94378822D01*
X173350716Y-94378822D02*
X173397520Y-94319844D01*
X173397520Y-94319844D02*
X173432108Y-94294427D01*
X173432108Y-94294427D02*
X173489071Y-94277153D01*
X173489071Y-94277153D02*
X173590780Y-94276166D01*
X173590780Y-94276166D02*
X173647743Y-94258892D01*
X173647743Y-94258892D02*
X173682331Y-94233475D01*
X173682331Y-94233475D02*
X173729135Y-94174498D01*
X173729135Y-94174498D02*
X173753565Y-94107377D01*
X173753565Y-94107377D02*
X173755621Y-94032113D01*
X173755621Y-94032113D02*
X173745463Y-93990409D01*
X173745463Y-93990409D02*
X173712930Y-93940562D01*
X173712930Y-93940562D02*
X173601062Y-93899845D01*
X173601062Y-93899845D02*
X173521726Y-93908976D01*
X173377326Y-93818412D02*
X173008943Y-94482465D01*
X173008943Y-94482465D02*
X173102674Y-93946485D01*
X173102674Y-93946485D02*
X172829954Y-94417318D01*
X172829954Y-94417318D02*
X172974601Y-93671832D01*
X172292986Y-94221878D02*
X172561470Y-94319598D01*
X172427228Y-94270738D02*
X172683743Y-93565968D01*
X172683743Y-93565968D02*
X172691845Y-93682936D01*
X172691845Y-93682936D02*
X172712163Y-93766344D01*
X172712163Y-93766344D02*
X172744695Y-93816191D01*
X172392886Y-93460105D02*
X172079656Y-93346098D01*
X172079656Y-93346098D02*
X172024503Y-94124158D01*
X164643040Y-88696507D02*
X164563704Y-88705638D01*
X164563704Y-88705638D02*
X164451836Y-88664921D01*
X164451836Y-88664921D02*
X164419304Y-88615074D01*
X164419304Y-88615074D02*
X164409145Y-88573370D01*
X164409145Y-88573370D02*
X164411201Y-88498106D01*
X164411201Y-88498106D02*
X164435631Y-88430985D01*
X164435631Y-88430985D02*
X164482435Y-88372007D01*
X164482435Y-88372007D02*
X164517024Y-88346590D01*
X164517024Y-88346590D02*
X164573986Y-88329316D01*
X164573986Y-88329316D02*
X164675695Y-88328329D01*
X164675695Y-88328329D02*
X164732658Y-88311056D01*
X164732658Y-88311056D02*
X164767246Y-88285638D01*
X164767246Y-88285638D02*
X164814050Y-88226661D01*
X164814050Y-88226661D02*
X164838480Y-88159540D01*
X164838480Y-88159540D02*
X164840536Y-88084276D01*
X164840536Y-88084276D02*
X164830378Y-88042572D01*
X164830378Y-88042572D02*
X164797846Y-87992725D01*
X164797846Y-87992725D02*
X164685977Y-87952008D01*
X164685977Y-87952008D02*
X164606641Y-87961139D01*
X164462241Y-87870575D02*
X164093858Y-88534628D01*
X164093858Y-88534628D02*
X164187589Y-87998648D01*
X164187589Y-87998648D02*
X163914869Y-88469481D01*
X163914869Y-88469481D02*
X164059516Y-87723995D01*
X163377902Y-88274041D02*
X163646385Y-88371761D01*
X163512143Y-88322901D02*
X163768658Y-87618131D01*
X163768658Y-87618131D02*
X163776761Y-87735099D01*
X163776761Y-87735099D02*
X163797078Y-87818507D01*
X163797078Y-87818507D02*
X163829610Y-87868354D01*
X162902158Y-93479543D02*
X162822822Y-93488674D01*
X162822822Y-93488674D02*
X162710954Y-93447957D01*
X162710954Y-93447957D02*
X162678422Y-93398110D01*
X162678422Y-93398110D02*
X162668263Y-93356406D01*
X162668263Y-93356406D02*
X162670319Y-93281142D01*
X162670319Y-93281142D02*
X162694749Y-93214021D01*
X162694749Y-93214021D02*
X162741553Y-93155043D01*
X162741553Y-93155043D02*
X162776142Y-93129626D01*
X162776142Y-93129626D02*
X162833104Y-93112352D01*
X162833104Y-93112352D02*
X162934813Y-93111365D01*
X162934813Y-93111365D02*
X162991776Y-93094092D01*
X162991776Y-93094092D02*
X163026364Y-93068674D01*
X163026364Y-93068674D02*
X163073168Y-93009697D01*
X163073168Y-93009697D02*
X163097598Y-92942576D01*
X163097598Y-92942576D02*
X163099654Y-92867312D01*
X163099654Y-92867312D02*
X163089496Y-92825608D01*
X163089496Y-92825608D02*
X163056964Y-92775761D01*
X163056964Y-92775761D02*
X162945095Y-92735044D01*
X162945095Y-92735044D02*
X162865759Y-92744175D01*
X162721359Y-92653611D02*
X162352976Y-93317664D01*
X162352976Y-93317664D02*
X162446707Y-92781684D01*
X162446707Y-92781684D02*
X162173987Y-93252517D01*
X162173987Y-93252517D02*
X162318634Y-92507031D01*
X162184392Y-92458171D02*
X161893535Y-92352307D01*
X161893535Y-92352307D02*
X161952430Y-92677794D01*
X161952430Y-92677794D02*
X161885309Y-92653364D01*
X161885309Y-92653364D02*
X161828347Y-92670638D01*
X161828347Y-92670638D02*
X161793758Y-92696055D01*
X161793758Y-92696055D02*
X161746955Y-92755033D01*
X161746955Y-92755033D02*
X161685880Y-92922835D01*
X161685880Y-92922835D02*
X161683823Y-92998099D01*
X161683823Y-92998099D02*
X161693982Y-93039803D01*
X161693982Y-93039803D02*
X161726514Y-93089650D01*
X161726514Y-93089650D02*
X161860756Y-93138510D01*
X161860756Y-93138510D02*
X161917718Y-93121236D01*
X161917718Y-93121236D02*
X161952307Y-93095819D01*
X158590994Y-105324368D02*
X158511658Y-105333499D01*
X158511658Y-105333499D02*
X158399790Y-105292782D01*
X158399790Y-105292782D02*
X158367258Y-105242935D01*
X158367258Y-105242935D02*
X158357099Y-105201231D01*
X158357099Y-105201231D02*
X158359155Y-105125967D01*
X158359155Y-105125967D02*
X158383585Y-105058846D01*
X158383585Y-105058846D02*
X158430389Y-104999868D01*
X158430389Y-104999868D02*
X158464978Y-104974451D01*
X158464978Y-104974451D02*
X158521940Y-104957177D01*
X158521940Y-104957177D02*
X158623649Y-104956190D01*
X158623649Y-104956190D02*
X158680612Y-104938917D01*
X158680612Y-104938917D02*
X158715200Y-104913499D01*
X158715200Y-104913499D02*
X158762004Y-104854522D01*
X158762004Y-104854522D02*
X158786434Y-104787401D01*
X158786434Y-104787401D02*
X158788490Y-104712137D01*
X158788490Y-104712137D02*
X158778332Y-104670433D01*
X158778332Y-104670433D02*
X158745800Y-104620586D01*
X158745800Y-104620586D02*
X158633931Y-104579869D01*
X158633931Y-104579869D02*
X158554595Y-104589000D01*
X158410195Y-104498436D02*
X158041812Y-105162489D01*
X158041812Y-105162489D02*
X158135543Y-104626509D01*
X158135543Y-104626509D02*
X157862823Y-105097342D01*
X157862823Y-105097342D02*
X158007470Y-104351856D01*
X157651425Y-104564323D02*
X157708387Y-104547049D01*
X157708387Y-104547049D02*
X157742976Y-104521632D01*
X157742976Y-104521632D02*
X157789779Y-104462655D01*
X157789779Y-104462655D02*
X157801994Y-104429094D01*
X157801994Y-104429094D02*
X157804051Y-104353830D01*
X157804051Y-104353830D02*
X157793892Y-104312126D01*
X157793892Y-104312126D02*
X157761360Y-104262279D01*
X157761360Y-104262279D02*
X157671865Y-104229706D01*
X157671865Y-104229706D02*
X157614903Y-104246979D01*
X157614903Y-104246979D02*
X157580314Y-104272397D01*
X157580314Y-104272397D02*
X157533511Y-104331374D01*
X157533511Y-104331374D02*
X157521296Y-104364935D01*
X157521296Y-104364935D02*
X157519239Y-104440199D01*
X157519239Y-104440199D02*
X157529398Y-104481903D01*
X157529398Y-104481903D02*
X157561930Y-104531750D01*
X157561930Y-104531750D02*
X157651425Y-104564323D01*
X157651425Y-104564323D02*
X157683957Y-104614170D01*
X157683957Y-104614170D02*
X157694116Y-104655874D01*
X157694116Y-104655874D02*
X157692059Y-104731138D01*
X157692059Y-104731138D02*
X157643199Y-104865380D01*
X157643199Y-104865380D02*
X157596395Y-104924358D01*
X157596395Y-104924358D02*
X157561807Y-104949775D01*
X157561807Y-104949775D02*
X157504845Y-104967049D01*
X157504845Y-104967049D02*
X157415350Y-104934475D01*
X157415350Y-104934475D02*
X157382818Y-104884628D01*
X157382818Y-104884628D02*
X157372659Y-104842924D01*
X157372659Y-104842924D02*
X157374716Y-104767660D01*
X157374716Y-104767660D02*
X157423576Y-104633418D01*
X157423576Y-104633418D02*
X157470379Y-104574441D01*
X157470379Y-104574441D02*
X157504968Y-104549024D01*
X157504968Y-104549024D02*
X157561930Y-104531750D01*
X171782211Y-99435913D02*
X171702875Y-99445044D01*
X171702875Y-99445044D02*
X171591007Y-99404327D01*
X171591007Y-99404327D02*
X171558474Y-99354480D01*
X171558474Y-99354480D02*
X171548316Y-99312776D01*
X171548316Y-99312776D02*
X171550372Y-99237512D01*
X171550372Y-99237512D02*
X171574802Y-99170391D01*
X171574802Y-99170391D02*
X171621606Y-99111413D01*
X171621606Y-99111413D02*
X171656194Y-99085996D01*
X171656194Y-99085996D02*
X171713157Y-99068722D01*
X171713157Y-99068722D02*
X171814866Y-99067735D01*
X171814866Y-99067735D02*
X171871829Y-99050461D01*
X171871829Y-99050461D02*
X171906417Y-99025044D01*
X171906417Y-99025044D02*
X171953221Y-98966067D01*
X171953221Y-98966067D02*
X171977651Y-98898946D01*
X171977651Y-98898946D02*
X171979707Y-98823682D01*
X171979707Y-98823682D02*
X171969549Y-98781978D01*
X171969549Y-98781978D02*
X171937016Y-98732131D01*
X171937016Y-98732131D02*
X171825148Y-98691414D01*
X171825148Y-98691414D02*
X171745812Y-98700545D01*
X171601412Y-98609981D02*
X171233029Y-99274034D01*
X171233029Y-99274034D02*
X171326760Y-98738054D01*
X171326760Y-98738054D02*
X171054040Y-99208887D01*
X171054040Y-99208887D02*
X171198687Y-98463401D01*
X170517072Y-99013447D02*
X170785556Y-99111167D01*
X170651314Y-99062307D02*
X170907829Y-98357537D01*
X170907829Y-98357537D02*
X170915931Y-98474505D01*
X170915931Y-98474505D02*
X170936249Y-98557913D01*
X170936249Y-98557913D02*
X170968781Y-98607760D01*
X170482731Y-98202814D02*
X170437983Y-98186527D01*
X170437983Y-98186527D02*
X170381021Y-98203801D01*
X170381021Y-98203801D02*
X170346432Y-98229218D01*
X170346432Y-98229218D02*
X170299629Y-98288196D01*
X170299629Y-98288196D02*
X170228395Y-98414294D01*
X170228395Y-98414294D02*
X170167320Y-98582097D01*
X170167320Y-98582097D02*
X170140834Y-98724482D01*
X170140834Y-98724482D02*
X170138777Y-98799746D01*
X170138777Y-98799746D02*
X170148936Y-98841450D01*
X170148936Y-98841450D02*
X170181468Y-98891297D01*
X170181468Y-98891297D02*
X170226216Y-98907584D01*
X170226216Y-98907584D02*
X170283178Y-98890310D01*
X170283178Y-98890310D02*
X170317766Y-98864893D01*
X170317766Y-98864893D02*
X170364570Y-98805915D01*
X170364570Y-98805915D02*
X170435804Y-98679817D01*
X170435804Y-98679817D02*
X170496879Y-98512014D01*
X170496879Y-98512014D02*
X170523365Y-98369629D01*
X170523365Y-98369629D02*
X170525422Y-98294365D01*
X170525422Y-98294365D02*
X170515263Y-98252661D01*
X170515263Y-98252661D02*
X170482731Y-98202814D01*
X159474235Y-102985397D02*
X159394899Y-102994528D01*
X159394899Y-102994528D02*
X159283031Y-102953811D01*
X159283031Y-102953811D02*
X159250499Y-102903964D01*
X159250499Y-102903964D02*
X159240340Y-102862260D01*
X159240340Y-102862260D02*
X159242396Y-102786996D01*
X159242396Y-102786996D02*
X159266826Y-102719875D01*
X159266826Y-102719875D02*
X159313630Y-102660897D01*
X159313630Y-102660897D02*
X159348219Y-102635480D01*
X159348219Y-102635480D02*
X159405181Y-102618206D01*
X159405181Y-102618206D02*
X159506890Y-102617219D01*
X159506890Y-102617219D02*
X159563853Y-102599946D01*
X159563853Y-102599946D02*
X159598441Y-102574528D01*
X159598441Y-102574528D02*
X159645245Y-102515551D01*
X159645245Y-102515551D02*
X159669675Y-102448430D01*
X159669675Y-102448430D02*
X159671731Y-102373166D01*
X159671731Y-102373166D02*
X159661573Y-102331462D01*
X159661573Y-102331462D02*
X159629041Y-102281615D01*
X159629041Y-102281615D02*
X159517172Y-102240898D01*
X159517172Y-102240898D02*
X159437836Y-102250029D01*
X159293436Y-102159465D02*
X158925053Y-102823518D01*
X158925053Y-102823518D02*
X159018784Y-102287538D01*
X159018784Y-102287538D02*
X158746064Y-102758371D01*
X158746064Y-102758371D02*
X158890711Y-102012885D01*
X158756469Y-101964025D02*
X158443238Y-101850018D01*
X158443238Y-101850018D02*
X158388086Y-102628078D01*
X170923741Y-101794541D02*
X170844405Y-101803672D01*
X170844405Y-101803672D02*
X170732537Y-101762955D01*
X170732537Y-101762955D02*
X170700004Y-101713108D01*
X170700004Y-101713108D02*
X170689846Y-101671404D01*
X170689846Y-101671404D02*
X170691902Y-101596140D01*
X170691902Y-101596140D02*
X170716332Y-101529019D01*
X170716332Y-101529019D02*
X170763136Y-101470041D01*
X170763136Y-101470041D02*
X170797724Y-101444624D01*
X170797724Y-101444624D02*
X170854687Y-101427350D01*
X170854687Y-101427350D02*
X170956396Y-101426363D01*
X170956396Y-101426363D02*
X171013359Y-101409089D01*
X171013359Y-101409089D02*
X171047947Y-101383672D01*
X171047947Y-101383672D02*
X171094751Y-101324695D01*
X171094751Y-101324695D02*
X171119181Y-101257574D01*
X171119181Y-101257574D02*
X171121237Y-101182310D01*
X171121237Y-101182310D02*
X171111079Y-101140606D01*
X171111079Y-101140606D02*
X171078546Y-101090759D01*
X171078546Y-101090759D02*
X170966678Y-101050042D01*
X170966678Y-101050042D02*
X170887342Y-101059173D01*
X170742942Y-100968609D02*
X170374559Y-101632662D01*
X170374559Y-101632662D02*
X170468290Y-101096682D01*
X170468290Y-101096682D02*
X170195570Y-101567515D01*
X170195570Y-101567515D02*
X170340217Y-100822029D01*
X169658602Y-101372075D02*
X169927086Y-101469795D01*
X169792844Y-101420935D02*
X170049359Y-100716165D01*
X170049359Y-100716165D02*
X170057461Y-100833133D01*
X170057461Y-100833133D02*
X170077779Y-100916541D01*
X170077779Y-100916541D02*
X170110311Y-100966388D01*
X169211130Y-101209208D02*
X169479614Y-101306928D01*
X169345372Y-101258068D02*
X169601887Y-100553299D01*
X169601887Y-100553299D02*
X169609989Y-100670267D01*
X169609989Y-100670267D02*
X169630306Y-100753674D01*
X169630306Y-100753674D02*
X169662839Y-100803521D01*
D10*
X143071513Y-87789750D02*
X142940874Y-87825820D01*
X142940874Y-87825820D02*
X142726882Y-87814605D01*
X142726882Y-87814605D02*
X142643528Y-87767321D01*
X142643528Y-87767321D02*
X142602973Y-87722279D01*
X142602973Y-87722279D02*
X142564661Y-87634439D01*
X142564661Y-87634439D02*
X142569147Y-87548843D01*
X142569147Y-87548843D02*
X142616431Y-87465489D01*
X142616431Y-87465489D02*
X142661472Y-87424933D01*
X142661472Y-87424933D02*
X142749312Y-87386621D01*
X142749312Y-87386621D02*
X142922749Y-87352794D01*
X142922749Y-87352794D02*
X143010588Y-87314482D01*
X143010588Y-87314482D02*
X143055630Y-87273926D01*
X143055630Y-87273926D02*
X143102914Y-87190573D01*
X143102914Y-87190573D02*
X143107400Y-87104976D01*
X143107400Y-87104976D02*
X143069088Y-87017136D01*
X143069088Y-87017136D02*
X143028532Y-86972095D01*
X143028532Y-86972095D02*
X142945178Y-86924810D01*
X142945178Y-86924810D02*
X142731186Y-86913595D01*
X142731186Y-86913595D02*
X142600548Y-86949665D01*
X142303202Y-86891166D02*
X142042108Y-87778717D01*
X142042108Y-87778717D02*
X141904559Y-87127769D01*
X141904559Y-87127769D02*
X141699720Y-87760774D01*
X141699720Y-87760774D02*
X141532831Y-86850792D01*
X140805258Y-86812662D02*
X140976452Y-86821634D01*
X140976452Y-86821634D02*
X141059806Y-86868918D01*
X141059806Y-86868918D02*
X141100361Y-86913959D01*
X141100361Y-86913959D02*
X141179229Y-87046840D01*
X141179229Y-87046840D02*
X141213056Y-87220277D01*
X141213056Y-87220277D02*
X141195112Y-87562664D01*
X141195112Y-87562664D02*
X141147827Y-87646018D01*
X141147827Y-87646018D02*
X141102786Y-87686574D01*
X141102786Y-87686574D02*
X141014946Y-87724886D01*
X141014946Y-87724886D02*
X140843753Y-87715914D01*
X140843753Y-87715914D02*
X140760399Y-87668630D01*
X140760399Y-87668630D02*
X140719843Y-87623589D01*
X140719843Y-87623589D02*
X140681531Y-87535749D01*
X140681531Y-87535749D02*
X140692746Y-87321757D01*
X140692746Y-87321757D02*
X140740030Y-87238403D01*
X140740030Y-87238403D02*
X140785071Y-87197847D01*
X140785071Y-87197847D02*
X140872911Y-87159535D01*
X140872911Y-87159535D02*
X141044105Y-87168507D01*
X141044105Y-87168507D02*
X141127459Y-87215791D01*
X141127459Y-87215791D02*
X141168014Y-87260833D01*
X141168014Y-87260833D02*
X141206327Y-87348672D01*
X147372080Y-116556449D02*
X147391959Y-116690510D01*
X147391959Y-116690510D02*
X147354749Y-116901540D01*
X147354749Y-116901540D02*
X147297659Y-116978510D01*
X147297659Y-116978510D02*
X147248011Y-117013274D01*
X147248011Y-117013274D02*
X147156157Y-117040596D01*
X147156157Y-117040596D02*
X147071745Y-117025712D01*
X147071745Y-117025712D02*
X146994775Y-116968621D01*
X146994775Y-116968621D02*
X146960011Y-116918973D01*
X146960011Y-116918973D02*
X146932689Y-116827119D01*
X146932689Y-116827119D02*
X146920251Y-116650853D01*
X146920251Y-116650853D02*
X146892929Y-116558999D01*
X146892929Y-116558999D02*
X146858165Y-116509351D01*
X146858165Y-116509351D02*
X146781195Y-116452260D01*
X146781195Y-116452260D02*
X146696783Y-116437376D01*
X146696783Y-116437376D02*
X146604929Y-116464698D01*
X146604929Y-116464698D02*
X146555281Y-116499462D01*
X146555281Y-116499462D02*
X146498190Y-116576432D01*
X146498190Y-116576432D02*
X146460980Y-116787462D01*
X146460980Y-116787462D02*
X146480860Y-116921523D01*
X146386559Y-117209523D02*
X147235676Y-117576837D01*
X147235676Y-117576837D02*
X146572817Y-117634030D01*
X146572817Y-117634030D02*
X147176140Y-117914485D01*
X147176140Y-117914485D02*
X146252602Y-117969232D01*
X146997530Y-118927430D02*
X147086835Y-118420957D01*
X147042182Y-118674193D02*
X146155855Y-118517910D01*
X146155855Y-118517910D02*
X146297358Y-118455824D01*
X146297358Y-118455824D02*
X146396654Y-118386296D01*
X146396654Y-118386296D02*
X146453744Y-118309326D01*
X145977246Y-119530855D02*
X146007014Y-119362031D01*
X146007014Y-119362031D02*
X146064104Y-119285061D01*
X146064104Y-119285061D02*
X146113752Y-119250297D01*
X146113752Y-119250297D02*
X146255255Y-119188211D01*
X146255255Y-119188211D02*
X146431521Y-119175773D01*
X146431521Y-119175773D02*
X146769169Y-119235310D01*
X146769169Y-119235310D02*
X146846139Y-119292400D01*
X146846139Y-119292400D02*
X146880903Y-119342048D01*
X146880903Y-119342048D02*
X146908225Y-119433902D01*
X146908225Y-119433902D02*
X146878457Y-119602727D01*
X146878457Y-119602727D02*
X146821367Y-119679697D01*
X146821367Y-119679697D02*
X146771719Y-119714461D01*
X146771719Y-119714461D02*
X146679865Y-119741783D01*
X146679865Y-119741783D02*
X146468834Y-119704572D01*
X146468834Y-119704572D02*
X146391864Y-119647482D01*
X146391864Y-119647482D02*
X146357100Y-119597834D01*
X146357100Y-119597834D02*
X146329778Y-119505980D01*
X146329778Y-119505980D02*
X146359547Y-119337156D01*
X146359547Y-119337156D02*
X146416637Y-119260186D01*
X146416637Y-119260186D02*
X146466285Y-119225422D01*
X146466285Y-119225422D02*
X146558139Y-119198100D01*
X81939031Y-64341968D02*
X81817675Y-64402301D01*
X81817675Y-64402301D02*
X81605475Y-64432124D01*
X81605475Y-64432124D02*
X81514630Y-64401613D01*
X81514630Y-64401613D02*
X81466226Y-64365138D01*
X81466226Y-64365138D02*
X81411856Y-64286222D01*
X81411856Y-64286222D02*
X81399927Y-64201342D01*
X81399927Y-64201342D02*
X81430438Y-64110497D01*
X81430438Y-64110497D02*
X81466914Y-64062093D01*
X81466914Y-64062093D02*
X81545829Y-64007724D01*
X81545829Y-64007724D02*
X81709625Y-63941425D01*
X81709625Y-63941425D02*
X81788541Y-63887056D01*
X81788541Y-63887056D02*
X81825016Y-63838651D01*
X81825016Y-63838651D02*
X81855527Y-63747807D01*
X81855527Y-63747807D02*
X81843598Y-63662927D01*
X81843598Y-63662927D02*
X81789229Y-63584011D01*
X81789229Y-63584011D02*
X81740824Y-63547536D01*
X81740824Y-63547536D02*
X81649979Y-63517025D01*
X81649979Y-63517025D02*
X81437779Y-63546847D01*
X81437779Y-63546847D02*
X81316424Y-63607181D01*
X81013378Y-63606493D02*
X80926434Y-64527557D01*
X80926434Y-64527557D02*
X80667205Y-63914815D01*
X80667205Y-63914815D02*
X80586913Y-64575274D01*
X80586913Y-64575274D02*
X80249457Y-63713855D01*
X79569729Y-64112333D02*
X79653233Y-64706494D01*
X79734212Y-63742990D02*
X80035881Y-64349768D01*
X80035881Y-64349768D02*
X79484160Y-64427307D01*
X69707229Y-113393542D02*
X69594130Y-113468216D01*
X69594130Y-113468216D02*
X69387146Y-113523677D01*
X69387146Y-113523677D02*
X69293260Y-113504465D01*
X69293260Y-113504465D02*
X69240771Y-113474160D01*
X69240771Y-113474160D02*
X69177190Y-113402459D01*
X69177190Y-113402459D02*
X69155005Y-113319665D01*
X69155005Y-113319665D02*
X69174218Y-113225779D01*
X69174218Y-113225779D02*
X69204522Y-113173290D01*
X69204522Y-113173290D02*
X69276224Y-113109709D01*
X69276224Y-113109709D02*
X69430719Y-113023943D01*
X69430719Y-113023943D02*
X69502420Y-112960362D01*
X69502420Y-112960362D02*
X69532725Y-112907873D01*
X69532725Y-112907873D02*
X69551937Y-112813987D01*
X69551937Y-112813987D02*
X69529753Y-112731193D01*
X69529753Y-112731193D02*
X69466171Y-112659492D01*
X69466171Y-112659492D02*
X69413682Y-112629187D01*
X69413682Y-112629187D02*
X69319796Y-112609975D01*
X69319796Y-112609975D02*
X69112812Y-112665436D01*
X69112812Y-112665436D02*
X68999714Y-112740110D01*
X68698844Y-112776359D02*
X68724797Y-113701153D01*
X68724797Y-113701153D02*
X68392826Y-113124570D01*
X68392826Y-113124570D02*
X68393622Y-113789891D01*
X68393622Y-113789891D02*
X67953701Y-112976019D01*
X67400099Y-114056105D02*
X67896861Y-113922998D01*
X67648480Y-113989551D02*
X67415543Y-113120218D01*
X67415543Y-113120218D02*
X67531613Y-113222224D01*
X67531613Y-113222224D02*
X67636591Y-113282833D01*
X67636591Y-113282833D02*
X67730477Y-113302046D01*
X66499665Y-113676210D02*
X66654956Y-114255765D01*
X66617911Y-113289574D02*
X66991279Y-113855065D01*
X66991279Y-113855065D02*
X66453120Y-113999264D01*
X84304974Y-81176525D02*
X84183618Y-81236858D01*
X84183618Y-81236858D02*
X83971418Y-81266681D01*
X83971418Y-81266681D02*
X83880573Y-81236170D01*
X83880573Y-81236170D02*
X83832169Y-81199695D01*
X83832169Y-81199695D02*
X83777799Y-81120779D01*
X83777799Y-81120779D02*
X83765870Y-81035899D01*
X83765870Y-81035899D02*
X83796381Y-80945054D01*
X83796381Y-80945054D02*
X83832857Y-80896650D01*
X83832857Y-80896650D02*
X83911772Y-80842281D01*
X83911772Y-80842281D02*
X84075568Y-80775982D01*
X84075568Y-80775982D02*
X84154484Y-80721613D01*
X84154484Y-80721613D02*
X84190959Y-80673208D01*
X84190959Y-80673208D02*
X84221470Y-80582364D01*
X84221470Y-80582364D02*
X84209541Y-80497484D01*
X84209541Y-80497484D02*
X84155172Y-80418568D01*
X84155172Y-80418568D02*
X84106767Y-80382093D01*
X84106767Y-80382093D02*
X84015922Y-80351582D01*
X84015922Y-80351582D02*
X83803722Y-80381404D01*
X83803722Y-80381404D02*
X83682367Y-80441738D01*
X83379321Y-80441050D02*
X83292377Y-81362114D01*
X83292377Y-81362114D02*
X83033148Y-80749372D01*
X83033148Y-80749372D02*
X82952856Y-81409831D01*
X82952856Y-81409831D02*
X82615400Y-80548412D01*
X82358696Y-81493334D02*
X82188936Y-81517193D01*
X82188936Y-81517193D02*
X82098091Y-81486682D01*
X82098091Y-81486682D02*
X82049686Y-81450206D01*
X82049686Y-81450206D02*
X81946913Y-81334815D01*
X81946913Y-81334815D02*
X81880614Y-81171020D01*
X81880614Y-81171020D02*
X81832898Y-80831499D01*
X81832898Y-80831499D02*
X81863409Y-80740654D01*
X81863409Y-80740654D02*
X81899884Y-80692250D01*
X81899884Y-80692250D02*
X81978800Y-80637881D01*
X81978800Y-80637881D02*
X82148560Y-80614022D01*
X82148560Y-80614022D02*
X82239405Y-80644533D01*
X82239405Y-80644533D02*
X82287809Y-80681009D01*
X82287809Y-80681009D02*
X82342179Y-80759924D01*
X82342179Y-80759924D02*
X82372001Y-80972125D01*
X82372001Y-80972125D02*
X82341490Y-81062969D01*
X82341490Y-81062969D02*
X82305015Y-81111374D01*
X82305015Y-81111374D02*
X82226099Y-81165743D01*
X82226099Y-81165743D02*
X82056339Y-81189601D01*
X82056339Y-81189601D02*
X81965494Y-81159090D01*
X81965494Y-81159090D02*
X81917090Y-81122615D01*
X81917090Y-81122615D02*
X81862721Y-81043699D01*
X126349872Y-65194998D02*
X126219233Y-65231068D01*
X126219233Y-65231068D02*
X126005241Y-65219853D01*
X126005241Y-65219853D02*
X125921887Y-65172569D01*
X125921887Y-65172569D02*
X125881332Y-65127527D01*
X125881332Y-65127527D02*
X125843020Y-65039687D01*
X125843020Y-65039687D02*
X125847506Y-64954091D01*
X125847506Y-64954091D02*
X125894790Y-64870737D01*
X125894790Y-64870737D02*
X125939831Y-64830181D01*
X125939831Y-64830181D02*
X126027671Y-64791869D01*
X126027671Y-64791869D02*
X126201108Y-64758042D01*
X126201108Y-64758042D02*
X126288947Y-64719730D01*
X126288947Y-64719730D02*
X126333989Y-64679174D01*
X126333989Y-64679174D02*
X126381273Y-64595821D01*
X126381273Y-64595821D02*
X126385759Y-64510224D01*
X126385759Y-64510224D02*
X126347447Y-64422384D01*
X126347447Y-64422384D02*
X126306891Y-64377343D01*
X126306891Y-64377343D02*
X126223537Y-64330058D01*
X126223537Y-64330058D02*
X126009545Y-64318843D01*
X126009545Y-64318843D02*
X125878907Y-64354913D01*
X125581561Y-64296414D02*
X125320467Y-65183965D01*
X125320467Y-65183965D02*
X125182918Y-64533017D01*
X125182918Y-64533017D02*
X124978079Y-65166022D01*
X124978079Y-65166022D02*
X124811190Y-64256040D01*
X124507115Y-64325936D02*
X124466560Y-64280895D01*
X124466560Y-64280895D02*
X124383206Y-64233611D01*
X124383206Y-64233611D02*
X124169214Y-64222396D01*
X124169214Y-64222396D02*
X124081374Y-64260708D01*
X124081374Y-64260708D02*
X124036333Y-64301264D01*
X124036333Y-64301264D02*
X123989048Y-64384617D01*
X123989048Y-64384617D02*
X123984563Y-64470214D01*
X123984563Y-64470214D02*
X124020632Y-64600852D01*
X124020632Y-64600852D02*
X124507297Y-65141349D01*
X124507297Y-65141349D02*
X123950918Y-65112190D01*
X86670917Y-98011082D02*
X86549561Y-98071415D01*
X86549561Y-98071415D02*
X86337361Y-98101238D01*
X86337361Y-98101238D02*
X86246516Y-98070727D01*
X86246516Y-98070727D02*
X86198112Y-98034252D01*
X86198112Y-98034252D02*
X86143742Y-97955336D01*
X86143742Y-97955336D02*
X86131813Y-97870456D01*
X86131813Y-97870456D02*
X86162324Y-97779611D01*
X86162324Y-97779611D02*
X86198800Y-97731207D01*
X86198800Y-97731207D02*
X86277715Y-97676838D01*
X86277715Y-97676838D02*
X86441511Y-97610539D01*
X86441511Y-97610539D02*
X86520427Y-97556170D01*
X86520427Y-97556170D02*
X86556902Y-97507765D01*
X86556902Y-97507765D02*
X86587413Y-97416921D01*
X86587413Y-97416921D02*
X86575484Y-97332041D01*
X86575484Y-97332041D02*
X86521115Y-97253125D01*
X86521115Y-97253125D02*
X86472710Y-97216650D01*
X86472710Y-97216650D02*
X86381865Y-97186139D01*
X86381865Y-97186139D02*
X86169665Y-97215961D01*
X86169665Y-97215961D02*
X86048310Y-97276295D01*
X85745264Y-97275607D02*
X85658320Y-98196671D01*
X85658320Y-98196671D02*
X85399091Y-97583929D01*
X85399091Y-97583929D02*
X85318799Y-98244388D01*
X85318799Y-98244388D02*
X84981343Y-97382969D01*
X84300238Y-98387537D02*
X84809519Y-98315962D01*
X84554879Y-98351750D02*
X84429623Y-97460508D01*
X84429623Y-97460508D02*
X84532397Y-97575900D01*
X84532397Y-97575900D02*
X84629206Y-97648851D01*
X84629206Y-97648851D02*
X84720051Y-97679361D01*
X83877902Y-97538048D02*
X83326181Y-97615587D01*
X83326181Y-97615587D02*
X83670978Y-97913356D01*
X83670978Y-97913356D02*
X83543658Y-97931249D01*
X83543658Y-97931249D02*
X83464742Y-97985618D01*
X83464742Y-97985618D02*
X83428267Y-98034023D01*
X83428267Y-98034023D02*
X83397756Y-98124868D01*
X83397756Y-98124868D02*
X83427579Y-98337068D01*
X83427579Y-98337068D02*
X83481948Y-98415984D01*
X83481948Y-98415984D02*
X83530353Y-98452459D01*
X83530353Y-98452459D02*
X83621197Y-98482970D01*
X83621197Y-98482970D02*
X83875838Y-98447183D01*
X83875838Y-98447183D02*
X83954753Y-98392814D01*
X83954753Y-98392814D02*
X83991229Y-98344409D01*
D13*
X136901201Y-107925727D02*
X137187440Y-107559253D01*
X137357717Y-107949652D02*
X137399586Y-107150748D01*
X137399586Y-107150748D02*
X137095242Y-107134798D01*
X137095242Y-107134798D02*
X137017162Y-107168854D01*
X137017162Y-107168854D02*
X136977125Y-107204903D01*
X136977125Y-107204903D02*
X136935095Y-107278996D01*
X136935095Y-107278996D02*
X136929113Y-107393125D01*
X136929113Y-107393125D02*
X136963169Y-107471204D01*
X136963169Y-107471204D02*
X136999218Y-107511241D01*
X136999218Y-107511241D02*
X137073311Y-107553272D01*
X137073311Y-107553272D02*
X137377655Y-107569222D01*
X136580745Y-107489310D02*
X136314444Y-107475354D01*
X136178383Y-107887846D02*
X136558814Y-107907783D01*
X136558814Y-107907783D02*
X136600682Y-107108880D01*
X136600682Y-107108880D02*
X136220252Y-107088942D01*
X135876032Y-107833853D02*
X135759910Y-107865915D01*
X135759910Y-107865915D02*
X135569694Y-107855946D01*
X135569694Y-107855946D02*
X135495602Y-107813915D01*
X135495602Y-107813915D02*
X135459553Y-107773878D01*
X135459553Y-107773878D02*
X135425497Y-107695799D01*
X135425497Y-107695799D02*
X135429485Y-107619713D01*
X135429485Y-107619713D02*
X135471515Y-107545620D01*
X135471515Y-107545620D02*
X135511552Y-107509571D01*
X135511552Y-107509571D02*
X135589632Y-107475515D01*
X135589632Y-107475515D02*
X135743798Y-107445447D01*
X135743798Y-107445447D02*
X135821878Y-107411392D01*
X135821878Y-107411392D02*
X135861914Y-107375343D01*
X135861914Y-107375343D02*
X135903945Y-107301250D01*
X135903945Y-107301250D02*
X135907932Y-107225164D01*
X135907932Y-107225164D02*
X135873877Y-107147084D01*
X135873877Y-107147084D02*
X135837828Y-107107048D01*
X135837828Y-107107048D02*
X135763735Y-107065017D01*
X135763735Y-107065017D02*
X135573520Y-107055048D01*
X135573520Y-107055048D02*
X135457397Y-107087110D01*
X135097066Y-107411554D02*
X134830765Y-107397597D01*
X134694705Y-107810089D02*
X135075135Y-107830027D01*
X135075135Y-107830027D02*
X135117004Y-107031123D01*
X135117004Y-107031123D02*
X134736573Y-107011186D01*
X134508315Y-106999223D02*
X134051798Y-106975298D01*
X134238188Y-107786164D02*
X134280056Y-106987261D01*
D10*
X175106817Y-133348325D02*
X175091322Y-133482962D01*
X175091322Y-133482962D02*
X175000761Y-133677171D01*
X175000761Y-133677171D02*
X174925695Y-133736742D01*
X174925695Y-133736742D02*
X174868741Y-133757472D01*
X174868741Y-133757472D02*
X174772945Y-133760089D01*
X174772945Y-133760089D02*
X174695262Y-133723865D01*
X174695262Y-133723865D02*
X174635690Y-133648798D01*
X174635690Y-133648798D02*
X174614961Y-133591845D01*
X174614961Y-133591845D02*
X174612343Y-133496049D01*
X174612343Y-133496049D02*
X174645950Y-133322570D01*
X174645950Y-133322570D02*
X174643333Y-133226774D01*
X174643333Y-133226774D02*
X174622604Y-133169820D01*
X174622604Y-133169820D02*
X174563032Y-133094754D01*
X174563032Y-133094754D02*
X174485349Y-133058529D01*
X174485349Y-133058529D02*
X174389553Y-133061147D01*
X174389553Y-133061147D02*
X174332599Y-133081876D01*
X174332599Y-133081876D02*
X174257533Y-133141447D01*
X174257533Y-133141447D02*
X174166972Y-133335656D01*
X174166972Y-133335656D02*
X174151477Y-133470294D01*
X173985850Y-133724074D02*
X174710966Y-134298639D01*
X174710966Y-134298639D02*
X174055890Y-134182323D01*
X174055890Y-134182323D02*
X174566068Y-134609373D01*
X174566068Y-134609373D02*
X173659830Y-134423226D01*
X174131375Y-135541575D02*
X174348722Y-135075474D01*
X174240048Y-135308525D02*
X173424371Y-134928168D01*
X173424371Y-134928168D02*
X173577121Y-134904821D01*
X173577121Y-134904821D02*
X173691029Y-134863362D01*
X173691029Y-134863362D02*
X173766095Y-134803791D01*
X172971566Y-135899212D02*
X173152688Y-135510795D01*
X173152688Y-135510795D02*
X173559218Y-135653075D01*
X173559218Y-135653075D02*
X173502264Y-135673805D01*
X173502264Y-135673805D02*
X173427198Y-135733376D01*
X173427198Y-135733376D02*
X173336637Y-135927585D01*
X173336637Y-135927585D02*
X173339254Y-136023381D01*
X173339254Y-136023381D02*
X173359984Y-136080335D01*
X173359984Y-136080335D02*
X173419555Y-136155401D01*
X173419555Y-136155401D02*
X173613764Y-136245962D01*
X173613764Y-136245962D02*
X173709559Y-136243344D01*
X173709559Y-136243344D02*
X173766513Y-136222615D01*
X173766513Y-136222615D02*
X173841580Y-136163044D01*
X173841580Y-136163044D02*
X173932141Y-135968835D01*
X173932141Y-135968835D02*
X173929523Y-135873039D01*
X173929523Y-135873039D02*
X173908794Y-135816085D01*
X60907381Y-80552064D02*
X60794282Y-80626738D01*
X60794282Y-80626738D02*
X60587298Y-80682199D01*
X60587298Y-80682199D02*
X60493412Y-80662987D01*
X60493412Y-80662987D02*
X60440923Y-80632682D01*
X60440923Y-80632682D02*
X60377342Y-80560981D01*
X60377342Y-80560981D02*
X60355157Y-80478187D01*
X60355157Y-80478187D02*
X60374370Y-80384301D01*
X60374370Y-80384301D02*
X60404674Y-80331812D01*
X60404674Y-80331812D02*
X60476376Y-80268231D01*
X60476376Y-80268231D02*
X60630871Y-80182465D01*
X60630871Y-80182465D02*
X60702572Y-80118884D01*
X60702572Y-80118884D02*
X60732877Y-80066395D01*
X60732877Y-80066395D02*
X60752089Y-79972509D01*
X60752089Y-79972509D02*
X60729905Y-79889715D01*
X60729905Y-79889715D02*
X60666323Y-79818014D01*
X60666323Y-79818014D02*
X60613834Y-79787709D01*
X60613834Y-79787709D02*
X60519948Y-79768497D01*
X60519948Y-79768497D02*
X60312964Y-79823958D01*
X60312964Y-79823958D02*
X60199866Y-79898632D01*
X59898996Y-79934881D02*
X59924949Y-80859675D01*
X59924949Y-80859675D02*
X59592978Y-80283092D01*
X59592978Y-80283092D02*
X59593774Y-80948413D01*
X59593774Y-80948413D02*
X59153853Y-80134541D01*
X58408711Y-80334201D02*
X58822679Y-80223279D01*
X58822679Y-80223279D02*
X58974998Y-80626155D01*
X58974998Y-80626155D02*
X58922509Y-80595850D01*
X58922509Y-80595850D02*
X58828623Y-80576638D01*
X58828623Y-80576638D02*
X58621639Y-80632099D01*
X58621639Y-80632099D02*
X58549938Y-80695680D01*
X58549938Y-80695680D02*
X58519633Y-80748170D01*
X58519633Y-80748170D02*
X58500421Y-80842055D01*
X58500421Y-80842055D02*
X58555882Y-81049040D01*
X58555882Y-81049040D02*
X58619463Y-81120741D01*
X58619463Y-81120741D02*
X58671952Y-81151045D01*
X58671952Y-81151045D02*
X58765838Y-81170258D01*
X58765838Y-81170258D02*
X58972822Y-81114797D01*
X58972822Y-81114797D02*
X59044524Y-81051215D01*
X59044524Y-81051215D02*
X59074828Y-80998726D01*
X125756670Y-82182054D02*
X125626031Y-82218124D01*
X125626031Y-82218124D02*
X125412039Y-82206909D01*
X125412039Y-82206909D02*
X125328685Y-82159625D01*
X125328685Y-82159625D02*
X125288130Y-82114583D01*
X125288130Y-82114583D02*
X125249818Y-82026743D01*
X125249818Y-82026743D02*
X125254304Y-81941147D01*
X125254304Y-81941147D02*
X125301588Y-81857793D01*
X125301588Y-81857793D02*
X125346629Y-81817237D01*
X125346629Y-81817237D02*
X125434469Y-81778925D01*
X125434469Y-81778925D02*
X125607906Y-81745098D01*
X125607906Y-81745098D02*
X125695745Y-81706786D01*
X125695745Y-81706786D02*
X125740787Y-81666230D01*
X125740787Y-81666230D02*
X125788071Y-81582877D01*
X125788071Y-81582877D02*
X125792557Y-81497280D01*
X125792557Y-81497280D02*
X125754245Y-81409440D01*
X125754245Y-81409440D02*
X125713689Y-81364399D01*
X125713689Y-81364399D02*
X125630335Y-81317114D01*
X125630335Y-81317114D02*
X125416343Y-81305899D01*
X125416343Y-81305899D02*
X125285705Y-81341969D01*
X124988359Y-81283470D02*
X124727265Y-82171021D01*
X124727265Y-82171021D02*
X124589716Y-81520073D01*
X124589716Y-81520073D02*
X124384877Y-82153078D01*
X124384877Y-82153078D02*
X124217988Y-81243096D01*
X123961198Y-81229638D02*
X123362020Y-81198237D01*
X123362020Y-81198237D02*
X123700103Y-82117190D01*
X106473308Y-75465180D02*
X106344737Y-75508037D01*
X106344737Y-75508037D02*
X106130451Y-75508037D01*
X106130451Y-75508037D02*
X106044737Y-75465180D01*
X106044737Y-75465180D02*
X106001879Y-75422322D01*
X106001879Y-75422322D02*
X105959022Y-75336608D01*
X105959022Y-75336608D02*
X105959022Y-75250894D01*
X105959022Y-75250894D02*
X106001879Y-75165180D01*
X106001879Y-75165180D02*
X106044737Y-75122322D01*
X106044737Y-75122322D02*
X106130451Y-75079465D01*
X106130451Y-75079465D02*
X106301879Y-75036608D01*
X106301879Y-75036608D02*
X106387594Y-74993751D01*
X106387594Y-74993751D02*
X106430451Y-74950894D01*
X106430451Y-74950894D02*
X106473308Y-74865180D01*
X106473308Y-74865180D02*
X106473308Y-74779465D01*
X106473308Y-74779465D02*
X106430451Y-74693751D01*
X106430451Y-74693751D02*
X106387594Y-74650894D01*
X106387594Y-74650894D02*
X106301879Y-74608037D01*
X106301879Y-74608037D02*
X106087594Y-74608037D01*
X106087594Y-74608037D02*
X105959022Y-74650894D01*
X105659022Y-74608037D02*
X105444736Y-75508037D01*
X105444736Y-75508037D02*
X105273308Y-74865180D01*
X105273308Y-74865180D02*
X105101879Y-75508037D01*
X105101879Y-75508037D02*
X104887594Y-74608037D01*
X104416165Y-74993751D02*
X104501880Y-74950894D01*
X104501880Y-74950894D02*
X104544737Y-74908037D01*
X104544737Y-74908037D02*
X104587594Y-74822322D01*
X104587594Y-74822322D02*
X104587594Y-74779465D01*
X104587594Y-74779465D02*
X104544737Y-74693751D01*
X104544737Y-74693751D02*
X104501880Y-74650894D01*
X104501880Y-74650894D02*
X104416165Y-74608037D01*
X104416165Y-74608037D02*
X104244737Y-74608037D01*
X104244737Y-74608037D02*
X104159023Y-74650894D01*
X104159023Y-74650894D02*
X104116165Y-74693751D01*
X104116165Y-74693751D02*
X104073308Y-74779465D01*
X104073308Y-74779465D02*
X104073308Y-74822322D01*
X104073308Y-74822322D02*
X104116165Y-74908037D01*
X104116165Y-74908037D02*
X104159023Y-74950894D01*
X104159023Y-74950894D02*
X104244737Y-74993751D01*
X104244737Y-74993751D02*
X104416165Y-74993751D01*
X104416165Y-74993751D02*
X104501880Y-75036608D01*
X104501880Y-75036608D02*
X104544737Y-75079465D01*
X104544737Y-75079465D02*
X104587594Y-75165180D01*
X104587594Y-75165180D02*
X104587594Y-75336608D01*
X104587594Y-75336608D02*
X104544737Y-75422322D01*
X104544737Y-75422322D02*
X104501880Y-75465180D01*
X104501880Y-75465180D02*
X104416165Y-75508037D01*
X104416165Y-75508037D02*
X104244737Y-75508037D01*
X104244737Y-75508037D02*
X104159023Y-75465180D01*
X104159023Y-75465180D02*
X104116165Y-75422322D01*
X104116165Y-75422322D02*
X104073308Y-75336608D01*
X104073308Y-75336608D02*
X104073308Y-75165180D01*
X104073308Y-75165180D02*
X104116165Y-75079465D01*
X104116165Y-75079465D02*
X104159023Y-75036608D01*
X104159023Y-75036608D02*
X104244737Y-74993751D01*
X144164409Y-70820143D02*
X144033770Y-70856213D01*
X144033770Y-70856213D02*
X143819778Y-70844998D01*
X143819778Y-70844998D02*
X143736424Y-70797714D01*
X143736424Y-70797714D02*
X143695869Y-70752672D01*
X143695869Y-70752672D02*
X143657557Y-70664832D01*
X143657557Y-70664832D02*
X143662043Y-70579236D01*
X143662043Y-70579236D02*
X143709327Y-70495882D01*
X143709327Y-70495882D02*
X143754368Y-70455326D01*
X143754368Y-70455326D02*
X143842208Y-70417014D01*
X143842208Y-70417014D02*
X144015645Y-70383187D01*
X144015645Y-70383187D02*
X144103484Y-70344875D01*
X144103484Y-70344875D02*
X144148526Y-70304319D01*
X144148526Y-70304319D02*
X144195810Y-70220966D01*
X144195810Y-70220966D02*
X144200296Y-70135369D01*
X144200296Y-70135369D02*
X144161984Y-70047529D01*
X144161984Y-70047529D02*
X144121428Y-70002488D01*
X144121428Y-70002488D02*
X144038074Y-69955203D01*
X144038074Y-69955203D02*
X143824082Y-69943988D01*
X143824082Y-69943988D02*
X143693444Y-69980058D01*
X143396098Y-69921559D02*
X143135004Y-70809110D01*
X143135004Y-70809110D02*
X142997455Y-70158162D01*
X142997455Y-70158162D02*
X142792616Y-70791167D01*
X142792616Y-70791167D02*
X142625727Y-69881185D01*
X141765455Y-70737335D02*
X142279036Y-70764251D01*
X142022245Y-70750793D02*
X142069348Y-69852027D01*
X142069348Y-69852027D02*
X142148216Y-69984908D01*
X142148216Y-69984908D02*
X142229327Y-70074991D01*
X142229327Y-70074991D02*
X142312680Y-70122275D01*
X106473308Y-58465180D02*
X106344737Y-58508037D01*
X106344737Y-58508037D02*
X106130451Y-58508037D01*
X106130451Y-58508037D02*
X106044737Y-58465180D01*
X106044737Y-58465180D02*
X106001879Y-58422322D01*
X106001879Y-58422322D02*
X105959022Y-58336608D01*
X105959022Y-58336608D02*
X105959022Y-58250894D01*
X105959022Y-58250894D02*
X106001879Y-58165180D01*
X106001879Y-58165180D02*
X106044737Y-58122322D01*
X106044737Y-58122322D02*
X106130451Y-58079465D01*
X106130451Y-58079465D02*
X106301879Y-58036608D01*
X106301879Y-58036608D02*
X106387594Y-57993751D01*
X106387594Y-57993751D02*
X106430451Y-57950894D01*
X106430451Y-57950894D02*
X106473308Y-57865180D01*
X106473308Y-57865180D02*
X106473308Y-57779465D01*
X106473308Y-57779465D02*
X106430451Y-57693751D01*
X106430451Y-57693751D02*
X106387594Y-57650894D01*
X106387594Y-57650894D02*
X106301879Y-57608037D01*
X106301879Y-57608037D02*
X106087594Y-57608037D01*
X106087594Y-57608037D02*
X105959022Y-57650894D01*
X105659022Y-57608037D02*
X105444736Y-58508037D01*
X105444736Y-58508037D02*
X105273308Y-57865180D01*
X105273308Y-57865180D02*
X105101879Y-58508037D01*
X105101879Y-58508037D02*
X104887594Y-57608037D01*
X104630451Y-57608037D02*
X104073308Y-57608037D01*
X104073308Y-57608037D02*
X104373308Y-57950894D01*
X104373308Y-57950894D02*
X104244737Y-57950894D01*
X104244737Y-57950894D02*
X104159023Y-57993751D01*
X104159023Y-57993751D02*
X104116165Y-58036608D01*
X104116165Y-58036608D02*
X104073308Y-58122322D01*
X104073308Y-58122322D02*
X104073308Y-58336608D01*
X104073308Y-58336608D02*
X104116165Y-58422322D01*
X104116165Y-58422322D02*
X104159023Y-58465180D01*
X104159023Y-58465180D02*
X104244737Y-58508037D01*
X104244737Y-58508037D02*
X104501880Y-58508037D01*
X104501880Y-58508037D02*
X104587594Y-58465180D01*
X104587594Y-58465180D02*
X104630451Y-58422322D01*
X65307305Y-96972803D02*
X65194206Y-97047477D01*
X65194206Y-97047477D02*
X64987222Y-97102938D01*
X64987222Y-97102938D02*
X64893336Y-97083726D01*
X64893336Y-97083726D02*
X64840847Y-97053421D01*
X64840847Y-97053421D02*
X64777266Y-96981720D01*
X64777266Y-96981720D02*
X64755081Y-96898926D01*
X64755081Y-96898926D02*
X64774294Y-96805040D01*
X64774294Y-96805040D02*
X64804598Y-96752551D01*
X64804598Y-96752551D02*
X64876300Y-96688970D01*
X64876300Y-96688970D02*
X65030795Y-96603204D01*
X65030795Y-96603204D02*
X65102496Y-96539623D01*
X65102496Y-96539623D02*
X65132801Y-96487134D01*
X65132801Y-96487134D02*
X65152013Y-96393248D01*
X65152013Y-96393248D02*
X65129829Y-96310454D01*
X65129829Y-96310454D02*
X65066247Y-96238753D01*
X65066247Y-96238753D02*
X65013758Y-96208448D01*
X65013758Y-96208448D02*
X64919872Y-96189236D01*
X64919872Y-96189236D02*
X64712888Y-96244697D01*
X64712888Y-96244697D02*
X64599790Y-96319371D01*
X64298920Y-96355620D02*
X64324873Y-97280414D01*
X64324873Y-97280414D02*
X63992902Y-96703831D01*
X63992902Y-96703831D02*
X63993698Y-97369152D01*
X63993698Y-97369152D02*
X63553777Y-96555280D01*
X63000175Y-97635366D02*
X63496937Y-97502259D01*
X63248556Y-97568812D02*
X63015619Y-96699479D01*
X63015619Y-96699479D02*
X63131689Y-96801485D01*
X63131689Y-96801485D02*
X63236667Y-96862094D01*
X63236667Y-96862094D02*
X63330553Y-96881307D01*
X62229079Y-96910232D02*
X62146285Y-96932416D01*
X62146285Y-96932416D02*
X62074584Y-96995998D01*
X62074584Y-96995998D02*
X62044279Y-97048487D01*
X62044279Y-97048487D02*
X62025067Y-97142373D01*
X62025067Y-97142373D02*
X62028039Y-97319052D01*
X62028039Y-97319052D02*
X62083501Y-97526036D01*
X62083501Y-97526036D02*
X62169266Y-97680531D01*
X62169266Y-97680531D02*
X62232848Y-97752233D01*
X62232848Y-97752233D02*
X62285337Y-97782537D01*
X62285337Y-97782537D02*
X62379223Y-97801750D01*
X62379223Y-97801750D02*
X62462016Y-97779565D01*
X62462016Y-97779565D02*
X62533718Y-97715984D01*
X62533718Y-97715984D02*
X62564022Y-97663495D01*
X62564022Y-97663495D02*
X62583235Y-97569609D01*
X62583235Y-97569609D02*
X62580262Y-97392929D01*
X62580262Y-97392929D02*
X62524801Y-97185945D01*
X62524801Y-97185945D02*
X62439035Y-97031450D01*
X62439035Y-97031450D02*
X62375454Y-96959749D01*
X62375454Y-96959749D02*
X62322965Y-96929444D01*
X62322965Y-96929444D02*
X62229079Y-96910232D01*
X127491490Y-118037599D02*
X127534347Y-118166171D01*
X127534347Y-118166171D02*
X127534347Y-118380456D01*
X127534347Y-118380456D02*
X127491490Y-118466171D01*
X127491490Y-118466171D02*
X127448632Y-118509028D01*
X127448632Y-118509028D02*
X127362918Y-118551885D01*
X127362918Y-118551885D02*
X127277204Y-118551885D01*
X127277204Y-118551885D02*
X127191490Y-118509028D01*
X127191490Y-118509028D02*
X127148632Y-118466171D01*
X127148632Y-118466171D02*
X127105775Y-118380456D01*
X127105775Y-118380456D02*
X127062918Y-118209028D01*
X127062918Y-118209028D02*
X127020061Y-118123313D01*
X127020061Y-118123313D02*
X126977204Y-118080456D01*
X126977204Y-118080456D02*
X126891490Y-118037599D01*
X126891490Y-118037599D02*
X126805775Y-118037599D01*
X126805775Y-118037599D02*
X126720061Y-118080456D01*
X126720061Y-118080456D02*
X126677204Y-118123313D01*
X126677204Y-118123313D02*
X126634347Y-118209028D01*
X126634347Y-118209028D02*
X126634347Y-118423313D01*
X126634347Y-118423313D02*
X126677204Y-118551885D01*
X126634347Y-118851885D02*
X127534347Y-119066171D01*
X127534347Y-119066171D02*
X126891490Y-119237599D01*
X126891490Y-119237599D02*
X127534347Y-119409028D01*
X127534347Y-119409028D02*
X126634347Y-119623314D01*
X127534347Y-120437599D02*
X127534347Y-119923313D01*
X127534347Y-120180456D02*
X126634347Y-120180456D01*
X126634347Y-120180456D02*
X126762918Y-120094742D01*
X126762918Y-120094742D02*
X126848632Y-120009027D01*
X126848632Y-120009027D02*
X126891490Y-119923313D01*
X126634347Y-120737599D02*
X126634347Y-121337599D01*
X126634347Y-121337599D02*
X127534347Y-120951885D01*
X125519742Y-99196521D02*
X125389104Y-99232590D01*
X125389104Y-99232590D02*
X125175112Y-99221375D01*
X125175112Y-99221375D02*
X125091758Y-99174091D01*
X125091758Y-99174091D02*
X125051202Y-99129050D01*
X125051202Y-99129050D02*
X125012890Y-99041210D01*
X125012890Y-99041210D02*
X125017376Y-98955613D01*
X125017376Y-98955613D02*
X125064660Y-98872259D01*
X125064660Y-98872259D02*
X125109702Y-98831704D01*
X125109702Y-98831704D02*
X125197541Y-98793391D01*
X125197541Y-98793391D02*
X125370978Y-98759565D01*
X125370978Y-98759565D02*
X125458818Y-98721252D01*
X125458818Y-98721252D02*
X125503859Y-98680697D01*
X125503859Y-98680697D02*
X125551143Y-98597343D01*
X125551143Y-98597343D02*
X125555629Y-98511746D01*
X125555629Y-98511746D02*
X125517317Y-98423906D01*
X125517317Y-98423906D02*
X125476761Y-98378865D01*
X125476761Y-98378865D02*
X125393408Y-98331581D01*
X125393408Y-98331581D02*
X125179416Y-98320366D01*
X125179416Y-98320366D02*
X125048777Y-98356435D01*
X124751431Y-98297936D02*
X124490337Y-99185488D01*
X124490337Y-99185488D02*
X124352788Y-98534540D01*
X124352788Y-98534540D02*
X124147950Y-99167544D01*
X124147950Y-99167544D02*
X123981060Y-98257563D01*
X123120788Y-99113713D02*
X123634369Y-99140628D01*
X123377579Y-99127171D02*
X123424681Y-98228404D01*
X123424681Y-98228404D02*
X123503549Y-98361285D01*
X123503549Y-98361285D02*
X123584660Y-98451368D01*
X123584660Y-98451368D02*
X123668014Y-98498652D01*
X122264820Y-99068853D02*
X122778401Y-99095769D01*
X122521610Y-99082311D02*
X122568713Y-98183545D01*
X122568713Y-98183545D02*
X122647581Y-98316426D01*
X122647581Y-98316426D02*
X122728692Y-98406509D01*
X122728692Y-98406509D02*
X122812045Y-98453793D01*
D13*
%TO.C,J2*%
X156074958Y-66356839D02*
X155715836Y-67343516D01*
X156074958Y-66356839D02*
X157061635Y-66715960D01*
X152295635Y-76740442D02*
X151936514Y-77727119D01*
X151936514Y-77727119D02*
X152923191Y-78086240D01*
X160820405Y-68084040D02*
X161807082Y-68443161D01*
X156681962Y-79454321D02*
X157668639Y-79813442D01*
X161807082Y-68443161D02*
X161447961Y-69429839D01*
X158027760Y-78826765D02*
X157668639Y-79813442D01*
D14*
%TO.C,SW12*%
X92999999Y-91425001D02*
X92999998Y-91755000D01*
X92999999Y-104799999D02*
X93000000Y-104470000D01*
X93300000Y-91100000D02*
X93629999Y-91100001D01*
X93325000Y-105100000D02*
X93654999Y-105100001D01*
D13*
X95655000Y-101000000D02*
X94345000Y-101000000D01*
X95655000Y-102800000D02*
X94345000Y-102800000D01*
X100655000Y-103100000D02*
X99345000Y-103100000D01*
X100655000Y-104900000D02*
X99345000Y-104900000D01*
X105655000Y-101000000D02*
X104345000Y-101000000D01*
X105655000Y-102800000D02*
X104345000Y-102800000D01*
D14*
X106674999Y-91099999D02*
X106345000Y-91099998D01*
X106700000Y-105100000D02*
X106370001Y-105099999D01*
X107000000Y-91400000D02*
X106999999Y-91729999D01*
X107000001Y-104774999D02*
X107000002Y-104445000D01*
X93300000Y-91100000D02*
G75*
G03*
X92999998Y-91420002I9997J-309999D01*
G01*
X92999999Y-104799999D02*
G75*
G03*
X93320001Y-105100001I310000J9998D01*
G01*
D13*
X94345000Y-101000000D02*
G75*
G03*
X94345000Y-102800000I790J-900000D01*
G01*
X95655000Y-102800000D02*
G75*
G03*
X95655000Y-101000000I-785J900000D01*
G01*
X99345000Y-103100000D02*
G75*
G03*
X99345000Y-104900000I785J-900000D01*
G01*
X100655000Y-104900000D02*
G75*
G03*
X100655000Y-103100000I-785J900000D01*
G01*
X104345000Y-101000000D02*
G75*
G03*
X104345000Y-102800000I785J-900000D01*
G01*
X105655000Y-102800000D02*
G75*
G03*
X105655000Y-101000000I-790J900000D01*
G01*
D14*
X107000002Y-91400000D02*
G75*
G03*
X106679998Y-91099998I-310002J-10000D01*
G01*
X106700000Y-105100002D02*
G75*
G03*
X107000002Y-104779998I-10000J310002D01*
G01*
D15*
%TO.C,U1*%
X165491561Y-73761263D02*
X166431253Y-74103283D01*
X165483010Y-73784755D02*
X165140990Y-74724448D01*
X154538365Y-103854919D02*
X154196345Y-104794612D01*
X154187795Y-104818104D02*
X155127487Y-105160124D01*
X182218089Y-79849222D02*
X181325381Y-79524303D01*
X182209539Y-79872714D02*
X181867519Y-80812407D01*
X171264894Y-109942878D02*
X170922874Y-110882571D01*
X170914323Y-110906063D02*
X169965234Y-110560622D01*
D14*
%TO.C,SW6*%
X130831113Y-86034791D02*
X130813841Y-86364338D01*
X130131119Y-99391459D02*
X130148391Y-99061912D01*
X131147712Y-85725936D02*
X131477259Y-85743208D01*
X130439974Y-99708058D02*
X130769521Y-99725330D01*
D13*
X132981358Y-95735620D02*
X131673154Y-95667060D01*
X132887154Y-97533153D02*
X131578949Y-97464593D01*
X137864601Y-98094422D02*
X136556396Y-98025862D01*
X137770396Y-99891955D02*
X136462191Y-99823395D01*
X142967654Y-96258979D02*
X141659449Y-96190419D01*
X142873449Y-98056513D02*
X141565244Y-97987953D01*
D14*
X144504381Y-86425929D02*
X144174834Y-86408657D01*
X143796644Y-100408052D02*
X143467097Y-100390780D01*
X144813236Y-86742528D02*
X144795964Y-87072075D01*
X144113243Y-100099197D02*
X144130515Y-99769650D01*
X131147712Y-85725937D02*
G75*
G03*
X130831374Y-86029799I-6241J-310097D01*
G01*
X130131120Y-99391459D02*
G75*
G03*
X130434982Y-99707797I310098J-6240D01*
G01*
D13*
X131673154Y-95667060D02*
G75*
G03*
X131578949Y-97464593I-46314J-898808D01*
G01*
X132887154Y-97533151D02*
G75*
G03*
X132981358Y-95735621I46318J898806D01*
G01*
X136556396Y-98025862D02*
G75*
G03*
X136462191Y-99823394I-46319J-898807D01*
G01*
X137770396Y-99891953D02*
G75*
G03*
X137864601Y-98094423I46318J898806D01*
G01*
X141659449Y-96190420D02*
G75*
G03*
X141565244Y-97987952I-46318J-898807D01*
G01*
X142873449Y-98056514D02*
G75*
G03*
X142967654Y-96258979I46313J898809D01*
G01*
D14*
X144813237Y-86742528D02*
G75*
G03*
X144509373Y-86426190I-310100J6238D01*
G01*
X143796644Y-100408053D02*
G75*
G03*
X144112982Y-100104189I6238J310100D01*
G01*
%TO.C,SW16*%
X144008088Y-129644444D02*
X144333073Y-129701749D01*
X157179890Y-131966988D02*
X156854904Y-131909683D01*
X143740119Y-129292565D02*
X143797424Y-128967579D01*
X157531769Y-131699019D02*
X157589073Y-131374034D01*
D13*
X153898657Y-128692459D02*
X153671178Y-129982558D01*
X155671311Y-129005026D02*
X155443832Y-130295124D01*
X156834994Y-124133082D02*
X156607515Y-125423180D01*
X158607648Y-124445649D02*
X158380169Y-125735747D01*
X155635139Y-118844382D02*
X155407660Y-120134480D01*
X157407793Y-119156949D02*
X157180314Y-120447047D01*
D14*
X146062662Y-116120762D02*
X146005357Y-116445747D01*
X159854313Y-118527215D02*
X159797008Y-118852201D01*
X146414541Y-115852793D02*
X146739527Y-115910098D01*
X159586344Y-118175336D02*
X159261359Y-118118031D01*
X143740119Y-129292565D02*
G75*
G03*
X144003165Y-129643576I307025J-43985D01*
G01*
X157179890Y-131966988D02*
G75*
G03*
X157530902Y-131703942I43984J307027D01*
G01*
D13*
X153671178Y-129982558D02*
G75*
G03*
X155443832Y-130295124I886464J-155505D01*
G01*
X155671311Y-129005026D02*
G75*
G03*
X153898658Y-128692459I-886463J155510D01*
G01*
X156607517Y-125423180D02*
G75*
G03*
X158380168Y-125735747I886462J-155510D01*
G01*
X158607648Y-124445649D02*
G75*
G03*
X156834995Y-124133082I-886463J155511D01*
G01*
X155407660Y-120134480D02*
G75*
G03*
X157180313Y-120447047I886463J-155510D01*
G01*
X157407793Y-119156949D02*
G75*
G03*
X155635139Y-118844382I-886464J155506D01*
G01*
D14*
X146414541Y-115852791D02*
G75*
G03*
X146063529Y-116115839I-43983J-307029D01*
G01*
X159854315Y-118527215D02*
G75*
G03*
X159591267Y-118176203I-307029J43983D01*
G01*
%TO.C,SW4*%
X68452078Y-65187034D02*
X68498004Y-65513822D01*
X70313518Y-78431868D02*
X70267592Y-78105080D01*
X68703928Y-64823444D02*
X69030716Y-64777518D01*
X70677108Y-78683718D02*
X71003896Y-78637792D01*
D13*
X72413823Y-74299346D02*
X71116572Y-74481662D01*
X72664335Y-76081828D02*
X71367084Y-76264145D01*
X77657427Y-75683043D02*
X76360176Y-75865360D01*
X77907939Y-77465525D02*
X76610688Y-77647842D01*
X82316504Y-72907615D02*
X81019253Y-73089931D01*
X82567016Y-74690097D02*
X81269764Y-74872414D01*
D14*
X81948763Y-62962003D02*
X81621975Y-63007929D01*
X83921944Y-76822278D02*
X83595156Y-76868204D01*
X82312353Y-63213853D02*
X82358279Y-63540641D01*
X84173794Y-76458688D02*
X84127868Y-76131900D01*
X68703928Y-64823445D02*
G75*
G03*
X68451382Y-65182084I53043J-305590D01*
G01*
X70313518Y-78431868D02*
G75*
G03*
X70672158Y-78684415I305592J53044D01*
G01*
D13*
X71116572Y-74481663D02*
G75*
G03*
X71367084Y-76264145I126038J-891131D01*
G01*
X72664335Y-76081827D02*
G75*
G03*
X72413823Y-74299347I-126033J891131D01*
G01*
X76360176Y-75865361D02*
G75*
G03*
X76610688Y-77647841I126033J-891131D01*
G01*
X77907939Y-77465524D02*
G75*
G03*
X77657427Y-75683044I-126033J891131D01*
G01*
X81019253Y-73089931D02*
G75*
G03*
X81269764Y-74872413I126033J-891132D01*
G01*
X82567016Y-74690097D02*
G75*
G03*
X82316504Y-72907615I-126039J891131D01*
G01*
D14*
X82312354Y-63213853D02*
G75*
G03*
X81953713Y-62961307I-305593J-53047D01*
G01*
X83921944Y-76822279D02*
G75*
G03*
X84174490Y-76463638I-53047J305593D01*
G01*
%TO.C,SW14*%
X56423793Y-115875957D02*
X56509202Y-116194711D01*
X59885498Y-128795213D02*
X59800089Y-128476458D01*
X56629456Y-115484384D02*
X56948210Y-115398975D01*
X60277070Y-129000875D02*
X60595825Y-128915466D01*
D13*
X61466520Y-124437531D02*
X60201157Y-124776584D01*
X61932394Y-126176197D02*
X60667031Y-126515250D01*
X66839669Y-125171880D02*
X65574306Y-125510933D01*
X67305543Y-126910546D02*
X66040180Y-127249599D01*
X71125778Y-121849340D02*
X69860415Y-122188393D01*
X71591652Y-123588007D02*
X70326289Y-123927060D01*
D14*
X69548712Y-112022678D02*
X69229958Y-112108087D01*
X73196328Y-125539170D02*
X72877574Y-125624579D01*
X69940285Y-112228341D02*
X70025694Y-112547095D01*
X73401991Y-125147597D02*
X73316582Y-124828843D01*
X56629456Y-115484384D02*
G75*
G03*
X56422499Y-115871128I89890J-296848D01*
G01*
X59885498Y-128795213D02*
G75*
G03*
X60272242Y-129002169I296849J89892D01*
G01*
D13*
X60201157Y-124776584D02*
G75*
G03*
X60667031Y-126515249I233700J-869128D01*
G01*
X61932394Y-126176196D02*
G75*
G03*
X61466520Y-124437532I-233696J869129D01*
G01*
X65574306Y-125510934D02*
G75*
G03*
X66040180Y-127249598I233695J-869129D01*
G01*
X67305543Y-126910545D02*
G75*
G03*
X66839669Y-125171881I-233695J869129D01*
G01*
X69860415Y-122188393D02*
G75*
G03*
X70326289Y-123927059I233695J-869130D01*
G01*
X71591652Y-123588007D02*
G75*
G03*
X71125778Y-121849341I-233700J869129D01*
G01*
D14*
X69940286Y-112228341D02*
G75*
G03*
X69553541Y-112021385I-296850J-89893D01*
G01*
X73196328Y-125539171D02*
G75*
G03*
X73403284Y-125152426I-89893J296850D01*
G01*
%TO.C,SW9*%
X70818021Y-82021591D02*
X70863947Y-82348379D01*
X72679461Y-95266425D02*
X72633535Y-94939637D01*
X71069871Y-81658001D02*
X71396659Y-81612075D01*
X73043051Y-95518275D02*
X73369839Y-95472349D01*
D13*
X74779766Y-91133903D02*
X73482515Y-91316219D01*
X75030278Y-92916385D02*
X73733027Y-93098702D01*
X80023370Y-92517600D02*
X78726119Y-92699917D01*
X80273882Y-94300082D02*
X78976631Y-94482399D01*
X84682447Y-89742172D02*
X83385196Y-89924488D01*
X84932959Y-91524654D02*
X83635707Y-91706971D01*
D14*
X84314706Y-79796560D02*
X83987918Y-79842486D01*
X86287887Y-93656835D02*
X85961099Y-93702761D01*
X84678296Y-80048410D02*
X84724222Y-80375198D01*
X86539737Y-93293245D02*
X86493811Y-92966457D01*
X71069871Y-81658002D02*
G75*
G03*
X70817325Y-82016641I53043J-305590D01*
G01*
X72679461Y-95266425D02*
G75*
G03*
X73038101Y-95518972I305592J53044D01*
G01*
D13*
X73482515Y-91316220D02*
G75*
G03*
X73733027Y-93098702I126038J-891131D01*
G01*
X75030278Y-92916384D02*
G75*
G03*
X74779766Y-91133904I-126033J891131D01*
G01*
X78726119Y-92699918D02*
G75*
G03*
X78976631Y-94482398I126033J-891131D01*
G01*
X80273882Y-94300081D02*
G75*
G03*
X80023370Y-92517601I-126033J891131D01*
G01*
X83385196Y-89924488D02*
G75*
G03*
X83635707Y-91706970I126033J-891132D01*
G01*
X84932959Y-91524654D02*
G75*
G03*
X84682447Y-89742172I-126039J891131D01*
G01*
D14*
X84678297Y-80048410D02*
G75*
G03*
X84319656Y-79795864I-305593J-53047D01*
G01*
X86287887Y-93656836D02*
G75*
G03*
X86540433Y-93298195I-53047J305593D01*
G01*
%TO.C,SW2*%
X113954376Y-63434623D02*
X113937104Y-63764170D01*
X113254382Y-76791291D02*
X113271654Y-76461744D01*
X114270975Y-63125768D02*
X114600522Y-63143040D01*
X113563237Y-77107890D02*
X113892784Y-77125162D01*
D13*
X116104621Y-73135452D02*
X114796417Y-73066892D01*
X116010417Y-74932985D02*
X114702212Y-74864425D01*
X120987864Y-75494254D02*
X119679659Y-75425694D01*
X120893659Y-77291787D02*
X119585454Y-77223227D01*
X126090917Y-73658811D02*
X124782712Y-73590251D01*
X125996712Y-75456345D02*
X124688507Y-75387785D01*
D14*
X127627644Y-63825761D02*
X127298097Y-63808489D01*
X126919907Y-77807884D02*
X126590360Y-77790612D01*
X127936499Y-64142360D02*
X127919227Y-64471907D01*
X127236506Y-77499029D02*
X127253778Y-77169482D01*
X114270975Y-63125769D02*
G75*
G03*
X113954637Y-63429631I-6241J-310097D01*
G01*
X113254383Y-76791291D02*
G75*
G03*
X113558245Y-77107629I310098J-6240D01*
G01*
D13*
X114796417Y-73066892D02*
G75*
G03*
X114702212Y-74864425I-46314J-898808D01*
G01*
X116010417Y-74932983D02*
G75*
G03*
X116104621Y-73135453I46318J898806D01*
G01*
X119679659Y-75425694D02*
G75*
G03*
X119585454Y-77223226I-46319J-898807D01*
G01*
X120893659Y-77291785D02*
G75*
G03*
X120987864Y-75494255I46318J898806D01*
G01*
X124782712Y-73590252D02*
G75*
G03*
X124688507Y-75387784I-46318J-898807D01*
G01*
X125996712Y-75456346D02*
G75*
G03*
X126090917Y-73658811I46313J898809D01*
G01*
D14*
X127936500Y-64142360D02*
G75*
G03*
X127632636Y-63826022I-310100J6238D01*
G01*
X126919907Y-77807885D02*
G75*
G03*
X127236245Y-77504021I6238J310100D01*
G01*
%TO.C,SW13*%
X73183964Y-98856148D02*
X73229890Y-99182936D01*
X75045404Y-112100982D02*
X74999478Y-111774194D01*
X73435814Y-98492558D02*
X73762602Y-98446632D01*
X75408994Y-112352832D02*
X75735782Y-112306906D01*
D13*
X77145709Y-107968460D02*
X75848458Y-108150776D01*
X77396221Y-109750942D02*
X76098970Y-109933259D01*
X82389313Y-109352157D02*
X81092062Y-109534474D01*
X82639825Y-111134639D02*
X81342574Y-111316956D01*
X87048390Y-106576729D02*
X85751139Y-106759045D01*
X87298902Y-108359211D02*
X86001650Y-108541528D01*
D14*
X86680649Y-96631117D02*
X86353861Y-96677043D01*
X88653830Y-110491392D02*
X88327042Y-110537318D01*
X87044239Y-96882967D02*
X87090165Y-97209755D01*
X88905680Y-110127802D02*
X88859754Y-109801014D01*
X73435814Y-98492559D02*
G75*
G03*
X73183268Y-98851198I53043J-305590D01*
G01*
X75045404Y-112100982D02*
G75*
G03*
X75404044Y-112353529I305592J53044D01*
G01*
D13*
X75848458Y-108150777D02*
G75*
G03*
X76098970Y-109933259I126038J-891131D01*
G01*
X77396221Y-109750941D02*
G75*
G03*
X77145709Y-107968461I-126033J891131D01*
G01*
X81092062Y-109534475D02*
G75*
G03*
X81342574Y-111316955I126033J-891131D01*
G01*
X82639825Y-111134638D02*
G75*
G03*
X82389313Y-109352158I-126033J891131D01*
G01*
X85751139Y-106759045D02*
G75*
G03*
X86001650Y-108541527I126033J-891132D01*
G01*
X87298902Y-108359211D02*
G75*
G03*
X87048390Y-106576729I-126039J891131D01*
G01*
D14*
X87044240Y-96882967D02*
G75*
G03*
X86685599Y-96630421I-305593J-53047D01*
G01*
X88653830Y-110491393D02*
G75*
G03*
X88906376Y-110132752I-53047J305593D01*
G01*
D13*
%TO.C,RSW2*%
X132987643Y-105753035D02*
X132974559Y-106002693D01*
X132987643Y-105753035D02*
X133936341Y-105802754D01*
X132820168Y-108948650D02*
X132833252Y-108698992D01*
X132820168Y-108948650D02*
X133768866Y-108998369D01*
X138679832Y-106051350D02*
X137731134Y-106001631D01*
X138679832Y-106051350D02*
X138666748Y-106301008D01*
X138512357Y-109246965D02*
X137563659Y-109197246D01*
X138512357Y-109246965D02*
X138525441Y-108997307D01*
D14*
%TO.C,SW15*%
X179705148Y-124220269D02*
X179406068Y-124080805D01*
X167583283Y-118567751D02*
X167882363Y-118707215D01*
X179872913Y-124629514D02*
X179733448Y-124928594D01*
X167174038Y-118735516D02*
X167034574Y-119034596D01*
D13*
X169905200Y-122579948D02*
X170458830Y-121392685D01*
X168273846Y-121819235D02*
X168827476Y-120631972D01*
X165888862Y-126223988D02*
X166442492Y-125036725D01*
X164257508Y-125463275D02*
X164811138Y-124276012D01*
X165679017Y-131643026D02*
X166232647Y-130455762D01*
X164047663Y-130882313D02*
X164601293Y-129695050D01*
D14*
X174220395Y-136751380D02*
X174359859Y-136452300D01*
X161521519Y-130857382D02*
X161660984Y-130558302D01*
X173811150Y-136919145D02*
X173512070Y-136779680D01*
X161689284Y-131266627D02*
X161988364Y-131406091D01*
X179872912Y-124629514D02*
G75*
G03*
X179709679Y-124222382I-285179J121951D01*
G01*
X167583283Y-118567750D02*
G75*
G03*
X167176150Y-118730985I-121950J-285181D01*
G01*
D13*
X170458829Y-121392685D02*
G75*
G03*
X168827476Y-120631972I-816010J379641D01*
G01*
X168273847Y-121819235D02*
G75*
G03*
X169905200Y-122579948I816008J-379645D01*
G01*
X166442491Y-125036725D02*
G75*
G03*
X164811138Y-124276012I-816008J379645D01*
G01*
X164257509Y-125463275D02*
G75*
G03*
X165888862Y-126223988I816008J-379645D01*
G01*
X166232646Y-130455761D02*
G75*
G03*
X164601294Y-129695050I-816008J379644D01*
G01*
X164047663Y-130882313D02*
G75*
G03*
X165679017Y-131643026I816011J-379640D01*
G01*
D14*
X173811150Y-136919146D02*
G75*
G03*
X174218283Y-136755911I121949J285183D01*
G01*
X161521518Y-130857382D02*
G75*
G03*
X161684753Y-131264515I285183J-121949D01*
G01*
%TO.C,SW5*%
X47623945Y-83034479D02*
X47709354Y-83353233D01*
X51085650Y-95953735D02*
X51000241Y-95634980D01*
X47829608Y-82642906D02*
X48148362Y-82557497D01*
X51477222Y-96159397D02*
X51795977Y-96073988D01*
D13*
X52666672Y-91596053D02*
X51401309Y-91935106D01*
X53132546Y-93334719D02*
X51867183Y-93673772D01*
X58039821Y-92330402D02*
X56774458Y-92669455D01*
X58505695Y-94069068D02*
X57240332Y-94408121D01*
X62325930Y-89007862D02*
X61060567Y-89346915D01*
X62791804Y-90746529D02*
X61526441Y-91085582D01*
D14*
X60748864Y-79181200D02*
X60430110Y-79266609D01*
X64396480Y-92697692D02*
X64077726Y-92783101D01*
X61140437Y-79386863D02*
X61225846Y-79705617D01*
X64602143Y-92306119D02*
X64516734Y-91987365D01*
X47829608Y-82642906D02*
G75*
G03*
X47622651Y-83029650I89890J-296848D01*
G01*
X51085650Y-95953735D02*
G75*
G03*
X51472394Y-96160691I296849J89892D01*
G01*
D13*
X51401309Y-91935106D02*
G75*
G03*
X51867183Y-93673771I233700J-869128D01*
G01*
X53132546Y-93334718D02*
G75*
G03*
X52666672Y-91596054I-233696J869129D01*
G01*
X56774458Y-92669456D02*
G75*
G03*
X57240332Y-94408120I233695J-869129D01*
G01*
X58505695Y-94069067D02*
G75*
G03*
X58039821Y-92330403I-233695J869129D01*
G01*
X61060567Y-89346915D02*
G75*
G03*
X61526441Y-91085581I233695J-869130D01*
G01*
X62791804Y-90746529D02*
G75*
G03*
X62325930Y-89007863I-233700J869129D01*
G01*
D14*
X61140438Y-79386863D02*
G75*
G03*
X60753693Y-79179907I-296850J-89893D01*
G01*
X64396480Y-92697693D02*
G75*
G03*
X64603436Y-92310948I-89893J296850D01*
G01*
%TO.C,SW7*%
X113064664Y-80411325D02*
X113047392Y-80740872D01*
X112364670Y-93767993D02*
X112381942Y-93438446D01*
X113381263Y-80102470D02*
X113710810Y-80119742D01*
X112673525Y-94084592D02*
X113003072Y-94101864D01*
D13*
X115214909Y-90112154D02*
X113906705Y-90043594D01*
X115120705Y-91909687D02*
X113812500Y-91841127D01*
X120098152Y-92470956D02*
X118789947Y-92402396D01*
X120003947Y-94268489D02*
X118695742Y-94199929D01*
X125201205Y-90635513D02*
X123893000Y-90566953D01*
X125107000Y-92433047D02*
X123798795Y-92364487D01*
D14*
X126737932Y-80802463D02*
X126408385Y-80785191D01*
X126030195Y-94784586D02*
X125700648Y-94767314D01*
X127046787Y-81119062D02*
X127029515Y-81448609D01*
X126346794Y-94475731D02*
X126364066Y-94146184D01*
X113381263Y-80102471D02*
G75*
G03*
X113064925Y-80406333I-6241J-310097D01*
G01*
X112364671Y-93767993D02*
G75*
G03*
X112668533Y-94084331I310098J-6240D01*
G01*
D13*
X113906705Y-90043594D02*
G75*
G03*
X113812500Y-91841127I-46314J-898808D01*
G01*
X115120705Y-91909685D02*
G75*
G03*
X115214909Y-90112155I46318J898806D01*
G01*
X118789947Y-92402396D02*
G75*
G03*
X118695742Y-94199928I-46319J-898807D01*
G01*
X120003947Y-94268487D02*
G75*
G03*
X120098152Y-92470957I46318J898806D01*
G01*
X123893000Y-90566954D02*
G75*
G03*
X123798795Y-92364486I-46318J-898807D01*
G01*
X125107000Y-92433048D02*
G75*
G03*
X125201205Y-90635513I46313J898809D01*
G01*
D14*
X127046788Y-81119062D02*
G75*
G03*
X126742924Y-80802724I-310100J6238D01*
G01*
X126030195Y-94784587D02*
G75*
G03*
X126346533Y-94480723I6238J310100D01*
G01*
%TO.C,SW8*%
X92999999Y-74425001D02*
X92999998Y-74755000D01*
X92999999Y-87799999D02*
X93000000Y-87470000D01*
X93300000Y-74100000D02*
X93629999Y-74100001D01*
X93325000Y-88100000D02*
X93654999Y-88100001D01*
D13*
X95655000Y-84000000D02*
X94345000Y-84000000D01*
X95655000Y-85800000D02*
X94345000Y-85800000D01*
X100655000Y-86100000D02*
X99345000Y-86100000D01*
X100655000Y-87900000D02*
X99345000Y-87900000D01*
X105655000Y-84000000D02*
X104345000Y-84000000D01*
X105655000Y-85800000D02*
X104345000Y-85800000D01*
D14*
X106674999Y-74099999D02*
X106345000Y-74099998D01*
X106700000Y-88100000D02*
X106370001Y-88099999D01*
X107000000Y-74400000D02*
X106999999Y-74729999D01*
X107000001Y-87774999D02*
X107000002Y-87445000D01*
X93300000Y-74100000D02*
G75*
G03*
X92999998Y-74420002I9997J-309999D01*
G01*
X92999999Y-87799999D02*
G75*
G03*
X93320001Y-88100001I310000J9998D01*
G01*
D13*
X94345000Y-84000000D02*
G75*
G03*
X94345000Y-85800000I790J-900000D01*
G01*
X95655000Y-85800000D02*
G75*
G03*
X95655000Y-84000000I-785J900000D01*
G01*
X99345000Y-86100000D02*
G75*
G03*
X99345000Y-87900000I785J-900000D01*
G01*
X100655000Y-87900000D02*
G75*
G03*
X100655000Y-86100000I-785J900000D01*
G01*
X104345000Y-84000000D02*
G75*
G03*
X104345000Y-85800000I785J-900000D01*
G01*
X105655000Y-85800000D02*
G75*
G03*
X105655000Y-84000000I-790J900000D01*
G01*
D14*
X107000002Y-74400000D02*
G75*
G03*
X106679998Y-74099998I-310002J-10000D01*
G01*
X106700000Y-88100002D02*
G75*
G03*
X107000002Y-87779998I-10000J310002D01*
G01*
%TO.C,SW1*%
X131720824Y-69058089D02*
X131703552Y-69387636D01*
X131020830Y-82414757D02*
X131038102Y-82085210D01*
X132037423Y-68749234D02*
X132366970Y-68766506D01*
X131329685Y-82731356D02*
X131659232Y-82748628D01*
D13*
X133871069Y-78758918D02*
X132562865Y-78690358D01*
X133776865Y-80556451D02*
X132468660Y-80487891D01*
X138754312Y-81117720D02*
X137446107Y-81049160D01*
X138660107Y-82915253D02*
X137351902Y-82846693D01*
X143857365Y-79282277D02*
X142549160Y-79213717D01*
X143763160Y-81079811D02*
X142454955Y-81011251D01*
D14*
X145394092Y-69449227D02*
X145064545Y-69431955D01*
X144686355Y-83431350D02*
X144356808Y-83414078D01*
X145702947Y-69765826D02*
X145685675Y-70095373D01*
X145002954Y-83122495D02*
X145020226Y-82792948D01*
X132037423Y-68749235D02*
G75*
G03*
X131721085Y-69053097I-6241J-310097D01*
G01*
X131020831Y-82414757D02*
G75*
G03*
X131324693Y-82731095I310098J-6240D01*
G01*
D13*
X132562865Y-78690358D02*
G75*
G03*
X132468660Y-80487891I-46314J-898808D01*
G01*
X133776865Y-80556449D02*
G75*
G03*
X133871069Y-78758919I46318J898806D01*
G01*
X137446107Y-81049160D02*
G75*
G03*
X137351902Y-82846692I-46319J-898807D01*
G01*
X138660107Y-82915251D02*
G75*
G03*
X138754312Y-81117721I46318J898806D01*
G01*
X142549160Y-79213718D02*
G75*
G03*
X142454955Y-81011250I-46318J-898807D01*
G01*
X143763160Y-81079812D02*
G75*
G03*
X143857365Y-79282277I46313J898809D01*
G01*
D14*
X145702948Y-69765826D02*
G75*
G03*
X145399084Y-69449488I-310100J6238D01*
G01*
X144686355Y-83431351D02*
G75*
G03*
X145002693Y-83127487I6238J310100D01*
G01*
%TO.C,SW3*%
X92999999Y-57425001D02*
X92999998Y-57755000D01*
X92999999Y-70799999D02*
X93000000Y-70470000D01*
X93300000Y-57100000D02*
X93629999Y-57100001D01*
X93325000Y-71100000D02*
X93654999Y-71100001D01*
D13*
X95655000Y-67000000D02*
X94345000Y-67000000D01*
X95655000Y-68800000D02*
X94345000Y-68800000D01*
X100655000Y-69100000D02*
X99345000Y-69100000D01*
X100655000Y-70900000D02*
X99345000Y-70900000D01*
X105655000Y-67000000D02*
X104345000Y-67000000D01*
X105655000Y-68800000D02*
X104345000Y-68800000D01*
D14*
X106674999Y-57099999D02*
X106345000Y-57099998D01*
X106700000Y-71100000D02*
X106370001Y-71099999D01*
X107000000Y-57400000D02*
X106999999Y-57729999D01*
X107000001Y-70774999D02*
X107000002Y-70445000D01*
X93300000Y-57100000D02*
G75*
G03*
X92999998Y-57420002I9997J-309999D01*
G01*
X92999999Y-70799999D02*
G75*
G03*
X93320001Y-71100001I310000J9998D01*
G01*
D13*
X94345000Y-67000000D02*
G75*
G03*
X94345000Y-68800000I790J-900000D01*
G01*
X95655000Y-68800000D02*
G75*
G03*
X95655000Y-67000000I-785J900000D01*
G01*
X99345000Y-69100000D02*
G75*
G03*
X99345000Y-70900000I785J-900000D01*
G01*
X100655000Y-70900000D02*
G75*
G03*
X100655000Y-69100000I-785J900000D01*
G01*
X104345000Y-67000000D02*
G75*
G03*
X104345000Y-68800000I785J-900000D01*
G01*
X105655000Y-68800000D02*
G75*
G03*
X105655000Y-67000000I-790J900000D01*
G01*
D14*
X107000002Y-57400000D02*
G75*
G03*
X106679998Y-57099998I-310002J-10000D01*
G01*
X106700000Y-71100002D02*
G75*
G03*
X107000002Y-70779998I-10000J310002D01*
G01*
%TO.C,SW10*%
X52023869Y-99455218D02*
X52109278Y-99773972D01*
X55485574Y-112374474D02*
X55400165Y-112055719D01*
X52229532Y-99063645D02*
X52548286Y-98978236D01*
X55877146Y-112580136D02*
X56195901Y-112494727D01*
D13*
X57066596Y-108016792D02*
X55801233Y-108355845D01*
X57532470Y-109755458D02*
X56267107Y-110094511D01*
X62439745Y-108751141D02*
X61174382Y-109090194D01*
X62905619Y-110489807D02*
X61640256Y-110828860D01*
X66725854Y-105428601D02*
X65460491Y-105767654D01*
X67191728Y-107167268D02*
X65926365Y-107506321D01*
D14*
X65148788Y-95601939D02*
X64830034Y-95687348D01*
X68796404Y-109118431D02*
X68477650Y-109203840D01*
X65540361Y-95807602D02*
X65625770Y-96126356D01*
X69002067Y-108726858D02*
X68916658Y-108408104D01*
X52229532Y-99063645D02*
G75*
G03*
X52022575Y-99450389I89890J-296848D01*
G01*
X55485574Y-112374474D02*
G75*
G03*
X55872318Y-112581430I296849J89892D01*
G01*
D13*
X55801233Y-108355845D02*
G75*
G03*
X56267107Y-110094510I233700J-869128D01*
G01*
X57532470Y-109755457D02*
G75*
G03*
X57066596Y-108016793I-233696J869129D01*
G01*
X61174382Y-109090195D02*
G75*
G03*
X61640256Y-110828859I233695J-869129D01*
G01*
X62905619Y-110489806D02*
G75*
G03*
X62439745Y-108751142I-233695J869129D01*
G01*
X65460491Y-105767654D02*
G75*
G03*
X65926365Y-107506320I233695J-869130D01*
G01*
X67191728Y-107167268D02*
G75*
G03*
X66725854Y-105428602I-233700J869129D01*
G01*
D14*
X65540362Y-95807602D02*
G75*
G03*
X65153617Y-95600646I-296850J-89893D01*
G01*
X68796404Y-109118432D02*
G75*
G03*
X69003360Y-108731687I-89893J296850D01*
G01*
%TO.C,SW17*%
X126451311Y-131510909D02*
X126781310Y-131510910D01*
X139826309Y-131510909D02*
X139496310Y-131510908D01*
X126126310Y-131210908D02*
X126126311Y-130880909D01*
X140126310Y-131185908D02*
X140126311Y-130855909D01*
D13*
X136026310Y-128855908D02*
X136026310Y-130165908D01*
X137826310Y-128855908D02*
X137826310Y-130165908D01*
X138126310Y-123855908D02*
X138126310Y-125165908D01*
X139926310Y-123855908D02*
X139926310Y-125165908D01*
X136026310Y-118855908D02*
X136026310Y-120165908D01*
X137826310Y-118855908D02*
X137826310Y-120165908D01*
D14*
X126126309Y-117835909D02*
X126126308Y-118165908D01*
X140126310Y-117810908D02*
X140126309Y-118140907D01*
X126426310Y-117510908D02*
X126756309Y-117510909D01*
X139801309Y-117510907D02*
X139471310Y-117510906D01*
X126126310Y-131210908D02*
G75*
G03*
X126446312Y-131510910I309999J9997D01*
G01*
X139826309Y-131510909D02*
G75*
G03*
X140126311Y-131190907I-9998J310000D01*
G01*
D13*
X136026310Y-130165908D02*
G75*
G03*
X137826310Y-130165908I900000J790D01*
G01*
X137826310Y-128855908D02*
G75*
G03*
X136026310Y-128855908I-900000J-785D01*
G01*
X138126310Y-125165908D02*
G75*
G03*
X139926310Y-125165908I900000J785D01*
G01*
X139926310Y-123855908D02*
G75*
G03*
X138126310Y-123855908I-900000J-785D01*
G01*
X136026310Y-120165908D02*
G75*
G03*
X137826310Y-120165908I900000J785D01*
G01*
X137826310Y-118855908D02*
G75*
G03*
X136026310Y-118855908I-900000J-790D01*
G01*
D14*
X126426310Y-117510906D02*
G75*
G03*
X126126308Y-117830910I10000J-310002D01*
G01*
X140126312Y-117810908D02*
G75*
G03*
X139806308Y-117510906I-310002J-10000D01*
G01*
%TO.C,SW11*%
X112174953Y-97388027D02*
X112157681Y-97717574D01*
X111474959Y-110744695D02*
X111492231Y-110415148D01*
X112491552Y-97079172D02*
X112821099Y-97096444D01*
X111783814Y-111061294D02*
X112113361Y-111078566D01*
D13*
X114325198Y-107088856D02*
X113016994Y-107020296D01*
X114230994Y-108886389D02*
X112922789Y-108817829D01*
X119208441Y-109447658D02*
X117900236Y-109379098D01*
X119114236Y-111245191D02*
X117806031Y-111176631D01*
X124311494Y-107612215D02*
X123003289Y-107543655D01*
X124217289Y-109409749D02*
X122909084Y-109341189D01*
D14*
X125848221Y-97779165D02*
X125518674Y-97761893D01*
X125140484Y-111761288D02*
X124810937Y-111744016D01*
X126157076Y-98095764D02*
X126139804Y-98425311D01*
X125457083Y-111452433D02*
X125474355Y-111122886D01*
X112491552Y-97079173D02*
G75*
G03*
X112175214Y-97383035I-6241J-310097D01*
G01*
X111474960Y-110744695D02*
G75*
G03*
X111778822Y-111061033I310098J-6240D01*
G01*
D13*
X113016994Y-107020296D02*
G75*
G03*
X112922789Y-108817829I-46314J-898808D01*
G01*
X114230994Y-108886387D02*
G75*
G03*
X114325198Y-107088857I46318J898806D01*
G01*
X117900236Y-109379098D02*
G75*
G03*
X117806031Y-111176630I-46319J-898807D01*
G01*
X119114236Y-111245189D02*
G75*
G03*
X119208441Y-109447659I46318J898806D01*
G01*
X123003289Y-107543656D02*
G75*
G03*
X122909084Y-109341188I-46318J-898807D01*
G01*
X124217289Y-109409750D02*
G75*
G03*
X124311494Y-107612215I46313J898809D01*
G01*
D14*
X126157077Y-98095764D02*
G75*
G03*
X125853213Y-97779426I-310100J6238D01*
G01*
X125140484Y-111761289D02*
G75*
G03*
X125456822Y-111457425I6238J310100D01*
G01*
%TD*%
M02*
