%TF.GenerationSoftware,KiCad,Pcbnew,7.0.10*%
%TF.CreationDate,2024-03-06T23:25:22+01:00*%
%TF.ProjectId,routes,726f7574-6573-42e6-9b69-6361645f7063,rev?*%
%TF.SameCoordinates,Original*%
%TF.FileFunction,Soldermask,Top*%
%TF.FilePolarity,Negative*%
%FSLAX46Y46*%
G04 Gerber Fmt 4.6, Leading zero omitted, Abs format (unit mm)*
G04 Created by KiCad (PCBNEW 7.0.10) date 2024-03-06 23:25:22*
%MOMM*%
%LPD*%
G01*
G04 APERTURE LIST*
G04 Aperture macros list*
%AMHorizOval*
0 Thick line with rounded ends*
0 $1 width*
0 $2 $3 position (X,Y) of the first rounded end (center of the circle)*
0 $4 $5 position (X,Y) of the second rounded end (center of the circle)*
0 Add line between two ends*
20,1,$1,$2,$3,$4,$5,0*
0 Add two circle primitives to create the rounded ends*
1,1,$1,$2,$3*
1,1,$1,$4,$5*%
G04 Aperture macros list end*
%ADD10C,0.010000*%
%ADD11C,0.800000*%
%ADD12HorizOval,1.600000X0.068404X0.187939X-0.068404X-0.187939X0*%
%ADD13HorizOval,1.600000X-0.068404X-0.187939X0.068404X0.187939X0*%
%ADD14C,1.701800*%
%ADD15C,3.429000*%
%ADD16O,2.100000X1.200000*%
%ADD17HorizOval,1.200000X0.422862X-0.153909X-0.422862X0.153909X0*%
%ADD18HorizOval,1.200000X-0.449383X0.023551X0.449383X-0.023551X0*%
%ADD19HorizOval,1.200000X-0.078142X-0.443163X0.078142X0.443163X0*%
%ADD20HorizOval,1.200000X-0.445621X-0.062628X0.445621X0.062628X0*%
%ADD21HorizOval,1.200000X-0.434667X-0.116469X0.434667X0.116469X0*%
%ADD22C,4.400000*%
%ADD23C,2.000000*%
%ADD24HorizOval,1.200000X0.190178X0.407839X-0.190178X-0.407839X0*%
%ADD25O,1.200000X2.100000*%
G04 APERTURE END LIST*
%TO.C,G\u002A\u002A\u002A*%
G36*
X139192236Y-61190523D02*
G01*
X139422020Y-61191205D01*
X139613618Y-61192392D01*
X139771081Y-61194192D01*
X139898461Y-61196713D01*
X139999807Y-61200065D01*
X140079172Y-61204355D01*
X140140605Y-61209693D01*
X140188158Y-61216186D01*
X140225883Y-61223944D01*
X140257829Y-61233074D01*
X140288048Y-61243686D01*
X140293179Y-61245598D01*
X140463920Y-61335358D01*
X140620938Y-61466487D01*
X140750498Y-61625964D01*
X140813571Y-61738856D01*
X140843223Y-61805211D01*
X140864344Y-61862687D01*
X140878379Y-61922386D01*
X140886773Y-61995411D01*
X140890973Y-62092867D01*
X140892423Y-62225857D01*
X140892577Y-62345689D01*
X140892577Y-62781426D01*
X140803052Y-62963231D01*
X140688056Y-63146214D01*
X140538615Y-63292707D01*
X140347176Y-63410013D01*
X140335082Y-63415857D01*
X140185511Y-63487254D01*
X138268273Y-63492520D01*
X137888491Y-63493414D01*
X137559323Y-63493821D01*
X137276992Y-63493679D01*
X137037725Y-63492924D01*
X136837745Y-63491494D01*
X136673278Y-63489326D01*
X136540549Y-63486357D01*
X136435783Y-63482524D01*
X136355205Y-63477765D01*
X136295039Y-63472016D01*
X136251511Y-63465214D01*
X136224532Y-63458483D01*
X136109432Y-63407945D01*
X135981465Y-63329183D01*
X135861468Y-63236661D01*
X135770276Y-63144845D01*
X135767209Y-63140994D01*
X135670674Y-62991178D01*
X135604893Y-62821739D01*
X135566347Y-62621402D01*
X135553690Y-62456873D01*
X135551519Y-62292931D01*
X135698823Y-62292931D01*
X135700388Y-62458670D01*
X135708652Y-62613856D01*
X135723572Y-62742363D01*
X135737097Y-62804908D01*
X135784483Y-62915475D01*
X135867206Y-63031773D01*
X135927461Y-63099334D01*
X136005932Y-63178418D01*
X136079954Y-63240015D01*
X136157746Y-63286296D01*
X136247526Y-63319429D01*
X136357512Y-63341586D01*
X136495920Y-63354937D01*
X136670970Y-63361652D01*
X136890878Y-63363901D01*
X136929642Y-63363989D01*
X137481053Y-63364877D01*
X137600564Y-63245366D01*
X137770300Y-63040146D01*
X137892047Y-62814378D01*
X137964161Y-62573345D01*
X137985002Y-62322332D01*
X137958681Y-62092820D01*
X137889331Y-61863070D01*
X137779470Y-61657768D01*
X137775989Y-61653459D01*
X137946500Y-61653459D01*
X138017132Y-61822498D01*
X138053230Y-61920812D01*
X138076846Y-62020065D01*
X138091296Y-62138647D01*
X138099224Y-62277509D01*
X138098449Y-62475225D01*
X138075652Y-62648684D01*
X138026277Y-62820927D01*
X137959276Y-62985221D01*
X137965123Y-63031375D01*
X138004548Y-63098009D01*
X138067404Y-63173256D01*
X138143544Y-63245250D01*
X138222821Y-63302124D01*
X138237066Y-63310065D01*
X138279969Y-63329536D01*
X138329869Y-63343626D01*
X138396033Y-63353207D01*
X138487728Y-63359151D01*
X138614222Y-63362328D01*
X138784782Y-63363611D01*
X138807270Y-63363675D01*
X139278281Y-63364877D01*
X139394540Y-63284888D01*
X139560499Y-63144045D01*
X139695684Y-62968196D01*
X139774797Y-62822268D01*
X139811673Y-62740821D01*
X139835901Y-62672293D01*
X139850118Y-62601344D01*
X139856961Y-62512637D01*
X139859066Y-62390832D01*
X139859172Y-62331472D01*
X139857949Y-62190233D01*
X139852757Y-62088533D01*
X139841315Y-62011545D01*
X139821341Y-61944446D01*
X139790552Y-61872410D01*
X139787509Y-61865896D01*
X139675881Y-61680493D01*
X139526269Y-61509307D01*
X139399578Y-61402390D01*
X139293517Y-61325262D01*
X138807007Y-61325262D01*
X138601985Y-61326971D01*
X138442845Y-61333676D01*
X138321139Y-61347747D01*
X138228423Y-61371552D01*
X138156250Y-61407460D01*
X138096175Y-61457841D01*
X138039753Y-61525063D01*
X138025437Y-61544489D01*
X137946500Y-61653459D01*
X137775989Y-61653459D01*
X137626381Y-61468265D01*
X137487595Y-61321446D01*
X136878523Y-61330153D01*
X136269451Y-61338860D01*
X136119879Y-61423131D01*
X135973007Y-61530968D01*
X135848313Y-61670738D01*
X135758894Y-61826438D01*
X135734735Y-61893667D01*
X135715955Y-61994303D01*
X135703998Y-62132767D01*
X135698823Y-62292931D01*
X135551519Y-62292931D01*
X135551514Y-62292567D01*
X135557469Y-62132922D01*
X135570596Y-61999996D01*
X135574699Y-61974565D01*
X135639395Y-61761748D01*
X135750122Y-61571199D01*
X135900572Y-61410399D01*
X136084436Y-61286828D01*
X136195949Y-61238010D01*
X136224605Y-61228967D01*
X136259861Y-61221162D01*
X136305685Y-61214500D01*
X136366050Y-61208891D01*
X136444925Y-61204240D01*
X136546281Y-61200456D01*
X136674088Y-61197445D01*
X136832316Y-61195115D01*
X137024937Y-61193372D01*
X137255921Y-61192125D01*
X137529238Y-61191281D01*
X137848859Y-61190746D01*
X138218754Y-61190428D01*
X138233259Y-61190419D01*
X138601907Y-61190238D01*
X138920215Y-61190237D01*
X139192236Y-61190523D01*
G37*
G36*
X136647951Y-53609889D02*
G01*
X136783129Y-53663635D01*
X136897840Y-53756507D01*
X136959664Y-53843568D01*
X137016838Y-53997537D01*
X137025240Y-54154460D01*
X136986645Y-54303640D01*
X136902828Y-54434381D01*
X136853680Y-54481969D01*
X136769682Y-54552649D01*
X136913892Y-55714043D01*
X137058102Y-56875437D01*
X137139686Y-56917962D01*
X137233610Y-56980723D01*
X137328766Y-57066822D01*
X137412602Y-57162345D01*
X137472565Y-57253381D01*
X137494487Y-57311210D01*
X137509037Y-57366557D01*
X137536130Y-57401520D01*
X137589994Y-57427730D01*
X137666006Y-57451392D01*
X138012763Y-57576347D01*
X138320697Y-57739228D01*
X138589431Y-57939655D01*
X138818590Y-58177251D01*
X139007797Y-58451639D01*
X139156677Y-58762440D01*
X139247522Y-59040894D01*
X139270326Y-59135352D01*
X139287882Y-59232473D01*
X139301245Y-59342880D01*
X139311471Y-59477201D01*
X139319616Y-59646059D01*
X139325819Y-59828947D01*
X139342470Y-60385845D01*
X139995147Y-60619100D01*
X140222077Y-60700461D01*
X140404240Y-60766780D01*
X140548183Y-60821051D01*
X140660450Y-60866268D01*
X140747589Y-60905425D01*
X140816143Y-60941517D01*
X140872660Y-60977538D01*
X140923685Y-61016482D01*
X140975763Y-61061343D01*
X140990183Y-61074255D01*
X141060986Y-61139098D01*
X141117348Y-61197030D01*
X141160995Y-61255155D01*
X141193657Y-61320582D01*
X141217060Y-61400416D01*
X141232933Y-61501765D01*
X141243003Y-61631734D01*
X141248999Y-61797431D01*
X141252648Y-62005962D01*
X141254507Y-62161405D01*
X141256597Y-62396952D01*
X141256758Y-62585353D01*
X141254722Y-62733830D01*
X141250218Y-62849602D01*
X141242976Y-62939888D01*
X141232726Y-63011908D01*
X141220623Y-63067404D01*
X141141729Y-63287350D01*
X141026580Y-63470065D01*
X140873919Y-63616332D01*
X140682492Y-63726933D01*
X140451044Y-63802652D01*
X140178319Y-63844274D01*
X139961153Y-63853545D01*
X139791185Y-63854384D01*
X139791185Y-64123003D01*
X139787734Y-64272367D01*
X139777228Y-64369743D01*
X139759442Y-64417105D01*
X139757192Y-64419217D01*
X139707749Y-64444714D01*
X139618074Y-64478017D01*
X139501063Y-64515294D01*
X139369612Y-64552712D01*
X139236620Y-64586439D01*
X139114984Y-64612642D01*
X139092247Y-64616803D01*
X138993919Y-64638388D01*
X138919590Y-64662790D01*
X138883585Y-64685214D01*
X138882728Y-64686934D01*
X138879290Y-64722718D01*
X138876581Y-64805385D01*
X138874680Y-64927433D01*
X138873669Y-65081359D01*
X138873626Y-65259660D01*
X138874600Y-65450686D01*
X138880157Y-66178776D01*
X139023446Y-66199407D01*
X139127776Y-66219609D01*
X139226913Y-66246991D01*
X139262080Y-66259876D01*
X139357425Y-66299714D01*
X139349948Y-66742734D01*
X139342470Y-67185755D01*
X139165703Y-67274161D01*
X138904794Y-67385979D01*
X138596719Y-67484970D01*
X138247539Y-67569492D01*
X137863317Y-67637898D01*
X137780912Y-67649763D01*
X137629335Y-67666240D01*
X137438698Y-67680090D01*
X137221633Y-67691022D01*
X136990773Y-67698747D01*
X136758751Y-67702975D01*
X136538197Y-67703418D01*
X136341747Y-67699784D01*
X136182030Y-67691785D01*
X136133476Y-67687529D01*
X135652500Y-67621145D01*
X135206743Y-67524962D01*
X134799043Y-67399924D01*
X134432238Y-67246975D01*
X134109166Y-67067060D01*
X133962063Y-66965156D01*
X133753926Y-66809695D01*
X133753773Y-66732469D01*
X133889900Y-66732469D01*
X133991881Y-66811374D01*
X134074942Y-66874099D01*
X134156716Y-66933529D01*
X134176336Y-66947277D01*
X134258809Y-67004276D01*
X134257920Y-66931846D01*
X134266757Y-66877971D01*
X134305258Y-66860167D01*
X134325018Y-66859417D01*
X134377925Y-66871841D01*
X134399645Y-66919313D01*
X134401408Y-66932101D01*
X134398024Y-66987867D01*
X134362033Y-67011002D01*
X134347018Y-67013685D01*
X134318013Y-67022177D01*
X134326861Y-67038180D01*
X134378726Y-67067137D01*
X134413927Y-67084160D01*
X134517918Y-67122890D01*
X134597868Y-67131400D01*
X134608526Y-67129447D01*
X134662778Y-67128176D01*
X134690471Y-67166914D01*
X134691145Y-67168995D01*
X134712876Y-67199453D01*
X134763470Y-67231125D01*
X134850636Y-67267756D01*
X134982088Y-67313090D01*
X134999651Y-67318791D01*
X135431562Y-67435165D01*
X135897087Y-67517452D01*
X136386727Y-67564724D01*
X136890981Y-67576053D01*
X137384440Y-67551876D01*
X137755325Y-67510351D01*
X138118380Y-67450306D01*
X138463081Y-67374179D01*
X138778902Y-67284409D01*
X139055316Y-67183436D01*
X139145307Y-67143812D01*
X139220093Y-67109037D01*
X139220093Y-66747550D01*
X139220093Y-66386063D01*
X139118112Y-66357742D01*
X139009799Y-66331698D01*
X138942683Y-66329220D01*
X138907417Y-66353788D01*
X138894654Y-66408885D01*
X138893755Y-66441296D01*
X138896062Y-66511816D01*
X138910213Y-66541145D01*
X138947051Y-66542468D01*
X138972968Y-66537632D01*
X139043279Y-66538084D01*
X139087854Y-66564873D01*
X139094242Y-66608727D01*
X139087450Y-66622870D01*
X139064685Y-66644964D01*
X139020420Y-66666411D01*
X138948012Y-66689029D01*
X138840817Y-66714637D01*
X138692195Y-66745053D01*
X138526624Y-66776359D01*
X137981643Y-66856298D01*
X137431743Y-66894644D01*
X136869567Y-66891337D01*
X136287757Y-66846319D01*
X135770786Y-66772622D01*
X136826945Y-66772622D01*
X137377641Y-66755098D01*
X137553494Y-66748825D01*
X137718132Y-66741701D01*
X137861045Y-66734277D01*
X137971722Y-66727104D01*
X138039653Y-66720734D01*
X138043915Y-66720129D01*
X138159494Y-66702683D01*
X138159494Y-66689102D01*
X138293342Y-66689102D01*
X138396385Y-66670150D01*
X138489653Y-66652205D01*
X138597196Y-66630449D01*
X138628605Y-66623878D01*
X138757781Y-66596558D01*
X138757781Y-66372188D01*
X138756294Y-66267326D01*
X138752340Y-66185167D01*
X138746674Y-66139391D01*
X138744651Y-66134688D01*
X138713396Y-66131964D01*
X138642307Y-66136524D01*
X138545304Y-66147373D01*
X138520294Y-66150721D01*
X138309065Y-66179884D01*
X138301203Y-66434493D01*
X138293342Y-66689102D01*
X138159494Y-66689102D01*
X138159494Y-66445003D01*
X138158642Y-66325557D01*
X138154869Y-66251312D01*
X138146344Y-66213092D01*
X138131237Y-66201719D01*
X138111903Y-66206287D01*
X138071827Y-66212401D01*
X137985804Y-66219063D01*
X137862268Y-66225843D01*
X137709653Y-66232307D01*
X137536392Y-66238023D01*
X137445629Y-66240442D01*
X136826945Y-66255632D01*
X136826945Y-66514127D01*
X136826945Y-66772622D01*
X135770786Y-66772622D01*
X135678955Y-66759531D01*
X135643969Y-66753444D01*
X135381379Y-66701043D01*
X135164463Y-66642711D01*
X134984555Y-66574891D01*
X134966078Y-66565033D01*
X135358423Y-66565033D01*
X135623573Y-66613628D01*
X135839939Y-66650858D01*
X136053344Y-66683142D01*
X136251189Y-66708842D01*
X136420874Y-66726319D01*
X136548198Y-66733899D01*
X136690971Y-66737040D01*
X136690971Y-66492286D01*
X136689493Y-66384498D01*
X136685535Y-66300931D01*
X136679808Y-66253719D01*
X136676600Y-66247532D01*
X136622594Y-66244128D01*
X136526264Y-66234842D01*
X136399190Y-66221063D01*
X136252948Y-66204181D01*
X136099119Y-66185585D01*
X135949280Y-66166665D01*
X135815009Y-66148810D01*
X135707884Y-66133409D01*
X135657566Y-66125245D01*
X135548548Y-66106657D01*
X135458378Y-66092494D01*
X135401748Y-66085019D01*
X135392417Y-66084400D01*
X135374735Y-66101995D01*
X135363858Y-66158868D01*
X135358929Y-66261085D01*
X135358423Y-66324698D01*
X135358423Y-66565033D01*
X134966078Y-66565033D01*
X134832991Y-66494028D01*
X134701107Y-66396566D01*
X134641308Y-66341929D01*
X134502505Y-66170128D01*
X134403487Y-65967292D01*
X134381596Y-65880599D01*
X134519717Y-65880599D01*
X134521263Y-65914097D01*
X134550318Y-65977015D01*
X134599157Y-66057338D01*
X134660055Y-66143052D01*
X134725285Y-66222143D01*
X134766604Y-66264548D01*
X134849493Y-66332583D01*
X134944686Y-66396421D01*
X135040151Y-66449743D01*
X135123854Y-66486233D01*
X135183765Y-66499571D01*
X135203272Y-66493844D01*
X135212549Y-66458724D01*
X135217616Y-66384023D01*
X135217613Y-66284444D01*
X135216870Y-66261257D01*
X135208851Y-66048985D01*
X134869234Y-65959843D01*
X134802245Y-65942738D01*
X135358423Y-65942738D01*
X135603874Y-65987846D01*
X135730801Y-66008911D01*
X135888181Y-66031667D01*
X136061389Y-66054344D01*
X136235796Y-66075176D01*
X136396777Y-66092395D01*
X136529705Y-66104233D01*
X136602588Y-66108532D01*
X136690971Y-66111558D01*
X136826945Y-66111558D01*
X137323252Y-66108606D01*
X137495622Y-66106660D01*
X137661555Y-66103122D01*
X137808361Y-66098383D01*
X137923350Y-66092837D01*
X137982727Y-66088210D01*
X138145896Y-66070766D01*
X138146191Y-66057811D01*
X138295468Y-66057811D01*
X138411046Y-66040320D01*
X138516546Y-66024076D01*
X138623000Y-66007286D01*
X138635404Y-66005293D01*
X138744183Y-65987758D01*
X138751848Y-65651760D01*
X138759512Y-65315762D01*
X138671698Y-65333325D01*
X138591803Y-65346992D01*
X138489193Y-65361652D01*
X138439676Y-65367836D01*
X138295468Y-65384785D01*
X138295468Y-65721298D01*
X138295468Y-66057811D01*
X138146191Y-66057811D01*
X138153563Y-65733813D01*
X138161229Y-65396861D01*
X138031186Y-65414771D01*
X137963130Y-65421275D01*
X137851753Y-65428631D01*
X137708108Y-65436254D01*
X137543243Y-65443560D01*
X137368211Y-65449962D01*
X137364044Y-65450098D01*
X136826945Y-65467514D01*
X136826945Y-65789536D01*
X136826945Y-66111558D01*
X136690971Y-66111558D01*
X136690971Y-65775636D01*
X136690971Y-65439714D01*
X136439419Y-65421941D01*
X136327033Y-65412056D01*
X136186979Y-65396834D01*
X136030803Y-65377856D01*
X135870054Y-65356702D01*
X135716280Y-65334950D01*
X135691403Y-65331130D01*
X136826945Y-65331130D01*
X137418434Y-65313595D01*
X137596964Y-65307633D01*
X137761028Y-65300898D01*
X137901436Y-65293866D01*
X138008994Y-65287016D01*
X138074512Y-65280824D01*
X138085622Y-65278944D01*
X138161322Y-65261827D01*
X138156676Y-65098633D01*
X138295449Y-65098633D01*
X138301705Y-65181869D01*
X138323705Y-65226977D01*
X138370917Y-65241856D01*
X138452810Y-65234402D01*
X138578852Y-65212511D01*
X138585585Y-65211336D01*
X138757781Y-65181349D01*
X138757781Y-64922093D01*
X138757781Y-64662837D01*
X138631608Y-64680131D01*
X138526914Y-64691156D01*
X138423300Y-64697094D01*
X138400452Y-64697425D01*
X138295468Y-64697425D01*
X138295468Y-64969374D01*
X138295449Y-65098633D01*
X138156676Y-65098633D01*
X138153609Y-64990923D01*
X138145896Y-64720018D01*
X137710778Y-64709489D01*
X137540371Y-64704610D01*
X137368498Y-64698375D01*
X137211714Y-64691471D01*
X137086572Y-64684583D01*
X137051303Y-64682153D01*
X136826945Y-64665348D01*
X136826945Y-64998239D01*
X136826945Y-65331130D01*
X135691403Y-65331130D01*
X135581030Y-65314182D01*
X135475852Y-65295977D01*
X135412293Y-65281915D01*
X135409404Y-65281033D01*
X135388240Y-65277588D01*
X135373908Y-65288719D01*
X135365084Y-65322802D01*
X135360446Y-65388212D01*
X135358671Y-65493325D01*
X135358423Y-65603795D01*
X135358423Y-65942738D01*
X134802245Y-65942738D01*
X134741507Y-65927229D01*
X134634136Y-65901539D01*
X134557276Y-65885077D01*
X134521080Y-65880143D01*
X134519717Y-65880599D01*
X134381596Y-65880599D01*
X134346544Y-65741785D01*
X134337826Y-65575586D01*
X134467650Y-65575586D01*
X134473602Y-65644748D01*
X134484175Y-65679217D01*
X134504614Y-65705747D01*
X134544366Y-65729063D01*
X134612877Y-65753887D01*
X134719594Y-65784946D01*
X134795432Y-65805702D01*
X134955988Y-65849901D01*
X135070756Y-65878728D01*
X135147191Y-65887921D01*
X135192747Y-65873217D01*
X135214880Y-65830357D01*
X135221044Y-65755077D01*
X135218693Y-65643118D01*
X135216487Y-65565008D01*
X135208851Y-65236016D01*
X134909708Y-65157756D01*
X134787477Y-65126409D01*
X134683503Y-65100917D01*
X134609712Y-65084131D01*
X134579283Y-65078824D01*
X134555100Y-65103262D01*
X134529847Y-65168718D01*
X134506000Y-65261934D01*
X134486034Y-65369656D01*
X134472426Y-65478625D01*
X134467650Y-65575586D01*
X134337826Y-65575586D01*
X134333965Y-65501972D01*
X134357476Y-65304973D01*
X134430085Y-65043435D01*
X134483875Y-64932755D01*
X134634477Y-64932755D01*
X134637059Y-64937447D01*
X134671101Y-64953358D01*
X134743131Y-64977177D01*
X134839352Y-65005262D01*
X134945969Y-65033970D01*
X135049184Y-65059657D01*
X135135202Y-65078682D01*
X135190225Y-65087401D01*
X135202052Y-65086629D01*
X135210675Y-65056186D01*
X135217494Y-64983581D01*
X135221624Y-64881034D01*
X135222449Y-64804600D01*
X135221124Y-64670918D01*
X135212645Y-64585597D01*
X135190255Y-64542611D01*
X135147200Y-64535931D01*
X135076721Y-64559531D01*
X134991292Y-64598388D01*
X134918495Y-64641142D01*
X134837782Y-64701765D01*
X134759089Y-64770747D01*
X134692351Y-64838579D01*
X134647502Y-64895752D01*
X134634477Y-64932755D01*
X134483875Y-64932755D01*
X134536486Y-64824501D01*
X134676717Y-64648124D01*
X134850816Y-64514260D01*
X134879665Y-64501584D01*
X135358423Y-64501584D01*
X135358423Y-64815231D01*
X135359323Y-64951704D01*
X135362933Y-65043209D01*
X135370622Y-65099153D01*
X135383755Y-65128942D01*
X135403701Y-65141981D01*
X135406014Y-65142695D01*
X135494020Y-65163099D01*
X135623177Y-65186517D01*
X135780459Y-65211200D01*
X135952835Y-65235400D01*
X136127278Y-65257370D01*
X136290757Y-65275362D01*
X136430246Y-65287628D01*
X136521003Y-65292264D01*
X136690971Y-65295712D01*
X136690941Y-64976172D01*
X136690912Y-64665348D01*
X136690911Y-64656633D01*
X136140245Y-64592308D01*
X135964951Y-64571846D01*
X135800765Y-64552708D01*
X135658098Y-64536105D01*
X135547359Y-64523249D01*
X135478958Y-64515351D01*
X135474001Y-64514784D01*
X135358423Y-64501584D01*
X134879665Y-64501584D01*
X135058819Y-64422864D01*
X135099826Y-64410929D01*
X135175656Y-64392694D01*
X135250694Y-64381006D01*
X135333732Y-64376118D01*
X135433558Y-64378280D01*
X135558962Y-64387743D01*
X135718734Y-64404757D01*
X135921663Y-64429573D01*
X135970307Y-64435764D01*
X136433228Y-64487883D01*
X136890107Y-64525646D01*
X137335240Y-64549137D01*
X137762925Y-64558442D01*
X138167457Y-64553646D01*
X138543133Y-64534833D01*
X138884249Y-64502090D01*
X139185101Y-64455500D01*
X139439986Y-64395149D01*
X139478542Y-64383462D01*
X139563775Y-64351556D01*
X139625674Y-64318884D01*
X139647348Y-64297963D01*
X139651803Y-64254231D01*
X139650451Y-64173025D01*
X139643629Y-64070910D01*
X139642432Y-64057748D01*
X139623376Y-63854384D01*
X137878426Y-63853436D01*
X137501729Y-63852976D01*
X137175601Y-63851986D01*
X136896223Y-63850391D01*
X136659776Y-63848115D01*
X136462442Y-63845084D01*
X136300402Y-63841222D01*
X136169836Y-63836454D01*
X136066926Y-63830706D01*
X135987854Y-63823902D01*
X135928799Y-63815967D01*
X135923358Y-63815022D01*
X135814424Y-63798438D01*
X135719580Y-63789028D01*
X135657023Y-63788512D01*
X135651409Y-63789334D01*
X135611120Y-63795652D01*
X135621645Y-63787318D01*
X135642513Y-63777927D01*
X135676616Y-63759643D01*
X135663349Y-63747157D01*
X135629384Y-63737467D01*
X135569211Y-63733695D01*
X135537018Y-63746496D01*
X135493613Y-63770909D01*
X135482160Y-63772383D01*
X135474704Y-63761321D01*
X135488886Y-63749587D01*
X135507101Y-63720161D01*
X135481123Y-63690742D01*
X135420894Y-63666593D01*
X135336355Y-63652978D01*
X135303975Y-63651685D01*
X135231275Y-63647026D01*
X135190214Y-63636531D01*
X135186547Y-63628921D01*
X135219661Y-63618385D01*
X135251932Y-63623954D01*
X135296702Y-63632437D01*
X135298022Y-63618946D01*
X135259129Y-63589416D01*
X135221650Y-63568425D01*
X135157450Y-63544540D01*
X135111321Y-63543382D01*
X135108669Y-63544734D01*
X135091178Y-63547406D01*
X135100331Y-63527626D01*
X135106397Y-63503106D01*
X135078723Y-63508442D01*
X135046898Y-63509986D01*
X135048118Y-63490713D01*
X135036820Y-63455037D01*
X134999142Y-63427706D01*
X134914489Y-63374094D01*
X134815435Y-63289400D01*
X134716793Y-63188418D01*
X134633378Y-63085944D01*
X134591748Y-63020817D01*
X134547141Y-62922273D01*
X134512967Y-62807596D01*
X134488432Y-62669813D01*
X134472739Y-62501952D01*
X134465094Y-62297041D01*
X134464701Y-62048107D01*
X134466607Y-61923549D01*
X134468452Y-61839101D01*
X134627137Y-61839101D01*
X134628743Y-62080993D01*
X134629158Y-62114526D01*
X134631996Y-62322107D01*
X134634996Y-62483163D01*
X134638936Y-62605557D01*
X134644594Y-62697150D01*
X134652748Y-62765803D01*
X134664176Y-62819379D01*
X134679657Y-62865740D01*
X134699968Y-62912746D01*
X134710374Y-62935103D01*
X134761428Y-63028827D01*
X134823674Y-63106020D01*
X134912121Y-63183666D01*
X134966059Y-63224448D01*
X135268348Y-63415472D01*
X135588979Y-63559712D01*
X135920736Y-63654338D01*
X136150059Y-63689000D01*
X136229233Y-63693945D01*
X136355045Y-63698361D01*
X136522010Y-63702247D01*
X136724643Y-63705603D01*
X136957460Y-63708428D01*
X137214978Y-63710720D01*
X137491711Y-63712480D01*
X137782176Y-63713706D01*
X138080888Y-63714398D01*
X138382364Y-63714555D01*
X138681118Y-63714175D01*
X138971667Y-63713259D01*
X139248526Y-63711805D01*
X139506211Y-63709813D01*
X139739238Y-63707281D01*
X139942122Y-63704209D01*
X140109379Y-63700597D01*
X140235526Y-63696443D01*
X140315077Y-63691747D01*
X140333299Y-63689608D01*
X140549369Y-63637518D01*
X140724655Y-63556450D01*
X140866408Y-63442936D01*
X140880779Y-63427762D01*
X140958852Y-63331617D01*
X141021593Y-63225830D01*
X141070258Y-63103971D01*
X141106098Y-62959610D01*
X141130369Y-62786316D01*
X141144323Y-62577658D01*
X141149214Y-62327207D01*
X141146935Y-62062483D01*
X141143458Y-61878679D01*
X141139717Y-61740080D01*
X141134511Y-61637507D01*
X141126637Y-61561781D01*
X141114894Y-61503727D01*
X141098081Y-61454165D01*
X141074997Y-61403917D01*
X141055746Y-61365930D01*
X141014093Y-61291281D01*
X140967895Y-61226570D01*
X140911339Y-61168467D01*
X140838610Y-61113645D01*
X140743895Y-61058774D01*
X140621380Y-61000525D01*
X140465249Y-60935570D01*
X140269689Y-60860579D01*
X140028886Y-60772224D01*
X140001415Y-60762280D01*
X139790756Y-60686327D01*
X139624671Y-60627330D01*
X139496679Y-60583491D01*
X139400299Y-60553012D01*
X139329052Y-60534097D01*
X139276455Y-60524948D01*
X139236029Y-60523768D01*
X139201292Y-60528761D01*
X139179301Y-60534296D01*
X139103034Y-60555277D01*
X138993716Y-60585285D01*
X138870755Y-60618992D01*
X138825768Y-60631313D01*
X138512143Y-60702620D01*
X138157221Y-60757475D01*
X137771824Y-60794976D01*
X137366775Y-60814221D01*
X136952896Y-60814306D01*
X136730351Y-60806109D01*
X136539741Y-60796185D01*
X136388910Y-60787105D01*
X136263296Y-60777416D01*
X136148336Y-60765666D01*
X136029470Y-60750401D01*
X135892134Y-60730169D01*
X135755837Y-60708905D01*
X135561598Y-60683184D01*
X135407456Y-60675811D01*
X135281834Y-60688169D01*
X135173153Y-60721639D01*
X135069835Y-60777603D01*
X135045821Y-60793658D01*
X134913382Y-60907810D01*
X134793517Y-61053017D01*
X134699861Y-61210647D01*
X134654146Y-61328896D01*
X134642122Y-61395911D01*
X134633699Y-61500594D01*
X134628746Y-61646979D01*
X134627137Y-61839101D01*
X134468452Y-61839101D01*
X134470817Y-61730897D01*
X134475650Y-61583432D01*
X134482049Y-61471950D01*
X134490958Y-61387250D01*
X134503321Y-61320129D01*
X134520081Y-61261384D01*
X134540074Y-61207137D01*
X134646066Y-61004721D01*
X134790954Y-60826117D01*
X134965319Y-60680177D01*
X135159742Y-60575755D01*
X135242173Y-60547258D01*
X135309661Y-60529255D01*
X135368764Y-60519829D01*
X135433218Y-60519345D01*
X135516758Y-60528168D01*
X135633119Y-60546664D01*
X135707856Y-60559646D01*
X135968240Y-60602675D01*
X136202366Y-60634639D01*
X136426926Y-60656923D01*
X136658616Y-60670912D01*
X136914129Y-60677992D01*
X137153284Y-60679614D01*
X137511276Y-60674368D01*
X137830467Y-60657487D01*
X138125517Y-60627331D01*
X138411089Y-60582260D01*
X138701844Y-60520637D01*
X138808645Y-60494579D01*
X138941490Y-60460619D01*
X139054197Y-60430751D01*
X139136859Y-60407680D01*
X139179566Y-60394112D01*
X139183095Y-60392311D01*
X139189781Y-60358982D01*
X139194245Y-60281430D01*
X139196628Y-60169770D01*
X139197072Y-60034117D01*
X139195721Y-59884585D01*
X139192715Y-59731289D01*
X139188199Y-59584345D01*
X139182312Y-59453868D01*
X139175199Y-59349973D01*
X139167531Y-59285648D01*
X139081493Y-58941187D01*
X138952840Y-58629398D01*
X138782601Y-58351608D01*
X138571805Y-58109145D01*
X138321484Y-57903336D01*
X138032666Y-57735507D01*
X137928337Y-57688369D01*
X137753632Y-57618912D01*
X137617828Y-57575798D01*
X137513116Y-57557502D01*
X137431689Y-57562500D01*
X137379894Y-57581288D01*
X137259242Y-57631064D01*
X137102117Y-57677776D01*
X136926423Y-57717127D01*
X136750061Y-57744820D01*
X136663717Y-57753208D01*
X136347738Y-57749237D01*
X136028574Y-57692902D01*
X135834333Y-57632892D01*
X135707247Y-57591441D01*
X135604140Y-57572187D01*
X135506718Y-57575717D01*
X135396687Y-57602616D01*
X135261490Y-57651248D01*
X134960420Y-57795995D01*
X134690029Y-57983766D01*
X134453490Y-58210662D01*
X134253974Y-58472785D01*
X134094655Y-58766238D01*
X133978703Y-59087123D01*
X133932581Y-59284221D01*
X133926389Y-59321788D01*
X133920814Y-59367722D01*
X133915826Y-59424855D01*
X133911392Y-59496021D01*
X133907482Y-59584053D01*
X133904063Y-59691783D01*
X133901105Y-59822044D01*
X133898576Y-59977670D01*
X133896443Y-60161493D01*
X133894677Y-60376346D01*
X133893245Y-60625063D01*
X133892115Y-60910476D01*
X133891256Y-61235417D01*
X133890638Y-61602721D01*
X133890227Y-62015220D01*
X133889993Y-62475747D01*
X133889904Y-62987135D01*
X133889900Y-63120842D01*
X133889900Y-66732469D01*
X133753773Y-66732469D01*
X133747127Y-63380809D01*
X133746341Y-62948158D01*
X133745713Y-62527217D01*
X133745243Y-62121562D01*
X133744929Y-61734768D01*
X133744770Y-61370410D01*
X133744763Y-61032063D01*
X133744908Y-60723303D01*
X133745202Y-60447705D01*
X133745644Y-60208844D01*
X133746232Y-60010296D01*
X133746966Y-59855636D01*
X133747842Y-59748438D01*
X133748792Y-59694233D01*
X133785484Y-59318492D01*
X133868856Y-58966700D01*
X133996967Y-58641541D01*
X134167877Y-58345703D01*
X134379645Y-58081868D01*
X134630329Y-57852724D01*
X134917989Y-57660956D01*
X135240685Y-57509249D01*
X135358423Y-57467144D01*
X135453006Y-57433953D01*
X135512358Y-57402533D01*
X135515936Y-57398644D01*
X135705544Y-57398644D01*
X135725284Y-57434946D01*
X135771951Y-57462421D01*
X135835547Y-57486869D01*
X135883831Y-57479656D01*
X135908571Y-57465999D01*
X135952392Y-57446267D01*
X135986032Y-57461540D01*
X136018155Y-57501164D01*
X136069373Y-57548939D01*
X136125831Y-57571681D01*
X136171870Y-57567166D01*
X136191830Y-57533167D01*
X136191790Y-57531579D01*
X136255853Y-57531579D01*
X136269451Y-57545177D01*
X136283048Y-57531579D01*
X136269451Y-57517982D01*
X136255853Y-57531579D01*
X136191790Y-57531579D01*
X136191643Y-57525822D01*
X136207538Y-57483573D01*
X136248087Y-57469463D01*
X136289204Y-57487497D01*
X136301621Y-57507542D01*
X136301963Y-57553732D01*
X136284864Y-57567234D01*
X136264337Y-57582482D01*
X136286770Y-57602442D01*
X136340489Y-57617094D01*
X136433858Y-57624313D01*
X136552695Y-57624427D01*
X136682817Y-57617766D01*
X136810042Y-57604659D01*
X136908530Y-57588014D01*
X137032940Y-57557153D01*
X137164428Y-57518089D01*
X137239447Y-57492181D01*
X137324147Y-57458749D01*
X137367865Y-57433122D01*
X137380788Y-57404673D01*
X137373103Y-57362774D01*
X137370906Y-57355034D01*
X137305338Y-57220600D01*
X137192727Y-57112381D01*
X137142544Y-57080750D01*
X137079577Y-57046980D01*
X137033208Y-57034548D01*
X136981125Y-57042614D01*
X136901015Y-57070336D01*
X136897790Y-57071520D01*
X136761113Y-57104781D01*
X136594921Y-57120371D01*
X136421075Y-57118225D01*
X136261434Y-57098277D01*
X136169904Y-57073708D01*
X136064994Y-57045476D01*
X135988665Y-57049225D01*
X135977202Y-57053048D01*
X135890554Y-57105578D01*
X135805252Y-57188162D01*
X135739597Y-57280931D01*
X135716415Y-57336191D01*
X135705544Y-57398644D01*
X135515936Y-57398644D01*
X135553101Y-57358243D01*
X135591860Y-57286444D01*
X135611809Y-57244000D01*
X135647005Y-57171681D01*
X135680824Y-57117067D01*
X135723385Y-57070565D01*
X135784810Y-57022583D01*
X135875218Y-56963528D01*
X135968298Y-56906097D01*
X135980897Y-56889848D01*
X135981649Y-56887777D01*
X136158664Y-56887777D01*
X136158894Y-56913385D01*
X136191527Y-56928626D01*
X136258444Y-56951251D01*
X136303004Y-56964429D01*
X136437853Y-56986209D01*
X136596186Y-56987764D01*
X136751393Y-56970059D01*
X136850022Y-56944620D01*
X136910467Y-56917481D01*
X136930660Y-56883682D01*
X136925867Y-56836411D01*
X136919171Y-56792724D01*
X136906750Y-56701544D01*
X136889436Y-56569367D01*
X136868062Y-56402693D01*
X136843460Y-56208020D01*
X136816464Y-55991846D01*
X136787906Y-55760671D01*
X136786032Y-55745412D01*
X136757493Y-55514174D01*
X136730547Y-55298105D01*
X136706011Y-55103597D01*
X136684704Y-54937040D01*
X136667443Y-54804824D01*
X136655047Y-54713341D01*
X136648334Y-54668981D01*
X136648083Y-54667733D01*
X136631233Y-54626446D01*
X136593285Y-54611611D01*
X136533684Y-54613343D01*
X136432620Y-54621729D01*
X136411839Y-54798496D01*
X136403483Y-54867121D01*
X136389150Y-54982070D01*
X136369804Y-55135723D01*
X136346410Y-55320459D01*
X136319933Y-55528658D01*
X136291337Y-55752698D01*
X136267728Y-55937076D01*
X136239649Y-56159510D01*
X136214615Y-56364570D01*
X136193312Y-56546093D01*
X136176427Y-56697912D01*
X136164649Y-56813861D01*
X136158664Y-56887777D01*
X135981649Y-56887777D01*
X135994104Y-56853466D01*
X136008639Y-56792482D01*
X136025221Y-56702424D01*
X136044570Y-56578823D01*
X136067406Y-56417206D01*
X136094447Y-56213103D01*
X136126414Y-55962044D01*
X136147749Y-55791108D01*
X136177617Y-55551794D01*
X136205897Y-55327682D01*
X136231792Y-55124899D01*
X136254507Y-54949572D01*
X136273245Y-54807827D01*
X136287211Y-54705793D01*
X136295609Y-54649596D01*
X136297022Y-54642157D01*
X136294761Y-54595129D01*
X136261612Y-54539922D01*
X136191035Y-54465390D01*
X136099479Y-54349781D01*
X136283048Y-54349781D01*
X136296646Y-54363378D01*
X136310243Y-54349781D01*
X136296646Y-54336183D01*
X136283048Y-54349781D01*
X136099479Y-54349781D01*
X136084053Y-54330303D01*
X136027569Y-54183328D01*
X136025263Y-54116678D01*
X136153653Y-54116678D01*
X136175037Y-54227797D01*
X136183264Y-54245700D01*
X136220985Y-54301688D01*
X136267133Y-54318420D01*
X136308628Y-54315026D01*
X136367713Y-54312590D01*
X136389724Y-54334004D01*
X136391411Y-54353493D01*
X136386914Y-54386933D01*
X136368613Y-54369434D01*
X136364633Y-54363378D01*
X136342853Y-54342724D01*
X136337854Y-54354637D01*
X136359851Y-54414773D01*
X136419172Y-54453073D01*
X136503054Y-54468900D01*
X136598733Y-54461617D01*
X136693447Y-54430586D01*
X136773198Y-54376360D01*
X136858829Y-54262231D01*
X136897123Y-54137797D01*
X136890656Y-54013373D01*
X136842006Y-53899271D01*
X136753749Y-53805806D01*
X136628464Y-53743290D01*
X136613969Y-53739130D01*
X136532354Y-53723132D01*
X136463786Y-53729892D01*
X136380209Y-53761414D01*
X136297573Y-53808297D01*
X136231214Y-53863630D01*
X136214906Y-53883888D01*
X136167624Y-53994251D01*
X136153653Y-54116678D01*
X136025263Y-54116678D01*
X136022304Y-54031136D01*
X136068977Y-53880397D01*
X136118937Y-53797902D01*
X136227800Y-53689274D01*
X136359469Y-53622120D01*
X136503125Y-53595855D01*
X136647951Y-53609889D01*
G37*
D10*
X125044256Y-57379925D02*
X125061612Y-57430903D01*
X125036137Y-58681284D01*
X124436959Y-58649882D01*
X124508306Y-58052798D01*
X124534432Y-57363220D01*
X125044256Y-57379925D01*
G36*
X125044256Y-57379925D02*
G01*
X125061612Y-57430903D01*
X125036137Y-58681284D01*
X124436959Y-58649882D01*
X124508306Y-58052798D01*
X124534432Y-57363220D01*
X125044256Y-57379925D01*
G37*
X125883105Y-57423887D02*
X125899937Y-57484852D01*
X125886938Y-58115035D01*
X125874986Y-58725246D01*
X125245849Y-58692274D01*
X125272498Y-57992710D01*
X125283446Y-57592735D01*
X125273418Y-57401949D01*
X125883105Y-57423887D01*
G36*
X125883105Y-57423887D02*
G01*
X125899937Y-57484852D01*
X125886938Y-58115035D01*
X125874986Y-58725246D01*
X125245849Y-58692274D01*
X125272498Y-57992710D01*
X125283446Y-57592735D01*
X125273418Y-57401949D01*
X125883105Y-57423887D01*
G37*
X124986828Y-56756065D02*
X125005230Y-56787070D01*
X125041554Y-57049331D01*
X125045260Y-57169690D01*
X124536483Y-57133012D01*
X124526411Y-56751963D01*
X124777116Y-56745074D01*
X124947406Y-56743985D01*
X124986828Y-56756065D01*
G36*
X124986828Y-56756065D02*
G01*
X125005230Y-56787070D01*
X125041554Y-57049331D01*
X125045260Y-57169690D01*
X124536483Y-57133012D01*
X124526411Y-56751963D01*
X124777116Y-56745074D01*
X124947406Y-56743985D01*
X124986828Y-56756065D01*
G37*
X125517148Y-56763830D02*
X125796241Y-56788470D01*
X125825677Y-56800027D01*
X125864094Y-57022342D01*
X125864660Y-57202619D01*
X125455222Y-57181161D01*
X125256019Y-57160708D01*
X125237009Y-56759162D01*
X125517148Y-56763830D01*
G36*
X125517148Y-56763830D02*
G01*
X125796241Y-56788470D01*
X125825677Y-56800027D01*
X125864094Y-57022342D01*
X125864660Y-57202619D01*
X125455222Y-57181161D01*
X125256019Y-57160708D01*
X125237009Y-56759162D01*
X125517148Y-56763830D01*
G37*
X124702785Y-60456270D02*
X124690182Y-60505678D01*
X124606147Y-60771645D01*
X124556781Y-60949304D01*
X124525776Y-60967707D01*
X124496863Y-60946164D01*
X124431146Y-60862610D01*
X124345980Y-60768023D01*
X124254491Y-60603009D01*
X124202947Y-60440088D01*
X124702785Y-60456270D01*
G36*
X124702785Y-60456270D02*
G01*
X124690182Y-60505678D01*
X124606147Y-60771645D01*
X124556781Y-60949304D01*
X124525776Y-60967707D01*
X124496863Y-60946164D01*
X124431146Y-60862610D01*
X124345980Y-60768023D01*
X124254491Y-60603009D01*
X124202947Y-60440088D01*
X124702785Y-60456270D01*
G37*
X126375970Y-56808839D02*
X126465323Y-56823536D01*
X126484249Y-56844555D01*
X126515297Y-57016415D01*
X126535835Y-57197739D01*
X126533218Y-57247670D01*
X126083835Y-57224119D01*
X126054838Y-56822050D01*
X126065871Y-56802601D01*
X126256134Y-56802559D01*
X126375970Y-56808839D01*
G36*
X126375970Y-56808839D02*
G01*
X126465323Y-56823536D01*
X126484249Y-56844555D01*
X126515297Y-57016415D01*
X126535835Y-57197739D01*
X126533218Y-57247670D01*
X126083835Y-57224119D01*
X126054838Y-56822050D01*
X126065871Y-56802601D01*
X126256134Y-56802559D01*
X126375970Y-56808839D01*
G37*
X126080894Y-60528494D02*
X126160261Y-60542667D01*
X126169200Y-60563163D01*
X126101432Y-60709817D01*
X125951680Y-60892230D01*
X125794558Y-61024187D01*
X125680522Y-61098321D01*
X125578043Y-61143019D01*
X125559117Y-61121999D01*
X125570673Y-61092564D01*
X125750822Y-60521209D01*
X126080894Y-60528494D01*
G36*
X126080894Y-60528494D02*
G01*
X126160261Y-60542667D01*
X126169200Y-60563163D01*
X126101432Y-60709817D01*
X125951680Y-60892230D01*
X125794558Y-61024187D01*
X125680522Y-61098321D01*
X125578043Y-61143019D01*
X125559117Y-61121999D01*
X125570673Y-61092564D01*
X125750822Y-60521209D01*
X126080894Y-60528494D01*
G37*
X126502072Y-58988426D02*
X126503161Y-59158716D01*
X126431248Y-59575524D01*
X126327807Y-60020720D01*
X126263221Y-60297720D01*
X125833287Y-60285201D01*
X125954042Y-59700720D01*
X126011781Y-59363280D01*
X126034852Y-59114146D01*
X126061105Y-58995357D01*
X126082124Y-58976431D01*
X126502072Y-58988426D01*
G36*
X126502072Y-58988426D02*
G01*
X126503161Y-59158716D01*
X126431248Y-59575524D01*
X126327807Y-60020720D01*
X126263221Y-60297720D01*
X125833287Y-60285201D01*
X125954042Y-59700720D01*
X126011781Y-59363280D01*
X126034852Y-59114146D01*
X126061105Y-58995357D01*
X126082124Y-58976431D01*
X126502072Y-58988426D01*
G37*
X125793045Y-58951267D02*
X125832466Y-58963347D01*
X125850346Y-59004339D01*
X125761120Y-59560431D01*
X125614635Y-60253715D01*
X125004948Y-60231776D01*
X125115193Y-59656758D01*
X125186582Y-59249937D01*
X125218592Y-59021299D01*
X125232765Y-58941932D01*
X125463497Y-58933996D01*
X125793045Y-58951267D01*
G36*
X125793045Y-58951267D02*
G01*
X125832466Y-58963347D01*
X125850346Y-59004339D01*
X125761120Y-59560431D01*
X125614635Y-60253715D01*
X125004948Y-60231776D01*
X125115193Y-59656758D01*
X125186582Y-59249937D01*
X125218592Y-59021299D01*
X125232765Y-58941932D01*
X125463497Y-58933996D01*
X125793045Y-58951267D01*
G37*
X126482283Y-57455289D02*
X126531691Y-57467892D01*
X126570066Y-57499944D01*
X126577435Y-57550399D01*
X126589077Y-57901490D01*
X126576559Y-58331424D01*
X126553531Y-58770821D01*
X126074189Y-58745699D01*
X126107118Y-57926300D01*
X126103893Y-57605692D01*
X126092294Y-57444864D01*
X126482283Y-57455289D01*
G36*
X126482283Y-57455289D02*
G01*
X126531691Y-57467892D01*
X126570066Y-57499944D01*
X126577435Y-57550399D01*
X126589077Y-57901490D01*
X126576559Y-58331424D01*
X126553531Y-58770821D01*
X126074189Y-58745699D01*
X126107118Y-57926300D01*
X126103893Y-57605692D01*
X126092294Y-57444864D01*
X126482283Y-57455289D01*
G37*
X125531647Y-60499709D02*
X125528507Y-60559627D01*
X125348358Y-61130981D01*
X125306843Y-61158847D01*
X125206456Y-61163599D01*
X124987804Y-61132113D01*
X124800682Y-61072238D01*
X124781756Y-61051218D01*
X124773863Y-61010750D01*
X124919343Y-60527702D01*
X124951395Y-60489327D01*
X125012360Y-60472494D01*
X125531647Y-60499709D01*
G36*
X125531647Y-60499709D02*
G01*
X125528507Y-60559627D01*
X125348358Y-61130981D01*
X125306843Y-61158847D01*
X125206456Y-61163599D01*
X124987804Y-61132113D01*
X124800682Y-61072238D01*
X124781756Y-61051218D01*
X124773863Y-61010750D01*
X124919343Y-60527702D01*
X124951395Y-60489327D01*
X125012360Y-60472494D01*
X125531647Y-60499709D01*
G37*
G36*
X121938277Y-59124193D02*
G01*
X122091808Y-59138978D01*
X122091185Y-59278903D01*
X122088074Y-59353825D01*
X122080607Y-59408396D01*
X122071972Y-59428845D01*
X122040816Y-59434333D01*
X121979043Y-59438320D01*
X121917078Y-59439737D01*
X121780775Y-59440613D01*
X121782759Y-59275011D01*
X121784745Y-59109409D01*
X121938277Y-59124193D01*
G37*
G36*
X122085278Y-56338628D02*
G01*
X122237798Y-56353337D01*
X122237247Y-56490498D01*
X122234354Y-56565724D01*
X122227405Y-56621544D01*
X122219800Y-56642873D01*
X122189865Y-56649691D01*
X122128690Y-56652308D01*
X122059467Y-56650571D01*
X121916034Y-56643054D01*
X121924396Y-56483487D01*
X121932759Y-56323920D01*
X122085278Y-56338628D01*
G37*
X124924237Y-58905735D02*
X124983631Y-58918861D01*
X125002034Y-58949867D01*
X125009927Y-58990335D01*
X124920177Y-59556414D01*
X124815166Y-60031569D01*
X124765277Y-60219216D01*
X124195535Y-60199370D01*
X124199722Y-60119480D01*
X124301551Y-59513980D01*
X124383973Y-59087709D01*
X124403380Y-58908479D01*
X124704015Y-58904207D01*
X124924237Y-58905735D01*
G36*
X124924237Y-58905735D02*
G01*
X124983631Y-58918861D01*
X125002034Y-58949867D01*
X125009927Y-58990335D01*
X124920177Y-59556414D01*
X124815166Y-60031569D01*
X124765277Y-60219216D01*
X124195535Y-60199370D01*
X124199722Y-60119480D01*
X124301551Y-59513980D01*
X124383973Y-59087709D01*
X124403380Y-58908479D01*
X124704015Y-58904207D01*
X124924237Y-58905735D01*
G37*
G36*
X122099525Y-54315328D02*
G01*
X122250676Y-54322928D01*
X122394040Y-54335347D01*
X122516469Y-54352025D01*
X122570713Y-54362950D01*
X122747300Y-54426772D01*
X122913558Y-54528044D01*
X123059732Y-54658866D01*
X123176063Y-54811337D01*
X123216654Y-54886118D01*
X123236884Y-54928710D01*
X123254562Y-54968113D01*
X123269703Y-55007394D01*
X123282320Y-55049620D01*
X123292426Y-55097862D01*
X123300036Y-55155189D01*
X123305163Y-55224667D01*
X123307820Y-55309367D01*
X123308020Y-55412358D01*
X123305778Y-55536706D01*
X123301107Y-55685483D01*
X123294018Y-55861755D01*
X123284528Y-56068592D01*
X123272650Y-56309062D01*
X123258395Y-56586234D01*
X123241780Y-56903176D01*
X123226778Y-57187745D01*
X123125858Y-59102331D01*
X123059218Y-59269161D01*
X122960068Y-59459299D01*
X122827431Y-59621215D01*
X122665282Y-59751109D01*
X122477593Y-59845175D01*
X122445236Y-59856722D01*
X122387748Y-59873099D01*
X122323716Y-59883906D01*
X122243832Y-59889770D01*
X122138794Y-59891318D01*
X121999297Y-59889177D01*
X121973042Y-59888531D01*
X121842303Y-59883374D01*
X121824733Y-59882680D01*
X121687644Y-59873420D01*
X121572869Y-59861689D01*
X121491502Y-59848426D01*
X121486941Y-59847368D01*
X121294757Y-59778941D01*
X121123573Y-59673262D01*
X120977990Y-59535367D01*
X120862612Y-59370294D01*
X120782038Y-59183078D01*
X120748420Y-59039069D01*
X120745721Y-58990986D01*
X120745721Y-58978337D01*
X120855326Y-58978337D01*
X120857700Y-59041319D01*
X120863116Y-59089484D01*
X120871810Y-59128933D01*
X120884018Y-59165768D01*
X120899976Y-59206087D01*
X120900567Y-59207543D01*
X120946304Y-59297046D01*
X121010434Y-59394673D01*
X121068632Y-59467281D01*
X121164065Y-59562051D01*
X121263606Y-59635838D01*
X121374524Y-59691094D01*
X121504089Y-59730271D01*
X121659570Y-59755822D01*
X121848234Y-59770200D01*
X121979020Y-59774456D01*
X122150094Y-59775430D01*
X122280541Y-59770141D01*
X122374696Y-59758337D01*
X122411828Y-59749210D01*
X122557407Y-59684127D01*
X122698200Y-59584920D01*
X122823422Y-59461771D01*
X122922288Y-59324861D01*
X122972426Y-59219902D01*
X122985781Y-59171469D01*
X122997942Y-59100057D01*
X123009373Y-59001033D01*
X123020542Y-58869766D01*
X123031917Y-58701625D01*
X123041830Y-58531050D01*
X123074221Y-57943160D01*
X123052735Y-57919815D01*
X122927710Y-57783966D01*
X122806978Y-57666228D01*
X122679643Y-57572842D01*
X122595039Y-57523474D01*
X122592036Y-57521985D01*
X122899867Y-57521985D01*
X122901072Y-57545075D01*
X122927424Y-57578268D01*
X122981449Y-57630795D01*
X123015988Y-57663705D01*
X123063759Y-57709470D01*
X123071658Y-57558751D01*
X123073304Y-57482776D01*
X123070025Y-57428525D01*
X123062539Y-57407751D01*
X123035579Y-57420063D01*
X122987269Y-57451476D01*
X122962803Y-57469180D01*
X122921285Y-57499764D01*
X122899867Y-57521985D01*
X122592036Y-57521985D01*
X122437257Y-57445227D01*
X122294990Y-57393889D01*
X122151029Y-57364962D01*
X121988164Y-57353947D01*
X121944637Y-57353470D01*
X121697776Y-57373154D01*
X121469715Y-57433979D01*
X121276482Y-57528000D01*
X121258802Y-57536603D01*
X121063388Y-57681678D01*
X121021218Y-57720398D01*
X120923604Y-57813345D01*
X120896892Y-57838780D01*
X120871544Y-58456239D01*
X120864104Y-58639490D01*
X120858764Y-58783524D01*
X120855759Y-58894439D01*
X120855326Y-58978337D01*
X120745721Y-58978337D01*
X120745718Y-58902295D01*
X120748188Y-58777160D01*
X120752908Y-58619740D01*
X120759652Y-58434200D01*
X120768198Y-58224700D01*
X120778320Y-57995404D01*
X120789797Y-57750472D01*
X120797517Y-57593439D01*
X120935128Y-57593439D01*
X121029235Y-57523282D01*
X121082251Y-57481629D01*
X121115956Y-57451046D01*
X121122425Y-57441722D01*
X121106889Y-57420914D01*
X121068103Y-57380054D01*
X121036833Y-57349441D01*
X120952154Y-57268562D01*
X120943641Y-57431001D01*
X120935128Y-57593439D01*
X120797517Y-57593439D01*
X120802402Y-57494067D01*
X120815912Y-57230351D01*
X120830105Y-56963487D01*
X120840776Y-56769835D01*
X120959459Y-56769835D01*
X120961043Y-56882801D01*
X120969985Y-56971260D01*
X120987697Y-57042128D01*
X121015586Y-57102317D01*
X121055065Y-57158743D01*
X121107543Y-57218320D01*
X121137278Y-57249561D01*
X121191039Y-57302756D01*
X121237238Y-57336652D01*
X121285693Y-57352240D01*
X121346233Y-57350509D01*
X121428677Y-57332449D01*
X121542850Y-57299049D01*
X121564060Y-57292550D01*
X121796241Y-57244628D01*
X122036129Y-57239720D01*
X122278412Y-57277393D01*
X122517776Y-57357211D01*
X122554751Y-57373546D01*
X122649409Y-57410692D01*
X122722922Y-57427285D01*
X122750262Y-57426625D01*
X122824046Y-57395172D01*
X122907370Y-57332751D01*
X122989239Y-57248839D01*
X123048188Y-57169704D01*
X123120176Y-57058161D01*
X123146594Y-56558148D01*
X123173011Y-56058135D01*
X123108977Y-55949510D01*
X122981605Y-55776597D01*
X122820700Y-55627706D01*
X122633585Y-55507165D01*
X122427584Y-55419302D01*
X122210021Y-55368444D01*
X122109079Y-55358719D01*
X121892603Y-55368962D01*
X121677983Y-55419554D01*
X121473666Y-55506543D01*
X121288096Y-55625982D01*
X121129718Y-55773919D01*
X121073890Y-55842856D01*
X121019542Y-55916251D01*
X120998853Y-55944192D01*
X120972725Y-56442728D01*
X120963822Y-56625449D01*
X120959459Y-56769835D01*
X120840776Y-56769835D01*
X120844755Y-56697635D01*
X120859638Y-56436959D01*
X120874532Y-56185620D01*
X120889211Y-55947780D01*
X120903452Y-55727602D01*
X120907138Y-55673758D01*
X121032251Y-55673758D01*
X121178811Y-55551673D01*
X121382324Y-55410671D01*
X121603681Y-55310510D01*
X121838837Y-55252542D01*
X122083750Y-55238114D01*
X122113931Y-55239390D01*
X122362737Y-55272662D01*
X122591007Y-55345696D01*
X122801711Y-55459819D01*
X122997820Y-55616357D01*
X123032000Y-55649340D01*
X123169025Y-55785189D01*
X123178271Y-55458277D01*
X123181417Y-55327480D01*
X123181558Y-55231860D01*
X123177623Y-55161281D01*
X123168541Y-55105603D01*
X123153244Y-55054690D01*
X123130659Y-54998403D01*
X123129406Y-54995469D01*
X123041139Y-54840143D01*
X122919168Y-54698627D01*
X122775136Y-54583815D01*
X122736833Y-54560674D01*
X122608081Y-54487837D01*
X122166455Y-54464692D01*
X122013788Y-54456917D01*
X121898687Y-54452097D01*
X121813429Y-54450632D01*
X121750294Y-54452923D01*
X121701561Y-54459368D01*
X121659510Y-54470370D01*
X121616419Y-54486326D01*
X121597167Y-54494184D01*
X121420645Y-54589914D01*
X121274504Y-54718147D01*
X121163719Y-54872559D01*
X121131250Y-54932228D01*
X121107939Y-54982893D01*
X121091494Y-55034729D01*
X121079623Y-55097902D01*
X121070031Y-55182585D01*
X121060424Y-55298948D01*
X121056809Y-55346724D01*
X121032251Y-55673758D01*
X120907138Y-55673758D01*
X120917032Y-55529248D01*
X120929725Y-55356879D01*
X120941309Y-55214657D01*
X120951558Y-55106746D01*
X120960250Y-55037306D01*
X120964922Y-55014885D01*
X121050153Y-54820135D01*
X121169004Y-54650855D01*
X121316834Y-54511212D01*
X121489001Y-54405377D01*
X121680866Y-54337514D01*
X121730828Y-54327068D01*
X121826454Y-54316837D01*
X121953735Y-54313111D01*
X122099525Y-54315328D01*
G37*
G36*
X121647260Y-53914555D02*
G01*
X121836759Y-53920417D01*
X121969909Y-53925495D01*
X122232184Y-53937546D01*
X122454249Y-53952009D01*
X122641235Y-53970012D01*
X122798272Y-53992686D01*
X122930488Y-54021160D01*
X123043012Y-54056564D01*
X123140976Y-54100026D01*
X123229509Y-54152678D01*
X123313741Y-54215647D01*
X123323253Y-54223492D01*
X123458867Y-54364624D01*
X123563116Y-54536598D01*
X123636201Y-54740046D01*
X123678331Y-54975602D01*
X123689710Y-55243899D01*
X123686503Y-55344872D01*
X123675127Y-55577050D01*
X123966772Y-55592334D01*
X124103854Y-55601236D01*
X124199394Y-55611623D01*
X124257199Y-55624041D01*
X124279913Y-55637133D01*
X124300327Y-55681994D01*
X124325350Y-55762848D01*
X124352904Y-55870826D01*
X124380908Y-55997059D01*
X124407281Y-56132679D01*
X124429944Y-56268817D01*
X124433148Y-56290474D01*
X124450567Y-56403419D01*
X124465540Y-56479172D01*
X124480533Y-56525632D01*
X124498011Y-56550701D01*
X124517696Y-56561433D01*
X124554885Y-56567427D01*
X124629502Y-56574589D01*
X124735015Y-56582599D01*
X124864893Y-56591140D01*
X125012607Y-56599893D01*
X125171623Y-56608538D01*
X125335414Y-56616756D01*
X125497448Y-56624229D01*
X125651194Y-56630637D01*
X125790121Y-56635661D01*
X125907698Y-56638983D01*
X125997396Y-56640284D01*
X126052683Y-56639244D01*
X126067167Y-56637112D01*
X126087239Y-56607444D01*
X126109771Y-56546920D01*
X126127573Y-56478539D01*
X126158126Y-56362135D01*
X126194422Y-56263907D01*
X126232425Y-56193306D01*
X126262628Y-56162315D01*
X126293499Y-56158305D01*
X126361848Y-56156973D01*
X126459882Y-56158227D01*
X126579806Y-56161977D01*
X126700797Y-56167450D01*
X126851517Y-56175180D01*
X126963978Y-56182582D01*
X127045157Y-56192607D01*
X127102030Y-56208207D01*
X127141579Y-56232335D01*
X127170780Y-56267941D01*
X127196611Y-56317976D01*
X127226051Y-56385394D01*
X127228313Y-56390578D01*
X127310751Y-56610320D01*
X127383722Y-56867851D01*
X127446103Y-57156376D01*
X127496774Y-57469103D01*
X127534610Y-57799238D01*
X127558491Y-58139986D01*
X127567060Y-58441894D01*
X127567819Y-58601916D01*
X127566668Y-58734064D01*
X127562969Y-58853170D01*
X127556084Y-58974073D01*
X127545376Y-59111605D01*
X127531642Y-59265099D01*
X127485371Y-59638056D01*
X127417124Y-60004177D01*
X127328746Y-60358682D01*
X127222079Y-60696797D01*
X127098969Y-61013743D01*
X126961259Y-61304740D01*
X126810796Y-61565014D01*
X126649420Y-61789785D01*
X126489825Y-61964051D01*
X126416342Y-62034006D01*
X126375714Y-62031873D01*
X122621689Y-61834718D01*
X122127318Y-61808764D01*
X121676085Y-61785055D01*
X121265833Y-61763424D01*
X120894409Y-61743703D01*
X120559658Y-61725725D01*
X120259423Y-61709321D01*
X119991550Y-61694322D01*
X119753882Y-61680560D01*
X119544267Y-61667869D01*
X119360547Y-61656079D01*
X119200568Y-61645023D01*
X119062175Y-61634533D01*
X118943212Y-61624440D01*
X118841524Y-61614576D01*
X118754956Y-61604774D01*
X118681353Y-61594865D01*
X118618560Y-61584681D01*
X118564421Y-61574054D01*
X118516781Y-61562817D01*
X118473485Y-61550800D01*
X118432379Y-61537836D01*
X118391305Y-61523758D01*
X118348110Y-61508396D01*
X118323192Y-61499526D01*
X118018090Y-61369049D01*
X117738641Y-61204201D01*
X117487444Y-61007774D01*
X117267100Y-60782563D01*
X117080211Y-60531362D01*
X116929379Y-60256962D01*
X116817203Y-59962159D01*
X116786094Y-59848789D01*
X116760577Y-59749403D01*
X116738582Y-59683992D01*
X116714959Y-59645097D01*
X116713302Y-59642367D01*
X116689266Y-59623322D01*
X116847381Y-59623322D01*
X116880835Y-59779157D01*
X116923164Y-59929137D01*
X116987551Y-60098763D01*
X117067088Y-60272778D01*
X117154866Y-60435926D01*
X117234012Y-60559188D01*
X117431395Y-60799178D01*
X117658329Y-61006319D01*
X117916605Y-61181980D01*
X118208014Y-61327524D01*
X118280189Y-61356992D01*
X118330079Y-61376777D01*
X118375722Y-61394843D01*
X118419281Y-61411372D01*
X118462922Y-61426544D01*
X118508806Y-61440543D01*
X118559100Y-61453548D01*
X118615964Y-61465742D01*
X118681566Y-61477307D01*
X118758066Y-61488423D01*
X118847630Y-61499272D01*
X118952421Y-61510036D01*
X119074603Y-61520897D01*
X119216341Y-61532036D01*
X119379797Y-61543634D01*
X119567135Y-61555874D01*
X119780520Y-61568935D01*
X120022114Y-61583002D01*
X120294083Y-61598253D01*
X120598590Y-61614872D01*
X120937798Y-61633040D01*
X121313871Y-61652939D01*
X121728973Y-61674749D01*
X122185268Y-61698652D01*
X122629940Y-61721948D01*
X126381648Y-61918639D01*
X126482630Y-61810113D01*
X126569579Y-61707311D01*
X126662339Y-61582172D01*
X126751452Y-61448790D01*
X126827460Y-61321262D01*
X126877582Y-61221463D01*
X126909968Y-61150743D01*
X126937810Y-61096370D01*
X126951766Y-61074471D01*
X126976961Y-61032283D01*
X127011548Y-60954487D01*
X127052679Y-60849153D01*
X127097511Y-60724349D01*
X127143197Y-60588142D01*
X127186891Y-60448599D01*
X127225747Y-60313792D01*
X127242853Y-60249191D01*
X127353916Y-59731861D01*
X127424207Y-59207300D01*
X127454466Y-58669066D01*
X127454902Y-58398433D01*
X127437580Y-57970655D01*
X127399695Y-57567686D01*
X127341892Y-57193511D01*
X127264821Y-56852113D01*
X127169128Y-56547479D01*
X127143290Y-56479842D01*
X127081168Y-56323296D01*
X126869539Y-56308960D01*
X126695809Y-56297229D01*
X126561813Y-56288866D01*
X126462019Y-56284400D01*
X126390891Y-56284361D01*
X126342899Y-56289279D01*
X126312507Y-56299684D01*
X126294183Y-56316104D01*
X126282392Y-56339071D01*
X126272684Y-56366086D01*
X126247735Y-56446148D01*
X126225325Y-56533341D01*
X126222738Y-56545146D01*
X126202489Y-56640601D01*
X126350207Y-56648343D01*
X126497925Y-56656084D01*
X126485237Y-56581612D01*
X126479685Y-56504848D01*
X126496965Y-56463768D01*
X126536026Y-56453694D01*
X126557903Y-56463050D01*
X126575965Y-56493690D01*
X126593172Y-56553366D01*
X126612482Y-56649831D01*
X126613899Y-56657663D01*
X126642249Y-56833202D01*
X126670181Y-57039493D01*
X126695948Y-57261946D01*
X126717804Y-57485975D01*
X126727979Y-57610593D01*
X126732471Y-57721060D01*
X126732843Y-57867868D01*
X126729550Y-58042231D01*
X126723047Y-58235366D01*
X126713787Y-58438486D01*
X126702229Y-58642807D01*
X126688825Y-58839546D01*
X126674032Y-59019915D01*
X126658304Y-59175130D01*
X126642097Y-59296407D01*
X126639981Y-59309208D01*
X126612395Y-59460476D01*
X126578279Y-59630687D01*
X126542427Y-59798158D01*
X126539839Y-59810249D01*
X126499280Y-59989566D01*
X126458811Y-60159045D01*
X126420636Y-60309095D01*
X126386961Y-60430121D01*
X126369134Y-60486902D01*
X126270176Y-60718756D01*
X126142866Y-60916440D01*
X125990053Y-61078703D01*
X125814589Y-61204295D01*
X125619321Y-61291968D01*
X125527065Y-61313052D01*
X125407101Y-61340468D01*
X125233492Y-61346665D01*
X125180778Y-61348547D01*
X124943202Y-61314954D01*
X124697223Y-61238440D01*
X124675763Y-61229813D01*
X124533232Y-61155556D01*
X124477221Y-61126374D01*
X124391728Y-61057752D01*
X124685084Y-61057752D01*
X124685615Y-61090844D01*
X124693731Y-61105572D01*
X124744002Y-61134702D01*
X124823992Y-61162002D01*
X124923639Y-61186046D01*
X125032880Y-61205410D01*
X125141655Y-61218673D01*
X125239899Y-61224410D01*
X125317553Y-61221197D01*
X125364553Y-61207609D01*
X125371086Y-61201419D01*
X125387686Y-61165863D01*
X125391804Y-61154964D01*
X125516030Y-61154964D01*
X125520917Y-61177214D01*
X125533661Y-61187182D01*
X125579432Y-61187009D01*
X125650279Y-61163313D01*
X125736111Y-61121215D01*
X125826836Y-61065836D01*
X125912359Y-61002296D01*
X125933138Y-60984504D01*
X125989967Y-60925992D01*
X126051424Y-60849633D01*
X126112118Y-60764035D01*
X126166661Y-60677803D01*
X126209662Y-60599544D01*
X126235731Y-60537864D01*
X126239477Y-60501370D01*
X126237587Y-60498378D01*
X126208562Y-60489448D01*
X126144315Y-60481193D01*
X126054979Y-60474646D01*
X125971687Y-60471315D01*
X125751844Y-60465556D01*
X125724320Y-60464835D01*
X125686104Y-60587735D01*
X125662312Y-60663442D01*
X125629768Y-60765940D01*
X125593677Y-60878869D01*
X125573628Y-60941277D01*
X125541110Y-61044842D01*
X125522336Y-61113456D01*
X125516030Y-61154964D01*
X125391804Y-61154964D01*
X125413822Y-61096682D01*
X125446288Y-61003783D01*
X125481880Y-60897073D01*
X125517393Y-60786456D01*
X125549621Y-60681839D01*
X125575361Y-60593131D01*
X125591408Y-60530235D01*
X125595038Y-60509155D01*
X125600036Y-60446966D01*
X125248515Y-60428543D01*
X125118924Y-60420600D01*
X125023515Y-60415928D01*
X124955185Y-60419835D01*
X124913381Y-60435214D01*
X124906830Y-60437624D01*
X124871350Y-60474602D01*
X124841641Y-60536074D01*
X124810601Y-60627344D01*
X124771127Y-60753719D01*
X124757968Y-60794963D01*
X124719901Y-60916387D01*
X124696059Y-61001792D01*
X124685084Y-61057752D01*
X124391728Y-61057752D01*
X124310677Y-60992695D01*
X124178386Y-60831234D01*
X124110687Y-60699213D01*
X124082603Y-60644447D01*
X124051024Y-60549269D01*
X124023424Y-60385909D01*
X124023391Y-60381735D01*
X124138680Y-60381735D01*
X124142502Y-60450063D01*
X124158669Y-60525841D01*
X124196039Y-60616926D01*
X124248881Y-60715055D01*
X124311463Y-60811970D01*
X124378054Y-60899409D01*
X124442922Y-60969113D01*
X124500335Y-61012820D01*
X124540167Y-61023215D01*
X124569108Y-60998529D01*
X124603375Y-60931218D01*
X124637246Y-60839347D01*
X124669216Y-60744383D01*
X124699291Y-60655931D01*
X124721769Y-60590741D01*
X124724570Y-60582762D01*
X124744933Y-60514757D01*
X124756834Y-60456020D01*
X124757130Y-60453247D01*
X124762146Y-60401772D01*
X124450413Y-60391753D01*
X124138680Y-60381735D01*
X124023391Y-60381735D01*
X124023088Y-60343204D01*
X125758257Y-60343204D01*
X126026756Y-60350851D01*
X126295256Y-60358497D01*
X126375172Y-60045583D01*
X126425177Y-59838565D01*
X126468898Y-59635407D01*
X126504763Y-59444819D01*
X126531200Y-59275514D01*
X126546640Y-59136200D01*
X126549828Y-59077387D01*
X126553268Y-58941309D01*
X126307756Y-58921972D01*
X126194226Y-58915256D01*
X126104775Y-58914408D01*
X126047602Y-58919352D01*
X126032853Y-58924535D01*
X126016105Y-58958040D01*
X125998933Y-59030175D01*
X125982800Y-59134253D01*
X125977565Y-59177915D01*
X125963841Y-59279856D01*
X125942205Y-59415616D01*
X125914590Y-59574736D01*
X125882930Y-59746759D01*
X125865624Y-59836159D01*
X125849158Y-59921226D01*
X125815207Y-60087681D01*
X125783010Y-60235667D01*
X125777830Y-60258321D01*
X125758257Y-60343204D01*
X124023088Y-60343204D01*
X124022732Y-60297808D01*
X124920582Y-60297808D01*
X125285924Y-60316955D01*
X125408838Y-60322800D01*
X125514192Y-60326670D01*
X125594428Y-60328381D01*
X125641983Y-60327746D01*
X125651799Y-60325928D01*
X125657069Y-60301030D01*
X125670894Y-60241733D01*
X125690996Y-60157684D01*
X125708684Y-60084780D01*
X125753403Y-59885676D01*
X125797962Y-59658945D01*
X125839279Y-59422228D01*
X125874267Y-59193163D01*
X125899280Y-58994626D01*
X125894173Y-58932372D01*
X125871864Y-58908028D01*
X125828221Y-58897684D01*
X125753081Y-58888714D01*
X125656475Y-58881428D01*
X125548434Y-58876139D01*
X125438995Y-58873159D01*
X125338189Y-58872797D01*
X125256049Y-58875367D01*
X125202608Y-58881180D01*
X125188058Y-58886793D01*
X125175478Y-58919870D01*
X125160888Y-58986956D01*
X125146471Y-59076893D01*
X125138528Y-59139682D01*
X125127984Y-59222592D01*
X125113614Y-59317529D01*
X125094453Y-59429668D01*
X125069535Y-59564184D01*
X125037892Y-59726252D01*
X124998562Y-59921046D01*
X124950576Y-60153745D01*
X124938131Y-60213567D01*
X124920582Y-60297808D01*
X124022732Y-60297808D01*
X124022418Y-60257791D01*
X124133821Y-60257791D01*
X124468155Y-60269028D01*
X124802490Y-60280265D01*
X124850288Y-60101093D01*
X124889146Y-59943120D01*
X124929949Y-59755875D01*
X124969536Y-59555154D01*
X125004749Y-59356752D01*
X125025564Y-59224600D01*
X125044474Y-59093418D01*
X125056429Y-59000076D01*
X125061588Y-58937619D01*
X125060112Y-58899092D01*
X125052163Y-58877539D01*
X125037901Y-58866007D01*
X125033907Y-58864113D01*
X124979293Y-58851548D01*
X124883503Y-58843088D01*
X124750543Y-58838938D01*
X124584427Y-58839300D01*
X124555111Y-58839789D01*
X124360112Y-58843396D01*
X124349879Y-58843586D01*
X124325556Y-59015113D01*
X124313585Y-59093295D01*
X124295245Y-59205291D01*
X124272367Y-59340303D01*
X124246775Y-59487537D01*
X124222746Y-59622609D01*
X124197770Y-59764957D01*
X124175511Y-59898633D01*
X124157371Y-60014673D01*
X124144750Y-60104112D01*
X124139051Y-60157985D01*
X124139041Y-60158185D01*
X124133821Y-60257791D01*
X124022418Y-60257791D01*
X124021881Y-60189484D01*
X124046259Y-59963958D01*
X124076878Y-59799236D01*
X124110903Y-59625906D01*
X124147056Y-59416037D01*
X124184097Y-59178319D01*
X124220785Y-58921443D01*
X124238144Y-58789207D01*
X126034301Y-58789207D01*
X126314034Y-58803868D01*
X126593767Y-58818528D01*
X126613414Y-58439170D01*
X126619894Y-58284984D01*
X126624277Y-58120532D01*
X126626278Y-57962334D01*
X126625612Y-57826910D01*
X126624662Y-57786856D01*
X126621170Y-57648427D01*
X126617192Y-57548605D01*
X126607711Y-57480869D01*
X126587711Y-57438697D01*
X126575654Y-57430848D01*
X126552176Y-57415563D01*
X126496091Y-57404948D01*
X126414439Y-57400327D01*
X126324407Y-57396411D01*
X126050264Y-57382043D01*
X126057237Y-57512989D01*
X126058586Y-57572296D01*
X126058650Y-57668915D01*
X126057519Y-57794827D01*
X126055284Y-57942008D01*
X126052036Y-58102432D01*
X126049256Y-58216571D01*
X126034301Y-58789207D01*
X124238144Y-58789207D01*
X124243909Y-58745287D01*
X125196242Y-58745287D01*
X125558523Y-58764273D01*
X125920805Y-58783259D01*
X125939289Y-58154034D01*
X125943798Y-57985712D01*
X125947173Y-57828936D01*
X125949335Y-57690409D01*
X125950204Y-57576834D01*
X125949701Y-57494910D01*
X125947747Y-57451342D01*
X125947634Y-57450471D01*
X125937495Y-57376133D01*
X125919988Y-57375216D01*
X125574760Y-57357123D01*
X125212025Y-57338113D01*
X125221045Y-57446457D01*
X125222861Y-57498531D01*
X125223258Y-57588492D01*
X125222320Y-57708892D01*
X125220133Y-57852284D01*
X125216777Y-58011221D01*
X125213154Y-58150044D01*
X125196242Y-58745287D01*
X124243909Y-58745287D01*
X124249610Y-58701856D01*
X124367530Y-58701856D01*
X124724864Y-58720583D01*
X125082197Y-58739310D01*
X125102721Y-58098836D01*
X125107656Y-57929790D01*
X125111318Y-57772958D01*
X125113629Y-57634822D01*
X125114510Y-57521864D01*
X125113880Y-57440565D01*
X125111663Y-57397407D01*
X125111322Y-57395287D01*
X125099398Y-57332211D01*
X125082031Y-57331300D01*
X124799901Y-57316515D01*
X124500404Y-57300819D01*
X124459699Y-57793574D01*
X124446016Y-57954217D01*
X124431658Y-58114125D01*
X124417636Y-58262617D01*
X124404965Y-58389008D01*
X124394657Y-58482614D01*
X124393262Y-58494093D01*
X124367530Y-58701856D01*
X124249610Y-58701856D01*
X124255878Y-58654103D01*
X124288139Y-58384989D01*
X124316325Y-58122795D01*
X124316708Y-58118972D01*
X124345869Y-57771414D01*
X124363298Y-57431448D01*
X124369206Y-57104131D01*
X124363803Y-56794516D01*
X124362980Y-56780209D01*
X124481084Y-56780209D01*
X124481493Y-56865620D01*
X124482843Y-56939327D01*
X124488400Y-57175285D01*
X124788148Y-57197331D01*
X125087896Y-57219377D01*
X125091560Y-57149478D01*
X125090996Y-57091429D01*
X125085982Y-57006821D01*
X125077739Y-56915321D01*
X125066071Y-56829768D01*
X125051882Y-56759738D01*
X125048449Y-56749730D01*
X125168930Y-56749730D01*
X125170238Y-56811990D01*
X125175231Y-56895128D01*
X125182867Y-56987087D01*
X125192105Y-57075811D01*
X125201902Y-57149246D01*
X125211220Y-57195333D01*
X125213976Y-57202421D01*
X125240579Y-57212085D01*
X125305943Y-57222213D01*
X125403484Y-57232055D01*
X125526621Y-57240864D01*
X125576223Y-57243651D01*
X125925922Y-57261978D01*
X125927987Y-57199635D01*
X125926510Y-57147156D01*
X125920712Y-57065909D01*
X125911785Y-56972148D01*
X125910271Y-56958202D01*
X125896832Y-56867912D01*
X125879959Y-56798461D01*
X126003685Y-56798461D01*
X126003851Y-56864230D01*
X126008345Y-56953538D01*
X126016546Y-57055650D01*
X126027832Y-57159830D01*
X126033844Y-57205183D01*
X126042759Y-57268101D01*
X126312729Y-57282250D01*
X126582700Y-57296399D01*
X126585717Y-57238825D01*
X126583809Y-57188874D01*
X126575992Y-57110022D01*
X126563877Y-57018096D01*
X126561886Y-57004802D01*
X126546428Y-56917123D01*
X126529891Y-56845293D01*
X126515421Y-56802591D01*
X126513127Y-56798817D01*
X126482120Y-56784889D01*
X126418406Y-56772529D01*
X126333761Y-56762481D01*
X126239957Y-56755488D01*
X126148767Y-56752292D01*
X126071964Y-56753636D01*
X126021321Y-56760264D01*
X126008467Y-56766969D01*
X126003685Y-56798461D01*
X125879959Y-56798461D01*
X125879792Y-56797772D01*
X125862095Y-56759466D01*
X125859557Y-56757182D01*
X125826037Y-56747566D01*
X125758874Y-56738102D01*
X125667897Y-56729314D01*
X125562938Y-56721731D01*
X125453825Y-56715876D01*
X125350390Y-56712277D01*
X125262460Y-56711460D01*
X125199868Y-56713951D01*
X125172441Y-56720275D01*
X125172345Y-56720404D01*
X125168930Y-56749730D01*
X125048449Y-56749730D01*
X125038124Y-56719632D01*
X125037352Y-56718457D01*
X125018218Y-56703866D01*
X124980251Y-56694398D01*
X124915888Y-56689234D01*
X124817562Y-56687559D01*
X124753461Y-56687773D01*
X124649811Y-56689089D01*
X124564278Y-56691223D01*
X124506164Y-56693873D01*
X124484879Y-56696530D01*
X124482240Y-56720588D01*
X124481084Y-56780209D01*
X124362980Y-56780209D01*
X124347299Y-56507657D01*
X124319905Y-56248608D01*
X124281830Y-56022425D01*
X124233286Y-55834162D01*
X124220029Y-55794983D01*
X124191849Y-55716175D01*
X123935886Y-55709190D01*
X123679924Y-55702204D01*
X123567157Y-57603909D01*
X123546551Y-57951228D01*
X123528307Y-58256490D01*
X123512076Y-58522914D01*
X123497508Y-58753719D01*
X123484251Y-58952125D01*
X123471956Y-59121351D01*
X123460273Y-59264615D01*
X123448851Y-59385136D01*
X123437339Y-59486135D01*
X123425389Y-59570829D01*
X123412646Y-59642437D01*
X123398765Y-59704180D01*
X123383392Y-59759276D01*
X123366178Y-59810943D01*
X123346772Y-59862402D01*
X123324825Y-59916871D01*
X123312000Y-59948163D01*
X123239650Y-60103754D01*
X123149295Y-60265494D01*
X123046706Y-60425470D01*
X122937654Y-60575771D01*
X122827910Y-60708483D01*
X122723247Y-60815698D01*
X122629433Y-60889501D01*
X122622059Y-60894031D01*
X122556933Y-60931363D01*
X122495649Y-60961229D01*
X122432649Y-60984134D01*
X122362379Y-61000575D01*
X122279278Y-61011058D01*
X122177793Y-61016083D01*
X122052367Y-61016152D01*
X121897444Y-61011768D01*
X121707466Y-61003433D01*
X121517698Y-60993794D01*
X121446009Y-60989985D01*
X121315941Y-60983074D01*
X121154009Y-60973939D01*
X121026422Y-60965790D01*
X120927700Y-60958027D01*
X120852363Y-60950051D01*
X120794933Y-60941262D01*
X120749928Y-60931060D01*
X120711869Y-60918847D01*
X120675277Y-60904022D01*
X120667943Y-60900819D01*
X120479446Y-60796284D01*
X120310728Y-60660060D01*
X120169882Y-60500004D01*
X120064998Y-60323974D01*
X120058015Y-60308558D01*
X120004284Y-60140020D01*
X119996254Y-60032434D01*
X120103915Y-60032434D01*
X120105319Y-60051787D01*
X120144137Y-60214715D01*
X120222482Y-60372474D01*
X120334540Y-60518651D01*
X120474501Y-60646830D01*
X120636548Y-60750592D01*
X120800493Y-60819086D01*
X120873190Y-60835253D01*
X120982928Y-60850847D01*
X121121396Y-60865424D01*
X121280278Y-60878539D01*
X121451262Y-60889748D01*
X121626032Y-60898607D01*
X121796275Y-60904670D01*
X121953676Y-60907495D01*
X122089923Y-60906636D01*
X122196699Y-60901648D01*
X122244532Y-60896276D01*
X122383579Y-60866542D01*
X122504081Y-60821389D01*
X122612856Y-60755622D01*
X122716726Y-60664045D01*
X122822513Y-60541466D01*
X122937038Y-60382687D01*
X122956094Y-60354377D01*
X123114589Y-60086435D01*
X123231965Y-59816160D01*
X123311928Y-59534280D01*
X123336430Y-59402827D01*
X123343063Y-59345707D01*
X123351471Y-59248349D01*
X123361445Y-59114718D01*
X123372778Y-58948779D01*
X123385263Y-58754496D01*
X123398690Y-58535832D01*
X123412852Y-58296754D01*
X123427542Y-58041224D01*
X123442549Y-57773207D01*
X123457667Y-57496669D01*
X123472687Y-57215573D01*
X123487401Y-56933883D01*
X123501601Y-56655565D01*
X123515080Y-56384582D01*
X123527628Y-56124900D01*
X123539037Y-55880481D01*
X123549101Y-55655291D01*
X123557611Y-55453295D01*
X123564357Y-55278455D01*
X123569134Y-55134738D01*
X123571730Y-55026107D01*
X123571941Y-54956527D01*
X123570913Y-54935854D01*
X123528219Y-54725341D01*
X123449292Y-54541859D01*
X123334769Y-54386236D01*
X123185282Y-54259297D01*
X123001464Y-54161873D01*
X122968142Y-54148792D01*
X122922998Y-54132493D01*
X122879473Y-54119082D01*
X122831984Y-54107953D01*
X122774950Y-54098498D01*
X122702789Y-54090113D01*
X122609917Y-54082190D01*
X122490753Y-54074124D01*
X122339714Y-54065308D01*
X122151219Y-54055137D01*
X122062802Y-54050486D01*
X121314978Y-54011294D01*
X121157324Y-54078891D01*
X121044639Y-54135677D01*
X120955239Y-54203637D01*
X120892074Y-54269377D01*
X120859953Y-54307499D01*
X120829922Y-54347387D01*
X120799952Y-54393290D01*
X120768011Y-54449457D01*
X120732068Y-54520132D01*
X120690094Y-54609567D01*
X120640058Y-54722009D01*
X120579929Y-54861704D01*
X120507677Y-55032901D01*
X120421270Y-55239848D01*
X120375187Y-55350681D01*
X120142992Y-55909603D01*
X120205550Y-56163032D01*
X120270683Y-56460131D01*
X120318739Y-56758515D01*
X120350590Y-57067734D01*
X120367115Y-57397338D01*
X120369185Y-57756877D01*
X120366075Y-57914593D01*
X120348564Y-58316632D01*
X120316811Y-58691650D01*
X120268887Y-59056278D01*
X120202865Y-59427148D01*
X120175262Y-59560859D01*
X120140841Y-59729967D01*
X120118016Y-59861138D01*
X120105977Y-59960064D01*
X120103915Y-60032434D01*
X119996254Y-60032434D01*
X119991238Y-59965228D01*
X120017531Y-59779161D01*
X120066090Y-59564760D01*
X120105822Y-59374205D01*
X120138061Y-59197604D01*
X120164145Y-59025068D01*
X120185405Y-58846708D01*
X120203178Y-58652633D01*
X120218799Y-58432953D01*
X120233557Y-58178622D01*
X120246212Y-57926301D01*
X120254697Y-57711378D01*
X120258909Y-57526077D01*
X120258742Y-57362621D01*
X120254091Y-57213234D01*
X120244852Y-57070140D01*
X120230918Y-56925563D01*
X120214855Y-56792206D01*
X120199749Y-56690334D01*
X120178498Y-56566761D01*
X120153406Y-56433039D01*
X120126780Y-56300726D01*
X120100926Y-56181379D01*
X120078149Y-56086551D01*
X120064403Y-56038254D01*
X120042822Y-55972201D01*
X119459449Y-55952680D01*
X119270311Y-55946840D01*
X119119417Y-55943524D01*
X118999713Y-55942895D01*
X118904146Y-55945112D01*
X118825661Y-55950341D01*
X118757210Y-55958743D01*
X118692448Y-55970335D01*
X118394746Y-56047178D01*
X118128076Y-56152218D01*
X117885487Y-56288861D01*
X117660027Y-56460514D01*
X117620263Y-56495815D01*
X117418870Y-56703121D01*
X117249754Y-56932043D01*
X117108718Y-57189093D01*
X116998556Y-57460587D01*
X116968776Y-57547643D01*
X116953000Y-57604881D01*
X116950066Y-57645230D01*
X116958812Y-57681619D01*
X116975200Y-57720524D01*
X117015176Y-57830238D01*
X117053278Y-57970773D01*
X117086380Y-58127613D01*
X117111356Y-58286239D01*
X117123778Y-58410415D01*
X117124243Y-58653948D01*
X117091737Y-58899689D01*
X117024693Y-59156367D01*
X116954669Y-59351542D01*
X116847381Y-59623322D01*
X116689266Y-59623322D01*
X116677926Y-59614337D01*
X116625644Y-59589713D01*
X116608112Y-59582476D01*
X116470452Y-59502361D01*
X116353547Y-59385991D01*
X116266915Y-59245587D01*
X116215279Y-59135817D01*
X116348410Y-59135817D01*
X116372353Y-59214594D01*
X116430080Y-59299542D01*
X116457711Y-59332238D01*
X116520373Y-59392931D01*
X116592352Y-59446239D01*
X116663132Y-59486237D01*
X116722197Y-59506994D01*
X116759029Y-59502586D01*
X116759402Y-59502259D01*
X116779175Y-59469915D01*
X116808540Y-59404394D01*
X116843763Y-59315871D01*
X116881105Y-59214521D01*
X116916829Y-59110522D01*
X116947199Y-59014050D01*
X116968477Y-58935282D01*
X116969896Y-58929062D01*
X117003432Y-58750718D01*
X117018213Y-58589374D01*
X117015877Y-58421513D01*
X117010434Y-58346317D01*
X116996719Y-58240468D01*
X116973433Y-58113668D01*
X116944832Y-57988167D01*
X116934432Y-57948949D01*
X116905632Y-57848597D01*
X116883369Y-57783852D01*
X116863137Y-57746328D01*
X116840431Y-57727640D01*
X116811129Y-57719467D01*
X116734678Y-57725997D01*
X116645680Y-57763012D01*
X116556715Y-57823237D01*
X116480369Y-57899399D01*
X116465181Y-57919437D01*
X116419027Y-57991237D01*
X116396869Y-58051730D01*
X116396972Y-58116642D01*
X116417599Y-58201705D01*
X116429763Y-58240436D01*
X116457127Y-58374702D01*
X116464163Y-58532657D01*
X116451746Y-58697892D01*
X116420756Y-58854002D01*
X116392361Y-58939607D01*
X116355872Y-59048919D01*
X116348410Y-59135817D01*
X116215279Y-59135817D01*
X116214142Y-59133401D01*
X116210676Y-59126032D01*
X116030919Y-59089397D01*
X115952260Y-59074027D01*
X115839160Y-59052817D01*
X115701872Y-59027647D01*
X115550649Y-59000392D01*
X115395744Y-58972932D01*
X115378599Y-58969923D01*
X115203011Y-58938943D01*
X114999491Y-58902708D01*
X114784706Y-58864206D01*
X114575326Y-58826427D01*
X114388672Y-58792476D01*
X114238030Y-58765254D01*
X114099674Y-58740864D01*
X113980738Y-58720516D01*
X113888356Y-58705417D01*
X113829658Y-58696776D01*
X113814671Y-58695230D01*
X113763363Y-58708598D01*
X113708845Y-58757455D01*
X113690192Y-58780424D01*
X113602936Y-58861145D01*
X113488254Y-58922092D01*
X113362256Y-58956220D01*
X113278445Y-58960516D01*
X113239410Y-58952589D01*
X113163880Y-58937250D01*
X113048017Y-58884925D01*
X112947772Y-58812731D01*
X112893100Y-58751200D01*
X112823147Y-58612920D01*
X112794572Y-58470015D01*
X112799862Y-58401981D01*
X112902255Y-58401981D01*
X112911309Y-58529686D01*
X112911902Y-58532161D01*
X112960704Y-58650785D01*
X113037898Y-58743029D01*
X113135435Y-58806985D01*
X113245272Y-58840746D01*
X113359363Y-58842401D01*
X113469663Y-58810043D01*
X113568127Y-58741762D01*
X113607647Y-58697219D01*
X113650879Y-58637761D01*
X113682735Y-58589075D01*
X113689062Y-58577343D01*
X113820849Y-58577343D01*
X113939026Y-58597362D01*
X114017250Y-58610856D01*
X114135379Y-58631572D01*
X114288680Y-58658665D01*
X114472423Y-58691294D01*
X114681878Y-58728617D01*
X114912313Y-58769791D01*
X115158997Y-58813973D01*
X115417201Y-58860321D01*
X115564631Y-58886831D01*
X115728745Y-58916244D01*
X115878799Y-58942919D01*
X116008851Y-58965816D01*
X116112957Y-58983897D01*
X116185175Y-58996123D01*
X116219562Y-59001454D01*
X116221050Y-59001593D01*
X116243628Y-58983061D01*
X116271972Y-58934189D01*
X116287728Y-58897250D01*
X116334314Y-58755615D01*
X116356982Y-58629205D01*
X116357704Y-58498389D01*
X116341452Y-58362145D01*
X116326056Y-58279731D01*
X116309435Y-58214325D01*
X116295102Y-58179663D01*
X116294677Y-58179166D01*
X116270492Y-58171348D01*
X116214430Y-58167811D01*
X116124415Y-58168649D01*
X115998372Y-58173957D01*
X115834226Y-58183834D01*
X115629902Y-58198374D01*
X115383325Y-58217672D01*
X115281328Y-58226008D01*
X115140450Y-58237248D01*
X114972404Y-58250057D01*
X114795282Y-58263089D01*
X114627180Y-58274997D01*
X114574571Y-58278600D01*
X114430470Y-58288682D01*
X114287086Y-58299283D01*
X114156944Y-58309437D01*
X114052564Y-58318179D01*
X114010227Y-58322080D01*
X113833323Y-58339317D01*
X113827086Y-58458331D01*
X113820849Y-58577343D01*
X113689062Y-58577343D01*
X113690970Y-58573805D01*
X113707217Y-58506025D01*
X113711662Y-58418358D01*
X113703739Y-58334862D01*
X113697221Y-58308772D01*
X113639470Y-58198532D01*
X113548631Y-58110891D01*
X113434241Y-58052944D01*
X113325573Y-58032333D01*
X113198338Y-58046357D01*
X113086418Y-58097551D01*
X112995782Y-58178696D01*
X112932403Y-58282579D01*
X112902255Y-58401981D01*
X112799862Y-58401981D01*
X112805497Y-58329497D01*
X112854035Y-58198381D01*
X112938305Y-58083678D01*
X113056422Y-57992404D01*
X113103352Y-57968231D01*
X113185079Y-57934612D01*
X113251712Y-57920582D01*
X113327088Y-57922450D01*
X113368110Y-57927220D01*
X113514654Y-57966298D01*
X113637691Y-58040438D01*
X113730935Y-58145848D01*
X113731048Y-58146026D01*
X113747531Y-58172128D01*
X113763423Y-58191611D01*
X113784771Y-58204917D01*
X113817621Y-58212479D01*
X113868024Y-58214737D01*
X113942024Y-58212128D01*
X114045671Y-58205088D01*
X114185012Y-58194055D01*
X114284197Y-58186029D01*
X114397323Y-58177165D01*
X114540479Y-58166337D01*
X114698440Y-58154673D01*
X114855986Y-58143304D01*
X114922554Y-58138596D01*
X115066003Y-58128458D01*
X115208129Y-58118291D01*
X115336617Y-58108986D01*
X115439151Y-58101432D01*
X115481055Y-58098265D01*
X115571389Y-58091372D01*
X115691396Y-58082268D01*
X115825519Y-58072134D01*
X115958199Y-58062147D01*
X115959858Y-58062022D01*
X116267650Y-58038907D01*
X116329688Y-57938467D01*
X116431509Y-57798194D01*
X116541139Y-57698017D01*
X116665140Y-57632692D01*
X116740683Y-57609992D01*
X116802900Y-57590468D01*
X116839459Y-57559760D01*
X116866891Y-57502650D01*
X116871815Y-57489281D01*
X116897076Y-57423955D01*
X116934410Y-57332876D01*
X116977351Y-57231686D01*
X116995858Y-57189125D01*
X117145386Y-56900982D01*
X117327213Y-56643123D01*
X117539323Y-56417390D01*
X117779699Y-56225625D01*
X118046322Y-56069670D01*
X118337176Y-55951366D01*
X118359025Y-55944342D01*
X118485505Y-55906394D01*
X118601362Y-55877029D01*
X118714759Y-55855471D01*
X118833859Y-55840940D01*
X118966830Y-55832660D01*
X119121833Y-55829852D01*
X119307036Y-55831741D01*
X119492457Y-55836402D01*
X120057481Y-55853006D01*
X120082672Y-55786197D01*
X120091367Y-55763648D01*
X120103912Y-55732162D01*
X120121879Y-55687945D01*
X120146838Y-55627202D01*
X120180361Y-55546137D01*
X120224022Y-55440956D01*
X120279390Y-55307864D01*
X120348040Y-55143064D01*
X120431541Y-54942762D01*
X120496927Y-54785971D01*
X120578538Y-54598199D01*
X120652336Y-54447231D01*
X120722612Y-54326157D01*
X120793664Y-54228070D01*
X120869784Y-54146062D01*
X120925066Y-54097240D01*
X120993314Y-54043019D01*
X121056036Y-53999708D01*
X121119144Y-53966335D01*
X121188546Y-53941930D01*
X121270150Y-53925521D01*
X121369864Y-53916135D01*
X121493599Y-53912805D01*
X121647260Y-53914555D01*
G37*
%TD*%
D11*
%TO.C,J2*%
X158393788Y-68903508D03*
X155999647Y-75481357D03*
D12*
X154624171Y-72447981D03*
D13*
X158981788Y-74012741D03*
D12*
X155650231Y-69628903D03*
D13*
X160007849Y-71193663D03*
X152914899Y-77231880D03*
D12*
X157202454Y-78813706D03*
X153256090Y-76206752D03*
D13*
X157613708Y-77771511D03*
%TD*%
D14*
%TO.C,SW12*%
X94500001Y-98100000D03*
D15*
X100000000Y-98100000D03*
X100000000Y-98100000D03*
D14*
X105500000Y-98100000D03*
D16*
X100000000Y-104000000D03*
X95000000Y-101900000D03*
X105000000Y-101900000D03*
%TD*%
D17*
%TO.C,U1*%
X179700000Y-83000000D03*
X178831269Y-85386820D03*
X177962538Y-87773638D03*
X177093807Y-90160458D03*
X176225076Y-92547277D03*
X175356344Y-94934096D03*
X174487614Y-97320914D03*
X173618882Y-99707735D03*
X172750151Y-102094554D03*
X171881420Y-104481373D03*
X171012689Y-106868192D03*
X170143957Y-109255013D03*
X155841836Y-104049465D03*
X156710568Y-101662646D03*
X157579298Y-99275826D03*
X158448029Y-96889007D03*
X159316760Y-94502188D03*
X160185492Y-92115369D03*
X161054223Y-89728549D03*
X161922954Y-87341730D03*
X162791685Y-84954911D03*
X163660416Y-82568092D03*
X164529147Y-80181272D03*
X165397879Y-77794453D03*
%TD*%
D14*
%TO.C,SW6*%
X131979717Y-92779146D03*
D15*
X137472178Y-93066994D03*
X137472178Y-93066994D03*
D14*
X142964640Y-93354842D03*
D18*
X137163396Y-98958908D03*
X132280154Y-96600106D03*
X142266449Y-97123466D03*
%TD*%
D14*
%TO.C,SW16*%
X150842151Y-129326332D03*
D15*
X151797216Y-123909890D03*
X151797216Y-123909890D03*
D14*
X152752281Y-118493447D03*
D19*
X157607582Y-124934414D03*
X154671245Y-129493792D03*
X156407726Y-119645714D03*
%TD*%
D14*
%TO.C,SW4*%
X70866463Y-71588313D03*
D15*
X76312936Y-70822861D03*
X76312936Y-70822861D03*
D14*
X81759410Y-70057409D03*
D20*
X77134057Y-76665443D03*
X71890453Y-75281745D03*
X81793134Y-73890014D03*
%TD*%
D14*
%TO.C,SW14*%
X59600301Y-121935281D03*
D15*
X64912892Y-120511777D03*
X64912892Y-120511777D03*
D14*
X70225484Y-119088272D03*
D21*
X66439924Y-126210739D03*
X61066775Y-125476390D03*
X70726034Y-122888200D03*
%TD*%
D22*
%TO.C,*%
X58700000Y-73800000D03*
%TD*%
D14*
%TO.C,SW9*%
X73232406Y-88422870D03*
D15*
X78678879Y-87657418D03*
X78678879Y-87657418D03*
D14*
X84125353Y-86891966D03*
D20*
X79500000Y-93500000D03*
X74256396Y-92116302D03*
X84159077Y-90724571D03*
%TD*%
D14*
%TO.C,SW2*%
X115102980Y-70178978D03*
D15*
X120595441Y-70466826D03*
X120595441Y-70466826D03*
D14*
X126087903Y-70754674D03*
D18*
X120286659Y-76358740D03*
X115403417Y-73999938D03*
X125389712Y-74523298D03*
%TD*%
D22*
%TO.C,*%
X146500000Y-62700000D03*
%TD*%
D14*
%TO.C,SW13*%
X75598349Y-105257427D03*
D15*
X81044822Y-104491975D03*
X81044822Y-104491975D03*
D14*
X86491296Y-103726523D03*
D20*
X81865943Y-110334557D03*
X76622339Y-108950859D03*
X86525020Y-107559128D03*
%TD*%
D22*
%TO.C,*%
X178800000Y-115000000D03*
%TD*%
D23*
%TO.C,RSW2*%
X138995546Y-107670092D03*
X132504454Y-107329908D03*
%TD*%
D14*
%TO.C,SW15*%
X173021616Y-122758756D03*
D15*
X170697216Y-127743448D03*
X170697216Y-127743448D03*
D14*
X168372816Y-132728141D03*
D24*
X165350000Y-125250000D03*
X169366338Y-121605960D03*
X165140155Y-130669038D03*
%TD*%
D22*
%TO.C,*%
X151050000Y-95700000D03*
%TD*%
D14*
%TO.C,SW5*%
X50800453Y-89093803D03*
D15*
X56113044Y-87670299D03*
X56113044Y-87670299D03*
D14*
X61425636Y-86246794D03*
D21*
X57640076Y-93369261D03*
X52266927Y-92634912D03*
X61926186Y-90046722D03*
%TD*%
D22*
%TO.C,*%
X78650000Y-118050000D03*
%TD*%
D14*
%TO.C,SW7*%
X114213268Y-87155680D03*
D15*
X119705729Y-87443528D03*
X119705729Y-87443528D03*
D14*
X125198191Y-87731376D03*
D18*
X119396947Y-93335442D03*
X114513705Y-90976640D03*
X124500000Y-91500000D03*
%TD*%
D14*
%TO.C,SW8*%
X94500001Y-81100000D03*
D15*
X100000000Y-81100000D03*
X100000000Y-81100000D03*
D14*
X105500000Y-81100000D03*
D16*
X100000000Y-87000000D03*
X95000000Y-84900000D03*
X105000000Y-84900000D03*
%TD*%
D14*
%TO.C,SW1*%
X132869428Y-75802444D03*
D15*
X138361889Y-76090292D03*
X138361889Y-76090292D03*
D14*
X143854351Y-76378140D03*
D18*
X138053107Y-81982206D03*
X133169865Y-79623404D03*
X143156160Y-80146764D03*
%TD*%
D14*
%TO.C,SW3*%
X94500001Y-64100000D03*
D15*
X100000000Y-64100000D03*
X100000000Y-64100000D03*
D14*
X105500000Y-64100000D03*
D16*
X100000000Y-70000000D03*
X95000000Y-67900000D03*
X105000000Y-67900000D03*
%TD*%
D14*
%TO.C,SW10*%
X55200377Y-105514542D03*
D15*
X60512968Y-104091038D03*
X60512968Y-104091038D03*
D14*
X65825560Y-102667533D03*
D21*
X62040000Y-109790000D03*
X56666851Y-109055651D03*
X66326110Y-106467461D03*
%TD*%
D14*
%TO.C,SW17*%
X133126310Y-130010907D03*
D15*
X133126310Y-124510908D03*
X133126310Y-124510908D03*
D14*
X133126310Y-119010908D03*
D25*
X139026310Y-124510908D03*
X136926310Y-129510908D03*
X136926310Y-119510908D03*
%TD*%
D14*
%TO.C,SW11*%
X113323557Y-104132382D03*
D15*
X118816018Y-104420230D03*
X118816018Y-104420230D03*
D14*
X124308480Y-104708078D03*
D18*
X118507236Y-110312144D03*
X113623994Y-107953342D03*
X123610289Y-108476702D03*
%TD*%
M02*
