M48
; DRILL file {KiCad 7.0.10} date ven. 15 mars 2024 09:24:44
; FORMAT={-:-/ absolute / inch / decimal}
; #@! TF.CreationDate,2024-03-15T09:24:44+01:00
; #@! TF.GenerationSoftware,Kicad,Pcbnew,7.0.10
; #@! TF.FileFunction,NonPlated,1,2,NPTH
FMAT,2
INCH
; #@! TA.AperFunction,NonPlated,NPTH,ComponentDrill
T1C0.0315
; #@! TA.AperFunction,NonPlated,NPTH,ComponentDrill
T2C0.0670
; #@! TA.AperFunction,NonPlated,NPTH,ComponentDrill
T3C0.1350
%
G90
G05
T1
X6.1417Y-2.9717
X6.236Y-2.7127
T2
X2.0Y-3.5076
X2.1732Y-4.1541
X2.3465Y-4.8006
X2.4183Y-3.3955
X2.5916Y-4.042
X2.7648Y-4.6885
X2.79Y-2.8184
X2.8832Y-3.4812
X2.9763Y-4.144
X3.2189Y-2.7582
X3.312Y-3.4209
X3.4052Y-4.0837
X3.7205Y-2.5236
X3.7205Y-3.1929
X3.7205Y-3.8622
X4.1535Y-2.5236
X4.1535Y-3.1929
X4.1535Y-3.8622
X4.4616Y-4.0997
X4.4966Y-3.4313
X4.5316Y-2.763
X4.894Y-4.1224
X4.9291Y-3.454
X4.9641Y-2.7856
X5.1961Y-3.6527
X5.2311Y-2.9843
X5.2412Y-4.6855
X5.2412Y-5.1185
X5.6285Y-3.6754
X5.6636Y-3.007
X5.9387Y-5.0916
X6.0139Y-4.6651
X6.6289Y-5.2255
X6.8119Y-4.833
T3
X2.2092Y-3.4516
X2.2092Y-3.4516
X2.3824Y-4.0981
X2.3824Y-4.0981
X2.5556Y-4.7446
X2.5556Y-4.7446
X3.0044Y-2.7883
X3.0044Y-2.7883
X3.0976Y-3.4511
X3.0976Y-3.4511
X3.1907Y-4.1139
X3.1907Y-4.1139
X3.937Y-2.5236
X3.937Y-2.5236
X3.937Y-3.1929
X3.937Y-3.1929
X3.937Y-3.8622
X3.937Y-3.8622
X4.6778Y-4.111
X4.6778Y-4.111
X4.7128Y-3.4427
X4.7128Y-3.4427
X4.7479Y-2.7743
X4.7479Y-2.7743
X5.2412Y-4.902
X5.2412Y-4.902
X5.4123Y-3.6641
X5.4123Y-3.6641
X5.4473Y-2.9957
X5.4473Y-2.9957
X5.9763Y-4.8783
X5.9763Y-4.8783
X6.7204Y-5.0293
X6.7204Y-5.0293
M30
