%TF.GenerationSoftware,KiCad,Pcbnew,7.0.10*%
%TF.CreationDate,2024-03-12T15:39:51+01:00*%
%TF.ProjectId,sheep_v1,73686565-705f-4763-912e-6b696361645f,rev?*%
%TF.SameCoordinates,Original*%
%TF.FileFunction,Soldermask,Bot*%
%TF.FilePolarity,Negative*%
%FSLAX46Y46*%
G04 Gerber Fmt 4.6, Leading zero omitted, Abs format (unit mm)*
G04 Created by KiCad (PCBNEW 7.0.10) date 2024-03-12 15:39:51*
%MOMM*%
%LPD*%
G01*
G04 APERTURE LIST*
G04 Aperture macros list*
%AMHorizOval*
0 Thick line with rounded ends*
0 $1 width*
0 $2 $3 position (X,Y) of the first rounded end (center of the circle)*
0 $4 $5 position (X,Y) of the second rounded end (center of the circle)*
0 Add line between two ends*
20,1,$1,$2,$3,$4,$5,0*
0 Add two circle primitives to create the rounded ends*
1,1,$1,$2,$3*
1,1,$1,$4,$5*%
%AMFreePoly0*
4,1,6,0.600001,0.200000,0.000000,-0.400000,-0.600001,0.200000,-0.600000,0.400000,0.600000,0.400000,0.600001,0.200000,0.600001,0.200000,$1*%
%AMFreePoly1*
4,1,6,0.600000,-0.250000,-0.600000,-0.250000,-0.600000,1.000000,0.000000,0.400000,0.600000,1.000001,0.600000,-0.250000,0.600000,-0.250000,$1*%
G04 Aperture macros list end*
%ADD10C,0.100000*%
%ADD11C,0.800000*%
%ADD12HorizOval,1.600000X0.085505X0.234923X-0.085505X-0.234923X0*%
%ADD13HorizOval,1.600000X-0.085505X-0.234923X0.085505X0.234923X0*%
%ADD14HorizOval,1.600000X-0.068404X-0.187939X0.068404X0.187939X0*%
%ADD15HorizOval,1.600000X0.068404X0.187939X-0.068404X-0.187939X0*%
%ADD16C,1.701800*%
%ADD17C,3.429000*%
%ADD18O,2.500000X1.300000*%
%ADD19HorizOval,1.200000X0.422862X-0.153909X-0.422862X0.153909X0*%
%ADD20FreePoly0,70.000000*%
%ADD21FreePoly0,250.000000*%
%ADD22FreePoly1,250.000000*%
%ADD23FreePoly1,70.000000*%
%ADD24HorizOval,1.300000X-0.599178X0.031402X0.599178X-0.031402X0*%
%ADD25HorizOval,1.300000X-0.104189X-0.590885X0.104189X0.590885X0*%
%ADD26HorizOval,1.300000X-0.594161X-0.083504X0.594161X0.083504X0*%
%ADD27HorizOval,1.300000X-0.579555X-0.155291X0.579555X0.155291X0*%
%ADD28C,4.400000*%
%ADD29C,2.200000*%
%ADD30HorizOval,1.300000X0.253571X0.543785X-0.253571X-0.543785X0*%
%ADD31O,1.300000X2.500000*%
G04 APERTURE END LIST*
%TO.C,U1*%
D10*
X168637928Y-78429940D02*
X168290436Y-79384668D01*
X167335708Y-79037175D01*
X167683201Y-78082447D01*
X168637928Y-78429940D01*
G36*
X168637928Y-78429940D02*
G01*
X168290436Y-79384668D01*
X167335708Y-79037175D01*
X167683201Y-78082447D01*
X168637928Y-78429940D01*
G37*
X167769197Y-80816759D02*
X167421705Y-81771487D01*
X166466977Y-81423994D01*
X166814469Y-80469267D01*
X167769197Y-80816759D01*
G36*
X167769197Y-80816759D02*
G01*
X167421705Y-81771487D01*
X166466977Y-81423994D01*
X166814469Y-80469267D01*
X167769197Y-80816759D01*
G37*
X166900466Y-83203578D02*
X166552973Y-84158306D01*
X165598246Y-83810814D01*
X165945738Y-82856086D01*
X166900466Y-83203578D01*
G36*
X166900466Y-83203578D02*
G01*
X166552973Y-84158306D01*
X165598246Y-83810814D01*
X165945738Y-82856086D01*
X166900466Y-83203578D01*
G37*
X166031735Y-85590398D02*
X165684242Y-86545125D01*
X164729515Y-86197633D01*
X165077007Y-85242905D01*
X166031735Y-85590398D01*
G36*
X166031735Y-85590398D02*
G01*
X165684242Y-86545125D01*
X164729515Y-86197633D01*
X165077007Y-85242905D01*
X166031735Y-85590398D01*
G37*
X165163004Y-87977217D02*
X164815511Y-88931945D01*
X163860783Y-88584452D01*
X164208276Y-87629725D01*
X165163004Y-87977217D01*
G36*
X165163004Y-87977217D02*
G01*
X164815511Y-88931945D01*
X163860783Y-88584452D01*
X164208276Y-87629725D01*
X165163004Y-87977217D01*
G37*
X164293246Y-90366855D02*
X163945754Y-91321583D01*
X162991026Y-90974091D01*
X163338519Y-90019363D01*
X164293246Y-90366855D01*
G36*
X164293246Y-90366855D02*
G01*
X163945754Y-91321583D01*
X162991026Y-90974091D01*
X163338519Y-90019363D01*
X164293246Y-90366855D01*
G37*
X163425541Y-92750855D02*
X163078049Y-93705583D01*
X162123321Y-93358091D01*
X162470814Y-92403363D01*
X163425541Y-92750855D01*
G36*
X163425541Y-92750855D02*
G01*
X163078049Y-93705583D01*
X162123321Y-93358091D01*
X162470814Y-92403363D01*
X163425541Y-92750855D01*
G37*
X162556810Y-95137675D02*
X162209318Y-96092402D01*
X161254590Y-95744910D01*
X161602082Y-94790182D01*
X162556810Y-95137675D01*
G36*
X162556810Y-95137675D02*
G01*
X162209318Y-96092402D01*
X161254590Y-95744910D01*
X161602082Y-94790182D01*
X162556810Y-95137675D01*
G37*
X161688079Y-97524494D02*
X161340586Y-98479222D01*
X160385859Y-98131729D01*
X160733351Y-97177002D01*
X161688079Y-97524494D01*
G36*
X161688079Y-97524494D02*
G01*
X161340586Y-98479222D01*
X160385859Y-98131729D01*
X160733351Y-97177002D01*
X161688079Y-97524494D01*
G37*
X160819348Y-99911313D02*
X160471855Y-100866041D01*
X159517128Y-100518549D01*
X159864620Y-99563821D01*
X160819348Y-99911313D01*
G36*
X160819348Y-99911313D02*
G01*
X160471855Y-100866041D01*
X159517128Y-100518549D01*
X159864620Y-99563821D01*
X160819348Y-99911313D01*
G37*
X159950617Y-102298133D02*
X159603124Y-103252860D01*
X158648396Y-102905368D01*
X158995889Y-101950640D01*
X159950617Y-102298133D01*
G36*
X159950617Y-102298133D02*
G01*
X159603124Y-103252860D01*
X158648396Y-102905368D01*
X158995889Y-101950640D01*
X159950617Y-102298133D01*
G37*
X159081885Y-104684952D02*
X158734393Y-105639679D01*
X157779665Y-105292187D01*
X158127158Y-104337459D01*
X159081885Y-104684952D01*
G36*
X159081885Y-104684952D02*
G01*
X158734393Y-105639679D01*
X157779665Y-105292187D01*
X158127158Y-104337459D01*
X159081885Y-104684952D01*
G37*
X177761592Y-81750682D02*
X177414099Y-82705410D01*
X176459372Y-82357917D01*
X176806864Y-81403189D01*
X177761592Y-81750682D01*
G36*
X177761592Y-81750682D02*
G01*
X177414099Y-82705410D01*
X176459372Y-82357917D01*
X176806864Y-81403189D01*
X177761592Y-81750682D01*
G37*
X176892861Y-84137501D02*
X176545368Y-85092229D01*
X175590640Y-84744736D01*
X175938133Y-83790009D01*
X176892861Y-84137501D01*
G36*
X176892861Y-84137501D02*
G01*
X176545368Y-85092229D01*
X175590640Y-84744736D01*
X175938133Y-83790009D01*
X176892861Y-84137501D01*
G37*
X176024129Y-86524320D02*
X175676637Y-87479048D01*
X174721909Y-87131556D01*
X175069402Y-86176828D01*
X176024129Y-86524320D01*
G36*
X176024129Y-86524320D02*
G01*
X175676637Y-87479048D01*
X174721909Y-87131556D01*
X175069402Y-86176828D01*
X176024129Y-86524320D01*
G37*
X175155398Y-88911140D02*
X174807906Y-89865867D01*
X173853178Y-89518375D01*
X174200671Y-88563647D01*
X175155398Y-88911140D01*
G36*
X175155398Y-88911140D02*
G01*
X174807906Y-89865867D01*
X173853178Y-89518375D01*
X174200671Y-88563647D01*
X175155398Y-88911140D01*
G37*
X174286667Y-91297959D02*
X173939175Y-92252687D01*
X172984447Y-91905194D01*
X173331939Y-90950466D01*
X174286667Y-91297959D01*
G36*
X174286667Y-91297959D02*
G01*
X173939175Y-92252687D01*
X172984447Y-91905194D01*
X173331939Y-90950466D01*
X174286667Y-91297959D01*
G37*
X173416910Y-93687597D02*
X173069417Y-94642325D01*
X172114690Y-94294833D01*
X172462182Y-93340105D01*
X173416910Y-93687597D01*
G36*
X173416910Y-93687597D02*
G01*
X173069417Y-94642325D01*
X172114690Y-94294833D01*
X172462182Y-93340105D01*
X173416910Y-93687597D01*
G37*
X172549205Y-96071597D02*
X172201712Y-97026325D01*
X171246985Y-96678833D01*
X171594477Y-95724105D01*
X172549205Y-96071597D01*
G36*
X172549205Y-96071597D02*
G01*
X172201712Y-97026325D01*
X171246985Y-96678833D01*
X171594477Y-95724105D01*
X172549205Y-96071597D01*
G37*
X171680474Y-98458417D02*
X171332981Y-99413144D01*
X170378254Y-99065652D01*
X170725746Y-98110924D01*
X171680474Y-98458417D01*
G36*
X171680474Y-98458417D02*
G01*
X171332981Y-99413144D01*
X170378254Y-99065652D01*
X170725746Y-98110924D01*
X171680474Y-98458417D01*
G37*
X170811743Y-100845236D02*
X170464250Y-101799964D01*
X169509522Y-101452471D01*
X169857015Y-100497744D01*
X170811743Y-100845236D01*
G36*
X170811743Y-100845236D02*
G01*
X170464250Y-101799964D01*
X169509522Y-101452471D01*
X169857015Y-100497744D01*
X170811743Y-100845236D01*
G37*
X169943011Y-103232055D02*
X169595519Y-104186783D01*
X168640791Y-103839290D01*
X168988284Y-102884563D01*
X169943011Y-103232055D01*
G36*
X169943011Y-103232055D02*
G01*
X169595519Y-104186783D01*
X168640791Y-103839290D01*
X168988284Y-102884563D01*
X169943011Y-103232055D01*
G37*
X169074280Y-105618874D02*
X168726788Y-106573602D01*
X167772060Y-106226110D01*
X168119552Y-105271382D01*
X169074280Y-105618874D01*
G36*
X169074280Y-105618874D02*
G01*
X168726788Y-106573602D01*
X167772060Y-106226110D01*
X168119552Y-105271382D01*
X169074280Y-105618874D01*
G37*
X168205549Y-108005694D02*
X167858057Y-108960421D01*
X166903329Y-108612929D01*
X167250821Y-107658201D01*
X168205549Y-108005694D01*
G36*
X168205549Y-108005694D02*
G01*
X167858057Y-108960421D01*
X166903329Y-108612929D01*
X167250821Y-107658201D01*
X168205549Y-108005694D01*
G37*
%TD*%
D11*
%TO.C,J2*%
X158393788Y-68903508D03*
X155999647Y-75481357D03*
D12*
X154624171Y-72447981D03*
D13*
X158981788Y-74012741D03*
D12*
X155650231Y-69628903D03*
D13*
X160007849Y-71193663D03*
D14*
X152914899Y-77231880D03*
D15*
X157202454Y-78813706D03*
D12*
X153256090Y-76206752D03*
D13*
X157613708Y-77771511D03*
%TD*%
D16*
%TO.C,SW12*%
X94500001Y-98100000D03*
D17*
X100000000Y-98100000D03*
X100000000Y-98100000D03*
D16*
X105500000Y-98100000D03*
D18*
X100000000Y-104000000D03*
X95000000Y-101900000D03*
X105000000Y-101900000D03*
%TD*%
D19*
%TO.C,U1*%
X165397879Y-77794453D03*
X164529147Y-80181272D03*
X163660416Y-82568092D03*
X162791685Y-84954911D03*
X161922954Y-87341730D03*
X161054223Y-89728549D03*
X160185492Y-92115369D03*
X159316760Y-94502188D03*
X158448029Y-96889007D03*
X157579298Y-99275826D03*
X155841836Y-104049465D03*
X156710568Y-101662646D03*
D20*
X167748136Y-78646684D03*
X166879405Y-81033504D03*
X166010674Y-83420323D03*
X165141943Y-85807142D03*
X164273212Y-88193961D03*
X163403454Y-90583600D03*
X162535749Y-92967600D03*
X161667018Y-95354419D03*
X160798287Y-97741239D03*
X159929556Y-100128058D03*
X159060825Y-102514877D03*
X158192093Y-104901696D03*
D21*
X177349164Y-82141173D03*
X176480432Y-84527992D03*
X175611701Y-86914811D03*
X174742970Y-89301630D03*
X173874239Y-91688450D03*
X173004482Y-94078088D03*
X172136777Y-96462088D03*
X171268046Y-98848907D03*
X170399314Y-101235727D03*
X169530583Y-103622546D03*
X168661852Y-106009365D03*
X167793121Y-108396184D03*
D19*
X179700000Y-83000000D03*
X178831269Y-85386820D03*
X177962538Y-87773638D03*
X177093807Y-90160458D03*
X176225076Y-92547277D03*
X175356344Y-94934096D03*
X174487614Y-97320914D03*
X173618882Y-99707735D03*
X172750151Y-102094554D03*
X171881420Y-104481373D03*
X171012689Y-106868192D03*
X170143957Y-109255013D03*
D22*
X176394436Y-81793680D03*
X175525705Y-84180499D03*
X174656974Y-86567319D03*
X173788242Y-88954138D03*
X172919511Y-91340957D03*
X172049754Y-93730596D03*
X171182049Y-96114596D03*
X170313318Y-98501415D03*
X169444587Y-100888234D03*
X168575855Y-103275054D03*
X167707124Y-105661873D03*
X166838393Y-108048692D03*
D23*
X159146821Y-105249189D03*
X160015552Y-102862369D03*
X160884283Y-100475550D03*
X161753015Y-98088731D03*
X162621746Y-95701912D03*
X163490477Y-93315092D03*
X164358182Y-90931092D03*
X165227939Y-88541454D03*
X166096670Y-86154635D03*
X166965402Y-83767815D03*
X167834133Y-81380996D03*
X168702864Y-78994177D03*
%TD*%
D16*
%TO.C,SW6*%
X131979717Y-92779146D03*
D17*
X137472178Y-93066994D03*
X137472178Y-93066994D03*
D16*
X142964640Y-93354842D03*
D24*
X137163396Y-98958908D03*
X132280154Y-96600106D03*
X142266449Y-97123466D03*
%TD*%
D16*
%TO.C,SW16*%
X150842151Y-129326332D03*
D17*
X151797216Y-123909890D03*
X151797216Y-123909890D03*
D16*
X152752281Y-118493447D03*
D25*
X157607582Y-124934414D03*
X154671245Y-129493792D03*
X156407726Y-119645714D03*
%TD*%
D16*
%TO.C,SW4*%
X70866463Y-71588313D03*
D17*
X76312936Y-70822861D03*
X76312936Y-70822861D03*
D16*
X81759410Y-70057409D03*
D26*
X77134057Y-76665443D03*
X71890453Y-75281745D03*
X81793134Y-73890014D03*
%TD*%
D16*
%TO.C,SW14*%
X59600301Y-121935281D03*
D17*
X64912892Y-120511777D03*
X64912892Y-120511777D03*
D16*
X70225484Y-119088272D03*
D27*
X66439924Y-126210739D03*
X61066775Y-125476390D03*
X70726034Y-122888200D03*
%TD*%
D28*
%TO.C,*%
X58700000Y-73800000D03*
%TD*%
D16*
%TO.C,SW9*%
X73232406Y-88422870D03*
D17*
X78678879Y-87657418D03*
X78678879Y-87657418D03*
D16*
X84125353Y-86891966D03*
D26*
X79500000Y-93500000D03*
X74256396Y-92116302D03*
X84159077Y-90724571D03*
%TD*%
D16*
%TO.C,SW2*%
X115102980Y-70178978D03*
D17*
X120595441Y-70466826D03*
X120595441Y-70466826D03*
D16*
X126087903Y-70754674D03*
D24*
X120286659Y-76358740D03*
X115403417Y-73999938D03*
X125389712Y-74523298D03*
%TD*%
D28*
%TO.C,*%
X146500000Y-62700000D03*
%TD*%
D16*
%TO.C,SW13*%
X75598349Y-105257427D03*
D17*
X81044822Y-104491975D03*
X81044822Y-104491975D03*
D16*
X86491296Y-103726523D03*
D26*
X81865943Y-110334557D03*
X76622339Y-108950859D03*
X86525020Y-107559128D03*
%TD*%
D28*
%TO.C,*%
X178900000Y-115350000D03*
%TD*%
D29*
%TO.C,RSW2*%
X138995546Y-107670092D03*
X132504454Y-107329908D03*
%TD*%
D16*
%TO.C,SW15*%
X173021616Y-122758756D03*
D17*
X170697216Y-127743448D03*
X170697216Y-127743448D03*
D16*
X168372816Y-132728141D03*
D30*
X165350000Y-125250000D03*
X169366338Y-121605960D03*
X165140155Y-130669038D03*
%TD*%
D28*
%TO.C,*%
X151750000Y-97275000D03*
%TD*%
D16*
%TO.C,SW5*%
X50800453Y-89093803D03*
D17*
X56113044Y-87670299D03*
X56113044Y-87670299D03*
D16*
X61425636Y-86246794D03*
D27*
X57640076Y-93369261D03*
X52266927Y-92634912D03*
X61926186Y-90046722D03*
%TD*%
D28*
%TO.C,*%
X78650000Y-118050000D03*
%TD*%
D16*
%TO.C,SW7*%
X114213268Y-87155680D03*
D17*
X119705729Y-87443528D03*
X119705729Y-87443528D03*
D16*
X125198191Y-87731376D03*
D24*
X119396947Y-93335442D03*
X114513705Y-90976640D03*
X124500000Y-91500000D03*
%TD*%
D16*
%TO.C,SW8*%
X94500001Y-81100000D03*
D17*
X100000000Y-81100000D03*
X100000000Y-81100000D03*
D16*
X105500000Y-81100000D03*
D18*
X100000000Y-87000000D03*
X95000000Y-84900000D03*
X105000000Y-84900000D03*
%TD*%
D16*
%TO.C,SW1*%
X132869428Y-75802444D03*
D17*
X138361889Y-76090292D03*
X138361889Y-76090292D03*
D16*
X143854351Y-76378140D03*
D24*
X138053107Y-81982206D03*
X133169865Y-79623404D03*
X143156160Y-80146764D03*
%TD*%
D16*
%TO.C,SW3*%
X94500001Y-64100000D03*
D17*
X100000000Y-64100000D03*
X100000000Y-64100000D03*
D16*
X105500000Y-64100000D03*
D18*
X100000000Y-70000000D03*
X95000000Y-67900000D03*
X105000000Y-67900000D03*
%TD*%
D16*
%TO.C,SW10*%
X55200377Y-105514542D03*
D17*
X60512968Y-104091038D03*
X60512968Y-104091038D03*
D16*
X65825560Y-102667533D03*
D27*
X62040000Y-109790000D03*
X56666851Y-109055651D03*
X66326110Y-106467461D03*
%TD*%
D16*
%TO.C,SW17*%
X133126310Y-130010907D03*
D17*
X133126310Y-124510908D03*
X133126310Y-124510908D03*
D16*
X133126310Y-119010908D03*
D31*
X139026310Y-124510908D03*
X136926310Y-129510908D03*
X136926310Y-119510908D03*
%TD*%
D16*
%TO.C,SW11*%
X113323557Y-104132382D03*
D17*
X118816018Y-104420230D03*
X118816018Y-104420230D03*
D16*
X124308480Y-104708078D03*
D24*
X118507236Y-110312144D03*
X113623994Y-107953342D03*
X123610289Y-108476702D03*
%TD*%
M02*
