%TF.GenerationSoftware,KiCad,Pcbnew,7.0.10*%
%TF.CreationDate,2024-03-09T20:05:54+01:00*%
%TF.ProjectId,sheep_v1,73686565-705f-4763-912e-6b696361645f,rev?*%
%TF.SameCoordinates,Original*%
%TF.FileFunction,Legend,Bot*%
%TF.FilePolarity,Positive*%
%FSLAX46Y46*%
G04 Gerber Fmt 4.6, Leading zero omitted, Abs format (unit mm)*
G04 Created by KiCad (PCBNEW 7.0.10) date 2024-03-09 20:05:54*
%MOMM*%
%LPD*%
G01*
G04 APERTURE LIST*
%ADD10C,0.150000*%
%ADD11C,0.160000*%
%ADD12C,0.125000*%
%ADD13C,0.300000*%
%ADD14C,0.100000*%
%ADD15C,0.120000*%
G04 APERTURE END LIST*
D10*
X173418475Y-83820914D02*
X173312693Y-83833088D01*
X173312693Y-83833088D02*
X173133704Y-83767941D01*
X173133704Y-83767941D02*
X173060496Y-83690621D01*
X173060496Y-83690621D02*
X173048323Y-83584840D01*
X173048323Y-83584840D02*
X173064609Y-83540092D01*
X173064609Y-83540092D02*
X173141930Y-83466884D01*
X173141930Y-83466884D02*
X173247711Y-83454711D01*
X173247711Y-83454711D02*
X173381953Y-83503571D01*
X173381953Y-83503571D02*
X173487734Y-83491397D01*
X173487734Y-83491397D02*
X173565055Y-83418189D01*
X173565055Y-83418189D02*
X173581341Y-83373442D01*
X173581341Y-83373442D02*
X173569167Y-83267660D01*
X173569167Y-83267660D02*
X173495960Y-83190340D01*
X173495960Y-83190340D02*
X173361718Y-83141480D01*
X173361718Y-83141480D02*
X173255937Y-83153654D01*
X172596737Y-83572501D02*
X172938757Y-82632809D01*
X172194012Y-83425921D02*
X172373165Y-82933701D01*
X172373165Y-82933701D02*
X172450486Y-82860493D01*
X172450486Y-82860493D02*
X172556267Y-82848320D01*
X172556267Y-82848320D02*
X172690509Y-82897180D01*
X172690509Y-82897180D02*
X172763716Y-82974500D01*
X172763716Y-82974500D02*
X172792177Y-83035534D01*
X171404847Y-83088014D02*
X171478055Y-83165334D01*
X171478055Y-83165334D02*
X171657044Y-83230481D01*
X171657044Y-83230481D02*
X171762825Y-83218307D01*
X171762825Y-83218307D02*
X171840146Y-83145099D01*
X171840146Y-83145099D02*
X171970439Y-82787121D01*
X171970439Y-82787121D02*
X171958266Y-82681340D01*
X171958266Y-82681340D02*
X171885058Y-82604019D01*
X171885058Y-82604019D02*
X171706069Y-82538873D01*
X171706069Y-82538873D02*
X171600287Y-82551047D01*
X171600287Y-82551047D02*
X171522967Y-82624254D01*
X171522967Y-82624254D02*
X171490393Y-82713749D01*
X171490393Y-82713749D02*
X171905293Y-82966110D01*
X170599396Y-82794854D02*
X170672604Y-82872174D01*
X170672604Y-82872174D02*
X170851593Y-82937321D01*
X170851593Y-82937321D02*
X170957374Y-82925147D01*
X170957374Y-82925147D02*
X171034695Y-82851939D01*
X171034695Y-82851939D02*
X171164988Y-82493961D01*
X171164988Y-82493961D02*
X171152815Y-82388180D01*
X171152815Y-82388180D02*
X171079607Y-82310859D01*
X171079607Y-82310859D02*
X170900618Y-82245713D01*
X170900618Y-82245713D02*
X170794836Y-82257886D01*
X170794836Y-82257886D02*
X170717516Y-82331094D01*
X170717516Y-82331094D02*
X170684942Y-82420589D01*
X170684942Y-82420589D02*
X171099842Y-82672950D01*
X170363650Y-82050272D02*
X170021630Y-82989965D01*
X170347364Y-82095020D02*
X170274156Y-82017699D01*
X170274156Y-82017699D02*
X170095167Y-81952552D01*
X170095167Y-81952552D02*
X169989385Y-81964726D01*
X169989385Y-81964726D02*
X169928352Y-81993187D01*
X169928352Y-81993187D02*
X169851031Y-82066395D01*
X169851031Y-82066395D02*
X169753311Y-82334878D01*
X169753311Y-82334878D02*
X169765485Y-82440660D01*
X169765485Y-82440660D02*
X169793945Y-82501693D01*
X169793945Y-82501693D02*
X169867153Y-82579014D01*
X169867153Y-82579014D02*
X170046142Y-82644161D01*
X170046142Y-82644161D02*
X170151924Y-82631987D01*
X172564955Y-84564808D02*
X172113205Y-85109836D01*
X172113205Y-85109836D02*
X172117482Y-84401941D01*
X171694522Y-83893270D02*
X171605027Y-83860697D01*
X171605027Y-83860697D02*
X171499246Y-83872870D01*
X171499246Y-83872870D02*
X171438212Y-83901331D01*
X171438212Y-83901331D02*
X171360891Y-83974539D01*
X171360891Y-83974539D02*
X171250997Y-84137241D01*
X171250997Y-84137241D02*
X171169564Y-84360978D01*
X171169564Y-84360978D02*
X171149164Y-84556253D01*
X171149164Y-84556253D02*
X171161338Y-84662035D01*
X171161338Y-84662035D02*
X171189799Y-84723069D01*
X171189799Y-84723069D02*
X171263007Y-84800389D01*
X171263007Y-84800389D02*
X171352501Y-84832963D01*
X171352501Y-84832963D02*
X171458283Y-84820789D01*
X171458283Y-84820789D02*
X171519317Y-84792328D01*
X171519317Y-84792328D02*
X171596637Y-84719120D01*
X171596637Y-84719120D02*
X171706531Y-84556418D01*
X171706531Y-84556418D02*
X171787964Y-84332681D01*
X171787964Y-84332681D02*
X171808364Y-84137406D01*
X171808364Y-84137406D02*
X171796190Y-84031624D01*
X171796190Y-84031624D02*
X171767729Y-83970591D01*
X171767729Y-83970591D02*
X171694522Y-83893270D01*
X170669118Y-84482881D02*
X170608084Y-84511342D01*
X170608084Y-84511342D02*
X170636545Y-84572376D01*
X170636545Y-84572376D02*
X170697579Y-84543915D01*
X170697579Y-84543915D02*
X170669118Y-84482881D01*
X170669118Y-84482881D02*
X170636545Y-84572376D01*
X169696853Y-84230356D02*
X170233820Y-84425796D01*
X169965336Y-84328076D02*
X170307357Y-83388383D01*
X170307357Y-83388383D02*
X170347991Y-83555198D01*
X170347991Y-83555198D02*
X170404912Y-83677266D01*
X170404912Y-83677266D02*
X170478120Y-83754587D01*
D11*
X106473308Y-92465180D02*
X106344737Y-92508037D01*
X106344737Y-92508037D02*
X106130451Y-92508037D01*
X106130451Y-92508037D02*
X106044737Y-92465180D01*
X106044737Y-92465180D02*
X106001879Y-92422322D01*
X106001879Y-92422322D02*
X105959022Y-92336608D01*
X105959022Y-92336608D02*
X105959022Y-92250894D01*
X105959022Y-92250894D02*
X106001879Y-92165180D01*
X106001879Y-92165180D02*
X106044737Y-92122322D01*
X106044737Y-92122322D02*
X106130451Y-92079465D01*
X106130451Y-92079465D02*
X106301879Y-92036608D01*
X106301879Y-92036608D02*
X106387594Y-91993751D01*
X106387594Y-91993751D02*
X106430451Y-91950894D01*
X106430451Y-91950894D02*
X106473308Y-91865180D01*
X106473308Y-91865180D02*
X106473308Y-91779465D01*
X106473308Y-91779465D02*
X106430451Y-91693751D01*
X106430451Y-91693751D02*
X106387594Y-91650894D01*
X106387594Y-91650894D02*
X106301879Y-91608037D01*
X106301879Y-91608037D02*
X106087594Y-91608037D01*
X106087594Y-91608037D02*
X105959022Y-91650894D01*
X105659022Y-91608037D02*
X105444736Y-92508037D01*
X105444736Y-92508037D02*
X105273308Y-91865180D01*
X105273308Y-91865180D02*
X105101879Y-92508037D01*
X105101879Y-92508037D02*
X104887594Y-91608037D01*
X104073308Y-92508037D02*
X104587594Y-92508037D01*
X104330451Y-92508037D02*
X104330451Y-91608037D01*
X104330451Y-91608037D02*
X104416165Y-91736608D01*
X104416165Y-91736608D02*
X104501880Y-91822322D01*
X104501880Y-91822322D02*
X104587594Y-91865180D01*
X103730451Y-91693751D02*
X103687594Y-91650894D01*
X103687594Y-91650894D02*
X103601880Y-91608037D01*
X103601880Y-91608037D02*
X103387594Y-91608037D01*
X103387594Y-91608037D02*
X103301880Y-91650894D01*
X103301880Y-91650894D02*
X103259022Y-91693751D01*
X103259022Y-91693751D02*
X103216165Y-91779465D01*
X103216165Y-91779465D02*
X103216165Y-91865180D01*
X103216165Y-91865180D02*
X103259022Y-91993751D01*
X103259022Y-91993751D02*
X103773308Y-92508037D01*
X103773308Y-92508037D02*
X103216165Y-92508037D01*
D12*
X168174883Y-108908394D02*
X168095547Y-108917525D01*
X168095547Y-108917525D02*
X167983679Y-108876808D01*
X167983679Y-108876808D02*
X167951146Y-108826961D01*
X167951146Y-108826961D02*
X167940988Y-108785257D01*
X167940988Y-108785257D02*
X167943044Y-108709993D01*
X167943044Y-108709993D02*
X167967474Y-108642872D01*
X167967474Y-108642872D02*
X168014278Y-108583894D01*
X168014278Y-108583894D02*
X168048866Y-108558477D01*
X168048866Y-108558477D02*
X168105829Y-108541203D01*
X168105829Y-108541203D02*
X168207538Y-108540216D01*
X168207538Y-108540216D02*
X168264501Y-108522942D01*
X168264501Y-108522942D02*
X168299089Y-108497525D01*
X168299089Y-108497525D02*
X168345893Y-108438548D01*
X168345893Y-108438548D02*
X168370323Y-108371427D01*
X168370323Y-108371427D02*
X168372379Y-108296163D01*
X168372379Y-108296163D02*
X168362221Y-108254459D01*
X168362221Y-108254459D02*
X168329688Y-108204612D01*
X168329688Y-108204612D02*
X168217820Y-108163895D01*
X168217820Y-108163895D02*
X168138484Y-108173026D01*
X167994084Y-108082462D02*
X167625701Y-108746515D01*
X167625701Y-108746515D02*
X167719432Y-108210535D01*
X167719432Y-108210535D02*
X167446712Y-108681368D01*
X167446712Y-108681368D02*
X167591359Y-107935882D01*
X166909744Y-108485928D02*
X167178228Y-108583648D01*
X167043986Y-108534788D02*
X167300501Y-107830018D01*
X167300501Y-107830018D02*
X167308603Y-107946986D01*
X167308603Y-107946986D02*
X167328921Y-108030394D01*
X167328921Y-108030394D02*
X167361453Y-108080241D01*
X166678029Y-107869502D02*
X166507019Y-108339348D01*
X166887618Y-107641735D02*
X166816261Y-108185858D01*
X166816261Y-108185858D02*
X166525403Y-108079995D01*
D13*
G36*
X167140686Y-94501059D02*
G01*
X167033090Y-94796677D01*
X166979129Y-94847767D01*
X166905309Y-94856263D01*
X166837616Y-94831625D01*
X166786526Y-94777664D01*
X166778030Y-94703844D01*
X166875959Y-94434788D01*
X166898908Y-94413059D01*
X167140686Y-94501059D01*
G37*
G36*
X168404728Y-92184028D02*
G01*
X168413224Y-92257848D01*
X168339725Y-92459784D01*
X168285765Y-92510874D01*
X168211945Y-92519370D01*
X168148670Y-92496340D01*
X168364485Y-92141525D01*
X168404728Y-92184028D01*
G37*
G36*
X169605738Y-88481110D02*
G01*
X169674467Y-88553700D01*
X169696585Y-88601130D01*
X169708014Y-88700441D01*
X169634516Y-88902376D01*
X169611567Y-88924105D01*
X168980344Y-88694358D01*
X168976731Y-88662963D01*
X169050230Y-88461028D01*
X169122821Y-88392297D01*
X169170249Y-88370180D01*
X169269560Y-88358751D01*
X169605738Y-88481110D01*
G37*
G36*
X170895556Y-88403274D02*
G01*
X167763628Y-97008173D01*
X165199609Y-96074946D01*
X165207131Y-96054280D01*
X165988645Y-96054280D01*
X166021459Y-96124651D01*
X166085063Y-96169187D01*
X167494602Y-96682217D01*
X167571952Y-96688984D01*
X167642323Y-96656170D01*
X167686859Y-96592566D01*
X167931159Y-95921357D01*
X167937926Y-95844007D01*
X167905112Y-95773635D01*
X167841508Y-95729100D01*
X167764158Y-95722332D01*
X167693787Y-95755147D01*
X167649251Y-95818751D01*
X167456254Y-96349005D01*
X167066953Y-96207312D01*
X167186660Y-95878420D01*
X167193427Y-95801070D01*
X167160613Y-95730698D01*
X167097009Y-95686163D01*
X167019659Y-95679395D01*
X166949288Y-95712210D01*
X166904752Y-95775814D01*
X166785045Y-96104706D01*
X166187669Y-95887279D01*
X166110319Y-95880512D01*
X166039948Y-95913326D01*
X165995412Y-95976930D01*
X165988645Y-96054280D01*
X165207131Y-96054280D01*
X165698969Y-94702965D01*
X166475950Y-94702965D01*
X166494211Y-94861636D01*
X166497582Y-94870167D01*
X166497332Y-94879338D01*
X166511678Y-94905832D01*
X166522750Y-94933847D01*
X166529934Y-94939548D01*
X166534303Y-94947616D01*
X166644115Y-95063597D01*
X166673489Y-95081644D01*
X166701735Y-95101422D01*
X166835977Y-95150282D01*
X166870327Y-95153287D01*
X166904430Y-95158344D01*
X167063101Y-95140083D01*
X167071631Y-95136711D01*
X167080803Y-95136962D01*
X167107296Y-95122616D01*
X167135312Y-95111544D01*
X167141014Y-95104358D01*
X167149082Y-95099990D01*
X167265062Y-94990178D01*
X167283105Y-94960808D01*
X167302887Y-94932558D01*
X167412926Y-94630228D01*
X167435875Y-94608499D01*
X167449728Y-94613542D01*
X167500817Y-94667501D01*
X167509313Y-94741323D01*
X167435815Y-94943257D01*
X167345547Y-95028724D01*
X167304902Y-95094881D01*
X167302782Y-95172498D01*
X167339754Y-95240777D01*
X167405911Y-95281422D01*
X167483528Y-95283542D01*
X167551807Y-95246570D01*
X167667787Y-95136758D01*
X167685830Y-95107388D01*
X167705612Y-95079138D01*
X167803332Y-94810655D01*
X167806336Y-94776307D01*
X167811394Y-94742203D01*
X167793134Y-94583531D01*
X167789762Y-94574999D01*
X167790013Y-94565828D01*
X167775668Y-94539337D01*
X167764596Y-94511320D01*
X167757408Y-94505616D01*
X167753041Y-94497550D01*
X167643229Y-94381569D01*
X167613844Y-94363515D01*
X167585609Y-94343745D01*
X166847279Y-94075015D01*
X166769929Y-94068248D01*
X166699558Y-94101062D01*
X166655022Y-94164666D01*
X166648709Y-94236815D01*
X166643986Y-94241288D01*
X166625932Y-94270672D01*
X166606162Y-94298908D01*
X166484012Y-94634512D01*
X166481006Y-94668862D01*
X166475950Y-94702965D01*
X165698969Y-94702965D01*
X166187569Y-93360547D01*
X166964550Y-93360547D01*
X166982811Y-93519218D01*
X166991686Y-93541676D01*
X166995881Y-93565462D01*
X167038572Y-93657012D01*
X167054095Y-93675512D01*
X167065595Y-93696750D01*
X167175407Y-93812730D01*
X167204776Y-93830773D01*
X167233027Y-93850555D01*
X167635752Y-93997135D01*
X167670102Y-94000140D01*
X167704205Y-94005197D01*
X167862876Y-93986936D01*
X167885334Y-93978060D01*
X167909120Y-93973866D01*
X168000670Y-93931175D01*
X168019170Y-93915651D01*
X168040408Y-93904152D01*
X168156388Y-93794340D01*
X168174431Y-93764970D01*
X168194213Y-93736720D01*
X168291933Y-93468237D01*
X168294938Y-93433886D01*
X168299995Y-93399784D01*
X168281734Y-93241112D01*
X168253195Y-93168902D01*
X168192374Y-93120635D01*
X168115568Y-93109246D01*
X168043358Y-93137785D01*
X167995091Y-93198606D01*
X167983702Y-93275412D01*
X167997914Y-93398904D01*
X167924416Y-93600839D01*
X167851823Y-93669570D01*
X167804394Y-93691687D01*
X167705084Y-93703116D01*
X167368907Y-93580757D01*
X167300176Y-93508165D01*
X167278059Y-93460736D01*
X167266630Y-93361426D01*
X167340129Y-93159490D01*
X167430396Y-93074025D01*
X167471042Y-93007868D01*
X167473163Y-92930251D01*
X167436191Y-92861973D01*
X167370034Y-92821327D01*
X167292417Y-92819206D01*
X167224138Y-92856178D01*
X167108157Y-92965989D01*
X167090110Y-92995363D01*
X167070332Y-93023610D01*
X166972612Y-93292094D01*
X166969606Y-93326444D01*
X166964550Y-93360547D01*
X166187569Y-93360547D01*
X166602879Y-92219492D01*
X167379860Y-92219492D01*
X167398121Y-92378163D01*
X167401492Y-92386693D01*
X167401242Y-92395865D01*
X167415587Y-92422358D01*
X167426660Y-92450374D01*
X167433845Y-92456076D01*
X167438214Y-92464144D01*
X167548026Y-92580124D01*
X167577395Y-92598167D01*
X167605646Y-92617949D01*
X168142613Y-92813389D01*
X168176963Y-92816394D01*
X168211066Y-92821451D01*
X168369737Y-92803190D01*
X168378267Y-92799818D01*
X168387439Y-92800069D01*
X168413932Y-92785723D01*
X168441948Y-92774651D01*
X168447650Y-92767465D01*
X168455718Y-92763097D01*
X168571698Y-92653285D01*
X168589741Y-92623915D01*
X168609523Y-92595665D01*
X168707243Y-92327181D01*
X168710248Y-92292831D01*
X168715305Y-92258728D01*
X168697044Y-92100057D01*
X168693672Y-92091526D01*
X168693923Y-92082355D01*
X168679576Y-92055861D01*
X168668505Y-92027847D01*
X168661319Y-92022144D01*
X168656951Y-92014077D01*
X168547139Y-91898096D01*
X168517754Y-91880042D01*
X168489519Y-91860272D01*
X168355277Y-91811412D01*
X168330894Y-91809278D01*
X168307403Y-91802405D01*
X168292848Y-91805950D01*
X168277927Y-91804645D01*
X168255743Y-91814989D01*
X168231963Y-91820782D01*
X168221132Y-91831128D01*
X168207556Y-91837459D01*
X168193517Y-91857508D01*
X168175818Y-91874416D01*
X167861180Y-92391702D01*
X167741526Y-92348151D01*
X167690436Y-92294191D01*
X167681940Y-92220371D01*
X167755439Y-92018435D01*
X167845706Y-91932970D01*
X167886352Y-91866813D01*
X167888473Y-91789196D01*
X167851501Y-91720918D01*
X167785344Y-91680272D01*
X167707727Y-91678151D01*
X167639448Y-91715123D01*
X167523467Y-91824934D01*
X167505420Y-91854308D01*
X167485642Y-91882555D01*
X167387922Y-92151039D01*
X167384916Y-92185389D01*
X167379860Y-92219492D01*
X166602879Y-92219492D01*
X167457929Y-89870261D01*
X168234910Y-89870261D01*
X168253171Y-90028932D01*
X168256542Y-90037462D01*
X168256292Y-90046634D01*
X168270637Y-90073127D01*
X168281710Y-90101143D01*
X168288895Y-90106845D01*
X168293264Y-90114913D01*
X168403076Y-90230893D01*
X168432445Y-90248936D01*
X168460696Y-90268718D01*
X169199026Y-90537448D01*
X169276376Y-90544215D01*
X169346747Y-90511401D01*
X169391283Y-90447797D01*
X169398050Y-90370447D01*
X169365235Y-90300076D01*
X169301632Y-90255540D01*
X168596576Y-89998920D01*
X168545486Y-89944960D01*
X168536990Y-89871140D01*
X168586059Y-89736325D01*
X168658649Y-89667595D01*
X168671829Y-89661449D01*
X169418896Y-89933360D01*
X169496246Y-89940127D01*
X169566618Y-89907313D01*
X169611153Y-89843709D01*
X169617921Y-89766359D01*
X169585106Y-89695988D01*
X169521502Y-89651452D01*
X168581809Y-89309431D01*
X168504459Y-89302664D01*
X168434088Y-89335478D01*
X168389552Y-89399082D01*
X168382785Y-89476432D01*
X168395472Y-89503640D01*
X168354086Y-89542825D01*
X168336034Y-89572206D01*
X168316262Y-89600445D01*
X168242972Y-89801808D01*
X168239966Y-89836158D01*
X168234910Y-89870261D01*
X167457929Y-89870261D01*
X167907814Y-88634213D01*
X168157239Y-88634213D01*
X168190053Y-88704584D01*
X168253657Y-88749120D01*
X169663196Y-89262150D01*
X169740546Y-89268917D01*
X169810917Y-89236103D01*
X169855453Y-89172499D01*
X169861765Y-89100349D01*
X169866488Y-89095878D01*
X169884535Y-89066503D01*
X169904313Y-89038258D01*
X170002033Y-88769774D01*
X170005038Y-88735424D01*
X170010095Y-88701321D01*
X169991834Y-88542649D01*
X169982957Y-88520190D01*
X169978764Y-88496406D01*
X169936073Y-88404855D01*
X169920550Y-88386355D01*
X169909051Y-88365119D01*
X169799240Y-88249138D01*
X169769865Y-88231091D01*
X169741619Y-88211313D01*
X169338893Y-88064733D01*
X169304542Y-88061727D01*
X169270440Y-88056671D01*
X169111768Y-88074932D01*
X169089309Y-88083808D01*
X169065525Y-88088002D01*
X168973974Y-88130693D01*
X168955473Y-88146216D01*
X168934237Y-88157716D01*
X168818257Y-88267528D01*
X168800208Y-88296906D01*
X168780433Y-88325148D01*
X168685155Y-88586919D01*
X168356263Y-88467212D01*
X168278913Y-88460445D01*
X168208542Y-88493259D01*
X168164006Y-88556863D01*
X168157239Y-88634213D01*
X167907814Y-88634213D01*
X168331536Y-87470047D01*
X170895556Y-88403274D01*
G37*
D12*
X165934260Y-85799111D02*
X165521129Y-86446877D01*
X165521129Y-86446877D02*
X165621029Y-85685104D01*
X164963845Y-86168029D02*
X164974004Y-86209733D01*
X164974004Y-86209733D02*
X165028910Y-86267723D01*
X165028910Y-86267723D02*
X165073657Y-86284010D01*
X165073657Y-86284010D02*
X165152993Y-86274880D01*
X165152993Y-86274880D02*
X165222170Y-86224045D01*
X165222170Y-86224045D02*
X165268974Y-86165068D01*
X165268974Y-86165068D02*
X165340208Y-86038969D01*
X165340208Y-86038969D02*
X165376853Y-85938288D01*
X165376853Y-85938288D02*
X165403339Y-85795903D01*
X165403339Y-85795903D02*
X165405395Y-85720639D01*
X165405395Y-85720639D02*
X165385078Y-85637231D01*
X165385078Y-85637231D02*
X165330172Y-85579241D01*
X165330172Y-85579241D02*
X165285425Y-85562954D01*
X165285425Y-85562954D02*
X165206089Y-85572084D01*
X165206089Y-85572084D02*
X165171500Y-85597501D01*
X164493999Y-85997019D02*
X164504158Y-86038723D01*
X164504158Y-86038723D02*
X164559063Y-86096713D01*
X164559063Y-86096713D02*
X164603811Y-86113000D01*
X164603811Y-86113000D02*
X164683147Y-86103870D01*
X164683147Y-86103870D02*
X164752324Y-86053035D01*
X164752324Y-86053035D02*
X164799128Y-85994058D01*
X164799128Y-85994058D02*
X164870361Y-85867959D01*
X164870361Y-85867959D02*
X164907006Y-85767278D01*
X164907006Y-85767278D02*
X164933493Y-85624893D01*
X164933493Y-85624893D02*
X164935549Y-85549629D01*
X164935549Y-85549629D02*
X164915232Y-85466221D01*
X164915232Y-85466221D02*
X164860326Y-85408231D01*
X164860326Y-85408231D02*
X164815579Y-85391944D01*
X164815579Y-85391944D02*
X164736243Y-85401074D01*
X164736243Y-85401074D02*
X164701654Y-85426491D01*
X161359440Y-98419838D02*
X161280104Y-98428969D01*
X161280104Y-98428969D02*
X161168236Y-98388252D01*
X161168236Y-98388252D02*
X161135704Y-98338405D01*
X161135704Y-98338405D02*
X161125545Y-98296701D01*
X161125545Y-98296701D02*
X161127601Y-98221437D01*
X161127601Y-98221437D02*
X161152031Y-98154316D01*
X161152031Y-98154316D02*
X161198835Y-98095338D01*
X161198835Y-98095338D02*
X161233424Y-98069921D01*
X161233424Y-98069921D02*
X161290386Y-98052647D01*
X161290386Y-98052647D02*
X161392095Y-98051660D01*
X161392095Y-98051660D02*
X161449058Y-98034387D01*
X161449058Y-98034387D02*
X161483646Y-98008969D01*
X161483646Y-98008969D02*
X161530450Y-97949992D01*
X161530450Y-97949992D02*
X161554880Y-97882871D01*
X161554880Y-97882871D02*
X161556936Y-97807607D01*
X161556936Y-97807607D02*
X161546778Y-97765903D01*
X161546778Y-97765903D02*
X161514246Y-97716056D01*
X161514246Y-97716056D02*
X161402377Y-97675339D01*
X161402377Y-97675339D02*
X161323041Y-97684470D01*
X161178641Y-97593906D02*
X160810258Y-98257959D01*
X160810258Y-98257959D02*
X160903989Y-97721979D01*
X160903989Y-97721979D02*
X160631269Y-98192812D01*
X160631269Y-98192812D02*
X160775916Y-97447326D01*
X160373190Y-97300746D02*
X160596927Y-97382179D01*
X160596927Y-97382179D02*
X160497150Y-97725927D01*
X160497150Y-97725927D02*
X160486992Y-97684223D01*
X160486992Y-97684223D02*
X160454459Y-97634376D01*
X160454459Y-97634376D02*
X160342591Y-97593659D01*
X160342591Y-97593659D02*
X160285629Y-97610933D01*
X160285629Y-97610933D02*
X160251040Y-97636350D01*
X160251040Y-97636350D02*
X160204237Y-97695328D01*
X160204237Y-97695328D02*
X160143162Y-97863130D01*
X160143162Y-97863130D02*
X160141105Y-97938394D01*
X160141105Y-97938394D02*
X160151264Y-97980098D01*
X160151264Y-97980098D02*
X160183796Y-98029945D01*
X160183796Y-98029945D02*
X160295664Y-98070662D01*
X160295664Y-98070662D02*
X160352626Y-98053388D01*
X160352626Y-98053388D02*
X160387215Y-98027971D01*
X167474223Y-80959669D02*
X167531186Y-80942395D01*
X167531186Y-80942395D02*
X167598307Y-80966825D01*
X167598307Y-80966825D02*
X167653212Y-81024816D01*
X167653212Y-81024816D02*
X167673530Y-81108223D01*
X167673530Y-81108223D02*
X167671473Y-81183487D01*
X167671473Y-81183487D02*
X167644987Y-81325873D01*
X167644987Y-81325873D02*
X167608342Y-81426554D01*
X167608342Y-81426554D02*
X167537108Y-81552652D01*
X167537108Y-81552652D02*
X167490305Y-81611630D01*
X167490305Y-81611630D02*
X167421127Y-81662464D01*
X167421127Y-81662464D02*
X167341791Y-81671595D01*
X167341791Y-81671595D02*
X167297044Y-81655308D01*
X167297044Y-81655308D02*
X167242138Y-81597318D01*
X167242138Y-81597318D02*
X167231980Y-81555614D01*
X167231980Y-81555614D02*
X167317485Y-81320691D01*
X167317485Y-81320691D02*
X167406979Y-81353264D01*
X167006187Y-81549445D02*
X167262702Y-80844675D01*
X167262702Y-80844675D02*
X166737703Y-81451725D01*
X166737703Y-81451725D02*
X166994218Y-80746955D01*
X166513967Y-81370291D02*
X166770482Y-80665522D01*
X166770482Y-80665522D02*
X166658613Y-80624805D01*
X166658613Y-80624805D02*
X166579278Y-80633935D01*
X166579278Y-80633935D02*
X166510100Y-80684770D01*
X166510100Y-80684770D02*
X166463297Y-80743747D01*
X166463297Y-80743747D02*
X166392063Y-80869846D01*
X166392063Y-80869846D02*
X166355418Y-80970527D01*
X166355418Y-80970527D02*
X166328932Y-81112912D01*
X166328932Y-81112912D02*
X166326875Y-81188176D01*
X166326875Y-81188176D02*
X166347192Y-81271584D01*
X166347192Y-81271584D02*
X166402098Y-81329574D01*
X166402098Y-81329574D02*
X166513967Y-81370291D01*
X168171817Y-79196195D02*
X168450582Y-78917594D01*
X168440300Y-79293915D02*
X168696815Y-78589146D01*
X168696815Y-78589146D02*
X168517826Y-78523999D01*
X168517826Y-78523999D02*
X168460864Y-78541273D01*
X168460864Y-78541273D02*
X168426275Y-78566690D01*
X168426275Y-78566690D02*
X168379472Y-78625667D01*
X168379472Y-78625667D02*
X168342827Y-78726349D01*
X168342827Y-78726349D02*
X168340770Y-78801613D01*
X168340770Y-78801613D02*
X168350929Y-78843317D01*
X168350929Y-78843317D02*
X168383461Y-78893164D01*
X168383461Y-78893164D02*
X168562450Y-78958311D01*
X168066118Y-78929686D02*
X167842381Y-78848252D01*
X168037575Y-79147335D02*
X168137474Y-78385562D01*
X168137474Y-78385562D02*
X167724344Y-79033328D01*
X167868991Y-78287842D02*
X167500608Y-78951895D01*
X167500608Y-78951895D02*
X167594339Y-78415915D01*
X167594339Y-78415915D02*
X167321619Y-78886748D01*
X167321619Y-78886748D02*
X167466266Y-78141262D01*
X169058124Y-106569424D02*
X168978788Y-106578555D01*
X168978788Y-106578555D02*
X168866920Y-106537838D01*
X168866920Y-106537838D02*
X168834387Y-106487991D01*
X168834387Y-106487991D02*
X168824229Y-106446287D01*
X168824229Y-106446287D02*
X168826285Y-106371023D01*
X168826285Y-106371023D02*
X168850715Y-106303902D01*
X168850715Y-106303902D02*
X168897519Y-106244924D01*
X168897519Y-106244924D02*
X168932107Y-106219507D01*
X168932107Y-106219507D02*
X168989070Y-106202233D01*
X168989070Y-106202233D02*
X169090779Y-106201246D01*
X169090779Y-106201246D02*
X169147742Y-106183972D01*
X169147742Y-106183972D02*
X169182330Y-106158555D01*
X169182330Y-106158555D02*
X169229134Y-106099578D01*
X169229134Y-106099578D02*
X169253564Y-106032457D01*
X169253564Y-106032457D02*
X169255620Y-105957193D01*
X169255620Y-105957193D02*
X169245462Y-105915489D01*
X169245462Y-105915489D02*
X169212929Y-105865642D01*
X169212929Y-105865642D02*
X169101061Y-105824925D01*
X169101061Y-105824925D02*
X169021725Y-105834056D01*
X168877325Y-105743492D02*
X168508942Y-106407545D01*
X168508942Y-106407545D02*
X168602673Y-105871565D01*
X168602673Y-105871565D02*
X168329953Y-106342398D01*
X168329953Y-106342398D02*
X168474600Y-105596912D01*
X167792985Y-106146958D02*
X168061469Y-106244678D01*
X167927227Y-106195818D02*
X168183742Y-105491048D01*
X168183742Y-105491048D02*
X168191844Y-105608016D01*
X168191844Y-105608016D02*
X168212162Y-105691424D01*
X168212162Y-105691424D02*
X168244694Y-105741271D01*
X167892885Y-105385185D02*
X167602028Y-105279322D01*
X167602028Y-105279322D02*
X167660924Y-105604809D01*
X167660924Y-105604809D02*
X167593803Y-105580379D01*
X167593803Y-105580379D02*
X167536840Y-105597652D01*
X167536840Y-105597652D02*
X167502252Y-105623070D01*
X167502252Y-105623070D02*
X167455448Y-105682047D01*
X167455448Y-105682047D02*
X167394373Y-105849849D01*
X167394373Y-105849849D02*
X167392317Y-105925114D01*
X167392317Y-105925114D02*
X167402475Y-105966817D01*
X167402475Y-105966817D02*
X167435008Y-106016664D01*
X167435008Y-106016664D02*
X167569249Y-106065525D01*
X167569249Y-106065525D02*
X167626212Y-106048251D01*
X167626212Y-106048251D02*
X167660800Y-106022834D01*
X175083203Y-89092568D02*
X175140166Y-89075294D01*
X175140166Y-89075294D02*
X175207286Y-89099724D01*
X175207286Y-89099724D02*
X175262192Y-89157714D01*
X175262192Y-89157714D02*
X175282510Y-89241122D01*
X175282510Y-89241122D02*
X175280453Y-89316386D01*
X175280453Y-89316386D02*
X175253967Y-89458771D01*
X175253967Y-89458771D02*
X175217322Y-89559453D01*
X175217322Y-89559453D02*
X175146088Y-89685551D01*
X175146088Y-89685551D02*
X175099285Y-89744529D01*
X175099285Y-89744529D02*
X175030107Y-89795363D01*
X175030107Y-89795363D02*
X174950771Y-89804493D01*
X174950771Y-89804493D02*
X174906024Y-89788207D01*
X174906024Y-89788207D02*
X174851118Y-89730216D01*
X174851118Y-89730216D02*
X174840960Y-89688512D01*
X174840960Y-89688512D02*
X174926465Y-89453589D01*
X174926465Y-89453589D02*
X175015959Y-89486162D01*
X174615167Y-89682343D02*
X174871682Y-88977574D01*
X174871682Y-88977574D02*
X174346683Y-89584623D01*
X174346683Y-89584623D02*
X174603198Y-88879854D01*
X174122946Y-89503190D02*
X174379462Y-88798420D01*
X174379462Y-88798420D02*
X174267593Y-88757703D01*
X174267593Y-88757703D02*
X174188257Y-88766834D01*
X174188257Y-88766834D02*
X174119080Y-88817668D01*
X174119080Y-88817668D02*
X174072277Y-88876646D01*
X174072277Y-88876646D02*
X174001043Y-89002744D01*
X174001043Y-89002744D02*
X173964398Y-89103425D01*
X173964398Y-89103425D02*
X173937911Y-89245811D01*
X173937911Y-89245811D02*
X173935855Y-89321075D01*
X173935855Y-89321075D02*
X173956172Y-89404482D01*
X173956172Y-89404482D02*
X174011078Y-89462473D01*
X174011078Y-89462473D02*
X174122946Y-89503190D01*
X172520249Y-96969600D02*
X172440913Y-96978731D01*
X172440913Y-96978731D02*
X172329045Y-96938014D01*
X172329045Y-96938014D02*
X172296512Y-96888167D01*
X172296512Y-96888167D02*
X172286354Y-96846463D01*
X172286354Y-96846463D02*
X172288410Y-96771199D01*
X172288410Y-96771199D02*
X172312840Y-96704078D01*
X172312840Y-96704078D02*
X172359644Y-96645100D01*
X172359644Y-96645100D02*
X172394232Y-96619683D01*
X172394232Y-96619683D02*
X172451195Y-96602409D01*
X172451195Y-96602409D02*
X172552904Y-96601422D01*
X172552904Y-96601422D02*
X172609867Y-96584148D01*
X172609867Y-96584148D02*
X172644455Y-96558731D01*
X172644455Y-96558731D02*
X172691259Y-96499754D01*
X172691259Y-96499754D02*
X172715689Y-96432633D01*
X172715689Y-96432633D02*
X172717745Y-96357369D01*
X172717745Y-96357369D02*
X172707587Y-96315665D01*
X172707587Y-96315665D02*
X172675054Y-96265818D01*
X172675054Y-96265818D02*
X172563186Y-96225101D01*
X172563186Y-96225101D02*
X172483850Y-96234232D01*
X172339450Y-96143668D02*
X171971067Y-96807721D01*
X171971067Y-96807721D02*
X172064798Y-96271741D01*
X172064798Y-96271741D02*
X171792078Y-96742574D01*
X171792078Y-96742574D02*
X171936725Y-95997088D01*
X171478847Y-96628567D02*
X171389352Y-96595994D01*
X171389352Y-96595994D02*
X171356820Y-96546147D01*
X171356820Y-96546147D02*
X171346661Y-96504443D01*
X171346661Y-96504443D02*
X171338559Y-96387475D01*
X171338559Y-96387475D02*
X171365045Y-96245090D01*
X171365045Y-96245090D02*
X171462765Y-95976606D01*
X171462765Y-95976606D02*
X171509569Y-95917628D01*
X171509569Y-95917628D02*
X171544158Y-95892211D01*
X171544158Y-95892211D02*
X171601120Y-95874938D01*
X171601120Y-95874938D02*
X171690614Y-95907511D01*
X171690614Y-95907511D02*
X171723147Y-95957358D01*
X171723147Y-95957358D02*
X171733305Y-95999062D01*
X171733305Y-95999062D02*
X171731249Y-96074326D01*
X171731249Y-96074326D02*
X171670174Y-96242128D01*
X171670174Y-96242128D02*
X171623370Y-96301106D01*
X171623370Y-96301106D02*
X171588782Y-96326523D01*
X171588782Y-96326523D02*
X171531819Y-96343797D01*
X171531819Y-96343797D02*
X171442325Y-96311223D01*
X171442325Y-96311223D02*
X171409793Y-96261376D01*
X171409793Y-96261376D02*
X171399634Y-96219673D01*
X171399634Y-96219673D02*
X171401690Y-96144408D01*
X176895516Y-85036367D02*
X176816180Y-85045498D01*
X176816180Y-85045498D02*
X176704312Y-85004781D01*
X176704312Y-85004781D02*
X176671779Y-84954934D01*
X176671779Y-84954934D02*
X176661621Y-84913230D01*
X176661621Y-84913230D02*
X176663677Y-84837966D01*
X176663677Y-84837966D02*
X176688107Y-84770845D01*
X176688107Y-84770845D02*
X176734911Y-84711867D01*
X176734911Y-84711867D02*
X176769499Y-84686450D01*
X176769499Y-84686450D02*
X176826462Y-84669176D01*
X176826462Y-84669176D02*
X176928171Y-84668189D01*
X176928171Y-84668189D02*
X176985134Y-84650915D01*
X176985134Y-84650915D02*
X177019722Y-84625498D01*
X177019722Y-84625498D02*
X177066526Y-84566521D01*
X177066526Y-84566521D02*
X177090956Y-84499400D01*
X177090956Y-84499400D02*
X177093012Y-84424136D01*
X177093012Y-84424136D02*
X177082854Y-84382432D01*
X177082854Y-84382432D02*
X177050321Y-84332585D01*
X177050321Y-84332585D02*
X176938453Y-84291868D01*
X176938453Y-84291868D02*
X176859117Y-84300999D01*
X176714717Y-84210435D02*
X176346334Y-84874488D01*
X176346334Y-84874488D02*
X176440065Y-84338508D01*
X176440065Y-84338508D02*
X176167345Y-84809341D01*
X176167345Y-84809341D02*
X176311992Y-84063855D01*
X175630377Y-84613901D02*
X175898861Y-84711621D01*
X175764619Y-84662761D02*
X176021134Y-83957991D01*
X176021134Y-83957991D02*
X176029236Y-84074959D01*
X176029236Y-84074959D02*
X176049554Y-84158367D01*
X176049554Y-84158367D02*
X176082086Y-84208214D01*
X175461794Y-83754408D02*
X175685530Y-83835841D01*
X175685530Y-83835841D02*
X175585754Y-84179589D01*
X175585754Y-84179589D02*
X175575595Y-84137885D01*
X175575595Y-84137885D02*
X175543063Y-84088038D01*
X175543063Y-84088038D02*
X175431195Y-84047322D01*
X175431195Y-84047322D02*
X175374232Y-84064595D01*
X175374232Y-84064595D02*
X175339644Y-84090013D01*
X175339644Y-84090013D02*
X175292840Y-84148990D01*
X175292840Y-84148990D02*
X175231765Y-84316792D01*
X175231765Y-84316792D02*
X175229709Y-84392057D01*
X175229709Y-84392057D02*
X175239867Y-84433760D01*
X175239867Y-84433760D02*
X175272400Y-84483607D01*
X175272400Y-84483607D02*
X175384268Y-84524324D01*
X175384268Y-84524324D02*
X175441230Y-84507050D01*
X175441230Y-84507050D02*
X175475819Y-84481633D01*
X169918305Y-104206097D02*
X169838969Y-104215228D01*
X169838969Y-104215228D02*
X169727101Y-104174511D01*
X169727101Y-104174511D02*
X169694568Y-104124664D01*
X169694568Y-104124664D02*
X169684410Y-104082960D01*
X169684410Y-104082960D02*
X169686466Y-104007696D01*
X169686466Y-104007696D02*
X169710896Y-103940575D01*
X169710896Y-103940575D02*
X169757700Y-103881597D01*
X169757700Y-103881597D02*
X169792288Y-103856180D01*
X169792288Y-103856180D02*
X169849251Y-103838906D01*
X169849251Y-103838906D02*
X169950960Y-103837919D01*
X169950960Y-103837919D02*
X170007923Y-103820645D01*
X170007923Y-103820645D02*
X170042511Y-103795228D01*
X170042511Y-103795228D02*
X170089315Y-103736251D01*
X170089315Y-103736251D02*
X170113745Y-103669130D01*
X170113745Y-103669130D02*
X170115801Y-103593866D01*
X170115801Y-103593866D02*
X170105643Y-103552162D01*
X170105643Y-103552162D02*
X170073110Y-103502315D01*
X170073110Y-103502315D02*
X169961242Y-103461598D01*
X169961242Y-103461598D02*
X169881906Y-103470729D01*
X169737506Y-103380165D02*
X169369123Y-104044218D01*
X169369123Y-104044218D02*
X169462854Y-103508238D01*
X169462854Y-103508238D02*
X169190134Y-103979071D01*
X169190134Y-103979071D02*
X169334781Y-103233585D01*
X168653166Y-103783631D02*
X168921650Y-103881351D01*
X168787408Y-103832491D02*
X169043923Y-103127721D01*
X169043923Y-103127721D02*
X169052025Y-103244689D01*
X169052025Y-103244689D02*
X169072343Y-103328097D01*
X169072343Y-103328097D02*
X169104875Y-103377944D01*
X168706263Y-103080836D02*
X168696104Y-103039132D01*
X168696104Y-103039132D02*
X168663572Y-102989285D01*
X168663572Y-102989285D02*
X168551704Y-102948568D01*
X168551704Y-102948568D02*
X168494741Y-102965842D01*
X168494741Y-102965842D02*
X168460153Y-102991259D01*
X168460153Y-102991259D02*
X168413349Y-103050236D01*
X168413349Y-103050236D02*
X168388919Y-103117357D01*
X168388919Y-103117357D02*
X168374648Y-103226182D01*
X168374648Y-103226182D02*
X168496551Y-103726628D01*
X168496551Y-103726628D02*
X168205694Y-103620764D01*
X162217911Y-96061210D02*
X162138575Y-96070341D01*
X162138575Y-96070341D02*
X162026707Y-96029624D01*
X162026707Y-96029624D02*
X161994175Y-95979777D01*
X161994175Y-95979777D02*
X161984016Y-95938073D01*
X161984016Y-95938073D02*
X161986072Y-95862809D01*
X161986072Y-95862809D02*
X162010502Y-95795688D01*
X162010502Y-95795688D02*
X162057306Y-95736710D01*
X162057306Y-95736710D02*
X162091895Y-95711293D01*
X162091895Y-95711293D02*
X162148857Y-95694019D01*
X162148857Y-95694019D02*
X162250566Y-95693032D01*
X162250566Y-95693032D02*
X162307529Y-95675759D01*
X162307529Y-95675759D02*
X162342117Y-95650341D01*
X162342117Y-95650341D02*
X162388921Y-95591364D01*
X162388921Y-95591364D02*
X162413351Y-95524243D01*
X162413351Y-95524243D02*
X162415407Y-95448979D01*
X162415407Y-95448979D02*
X162405249Y-95407275D01*
X162405249Y-95407275D02*
X162372717Y-95357428D01*
X162372717Y-95357428D02*
X162260848Y-95316711D01*
X162260848Y-95316711D02*
X162181512Y-95325842D01*
X162037112Y-95235278D02*
X161668729Y-95899331D01*
X161668729Y-95899331D02*
X161762460Y-95363351D01*
X161762460Y-95363351D02*
X161489740Y-95834184D01*
X161489740Y-95834184D02*
X161634387Y-95088698D01*
X161168530Y-95185184D02*
X160997520Y-95655031D01*
X161378118Y-94957417D02*
X161306761Y-95501541D01*
X161306761Y-95501541D02*
X161015904Y-95395677D01*
X174261132Y-92186564D02*
X174181796Y-92195695D01*
X174181796Y-92195695D02*
X174069928Y-92154978D01*
X174069928Y-92154978D02*
X174037395Y-92105131D01*
X174037395Y-92105131D02*
X174027237Y-92063427D01*
X174027237Y-92063427D02*
X174029293Y-91988163D01*
X174029293Y-91988163D02*
X174053723Y-91921042D01*
X174053723Y-91921042D02*
X174100527Y-91862064D01*
X174100527Y-91862064D02*
X174135115Y-91836647D01*
X174135115Y-91836647D02*
X174192078Y-91819373D01*
X174192078Y-91819373D02*
X174293787Y-91818386D01*
X174293787Y-91818386D02*
X174350750Y-91801112D01*
X174350750Y-91801112D02*
X174385338Y-91775695D01*
X174385338Y-91775695D02*
X174432142Y-91716718D01*
X174432142Y-91716718D02*
X174456572Y-91649597D01*
X174456572Y-91649597D02*
X174458628Y-91574333D01*
X174458628Y-91574333D02*
X174448470Y-91532629D01*
X174448470Y-91532629D02*
X174415937Y-91482782D01*
X174415937Y-91482782D02*
X174304069Y-91442065D01*
X174304069Y-91442065D02*
X174224733Y-91451196D01*
X174080333Y-91360632D02*
X173711950Y-92024685D01*
X173711950Y-92024685D02*
X173805681Y-91488705D01*
X173805681Y-91488705D02*
X173532961Y-91959538D01*
X173532961Y-91959538D02*
X173677608Y-91214052D01*
X172995993Y-91764098D02*
X173264477Y-91861818D01*
X173130235Y-91812958D02*
X173386750Y-91108188D01*
X173386750Y-91108188D02*
X173394852Y-91225156D01*
X173394852Y-91225156D02*
X173415170Y-91308564D01*
X173415170Y-91308564D02*
X173447702Y-91358411D01*
X172849783Y-90912748D02*
X172939278Y-90945322D01*
X172939278Y-90945322D02*
X172971810Y-90995169D01*
X172971810Y-90995169D02*
X172981969Y-91036873D01*
X172981969Y-91036873D02*
X172990071Y-91153841D01*
X172990071Y-91153841D02*
X172963585Y-91296226D01*
X172963585Y-91296226D02*
X172865865Y-91564709D01*
X172865865Y-91564709D02*
X172819061Y-91623687D01*
X172819061Y-91623687D02*
X172784472Y-91649104D01*
X172784472Y-91649104D02*
X172727510Y-91666378D01*
X172727510Y-91666378D02*
X172638016Y-91633804D01*
X172638016Y-91633804D02*
X172605483Y-91583957D01*
X172605483Y-91583957D02*
X172595325Y-91542254D01*
X172595325Y-91542254D02*
X172597381Y-91466989D01*
X172597381Y-91466989D02*
X172658456Y-91299187D01*
X172658456Y-91299187D02*
X172705260Y-91240210D01*
X172705260Y-91240210D02*
X172739848Y-91214792D01*
X172739848Y-91214792D02*
X172796811Y-91197519D01*
X172796811Y-91197519D02*
X172886305Y-91230092D01*
X172886305Y-91230092D02*
X172918837Y-91279939D01*
X172918837Y-91279939D02*
X172928996Y-91321643D01*
X172928996Y-91321643D02*
X172926940Y-91396907D01*
X167042660Y-84233806D02*
X167321426Y-83955205D01*
X167311144Y-84331526D02*
X167567659Y-83626756D01*
X167567659Y-83626756D02*
X167388670Y-83561610D01*
X167388670Y-83561610D02*
X167331708Y-83578883D01*
X167331708Y-83578883D02*
X167297119Y-83604300D01*
X167297119Y-83604300D02*
X167250315Y-83663278D01*
X167250315Y-83663278D02*
X167213670Y-83763959D01*
X167213670Y-83763959D02*
X167211614Y-83839224D01*
X167211614Y-83839224D02*
X167221772Y-83880927D01*
X167221772Y-83880927D02*
X167254305Y-83930774D01*
X167254305Y-83930774D02*
X167433294Y-83995921D01*
X166975662Y-83791351D02*
X166819047Y-83734347D01*
X166617561Y-84079082D02*
X166841297Y-84160516D01*
X166841297Y-84160516D02*
X167097813Y-83455746D01*
X167097813Y-83455746D02*
X166874076Y-83374313D01*
X166450787Y-83980375D02*
X166371451Y-83989506D01*
X166371451Y-83989506D02*
X166259583Y-83948789D01*
X166259583Y-83948789D02*
X166227051Y-83898942D01*
X166227051Y-83898942D02*
X166216892Y-83857238D01*
X166216892Y-83857238D02*
X166218948Y-83781974D01*
X166218948Y-83781974D02*
X166243378Y-83714853D01*
X166243378Y-83714853D02*
X166290182Y-83655875D01*
X166290182Y-83655875D02*
X166324771Y-83630458D01*
X166324771Y-83630458D02*
X166381733Y-83613184D01*
X166381733Y-83613184D02*
X166483443Y-83612197D01*
X166483443Y-83612197D02*
X166540405Y-83594923D01*
X166540405Y-83594923D02*
X166574993Y-83569506D01*
X166574993Y-83569506D02*
X166621797Y-83510529D01*
X166621797Y-83510529D02*
X166646227Y-83443408D01*
X166646227Y-83443408D02*
X166648283Y-83368144D01*
X166648283Y-83368144D02*
X166638125Y-83326440D01*
X166638125Y-83326440D02*
X166605593Y-83276593D01*
X166605593Y-83276593D02*
X166493724Y-83235876D01*
X166493724Y-83235876D02*
X166414388Y-83245006D01*
X166103091Y-83473761D02*
X165946476Y-83416757D01*
X165744990Y-83761492D02*
X165968726Y-83842926D01*
X165968726Y-83842926D02*
X166225241Y-83138156D01*
X166225241Y-83138156D02*
X166001505Y-83056723D01*
X165867263Y-83007863D02*
X165598779Y-82910143D01*
X165476506Y-83663772D02*
X165733021Y-82959003D01*
X163993824Y-91269641D02*
X163914488Y-91278772D01*
X163914488Y-91278772D02*
X163802620Y-91238055D01*
X163802620Y-91238055D02*
X163770088Y-91188208D01*
X163770088Y-91188208D02*
X163759929Y-91146504D01*
X163759929Y-91146504D02*
X163761985Y-91071240D01*
X163761985Y-91071240D02*
X163786415Y-91004119D01*
X163786415Y-91004119D02*
X163833219Y-90945141D01*
X163833219Y-90945141D02*
X163867808Y-90919724D01*
X163867808Y-90919724D02*
X163924770Y-90902450D01*
X163924770Y-90902450D02*
X164026479Y-90901463D01*
X164026479Y-90901463D02*
X164083442Y-90884190D01*
X164083442Y-90884190D02*
X164118030Y-90858772D01*
X164118030Y-90858772D02*
X164164834Y-90799795D01*
X164164834Y-90799795D02*
X164189264Y-90732674D01*
X164189264Y-90732674D02*
X164191320Y-90657410D01*
X164191320Y-90657410D02*
X164181162Y-90615706D01*
X164181162Y-90615706D02*
X164148630Y-90565859D01*
X164148630Y-90565859D02*
X164036761Y-90525142D01*
X164036761Y-90525142D02*
X163957425Y-90534273D01*
X163813025Y-90443709D02*
X163444642Y-91107762D01*
X163444642Y-91107762D02*
X163538373Y-90571782D01*
X163538373Y-90571782D02*
X163265653Y-91042615D01*
X163265653Y-91042615D02*
X163410300Y-90297129D01*
X163229254Y-90307246D02*
X163219096Y-90265543D01*
X163219096Y-90265543D02*
X163186563Y-90215695D01*
X163186563Y-90215695D02*
X163074695Y-90174979D01*
X163074695Y-90174979D02*
X163017733Y-90192252D01*
X163017733Y-90192252D02*
X162983144Y-90217670D01*
X162983144Y-90217670D02*
X162936341Y-90276647D01*
X162936341Y-90276647D02*
X162911911Y-90343768D01*
X162911911Y-90343768D02*
X162897639Y-90452593D01*
X162897639Y-90452593D02*
X163019543Y-90953038D01*
X163019543Y-90953038D02*
X162728686Y-90847175D01*
X176000646Y-86659628D02*
X176057609Y-86642354D01*
X176057609Y-86642354D02*
X176124729Y-86666784D01*
X176124729Y-86666784D02*
X176179635Y-86724774D01*
X176179635Y-86724774D02*
X176199953Y-86808182D01*
X176199953Y-86808182D02*
X176197896Y-86883446D01*
X176197896Y-86883446D02*
X176171410Y-87025831D01*
X176171410Y-87025831D02*
X176134765Y-87126513D01*
X176134765Y-87126513D02*
X176063531Y-87252611D01*
X176063531Y-87252611D02*
X176016728Y-87311589D01*
X176016728Y-87311589D02*
X175947550Y-87362423D01*
X175947550Y-87362423D02*
X175868214Y-87371553D01*
X175868214Y-87371553D02*
X175823467Y-87355267D01*
X175823467Y-87355267D02*
X175768561Y-87297276D01*
X175768561Y-87297276D02*
X175758403Y-87255572D01*
X175758403Y-87255572D02*
X175843908Y-87020649D01*
X175843908Y-87020649D02*
X175933402Y-87053222D01*
X175532610Y-87249403D02*
X175789125Y-86544634D01*
X175789125Y-86544634D02*
X175264126Y-87151683D01*
X175264126Y-87151683D02*
X175520641Y-86446914D01*
X175040389Y-87070250D02*
X175296905Y-86365480D01*
X175296905Y-86365480D02*
X175185036Y-86324763D01*
X175185036Y-86324763D02*
X175105700Y-86333894D01*
X175105700Y-86333894D02*
X175036523Y-86384728D01*
X175036523Y-86384728D02*
X174989720Y-86443706D01*
X174989720Y-86443706D02*
X174918486Y-86569804D01*
X174918486Y-86569804D02*
X174881841Y-86670485D01*
X174881841Y-86670485D02*
X174855354Y-86812871D01*
X174855354Y-86812871D02*
X174853298Y-86888135D01*
X174853298Y-86888135D02*
X174873615Y-86971542D01*
X174873615Y-86971542D02*
X174928521Y-87029533D01*
X174928521Y-87029533D02*
X175040389Y-87070250D01*
X177784768Y-82593166D02*
X177705432Y-82602297D01*
X177705432Y-82602297D02*
X177593564Y-82561580D01*
X177593564Y-82561580D02*
X177561031Y-82511733D01*
X177561031Y-82511733D02*
X177550873Y-82470029D01*
X177550873Y-82470029D02*
X177552929Y-82394765D01*
X177552929Y-82394765D02*
X177577359Y-82327644D01*
X177577359Y-82327644D02*
X177624163Y-82268666D01*
X177624163Y-82268666D02*
X177658751Y-82243249D01*
X177658751Y-82243249D02*
X177715714Y-82225975D01*
X177715714Y-82225975D02*
X177817423Y-82224988D01*
X177817423Y-82224988D02*
X177874386Y-82207714D01*
X177874386Y-82207714D02*
X177908974Y-82182297D01*
X177908974Y-82182297D02*
X177955778Y-82123320D01*
X177955778Y-82123320D02*
X177980208Y-82056199D01*
X177980208Y-82056199D02*
X177982264Y-81980935D01*
X177982264Y-81980935D02*
X177972106Y-81939231D01*
X177972106Y-81939231D02*
X177939573Y-81889384D01*
X177939573Y-81889384D02*
X177827705Y-81848667D01*
X177827705Y-81848667D02*
X177748369Y-81857798D01*
X177603969Y-81767234D02*
X177235586Y-82431287D01*
X177235586Y-82431287D02*
X177329317Y-81895307D01*
X177329317Y-81895307D02*
X177056597Y-82366140D01*
X177056597Y-82366140D02*
X177201244Y-81620654D01*
X176519629Y-82170700D02*
X176788113Y-82268420D01*
X176653871Y-82219560D02*
X176910386Y-81514790D01*
X176910386Y-81514790D02*
X176918488Y-81631758D01*
X176918488Y-81631758D02*
X176938806Y-81715166D01*
X176938806Y-81715166D02*
X176971338Y-81765013D01*
X176397726Y-81670254D02*
X176454688Y-81652981D01*
X176454688Y-81652981D02*
X176489277Y-81627564D01*
X176489277Y-81627564D02*
X176536081Y-81568586D01*
X176536081Y-81568586D02*
X176548296Y-81535026D01*
X176548296Y-81535026D02*
X176550352Y-81459761D01*
X176550352Y-81459761D02*
X176540194Y-81418058D01*
X176540194Y-81418058D02*
X176507661Y-81368210D01*
X176507661Y-81368210D02*
X176418167Y-81335637D01*
X176418167Y-81335637D02*
X176361204Y-81352911D01*
X176361204Y-81352911D02*
X176326616Y-81378328D01*
X176326616Y-81378328D02*
X176279812Y-81437305D01*
X176279812Y-81437305D02*
X176267597Y-81470866D01*
X176267597Y-81470866D02*
X176265541Y-81546130D01*
X176265541Y-81546130D02*
X176275699Y-81587834D01*
X176275699Y-81587834D02*
X176308232Y-81637681D01*
X176308232Y-81637681D02*
X176397726Y-81670254D01*
X176397726Y-81670254D02*
X176430258Y-81720102D01*
X176430258Y-81720102D02*
X176440417Y-81761805D01*
X176440417Y-81761805D02*
X176438361Y-81837070D01*
X176438361Y-81837070D02*
X176389501Y-81971311D01*
X176389501Y-81971311D02*
X176342697Y-82030289D01*
X176342697Y-82030289D02*
X176308108Y-82055706D01*
X176308108Y-82055706D02*
X176251146Y-82072980D01*
X176251146Y-82072980D02*
X176161652Y-82040406D01*
X176161652Y-82040406D02*
X176129119Y-81990559D01*
X176129119Y-81990559D02*
X176118961Y-81948856D01*
X176118961Y-81948856D02*
X176121017Y-81873591D01*
X176121017Y-81873591D02*
X176169877Y-81739350D01*
X176169877Y-81739350D02*
X176216681Y-81680372D01*
X176216681Y-81680372D02*
X176251269Y-81654955D01*
X176251269Y-81654955D02*
X176308232Y-81637681D01*
X175280855Y-82023874D02*
X175315444Y-81998456D01*
X175315444Y-81998456D02*
X175396836Y-81914062D01*
X175396836Y-81914062D02*
X175443640Y-81855084D01*
X175443640Y-81855084D02*
X175502658Y-81762546D01*
X175502658Y-81762546D02*
X175586107Y-81602887D01*
X175586107Y-81602887D02*
X175634967Y-81468646D01*
X175634967Y-81468646D02*
X175673668Y-81292700D01*
X175673668Y-81292700D02*
X175687940Y-81183875D01*
X175687940Y-81183875D02*
X175689996Y-81108611D01*
X175689996Y-81108611D02*
X175681894Y-80991643D01*
X175681894Y-80991643D02*
X175671735Y-80949939D01*
X175370597Y-81220397D02*
X175150726Y-81824485D01*
X175150726Y-81824485D02*
X175148670Y-81899749D01*
X175148670Y-81899749D02*
X175181202Y-81949597D01*
X175181202Y-81949597D02*
X175203576Y-81957740D01*
X175456102Y-80985474D02*
X175466260Y-81027178D01*
X175466260Y-81027178D02*
X175431672Y-81052595D01*
X175431672Y-81052595D02*
X175421513Y-81010891D01*
X175421513Y-81010891D02*
X175456102Y-80985474D01*
X175456102Y-80985474D02*
X175431672Y-81052595D01*
X174774488Y-81535520D02*
X174908853Y-81166355D01*
X174908853Y-81166355D02*
X174955656Y-81107378D01*
X174955656Y-81107378D02*
X175012619Y-81090104D01*
X175012619Y-81090104D02*
X175102113Y-81122677D01*
X175102113Y-81122677D02*
X175134645Y-81172524D01*
X174786703Y-81501960D02*
X174819235Y-81551807D01*
X174819235Y-81551807D02*
X174931103Y-81592523D01*
X174931103Y-81592523D02*
X174988065Y-81575250D01*
X174988065Y-81575250D02*
X175034869Y-81516272D01*
X175034869Y-81516272D02*
X175059299Y-81449151D01*
X175059299Y-81449151D02*
X175061355Y-81373887D01*
X175061355Y-81373887D02*
X175028823Y-81324040D01*
X175028823Y-81324040D02*
X174916955Y-81283323D01*
X174916955Y-81283323D02*
X174884423Y-81233476D01*
X174361604Y-81347236D02*
X174394136Y-81397083D01*
X174394136Y-81397083D02*
X174483630Y-81429657D01*
X174483630Y-81429657D02*
X174540593Y-81412383D01*
X174540593Y-81412383D02*
X174575181Y-81386966D01*
X174575181Y-81386966D02*
X174621985Y-81327988D01*
X174621985Y-81327988D02*
X174695275Y-81126626D01*
X174695275Y-81126626D02*
X174697331Y-81051361D01*
X174697331Y-81051361D02*
X174687173Y-81009658D01*
X174687173Y-81009658D02*
X174654640Y-80959810D01*
X174654640Y-80959810D02*
X174565146Y-80927237D01*
X174565146Y-80927237D02*
X174508184Y-80944511D01*
X174148026Y-81307507D02*
X174404541Y-80602737D01*
X174200999Y-81022737D02*
X173969037Y-81242360D01*
X174140047Y-80772514D02*
X174221316Y-81106144D01*
X173714702Y-81453840D02*
X173704543Y-81412137D01*
X173704543Y-81412137D02*
X173696441Y-81295169D01*
X173696441Y-81295169D02*
X173698497Y-81219904D01*
X173698497Y-81219904D02*
X173712769Y-81111080D01*
X173712769Y-81111080D02*
X173751470Y-80935134D01*
X173751470Y-80935134D02*
X173800330Y-80800892D01*
X173800330Y-80800892D02*
X173883779Y-80641233D01*
X173883779Y-80641233D02*
X173942797Y-80548695D01*
X173942797Y-80548695D02*
X173989601Y-80489718D01*
X173989601Y-80489718D02*
X174070993Y-80405323D01*
X174070993Y-80405323D02*
X174105582Y-80379906D01*
X160562481Y-100784893D02*
X160483145Y-100794024D01*
X160483145Y-100794024D02*
X160371277Y-100753307D01*
X160371277Y-100753307D02*
X160338745Y-100703460D01*
X160338745Y-100703460D02*
X160328586Y-100661756D01*
X160328586Y-100661756D02*
X160330642Y-100586492D01*
X160330642Y-100586492D02*
X160355072Y-100519371D01*
X160355072Y-100519371D02*
X160401876Y-100460393D01*
X160401876Y-100460393D02*
X160436465Y-100434976D01*
X160436465Y-100434976D02*
X160493427Y-100417702D01*
X160493427Y-100417702D02*
X160595136Y-100416715D01*
X160595136Y-100416715D02*
X160652099Y-100399442D01*
X160652099Y-100399442D02*
X160686687Y-100374024D01*
X160686687Y-100374024D02*
X160733491Y-100315047D01*
X160733491Y-100315047D02*
X160757921Y-100247926D01*
X160757921Y-100247926D02*
X160759977Y-100172662D01*
X160759977Y-100172662D02*
X160749819Y-100130958D01*
X160749819Y-100130958D02*
X160717287Y-100081111D01*
X160717287Y-100081111D02*
X160605418Y-100040394D01*
X160605418Y-100040394D02*
X160526082Y-100049525D01*
X160381682Y-99958961D02*
X160013299Y-100623014D01*
X160013299Y-100623014D02*
X160107030Y-100087034D01*
X160107030Y-100087034D02*
X159834310Y-100557867D01*
X159834310Y-100557867D02*
X159978957Y-99812381D01*
X159598605Y-99673944D02*
X159688099Y-99706517D01*
X159688099Y-99706517D02*
X159720632Y-99756365D01*
X159720632Y-99756365D02*
X159730790Y-99798068D01*
X159730790Y-99798068D02*
X159738893Y-99915036D01*
X159738893Y-99915036D02*
X159712406Y-100057421D01*
X159712406Y-100057421D02*
X159614686Y-100325905D01*
X159614686Y-100325905D02*
X159567882Y-100384883D01*
X159567882Y-100384883D02*
X159533294Y-100410300D01*
X159533294Y-100410300D02*
X159476332Y-100427574D01*
X159476332Y-100427574D02*
X159386837Y-100395000D01*
X159386837Y-100395000D02*
X159354305Y-100345153D01*
X159354305Y-100345153D02*
X159344146Y-100303449D01*
X159344146Y-100303449D02*
X159346203Y-100228185D01*
X159346203Y-100228185D02*
X159407278Y-100060383D01*
X159407278Y-100060383D02*
X159454081Y-100001405D01*
X159454081Y-100001405D02*
X159488670Y-99975988D01*
X159488670Y-99975988D02*
X159545632Y-99958714D01*
X159545632Y-99958714D02*
X159635127Y-99991288D01*
X159635127Y-99991288D02*
X159667659Y-100041135D01*
X159667659Y-100041135D02*
X159677818Y-100082839D01*
X159677818Y-100082839D02*
X159675761Y-100158103D01*
X173378720Y-94610971D02*
X173299384Y-94620102D01*
X173299384Y-94620102D02*
X173187516Y-94579385D01*
X173187516Y-94579385D02*
X173154983Y-94529538D01*
X173154983Y-94529538D02*
X173144825Y-94487834D01*
X173144825Y-94487834D02*
X173146881Y-94412570D01*
X173146881Y-94412570D02*
X173171311Y-94345449D01*
X173171311Y-94345449D02*
X173218115Y-94286471D01*
X173218115Y-94286471D02*
X173252703Y-94261054D01*
X173252703Y-94261054D02*
X173309666Y-94243780D01*
X173309666Y-94243780D02*
X173411375Y-94242793D01*
X173411375Y-94242793D02*
X173468338Y-94225519D01*
X173468338Y-94225519D02*
X173502926Y-94200102D01*
X173502926Y-94200102D02*
X173549730Y-94141125D01*
X173549730Y-94141125D02*
X173574160Y-94074004D01*
X173574160Y-94074004D02*
X173576216Y-93998740D01*
X173576216Y-93998740D02*
X173566058Y-93957036D01*
X173566058Y-93957036D02*
X173533525Y-93907189D01*
X173533525Y-93907189D02*
X173421657Y-93866472D01*
X173421657Y-93866472D02*
X173342321Y-93875603D01*
X173197921Y-93785039D02*
X172829538Y-94449092D01*
X172829538Y-94449092D02*
X172923269Y-93913112D01*
X172923269Y-93913112D02*
X172650549Y-94383945D01*
X172650549Y-94383945D02*
X172795196Y-93638459D01*
X172113581Y-94188505D02*
X172382065Y-94286225D01*
X172247823Y-94237365D02*
X172504338Y-93532595D01*
X172504338Y-93532595D02*
X172512440Y-93649563D01*
X172512440Y-93649563D02*
X172532758Y-93732971D01*
X172532758Y-93732971D02*
X172565290Y-93782818D01*
X172213481Y-93426732D02*
X171900251Y-93312725D01*
X171900251Y-93312725D02*
X171845098Y-94090785D01*
X164876236Y-88845234D02*
X164796900Y-88854365D01*
X164796900Y-88854365D02*
X164685032Y-88813648D01*
X164685032Y-88813648D02*
X164652500Y-88763801D01*
X164652500Y-88763801D02*
X164642341Y-88722097D01*
X164642341Y-88722097D02*
X164644397Y-88646833D01*
X164644397Y-88646833D02*
X164668827Y-88579712D01*
X164668827Y-88579712D02*
X164715631Y-88520734D01*
X164715631Y-88520734D02*
X164750220Y-88495317D01*
X164750220Y-88495317D02*
X164807182Y-88478043D01*
X164807182Y-88478043D02*
X164908891Y-88477056D01*
X164908891Y-88477056D02*
X164965854Y-88459783D01*
X164965854Y-88459783D02*
X165000442Y-88434365D01*
X165000442Y-88434365D02*
X165047246Y-88375388D01*
X165047246Y-88375388D02*
X165071676Y-88308267D01*
X165071676Y-88308267D02*
X165073732Y-88233003D01*
X165073732Y-88233003D02*
X165063574Y-88191299D01*
X165063574Y-88191299D02*
X165031042Y-88141452D01*
X165031042Y-88141452D02*
X164919173Y-88100735D01*
X164919173Y-88100735D02*
X164839837Y-88109866D01*
X164695437Y-88019302D02*
X164327054Y-88683355D01*
X164327054Y-88683355D02*
X164420785Y-88147375D01*
X164420785Y-88147375D02*
X164148065Y-88618208D01*
X164148065Y-88618208D02*
X164292712Y-87872722D01*
X163611098Y-88422768D02*
X163879581Y-88520488D01*
X163745339Y-88471628D02*
X164001854Y-87766858D01*
X164001854Y-87766858D02*
X164009957Y-87883826D01*
X164009957Y-87883826D02*
X164030274Y-87967234D01*
X164030274Y-87967234D02*
X164062806Y-88017081D01*
X163135354Y-93628270D02*
X163056018Y-93637401D01*
X163056018Y-93637401D02*
X162944150Y-93596684D01*
X162944150Y-93596684D02*
X162911618Y-93546837D01*
X162911618Y-93546837D02*
X162901459Y-93505133D01*
X162901459Y-93505133D02*
X162903515Y-93429869D01*
X162903515Y-93429869D02*
X162927945Y-93362748D01*
X162927945Y-93362748D02*
X162974749Y-93303770D01*
X162974749Y-93303770D02*
X163009338Y-93278353D01*
X163009338Y-93278353D02*
X163066300Y-93261079D01*
X163066300Y-93261079D02*
X163168009Y-93260092D01*
X163168009Y-93260092D02*
X163224972Y-93242819D01*
X163224972Y-93242819D02*
X163259560Y-93217401D01*
X163259560Y-93217401D02*
X163306364Y-93158424D01*
X163306364Y-93158424D02*
X163330794Y-93091303D01*
X163330794Y-93091303D02*
X163332850Y-93016039D01*
X163332850Y-93016039D02*
X163322692Y-92974335D01*
X163322692Y-92974335D02*
X163290160Y-92924488D01*
X163290160Y-92924488D02*
X163178291Y-92883771D01*
X163178291Y-92883771D02*
X163098955Y-92892902D01*
X162954555Y-92802338D02*
X162586172Y-93466391D01*
X162586172Y-93466391D02*
X162679903Y-92930411D01*
X162679903Y-92930411D02*
X162407183Y-93401244D01*
X162407183Y-93401244D02*
X162551830Y-92655758D01*
X162417588Y-92606898D02*
X162126731Y-92501034D01*
X162126731Y-92501034D02*
X162185626Y-92826521D01*
X162185626Y-92826521D02*
X162118505Y-92802091D01*
X162118505Y-92802091D02*
X162061543Y-92819365D01*
X162061543Y-92819365D02*
X162026954Y-92844782D01*
X162026954Y-92844782D02*
X161980151Y-92903760D01*
X161980151Y-92903760D02*
X161919076Y-93071562D01*
X161919076Y-93071562D02*
X161917019Y-93146826D01*
X161917019Y-93146826D02*
X161927178Y-93188530D01*
X161927178Y-93188530D02*
X161959710Y-93238377D01*
X161959710Y-93238377D02*
X162093952Y-93287237D01*
X162093952Y-93287237D02*
X162150914Y-93269963D01*
X162150914Y-93269963D02*
X162185503Y-93244546D01*
X158824190Y-105473095D02*
X158744854Y-105482226D01*
X158744854Y-105482226D02*
X158632986Y-105441509D01*
X158632986Y-105441509D02*
X158600454Y-105391662D01*
X158600454Y-105391662D02*
X158590295Y-105349958D01*
X158590295Y-105349958D02*
X158592351Y-105274694D01*
X158592351Y-105274694D02*
X158616781Y-105207573D01*
X158616781Y-105207573D02*
X158663585Y-105148595D01*
X158663585Y-105148595D02*
X158698174Y-105123178D01*
X158698174Y-105123178D02*
X158755136Y-105105904D01*
X158755136Y-105105904D02*
X158856845Y-105104917D01*
X158856845Y-105104917D02*
X158913808Y-105087644D01*
X158913808Y-105087644D02*
X158948396Y-105062226D01*
X158948396Y-105062226D02*
X158995200Y-105003249D01*
X158995200Y-105003249D02*
X159019630Y-104936128D01*
X159019630Y-104936128D02*
X159021686Y-104860864D01*
X159021686Y-104860864D02*
X159011528Y-104819160D01*
X159011528Y-104819160D02*
X158978996Y-104769313D01*
X158978996Y-104769313D02*
X158867127Y-104728596D01*
X158867127Y-104728596D02*
X158787791Y-104737727D01*
X158643391Y-104647163D02*
X158275008Y-105311216D01*
X158275008Y-105311216D02*
X158368739Y-104775236D01*
X158368739Y-104775236D02*
X158096019Y-105246069D01*
X158096019Y-105246069D02*
X158240666Y-104500583D01*
X157884621Y-104713050D02*
X157941583Y-104695776D01*
X157941583Y-104695776D02*
X157976172Y-104670359D01*
X157976172Y-104670359D02*
X158022975Y-104611382D01*
X158022975Y-104611382D02*
X158035190Y-104577821D01*
X158035190Y-104577821D02*
X158037247Y-104502557D01*
X158037247Y-104502557D02*
X158027088Y-104460853D01*
X158027088Y-104460853D02*
X157994556Y-104411006D01*
X157994556Y-104411006D02*
X157905061Y-104378433D01*
X157905061Y-104378433D02*
X157848099Y-104395706D01*
X157848099Y-104395706D02*
X157813510Y-104421124D01*
X157813510Y-104421124D02*
X157766707Y-104480101D01*
X157766707Y-104480101D02*
X157754492Y-104513662D01*
X157754492Y-104513662D02*
X157752435Y-104588926D01*
X157752435Y-104588926D02*
X157762594Y-104630630D01*
X157762594Y-104630630D02*
X157795126Y-104680477D01*
X157795126Y-104680477D02*
X157884621Y-104713050D01*
X157884621Y-104713050D02*
X157917153Y-104762897D01*
X157917153Y-104762897D02*
X157927312Y-104804601D01*
X157927312Y-104804601D02*
X157925255Y-104879865D01*
X157925255Y-104879865D02*
X157876395Y-105014107D01*
X157876395Y-105014107D02*
X157829591Y-105073085D01*
X157829591Y-105073085D02*
X157795003Y-105098502D01*
X157795003Y-105098502D02*
X157738041Y-105115776D01*
X157738041Y-105115776D02*
X157648546Y-105083202D01*
X157648546Y-105083202D02*
X157616014Y-105033355D01*
X157616014Y-105033355D02*
X157605855Y-104991651D01*
X157605855Y-104991651D02*
X157607912Y-104916387D01*
X157607912Y-104916387D02*
X157656772Y-104782145D01*
X157656772Y-104782145D02*
X157703575Y-104723168D01*
X157703575Y-104723168D02*
X157738164Y-104697751D01*
X157738164Y-104697751D02*
X157795126Y-104680477D01*
X171602806Y-99402540D02*
X171523470Y-99411671D01*
X171523470Y-99411671D02*
X171411602Y-99370954D01*
X171411602Y-99370954D02*
X171379069Y-99321107D01*
X171379069Y-99321107D02*
X171368911Y-99279403D01*
X171368911Y-99279403D02*
X171370967Y-99204139D01*
X171370967Y-99204139D02*
X171395397Y-99137018D01*
X171395397Y-99137018D02*
X171442201Y-99078040D01*
X171442201Y-99078040D02*
X171476789Y-99052623D01*
X171476789Y-99052623D02*
X171533752Y-99035349D01*
X171533752Y-99035349D02*
X171635461Y-99034362D01*
X171635461Y-99034362D02*
X171692424Y-99017088D01*
X171692424Y-99017088D02*
X171727012Y-98991671D01*
X171727012Y-98991671D02*
X171773816Y-98932694D01*
X171773816Y-98932694D02*
X171798246Y-98865573D01*
X171798246Y-98865573D02*
X171800302Y-98790309D01*
X171800302Y-98790309D02*
X171790144Y-98748605D01*
X171790144Y-98748605D02*
X171757611Y-98698758D01*
X171757611Y-98698758D02*
X171645743Y-98658041D01*
X171645743Y-98658041D02*
X171566407Y-98667172D01*
X171422007Y-98576608D02*
X171053624Y-99240661D01*
X171053624Y-99240661D02*
X171147355Y-98704681D01*
X171147355Y-98704681D02*
X170874635Y-99175514D01*
X170874635Y-99175514D02*
X171019282Y-98430028D01*
X170337667Y-98980074D02*
X170606151Y-99077794D01*
X170471909Y-99028934D02*
X170728424Y-98324164D01*
X170728424Y-98324164D02*
X170736526Y-98441132D01*
X170736526Y-98441132D02*
X170756844Y-98524540D01*
X170756844Y-98524540D02*
X170789376Y-98574387D01*
X170303326Y-98169441D02*
X170258578Y-98153154D01*
X170258578Y-98153154D02*
X170201616Y-98170428D01*
X170201616Y-98170428D02*
X170167027Y-98195845D01*
X170167027Y-98195845D02*
X170120224Y-98254823D01*
X170120224Y-98254823D02*
X170048990Y-98380921D01*
X170048990Y-98380921D02*
X169987915Y-98548724D01*
X169987915Y-98548724D02*
X169961429Y-98691109D01*
X169961429Y-98691109D02*
X169959372Y-98766373D01*
X169959372Y-98766373D02*
X169969531Y-98808077D01*
X169969531Y-98808077D02*
X170002063Y-98857924D01*
X170002063Y-98857924D02*
X170046811Y-98874211D01*
X170046811Y-98874211D02*
X170103773Y-98856937D01*
X170103773Y-98856937D02*
X170138361Y-98831520D01*
X170138361Y-98831520D02*
X170185165Y-98772542D01*
X170185165Y-98772542D02*
X170256399Y-98646444D01*
X170256399Y-98646444D02*
X170317474Y-98478641D01*
X170317474Y-98478641D02*
X170343960Y-98336256D01*
X170343960Y-98336256D02*
X170346017Y-98260992D01*
X170346017Y-98260992D02*
X170335858Y-98219288D01*
X170335858Y-98219288D02*
X170303326Y-98169441D01*
X159707431Y-103134124D02*
X159628095Y-103143255D01*
X159628095Y-103143255D02*
X159516227Y-103102538D01*
X159516227Y-103102538D02*
X159483695Y-103052691D01*
X159483695Y-103052691D02*
X159473536Y-103010987D01*
X159473536Y-103010987D02*
X159475592Y-102935723D01*
X159475592Y-102935723D02*
X159500022Y-102868602D01*
X159500022Y-102868602D02*
X159546826Y-102809624D01*
X159546826Y-102809624D02*
X159581415Y-102784207D01*
X159581415Y-102784207D02*
X159638377Y-102766933D01*
X159638377Y-102766933D02*
X159740086Y-102765946D01*
X159740086Y-102765946D02*
X159797049Y-102748673D01*
X159797049Y-102748673D02*
X159831637Y-102723255D01*
X159831637Y-102723255D02*
X159878441Y-102664278D01*
X159878441Y-102664278D02*
X159902871Y-102597157D01*
X159902871Y-102597157D02*
X159904927Y-102521893D01*
X159904927Y-102521893D02*
X159894769Y-102480189D01*
X159894769Y-102480189D02*
X159862237Y-102430342D01*
X159862237Y-102430342D02*
X159750368Y-102389625D01*
X159750368Y-102389625D02*
X159671032Y-102398756D01*
X159526632Y-102308192D02*
X159158249Y-102972245D01*
X159158249Y-102972245D02*
X159251980Y-102436265D01*
X159251980Y-102436265D02*
X158979260Y-102907098D01*
X158979260Y-102907098D02*
X159123907Y-102161612D01*
X158989665Y-102112752D02*
X158676434Y-101998745D01*
X158676434Y-101998745D02*
X158621282Y-102776805D01*
X170744335Y-101761168D02*
X170664999Y-101770299D01*
X170664999Y-101770299D02*
X170553131Y-101729582D01*
X170553131Y-101729582D02*
X170520598Y-101679735D01*
X170520598Y-101679735D02*
X170510440Y-101638031D01*
X170510440Y-101638031D02*
X170512496Y-101562767D01*
X170512496Y-101562767D02*
X170536926Y-101495646D01*
X170536926Y-101495646D02*
X170583730Y-101436668D01*
X170583730Y-101436668D02*
X170618318Y-101411251D01*
X170618318Y-101411251D02*
X170675281Y-101393977D01*
X170675281Y-101393977D02*
X170776990Y-101392990D01*
X170776990Y-101392990D02*
X170833953Y-101375716D01*
X170833953Y-101375716D02*
X170868541Y-101350299D01*
X170868541Y-101350299D02*
X170915345Y-101291322D01*
X170915345Y-101291322D02*
X170939775Y-101224201D01*
X170939775Y-101224201D02*
X170941831Y-101148937D01*
X170941831Y-101148937D02*
X170931673Y-101107233D01*
X170931673Y-101107233D02*
X170899140Y-101057386D01*
X170899140Y-101057386D02*
X170787272Y-101016669D01*
X170787272Y-101016669D02*
X170707936Y-101025800D01*
X170563536Y-100935236D02*
X170195153Y-101599289D01*
X170195153Y-101599289D02*
X170288884Y-101063309D01*
X170288884Y-101063309D02*
X170016164Y-101534142D01*
X170016164Y-101534142D02*
X170160811Y-100788656D01*
X169479196Y-101338702D02*
X169747680Y-101436422D01*
X169613438Y-101387562D02*
X169869953Y-100682792D01*
X169869953Y-100682792D02*
X169878055Y-100799760D01*
X169878055Y-100799760D02*
X169898373Y-100883168D01*
X169898373Y-100883168D02*
X169930905Y-100933015D01*
X169031724Y-101175835D02*
X169300208Y-101273555D01*
X169165966Y-101224695D02*
X169422481Y-100519926D01*
X169422481Y-100519926D02*
X169430583Y-100636894D01*
X169430583Y-100636894D02*
X169450900Y-100720301D01*
X169450900Y-100720301D02*
X169483433Y-100770148D01*
D11*
X143071513Y-87789750D02*
X142940874Y-87825820D01*
X142940874Y-87825820D02*
X142726882Y-87814605D01*
X142726882Y-87814605D02*
X142643528Y-87767321D01*
X142643528Y-87767321D02*
X142602973Y-87722279D01*
X142602973Y-87722279D02*
X142564661Y-87634439D01*
X142564661Y-87634439D02*
X142569147Y-87548843D01*
X142569147Y-87548843D02*
X142616431Y-87465489D01*
X142616431Y-87465489D02*
X142661472Y-87424933D01*
X142661472Y-87424933D02*
X142749312Y-87386621D01*
X142749312Y-87386621D02*
X142922749Y-87352794D01*
X142922749Y-87352794D02*
X143010588Y-87314482D01*
X143010588Y-87314482D02*
X143055630Y-87273926D01*
X143055630Y-87273926D02*
X143102914Y-87190573D01*
X143102914Y-87190573D02*
X143107400Y-87104976D01*
X143107400Y-87104976D02*
X143069088Y-87017136D01*
X143069088Y-87017136D02*
X143028532Y-86972095D01*
X143028532Y-86972095D02*
X142945178Y-86924810D01*
X142945178Y-86924810D02*
X142731186Y-86913595D01*
X142731186Y-86913595D02*
X142600548Y-86949665D01*
X142303202Y-86891166D02*
X142042108Y-87778717D01*
X142042108Y-87778717D02*
X141904559Y-87127769D01*
X141904559Y-87127769D02*
X141699720Y-87760774D01*
X141699720Y-87760774D02*
X141532831Y-86850792D01*
X140805258Y-86812662D02*
X140976452Y-86821634D01*
X140976452Y-86821634D02*
X141059806Y-86868918D01*
X141059806Y-86868918D02*
X141100361Y-86913959D01*
X141100361Y-86913959D02*
X141179229Y-87046840D01*
X141179229Y-87046840D02*
X141213056Y-87220277D01*
X141213056Y-87220277D02*
X141195112Y-87562664D01*
X141195112Y-87562664D02*
X141147827Y-87646018D01*
X141147827Y-87646018D02*
X141102786Y-87686574D01*
X141102786Y-87686574D02*
X141014946Y-87724886D01*
X141014946Y-87724886D02*
X140843753Y-87715914D01*
X140843753Y-87715914D02*
X140760399Y-87668630D01*
X140760399Y-87668630D02*
X140719843Y-87623589D01*
X140719843Y-87623589D02*
X140681531Y-87535749D01*
X140681531Y-87535749D02*
X140692746Y-87321757D01*
X140692746Y-87321757D02*
X140740030Y-87238403D01*
X140740030Y-87238403D02*
X140785071Y-87197847D01*
X140785071Y-87197847D02*
X140872911Y-87159535D01*
X140872911Y-87159535D02*
X141044105Y-87168507D01*
X141044105Y-87168507D02*
X141127459Y-87215791D01*
X141127459Y-87215791D02*
X141168014Y-87260833D01*
X141168014Y-87260833D02*
X141206327Y-87348672D01*
X147372080Y-116556449D02*
X147391959Y-116690510D01*
X147391959Y-116690510D02*
X147354749Y-116901540D01*
X147354749Y-116901540D02*
X147297659Y-116978510D01*
X147297659Y-116978510D02*
X147248011Y-117013274D01*
X147248011Y-117013274D02*
X147156157Y-117040596D01*
X147156157Y-117040596D02*
X147071745Y-117025712D01*
X147071745Y-117025712D02*
X146994775Y-116968621D01*
X146994775Y-116968621D02*
X146960011Y-116918973D01*
X146960011Y-116918973D02*
X146932689Y-116827119D01*
X146932689Y-116827119D02*
X146920251Y-116650853D01*
X146920251Y-116650853D02*
X146892929Y-116558999D01*
X146892929Y-116558999D02*
X146858165Y-116509351D01*
X146858165Y-116509351D02*
X146781195Y-116452260D01*
X146781195Y-116452260D02*
X146696783Y-116437376D01*
X146696783Y-116437376D02*
X146604929Y-116464698D01*
X146604929Y-116464698D02*
X146555281Y-116499462D01*
X146555281Y-116499462D02*
X146498190Y-116576432D01*
X146498190Y-116576432D02*
X146460980Y-116787462D01*
X146460980Y-116787462D02*
X146480860Y-116921523D01*
X146386559Y-117209523D02*
X147235676Y-117576837D01*
X147235676Y-117576837D02*
X146572817Y-117634030D01*
X146572817Y-117634030D02*
X147176140Y-117914485D01*
X147176140Y-117914485D02*
X146252602Y-117969232D01*
X146997530Y-118927430D02*
X147086835Y-118420957D01*
X147042182Y-118674193D02*
X146155855Y-118517910D01*
X146155855Y-118517910D02*
X146297358Y-118455824D01*
X146297358Y-118455824D02*
X146396654Y-118386296D01*
X146396654Y-118386296D02*
X146453744Y-118309326D01*
X145977246Y-119530855D02*
X146007014Y-119362031D01*
X146007014Y-119362031D02*
X146064104Y-119285061D01*
X146064104Y-119285061D02*
X146113752Y-119250297D01*
X146113752Y-119250297D02*
X146255255Y-119188211D01*
X146255255Y-119188211D02*
X146431521Y-119175773D01*
X146431521Y-119175773D02*
X146769169Y-119235310D01*
X146769169Y-119235310D02*
X146846139Y-119292400D01*
X146846139Y-119292400D02*
X146880903Y-119342048D01*
X146880903Y-119342048D02*
X146908225Y-119433902D01*
X146908225Y-119433902D02*
X146878457Y-119602727D01*
X146878457Y-119602727D02*
X146821367Y-119679697D01*
X146821367Y-119679697D02*
X146771719Y-119714461D01*
X146771719Y-119714461D02*
X146679865Y-119741783D01*
X146679865Y-119741783D02*
X146468834Y-119704572D01*
X146468834Y-119704572D02*
X146391864Y-119647482D01*
X146391864Y-119647482D02*
X146357100Y-119597834D01*
X146357100Y-119597834D02*
X146329778Y-119505980D01*
X146329778Y-119505980D02*
X146359547Y-119337156D01*
X146359547Y-119337156D02*
X146416637Y-119260186D01*
X146416637Y-119260186D02*
X146466285Y-119225422D01*
X146466285Y-119225422D02*
X146558139Y-119198100D01*
X81939031Y-64341968D02*
X81817675Y-64402301D01*
X81817675Y-64402301D02*
X81605475Y-64432124D01*
X81605475Y-64432124D02*
X81514630Y-64401613D01*
X81514630Y-64401613D02*
X81466226Y-64365138D01*
X81466226Y-64365138D02*
X81411856Y-64286222D01*
X81411856Y-64286222D02*
X81399927Y-64201342D01*
X81399927Y-64201342D02*
X81430438Y-64110497D01*
X81430438Y-64110497D02*
X81466914Y-64062093D01*
X81466914Y-64062093D02*
X81545829Y-64007724D01*
X81545829Y-64007724D02*
X81709625Y-63941425D01*
X81709625Y-63941425D02*
X81788541Y-63887056D01*
X81788541Y-63887056D02*
X81825016Y-63838651D01*
X81825016Y-63838651D02*
X81855527Y-63747807D01*
X81855527Y-63747807D02*
X81843598Y-63662927D01*
X81843598Y-63662927D02*
X81789229Y-63584011D01*
X81789229Y-63584011D02*
X81740824Y-63547536D01*
X81740824Y-63547536D02*
X81649979Y-63517025D01*
X81649979Y-63517025D02*
X81437779Y-63546847D01*
X81437779Y-63546847D02*
X81316424Y-63607181D01*
X81013378Y-63606493D02*
X80926434Y-64527557D01*
X80926434Y-64527557D02*
X80667205Y-63914815D01*
X80667205Y-63914815D02*
X80586913Y-64575274D01*
X80586913Y-64575274D02*
X80249457Y-63713855D01*
X79569729Y-64112333D02*
X79653233Y-64706494D01*
X79734212Y-63742990D02*
X80035881Y-64349768D01*
X80035881Y-64349768D02*
X79484160Y-64427307D01*
X69707229Y-113393542D02*
X69594130Y-113468216D01*
X69594130Y-113468216D02*
X69387146Y-113523677D01*
X69387146Y-113523677D02*
X69293260Y-113504465D01*
X69293260Y-113504465D02*
X69240771Y-113474160D01*
X69240771Y-113474160D02*
X69177190Y-113402459D01*
X69177190Y-113402459D02*
X69155005Y-113319665D01*
X69155005Y-113319665D02*
X69174218Y-113225779D01*
X69174218Y-113225779D02*
X69204522Y-113173290D01*
X69204522Y-113173290D02*
X69276224Y-113109709D01*
X69276224Y-113109709D02*
X69430719Y-113023943D01*
X69430719Y-113023943D02*
X69502420Y-112960362D01*
X69502420Y-112960362D02*
X69532725Y-112907873D01*
X69532725Y-112907873D02*
X69551937Y-112813987D01*
X69551937Y-112813987D02*
X69529753Y-112731193D01*
X69529753Y-112731193D02*
X69466171Y-112659492D01*
X69466171Y-112659492D02*
X69413682Y-112629187D01*
X69413682Y-112629187D02*
X69319796Y-112609975D01*
X69319796Y-112609975D02*
X69112812Y-112665436D01*
X69112812Y-112665436D02*
X68999714Y-112740110D01*
X68698844Y-112776359D02*
X68724797Y-113701153D01*
X68724797Y-113701153D02*
X68392826Y-113124570D01*
X68392826Y-113124570D02*
X68393622Y-113789891D01*
X68393622Y-113789891D02*
X67953701Y-112976019D01*
X67400099Y-114056105D02*
X67896861Y-113922998D01*
X67648480Y-113989551D02*
X67415543Y-113120218D01*
X67415543Y-113120218D02*
X67531613Y-113222224D01*
X67531613Y-113222224D02*
X67636591Y-113282833D01*
X67636591Y-113282833D02*
X67730477Y-113302046D01*
X66499665Y-113676210D02*
X66654956Y-114255765D01*
X66617911Y-113289574D02*
X66991279Y-113855065D01*
X66991279Y-113855065D02*
X66453120Y-113999264D01*
X84304974Y-81176525D02*
X84183618Y-81236858D01*
X84183618Y-81236858D02*
X83971418Y-81266681D01*
X83971418Y-81266681D02*
X83880573Y-81236170D01*
X83880573Y-81236170D02*
X83832169Y-81199695D01*
X83832169Y-81199695D02*
X83777799Y-81120779D01*
X83777799Y-81120779D02*
X83765870Y-81035899D01*
X83765870Y-81035899D02*
X83796381Y-80945054D01*
X83796381Y-80945054D02*
X83832857Y-80896650D01*
X83832857Y-80896650D02*
X83911772Y-80842281D01*
X83911772Y-80842281D02*
X84075568Y-80775982D01*
X84075568Y-80775982D02*
X84154484Y-80721613D01*
X84154484Y-80721613D02*
X84190959Y-80673208D01*
X84190959Y-80673208D02*
X84221470Y-80582364D01*
X84221470Y-80582364D02*
X84209541Y-80497484D01*
X84209541Y-80497484D02*
X84155172Y-80418568D01*
X84155172Y-80418568D02*
X84106767Y-80382093D01*
X84106767Y-80382093D02*
X84015922Y-80351582D01*
X84015922Y-80351582D02*
X83803722Y-80381404D01*
X83803722Y-80381404D02*
X83682367Y-80441738D01*
X83379321Y-80441050D02*
X83292377Y-81362114D01*
X83292377Y-81362114D02*
X83033148Y-80749372D01*
X83033148Y-80749372D02*
X82952856Y-81409831D01*
X82952856Y-81409831D02*
X82615400Y-80548412D01*
X82358696Y-81493334D02*
X82188936Y-81517193D01*
X82188936Y-81517193D02*
X82098091Y-81486682D01*
X82098091Y-81486682D02*
X82049686Y-81450206D01*
X82049686Y-81450206D02*
X81946913Y-81334815D01*
X81946913Y-81334815D02*
X81880614Y-81171020D01*
X81880614Y-81171020D02*
X81832898Y-80831499D01*
X81832898Y-80831499D02*
X81863409Y-80740654D01*
X81863409Y-80740654D02*
X81899884Y-80692250D01*
X81899884Y-80692250D02*
X81978800Y-80637881D01*
X81978800Y-80637881D02*
X82148560Y-80614022D01*
X82148560Y-80614022D02*
X82239405Y-80644533D01*
X82239405Y-80644533D02*
X82287809Y-80681009D01*
X82287809Y-80681009D02*
X82342179Y-80759924D01*
X82342179Y-80759924D02*
X82372001Y-80972125D01*
X82372001Y-80972125D02*
X82341490Y-81062969D01*
X82341490Y-81062969D02*
X82305015Y-81111374D01*
X82305015Y-81111374D02*
X82226099Y-81165743D01*
X82226099Y-81165743D02*
X82056339Y-81189601D01*
X82056339Y-81189601D02*
X81965494Y-81159090D01*
X81965494Y-81159090D02*
X81917090Y-81122615D01*
X81917090Y-81122615D02*
X81862721Y-81043699D01*
X126349872Y-65194998D02*
X126219233Y-65231068D01*
X126219233Y-65231068D02*
X126005241Y-65219853D01*
X126005241Y-65219853D02*
X125921887Y-65172569D01*
X125921887Y-65172569D02*
X125881332Y-65127527D01*
X125881332Y-65127527D02*
X125843020Y-65039687D01*
X125843020Y-65039687D02*
X125847506Y-64954091D01*
X125847506Y-64954091D02*
X125894790Y-64870737D01*
X125894790Y-64870737D02*
X125939831Y-64830181D01*
X125939831Y-64830181D02*
X126027671Y-64791869D01*
X126027671Y-64791869D02*
X126201108Y-64758042D01*
X126201108Y-64758042D02*
X126288947Y-64719730D01*
X126288947Y-64719730D02*
X126333989Y-64679174D01*
X126333989Y-64679174D02*
X126381273Y-64595821D01*
X126381273Y-64595821D02*
X126385759Y-64510224D01*
X126385759Y-64510224D02*
X126347447Y-64422384D01*
X126347447Y-64422384D02*
X126306891Y-64377343D01*
X126306891Y-64377343D02*
X126223537Y-64330058D01*
X126223537Y-64330058D02*
X126009545Y-64318843D01*
X126009545Y-64318843D02*
X125878907Y-64354913D01*
X125581561Y-64296414D02*
X125320467Y-65183965D01*
X125320467Y-65183965D02*
X125182918Y-64533017D01*
X125182918Y-64533017D02*
X124978079Y-65166022D01*
X124978079Y-65166022D02*
X124811190Y-64256040D01*
X124507115Y-64325936D02*
X124466560Y-64280895D01*
X124466560Y-64280895D02*
X124383206Y-64233611D01*
X124383206Y-64233611D02*
X124169214Y-64222396D01*
X124169214Y-64222396D02*
X124081374Y-64260708D01*
X124081374Y-64260708D02*
X124036333Y-64301264D01*
X124036333Y-64301264D02*
X123989048Y-64384617D01*
X123989048Y-64384617D02*
X123984563Y-64470214D01*
X123984563Y-64470214D02*
X124020632Y-64600852D01*
X124020632Y-64600852D02*
X124507297Y-65141349D01*
X124507297Y-65141349D02*
X123950918Y-65112190D01*
X86670917Y-98011082D02*
X86549561Y-98071415D01*
X86549561Y-98071415D02*
X86337361Y-98101238D01*
X86337361Y-98101238D02*
X86246516Y-98070727D01*
X86246516Y-98070727D02*
X86198112Y-98034252D01*
X86198112Y-98034252D02*
X86143742Y-97955336D01*
X86143742Y-97955336D02*
X86131813Y-97870456D01*
X86131813Y-97870456D02*
X86162324Y-97779611D01*
X86162324Y-97779611D02*
X86198800Y-97731207D01*
X86198800Y-97731207D02*
X86277715Y-97676838D01*
X86277715Y-97676838D02*
X86441511Y-97610539D01*
X86441511Y-97610539D02*
X86520427Y-97556170D01*
X86520427Y-97556170D02*
X86556902Y-97507765D01*
X86556902Y-97507765D02*
X86587413Y-97416921D01*
X86587413Y-97416921D02*
X86575484Y-97332041D01*
X86575484Y-97332041D02*
X86521115Y-97253125D01*
X86521115Y-97253125D02*
X86472710Y-97216650D01*
X86472710Y-97216650D02*
X86381865Y-97186139D01*
X86381865Y-97186139D02*
X86169665Y-97215961D01*
X86169665Y-97215961D02*
X86048310Y-97276295D01*
X85745264Y-97275607D02*
X85658320Y-98196671D01*
X85658320Y-98196671D02*
X85399091Y-97583929D01*
X85399091Y-97583929D02*
X85318799Y-98244388D01*
X85318799Y-98244388D02*
X84981343Y-97382969D01*
X84300238Y-98387537D02*
X84809519Y-98315962D01*
X84554879Y-98351750D02*
X84429623Y-97460508D01*
X84429623Y-97460508D02*
X84532397Y-97575900D01*
X84532397Y-97575900D02*
X84629206Y-97648851D01*
X84629206Y-97648851D02*
X84720051Y-97679361D01*
X83877902Y-97538048D02*
X83326181Y-97615587D01*
X83326181Y-97615587D02*
X83670978Y-97913356D01*
X83670978Y-97913356D02*
X83543658Y-97931249D01*
X83543658Y-97931249D02*
X83464742Y-97985618D01*
X83464742Y-97985618D02*
X83428267Y-98034023D01*
X83428267Y-98034023D02*
X83397756Y-98124868D01*
X83397756Y-98124868D02*
X83427579Y-98337068D01*
X83427579Y-98337068D02*
X83481948Y-98415984D01*
X83481948Y-98415984D02*
X83530353Y-98452459D01*
X83530353Y-98452459D02*
X83621197Y-98482970D01*
X83621197Y-98482970D02*
X83875838Y-98447183D01*
X83875838Y-98447183D02*
X83954753Y-98392814D01*
X83954753Y-98392814D02*
X83991229Y-98344409D01*
D14*
X136901201Y-107925727D02*
X137187440Y-107559253D01*
X137357717Y-107949652D02*
X137399586Y-107150748D01*
X137399586Y-107150748D02*
X137095242Y-107134798D01*
X137095242Y-107134798D02*
X137017162Y-107168854D01*
X137017162Y-107168854D02*
X136977125Y-107204903D01*
X136977125Y-107204903D02*
X136935095Y-107278996D01*
X136935095Y-107278996D02*
X136929113Y-107393125D01*
X136929113Y-107393125D02*
X136963169Y-107471204D01*
X136963169Y-107471204D02*
X136999218Y-107511241D01*
X136999218Y-107511241D02*
X137073311Y-107553272D01*
X137073311Y-107553272D02*
X137377655Y-107569222D01*
X136580745Y-107489310D02*
X136314444Y-107475354D01*
X136178383Y-107887846D02*
X136558814Y-107907783D01*
X136558814Y-107907783D02*
X136600682Y-107108880D01*
X136600682Y-107108880D02*
X136220252Y-107088942D01*
X135876032Y-107833853D02*
X135759910Y-107865915D01*
X135759910Y-107865915D02*
X135569694Y-107855946D01*
X135569694Y-107855946D02*
X135495602Y-107813915D01*
X135495602Y-107813915D02*
X135459553Y-107773878D01*
X135459553Y-107773878D02*
X135425497Y-107695799D01*
X135425497Y-107695799D02*
X135429485Y-107619713D01*
X135429485Y-107619713D02*
X135471515Y-107545620D01*
X135471515Y-107545620D02*
X135511552Y-107509571D01*
X135511552Y-107509571D02*
X135589632Y-107475515D01*
X135589632Y-107475515D02*
X135743798Y-107445447D01*
X135743798Y-107445447D02*
X135821878Y-107411392D01*
X135821878Y-107411392D02*
X135861914Y-107375343D01*
X135861914Y-107375343D02*
X135903945Y-107301250D01*
X135903945Y-107301250D02*
X135907932Y-107225164D01*
X135907932Y-107225164D02*
X135873877Y-107147084D01*
X135873877Y-107147084D02*
X135837828Y-107107048D01*
X135837828Y-107107048D02*
X135763735Y-107065017D01*
X135763735Y-107065017D02*
X135573520Y-107055048D01*
X135573520Y-107055048D02*
X135457397Y-107087110D01*
X135097066Y-107411554D02*
X134830765Y-107397597D01*
X134694705Y-107810089D02*
X135075135Y-107830027D01*
X135075135Y-107830027D02*
X135117004Y-107031123D01*
X135117004Y-107031123D02*
X134736573Y-107011186D01*
X134508315Y-106999223D02*
X134051798Y-106975298D01*
X134238188Y-107786164D02*
X134280056Y-106987261D01*
D11*
X175106817Y-133348325D02*
X175091322Y-133482962D01*
X175091322Y-133482962D02*
X175000761Y-133677171D01*
X175000761Y-133677171D02*
X174925695Y-133736742D01*
X174925695Y-133736742D02*
X174868741Y-133757472D01*
X174868741Y-133757472D02*
X174772945Y-133760089D01*
X174772945Y-133760089D02*
X174695262Y-133723865D01*
X174695262Y-133723865D02*
X174635690Y-133648798D01*
X174635690Y-133648798D02*
X174614961Y-133591845D01*
X174614961Y-133591845D02*
X174612343Y-133496049D01*
X174612343Y-133496049D02*
X174645950Y-133322570D01*
X174645950Y-133322570D02*
X174643333Y-133226774D01*
X174643333Y-133226774D02*
X174622604Y-133169820D01*
X174622604Y-133169820D02*
X174563032Y-133094754D01*
X174563032Y-133094754D02*
X174485349Y-133058529D01*
X174485349Y-133058529D02*
X174389553Y-133061147D01*
X174389553Y-133061147D02*
X174332599Y-133081876D01*
X174332599Y-133081876D02*
X174257533Y-133141447D01*
X174257533Y-133141447D02*
X174166972Y-133335656D01*
X174166972Y-133335656D02*
X174151477Y-133470294D01*
X173985850Y-133724074D02*
X174710966Y-134298639D01*
X174710966Y-134298639D02*
X174055890Y-134182323D01*
X174055890Y-134182323D02*
X174566068Y-134609373D01*
X174566068Y-134609373D02*
X173659830Y-134423226D01*
X174131375Y-135541575D02*
X174348722Y-135075474D01*
X174240048Y-135308525D02*
X173424371Y-134928168D01*
X173424371Y-134928168D02*
X173577121Y-134904821D01*
X173577121Y-134904821D02*
X173691029Y-134863362D01*
X173691029Y-134863362D02*
X173766095Y-134803791D01*
X172971566Y-135899212D02*
X173152688Y-135510795D01*
X173152688Y-135510795D02*
X173559218Y-135653075D01*
X173559218Y-135653075D02*
X173502264Y-135673805D01*
X173502264Y-135673805D02*
X173427198Y-135733376D01*
X173427198Y-135733376D02*
X173336637Y-135927585D01*
X173336637Y-135927585D02*
X173339254Y-136023381D01*
X173339254Y-136023381D02*
X173359984Y-136080335D01*
X173359984Y-136080335D02*
X173419555Y-136155401D01*
X173419555Y-136155401D02*
X173613764Y-136245962D01*
X173613764Y-136245962D02*
X173709559Y-136243344D01*
X173709559Y-136243344D02*
X173766513Y-136222615D01*
X173766513Y-136222615D02*
X173841580Y-136163044D01*
X173841580Y-136163044D02*
X173932141Y-135968835D01*
X173932141Y-135968835D02*
X173929523Y-135873039D01*
X173929523Y-135873039D02*
X173908794Y-135816085D01*
X60907381Y-80552064D02*
X60794282Y-80626738D01*
X60794282Y-80626738D02*
X60587298Y-80682199D01*
X60587298Y-80682199D02*
X60493412Y-80662987D01*
X60493412Y-80662987D02*
X60440923Y-80632682D01*
X60440923Y-80632682D02*
X60377342Y-80560981D01*
X60377342Y-80560981D02*
X60355157Y-80478187D01*
X60355157Y-80478187D02*
X60374370Y-80384301D01*
X60374370Y-80384301D02*
X60404674Y-80331812D01*
X60404674Y-80331812D02*
X60476376Y-80268231D01*
X60476376Y-80268231D02*
X60630871Y-80182465D01*
X60630871Y-80182465D02*
X60702572Y-80118884D01*
X60702572Y-80118884D02*
X60732877Y-80066395D01*
X60732877Y-80066395D02*
X60752089Y-79972509D01*
X60752089Y-79972509D02*
X60729905Y-79889715D01*
X60729905Y-79889715D02*
X60666323Y-79818014D01*
X60666323Y-79818014D02*
X60613834Y-79787709D01*
X60613834Y-79787709D02*
X60519948Y-79768497D01*
X60519948Y-79768497D02*
X60312964Y-79823958D01*
X60312964Y-79823958D02*
X60199866Y-79898632D01*
X59898996Y-79934881D02*
X59924949Y-80859675D01*
X59924949Y-80859675D02*
X59592978Y-80283092D01*
X59592978Y-80283092D02*
X59593774Y-80948413D01*
X59593774Y-80948413D02*
X59153853Y-80134541D01*
X58408711Y-80334201D02*
X58822679Y-80223279D01*
X58822679Y-80223279D02*
X58974998Y-80626155D01*
X58974998Y-80626155D02*
X58922509Y-80595850D01*
X58922509Y-80595850D02*
X58828623Y-80576638D01*
X58828623Y-80576638D02*
X58621639Y-80632099D01*
X58621639Y-80632099D02*
X58549938Y-80695680D01*
X58549938Y-80695680D02*
X58519633Y-80748170D01*
X58519633Y-80748170D02*
X58500421Y-80842055D01*
X58500421Y-80842055D02*
X58555882Y-81049040D01*
X58555882Y-81049040D02*
X58619463Y-81120741D01*
X58619463Y-81120741D02*
X58671952Y-81151045D01*
X58671952Y-81151045D02*
X58765838Y-81170258D01*
X58765838Y-81170258D02*
X58972822Y-81114797D01*
X58972822Y-81114797D02*
X59044524Y-81051215D01*
X59044524Y-81051215D02*
X59074828Y-80998726D01*
X125756670Y-82182054D02*
X125626031Y-82218124D01*
X125626031Y-82218124D02*
X125412039Y-82206909D01*
X125412039Y-82206909D02*
X125328685Y-82159625D01*
X125328685Y-82159625D02*
X125288130Y-82114583D01*
X125288130Y-82114583D02*
X125249818Y-82026743D01*
X125249818Y-82026743D02*
X125254304Y-81941147D01*
X125254304Y-81941147D02*
X125301588Y-81857793D01*
X125301588Y-81857793D02*
X125346629Y-81817237D01*
X125346629Y-81817237D02*
X125434469Y-81778925D01*
X125434469Y-81778925D02*
X125607906Y-81745098D01*
X125607906Y-81745098D02*
X125695745Y-81706786D01*
X125695745Y-81706786D02*
X125740787Y-81666230D01*
X125740787Y-81666230D02*
X125788071Y-81582877D01*
X125788071Y-81582877D02*
X125792557Y-81497280D01*
X125792557Y-81497280D02*
X125754245Y-81409440D01*
X125754245Y-81409440D02*
X125713689Y-81364399D01*
X125713689Y-81364399D02*
X125630335Y-81317114D01*
X125630335Y-81317114D02*
X125416343Y-81305899D01*
X125416343Y-81305899D02*
X125285705Y-81341969D01*
X124988359Y-81283470D02*
X124727265Y-82171021D01*
X124727265Y-82171021D02*
X124589716Y-81520073D01*
X124589716Y-81520073D02*
X124384877Y-82153078D01*
X124384877Y-82153078D02*
X124217988Y-81243096D01*
X123961198Y-81229638D02*
X123362020Y-81198237D01*
X123362020Y-81198237D02*
X123700103Y-82117190D01*
X106473308Y-75465180D02*
X106344737Y-75508037D01*
X106344737Y-75508037D02*
X106130451Y-75508037D01*
X106130451Y-75508037D02*
X106044737Y-75465180D01*
X106044737Y-75465180D02*
X106001879Y-75422322D01*
X106001879Y-75422322D02*
X105959022Y-75336608D01*
X105959022Y-75336608D02*
X105959022Y-75250894D01*
X105959022Y-75250894D02*
X106001879Y-75165180D01*
X106001879Y-75165180D02*
X106044737Y-75122322D01*
X106044737Y-75122322D02*
X106130451Y-75079465D01*
X106130451Y-75079465D02*
X106301879Y-75036608D01*
X106301879Y-75036608D02*
X106387594Y-74993751D01*
X106387594Y-74993751D02*
X106430451Y-74950894D01*
X106430451Y-74950894D02*
X106473308Y-74865180D01*
X106473308Y-74865180D02*
X106473308Y-74779465D01*
X106473308Y-74779465D02*
X106430451Y-74693751D01*
X106430451Y-74693751D02*
X106387594Y-74650894D01*
X106387594Y-74650894D02*
X106301879Y-74608037D01*
X106301879Y-74608037D02*
X106087594Y-74608037D01*
X106087594Y-74608037D02*
X105959022Y-74650894D01*
X105659022Y-74608037D02*
X105444736Y-75508037D01*
X105444736Y-75508037D02*
X105273308Y-74865180D01*
X105273308Y-74865180D02*
X105101879Y-75508037D01*
X105101879Y-75508037D02*
X104887594Y-74608037D01*
X104416165Y-74993751D02*
X104501880Y-74950894D01*
X104501880Y-74950894D02*
X104544737Y-74908037D01*
X104544737Y-74908037D02*
X104587594Y-74822322D01*
X104587594Y-74822322D02*
X104587594Y-74779465D01*
X104587594Y-74779465D02*
X104544737Y-74693751D01*
X104544737Y-74693751D02*
X104501880Y-74650894D01*
X104501880Y-74650894D02*
X104416165Y-74608037D01*
X104416165Y-74608037D02*
X104244737Y-74608037D01*
X104244737Y-74608037D02*
X104159023Y-74650894D01*
X104159023Y-74650894D02*
X104116165Y-74693751D01*
X104116165Y-74693751D02*
X104073308Y-74779465D01*
X104073308Y-74779465D02*
X104073308Y-74822322D01*
X104073308Y-74822322D02*
X104116165Y-74908037D01*
X104116165Y-74908037D02*
X104159023Y-74950894D01*
X104159023Y-74950894D02*
X104244737Y-74993751D01*
X104244737Y-74993751D02*
X104416165Y-74993751D01*
X104416165Y-74993751D02*
X104501880Y-75036608D01*
X104501880Y-75036608D02*
X104544737Y-75079465D01*
X104544737Y-75079465D02*
X104587594Y-75165180D01*
X104587594Y-75165180D02*
X104587594Y-75336608D01*
X104587594Y-75336608D02*
X104544737Y-75422322D01*
X104544737Y-75422322D02*
X104501880Y-75465180D01*
X104501880Y-75465180D02*
X104416165Y-75508037D01*
X104416165Y-75508037D02*
X104244737Y-75508037D01*
X104244737Y-75508037D02*
X104159023Y-75465180D01*
X104159023Y-75465180D02*
X104116165Y-75422322D01*
X104116165Y-75422322D02*
X104073308Y-75336608D01*
X104073308Y-75336608D02*
X104073308Y-75165180D01*
X104073308Y-75165180D02*
X104116165Y-75079465D01*
X104116165Y-75079465D02*
X104159023Y-75036608D01*
X104159023Y-75036608D02*
X104244737Y-74993751D01*
X144164409Y-70820143D02*
X144033770Y-70856213D01*
X144033770Y-70856213D02*
X143819778Y-70844998D01*
X143819778Y-70844998D02*
X143736424Y-70797714D01*
X143736424Y-70797714D02*
X143695869Y-70752672D01*
X143695869Y-70752672D02*
X143657557Y-70664832D01*
X143657557Y-70664832D02*
X143662043Y-70579236D01*
X143662043Y-70579236D02*
X143709327Y-70495882D01*
X143709327Y-70495882D02*
X143754368Y-70455326D01*
X143754368Y-70455326D02*
X143842208Y-70417014D01*
X143842208Y-70417014D02*
X144015645Y-70383187D01*
X144015645Y-70383187D02*
X144103484Y-70344875D01*
X144103484Y-70344875D02*
X144148526Y-70304319D01*
X144148526Y-70304319D02*
X144195810Y-70220966D01*
X144195810Y-70220966D02*
X144200296Y-70135369D01*
X144200296Y-70135369D02*
X144161984Y-70047529D01*
X144161984Y-70047529D02*
X144121428Y-70002488D01*
X144121428Y-70002488D02*
X144038074Y-69955203D01*
X144038074Y-69955203D02*
X143824082Y-69943988D01*
X143824082Y-69943988D02*
X143693444Y-69980058D01*
X143396098Y-69921559D02*
X143135004Y-70809110D01*
X143135004Y-70809110D02*
X142997455Y-70158162D01*
X142997455Y-70158162D02*
X142792616Y-70791167D01*
X142792616Y-70791167D02*
X142625727Y-69881185D01*
X141765455Y-70737335D02*
X142279036Y-70764251D01*
X142022245Y-70750793D02*
X142069348Y-69852027D01*
X142069348Y-69852027D02*
X142148216Y-69984908D01*
X142148216Y-69984908D02*
X142229327Y-70074991D01*
X142229327Y-70074991D02*
X142312680Y-70122275D01*
X106473308Y-58465180D02*
X106344737Y-58508037D01*
X106344737Y-58508037D02*
X106130451Y-58508037D01*
X106130451Y-58508037D02*
X106044737Y-58465180D01*
X106044737Y-58465180D02*
X106001879Y-58422322D01*
X106001879Y-58422322D02*
X105959022Y-58336608D01*
X105959022Y-58336608D02*
X105959022Y-58250894D01*
X105959022Y-58250894D02*
X106001879Y-58165180D01*
X106001879Y-58165180D02*
X106044737Y-58122322D01*
X106044737Y-58122322D02*
X106130451Y-58079465D01*
X106130451Y-58079465D02*
X106301879Y-58036608D01*
X106301879Y-58036608D02*
X106387594Y-57993751D01*
X106387594Y-57993751D02*
X106430451Y-57950894D01*
X106430451Y-57950894D02*
X106473308Y-57865180D01*
X106473308Y-57865180D02*
X106473308Y-57779465D01*
X106473308Y-57779465D02*
X106430451Y-57693751D01*
X106430451Y-57693751D02*
X106387594Y-57650894D01*
X106387594Y-57650894D02*
X106301879Y-57608037D01*
X106301879Y-57608037D02*
X106087594Y-57608037D01*
X106087594Y-57608037D02*
X105959022Y-57650894D01*
X105659022Y-57608037D02*
X105444736Y-58508037D01*
X105444736Y-58508037D02*
X105273308Y-57865180D01*
X105273308Y-57865180D02*
X105101879Y-58508037D01*
X105101879Y-58508037D02*
X104887594Y-57608037D01*
X104630451Y-57608037D02*
X104073308Y-57608037D01*
X104073308Y-57608037D02*
X104373308Y-57950894D01*
X104373308Y-57950894D02*
X104244737Y-57950894D01*
X104244737Y-57950894D02*
X104159023Y-57993751D01*
X104159023Y-57993751D02*
X104116165Y-58036608D01*
X104116165Y-58036608D02*
X104073308Y-58122322D01*
X104073308Y-58122322D02*
X104073308Y-58336608D01*
X104073308Y-58336608D02*
X104116165Y-58422322D01*
X104116165Y-58422322D02*
X104159023Y-58465180D01*
X104159023Y-58465180D02*
X104244737Y-58508037D01*
X104244737Y-58508037D02*
X104501880Y-58508037D01*
X104501880Y-58508037D02*
X104587594Y-58465180D01*
X104587594Y-58465180D02*
X104630451Y-58422322D01*
X65307305Y-96972803D02*
X65194206Y-97047477D01*
X65194206Y-97047477D02*
X64987222Y-97102938D01*
X64987222Y-97102938D02*
X64893336Y-97083726D01*
X64893336Y-97083726D02*
X64840847Y-97053421D01*
X64840847Y-97053421D02*
X64777266Y-96981720D01*
X64777266Y-96981720D02*
X64755081Y-96898926D01*
X64755081Y-96898926D02*
X64774294Y-96805040D01*
X64774294Y-96805040D02*
X64804598Y-96752551D01*
X64804598Y-96752551D02*
X64876300Y-96688970D01*
X64876300Y-96688970D02*
X65030795Y-96603204D01*
X65030795Y-96603204D02*
X65102496Y-96539623D01*
X65102496Y-96539623D02*
X65132801Y-96487134D01*
X65132801Y-96487134D02*
X65152013Y-96393248D01*
X65152013Y-96393248D02*
X65129829Y-96310454D01*
X65129829Y-96310454D02*
X65066247Y-96238753D01*
X65066247Y-96238753D02*
X65013758Y-96208448D01*
X65013758Y-96208448D02*
X64919872Y-96189236D01*
X64919872Y-96189236D02*
X64712888Y-96244697D01*
X64712888Y-96244697D02*
X64599790Y-96319371D01*
X64298920Y-96355620D02*
X64324873Y-97280414D01*
X64324873Y-97280414D02*
X63992902Y-96703831D01*
X63992902Y-96703831D02*
X63993698Y-97369152D01*
X63993698Y-97369152D02*
X63553777Y-96555280D01*
X63000175Y-97635366D02*
X63496937Y-97502259D01*
X63248556Y-97568812D02*
X63015619Y-96699479D01*
X63015619Y-96699479D02*
X63131689Y-96801485D01*
X63131689Y-96801485D02*
X63236667Y-96862094D01*
X63236667Y-96862094D02*
X63330553Y-96881307D01*
X62229079Y-96910232D02*
X62146285Y-96932416D01*
X62146285Y-96932416D02*
X62074584Y-96995998D01*
X62074584Y-96995998D02*
X62044279Y-97048487D01*
X62044279Y-97048487D02*
X62025067Y-97142373D01*
X62025067Y-97142373D02*
X62028039Y-97319052D01*
X62028039Y-97319052D02*
X62083501Y-97526036D01*
X62083501Y-97526036D02*
X62169266Y-97680531D01*
X62169266Y-97680531D02*
X62232848Y-97752233D01*
X62232848Y-97752233D02*
X62285337Y-97782537D01*
X62285337Y-97782537D02*
X62379223Y-97801750D01*
X62379223Y-97801750D02*
X62462016Y-97779565D01*
X62462016Y-97779565D02*
X62533718Y-97715984D01*
X62533718Y-97715984D02*
X62564022Y-97663495D01*
X62564022Y-97663495D02*
X62583235Y-97569609D01*
X62583235Y-97569609D02*
X62580262Y-97392929D01*
X62580262Y-97392929D02*
X62524801Y-97185945D01*
X62524801Y-97185945D02*
X62439035Y-97031450D01*
X62439035Y-97031450D02*
X62375454Y-96959749D01*
X62375454Y-96959749D02*
X62322965Y-96929444D01*
X62322965Y-96929444D02*
X62229079Y-96910232D01*
X127491490Y-118037599D02*
X127534347Y-118166171D01*
X127534347Y-118166171D02*
X127534347Y-118380456D01*
X127534347Y-118380456D02*
X127491490Y-118466171D01*
X127491490Y-118466171D02*
X127448632Y-118509028D01*
X127448632Y-118509028D02*
X127362918Y-118551885D01*
X127362918Y-118551885D02*
X127277204Y-118551885D01*
X127277204Y-118551885D02*
X127191490Y-118509028D01*
X127191490Y-118509028D02*
X127148632Y-118466171D01*
X127148632Y-118466171D02*
X127105775Y-118380456D01*
X127105775Y-118380456D02*
X127062918Y-118209028D01*
X127062918Y-118209028D02*
X127020061Y-118123313D01*
X127020061Y-118123313D02*
X126977204Y-118080456D01*
X126977204Y-118080456D02*
X126891490Y-118037599D01*
X126891490Y-118037599D02*
X126805775Y-118037599D01*
X126805775Y-118037599D02*
X126720061Y-118080456D01*
X126720061Y-118080456D02*
X126677204Y-118123313D01*
X126677204Y-118123313D02*
X126634347Y-118209028D01*
X126634347Y-118209028D02*
X126634347Y-118423313D01*
X126634347Y-118423313D02*
X126677204Y-118551885D01*
X126634347Y-118851885D02*
X127534347Y-119066171D01*
X127534347Y-119066171D02*
X126891490Y-119237599D01*
X126891490Y-119237599D02*
X127534347Y-119409028D01*
X127534347Y-119409028D02*
X126634347Y-119623314D01*
X127534347Y-120437599D02*
X127534347Y-119923313D01*
X127534347Y-120180456D02*
X126634347Y-120180456D01*
X126634347Y-120180456D02*
X126762918Y-120094742D01*
X126762918Y-120094742D02*
X126848632Y-120009027D01*
X126848632Y-120009027D02*
X126891490Y-119923313D01*
X126634347Y-120737599D02*
X126634347Y-121337599D01*
X126634347Y-121337599D02*
X127534347Y-120951885D01*
X125519742Y-99196521D02*
X125389104Y-99232590D01*
X125389104Y-99232590D02*
X125175112Y-99221375D01*
X125175112Y-99221375D02*
X125091758Y-99174091D01*
X125091758Y-99174091D02*
X125051202Y-99129050D01*
X125051202Y-99129050D02*
X125012890Y-99041210D01*
X125012890Y-99041210D02*
X125017376Y-98955613D01*
X125017376Y-98955613D02*
X125064660Y-98872259D01*
X125064660Y-98872259D02*
X125109702Y-98831704D01*
X125109702Y-98831704D02*
X125197541Y-98793391D01*
X125197541Y-98793391D02*
X125370978Y-98759565D01*
X125370978Y-98759565D02*
X125458818Y-98721252D01*
X125458818Y-98721252D02*
X125503859Y-98680697D01*
X125503859Y-98680697D02*
X125551143Y-98597343D01*
X125551143Y-98597343D02*
X125555629Y-98511746D01*
X125555629Y-98511746D02*
X125517317Y-98423906D01*
X125517317Y-98423906D02*
X125476761Y-98378865D01*
X125476761Y-98378865D02*
X125393408Y-98331581D01*
X125393408Y-98331581D02*
X125179416Y-98320366D01*
X125179416Y-98320366D02*
X125048777Y-98356435D01*
X124751431Y-98297936D02*
X124490337Y-99185488D01*
X124490337Y-99185488D02*
X124352788Y-98534540D01*
X124352788Y-98534540D02*
X124147950Y-99167544D01*
X124147950Y-99167544D02*
X123981060Y-98257563D01*
X123120788Y-99113713D02*
X123634369Y-99140628D01*
X123377579Y-99127171D02*
X123424681Y-98228404D01*
X123424681Y-98228404D02*
X123503549Y-98361285D01*
X123503549Y-98361285D02*
X123584660Y-98451368D01*
X123584660Y-98451368D02*
X123668014Y-98498652D01*
X122264820Y-99068853D02*
X122778401Y-99095769D01*
X122521610Y-99082311D02*
X122568713Y-98183545D01*
X122568713Y-98183545D02*
X122647581Y-98316426D01*
X122647581Y-98316426D02*
X122728692Y-98406509D01*
X122728692Y-98406509D02*
X122812045Y-98453793D01*
D14*
%TO.C,J2*%
X156074958Y-66356839D02*
X155715836Y-67343516D01*
X156074958Y-66356839D02*
X157061635Y-66715960D01*
X152295635Y-76740442D02*
X151936514Y-77727119D01*
X151936514Y-77727119D02*
X152923191Y-78086240D01*
X160820405Y-68084040D02*
X161807082Y-68443161D01*
X156681962Y-79454321D02*
X157668639Y-79813442D01*
X161807082Y-68443161D02*
X161447961Y-69429839D01*
X158027760Y-78826765D02*
X157668639Y-79813442D01*
D15*
%TO.C,SW12*%
X92999999Y-91425001D02*
X92999998Y-91755000D01*
X92999999Y-104799999D02*
X93000000Y-104470000D01*
X93300000Y-91100000D02*
X93629999Y-91100001D01*
X93325000Y-105100000D02*
X93654999Y-105100001D01*
X106674999Y-91099999D02*
X106345000Y-91099998D01*
X106700000Y-105100000D02*
X106370001Y-105099999D01*
X107000000Y-91400000D02*
X106999999Y-91729999D01*
X107000001Y-104774999D02*
X107000002Y-104445000D01*
X93300000Y-91100000D02*
G75*
G03*
X92999998Y-91420002I9997J-309999D01*
G01*
X92999999Y-104799999D02*
G75*
G03*
X93320001Y-105100001I310000J9998D01*
G01*
X107000002Y-91400000D02*
G75*
G03*
X106679998Y-91099998I-310002J-10000D01*
G01*
X106700000Y-105100002D02*
G75*
G03*
X107000002Y-104779998I-10000J310002D01*
G01*
D10*
%TO.C,U1*%
X165491561Y-73761263D02*
X166431253Y-74103283D01*
X165483010Y-73784755D02*
X165140990Y-74724448D01*
X154538365Y-103854919D02*
X154196345Y-104794612D01*
X154187795Y-104818104D02*
X155127487Y-105160124D01*
X182218089Y-79849222D02*
X181325381Y-79524303D01*
X182209539Y-79872714D02*
X181867519Y-80812407D01*
X171264894Y-109942878D02*
X170922874Y-110882571D01*
X170914323Y-110906063D02*
X169965234Y-110560622D01*
D15*
%TO.C,SW6*%
X130831113Y-86034791D02*
X130813841Y-86364338D01*
X130131119Y-99391459D02*
X130148391Y-99061912D01*
X131147712Y-85725936D02*
X131477259Y-85743208D01*
X130439974Y-99708058D02*
X130769521Y-99725330D01*
X144504381Y-86425929D02*
X144174834Y-86408657D01*
X143796644Y-100408052D02*
X143467097Y-100390780D01*
X144813236Y-86742528D02*
X144795964Y-87072075D01*
X144113243Y-100099197D02*
X144130515Y-99769650D01*
X131147712Y-85725937D02*
G75*
G03*
X130831374Y-86029799I-6241J-310097D01*
G01*
X130131120Y-99391459D02*
G75*
G03*
X130434982Y-99707797I310098J-6240D01*
G01*
X144813237Y-86742528D02*
G75*
G03*
X144509373Y-86426190I-310100J6238D01*
G01*
X143796644Y-100408053D02*
G75*
G03*
X144112982Y-100104189I6238J310100D01*
G01*
%TO.C,SW16*%
X144008088Y-129644444D02*
X144333073Y-129701749D01*
X157179890Y-131966988D02*
X156854904Y-131909683D01*
X143740119Y-129292565D02*
X143797424Y-128967579D01*
X157531769Y-131699019D02*
X157589073Y-131374034D01*
X146062662Y-116120762D02*
X146005357Y-116445747D01*
X159854313Y-118527215D02*
X159797008Y-118852201D01*
X146414541Y-115852793D02*
X146739527Y-115910098D01*
X159586344Y-118175336D02*
X159261359Y-118118031D01*
X143740119Y-129292565D02*
G75*
G03*
X144003165Y-129643576I307025J-43985D01*
G01*
X157179890Y-131966988D02*
G75*
G03*
X157530902Y-131703942I43984J307027D01*
G01*
X146414541Y-115852791D02*
G75*
G03*
X146063529Y-116115839I-43983J-307029D01*
G01*
X159854315Y-118527215D02*
G75*
G03*
X159591267Y-118176203I-307029J43983D01*
G01*
%TO.C,SW4*%
X68452078Y-65187034D02*
X68498004Y-65513822D01*
X70313518Y-78431868D02*
X70267592Y-78105080D01*
X68703928Y-64823444D02*
X69030716Y-64777518D01*
X70677108Y-78683718D02*
X71003896Y-78637792D01*
X81948763Y-62962003D02*
X81621975Y-63007929D01*
X83921944Y-76822278D02*
X83595156Y-76868204D01*
X82312353Y-63213853D02*
X82358279Y-63540641D01*
X84173794Y-76458688D02*
X84127868Y-76131900D01*
X68703928Y-64823445D02*
G75*
G03*
X68451382Y-65182084I53043J-305590D01*
G01*
X70313518Y-78431868D02*
G75*
G03*
X70672158Y-78684415I305592J53044D01*
G01*
X82312354Y-63213853D02*
G75*
G03*
X81953713Y-62961307I-305593J-53047D01*
G01*
X83921944Y-76822279D02*
G75*
G03*
X84174490Y-76463638I-53047J305593D01*
G01*
%TO.C,SW14*%
X56423793Y-115875957D02*
X56509202Y-116194711D01*
X59885498Y-128795213D02*
X59800089Y-128476458D01*
X56629456Y-115484384D02*
X56948210Y-115398975D01*
X60277070Y-129000875D02*
X60595825Y-128915466D01*
X69548712Y-112022678D02*
X69229958Y-112108087D01*
X73196328Y-125539170D02*
X72877574Y-125624579D01*
X69940285Y-112228341D02*
X70025694Y-112547095D01*
X73401991Y-125147597D02*
X73316582Y-124828843D01*
X56629456Y-115484384D02*
G75*
G03*
X56422499Y-115871128I89890J-296848D01*
G01*
X59885498Y-128795213D02*
G75*
G03*
X60272242Y-129002169I296849J89892D01*
G01*
X69940286Y-112228341D02*
G75*
G03*
X69553541Y-112021385I-296850J-89893D01*
G01*
X73196328Y-125539171D02*
G75*
G03*
X73403284Y-125152426I-89893J296850D01*
G01*
%TO.C,SW9*%
X70818021Y-82021591D02*
X70863947Y-82348379D01*
X72679461Y-95266425D02*
X72633535Y-94939637D01*
X71069871Y-81658001D02*
X71396659Y-81612075D01*
X73043051Y-95518275D02*
X73369839Y-95472349D01*
X84314706Y-79796560D02*
X83987918Y-79842486D01*
X86287887Y-93656835D02*
X85961099Y-93702761D01*
X84678296Y-80048410D02*
X84724222Y-80375198D01*
X86539737Y-93293245D02*
X86493811Y-92966457D01*
X71069871Y-81658002D02*
G75*
G03*
X70817325Y-82016641I53043J-305590D01*
G01*
X72679461Y-95266425D02*
G75*
G03*
X73038101Y-95518972I305592J53044D01*
G01*
X84678297Y-80048410D02*
G75*
G03*
X84319656Y-79795864I-305593J-53047D01*
G01*
X86287887Y-93656836D02*
G75*
G03*
X86540433Y-93298195I-53047J305593D01*
G01*
%TO.C,SW2*%
X113954376Y-63434623D02*
X113937104Y-63764170D01*
X113254382Y-76791291D02*
X113271654Y-76461744D01*
X114270975Y-63125768D02*
X114600522Y-63143040D01*
X113563237Y-77107890D02*
X113892784Y-77125162D01*
X127627644Y-63825761D02*
X127298097Y-63808489D01*
X126919907Y-77807884D02*
X126590360Y-77790612D01*
X127936499Y-64142360D02*
X127919227Y-64471907D01*
X127236506Y-77499029D02*
X127253778Y-77169482D01*
X114270975Y-63125769D02*
G75*
G03*
X113954637Y-63429631I-6241J-310097D01*
G01*
X113254383Y-76791291D02*
G75*
G03*
X113558245Y-77107629I310098J-6240D01*
G01*
X127936500Y-64142360D02*
G75*
G03*
X127632636Y-63826022I-310100J6238D01*
G01*
X126919907Y-77807885D02*
G75*
G03*
X127236245Y-77504021I6238J310100D01*
G01*
%TO.C,SW13*%
X73183964Y-98856148D02*
X73229890Y-99182936D01*
X75045404Y-112100982D02*
X74999478Y-111774194D01*
X73435814Y-98492558D02*
X73762602Y-98446632D01*
X75408994Y-112352832D02*
X75735782Y-112306906D01*
X86680649Y-96631117D02*
X86353861Y-96677043D01*
X88653830Y-110491392D02*
X88327042Y-110537318D01*
X87044239Y-96882967D02*
X87090165Y-97209755D01*
X88905680Y-110127802D02*
X88859754Y-109801014D01*
X73435814Y-98492559D02*
G75*
G03*
X73183268Y-98851198I53043J-305590D01*
G01*
X75045404Y-112100982D02*
G75*
G03*
X75404044Y-112353529I305592J53044D01*
G01*
X87044240Y-96882967D02*
G75*
G03*
X86685599Y-96630421I-305593J-53047D01*
G01*
X88653830Y-110491393D02*
G75*
G03*
X88906376Y-110132752I-53047J305593D01*
G01*
D14*
%TO.C,RSW2*%
X132987643Y-105753035D02*
X132974559Y-106002693D01*
X132987643Y-105753035D02*
X133936341Y-105802754D01*
X132820168Y-108948650D02*
X132833252Y-108698992D01*
X132820168Y-108948650D02*
X133768866Y-108998369D01*
X138679832Y-106051350D02*
X137731134Y-106001631D01*
X138679832Y-106051350D02*
X138666748Y-106301008D01*
X138512357Y-109246965D02*
X137563659Y-109197246D01*
X138512357Y-109246965D02*
X138525441Y-108997307D01*
D15*
%TO.C,SW15*%
X179705148Y-124220269D02*
X179406068Y-124080805D01*
X167583283Y-118567751D02*
X167882363Y-118707215D01*
X179872913Y-124629514D02*
X179733448Y-124928594D01*
X167174038Y-118735516D02*
X167034574Y-119034596D01*
X174220395Y-136751380D02*
X174359859Y-136452300D01*
X161521519Y-130857382D02*
X161660984Y-130558302D01*
X173811150Y-136919145D02*
X173512070Y-136779680D01*
X161689284Y-131266627D02*
X161988364Y-131406091D01*
X179872912Y-124629514D02*
G75*
G03*
X179709679Y-124222382I-285179J121951D01*
G01*
X167583283Y-118567750D02*
G75*
G03*
X167176150Y-118730985I-121950J-285181D01*
G01*
X173811150Y-136919146D02*
G75*
G03*
X174218283Y-136755911I121949J285183D01*
G01*
X161521518Y-130857382D02*
G75*
G03*
X161684753Y-131264515I285183J-121949D01*
G01*
%TO.C,SW5*%
X47623945Y-83034479D02*
X47709354Y-83353233D01*
X51085650Y-95953735D02*
X51000241Y-95634980D01*
X47829608Y-82642906D02*
X48148362Y-82557497D01*
X51477222Y-96159397D02*
X51795977Y-96073988D01*
X60748864Y-79181200D02*
X60430110Y-79266609D01*
X64396480Y-92697692D02*
X64077726Y-92783101D01*
X61140437Y-79386863D02*
X61225846Y-79705617D01*
X64602143Y-92306119D02*
X64516734Y-91987365D01*
X47829608Y-82642906D02*
G75*
G03*
X47622651Y-83029650I89890J-296848D01*
G01*
X51085650Y-95953735D02*
G75*
G03*
X51472394Y-96160691I296849J89892D01*
G01*
X61140438Y-79386863D02*
G75*
G03*
X60753693Y-79179907I-296850J-89893D01*
G01*
X64396480Y-92697693D02*
G75*
G03*
X64603436Y-92310948I-89893J296850D01*
G01*
%TO.C,SW7*%
X113064664Y-80411325D02*
X113047392Y-80740872D01*
X112364670Y-93767993D02*
X112381942Y-93438446D01*
X113381263Y-80102470D02*
X113710810Y-80119742D01*
X112673525Y-94084592D02*
X113003072Y-94101864D01*
X126737932Y-80802463D02*
X126408385Y-80785191D01*
X126030195Y-94784586D02*
X125700648Y-94767314D01*
X127046787Y-81119062D02*
X127029515Y-81448609D01*
X126346794Y-94475731D02*
X126364066Y-94146184D01*
X113381263Y-80102471D02*
G75*
G03*
X113064925Y-80406333I-6241J-310097D01*
G01*
X112364671Y-93767993D02*
G75*
G03*
X112668533Y-94084331I310098J-6240D01*
G01*
X127046788Y-81119062D02*
G75*
G03*
X126742924Y-80802724I-310100J6238D01*
G01*
X126030195Y-94784587D02*
G75*
G03*
X126346533Y-94480723I6238J310100D01*
G01*
%TO.C,SW8*%
X92999999Y-74425001D02*
X92999998Y-74755000D01*
X92999999Y-87799999D02*
X93000000Y-87470000D01*
X93300000Y-74100000D02*
X93629999Y-74100001D01*
X93325000Y-88100000D02*
X93654999Y-88100001D01*
X106674999Y-74099999D02*
X106345000Y-74099998D01*
X106700000Y-88100000D02*
X106370001Y-88099999D01*
X107000000Y-74400000D02*
X106999999Y-74729999D01*
X107000001Y-87774999D02*
X107000002Y-87445000D01*
X93300000Y-74100000D02*
G75*
G03*
X92999998Y-74420002I9997J-309999D01*
G01*
X92999999Y-87799999D02*
G75*
G03*
X93320001Y-88100001I310000J9998D01*
G01*
X107000002Y-74400000D02*
G75*
G03*
X106679998Y-74099998I-310002J-10000D01*
G01*
X106700000Y-88100002D02*
G75*
G03*
X107000002Y-87779998I-10000J310002D01*
G01*
%TO.C,SW1*%
X131720824Y-69058089D02*
X131703552Y-69387636D01*
X131020830Y-82414757D02*
X131038102Y-82085210D01*
X132037423Y-68749234D02*
X132366970Y-68766506D01*
X131329685Y-82731356D02*
X131659232Y-82748628D01*
X145394092Y-69449227D02*
X145064545Y-69431955D01*
X144686355Y-83431350D02*
X144356808Y-83414078D01*
X145702947Y-69765826D02*
X145685675Y-70095373D01*
X145002954Y-83122495D02*
X145020226Y-82792948D01*
X132037423Y-68749235D02*
G75*
G03*
X131721085Y-69053097I-6241J-310097D01*
G01*
X131020831Y-82414757D02*
G75*
G03*
X131324693Y-82731095I310098J-6240D01*
G01*
X145702948Y-69765826D02*
G75*
G03*
X145399084Y-69449488I-310100J6238D01*
G01*
X144686355Y-83431351D02*
G75*
G03*
X145002693Y-83127487I6238J310100D01*
G01*
%TO.C,SW3*%
X92999999Y-57425001D02*
X92999998Y-57755000D01*
X92999999Y-70799999D02*
X93000000Y-70470000D01*
X93300000Y-57100000D02*
X93629999Y-57100001D01*
X93325000Y-71100000D02*
X93654999Y-71100001D01*
X106674999Y-57099999D02*
X106345000Y-57099998D01*
X106700000Y-71100000D02*
X106370001Y-71099999D01*
X107000000Y-57400000D02*
X106999999Y-57729999D01*
X107000001Y-70774999D02*
X107000002Y-70445000D01*
X93300000Y-57100000D02*
G75*
G03*
X92999998Y-57420002I9997J-309999D01*
G01*
X92999999Y-70799999D02*
G75*
G03*
X93320001Y-71100001I310000J9998D01*
G01*
X107000002Y-57400000D02*
G75*
G03*
X106679998Y-57099998I-310002J-10000D01*
G01*
X106700000Y-71100002D02*
G75*
G03*
X107000002Y-70779998I-10000J310002D01*
G01*
%TO.C,SW10*%
X52023869Y-99455218D02*
X52109278Y-99773972D01*
X55485574Y-112374474D02*
X55400165Y-112055719D01*
X52229532Y-99063645D02*
X52548286Y-98978236D01*
X55877146Y-112580136D02*
X56195901Y-112494727D01*
X65148788Y-95601939D02*
X64830034Y-95687348D01*
X68796404Y-109118431D02*
X68477650Y-109203840D01*
X65540361Y-95807602D02*
X65625770Y-96126356D01*
X69002067Y-108726858D02*
X68916658Y-108408104D01*
X52229532Y-99063645D02*
G75*
G03*
X52022575Y-99450389I89890J-296848D01*
G01*
X55485574Y-112374474D02*
G75*
G03*
X55872318Y-112581430I296849J89892D01*
G01*
X65540362Y-95807602D02*
G75*
G03*
X65153617Y-95600646I-296850J-89893D01*
G01*
X68796404Y-109118432D02*
G75*
G03*
X69003360Y-108731687I-89893J296850D01*
G01*
%TO.C,SW17*%
X126451311Y-131510909D02*
X126781310Y-131510910D01*
X139826309Y-131510909D02*
X139496310Y-131510908D01*
X126126310Y-131210908D02*
X126126311Y-130880909D01*
X140126310Y-131185908D02*
X140126311Y-130855909D01*
X126126309Y-117835909D02*
X126126308Y-118165908D01*
X140126310Y-117810908D02*
X140126309Y-118140907D01*
X126426310Y-117510908D02*
X126756309Y-117510909D01*
X139801309Y-117510907D02*
X139471310Y-117510906D01*
X126126310Y-131210908D02*
G75*
G03*
X126446312Y-131510910I309999J9997D01*
G01*
X139826309Y-131510909D02*
G75*
G03*
X140126311Y-131190907I-9998J310000D01*
G01*
X126426310Y-117510906D02*
G75*
G03*
X126126308Y-117830910I10000J-310002D01*
G01*
X140126312Y-117810908D02*
G75*
G03*
X139806308Y-117510906I-310002J-10000D01*
G01*
%TO.C,SW11*%
X112174953Y-97388027D02*
X112157681Y-97717574D01*
X111474959Y-110744695D02*
X111492231Y-110415148D01*
X112491552Y-97079172D02*
X112821099Y-97096444D01*
X111783814Y-111061294D02*
X112113361Y-111078566D01*
X125848221Y-97779165D02*
X125518674Y-97761893D01*
X125140484Y-111761288D02*
X124810937Y-111744016D01*
X126157076Y-98095764D02*
X126139804Y-98425311D01*
X125457083Y-111452433D02*
X125474355Y-111122886D01*
X112491552Y-97079173D02*
G75*
G03*
X112175214Y-97383035I-6241J-310097D01*
G01*
X111474960Y-110744695D02*
G75*
G03*
X111778822Y-111061033I310098J-6240D01*
G01*
X126157077Y-98095764D02*
G75*
G03*
X125853213Y-97779426I-310100J6238D01*
G01*
X125140484Y-111761289D02*
G75*
G03*
X125456822Y-111457425I6238J310100D01*
G01*
%TD*%
M02*
