%TF.GenerationSoftware,KiCad,Pcbnew,7.0.10*%
%TF.CreationDate,2024-03-11T00:33:33+01:00*%
%TF.ProjectId,test_reverse_controller,74657374-5f72-4657-9665-7273655f636f,rev?*%
%TF.SameCoordinates,Original*%
%TF.FileFunction,Legend,Bot*%
%TF.FilePolarity,Positive*%
%FSLAX46Y46*%
G04 Gerber Fmt 4.6, Leading zero omitted, Abs format (unit mm)*
G04 Created by KiCad (PCBNEW 7.0.10) date 2024-03-11 00:33:33*
%MOMM*%
%LPD*%
G01*
G04 APERTURE LIST*
%ADD10C,0.150000*%
%ADD11C,0.160000*%
%ADD12C,0.100000*%
%ADD13C,0.120000*%
G04 APERTURE END LIST*
D10*
X173418475Y-83820914D02*
X173312693Y-83833088D01*
X173312693Y-83833088D02*
X173133704Y-83767941D01*
X173133704Y-83767941D02*
X173060496Y-83690621D01*
X173060496Y-83690621D02*
X173048323Y-83584840D01*
X173048323Y-83584840D02*
X173064609Y-83540092D01*
X173064609Y-83540092D02*
X173141930Y-83466884D01*
X173141930Y-83466884D02*
X173247711Y-83454711D01*
X173247711Y-83454711D02*
X173381953Y-83503571D01*
X173381953Y-83503571D02*
X173487734Y-83491397D01*
X173487734Y-83491397D02*
X173565055Y-83418189D01*
X173565055Y-83418189D02*
X173581341Y-83373442D01*
X173581341Y-83373442D02*
X173569167Y-83267660D01*
X173569167Y-83267660D02*
X173495960Y-83190340D01*
X173495960Y-83190340D02*
X173361718Y-83141480D01*
X173361718Y-83141480D02*
X173255937Y-83153654D01*
X172596737Y-83572501D02*
X172938757Y-82632809D01*
X172194012Y-83425921D02*
X172373165Y-82933701D01*
X172373165Y-82933701D02*
X172450486Y-82860493D01*
X172450486Y-82860493D02*
X172556267Y-82848320D01*
X172556267Y-82848320D02*
X172690509Y-82897180D01*
X172690509Y-82897180D02*
X172763716Y-82974500D01*
X172763716Y-82974500D02*
X172792177Y-83035534D01*
X171404847Y-83088014D02*
X171478055Y-83165334D01*
X171478055Y-83165334D02*
X171657044Y-83230481D01*
X171657044Y-83230481D02*
X171762825Y-83218307D01*
X171762825Y-83218307D02*
X171840146Y-83145099D01*
X171840146Y-83145099D02*
X171970439Y-82787121D01*
X171970439Y-82787121D02*
X171958266Y-82681340D01*
X171958266Y-82681340D02*
X171885058Y-82604019D01*
X171885058Y-82604019D02*
X171706069Y-82538873D01*
X171706069Y-82538873D02*
X171600287Y-82551047D01*
X171600287Y-82551047D02*
X171522967Y-82624254D01*
X171522967Y-82624254D02*
X171490393Y-82713749D01*
X171490393Y-82713749D02*
X171905293Y-82966110D01*
X170599396Y-82794854D02*
X170672604Y-82872174D01*
X170672604Y-82872174D02*
X170851593Y-82937321D01*
X170851593Y-82937321D02*
X170957374Y-82925147D01*
X170957374Y-82925147D02*
X171034695Y-82851939D01*
X171034695Y-82851939D02*
X171164988Y-82493961D01*
X171164988Y-82493961D02*
X171152815Y-82388180D01*
X171152815Y-82388180D02*
X171079607Y-82310859D01*
X171079607Y-82310859D02*
X170900618Y-82245713D01*
X170900618Y-82245713D02*
X170794836Y-82257886D01*
X170794836Y-82257886D02*
X170717516Y-82331094D01*
X170717516Y-82331094D02*
X170684942Y-82420589D01*
X170684942Y-82420589D02*
X171099842Y-82672950D01*
X170363650Y-82050272D02*
X170021630Y-82989965D01*
X170347364Y-82095020D02*
X170274156Y-82017699D01*
X170274156Y-82017699D02*
X170095167Y-81952552D01*
X170095167Y-81952552D02*
X169989385Y-81964726D01*
X169989385Y-81964726D02*
X169928352Y-81993187D01*
X169928352Y-81993187D02*
X169851031Y-82066395D01*
X169851031Y-82066395D02*
X169753311Y-82334878D01*
X169753311Y-82334878D02*
X169765485Y-82440660D01*
X169765485Y-82440660D02*
X169793945Y-82501693D01*
X169793945Y-82501693D02*
X169867153Y-82579014D01*
X169867153Y-82579014D02*
X170046142Y-82644161D01*
X170046142Y-82644161D02*
X170151924Y-82631987D01*
X172564955Y-84564808D02*
X172113205Y-85109836D01*
X172113205Y-85109836D02*
X172117482Y-84401941D01*
X171694522Y-83893270D02*
X171605027Y-83860697D01*
X171605027Y-83860697D02*
X171499246Y-83872870D01*
X171499246Y-83872870D02*
X171438212Y-83901331D01*
X171438212Y-83901331D02*
X171360891Y-83974539D01*
X171360891Y-83974539D02*
X171250997Y-84137241D01*
X171250997Y-84137241D02*
X171169564Y-84360978D01*
X171169564Y-84360978D02*
X171149164Y-84556253D01*
X171149164Y-84556253D02*
X171161338Y-84662035D01*
X171161338Y-84662035D02*
X171189799Y-84723069D01*
X171189799Y-84723069D02*
X171263007Y-84800389D01*
X171263007Y-84800389D02*
X171352501Y-84832963D01*
X171352501Y-84832963D02*
X171458283Y-84820789D01*
X171458283Y-84820789D02*
X171519317Y-84792328D01*
X171519317Y-84792328D02*
X171596637Y-84719120D01*
X171596637Y-84719120D02*
X171706531Y-84556418D01*
X171706531Y-84556418D02*
X171787964Y-84332681D01*
X171787964Y-84332681D02*
X171808364Y-84137406D01*
X171808364Y-84137406D02*
X171796190Y-84031624D01*
X171796190Y-84031624D02*
X171767729Y-83970591D01*
X171767729Y-83970591D02*
X171694522Y-83893270D01*
X170669118Y-84482881D02*
X170608084Y-84511342D01*
X170608084Y-84511342D02*
X170636545Y-84572376D01*
X170636545Y-84572376D02*
X170697579Y-84543915D01*
X170697579Y-84543915D02*
X170669118Y-84482881D01*
X170669118Y-84482881D02*
X170636545Y-84572376D01*
X169696853Y-84230356D02*
X170233820Y-84425796D01*
X169965336Y-84328076D02*
X170307357Y-83388383D01*
X170307357Y-83388383D02*
X170347991Y-83555198D01*
X170347991Y-83555198D02*
X170404912Y-83677266D01*
X170404912Y-83677266D02*
X170478120Y-83754587D01*
D11*
X106473308Y-92465180D02*
X106344737Y-92508037D01*
X106344737Y-92508037D02*
X106130451Y-92508037D01*
X106130451Y-92508037D02*
X106044737Y-92465180D01*
X106044737Y-92465180D02*
X106001879Y-92422322D01*
X106001879Y-92422322D02*
X105959022Y-92336608D01*
X105959022Y-92336608D02*
X105959022Y-92250894D01*
X105959022Y-92250894D02*
X106001879Y-92165180D01*
X106001879Y-92165180D02*
X106044737Y-92122322D01*
X106044737Y-92122322D02*
X106130451Y-92079465D01*
X106130451Y-92079465D02*
X106301879Y-92036608D01*
X106301879Y-92036608D02*
X106387594Y-91993751D01*
X106387594Y-91993751D02*
X106430451Y-91950894D01*
X106430451Y-91950894D02*
X106473308Y-91865180D01*
X106473308Y-91865180D02*
X106473308Y-91779465D01*
X106473308Y-91779465D02*
X106430451Y-91693751D01*
X106430451Y-91693751D02*
X106387594Y-91650894D01*
X106387594Y-91650894D02*
X106301879Y-91608037D01*
X106301879Y-91608037D02*
X106087594Y-91608037D01*
X106087594Y-91608037D02*
X105959022Y-91650894D01*
X105659022Y-91608037D02*
X105444736Y-92508037D01*
X105444736Y-92508037D02*
X105273308Y-91865180D01*
X105273308Y-91865180D02*
X105101879Y-92508037D01*
X105101879Y-92508037D02*
X104887594Y-91608037D01*
X104073308Y-92508037D02*
X104587594Y-92508037D01*
X104330451Y-92508037D02*
X104330451Y-91608037D01*
X104330451Y-91608037D02*
X104416165Y-91736608D01*
X104416165Y-91736608D02*
X104501880Y-91822322D01*
X104501880Y-91822322D02*
X104587594Y-91865180D01*
X103730451Y-91693751D02*
X103687594Y-91650894D01*
X103687594Y-91650894D02*
X103601880Y-91608037D01*
X103601880Y-91608037D02*
X103387594Y-91608037D01*
X103387594Y-91608037D02*
X103301880Y-91650894D01*
X103301880Y-91650894D02*
X103259022Y-91693751D01*
X103259022Y-91693751D02*
X103216165Y-91779465D01*
X103216165Y-91779465D02*
X103216165Y-91865180D01*
X103216165Y-91865180D02*
X103259022Y-91993751D01*
X103259022Y-91993751D02*
X103773308Y-92508037D01*
X103773308Y-92508037D02*
X103216165Y-92508037D01*
D12*
X161277536Y-103873333D02*
X161482748Y-103309517D01*
X161482748Y-103309517D02*
X161370880Y-103268800D01*
X161370880Y-103268800D02*
X161293987Y-103271219D01*
X161293987Y-103271219D02*
X161229696Y-103308629D01*
X161229696Y-103308629D02*
X161187778Y-103354182D01*
X161187778Y-103354182D02*
X161126317Y-103453432D01*
X161126317Y-103453432D02*
X161097001Y-103533977D01*
X161097001Y-103533977D02*
X161080286Y-103649514D01*
X161080286Y-103649514D02*
X161083116Y-103711354D01*
X161083116Y-103711354D02*
X161108319Y-103781338D01*
X161108319Y-103781338D02*
X161165668Y-103832616D01*
X161165668Y-103832616D02*
X161277536Y-103873333D01*
X160857833Y-103355712D02*
X160912352Y-103345150D01*
X160912352Y-103345150D02*
X160944498Y-103326445D01*
X160944498Y-103326445D02*
X160986415Y-103280892D01*
X160986415Y-103280892D02*
X160996187Y-103254044D01*
X160996187Y-103254044D02*
X160993358Y-103192204D01*
X160993358Y-103192204D02*
X160980756Y-103157212D01*
X160980756Y-103157212D02*
X160945781Y-103114077D01*
X160945781Y-103114077D02*
X160856286Y-103081504D01*
X160856286Y-103081504D02*
X160801767Y-103092065D01*
X160801767Y-103092065D02*
X160769622Y-103110770D01*
X160769622Y-103110770D02*
X160727704Y-103156324D01*
X160727704Y-103156324D02*
X160717932Y-103183172D01*
X160717932Y-103183172D02*
X160720761Y-103245012D01*
X160720761Y-103245012D02*
X160733363Y-103280004D01*
X160733363Y-103280004D02*
X160768338Y-103323139D01*
X160768338Y-103323139D02*
X160857833Y-103355712D01*
X160857833Y-103355712D02*
X160892808Y-103398847D01*
X160892808Y-103398847D02*
X160905410Y-103433839D01*
X160905410Y-103433839D02*
X160908239Y-103495679D01*
X160908239Y-103495679D02*
X160869151Y-103603072D01*
X160869151Y-103603072D02*
X160827234Y-103648626D01*
X160827234Y-103648626D02*
X160795088Y-103667331D01*
X160795088Y-103667331D02*
X160740569Y-103677892D01*
X160740569Y-103677892D02*
X160651074Y-103645319D01*
X160651074Y-103645319D02*
X160616099Y-103602184D01*
X160616099Y-103602184D02*
X160603497Y-103567192D01*
X160603497Y-103567192D02*
X160600668Y-103505352D01*
X160600668Y-103505352D02*
X160639756Y-103397959D01*
X160639756Y-103397959D02*
X160681673Y-103352406D01*
X160681673Y-103352406D02*
X160713819Y-103333700D01*
X160713819Y-103333700D02*
X160768338Y-103323139D01*
X171287111Y-93353986D02*
X171063374Y-93272553D01*
X171273226Y-93531363D02*
X171321823Y-92910544D01*
X171321823Y-92910544D02*
X170959995Y-93417357D01*
X171011422Y-92858378D02*
X170998820Y-92823386D01*
X170998820Y-92823386D02*
X170963845Y-92780251D01*
X170963845Y-92780251D02*
X170851977Y-92739534D01*
X170851977Y-92739534D02*
X170797457Y-92750096D01*
X170797457Y-92750096D02*
X170765312Y-92768801D01*
X170765312Y-92768801D02*
X170723394Y-92814355D01*
X170723394Y-92814355D02*
X170703850Y-92868051D01*
X170703850Y-92868051D02*
X170696908Y-92956740D01*
X170696908Y-92956740D02*
X170848127Y-93376640D01*
X170848127Y-93376640D02*
X170557270Y-93270777D01*
X163014998Y-99099695D02*
X163220210Y-98535879D01*
X163220210Y-98535879D02*
X163108342Y-98495162D01*
X163108342Y-98495162D02*
X163031449Y-98497581D01*
X163031449Y-98497581D02*
X162967158Y-98534991D01*
X162967158Y-98534991D02*
X162925240Y-98580544D01*
X162925240Y-98580544D02*
X162863779Y-98679794D01*
X162863779Y-98679794D02*
X162834463Y-98760339D01*
X162834463Y-98760339D02*
X162817748Y-98875876D01*
X162817748Y-98875876D02*
X162820578Y-98937716D01*
X162820578Y-98937716D02*
X162845781Y-99007700D01*
X162845781Y-99007700D02*
X162903130Y-99058978D01*
X162903130Y-99058978D02*
X163014998Y-99099695D01*
X162549001Y-98291579D02*
X162638496Y-98324152D01*
X162638496Y-98324152D02*
X162673471Y-98367287D01*
X162673471Y-98367287D02*
X162686073Y-98402279D01*
X162686073Y-98402279D02*
X162701504Y-98499111D01*
X162701504Y-98499111D02*
X162684789Y-98614647D01*
X162684789Y-98614647D02*
X162606613Y-98829434D01*
X162606613Y-98829434D02*
X162564696Y-98874988D01*
X162564696Y-98874988D02*
X162532550Y-98893693D01*
X162532550Y-98893693D02*
X162478031Y-98904254D01*
X162478031Y-98904254D02*
X162388536Y-98871681D01*
X162388536Y-98871681D02*
X162353561Y-98828546D01*
X162353561Y-98828546D02*
X162340959Y-98793554D01*
X162340959Y-98793554D02*
X162338130Y-98731714D01*
X162338130Y-98731714D02*
X162386990Y-98597473D01*
X162386990Y-98597473D02*
X162428907Y-98551919D01*
X162428907Y-98551919D02*
X162461053Y-98533214D01*
X162461053Y-98533214D02*
X162515572Y-98522652D01*
X162515572Y-98522652D02*
X162605067Y-98555226D01*
X162605067Y-98555226D02*
X162640042Y-98598361D01*
X162640042Y-98598361D02*
X162652644Y-98633353D01*
X162652644Y-98633353D02*
X162655473Y-98695193D01*
X174922243Y-83436157D02*
X174976763Y-83425595D01*
X174976763Y-83425595D02*
X175043884Y-83450026D01*
X175043884Y-83450026D02*
X175101233Y-83501304D01*
X175101233Y-83501304D02*
X175126436Y-83571287D01*
X175126436Y-83571287D02*
X175129265Y-83633127D01*
X175129265Y-83633127D02*
X175112551Y-83748664D01*
X175112551Y-83748664D02*
X175083235Y-83829209D01*
X175083235Y-83829209D02*
X175021773Y-83928459D01*
X175021773Y-83928459D02*
X174979856Y-83974013D01*
X174979856Y-83974013D02*
X174915564Y-84011423D01*
X174915564Y-84011423D02*
X174838672Y-84013841D01*
X174838672Y-84013841D02*
X174793924Y-83997554D01*
X174793924Y-83997554D02*
X174736575Y-83946276D01*
X174736575Y-83946276D02*
X174723974Y-83911284D01*
X174723974Y-83911284D02*
X174792378Y-83723346D01*
X174792378Y-83723346D02*
X174881872Y-83755919D01*
X174503067Y-83891691D02*
X174708279Y-83327875D01*
X174708279Y-83327875D02*
X174234583Y-83793971D01*
X174234583Y-83793971D02*
X174439795Y-83230155D01*
X174010847Y-83712537D02*
X174216059Y-83148722D01*
X174216059Y-83148722D02*
X174104191Y-83108005D01*
X174104191Y-83108005D02*
X174027298Y-83110424D01*
X174027298Y-83110424D02*
X173963006Y-83147834D01*
X173963006Y-83147834D02*
X173921089Y-83193387D01*
X173921089Y-83193387D02*
X173859627Y-83292637D01*
X173859627Y-83292637D02*
X173830311Y-83373182D01*
X173830311Y-83373182D02*
X173813597Y-83488719D01*
X173813597Y-83488719D02*
X173816426Y-83550559D01*
X173816426Y-83550559D02*
X173841630Y-83620542D01*
X173841630Y-83620542D02*
X173898978Y-83671821D01*
X173898978Y-83671821D02*
X174010847Y-83712537D01*
X173463036Y-88280667D02*
X173101209Y-88787479D01*
X173101209Y-88787479D02*
X173149805Y-88166660D01*
X172539039Y-88522055D02*
X172551640Y-88557047D01*
X172551640Y-88557047D02*
X172608989Y-88608325D01*
X172608989Y-88608325D02*
X172653736Y-88624612D01*
X172653736Y-88624612D02*
X172730629Y-88622194D01*
X172730629Y-88622194D02*
X172794921Y-88584784D01*
X172794921Y-88584784D02*
X172836838Y-88539230D01*
X172836838Y-88539230D02*
X172898300Y-88439980D01*
X172898300Y-88439980D02*
X172927616Y-88359435D01*
X172927616Y-88359435D02*
X172944330Y-88243898D01*
X172944330Y-88243898D02*
X172941501Y-88182058D01*
X172941501Y-88182058D02*
X172916297Y-88112075D01*
X172916297Y-88112075D02*
X172858948Y-88060797D01*
X172858948Y-88060797D02*
X172814201Y-88044510D01*
X172814201Y-88044510D02*
X172737308Y-88046928D01*
X172737308Y-88046928D02*
X172705163Y-88065633D01*
X172069192Y-88351045D02*
X172081794Y-88386037D01*
X172081794Y-88386037D02*
X172139143Y-88437315D01*
X172139143Y-88437315D02*
X172183890Y-88453602D01*
X172183890Y-88453602D02*
X172260783Y-88451184D01*
X172260783Y-88451184D02*
X172325074Y-88413774D01*
X172325074Y-88413774D02*
X172366992Y-88368220D01*
X172366992Y-88368220D02*
X172428454Y-88268970D01*
X172428454Y-88268970D02*
X172457770Y-88188425D01*
X172457770Y-88188425D02*
X172474484Y-88072888D01*
X172474484Y-88072888D02*
X172471654Y-88011048D01*
X172471654Y-88011048D02*
X172446451Y-87941065D01*
X172446451Y-87941065D02*
X172389102Y-87889787D01*
X172389102Y-87889787D02*
X172344355Y-87873500D01*
X172344355Y-87873500D02*
X172267462Y-87875918D01*
X172267462Y-87875918D02*
X172235316Y-87894623D01*
X160408805Y-106260153D02*
X160614017Y-105696337D01*
X160614017Y-105696337D02*
X160502149Y-105655620D01*
X160502149Y-105655620D02*
X160425256Y-105658039D01*
X160425256Y-105658039D02*
X160360965Y-105695449D01*
X160360965Y-105695449D02*
X160319047Y-105741002D01*
X160319047Y-105741002D02*
X160257586Y-105840252D01*
X160257586Y-105840252D02*
X160228270Y-105920797D01*
X160228270Y-105920797D02*
X160211555Y-106036334D01*
X160211555Y-106036334D02*
X160214385Y-106098174D01*
X160214385Y-106098174D02*
X160239588Y-106168158D01*
X160239588Y-106168158D02*
X160296937Y-106219436D01*
X160296937Y-106219436D02*
X160408805Y-106260153D01*
X159916585Y-106080999D02*
X159827091Y-106048426D01*
X159827091Y-106048426D02*
X159792115Y-106005291D01*
X159792115Y-106005291D02*
X159779514Y-105970299D01*
X159779514Y-105970299D02*
X159764082Y-105873467D01*
X159764082Y-105873467D02*
X159780797Y-105757931D01*
X159780797Y-105757931D02*
X159858973Y-105543144D01*
X159858973Y-105543144D02*
X159900891Y-105497590D01*
X159900891Y-105497590D02*
X159933036Y-105478885D01*
X159933036Y-105478885D02*
X159987555Y-105468324D01*
X159987555Y-105468324D02*
X160077050Y-105500897D01*
X160077050Y-105500897D02*
X160112025Y-105544032D01*
X160112025Y-105544032D02*
X160124627Y-105579024D01*
X160124627Y-105579024D02*
X160127456Y-105640864D01*
X160127456Y-105640864D02*
X160078596Y-105775105D01*
X160078596Y-105775105D02*
X160036679Y-105820659D01*
X160036679Y-105820659D02*
X160004533Y-105839364D01*
X160004533Y-105839364D02*
X159950014Y-105849926D01*
X159950014Y-105849926D02*
X159860519Y-105817352D01*
X159860519Y-105817352D02*
X159825544Y-105774217D01*
X159825544Y-105774217D02*
X159812942Y-105739226D01*
X159812942Y-105739226D02*
X159810113Y-105677385D01*
X165620166Y-91942056D02*
X165825378Y-91378240D01*
X165825378Y-91378240D02*
X165713510Y-91337523D01*
X165713510Y-91337523D02*
X165636617Y-91339942D01*
X165636617Y-91339942D02*
X165572326Y-91377352D01*
X165572326Y-91377352D02*
X165530408Y-91422905D01*
X165530408Y-91422905D02*
X165468947Y-91522155D01*
X165468947Y-91522155D02*
X165439631Y-91602700D01*
X165439631Y-91602700D02*
X165422916Y-91718237D01*
X165422916Y-91718237D02*
X165425746Y-91780077D01*
X165425746Y-91780077D02*
X165450949Y-91850061D01*
X165450949Y-91850061D02*
X165508298Y-91901339D01*
X165508298Y-91901339D02*
X165620166Y-91942056D01*
X165400279Y-91223517D02*
X165109422Y-91117653D01*
X165109422Y-91117653D02*
X165187861Y-91389443D01*
X165187861Y-91389443D02*
X165120740Y-91365013D01*
X165120740Y-91365013D02*
X165066221Y-91375575D01*
X165066221Y-91375575D02*
X165034075Y-91394280D01*
X165034075Y-91394280D02*
X164992158Y-91439834D01*
X164992158Y-91439834D02*
X164943298Y-91574075D01*
X164943298Y-91574075D02*
X164946127Y-91635915D01*
X164946127Y-91635915D02*
X164958729Y-91670907D01*
X164958729Y-91670907D02*
X164993704Y-91714042D01*
X164993704Y-91714042D02*
X165127946Y-91762902D01*
X165127946Y-91762902D02*
X165182465Y-91752340D01*
X165182465Y-91752340D02*
X165214611Y-91733635D01*
X167120772Y-105531859D02*
X167325984Y-104968043D01*
X167325984Y-104968043D02*
X167214116Y-104927327D01*
X167214116Y-104927327D02*
X167137223Y-104929745D01*
X167137223Y-104929745D02*
X167072932Y-104967155D01*
X167072932Y-104967155D02*
X167031014Y-105012708D01*
X167031014Y-105012708D02*
X166969553Y-105111958D01*
X166969553Y-105111958D02*
X166940237Y-105192504D01*
X166940237Y-105192504D02*
X166923522Y-105308040D01*
X166923522Y-105308040D02*
X166926352Y-105369880D01*
X166926352Y-105369880D02*
X166951555Y-105439864D01*
X166951555Y-105439864D02*
X167008904Y-105491142D01*
X167008904Y-105491142D02*
X167120772Y-105531859D01*
X166858968Y-104858873D02*
X166846366Y-104823882D01*
X166846366Y-104823882D02*
X166811391Y-104780747D01*
X166811391Y-104780747D02*
X166699523Y-104740030D01*
X166699523Y-104740030D02*
X166645003Y-104750592D01*
X166645003Y-104750592D02*
X166612858Y-104769297D01*
X166612858Y-104769297D02*
X166570940Y-104814850D01*
X166570940Y-104814850D02*
X166551396Y-104868547D01*
X166551396Y-104868547D02*
X166544454Y-104957235D01*
X166544454Y-104957235D02*
X166695673Y-105377135D01*
X166695673Y-105377135D02*
X166404816Y-105271272D01*
X166411495Y-104696007D02*
X166398894Y-104661015D01*
X166398894Y-104661015D02*
X166363918Y-104617880D01*
X166363918Y-104617880D02*
X166252050Y-104577163D01*
X166252050Y-104577163D02*
X166197531Y-104587725D01*
X166197531Y-104587725D02*
X166165385Y-104606430D01*
X166165385Y-104606430D02*
X166123468Y-104651983D01*
X166123468Y-104651983D02*
X166103924Y-104705680D01*
X166103924Y-104705680D02*
X166096981Y-104794369D01*
X166096981Y-104794369D02*
X166248201Y-105214269D01*
X166248201Y-105214269D02*
X165957344Y-105108405D01*
X175561975Y-81574089D02*
X175816310Y-81362609D01*
X175830458Y-81671809D02*
X176035670Y-81107994D01*
X176035670Y-81107994D02*
X175856681Y-81042847D01*
X175856681Y-81042847D02*
X175802162Y-81053409D01*
X175802162Y-81053409D02*
X175770016Y-81072114D01*
X175770016Y-81072114D02*
X175728099Y-81117667D01*
X175728099Y-81117667D02*
X175698783Y-81198212D01*
X175698783Y-81198212D02*
X175701612Y-81260052D01*
X175701612Y-81260052D02*
X175714214Y-81295044D01*
X175714214Y-81295044D02*
X175749189Y-81338179D01*
X175749189Y-81338179D02*
X175928178Y-81403326D01*
X175441618Y-81347852D02*
X175217881Y-81266419D01*
X175427733Y-81525229D02*
X175476330Y-80904410D01*
X175476330Y-80904410D02*
X175114502Y-81411223D01*
X175207846Y-80806690D02*
X174890766Y-81329789D01*
X174890766Y-81329789D02*
X174947852Y-80894491D01*
X174947852Y-80894491D02*
X174711777Y-81264643D01*
X174711777Y-81264643D02*
X174805121Y-80660110D01*
X167989503Y-103145040D02*
X168194715Y-102581224D01*
X168194715Y-102581224D02*
X168082847Y-102540508D01*
X168082847Y-102540508D02*
X168005954Y-102542926D01*
X168005954Y-102542926D02*
X167941663Y-102580336D01*
X167941663Y-102580336D02*
X167899745Y-102625889D01*
X167899745Y-102625889D02*
X167838284Y-102725139D01*
X167838284Y-102725139D02*
X167808968Y-102805685D01*
X167808968Y-102805685D02*
X167792253Y-102921221D01*
X167792253Y-102921221D02*
X167795083Y-102983061D01*
X167795083Y-102983061D02*
X167820286Y-103053045D01*
X167820286Y-103053045D02*
X167877635Y-103104323D01*
X167877635Y-103104323D02*
X167989503Y-103145040D01*
X167727699Y-102472054D02*
X167715097Y-102437063D01*
X167715097Y-102437063D02*
X167680122Y-102393928D01*
X167680122Y-102393928D02*
X167568254Y-102353211D01*
X167568254Y-102353211D02*
X167513734Y-102363773D01*
X167513734Y-102363773D02*
X167481589Y-102382478D01*
X167481589Y-102382478D02*
X167439671Y-102428031D01*
X167439671Y-102428031D02*
X167420127Y-102481728D01*
X167420127Y-102481728D02*
X167413185Y-102570416D01*
X167413185Y-102570416D02*
X167564404Y-102990316D01*
X167564404Y-102990316D02*
X167273547Y-102884453D01*
X167187902Y-102214774D02*
X167143155Y-102198488D01*
X167143155Y-102198488D02*
X167088636Y-102209049D01*
X167088636Y-102209049D02*
X167056490Y-102227754D01*
X167056490Y-102227754D02*
X167014572Y-102273308D01*
X167014572Y-102273308D02*
X166953111Y-102372558D01*
X166953111Y-102372558D02*
X166904251Y-102506800D01*
X166904251Y-102506800D02*
X166887536Y-102622336D01*
X166887536Y-102622336D02*
X166890366Y-102684176D01*
X166890366Y-102684176D02*
X166902968Y-102719168D01*
X166902968Y-102719168D02*
X166937943Y-102762303D01*
X166937943Y-102762303D02*
X166982690Y-102778590D01*
X166982690Y-102778590D02*
X167037209Y-102768028D01*
X167037209Y-102768028D02*
X167069355Y-102749323D01*
X167069355Y-102749323D02*
X167111273Y-102703770D01*
X167111273Y-102703770D02*
X167172734Y-102604520D01*
X167172734Y-102604520D02*
X167221594Y-102470278D01*
X167221594Y-102470278D02*
X167238309Y-102354741D01*
X167238309Y-102354741D02*
X167235479Y-102292901D01*
X167235479Y-102292901D02*
X167222877Y-102257909D01*
X167222877Y-102257909D02*
X167187902Y-102214774D01*
X170419406Y-95737986D02*
X170195669Y-95656553D01*
X170405521Y-95915363D02*
X170454118Y-95294544D01*
X170454118Y-95294544D02*
X170092290Y-95801357D01*
X169689565Y-95654777D02*
X169958049Y-95752497D01*
X169823807Y-95703637D02*
X170029019Y-95139821D01*
X170029019Y-95139821D02*
X170044450Y-95236653D01*
X170044450Y-95236653D02*
X170069653Y-95306636D01*
X170069653Y-95306636D02*
X170104629Y-95349771D01*
X169550674Y-98124805D02*
X169326937Y-98043372D01*
X169536789Y-98302182D02*
X169585386Y-97681363D01*
X169585386Y-97681363D02*
X169223558Y-98188176D01*
X169182661Y-97534783D02*
X169137913Y-97518497D01*
X169137913Y-97518497D02*
X169083394Y-97529058D01*
X169083394Y-97529058D02*
X169051248Y-97547764D01*
X169051248Y-97547764D02*
X169009331Y-97593317D01*
X169009331Y-97593317D02*
X168947869Y-97692567D01*
X168947869Y-97692567D02*
X168899009Y-97826809D01*
X168899009Y-97826809D02*
X168882295Y-97942346D01*
X168882295Y-97942346D02*
X168885124Y-98004186D01*
X168885124Y-98004186D02*
X168897726Y-98039177D01*
X168897726Y-98039177D02*
X168932701Y-98082312D01*
X168932701Y-98082312D02*
X168977448Y-98098599D01*
X168977448Y-98098599D02*
X169031968Y-98088037D01*
X169031968Y-98088037D02*
X169064113Y-98069332D01*
X169064113Y-98069332D02*
X169106031Y-98023779D01*
X169106031Y-98023779D02*
X169167493Y-97924529D01*
X169167493Y-97924529D02*
X169216353Y-97790287D01*
X169216353Y-97790287D02*
X169233067Y-97674750D01*
X169233067Y-97674750D02*
X169230237Y-97612910D01*
X169230237Y-97612910D02*
X169217636Y-97577919D01*
X169217636Y-97577919D02*
X169182661Y-97534783D01*
X173757390Y-86323298D02*
X174011726Y-86111818D01*
X174025874Y-86421018D02*
X174231086Y-85857203D01*
X174231086Y-85857203D02*
X174052097Y-85792056D01*
X174052097Y-85792056D02*
X173997578Y-85802618D01*
X173997578Y-85802618D02*
X173965432Y-85821323D01*
X173965432Y-85821323D02*
X173923514Y-85866876D01*
X173923514Y-85866876D02*
X173894198Y-85947421D01*
X173894198Y-85947421D02*
X173897028Y-86009261D01*
X173897028Y-86009261D02*
X173909630Y-86044253D01*
X173909630Y-86044253D02*
X173944605Y-86087388D01*
X173944605Y-86087388D02*
X174123594Y-86152535D01*
X173588173Y-86231303D02*
X173511280Y-86233721D01*
X173511280Y-86233721D02*
X173399412Y-86193005D01*
X173399412Y-86193005D02*
X173364437Y-86149870D01*
X173364437Y-86149870D02*
X173351835Y-86114878D01*
X173351835Y-86114878D02*
X173349006Y-86053038D01*
X173349006Y-86053038D02*
X173368550Y-85999341D01*
X173368550Y-85999341D02*
X173410467Y-85953788D01*
X173410467Y-85953788D02*
X173442613Y-85935083D01*
X173442613Y-85935083D02*
X173497132Y-85924521D01*
X173497132Y-85924521D02*
X173596399Y-85930246D01*
X173596399Y-85930246D02*
X173650918Y-85919684D01*
X173650918Y-85919684D02*
X173683064Y-85900979D01*
X173683064Y-85900979D02*
X173724981Y-85855426D01*
X173724981Y-85855426D02*
X173744525Y-85801729D01*
X173744525Y-85801729D02*
X173741696Y-85739889D01*
X173741696Y-85739889D02*
X173729094Y-85704898D01*
X173729094Y-85704898D02*
X173694119Y-85661763D01*
X173694119Y-85661763D02*
X173582251Y-85621046D01*
X173582251Y-85621046D02*
X173505358Y-85623464D01*
X173380888Y-85547756D02*
X173112405Y-85450036D01*
X173041435Y-86062712D02*
X173246647Y-85498896D01*
X167565281Y-86632703D02*
X167619801Y-86622141D01*
X167619801Y-86622141D02*
X167686922Y-86646572D01*
X167686922Y-86646572D02*
X167744271Y-86697850D01*
X167744271Y-86697850D02*
X167769474Y-86767833D01*
X167769474Y-86767833D02*
X167772303Y-86829673D01*
X167772303Y-86829673D02*
X167755589Y-86945210D01*
X167755589Y-86945210D02*
X167726273Y-87025755D01*
X167726273Y-87025755D02*
X167664811Y-87125005D01*
X167664811Y-87125005D02*
X167622894Y-87170559D01*
X167622894Y-87170559D02*
X167558602Y-87207969D01*
X167558602Y-87207969D02*
X167481710Y-87210387D01*
X167481710Y-87210387D02*
X167436962Y-87194100D01*
X167436962Y-87194100D02*
X167379613Y-87142822D01*
X167379613Y-87142822D02*
X167367012Y-87107830D01*
X167367012Y-87107830D02*
X167435416Y-86919892D01*
X167435416Y-86919892D02*
X167524910Y-86952465D01*
X167146105Y-87088237D02*
X167351317Y-86524421D01*
X167351317Y-86524421D02*
X166877621Y-86990517D01*
X166877621Y-86990517D02*
X167082833Y-86426701D01*
X166653885Y-86909083D02*
X166859097Y-86345268D01*
X166859097Y-86345268D02*
X166747229Y-86304551D01*
X166747229Y-86304551D02*
X166670336Y-86306970D01*
X166670336Y-86306970D02*
X166606044Y-86344380D01*
X166606044Y-86344380D02*
X166564127Y-86389933D01*
X166564127Y-86389933D02*
X166502665Y-86489183D01*
X166502665Y-86489183D02*
X166473349Y-86569728D01*
X166473349Y-86569728D02*
X166456635Y-86685265D01*
X166456635Y-86685265D02*
X166459464Y-86747105D01*
X166459464Y-86747105D02*
X166484668Y-86817088D01*
X166484668Y-86817088D02*
X166542016Y-86868367D01*
X166542016Y-86868367D02*
X166653885Y-86909083D01*
X169096116Y-82391960D02*
X169301328Y-81828144D01*
X169301328Y-81828144D02*
X169189460Y-81787427D01*
X169189460Y-81787427D02*
X169112567Y-81789846D01*
X169112567Y-81789846D02*
X169048276Y-81827256D01*
X169048276Y-81827256D02*
X169006358Y-81872809D01*
X169006358Y-81872809D02*
X168944897Y-81972059D01*
X168944897Y-81972059D02*
X168915581Y-82052604D01*
X168915581Y-82052604D02*
X168898866Y-82168141D01*
X168898866Y-82168141D02*
X168901696Y-82229981D01*
X168901696Y-82229981D02*
X168926899Y-82299965D01*
X168926899Y-82299965D02*
X168984248Y-82351243D01*
X168984248Y-82351243D02*
X169096116Y-82391960D01*
X168380160Y-82131373D02*
X168648643Y-82229093D01*
X168514402Y-82180233D02*
X168719614Y-81616417D01*
X168719614Y-81616417D02*
X168735045Y-81713249D01*
X168735045Y-81713249D02*
X168760248Y-81783232D01*
X168760248Y-81783232D02*
X168795223Y-81826367D01*
X162146267Y-101486514D02*
X162351479Y-100922698D01*
X162351479Y-100922698D02*
X162239611Y-100881981D01*
X162239611Y-100881981D02*
X162162718Y-100884400D01*
X162162718Y-100884400D02*
X162098427Y-100921810D01*
X162098427Y-100921810D02*
X162056509Y-100967363D01*
X162056509Y-100967363D02*
X161995048Y-101066613D01*
X161995048Y-101066613D02*
X161965732Y-101147158D01*
X161965732Y-101147158D02*
X161949017Y-101262695D01*
X161949017Y-101262695D02*
X161951847Y-101324535D01*
X161951847Y-101324535D02*
X161977050Y-101394519D01*
X161977050Y-101394519D02*
X162034399Y-101445797D01*
X162034399Y-101445797D02*
X162146267Y-101486514D01*
X161926380Y-100767975D02*
X161613149Y-100653968D01*
X161613149Y-100653968D02*
X161609300Y-101291073D01*
X163883729Y-96712876D02*
X164088941Y-96149060D01*
X164088941Y-96149060D02*
X163977073Y-96108343D01*
X163977073Y-96108343D02*
X163900180Y-96110762D01*
X163900180Y-96110762D02*
X163835889Y-96148172D01*
X163835889Y-96148172D02*
X163793971Y-96193725D01*
X163793971Y-96193725D02*
X163732510Y-96292975D01*
X163732510Y-96292975D02*
X163703194Y-96373520D01*
X163703194Y-96373520D02*
X163686479Y-96489057D01*
X163686479Y-96489057D02*
X163689309Y-96550897D01*
X163689309Y-96550897D02*
X163714512Y-96620881D01*
X163714512Y-96620881D02*
X163771861Y-96672159D01*
X163771861Y-96672159D02*
X163883729Y-96712876D01*
X163395359Y-95896617D02*
X163619095Y-95978050D01*
X163619095Y-95978050D02*
X163543748Y-96254677D01*
X163543748Y-96254677D02*
X163531147Y-96219685D01*
X163531147Y-96219685D02*
X163496172Y-96176550D01*
X163496172Y-96176550D02*
X163384303Y-96135833D01*
X163384303Y-96135833D02*
X163329784Y-96146395D01*
X163329784Y-96146395D02*
X163297638Y-96165100D01*
X163297638Y-96165100D02*
X163255721Y-96210654D01*
X163255721Y-96210654D02*
X163206861Y-96344895D01*
X163206861Y-96344895D02*
X163209690Y-96406735D01*
X163209690Y-96406735D02*
X163222292Y-96441727D01*
X163222292Y-96441727D02*
X163257267Y-96484862D01*
X163257267Y-96484862D02*
X163369136Y-96525579D01*
X163369136Y-96525579D02*
X163423655Y-96515017D01*
X163423655Y-96515017D02*
X163455800Y-96496312D01*
X168434012Y-84245883D02*
X168488532Y-84235321D01*
X168488532Y-84235321D02*
X168555653Y-84259752D01*
X168555653Y-84259752D02*
X168613002Y-84311030D01*
X168613002Y-84311030D02*
X168638205Y-84381013D01*
X168638205Y-84381013D02*
X168641034Y-84442853D01*
X168641034Y-84442853D02*
X168624320Y-84558390D01*
X168624320Y-84558390D02*
X168595004Y-84638935D01*
X168595004Y-84638935D02*
X168533542Y-84738185D01*
X168533542Y-84738185D02*
X168491625Y-84783739D01*
X168491625Y-84783739D02*
X168427333Y-84821149D01*
X168427333Y-84821149D02*
X168350441Y-84823567D01*
X168350441Y-84823567D02*
X168305693Y-84807280D01*
X168305693Y-84807280D02*
X168248344Y-84756002D01*
X168248344Y-84756002D02*
X168235743Y-84721010D01*
X168235743Y-84721010D02*
X168304147Y-84533072D01*
X168304147Y-84533072D02*
X168393641Y-84565645D01*
X168014836Y-84701417D02*
X168220048Y-84137601D01*
X168220048Y-84137601D02*
X167746352Y-84603697D01*
X167746352Y-84603697D02*
X167951564Y-84039881D01*
X167522616Y-84522263D02*
X167727828Y-83958448D01*
X167727828Y-83958448D02*
X167615960Y-83917731D01*
X167615960Y-83917731D02*
X167539067Y-83920150D01*
X167539067Y-83920150D02*
X167474775Y-83957560D01*
X167474775Y-83957560D02*
X167432858Y-84003113D01*
X167432858Y-84003113D02*
X167371396Y-84102363D01*
X167371396Y-84102363D02*
X167342080Y-84182908D01*
X167342080Y-84182908D02*
X167325366Y-84298445D01*
X167325366Y-84298445D02*
X167328195Y-84360285D01*
X167328195Y-84360285D02*
X167353399Y-84430268D01*
X167353399Y-84430268D02*
X167410747Y-84481547D01*
X167410747Y-84481547D02*
X167522616Y-84522263D01*
X166252041Y-107918678D02*
X166457253Y-107354862D01*
X166457253Y-107354862D02*
X166345385Y-107314146D01*
X166345385Y-107314146D02*
X166268492Y-107316564D01*
X166268492Y-107316564D02*
X166204201Y-107353974D01*
X166204201Y-107353974D02*
X166162283Y-107399527D01*
X166162283Y-107399527D02*
X166100822Y-107498777D01*
X166100822Y-107498777D02*
X166071506Y-107579323D01*
X166071506Y-107579323D02*
X166054791Y-107694859D01*
X166054791Y-107694859D02*
X166057621Y-107756699D01*
X166057621Y-107756699D02*
X166082824Y-107826683D01*
X166082824Y-107826683D02*
X166140173Y-107877961D01*
X166140173Y-107877961D02*
X166252041Y-107918678D01*
X165990237Y-107245692D02*
X165977635Y-107210701D01*
X165977635Y-107210701D02*
X165942660Y-107167566D01*
X165942660Y-107167566D02*
X165830792Y-107126849D01*
X165830792Y-107126849D02*
X165776272Y-107137411D01*
X165776272Y-107137411D02*
X165744127Y-107156116D01*
X165744127Y-107156116D02*
X165702209Y-107201669D01*
X165702209Y-107201669D02*
X165682665Y-107255366D01*
X165682665Y-107255366D02*
X165675723Y-107344054D01*
X165675723Y-107344054D02*
X165826942Y-107763954D01*
X165826942Y-107763954D02*
X165536085Y-107658091D01*
X165088613Y-107495224D02*
X165357096Y-107592945D01*
X165222854Y-107544085D02*
X165428067Y-106980269D01*
X165428067Y-106980269D02*
X165443498Y-107077101D01*
X165443498Y-107077101D02*
X165468701Y-107147084D01*
X165468701Y-107147084D02*
X165503676Y-107190219D01*
X168858234Y-100758220D02*
X169063446Y-100194404D01*
X169063446Y-100194404D02*
X168951578Y-100153688D01*
X168951578Y-100153688D02*
X168874685Y-100156106D01*
X168874685Y-100156106D02*
X168810394Y-100193516D01*
X168810394Y-100193516D02*
X168768476Y-100239069D01*
X168768476Y-100239069D02*
X168707015Y-100338319D01*
X168707015Y-100338319D02*
X168677699Y-100418865D01*
X168677699Y-100418865D02*
X168660984Y-100534401D01*
X168660984Y-100534401D02*
X168663814Y-100596241D01*
X168663814Y-100596241D02*
X168689017Y-100666225D01*
X168689017Y-100666225D02*
X168746366Y-100717503D01*
X168746366Y-100717503D02*
X168858234Y-100758220D01*
X168596430Y-100085234D02*
X168583828Y-100050243D01*
X168583828Y-100050243D02*
X168548853Y-100007108D01*
X168548853Y-100007108D02*
X168436985Y-99966391D01*
X168436985Y-99966391D02*
X168382465Y-99976953D01*
X168382465Y-99976953D02*
X168350320Y-99995658D01*
X168350320Y-99995658D02*
X168308402Y-100041211D01*
X168308402Y-100041211D02*
X168288858Y-100094908D01*
X168288858Y-100094908D02*
X168281916Y-100183596D01*
X168281916Y-100183596D02*
X168433135Y-100603496D01*
X168433135Y-100603496D02*
X168142278Y-100497633D01*
X168148957Y-99922368D02*
X168136356Y-99887376D01*
X168136356Y-99887376D02*
X168101380Y-99844241D01*
X168101380Y-99844241D02*
X167989512Y-99803524D01*
X167989512Y-99803524D02*
X167934993Y-99814086D01*
X167934993Y-99814086D02*
X167902847Y-99832791D01*
X167902847Y-99832791D02*
X167860930Y-99878344D01*
X167860930Y-99878344D02*
X167841386Y-99932041D01*
X167841386Y-99932041D02*
X167834443Y-100020730D01*
X167834443Y-100020730D02*
X167985663Y-100440630D01*
X167985663Y-100440630D02*
X167694806Y-100334766D01*
X166489923Y-89552418D02*
X166695135Y-88988602D01*
X166695135Y-88988602D02*
X166583267Y-88947885D01*
X166583267Y-88947885D02*
X166506374Y-88950304D01*
X166506374Y-88950304D02*
X166442083Y-88987714D01*
X166442083Y-88987714D02*
X166400165Y-89033267D01*
X166400165Y-89033267D02*
X166338704Y-89132517D01*
X166338704Y-89132517D02*
X166309388Y-89213062D01*
X166309388Y-89213062D02*
X166292673Y-89328599D01*
X166292673Y-89328599D02*
X166295503Y-89390439D01*
X166295503Y-89390439D02*
X166320706Y-89460423D01*
X166320706Y-89460423D02*
X166378055Y-89511701D01*
X166378055Y-89511701D02*
X166489923Y-89552418D01*
X166228118Y-88879432D02*
X166215517Y-88844440D01*
X166215517Y-88844440D02*
X166180542Y-88801305D01*
X166180542Y-88801305D02*
X166068673Y-88760589D01*
X166068673Y-88760589D02*
X166014154Y-88771150D01*
X166014154Y-88771150D02*
X165982009Y-88789855D01*
X165982009Y-88789855D02*
X165940091Y-88835409D01*
X165940091Y-88835409D02*
X165920547Y-88889105D01*
X165920547Y-88889105D02*
X165913604Y-88977794D01*
X165913604Y-88977794D02*
X166064824Y-89397694D01*
X166064824Y-89397694D02*
X165773967Y-89291831D01*
X169964848Y-80005141D02*
X170170060Y-79441325D01*
X170170060Y-79441325D02*
X170058192Y-79400608D01*
X170058192Y-79400608D02*
X169981299Y-79403027D01*
X169981299Y-79403027D02*
X169917008Y-79440437D01*
X169917008Y-79440437D02*
X169875090Y-79485990D01*
X169875090Y-79485990D02*
X169813629Y-79585240D01*
X169813629Y-79585240D02*
X169784313Y-79665785D01*
X169784313Y-79665785D02*
X169767598Y-79781322D01*
X169767598Y-79781322D02*
X169770428Y-79843162D01*
X169770428Y-79843162D02*
X169795631Y-79913146D01*
X169795631Y-79913146D02*
X169852980Y-79964424D01*
X169852980Y-79964424D02*
X169964848Y-80005141D01*
X169610719Y-79237742D02*
X169565972Y-79221455D01*
X169565972Y-79221455D02*
X169511453Y-79232017D01*
X169511453Y-79232017D02*
X169479307Y-79250722D01*
X169479307Y-79250722D02*
X169437390Y-79296275D01*
X169437390Y-79296275D02*
X169375928Y-79395525D01*
X169375928Y-79395525D02*
X169327068Y-79529767D01*
X169327068Y-79529767D02*
X169310353Y-79645304D01*
X169310353Y-79645304D02*
X169313183Y-79707144D01*
X169313183Y-79707144D02*
X169325785Y-79742135D01*
X169325785Y-79742135D02*
X169360760Y-79785270D01*
X169360760Y-79785270D02*
X169405507Y-79801557D01*
X169405507Y-79801557D02*
X169460027Y-79790995D01*
X169460027Y-79790995D02*
X169492172Y-79772290D01*
X169492172Y-79772290D02*
X169534090Y-79726737D01*
X169534090Y-79726737D02*
X169595551Y-79627487D01*
X169595551Y-79627487D02*
X169644411Y-79493245D01*
X169644411Y-79493245D02*
X169661126Y-79377708D01*
X169661126Y-79377708D02*
X169658296Y-79315868D01*
X169658296Y-79315868D02*
X169645695Y-79280877D01*
X169645695Y-79280877D02*
X169610719Y-79237742D01*
X172156868Y-90964347D02*
X171933131Y-90882914D01*
X172142983Y-91141724D02*
X172191580Y-90520905D01*
X172191580Y-90520905D02*
X171829752Y-91027718D01*
X171923096Y-90423185D02*
X171632239Y-90317322D01*
X171632239Y-90317322D02*
X171710678Y-90589112D01*
X171710678Y-90589112D02*
X171643558Y-90564682D01*
X171643558Y-90564682D02*
X171589038Y-90575244D01*
X171589038Y-90575244D02*
X171556893Y-90593949D01*
X171556893Y-90593949D02*
X171514975Y-90639502D01*
X171514975Y-90639502D02*
X171466115Y-90773744D01*
X171466115Y-90773744D02*
X171468945Y-90835584D01*
X171468945Y-90835584D02*
X171481546Y-90870576D01*
X171481546Y-90870576D02*
X171516522Y-90913711D01*
X171516522Y-90913711D02*
X171650763Y-90962571D01*
X171650763Y-90962571D02*
X171705283Y-90952009D01*
X171705283Y-90952009D02*
X171737428Y-90933304D01*
X164752461Y-94326056D02*
X164957673Y-93762240D01*
X164957673Y-93762240D02*
X164845805Y-93721523D01*
X164845805Y-93721523D02*
X164768912Y-93723942D01*
X164768912Y-93723942D02*
X164704621Y-93761352D01*
X164704621Y-93761352D02*
X164662703Y-93806905D01*
X164662703Y-93806905D02*
X164601242Y-93906155D01*
X164601242Y-93906155D02*
X164571926Y-93986700D01*
X164571926Y-93986700D02*
X164555211Y-94102237D01*
X164555211Y-94102237D02*
X164558041Y-94164077D01*
X164558041Y-94164077D02*
X164583244Y-94234061D01*
X164583244Y-94234061D02*
X164640593Y-94285339D01*
X164640593Y-94285339D02*
X164752461Y-94326056D01*
X164218060Y-93705878D02*
X164081252Y-94081755D01*
X164408104Y-93531808D02*
X164373392Y-93975250D01*
X164373392Y-93975250D02*
X164082535Y-93869387D01*
D11*
X143071513Y-87789750D02*
X142940874Y-87825820D01*
X142940874Y-87825820D02*
X142726882Y-87814605D01*
X142726882Y-87814605D02*
X142643528Y-87767321D01*
X142643528Y-87767321D02*
X142602973Y-87722279D01*
X142602973Y-87722279D02*
X142564661Y-87634439D01*
X142564661Y-87634439D02*
X142569147Y-87548843D01*
X142569147Y-87548843D02*
X142616431Y-87465489D01*
X142616431Y-87465489D02*
X142661472Y-87424933D01*
X142661472Y-87424933D02*
X142749312Y-87386621D01*
X142749312Y-87386621D02*
X142922749Y-87352794D01*
X142922749Y-87352794D02*
X143010588Y-87314482D01*
X143010588Y-87314482D02*
X143055630Y-87273926D01*
X143055630Y-87273926D02*
X143102914Y-87190573D01*
X143102914Y-87190573D02*
X143107400Y-87104976D01*
X143107400Y-87104976D02*
X143069088Y-87017136D01*
X143069088Y-87017136D02*
X143028532Y-86972095D01*
X143028532Y-86972095D02*
X142945178Y-86924810D01*
X142945178Y-86924810D02*
X142731186Y-86913595D01*
X142731186Y-86913595D02*
X142600548Y-86949665D01*
X142303202Y-86891166D02*
X142042108Y-87778717D01*
X142042108Y-87778717D02*
X141904559Y-87127769D01*
X141904559Y-87127769D02*
X141699720Y-87760774D01*
X141699720Y-87760774D02*
X141532831Y-86850792D01*
X140805258Y-86812662D02*
X140976452Y-86821634D01*
X140976452Y-86821634D02*
X141059806Y-86868918D01*
X141059806Y-86868918D02*
X141100361Y-86913959D01*
X141100361Y-86913959D02*
X141179229Y-87046840D01*
X141179229Y-87046840D02*
X141213056Y-87220277D01*
X141213056Y-87220277D02*
X141195112Y-87562664D01*
X141195112Y-87562664D02*
X141147827Y-87646018D01*
X141147827Y-87646018D02*
X141102786Y-87686574D01*
X141102786Y-87686574D02*
X141014946Y-87724886D01*
X141014946Y-87724886D02*
X140843753Y-87715914D01*
X140843753Y-87715914D02*
X140760399Y-87668630D01*
X140760399Y-87668630D02*
X140719843Y-87623589D01*
X140719843Y-87623589D02*
X140681531Y-87535749D01*
X140681531Y-87535749D02*
X140692746Y-87321757D01*
X140692746Y-87321757D02*
X140740030Y-87238403D01*
X140740030Y-87238403D02*
X140785071Y-87197847D01*
X140785071Y-87197847D02*
X140872911Y-87159535D01*
X140872911Y-87159535D02*
X141044105Y-87168507D01*
X141044105Y-87168507D02*
X141127459Y-87215791D01*
X141127459Y-87215791D02*
X141168014Y-87260833D01*
X141168014Y-87260833D02*
X141206327Y-87348672D01*
X147372080Y-116556449D02*
X147391959Y-116690510D01*
X147391959Y-116690510D02*
X147354749Y-116901540D01*
X147354749Y-116901540D02*
X147297659Y-116978510D01*
X147297659Y-116978510D02*
X147248011Y-117013274D01*
X147248011Y-117013274D02*
X147156157Y-117040596D01*
X147156157Y-117040596D02*
X147071745Y-117025712D01*
X147071745Y-117025712D02*
X146994775Y-116968621D01*
X146994775Y-116968621D02*
X146960011Y-116918973D01*
X146960011Y-116918973D02*
X146932689Y-116827119D01*
X146932689Y-116827119D02*
X146920251Y-116650853D01*
X146920251Y-116650853D02*
X146892929Y-116558999D01*
X146892929Y-116558999D02*
X146858165Y-116509351D01*
X146858165Y-116509351D02*
X146781195Y-116452260D01*
X146781195Y-116452260D02*
X146696783Y-116437376D01*
X146696783Y-116437376D02*
X146604929Y-116464698D01*
X146604929Y-116464698D02*
X146555281Y-116499462D01*
X146555281Y-116499462D02*
X146498190Y-116576432D01*
X146498190Y-116576432D02*
X146460980Y-116787462D01*
X146460980Y-116787462D02*
X146480860Y-116921523D01*
X146386559Y-117209523D02*
X147235676Y-117576837D01*
X147235676Y-117576837D02*
X146572817Y-117634030D01*
X146572817Y-117634030D02*
X147176140Y-117914485D01*
X147176140Y-117914485D02*
X146252602Y-117969232D01*
X146997530Y-118927430D02*
X147086835Y-118420957D01*
X147042182Y-118674193D02*
X146155855Y-118517910D01*
X146155855Y-118517910D02*
X146297358Y-118455824D01*
X146297358Y-118455824D02*
X146396654Y-118386296D01*
X146396654Y-118386296D02*
X146453744Y-118309326D01*
X145977246Y-119530855D02*
X146007014Y-119362031D01*
X146007014Y-119362031D02*
X146064104Y-119285061D01*
X146064104Y-119285061D02*
X146113752Y-119250297D01*
X146113752Y-119250297D02*
X146255255Y-119188211D01*
X146255255Y-119188211D02*
X146431521Y-119175773D01*
X146431521Y-119175773D02*
X146769169Y-119235310D01*
X146769169Y-119235310D02*
X146846139Y-119292400D01*
X146846139Y-119292400D02*
X146880903Y-119342048D01*
X146880903Y-119342048D02*
X146908225Y-119433902D01*
X146908225Y-119433902D02*
X146878457Y-119602727D01*
X146878457Y-119602727D02*
X146821367Y-119679697D01*
X146821367Y-119679697D02*
X146771719Y-119714461D01*
X146771719Y-119714461D02*
X146679865Y-119741783D01*
X146679865Y-119741783D02*
X146468834Y-119704572D01*
X146468834Y-119704572D02*
X146391864Y-119647482D01*
X146391864Y-119647482D02*
X146357100Y-119597834D01*
X146357100Y-119597834D02*
X146329778Y-119505980D01*
X146329778Y-119505980D02*
X146359547Y-119337156D01*
X146359547Y-119337156D02*
X146416637Y-119260186D01*
X146416637Y-119260186D02*
X146466285Y-119225422D01*
X146466285Y-119225422D02*
X146558139Y-119198100D01*
X81939031Y-64341968D02*
X81817675Y-64402301D01*
X81817675Y-64402301D02*
X81605475Y-64432124D01*
X81605475Y-64432124D02*
X81514630Y-64401613D01*
X81514630Y-64401613D02*
X81466226Y-64365138D01*
X81466226Y-64365138D02*
X81411856Y-64286222D01*
X81411856Y-64286222D02*
X81399927Y-64201342D01*
X81399927Y-64201342D02*
X81430438Y-64110497D01*
X81430438Y-64110497D02*
X81466914Y-64062093D01*
X81466914Y-64062093D02*
X81545829Y-64007724D01*
X81545829Y-64007724D02*
X81709625Y-63941425D01*
X81709625Y-63941425D02*
X81788541Y-63887056D01*
X81788541Y-63887056D02*
X81825016Y-63838651D01*
X81825016Y-63838651D02*
X81855527Y-63747807D01*
X81855527Y-63747807D02*
X81843598Y-63662927D01*
X81843598Y-63662927D02*
X81789229Y-63584011D01*
X81789229Y-63584011D02*
X81740824Y-63547536D01*
X81740824Y-63547536D02*
X81649979Y-63517025D01*
X81649979Y-63517025D02*
X81437779Y-63546847D01*
X81437779Y-63546847D02*
X81316424Y-63607181D01*
X81013378Y-63606493D02*
X80926434Y-64527557D01*
X80926434Y-64527557D02*
X80667205Y-63914815D01*
X80667205Y-63914815D02*
X80586913Y-64575274D01*
X80586913Y-64575274D02*
X80249457Y-63713855D01*
X79569729Y-64112333D02*
X79653233Y-64706494D01*
X79734212Y-63742990D02*
X80035881Y-64349768D01*
X80035881Y-64349768D02*
X79484160Y-64427307D01*
X69707229Y-113393542D02*
X69594130Y-113468216D01*
X69594130Y-113468216D02*
X69387146Y-113523677D01*
X69387146Y-113523677D02*
X69293260Y-113504465D01*
X69293260Y-113504465D02*
X69240771Y-113474160D01*
X69240771Y-113474160D02*
X69177190Y-113402459D01*
X69177190Y-113402459D02*
X69155005Y-113319665D01*
X69155005Y-113319665D02*
X69174218Y-113225779D01*
X69174218Y-113225779D02*
X69204522Y-113173290D01*
X69204522Y-113173290D02*
X69276224Y-113109709D01*
X69276224Y-113109709D02*
X69430719Y-113023943D01*
X69430719Y-113023943D02*
X69502420Y-112960362D01*
X69502420Y-112960362D02*
X69532725Y-112907873D01*
X69532725Y-112907873D02*
X69551937Y-112813987D01*
X69551937Y-112813987D02*
X69529753Y-112731193D01*
X69529753Y-112731193D02*
X69466171Y-112659492D01*
X69466171Y-112659492D02*
X69413682Y-112629187D01*
X69413682Y-112629187D02*
X69319796Y-112609975D01*
X69319796Y-112609975D02*
X69112812Y-112665436D01*
X69112812Y-112665436D02*
X68999714Y-112740110D01*
X68698844Y-112776359D02*
X68724797Y-113701153D01*
X68724797Y-113701153D02*
X68392826Y-113124570D01*
X68392826Y-113124570D02*
X68393622Y-113789891D01*
X68393622Y-113789891D02*
X67953701Y-112976019D01*
X67400099Y-114056105D02*
X67896861Y-113922998D01*
X67648480Y-113989551D02*
X67415543Y-113120218D01*
X67415543Y-113120218D02*
X67531613Y-113222224D01*
X67531613Y-113222224D02*
X67636591Y-113282833D01*
X67636591Y-113282833D02*
X67730477Y-113302046D01*
X66499665Y-113676210D02*
X66654956Y-114255765D01*
X66617911Y-113289574D02*
X66991279Y-113855065D01*
X66991279Y-113855065D02*
X66453120Y-113999264D01*
X84304974Y-81176525D02*
X84183618Y-81236858D01*
X84183618Y-81236858D02*
X83971418Y-81266681D01*
X83971418Y-81266681D02*
X83880573Y-81236170D01*
X83880573Y-81236170D02*
X83832169Y-81199695D01*
X83832169Y-81199695D02*
X83777799Y-81120779D01*
X83777799Y-81120779D02*
X83765870Y-81035899D01*
X83765870Y-81035899D02*
X83796381Y-80945054D01*
X83796381Y-80945054D02*
X83832857Y-80896650D01*
X83832857Y-80896650D02*
X83911772Y-80842281D01*
X83911772Y-80842281D02*
X84075568Y-80775982D01*
X84075568Y-80775982D02*
X84154484Y-80721613D01*
X84154484Y-80721613D02*
X84190959Y-80673208D01*
X84190959Y-80673208D02*
X84221470Y-80582364D01*
X84221470Y-80582364D02*
X84209541Y-80497484D01*
X84209541Y-80497484D02*
X84155172Y-80418568D01*
X84155172Y-80418568D02*
X84106767Y-80382093D01*
X84106767Y-80382093D02*
X84015922Y-80351582D01*
X84015922Y-80351582D02*
X83803722Y-80381404D01*
X83803722Y-80381404D02*
X83682367Y-80441738D01*
X83379321Y-80441050D02*
X83292377Y-81362114D01*
X83292377Y-81362114D02*
X83033148Y-80749372D01*
X83033148Y-80749372D02*
X82952856Y-81409831D01*
X82952856Y-81409831D02*
X82615400Y-80548412D01*
X82358696Y-81493334D02*
X82188936Y-81517193D01*
X82188936Y-81517193D02*
X82098091Y-81486682D01*
X82098091Y-81486682D02*
X82049686Y-81450206D01*
X82049686Y-81450206D02*
X81946913Y-81334815D01*
X81946913Y-81334815D02*
X81880614Y-81171020D01*
X81880614Y-81171020D02*
X81832898Y-80831499D01*
X81832898Y-80831499D02*
X81863409Y-80740654D01*
X81863409Y-80740654D02*
X81899884Y-80692250D01*
X81899884Y-80692250D02*
X81978800Y-80637881D01*
X81978800Y-80637881D02*
X82148560Y-80614022D01*
X82148560Y-80614022D02*
X82239405Y-80644533D01*
X82239405Y-80644533D02*
X82287809Y-80681009D01*
X82287809Y-80681009D02*
X82342179Y-80759924D01*
X82342179Y-80759924D02*
X82372001Y-80972125D01*
X82372001Y-80972125D02*
X82341490Y-81062969D01*
X82341490Y-81062969D02*
X82305015Y-81111374D01*
X82305015Y-81111374D02*
X82226099Y-81165743D01*
X82226099Y-81165743D02*
X82056339Y-81189601D01*
X82056339Y-81189601D02*
X81965494Y-81159090D01*
X81965494Y-81159090D02*
X81917090Y-81122615D01*
X81917090Y-81122615D02*
X81862721Y-81043699D01*
X126349872Y-65194998D02*
X126219233Y-65231068D01*
X126219233Y-65231068D02*
X126005241Y-65219853D01*
X126005241Y-65219853D02*
X125921887Y-65172569D01*
X125921887Y-65172569D02*
X125881332Y-65127527D01*
X125881332Y-65127527D02*
X125843020Y-65039687D01*
X125843020Y-65039687D02*
X125847506Y-64954091D01*
X125847506Y-64954091D02*
X125894790Y-64870737D01*
X125894790Y-64870737D02*
X125939831Y-64830181D01*
X125939831Y-64830181D02*
X126027671Y-64791869D01*
X126027671Y-64791869D02*
X126201108Y-64758042D01*
X126201108Y-64758042D02*
X126288947Y-64719730D01*
X126288947Y-64719730D02*
X126333989Y-64679174D01*
X126333989Y-64679174D02*
X126381273Y-64595821D01*
X126381273Y-64595821D02*
X126385759Y-64510224D01*
X126385759Y-64510224D02*
X126347447Y-64422384D01*
X126347447Y-64422384D02*
X126306891Y-64377343D01*
X126306891Y-64377343D02*
X126223537Y-64330058D01*
X126223537Y-64330058D02*
X126009545Y-64318843D01*
X126009545Y-64318843D02*
X125878907Y-64354913D01*
X125581561Y-64296414D02*
X125320467Y-65183965D01*
X125320467Y-65183965D02*
X125182918Y-64533017D01*
X125182918Y-64533017D02*
X124978079Y-65166022D01*
X124978079Y-65166022D02*
X124811190Y-64256040D01*
X124507115Y-64325936D02*
X124466560Y-64280895D01*
X124466560Y-64280895D02*
X124383206Y-64233611D01*
X124383206Y-64233611D02*
X124169214Y-64222396D01*
X124169214Y-64222396D02*
X124081374Y-64260708D01*
X124081374Y-64260708D02*
X124036333Y-64301264D01*
X124036333Y-64301264D02*
X123989048Y-64384617D01*
X123989048Y-64384617D02*
X123984563Y-64470214D01*
X123984563Y-64470214D02*
X124020632Y-64600852D01*
X124020632Y-64600852D02*
X124507297Y-65141349D01*
X124507297Y-65141349D02*
X123950918Y-65112190D01*
X86670917Y-98011082D02*
X86549561Y-98071415D01*
X86549561Y-98071415D02*
X86337361Y-98101238D01*
X86337361Y-98101238D02*
X86246516Y-98070727D01*
X86246516Y-98070727D02*
X86198112Y-98034252D01*
X86198112Y-98034252D02*
X86143742Y-97955336D01*
X86143742Y-97955336D02*
X86131813Y-97870456D01*
X86131813Y-97870456D02*
X86162324Y-97779611D01*
X86162324Y-97779611D02*
X86198800Y-97731207D01*
X86198800Y-97731207D02*
X86277715Y-97676838D01*
X86277715Y-97676838D02*
X86441511Y-97610539D01*
X86441511Y-97610539D02*
X86520427Y-97556170D01*
X86520427Y-97556170D02*
X86556902Y-97507765D01*
X86556902Y-97507765D02*
X86587413Y-97416921D01*
X86587413Y-97416921D02*
X86575484Y-97332041D01*
X86575484Y-97332041D02*
X86521115Y-97253125D01*
X86521115Y-97253125D02*
X86472710Y-97216650D01*
X86472710Y-97216650D02*
X86381865Y-97186139D01*
X86381865Y-97186139D02*
X86169665Y-97215961D01*
X86169665Y-97215961D02*
X86048310Y-97276295D01*
X85745264Y-97275607D02*
X85658320Y-98196671D01*
X85658320Y-98196671D02*
X85399091Y-97583929D01*
X85399091Y-97583929D02*
X85318799Y-98244388D01*
X85318799Y-98244388D02*
X84981343Y-97382969D01*
X84300238Y-98387537D02*
X84809519Y-98315962D01*
X84554879Y-98351750D02*
X84429623Y-97460508D01*
X84429623Y-97460508D02*
X84532397Y-97575900D01*
X84532397Y-97575900D02*
X84629206Y-97648851D01*
X84629206Y-97648851D02*
X84720051Y-97679361D01*
X83877902Y-97538048D02*
X83326181Y-97615587D01*
X83326181Y-97615587D02*
X83670978Y-97913356D01*
X83670978Y-97913356D02*
X83543658Y-97931249D01*
X83543658Y-97931249D02*
X83464742Y-97985618D01*
X83464742Y-97985618D02*
X83428267Y-98034023D01*
X83428267Y-98034023D02*
X83397756Y-98124868D01*
X83397756Y-98124868D02*
X83427579Y-98337068D01*
X83427579Y-98337068D02*
X83481948Y-98415984D01*
X83481948Y-98415984D02*
X83530353Y-98452459D01*
X83530353Y-98452459D02*
X83621197Y-98482970D01*
X83621197Y-98482970D02*
X83875838Y-98447183D01*
X83875838Y-98447183D02*
X83954753Y-98392814D01*
X83954753Y-98392814D02*
X83991229Y-98344409D01*
D12*
X136901201Y-107925727D02*
X137187440Y-107559253D01*
X137357717Y-107949652D02*
X137399586Y-107150748D01*
X137399586Y-107150748D02*
X137095242Y-107134798D01*
X137095242Y-107134798D02*
X137017162Y-107168854D01*
X137017162Y-107168854D02*
X136977125Y-107204903D01*
X136977125Y-107204903D02*
X136935095Y-107278996D01*
X136935095Y-107278996D02*
X136929113Y-107393125D01*
X136929113Y-107393125D02*
X136963169Y-107471204D01*
X136963169Y-107471204D02*
X136999218Y-107511241D01*
X136999218Y-107511241D02*
X137073311Y-107553272D01*
X137073311Y-107553272D02*
X137377655Y-107569222D01*
X136580745Y-107489310D02*
X136314444Y-107475354D01*
X136178383Y-107887846D02*
X136558814Y-107907783D01*
X136558814Y-107907783D02*
X136600682Y-107108880D01*
X136600682Y-107108880D02*
X136220252Y-107088942D01*
X135876032Y-107833853D02*
X135759910Y-107865915D01*
X135759910Y-107865915D02*
X135569694Y-107855946D01*
X135569694Y-107855946D02*
X135495602Y-107813915D01*
X135495602Y-107813915D02*
X135459553Y-107773878D01*
X135459553Y-107773878D02*
X135425497Y-107695799D01*
X135425497Y-107695799D02*
X135429485Y-107619713D01*
X135429485Y-107619713D02*
X135471515Y-107545620D01*
X135471515Y-107545620D02*
X135511552Y-107509571D01*
X135511552Y-107509571D02*
X135589632Y-107475515D01*
X135589632Y-107475515D02*
X135743798Y-107445447D01*
X135743798Y-107445447D02*
X135821878Y-107411392D01*
X135821878Y-107411392D02*
X135861914Y-107375343D01*
X135861914Y-107375343D02*
X135903945Y-107301250D01*
X135903945Y-107301250D02*
X135907932Y-107225164D01*
X135907932Y-107225164D02*
X135873877Y-107147084D01*
X135873877Y-107147084D02*
X135837828Y-107107048D01*
X135837828Y-107107048D02*
X135763735Y-107065017D01*
X135763735Y-107065017D02*
X135573520Y-107055048D01*
X135573520Y-107055048D02*
X135457397Y-107087110D01*
X135097066Y-107411554D02*
X134830765Y-107397597D01*
X134694705Y-107810089D02*
X135075135Y-107830027D01*
X135075135Y-107830027D02*
X135117004Y-107031123D01*
X135117004Y-107031123D02*
X134736573Y-107011186D01*
X134508315Y-106999223D02*
X134051798Y-106975298D01*
X134238188Y-107786164D02*
X134280056Y-106987261D01*
D11*
X175106817Y-133348325D02*
X175091322Y-133482962D01*
X175091322Y-133482962D02*
X175000761Y-133677171D01*
X175000761Y-133677171D02*
X174925695Y-133736742D01*
X174925695Y-133736742D02*
X174868741Y-133757472D01*
X174868741Y-133757472D02*
X174772945Y-133760089D01*
X174772945Y-133760089D02*
X174695262Y-133723865D01*
X174695262Y-133723865D02*
X174635690Y-133648798D01*
X174635690Y-133648798D02*
X174614961Y-133591845D01*
X174614961Y-133591845D02*
X174612343Y-133496049D01*
X174612343Y-133496049D02*
X174645950Y-133322570D01*
X174645950Y-133322570D02*
X174643333Y-133226774D01*
X174643333Y-133226774D02*
X174622604Y-133169820D01*
X174622604Y-133169820D02*
X174563032Y-133094754D01*
X174563032Y-133094754D02*
X174485349Y-133058529D01*
X174485349Y-133058529D02*
X174389553Y-133061147D01*
X174389553Y-133061147D02*
X174332599Y-133081876D01*
X174332599Y-133081876D02*
X174257533Y-133141447D01*
X174257533Y-133141447D02*
X174166972Y-133335656D01*
X174166972Y-133335656D02*
X174151477Y-133470294D01*
X173985850Y-133724074D02*
X174710966Y-134298639D01*
X174710966Y-134298639D02*
X174055890Y-134182323D01*
X174055890Y-134182323D02*
X174566068Y-134609373D01*
X174566068Y-134609373D02*
X173659830Y-134423226D01*
X174131375Y-135541575D02*
X174348722Y-135075474D01*
X174240048Y-135308525D02*
X173424371Y-134928168D01*
X173424371Y-134928168D02*
X173577121Y-134904821D01*
X173577121Y-134904821D02*
X173691029Y-134863362D01*
X173691029Y-134863362D02*
X173766095Y-134803791D01*
X172971566Y-135899212D02*
X173152688Y-135510795D01*
X173152688Y-135510795D02*
X173559218Y-135653075D01*
X173559218Y-135653075D02*
X173502264Y-135673805D01*
X173502264Y-135673805D02*
X173427198Y-135733376D01*
X173427198Y-135733376D02*
X173336637Y-135927585D01*
X173336637Y-135927585D02*
X173339254Y-136023381D01*
X173339254Y-136023381D02*
X173359984Y-136080335D01*
X173359984Y-136080335D02*
X173419555Y-136155401D01*
X173419555Y-136155401D02*
X173613764Y-136245962D01*
X173613764Y-136245962D02*
X173709559Y-136243344D01*
X173709559Y-136243344D02*
X173766513Y-136222615D01*
X173766513Y-136222615D02*
X173841580Y-136163044D01*
X173841580Y-136163044D02*
X173932141Y-135968835D01*
X173932141Y-135968835D02*
X173929523Y-135873039D01*
X173929523Y-135873039D02*
X173908794Y-135816085D01*
X60907381Y-80552064D02*
X60794282Y-80626738D01*
X60794282Y-80626738D02*
X60587298Y-80682199D01*
X60587298Y-80682199D02*
X60493412Y-80662987D01*
X60493412Y-80662987D02*
X60440923Y-80632682D01*
X60440923Y-80632682D02*
X60377342Y-80560981D01*
X60377342Y-80560981D02*
X60355157Y-80478187D01*
X60355157Y-80478187D02*
X60374370Y-80384301D01*
X60374370Y-80384301D02*
X60404674Y-80331812D01*
X60404674Y-80331812D02*
X60476376Y-80268231D01*
X60476376Y-80268231D02*
X60630871Y-80182465D01*
X60630871Y-80182465D02*
X60702572Y-80118884D01*
X60702572Y-80118884D02*
X60732877Y-80066395D01*
X60732877Y-80066395D02*
X60752089Y-79972509D01*
X60752089Y-79972509D02*
X60729905Y-79889715D01*
X60729905Y-79889715D02*
X60666323Y-79818014D01*
X60666323Y-79818014D02*
X60613834Y-79787709D01*
X60613834Y-79787709D02*
X60519948Y-79768497D01*
X60519948Y-79768497D02*
X60312964Y-79823958D01*
X60312964Y-79823958D02*
X60199866Y-79898632D01*
X59898996Y-79934881D02*
X59924949Y-80859675D01*
X59924949Y-80859675D02*
X59592978Y-80283092D01*
X59592978Y-80283092D02*
X59593774Y-80948413D01*
X59593774Y-80948413D02*
X59153853Y-80134541D01*
X58408711Y-80334201D02*
X58822679Y-80223279D01*
X58822679Y-80223279D02*
X58974998Y-80626155D01*
X58974998Y-80626155D02*
X58922509Y-80595850D01*
X58922509Y-80595850D02*
X58828623Y-80576638D01*
X58828623Y-80576638D02*
X58621639Y-80632099D01*
X58621639Y-80632099D02*
X58549938Y-80695680D01*
X58549938Y-80695680D02*
X58519633Y-80748170D01*
X58519633Y-80748170D02*
X58500421Y-80842055D01*
X58500421Y-80842055D02*
X58555882Y-81049040D01*
X58555882Y-81049040D02*
X58619463Y-81120741D01*
X58619463Y-81120741D02*
X58671952Y-81151045D01*
X58671952Y-81151045D02*
X58765838Y-81170258D01*
X58765838Y-81170258D02*
X58972822Y-81114797D01*
X58972822Y-81114797D02*
X59044524Y-81051215D01*
X59044524Y-81051215D02*
X59074828Y-80998726D01*
X125756670Y-82182054D02*
X125626031Y-82218124D01*
X125626031Y-82218124D02*
X125412039Y-82206909D01*
X125412039Y-82206909D02*
X125328685Y-82159625D01*
X125328685Y-82159625D02*
X125288130Y-82114583D01*
X125288130Y-82114583D02*
X125249818Y-82026743D01*
X125249818Y-82026743D02*
X125254304Y-81941147D01*
X125254304Y-81941147D02*
X125301588Y-81857793D01*
X125301588Y-81857793D02*
X125346629Y-81817237D01*
X125346629Y-81817237D02*
X125434469Y-81778925D01*
X125434469Y-81778925D02*
X125607906Y-81745098D01*
X125607906Y-81745098D02*
X125695745Y-81706786D01*
X125695745Y-81706786D02*
X125740787Y-81666230D01*
X125740787Y-81666230D02*
X125788071Y-81582877D01*
X125788071Y-81582877D02*
X125792557Y-81497280D01*
X125792557Y-81497280D02*
X125754245Y-81409440D01*
X125754245Y-81409440D02*
X125713689Y-81364399D01*
X125713689Y-81364399D02*
X125630335Y-81317114D01*
X125630335Y-81317114D02*
X125416343Y-81305899D01*
X125416343Y-81305899D02*
X125285705Y-81341969D01*
X124988359Y-81283470D02*
X124727265Y-82171021D01*
X124727265Y-82171021D02*
X124589716Y-81520073D01*
X124589716Y-81520073D02*
X124384877Y-82153078D01*
X124384877Y-82153078D02*
X124217988Y-81243096D01*
X123961198Y-81229638D02*
X123362020Y-81198237D01*
X123362020Y-81198237D02*
X123700103Y-82117190D01*
X106473308Y-75465180D02*
X106344737Y-75508037D01*
X106344737Y-75508037D02*
X106130451Y-75508037D01*
X106130451Y-75508037D02*
X106044737Y-75465180D01*
X106044737Y-75465180D02*
X106001879Y-75422322D01*
X106001879Y-75422322D02*
X105959022Y-75336608D01*
X105959022Y-75336608D02*
X105959022Y-75250894D01*
X105959022Y-75250894D02*
X106001879Y-75165180D01*
X106001879Y-75165180D02*
X106044737Y-75122322D01*
X106044737Y-75122322D02*
X106130451Y-75079465D01*
X106130451Y-75079465D02*
X106301879Y-75036608D01*
X106301879Y-75036608D02*
X106387594Y-74993751D01*
X106387594Y-74993751D02*
X106430451Y-74950894D01*
X106430451Y-74950894D02*
X106473308Y-74865180D01*
X106473308Y-74865180D02*
X106473308Y-74779465D01*
X106473308Y-74779465D02*
X106430451Y-74693751D01*
X106430451Y-74693751D02*
X106387594Y-74650894D01*
X106387594Y-74650894D02*
X106301879Y-74608037D01*
X106301879Y-74608037D02*
X106087594Y-74608037D01*
X106087594Y-74608037D02*
X105959022Y-74650894D01*
X105659022Y-74608037D02*
X105444736Y-75508037D01*
X105444736Y-75508037D02*
X105273308Y-74865180D01*
X105273308Y-74865180D02*
X105101879Y-75508037D01*
X105101879Y-75508037D02*
X104887594Y-74608037D01*
X104416165Y-74993751D02*
X104501880Y-74950894D01*
X104501880Y-74950894D02*
X104544737Y-74908037D01*
X104544737Y-74908037D02*
X104587594Y-74822322D01*
X104587594Y-74822322D02*
X104587594Y-74779465D01*
X104587594Y-74779465D02*
X104544737Y-74693751D01*
X104544737Y-74693751D02*
X104501880Y-74650894D01*
X104501880Y-74650894D02*
X104416165Y-74608037D01*
X104416165Y-74608037D02*
X104244737Y-74608037D01*
X104244737Y-74608037D02*
X104159023Y-74650894D01*
X104159023Y-74650894D02*
X104116165Y-74693751D01*
X104116165Y-74693751D02*
X104073308Y-74779465D01*
X104073308Y-74779465D02*
X104073308Y-74822322D01*
X104073308Y-74822322D02*
X104116165Y-74908037D01*
X104116165Y-74908037D02*
X104159023Y-74950894D01*
X104159023Y-74950894D02*
X104244737Y-74993751D01*
X104244737Y-74993751D02*
X104416165Y-74993751D01*
X104416165Y-74993751D02*
X104501880Y-75036608D01*
X104501880Y-75036608D02*
X104544737Y-75079465D01*
X104544737Y-75079465D02*
X104587594Y-75165180D01*
X104587594Y-75165180D02*
X104587594Y-75336608D01*
X104587594Y-75336608D02*
X104544737Y-75422322D01*
X104544737Y-75422322D02*
X104501880Y-75465180D01*
X104501880Y-75465180D02*
X104416165Y-75508037D01*
X104416165Y-75508037D02*
X104244737Y-75508037D01*
X104244737Y-75508037D02*
X104159023Y-75465180D01*
X104159023Y-75465180D02*
X104116165Y-75422322D01*
X104116165Y-75422322D02*
X104073308Y-75336608D01*
X104073308Y-75336608D02*
X104073308Y-75165180D01*
X104073308Y-75165180D02*
X104116165Y-75079465D01*
X104116165Y-75079465D02*
X104159023Y-75036608D01*
X104159023Y-75036608D02*
X104244737Y-74993751D01*
X144164409Y-70820143D02*
X144033770Y-70856213D01*
X144033770Y-70856213D02*
X143819778Y-70844998D01*
X143819778Y-70844998D02*
X143736424Y-70797714D01*
X143736424Y-70797714D02*
X143695869Y-70752672D01*
X143695869Y-70752672D02*
X143657557Y-70664832D01*
X143657557Y-70664832D02*
X143662043Y-70579236D01*
X143662043Y-70579236D02*
X143709327Y-70495882D01*
X143709327Y-70495882D02*
X143754368Y-70455326D01*
X143754368Y-70455326D02*
X143842208Y-70417014D01*
X143842208Y-70417014D02*
X144015645Y-70383187D01*
X144015645Y-70383187D02*
X144103484Y-70344875D01*
X144103484Y-70344875D02*
X144148526Y-70304319D01*
X144148526Y-70304319D02*
X144195810Y-70220966D01*
X144195810Y-70220966D02*
X144200296Y-70135369D01*
X144200296Y-70135369D02*
X144161984Y-70047529D01*
X144161984Y-70047529D02*
X144121428Y-70002488D01*
X144121428Y-70002488D02*
X144038074Y-69955203D01*
X144038074Y-69955203D02*
X143824082Y-69943988D01*
X143824082Y-69943988D02*
X143693444Y-69980058D01*
X143396098Y-69921559D02*
X143135004Y-70809110D01*
X143135004Y-70809110D02*
X142997455Y-70158162D01*
X142997455Y-70158162D02*
X142792616Y-70791167D01*
X142792616Y-70791167D02*
X142625727Y-69881185D01*
X141765455Y-70737335D02*
X142279036Y-70764251D01*
X142022245Y-70750793D02*
X142069348Y-69852027D01*
X142069348Y-69852027D02*
X142148216Y-69984908D01*
X142148216Y-69984908D02*
X142229327Y-70074991D01*
X142229327Y-70074991D02*
X142312680Y-70122275D01*
X106473308Y-58465180D02*
X106344737Y-58508037D01*
X106344737Y-58508037D02*
X106130451Y-58508037D01*
X106130451Y-58508037D02*
X106044737Y-58465180D01*
X106044737Y-58465180D02*
X106001879Y-58422322D01*
X106001879Y-58422322D02*
X105959022Y-58336608D01*
X105959022Y-58336608D02*
X105959022Y-58250894D01*
X105959022Y-58250894D02*
X106001879Y-58165180D01*
X106001879Y-58165180D02*
X106044737Y-58122322D01*
X106044737Y-58122322D02*
X106130451Y-58079465D01*
X106130451Y-58079465D02*
X106301879Y-58036608D01*
X106301879Y-58036608D02*
X106387594Y-57993751D01*
X106387594Y-57993751D02*
X106430451Y-57950894D01*
X106430451Y-57950894D02*
X106473308Y-57865180D01*
X106473308Y-57865180D02*
X106473308Y-57779465D01*
X106473308Y-57779465D02*
X106430451Y-57693751D01*
X106430451Y-57693751D02*
X106387594Y-57650894D01*
X106387594Y-57650894D02*
X106301879Y-57608037D01*
X106301879Y-57608037D02*
X106087594Y-57608037D01*
X106087594Y-57608037D02*
X105959022Y-57650894D01*
X105659022Y-57608037D02*
X105444736Y-58508037D01*
X105444736Y-58508037D02*
X105273308Y-57865180D01*
X105273308Y-57865180D02*
X105101879Y-58508037D01*
X105101879Y-58508037D02*
X104887594Y-57608037D01*
X104630451Y-57608037D02*
X104073308Y-57608037D01*
X104073308Y-57608037D02*
X104373308Y-57950894D01*
X104373308Y-57950894D02*
X104244737Y-57950894D01*
X104244737Y-57950894D02*
X104159023Y-57993751D01*
X104159023Y-57993751D02*
X104116165Y-58036608D01*
X104116165Y-58036608D02*
X104073308Y-58122322D01*
X104073308Y-58122322D02*
X104073308Y-58336608D01*
X104073308Y-58336608D02*
X104116165Y-58422322D01*
X104116165Y-58422322D02*
X104159023Y-58465180D01*
X104159023Y-58465180D02*
X104244737Y-58508037D01*
X104244737Y-58508037D02*
X104501880Y-58508037D01*
X104501880Y-58508037D02*
X104587594Y-58465180D01*
X104587594Y-58465180D02*
X104630451Y-58422322D01*
X65307305Y-96972803D02*
X65194206Y-97047477D01*
X65194206Y-97047477D02*
X64987222Y-97102938D01*
X64987222Y-97102938D02*
X64893336Y-97083726D01*
X64893336Y-97083726D02*
X64840847Y-97053421D01*
X64840847Y-97053421D02*
X64777266Y-96981720D01*
X64777266Y-96981720D02*
X64755081Y-96898926D01*
X64755081Y-96898926D02*
X64774294Y-96805040D01*
X64774294Y-96805040D02*
X64804598Y-96752551D01*
X64804598Y-96752551D02*
X64876300Y-96688970D01*
X64876300Y-96688970D02*
X65030795Y-96603204D01*
X65030795Y-96603204D02*
X65102496Y-96539623D01*
X65102496Y-96539623D02*
X65132801Y-96487134D01*
X65132801Y-96487134D02*
X65152013Y-96393248D01*
X65152013Y-96393248D02*
X65129829Y-96310454D01*
X65129829Y-96310454D02*
X65066247Y-96238753D01*
X65066247Y-96238753D02*
X65013758Y-96208448D01*
X65013758Y-96208448D02*
X64919872Y-96189236D01*
X64919872Y-96189236D02*
X64712888Y-96244697D01*
X64712888Y-96244697D02*
X64599790Y-96319371D01*
X64298920Y-96355620D02*
X64324873Y-97280414D01*
X64324873Y-97280414D02*
X63992902Y-96703831D01*
X63992902Y-96703831D02*
X63993698Y-97369152D01*
X63993698Y-97369152D02*
X63553777Y-96555280D01*
X63000175Y-97635366D02*
X63496937Y-97502259D01*
X63248556Y-97568812D02*
X63015619Y-96699479D01*
X63015619Y-96699479D02*
X63131689Y-96801485D01*
X63131689Y-96801485D02*
X63236667Y-96862094D01*
X63236667Y-96862094D02*
X63330553Y-96881307D01*
X62229079Y-96910232D02*
X62146285Y-96932416D01*
X62146285Y-96932416D02*
X62074584Y-96995998D01*
X62074584Y-96995998D02*
X62044279Y-97048487D01*
X62044279Y-97048487D02*
X62025067Y-97142373D01*
X62025067Y-97142373D02*
X62028039Y-97319052D01*
X62028039Y-97319052D02*
X62083501Y-97526036D01*
X62083501Y-97526036D02*
X62169266Y-97680531D01*
X62169266Y-97680531D02*
X62232848Y-97752233D01*
X62232848Y-97752233D02*
X62285337Y-97782537D01*
X62285337Y-97782537D02*
X62379223Y-97801750D01*
X62379223Y-97801750D02*
X62462016Y-97779565D01*
X62462016Y-97779565D02*
X62533718Y-97715984D01*
X62533718Y-97715984D02*
X62564022Y-97663495D01*
X62564022Y-97663495D02*
X62583235Y-97569609D01*
X62583235Y-97569609D02*
X62580262Y-97392929D01*
X62580262Y-97392929D02*
X62524801Y-97185945D01*
X62524801Y-97185945D02*
X62439035Y-97031450D01*
X62439035Y-97031450D02*
X62375454Y-96959749D01*
X62375454Y-96959749D02*
X62322965Y-96929444D01*
X62322965Y-96929444D02*
X62229079Y-96910232D01*
X127491490Y-118037599D02*
X127534347Y-118166171D01*
X127534347Y-118166171D02*
X127534347Y-118380456D01*
X127534347Y-118380456D02*
X127491490Y-118466171D01*
X127491490Y-118466171D02*
X127448632Y-118509028D01*
X127448632Y-118509028D02*
X127362918Y-118551885D01*
X127362918Y-118551885D02*
X127277204Y-118551885D01*
X127277204Y-118551885D02*
X127191490Y-118509028D01*
X127191490Y-118509028D02*
X127148632Y-118466171D01*
X127148632Y-118466171D02*
X127105775Y-118380456D01*
X127105775Y-118380456D02*
X127062918Y-118209028D01*
X127062918Y-118209028D02*
X127020061Y-118123313D01*
X127020061Y-118123313D02*
X126977204Y-118080456D01*
X126977204Y-118080456D02*
X126891490Y-118037599D01*
X126891490Y-118037599D02*
X126805775Y-118037599D01*
X126805775Y-118037599D02*
X126720061Y-118080456D01*
X126720061Y-118080456D02*
X126677204Y-118123313D01*
X126677204Y-118123313D02*
X126634347Y-118209028D01*
X126634347Y-118209028D02*
X126634347Y-118423313D01*
X126634347Y-118423313D02*
X126677204Y-118551885D01*
X126634347Y-118851885D02*
X127534347Y-119066171D01*
X127534347Y-119066171D02*
X126891490Y-119237599D01*
X126891490Y-119237599D02*
X127534347Y-119409028D01*
X127534347Y-119409028D02*
X126634347Y-119623314D01*
X127534347Y-120437599D02*
X127534347Y-119923313D01*
X127534347Y-120180456D02*
X126634347Y-120180456D01*
X126634347Y-120180456D02*
X126762918Y-120094742D01*
X126762918Y-120094742D02*
X126848632Y-120009027D01*
X126848632Y-120009027D02*
X126891490Y-119923313D01*
X126634347Y-120737599D02*
X126634347Y-121337599D01*
X126634347Y-121337599D02*
X127534347Y-120951885D01*
X125519742Y-99196521D02*
X125389104Y-99232590D01*
X125389104Y-99232590D02*
X125175112Y-99221375D01*
X125175112Y-99221375D02*
X125091758Y-99174091D01*
X125091758Y-99174091D02*
X125051202Y-99129050D01*
X125051202Y-99129050D02*
X125012890Y-99041210D01*
X125012890Y-99041210D02*
X125017376Y-98955613D01*
X125017376Y-98955613D02*
X125064660Y-98872259D01*
X125064660Y-98872259D02*
X125109702Y-98831704D01*
X125109702Y-98831704D02*
X125197541Y-98793391D01*
X125197541Y-98793391D02*
X125370978Y-98759565D01*
X125370978Y-98759565D02*
X125458818Y-98721252D01*
X125458818Y-98721252D02*
X125503859Y-98680697D01*
X125503859Y-98680697D02*
X125551143Y-98597343D01*
X125551143Y-98597343D02*
X125555629Y-98511746D01*
X125555629Y-98511746D02*
X125517317Y-98423906D01*
X125517317Y-98423906D02*
X125476761Y-98378865D01*
X125476761Y-98378865D02*
X125393408Y-98331581D01*
X125393408Y-98331581D02*
X125179416Y-98320366D01*
X125179416Y-98320366D02*
X125048777Y-98356435D01*
X124751431Y-98297936D02*
X124490337Y-99185488D01*
X124490337Y-99185488D02*
X124352788Y-98534540D01*
X124352788Y-98534540D02*
X124147950Y-99167544D01*
X124147950Y-99167544D02*
X123981060Y-98257563D01*
X123120788Y-99113713D02*
X123634369Y-99140628D01*
X123377579Y-99127171D02*
X123424681Y-98228404D01*
X123424681Y-98228404D02*
X123503549Y-98361285D01*
X123503549Y-98361285D02*
X123584660Y-98451368D01*
X123584660Y-98451368D02*
X123668014Y-98498652D01*
X122264820Y-99068853D02*
X122778401Y-99095769D01*
X122521610Y-99082311D02*
X122568713Y-98183545D01*
X122568713Y-98183545D02*
X122647581Y-98316426D01*
X122647581Y-98316426D02*
X122728692Y-98406509D01*
X122728692Y-98406509D02*
X122812045Y-98453793D01*
D12*
%TO.C,J2*%
X156074958Y-66356839D02*
X155715836Y-67343516D01*
X156074958Y-66356839D02*
X157061635Y-66715960D01*
X152295635Y-76740442D02*
X151936514Y-77727119D01*
X151936514Y-77727119D02*
X152923191Y-78086240D01*
X160820405Y-68084040D02*
X161807082Y-68443161D01*
X156681962Y-79454321D02*
X157668639Y-79813442D01*
X161807082Y-68443161D02*
X161447961Y-69429839D01*
X158027760Y-78826765D02*
X157668639Y-79813442D01*
D13*
%TO.C,SW12*%
X92999999Y-91425001D02*
X92999998Y-91755000D01*
X92999999Y-104799999D02*
X93000000Y-104470000D01*
X93300000Y-91100000D02*
X93629999Y-91100001D01*
X93325000Y-105100000D02*
X93654999Y-105100001D01*
X106674999Y-91099999D02*
X106345000Y-91099998D01*
X106700000Y-105100000D02*
X106370001Y-105099999D01*
X107000000Y-91400000D02*
X106999999Y-91729999D01*
X107000001Y-104774999D02*
X107000002Y-104445000D01*
X93300000Y-91100000D02*
G75*
G03*
X92999998Y-91420002I9997J-309999D01*
G01*
X92999999Y-104799999D02*
G75*
G03*
X93320001Y-105100001I310000J9998D01*
G01*
X107000002Y-91400000D02*
G75*
G03*
X106679998Y-91099998I-310002J-10000D01*
G01*
X106700000Y-105100002D02*
G75*
G03*
X107000002Y-104779998I-10000J310002D01*
G01*
D10*
%TO.C,U1*%
X165491561Y-73761263D02*
X166431253Y-74103283D01*
X165483010Y-73784755D02*
X165140990Y-74724448D01*
X154538365Y-103854919D02*
X154196345Y-104794612D01*
X154187795Y-104818104D02*
X155127487Y-105160124D01*
X182218089Y-79849222D02*
X181325381Y-79524303D01*
X182209539Y-79872714D02*
X181867519Y-80812407D01*
X171264894Y-109942878D02*
X170922874Y-110882571D01*
X170914323Y-110906063D02*
X169965234Y-110560622D01*
D13*
%TO.C,SW6*%
X130831113Y-86034791D02*
X130813841Y-86364338D01*
X130131119Y-99391459D02*
X130148391Y-99061912D01*
X131147712Y-85725936D02*
X131477259Y-85743208D01*
X130439974Y-99708058D02*
X130769521Y-99725330D01*
X144504381Y-86425929D02*
X144174834Y-86408657D01*
X143796644Y-100408052D02*
X143467097Y-100390780D01*
X144813236Y-86742528D02*
X144795964Y-87072075D01*
X144113243Y-100099197D02*
X144130515Y-99769650D01*
X131147712Y-85725937D02*
G75*
G03*
X130831374Y-86029799I-6241J-310097D01*
G01*
X130131120Y-99391459D02*
G75*
G03*
X130434982Y-99707797I310098J-6240D01*
G01*
X144813237Y-86742528D02*
G75*
G03*
X144509373Y-86426190I-310100J6238D01*
G01*
X143796644Y-100408053D02*
G75*
G03*
X144112982Y-100104189I6238J310100D01*
G01*
%TO.C,SW16*%
X144008088Y-129644444D02*
X144333073Y-129701749D01*
X157179890Y-131966988D02*
X156854904Y-131909683D01*
X143740119Y-129292565D02*
X143797424Y-128967579D01*
X157531769Y-131699019D02*
X157589073Y-131374034D01*
X146062662Y-116120762D02*
X146005357Y-116445747D01*
X159854313Y-118527215D02*
X159797008Y-118852201D01*
X146414541Y-115852793D02*
X146739527Y-115910098D01*
X159586344Y-118175336D02*
X159261359Y-118118031D01*
X143740119Y-129292565D02*
G75*
G03*
X144003165Y-129643576I307025J-43985D01*
G01*
X157179890Y-131966988D02*
G75*
G03*
X157530902Y-131703942I43984J307027D01*
G01*
X146414541Y-115852791D02*
G75*
G03*
X146063529Y-116115839I-43983J-307029D01*
G01*
X159854315Y-118527215D02*
G75*
G03*
X159591267Y-118176203I-307029J43983D01*
G01*
%TO.C,SW4*%
X68452078Y-65187034D02*
X68498004Y-65513822D01*
X70313518Y-78431868D02*
X70267592Y-78105080D01*
X68703928Y-64823444D02*
X69030716Y-64777518D01*
X70677108Y-78683718D02*
X71003896Y-78637792D01*
X81948763Y-62962003D02*
X81621975Y-63007929D01*
X83921944Y-76822278D02*
X83595156Y-76868204D01*
X82312353Y-63213853D02*
X82358279Y-63540641D01*
X84173794Y-76458688D02*
X84127868Y-76131900D01*
X68703928Y-64823445D02*
G75*
G03*
X68451382Y-65182084I53043J-305590D01*
G01*
X70313518Y-78431868D02*
G75*
G03*
X70672158Y-78684415I305592J53044D01*
G01*
X82312354Y-63213853D02*
G75*
G03*
X81953713Y-62961307I-305593J-53047D01*
G01*
X83921944Y-76822279D02*
G75*
G03*
X84174490Y-76463638I-53047J305593D01*
G01*
%TO.C,SW14*%
X56423793Y-115875957D02*
X56509202Y-116194711D01*
X59885498Y-128795213D02*
X59800089Y-128476458D01*
X56629456Y-115484384D02*
X56948210Y-115398975D01*
X60277070Y-129000875D02*
X60595825Y-128915466D01*
X69548712Y-112022678D02*
X69229958Y-112108087D01*
X73196328Y-125539170D02*
X72877574Y-125624579D01*
X69940285Y-112228341D02*
X70025694Y-112547095D01*
X73401991Y-125147597D02*
X73316582Y-124828843D01*
X56629456Y-115484384D02*
G75*
G03*
X56422499Y-115871128I89890J-296848D01*
G01*
X59885498Y-128795213D02*
G75*
G03*
X60272242Y-129002169I296849J89892D01*
G01*
X69940286Y-112228341D02*
G75*
G03*
X69553541Y-112021385I-296850J-89893D01*
G01*
X73196328Y-125539171D02*
G75*
G03*
X73403284Y-125152426I-89893J296850D01*
G01*
%TO.C,SW9*%
X70818021Y-82021591D02*
X70863947Y-82348379D01*
X72679461Y-95266425D02*
X72633535Y-94939637D01*
X71069871Y-81658001D02*
X71396659Y-81612075D01*
X73043051Y-95518275D02*
X73369839Y-95472349D01*
X84314706Y-79796560D02*
X83987918Y-79842486D01*
X86287887Y-93656835D02*
X85961099Y-93702761D01*
X84678296Y-80048410D02*
X84724222Y-80375198D01*
X86539737Y-93293245D02*
X86493811Y-92966457D01*
X71069871Y-81658002D02*
G75*
G03*
X70817325Y-82016641I53043J-305590D01*
G01*
X72679461Y-95266425D02*
G75*
G03*
X73038101Y-95518972I305592J53044D01*
G01*
X84678297Y-80048410D02*
G75*
G03*
X84319656Y-79795864I-305593J-53047D01*
G01*
X86287887Y-93656836D02*
G75*
G03*
X86540433Y-93298195I-53047J305593D01*
G01*
%TO.C,SW2*%
X113954376Y-63434623D02*
X113937104Y-63764170D01*
X113254382Y-76791291D02*
X113271654Y-76461744D01*
X114270975Y-63125768D02*
X114600522Y-63143040D01*
X113563237Y-77107890D02*
X113892784Y-77125162D01*
X127627644Y-63825761D02*
X127298097Y-63808489D01*
X126919907Y-77807884D02*
X126590360Y-77790612D01*
X127936499Y-64142360D02*
X127919227Y-64471907D01*
X127236506Y-77499029D02*
X127253778Y-77169482D01*
X114270975Y-63125769D02*
G75*
G03*
X113954637Y-63429631I-6241J-310097D01*
G01*
X113254383Y-76791291D02*
G75*
G03*
X113558245Y-77107629I310098J-6240D01*
G01*
X127936500Y-64142360D02*
G75*
G03*
X127632636Y-63826022I-310100J6238D01*
G01*
X126919907Y-77807885D02*
G75*
G03*
X127236245Y-77504021I6238J310100D01*
G01*
%TO.C,SW13*%
X73183964Y-98856148D02*
X73229890Y-99182936D01*
X75045404Y-112100982D02*
X74999478Y-111774194D01*
X73435814Y-98492558D02*
X73762602Y-98446632D01*
X75408994Y-112352832D02*
X75735782Y-112306906D01*
X86680649Y-96631117D02*
X86353861Y-96677043D01*
X88653830Y-110491392D02*
X88327042Y-110537318D01*
X87044239Y-96882967D02*
X87090165Y-97209755D01*
X88905680Y-110127802D02*
X88859754Y-109801014D01*
X73435814Y-98492559D02*
G75*
G03*
X73183268Y-98851198I53043J-305590D01*
G01*
X75045404Y-112100982D02*
G75*
G03*
X75404044Y-112353529I305592J53044D01*
G01*
X87044240Y-96882967D02*
G75*
G03*
X86685599Y-96630421I-305593J-53047D01*
G01*
X88653830Y-110491393D02*
G75*
G03*
X88906376Y-110132752I-53047J305593D01*
G01*
D12*
%TO.C,RSW2*%
X132987643Y-105753035D02*
X132974559Y-106002693D01*
X132987643Y-105753035D02*
X133936341Y-105802754D01*
X132820168Y-108948650D02*
X132833252Y-108698992D01*
X132820168Y-108948650D02*
X133768866Y-108998369D01*
X138679832Y-106051350D02*
X137731134Y-106001631D01*
X138679832Y-106051350D02*
X138666748Y-106301008D01*
X138512357Y-109246965D02*
X137563659Y-109197246D01*
X138512357Y-109246965D02*
X138525441Y-108997307D01*
D13*
%TO.C,SW15*%
X179705148Y-124220269D02*
X179406068Y-124080805D01*
X167583283Y-118567751D02*
X167882363Y-118707215D01*
X179872913Y-124629514D02*
X179733448Y-124928594D01*
X167174038Y-118735516D02*
X167034574Y-119034596D01*
X174220395Y-136751380D02*
X174359859Y-136452300D01*
X161521519Y-130857382D02*
X161660984Y-130558302D01*
X173811150Y-136919145D02*
X173512070Y-136779680D01*
X161689284Y-131266627D02*
X161988364Y-131406091D01*
X179872912Y-124629514D02*
G75*
G03*
X179709679Y-124222382I-285179J121951D01*
G01*
X167583283Y-118567750D02*
G75*
G03*
X167176150Y-118730985I-121950J-285181D01*
G01*
X173811150Y-136919146D02*
G75*
G03*
X174218283Y-136755911I121949J285183D01*
G01*
X161521518Y-130857382D02*
G75*
G03*
X161684753Y-131264515I285183J-121949D01*
G01*
%TO.C,SW5*%
X47623945Y-83034479D02*
X47709354Y-83353233D01*
X51085650Y-95953735D02*
X51000241Y-95634980D01*
X47829608Y-82642906D02*
X48148362Y-82557497D01*
X51477222Y-96159397D02*
X51795977Y-96073988D01*
X60748864Y-79181200D02*
X60430110Y-79266609D01*
X64396480Y-92697692D02*
X64077726Y-92783101D01*
X61140437Y-79386863D02*
X61225846Y-79705617D01*
X64602143Y-92306119D02*
X64516734Y-91987365D01*
X47829608Y-82642906D02*
G75*
G03*
X47622651Y-83029650I89890J-296848D01*
G01*
X51085650Y-95953735D02*
G75*
G03*
X51472394Y-96160691I296849J89892D01*
G01*
X61140438Y-79386863D02*
G75*
G03*
X60753693Y-79179907I-296850J-89893D01*
G01*
X64396480Y-92697693D02*
G75*
G03*
X64603436Y-92310948I-89893J296850D01*
G01*
%TO.C,SW7*%
X113064664Y-80411325D02*
X113047392Y-80740872D01*
X112364670Y-93767993D02*
X112381942Y-93438446D01*
X113381263Y-80102470D02*
X113710810Y-80119742D01*
X112673525Y-94084592D02*
X113003072Y-94101864D01*
X126737932Y-80802463D02*
X126408385Y-80785191D01*
X126030195Y-94784586D02*
X125700648Y-94767314D01*
X127046787Y-81119062D02*
X127029515Y-81448609D01*
X126346794Y-94475731D02*
X126364066Y-94146184D01*
X113381263Y-80102471D02*
G75*
G03*
X113064925Y-80406333I-6241J-310097D01*
G01*
X112364671Y-93767993D02*
G75*
G03*
X112668533Y-94084331I310098J-6240D01*
G01*
X127046788Y-81119062D02*
G75*
G03*
X126742924Y-80802724I-310100J6238D01*
G01*
X126030195Y-94784587D02*
G75*
G03*
X126346533Y-94480723I6238J310100D01*
G01*
%TO.C,SW8*%
X92999999Y-74425001D02*
X92999998Y-74755000D01*
X92999999Y-87799999D02*
X93000000Y-87470000D01*
X93300000Y-74100000D02*
X93629999Y-74100001D01*
X93325000Y-88100000D02*
X93654999Y-88100001D01*
X106674999Y-74099999D02*
X106345000Y-74099998D01*
X106700000Y-88100000D02*
X106370001Y-88099999D01*
X107000000Y-74400000D02*
X106999999Y-74729999D01*
X107000001Y-87774999D02*
X107000002Y-87445000D01*
X93300000Y-74100000D02*
G75*
G03*
X92999998Y-74420002I9997J-309999D01*
G01*
X92999999Y-87799999D02*
G75*
G03*
X93320001Y-88100001I310000J9998D01*
G01*
X107000002Y-74400000D02*
G75*
G03*
X106679998Y-74099998I-310002J-10000D01*
G01*
X106700000Y-88100002D02*
G75*
G03*
X107000002Y-87779998I-10000J310002D01*
G01*
%TO.C,SW1*%
X131720824Y-69058089D02*
X131703552Y-69387636D01*
X131020830Y-82414757D02*
X131038102Y-82085210D01*
X132037423Y-68749234D02*
X132366970Y-68766506D01*
X131329685Y-82731356D02*
X131659232Y-82748628D01*
X145394092Y-69449227D02*
X145064545Y-69431955D01*
X144686355Y-83431350D02*
X144356808Y-83414078D01*
X145702947Y-69765826D02*
X145685675Y-70095373D01*
X145002954Y-83122495D02*
X145020226Y-82792948D01*
X132037423Y-68749235D02*
G75*
G03*
X131721085Y-69053097I-6241J-310097D01*
G01*
X131020831Y-82414757D02*
G75*
G03*
X131324693Y-82731095I310098J-6240D01*
G01*
X145702948Y-69765826D02*
G75*
G03*
X145399084Y-69449488I-310100J6238D01*
G01*
X144686355Y-83431351D02*
G75*
G03*
X145002693Y-83127487I6238J310100D01*
G01*
%TO.C,SW3*%
X92999999Y-57425001D02*
X92999998Y-57755000D01*
X92999999Y-70799999D02*
X93000000Y-70470000D01*
X93300000Y-57100000D02*
X93629999Y-57100001D01*
X93325000Y-71100000D02*
X93654999Y-71100001D01*
X106674999Y-57099999D02*
X106345000Y-57099998D01*
X106700000Y-71100000D02*
X106370001Y-71099999D01*
X107000000Y-57400000D02*
X106999999Y-57729999D01*
X107000001Y-70774999D02*
X107000002Y-70445000D01*
X93300000Y-57100000D02*
G75*
G03*
X92999998Y-57420002I9997J-309999D01*
G01*
X92999999Y-70799999D02*
G75*
G03*
X93320001Y-71100001I310000J9998D01*
G01*
X107000002Y-57400000D02*
G75*
G03*
X106679998Y-57099998I-310002J-10000D01*
G01*
X106700000Y-71100002D02*
G75*
G03*
X107000002Y-70779998I-10000J310002D01*
G01*
%TO.C,SW10*%
X52023869Y-99455218D02*
X52109278Y-99773972D01*
X55485574Y-112374474D02*
X55400165Y-112055719D01*
X52229532Y-99063645D02*
X52548286Y-98978236D01*
X55877146Y-112580136D02*
X56195901Y-112494727D01*
X65148788Y-95601939D02*
X64830034Y-95687348D01*
X68796404Y-109118431D02*
X68477650Y-109203840D01*
X65540361Y-95807602D02*
X65625770Y-96126356D01*
X69002067Y-108726858D02*
X68916658Y-108408104D01*
X52229532Y-99063645D02*
G75*
G03*
X52022575Y-99450389I89890J-296848D01*
G01*
X55485574Y-112374474D02*
G75*
G03*
X55872318Y-112581430I296849J89892D01*
G01*
X65540362Y-95807602D02*
G75*
G03*
X65153617Y-95600646I-296850J-89893D01*
G01*
X68796404Y-109118432D02*
G75*
G03*
X69003360Y-108731687I-89893J296850D01*
G01*
%TO.C,SW17*%
X126451311Y-131510909D02*
X126781310Y-131510910D01*
X139826309Y-131510909D02*
X139496310Y-131510908D01*
X126126310Y-131210908D02*
X126126311Y-130880909D01*
X140126310Y-131185908D02*
X140126311Y-130855909D01*
X126126309Y-117835909D02*
X126126308Y-118165908D01*
X140126310Y-117810908D02*
X140126309Y-118140907D01*
X126426310Y-117510908D02*
X126756309Y-117510909D01*
X139801309Y-117510907D02*
X139471310Y-117510906D01*
X126126310Y-131210908D02*
G75*
G03*
X126446312Y-131510910I309999J9997D01*
G01*
X139826309Y-131510909D02*
G75*
G03*
X140126311Y-131190907I-9998J310000D01*
G01*
X126426310Y-117510906D02*
G75*
G03*
X126126308Y-117830910I10000J-310002D01*
G01*
X140126312Y-117810908D02*
G75*
G03*
X139806308Y-117510906I-310002J-10000D01*
G01*
%TO.C,SW11*%
X112174953Y-97388027D02*
X112157681Y-97717574D01*
X111474959Y-110744695D02*
X111492231Y-110415148D01*
X112491552Y-97079172D02*
X112821099Y-97096444D01*
X111783814Y-111061294D02*
X112113361Y-111078566D01*
X125848221Y-97779165D02*
X125518674Y-97761893D01*
X125140484Y-111761288D02*
X124810937Y-111744016D01*
X126157076Y-98095764D02*
X126139804Y-98425311D01*
X125457083Y-111452433D02*
X125474355Y-111122886D01*
X112491552Y-97079173D02*
G75*
G03*
X112175214Y-97383035I-6241J-310097D01*
G01*
X111474960Y-110744695D02*
G75*
G03*
X111778822Y-111061033I310098J-6240D01*
G01*
X126157077Y-98095764D02*
G75*
G03*
X125853213Y-97779426I-310100J6238D01*
G01*
X125140484Y-111761289D02*
G75*
G03*
X125456822Y-111457425I6238J310100D01*
G01*
%TD*%
M02*
