%TF.GenerationSoftware,KiCad,Pcbnew,7.0.10*%
%TF.CreationDate,2024-03-18T13:49:35+01:00*%
%TF.ProjectId,chew_v1_backplate,63686577-5f76-4315-9f62-61636b706c61,rev?*%
%TF.SameCoordinates,Original*%
%TF.FileFunction,Drillmap*%
%TF.FilePolarity,Positive*%
%FSLAX45Y45*%
G04 Gerber Fmt 4.5, Leading zero omitted, Abs format (unit mm)*
G04 Created by KiCad (PCBNEW 7.0.10) date 2024-03-18 13:49:35*
%MOMM*%
%LPD*%
G01*
G04 APERTURE LIST*
%ADD10C,0.150000*%
%ADD11C,0.100000*%
%ADD12C,0.200000*%
G04 APERTURE END LIST*
D10*
X15504899Y-5923027D02*
G75*
G03*
X15397723Y-5726483I-154899J43027D01*
G01*
X5312275Y-7224654D02*
G75*
G03*
X5391575Y-6890467I-101551J200599D01*
G01*
X15504899Y-5923027D02*
X15404419Y-6209034D01*
X16581185Y-6963555D02*
X16638827Y-7136482D01*
X15404423Y-6209036D02*
G75*
G03*
X15500000Y-6410000I152307J-50774D01*
G01*
X4689725Y-7928054D02*
G75*
G03*
X5126176Y-7630017I100551J321343D01*
G01*
X17692528Y-13880975D02*
G75*
G03*
X18424349Y-8016206I-5506868J3665205D01*
G01*
X11706613Y-13359052D02*
G75*
G03*
X6004060Y-13228168I-3057297J-8910715D01*
G01*
X17263988Y-14090045D02*
G75*
G03*
X17692528Y-13880974I46902J447595D01*
G01*
X16881840Y-7385994D02*
X18307144Y-7903273D01*
X15500000Y-6410000D02*
X16338113Y-6714021D01*
X4364238Y-8036680D02*
G75*
G03*
X5717199Y-13115305I16449203J1662587D01*
G01*
X17263988Y-14090045D02*
G75*
G03*
X12656596Y-13530443I-4263988J-15859955D01*
G01*
X5717199Y-13115305D02*
G75*
G03*
X6004060Y-13228167I222801J145305D01*
G01*
X11706613Y-13359052D02*
G75*
G03*
X12656596Y-13530443I1493387J5559062D01*
G01*
X15399377Y-5720824D02*
G75*
G03*
X5391575Y-6890467I-3623836J-12393055D01*
G01*
X4364238Y-8036680D02*
G75*
G03*
X4689725Y-7928055I126015J164366D01*
G01*
X5126176Y-7630017D02*
G75*
G03*
X5313209Y-7226499I-83294J283712D01*
G01*
X16638826Y-7136482D02*
G75*
G03*
X16881840Y-7385994I379474J126493D01*
G01*
X16581186Y-6963555D02*
G75*
G03*
X16338113Y-6714021I-379476J-126495D01*
G01*
X18424349Y-8016206D02*
G75*
G03*
X18307144Y-7903273I-204349J-94794D01*
G01*
D11*
X10222515Y-6946490D02*
G75*
G03*
X8929652Y-8152104I727969J-2076671D01*
G01*
X9019537Y-9689453D02*
G75*
G03*
X8873813Y-9751129I-42024J-103700D01*
G01*
X8929652Y-8152104D02*
G75*
G03*
X9077816Y-8207308I101684J46479D01*
G01*
X10284191Y-7092214D02*
G75*
G03*
X9077816Y-8207308I666292J-1930946D01*
G01*
X10284191Y-7092214D02*
G75*
G03*
X10222515Y-6946490I-103700J42024D01*
G01*
X8873813Y-9751129D02*
G75*
G03*
X10079427Y-11043992I2076671J727969D01*
G01*
X10079427Y-11043992D02*
G75*
G03*
X10134631Y-10895828I-46479J101684D01*
G01*
X9019537Y-9689453D02*
G75*
G03*
X10134631Y-10895828I1930946J666292D01*
G01*
X12881430Y-8356868D02*
G75*
G03*
X11766336Y-7150493I-1930946J-666293D01*
G01*
X11821540Y-7002329D02*
G75*
G03*
X11766336Y-7150493I46480J-101684D01*
G01*
X13027154Y-8295192D02*
G75*
G03*
X11821540Y-7002329I-2076671J-727969D01*
G01*
X11616781Y-10954109D02*
G75*
G03*
X11678452Y-11099831I103696J-42026D01*
G01*
X11616776Y-10954107D02*
G75*
G03*
X12823151Y-9839013I-666292J1930946D01*
G01*
X12971315Y-9894217D02*
G75*
G03*
X12823151Y-9839013I-101684J-46480D01*
G01*
X12881432Y-8356863D02*
G75*
G03*
X13027154Y-8295192I42026J103696D01*
G01*
X11678452Y-11099831D02*
G75*
G03*
X12971315Y-9894217I-727969J2076671D01*
G01*
D12*
X4617515Y-14411480D02*
X4617515Y-14211480D01*
X4617515Y-14211480D02*
X4665134Y-14211480D01*
X4665134Y-14211480D02*
X4693705Y-14221004D01*
X4693705Y-14221004D02*
X4712753Y-14240051D01*
X4712753Y-14240051D02*
X4722277Y-14259099D01*
X4722277Y-14259099D02*
X4731800Y-14297194D01*
X4731800Y-14297194D02*
X4731800Y-14325765D01*
X4731800Y-14325765D02*
X4722277Y-14363861D01*
X4722277Y-14363861D02*
X4712753Y-14382908D01*
X4712753Y-14382908D02*
X4693705Y-14401956D01*
X4693705Y-14401956D02*
X4665134Y-14411480D01*
X4665134Y-14411480D02*
X4617515Y-14411480D01*
X4817515Y-14411480D02*
X4817515Y-14278146D01*
X4817515Y-14316242D02*
X4827039Y-14297194D01*
X4827039Y-14297194D02*
X4836562Y-14287670D01*
X4836562Y-14287670D02*
X4855610Y-14278146D01*
X4855610Y-14278146D02*
X4874658Y-14278146D01*
X4941324Y-14411480D02*
X4941324Y-14278146D01*
X4941324Y-14211480D02*
X4931800Y-14221004D01*
X4931800Y-14221004D02*
X4941324Y-14230527D01*
X4941324Y-14230527D02*
X4950848Y-14221004D01*
X4950848Y-14221004D02*
X4941324Y-14211480D01*
X4941324Y-14211480D02*
X4941324Y-14230527D01*
X5065134Y-14411480D02*
X5046086Y-14401956D01*
X5046086Y-14401956D02*
X5036562Y-14382908D01*
X5036562Y-14382908D02*
X5036562Y-14211480D01*
X5169896Y-14411480D02*
X5150848Y-14401956D01*
X5150848Y-14401956D02*
X5141324Y-14382908D01*
X5141324Y-14382908D02*
X5141324Y-14211480D01*
X5398467Y-14411480D02*
X5398467Y-14211480D01*
X5398467Y-14211480D02*
X5465134Y-14354337D01*
X5465134Y-14354337D02*
X5531800Y-14211480D01*
X5531800Y-14211480D02*
X5531800Y-14411480D01*
X5712753Y-14411480D02*
X5712753Y-14306718D01*
X5712753Y-14306718D02*
X5703229Y-14287670D01*
X5703229Y-14287670D02*
X5684181Y-14278146D01*
X5684181Y-14278146D02*
X5646086Y-14278146D01*
X5646086Y-14278146D02*
X5627038Y-14287670D01*
X5712753Y-14401956D02*
X5693705Y-14411480D01*
X5693705Y-14411480D02*
X5646086Y-14411480D01*
X5646086Y-14411480D02*
X5627038Y-14401956D01*
X5627038Y-14401956D02*
X5617515Y-14382908D01*
X5617515Y-14382908D02*
X5617515Y-14363861D01*
X5617515Y-14363861D02*
X5627038Y-14344813D01*
X5627038Y-14344813D02*
X5646086Y-14335289D01*
X5646086Y-14335289D02*
X5693705Y-14335289D01*
X5693705Y-14335289D02*
X5712753Y-14325765D01*
X5807991Y-14278146D02*
X5807991Y-14478146D01*
X5807991Y-14287670D02*
X5827038Y-14278146D01*
X5827038Y-14278146D02*
X5865134Y-14278146D01*
X5865134Y-14278146D02*
X5884181Y-14287670D01*
X5884181Y-14287670D02*
X5893705Y-14297194D01*
X5893705Y-14297194D02*
X5903229Y-14316242D01*
X5903229Y-14316242D02*
X5903229Y-14373384D01*
X5903229Y-14373384D02*
X5893705Y-14392432D01*
X5893705Y-14392432D02*
X5884181Y-14401956D01*
X5884181Y-14401956D02*
X5865134Y-14411480D01*
X5865134Y-14411480D02*
X5827038Y-14411480D01*
X5827038Y-14411480D02*
X5807991Y-14401956D01*
X5988943Y-14392432D02*
X5998467Y-14401956D01*
X5998467Y-14401956D02*
X5988943Y-14411480D01*
X5988943Y-14411480D02*
X5979419Y-14401956D01*
X5979419Y-14401956D02*
X5988943Y-14392432D01*
X5988943Y-14392432D02*
X5988943Y-14411480D01*
X5988943Y-14287670D02*
X5998467Y-14297194D01*
X5998467Y-14297194D02*
X5988943Y-14306718D01*
X5988943Y-14306718D02*
X5979419Y-14297194D01*
X5979419Y-14297194D02*
X5988943Y-14287670D01*
X5988943Y-14287670D02*
X5988943Y-14306718D01*
M02*
